<?xml version="1.0" encoding="UTF-8" standalone="no"?>
<!DOCTYPE svg PUBLIC "-//W3C//DTD SVG 1.1//EN" "http://www.w3.org/Graphics/SVG/1.1/DTD/svg11.dtd">
<svg xmlns="http://www.w3.org/2000/svg" version="1.1" viewBox="0.00 0.00 724.00 724.00">
<g fill="#ff00c8">
<path d="
  M 650.95 185.98
  A 73.00 73.00 0.0 0 1 577.95 258.98
  A 73.00 73.00 0.0 0 1 504.95 185.98
  A 73.00 73.00 0.0 0 1 577.95 112.98
  A 73.00 73.00 0.0 0 1 650.95 185.98
  Z
  M 604.1772 141.3209
  A 18.59 17.90 -82.0 0 0 583.8642 157.2388
  A 18.59 17.90 -82.0 0 0 599.0028 178.1391
  A 18.59 17.90 -82.0 0 0 619.3158 162.2212
  A 18.59 17.90 -82.0 0 0 604.1772 141.3209
  Z
  M 541.8115 195.6437
  A 13.80 13.39 -163.6 0 0 551.2694 212.3852
  A 13.80 13.39 -163.6 0 0 568.2885 203.4363
  A 13.80 13.39 -163.6 0 0 558.8306 186.6948
  A 13.80 13.39 -163.6 0 0 541.8115 195.6437
  Z
  M 616.2586 218.8291
  A 11.52 11.12 -0.9 0 0 604.5653 207.8914
  A 11.52 11.12 -0.9 0 0 593.2214 219.1909
  A 11.52 11.12 -0.9 0 0 604.9147 230.1286
  A 11.52 11.12 -0.9 0 0 616.2586 218.8291
  Z"
/>
</g>
<g fill="#ffe600">
<ellipse cx="0.00" cy="0.00" transform="translate(601.59,159.73) rotate(-82.0)" rx="18.59" ry="17.90"/>
<ellipse cx="0.00" cy="0.00" transform="translate(555.05,199.54) rotate(-163.6)" rx="13.80" ry="13.39"/>
<ellipse cx="0.00" cy="0.00" transform="translate(604.74,219.01) rotate(-0.9)" rx="11.52" ry="11.12"/>

<path d="
  M 582.99 360.47
  A 0.36 0.36 0.0 0 1 583.53 360.10
  C 611.08 376.02 639.34 395.10 661.46 416.21
  C 679.15 433.10 693.55 451.18 701.07 473.43
  C 707.25 491.72 702.65 511.29 690.00 525.51
  C 680.79 535.85 668.41 543.41 655.97 548.98
  Q 635.64 558.10 612.55 562.25
  Q 594.23 565.55 582.50 566.27
  C 567.17 567.22 557.58 568.18 546.49 568.01
  Q 521.34 567.62 506.50 566.58
  Q 444.50 562.23 383.36 548.64
  Q 285.77 526.94 196.06 484.90
  Q 157.03 466.60 119.58 442.40
  Q 94.45 426.17 73.71 407.78
  Q 61.69 397.13 49.86 383.91
  Q 34.12 366.33 24.50 344.97
  Q 19.85 334.65 19.96 323.52
  Q 20.23 296.61 41.86 280.78
  C 59.61 267.80 81.40 260.58 102.67 256.68
  Q 130.25 251.63 163.51 251.13
  Q 176.83 250.93 189.63 252.22
  A 0.22 0.22 0.0 0 1 189.78 252.57
  L 172.54 275.40
  A 1.36 1.33 -72.1 0 1 171.51 275.94
  C 146.13 276.88 110.63 283.99 95.51 307.24
  C 82.06 327.92 95.46 354.76 109.83 370.93
  C 133.51 397.57 162.54 419.32 193.61 437.12
  Q 221.76 453.25 251.54 465.70
  C 271.10 473.87 293.66 482.41 314.15 488.65
  Q 354.17 500.85 383.77 507.18
  Q 419.51 514.82 456.01 518.93
  Q 473.08 520.86 492.77 521.76
  Q 524.31 523.20 554.31 519.07
  C 575.23 516.20 596.30 510.75 614.15 499.19
  Q 618.46 496.40 625.01 489.72
  Q 638.87 475.59 635.09 455.94
  C 629.64 427.61 608.39 406.84 586.68 389.78
  A 1.35 1.35 0.0 0 1 586.16 388.78
  Q 585.47 375.37 582.99 360.47
  Z"
/>
</g>
<g fill="#00e5ff">
<path d="
  M 153.83 386.33
  Q 156.13 364.99 159.54 350.76
  C 170.14 306.46 196.86 267.88 232.94 239.79
  Q 255.46 222.25 282.16 211.98
  Q 328.18 194.28 378.50 198.29
  Q 399.31 199.95 422.94 206.72
  C 467.25 219.43 506.57 248.80 532.53 286.24
  C 555.26 319.03 567.45 358.37 567.39 398.48
  C 567.35 434.30 560.62 470.43 541.15 501.07
  A 2.40 2.39 -78.3 0 1 539.50 502.16
  C 535.28 502.86 530.69 502.79 526.87 502.91
  C 497.22 503.80 469.66 501.91 439.77 498.12
  Q 431.73 497.10 413.29 493.89
  Q 371.47 486.61 329.19 474.02
  C 286.47 461.30 245.56 444.94 206.94 423.82
  Q 180.54 409.38 157.25 390.77
  Q 155.11 389.07 154.11 387.53
  A 1.80 1.79 32.0 0 1 153.83 386.33
  Z"
/>
<path d="
  M 176.05 496.18
  A 0.28 0.28 0.0 0 1 176.46 495.89
  Q 191.87 503.58 206.64 510.11
  Q 328.11 563.79 459.96 581.04
  A 0.57 0.57 0.0 0 1 460.17 582.11
  C 429.65 599.45 395.44 607.93 360.27 607.93
  C 303.57 607.94 246.93 582.68 207.65 541.84
  Q 189.95 523.43 177.06 498.91
  Q 176.21 497.31 176.05 496.18
  Z"
/>
</g>

<path fill="#0c0c1d" d="
  M 492.81 217.39
  Q 492.67 216.75 491.96 216.05
  A 3.04 3.00 -74.6 0 1 491.16 214.62
  Q 489.10 205.98 488.79 204.48
  Q 486.19 192.26 486.94 180.13
  C 487.20 175.89 487.80 169.31 489.19 164.05
  C 493.83 146.41 504.26 128.05 518.72 116.25
  Q 538.22 100.33 561.86 95.94
  Q 568.30 94.75 580.78 94.94
  Q 590.99 95.09 599.56 97.20
  C 631.96 105.19 656.62 128.68 666.39 160.53
  Q 668.73 168.17 669.14 178.85
  Q 669.67 192.43 668.17 202.99
  Q 667.11 210.46 663.44 219.54
  Q 660.08 227.87 655.41 234.73
  Q 639.25 258.50 613.87 270.39
  Q 604.70 274.69 592.31 276.60
  C 586.15 277.55 578.66 276.92 571.99 277.12
  C 563.19 277.40 557.19 275.32 548.79 272.81
  A 1.24 1.24 0.0 0 1 547.97 272.03
  Q 547.95 271.97 547.90 271.77
  A 1.05 1.04 85.9 0 0 547.01 270.99
  Q 545.97 270.88 545.22 271.51
  A 0.53 0.53 0.0 0 0 545.29 272.38
  Q 547.30 273.52 548.14 274.62
  Q 548.33 274.88 554.48 284.43
  Q 557.87 289.68 560.36 294.54
  Q 566.91 307.33 568.41 310.83
  Q 572.91 321.32 576.59 333.25
  A 2.86 2.82 -84.4 0 0 577.92 334.89
  C 610.47 353.02 642.38 372.98 669.57 397.25
  Q 678.18 404.93 691.32 419.13
  C 706.67 435.72 719.52 457.91 722.45 480.51
  C 724.72 497.98 721.31 515.78 711.19 530.16
  Q 698.85 547.70 677.97 559.73
  C 658.25 571.09 636.08 578.23 614.05 582.01
  C 604.66 583.62 594.70 585.12 584.26 585.83
  Q 553.12 587.94 520.00 586.45
  Q 501.77 585.64 495.50 585.10
  C 492.98 584.88 491.29 585.45 489.08 586.92
  Q 475.64 595.83 470.86 598.63
  Q 435.41 619.41 394.47 625.37
  Q 385.81 626.64 375.82 626.84
  Q 359.67 627.15 345.25 626.89
  Q 325.49 626.53 305.03 620.96
  Q 246.58 605.06 203.34 564.78
  C 183.25 546.07 167.00 524.12 155.64 499.15
  Q 152.31 491.83 149.09 484.26
  Q 148.13 482.00 144.09 479.76
  Q 108.73 460.16 82.05 439.70
  C 57.95 421.22 37.21 401.96 20.46 378.08
  Q 11.31 365.04 5.27 349.03
  Q 1.13 338.07 0.66 324.67
  C -0.15 301.78 9.91 280.86 27.84 266.56
  Q 39.82 257.01 54.65 250.95
  Q 77.56 241.59 100.75 237.60
  Q 122.57 233.85 145.94 233.16
  Q 162.03 232.69 196.73 233.36
  C 200.94 233.44 205.11 234.74 209.36 233.24
  A 3.29 3.23 -74.3 0 0 210.41 232.64
  Q 219.45 225.05 225.72 220.48
  C 252.13 201.24 282.89 187.41 315.28 181.70
  C 330.78 178.96 344.13 178.38 360.15 177.98
  C 366.75 177.82 374.93 178.38 381.50 178.80
  Q 392.82 179.51 402.72 181.59
  C 407.17 182.53 410.98 183.02 415.78 184.20
  C 441.09 190.41 465.11 199.72 486.66 213.84
  Q 489.47 215.69 491.44 218.06
  A 0.78 0.78 0.0 0 0 492.81 217.39
  Z
  M 650.95 185.98
  A 73.00 73.00 0.0 0 0 577.95 112.98
  A 73.00 73.00 0.0 0 0 504.95 185.98
  A 73.00 73.00 0.0 0 0 577.95 258.98
  A 73.00 73.00 0.0 0 0 650.95 185.98
  Z
  M 154.11 387.53
  Q 155.11 389.07 157.25 390.77
  Q 180.54 409.38 206.94 423.82
  C 245.56 444.94 286.47 461.30 329.19 474.02
  Q 371.47 486.61 413.29 493.89
  Q 431.73 497.10 439.77 498.12
  C 469.66 501.91 497.22 503.80 526.87 502.91
  C 530.69 502.79 535.28 502.86 539.50 502.16
  A 2.40 2.39 -78.3 0 0 541.15 501.07
  C 560.62 470.43 567.35 434.30 567.39 398.48
  C 567.45 358.37 555.26 319.03 532.53 286.24
  C 506.57 248.80 467.25 219.43 422.94 206.72
  Q 399.31 199.95 378.50 198.29
  Q 328.18 194.28 282.16 211.98
  Q 255.46 222.25 232.94 239.79
  C 196.86 267.88 170.14 306.46 159.54 350.76
  Q 156.13 364.99 153.83 386.33
  A 1.80 1.79 32.0 0 0 154.11 387.53
  Z
  M 582.99 360.47
  Q 585.47 375.37 586.16 388.78
  A 1.35 1.35 0.0 0 0 586.68 389.78
  C 608.39 406.84 629.64 427.61 635.09 455.94
  Q 638.87 475.59 625.01 489.72
  Q 618.46 496.40 614.15 499.19
  C 596.30 510.75 575.23 516.20 554.31 519.07
  Q 524.31 523.20 492.77 521.76
  Q 473.08 520.86 456.01 518.93
  Q 419.51 514.82 383.77 507.18
  Q 354.17 500.85 314.15 488.65
  C 293.66 482.41 271.10 473.87 251.54 465.70
  Q 221.76 453.25 193.61 437.12
  C 162.54 419.32 133.51 397.57 109.83 370.93
  C 95.46 354.76 82.06 327.92 95.51 307.24
  C 110.63 283.99 146.13 276.88 171.51 275.94
  A 1.36 1.33 -72.1 0 0 172.54 275.40
  L 189.78 252.57
  A 0.22 0.22 0.0 0 0 189.63 252.22
  Q 176.83 250.93 163.51 251.13
  Q 130.25 251.63 102.67 256.68
  C 81.40 260.58 59.61 267.80 41.86 280.78
  Q 20.23 296.61 19.96 323.52
  Q 19.85 334.65 24.50 344.97
  Q 34.12 366.33 49.86 383.91
  Q 61.69 397.13 73.71 407.78
  Q 94.45 426.17 119.58 442.40
  Q 157.03 466.60 196.06 484.90
  Q 285.77 526.94 383.36 548.64
  Q 444.50 562.23 506.50 566.58
  Q 521.34 567.62 546.49 568.01
  C 557.58 568.18 567.17 567.22 582.50 566.27
  Q 594.23 565.55 612.55 562.25
  Q 635.64 558.10 655.97 548.98
  C 668.41 543.41 680.79 535.85 690.00 525.51
  C 702.65 511.29 707.25 491.72 701.07 473.43
  C 693.55 451.18 679.15 433.10 661.46 416.21
  C 639.34 395.10 611.08 376.02 583.53 360.10
  A 0.36 0.36 0.0 0 0 582.99 360.47
  Z
  M 135.66 370.99
  A 0.29 0.29 0.0 0 0 136.14 370.73
  Q 135.92 369.14 136.44 367.77
  A 3.91 3.44 61.9 0 0 136.62 367.00
  Q 139.83 342.37 148.61 319.77
  Q 151.00 313.61 153.92 308.06
  Q 158.87 298.68 159.70 296.52
  A 0.42 0.42 0.0 0 0 159.22 295.96
  Q 156.77 296.50 144.96 298.72
  Q 140.75 299.52 130.63 303.40
  Q 121.29 306.99 114.95 314.44
  Q 110.73 319.39 109.63 326.64
  C 109.09 330.22 110.55 337.20 111.88 339.85
  Q 120.77 357.57 135.66 370.99
  Z
  M 566.22 498.28
  Q 572.15 496.63 581.36 493.57
  Q 593.64 489.48 604.19 482.98
  Q 616.84 475.18 616.19 462.06
  C 615.82 454.58 611.55 444.66 607.55 438.68
  Q 600.23 427.72 590.19 417.57
  Q 588.52 415.89 587.32 415.06
  A 0.88 0.87 16.8 0 0 585.95 415.79
  L 586.00 419.53
  A 0.35 0.31 -41.4 0 1 585.99 419.61
  C 584.66 429.78 583.88 439.58 581.69 449.22
  Q 579.45 459.08 577.72 465.73
  Q 573.46 482.11 565.39 497.24
  A 0.72 0.72 0.0 0 0 566.22 498.28
  Z
  M 176.05 496.18
  Q 176.21 497.31 177.06 498.91
  Q 189.95 523.43 207.65 541.84
  C 246.93 582.68 303.57 607.94 360.27 607.93
  C 395.44 607.93 429.65 599.45 460.17 582.11
  A 0.57 0.57 0.0 0 0 459.96 581.04
  Q 328.11 563.79 206.64 510.11
  Q 191.87 503.58 176.46 495.89
  A 0.28 0.28 0.0 0 0 176.05 496.18
  Z"
/>
</svg>
