<?xml version="1.0" encoding="UTF-8" standalone="no"?>
<!DOCTYPE svg PUBLIC "-//W3C//DTD SVG 1.1//EN" "http://www.w3.org/Graphics/SVG/1.1/DTD/svg11.dtd">
<svg xmlns="http://www.w3.org/2000/svg" version="1.1" viewBox="0.00 0.00 840.00 840.00">
<g fill="#ff00c8">
<path d="
  M 171.95 168.33
  Q 172.21 168.33 172.29 168.51
  Q 181.69 189.47 202.56 199.24
  Q 202.67 199.30 202.67 199.61
  Q 202.67 199.93 202.56 199.98
  Q 181.68 209.73 172.25 230.69
  Q 172.17 230.86 171.91 230.86
  Q 171.66 230.86 171.58 230.69
  Q 162.17 209.72 141.31 199.95
  Q 141.19 199.89 141.19 199.58
  Q 141.19 199.26 141.31 199.21
  Q 162.18 189.46 171.61 168.50
  Q 171.69 168.33 171.95 168.33
  Z"
/>
<path d="
  M 700.21 631.00
  Q 700.27 631.00 700.33 631.02
  A 0.37 0.25 4.1 0 1 700.55 631.20
  Q 710.18 652.16 731.00 661.95
  Q 731.24 662.07 731.24 662.37
  Q 731.24 662.67 731.00 662.79
  Q 710.18 672.57 700.54 693.53
  A 0.37 0.25 -4.0 0 1 700.32 693.70
  Q 700.26 693.72 700.20 693.72
  Q 700.14 693.72 700.08 693.70
  A 0.37 0.25 4.1 0 1 699.86 693.53
  Q 690.23 672.57 669.41 662.77
  Q 669.17 662.66 669.17 662.36
  Q 669.17 662.05 669.41 661.94
  Q 690.23 652.15 699.87 631.20
  A 0.37 0.25 -4.0 0 1 700.09 631.02
  Q 700.15 631.00 700.21 631.00
  Z"
/>
</g>
<g fill="#ffe600">
<ellipse cx="0.00" cy="0.00" transform="translate(613.63,136.33) rotate(-6.6)" rx="12.18" ry="11.98"/>
<circle cx="175.62" cy="703.05" r="12.01"/>
<path d="
  M 186.06 376.91
  A 0.62 0.62 0.0 0 1 186.89 377.62
  Q 183.25 393.73 181.89 409.71
  Q 181.74 411.42 179.70 412.25
  Q 162.26 419.29 142.34 432.11
  C 130.47 439.75 119.99 449.11 111.63 459.86
  C 105.30 467.99 99.50 480.18 99.10 490.71
  C 98.13 516.29 119.26 532.50 140.65 540.85
  Q 160.02 548.42 181.19 552.81
  Q 203.37 557.41 220.99 559.00
  C 229.53 559.78 239.15 560.83 246.70 561.05
  Q 256.75 561.36 262.74 561.62
  C 274.79 562.15 284.17 561.96 298.60 561.68
  Q 314.75 561.36 318.41 561.16
  Q 452.57 553.75 578.17 507.16
  Q 626.66 489.17 669.42 462.94
  Q 685.98 452.78 701.42 440.68
  Q 716.64 428.75 727.12 414.17
  C 733.29 405.60 738.76 393.17 737.50 382.51
  C 735.74 367.49 728.22 358.50 716.00 350.21
  Q 705.32 342.96 692.13 339.11
  C 674.52 333.97 657.30 332.13 639.10 331.55
  A 2.09 2.08 -11.5 0 1 637.27 330.34
  Q 631.02 316.76 622.44 302.89
  A 0.78 0.78 0.0 0 1 623.09 301.70
  Q 676.07 300.52 727.17 309.09
  Q 740.68 311.36 757.38 316.36
  Q 790.70 326.34 813.40 351.09
  C 838.98 378.97 821.45 414.53 800.47 437.98
  Q 778.16 462.90 749.14 481.89
  C 717.79 502.40 684.57 519.69 649.44 534.67
  Q 588.84 560.52 522.24 578.76
  Q 414.03 608.38 301.02 614.08
  C 292.35 614.52 278.71 614.23 266.26 614.72
  C 254.82 615.17 244.05 614.71 228.76 614.10
  Q 181.51 612.21 136.00 603.00
  C 110.69 597.88 85.31 590.02 62.55 578.44
  C 49.37 571.74 35.17 561.85 25.09 549.52
  C 7.70 528.23 11.35 502.37 25.57 480.57
  Q 34.74 466.52 49.46 453.44
  C 88.90 418.38 136.70 396.18 186.06 376.91
  Z"
/>
</g>
<g fill="#00e5ff">
<path d="
  M 224.45 544.51
  Q 203.92 510.57 197.14 473.69
  C 183.90 401.71 206.64 327.79 256.17 274.71
  C 298.84 228.98 359.74 204.24 422.52 204.86
  Q 435.84 205.00 442.82 205.66
  C 540.17 214.90 624.17 287.94 641.03 385.69
  Q 647.61 423.82 642.77 462.09
  A 2.08 2.07 79.1 0 1 641.72 463.65
  Q 615.34 478.49 584.73 490.46
  Q 510.57 519.46 428.98 534.72
  Q 363.64 546.95 298.00 548.89
  Q 263.53 549.90 228.75 546.95
  C 226.28 546.74 225.82 546.78 224.45 544.51
  Z"
/>

<path d="
  M 601.87 568.44
  C 600.15 571.55 597.84 574.17 595.74 576.81
  C 556.38 626.51 497.66 657.17 434.50 661.94
  Q 426.70 662.53 412.66 662.26
  Q 400.63 662.04 390.89 660.55
  Q 365.18 656.61 347.01 650.46
  Q 322.92 642.31 301.60 628.39
  A 0.81 0.78 -51.6 0 1 301.48 627.18
  Q 301.72 626.93 302.25 626.91
  C 339.65 625.46 376.88 621.20 414.52 615.33
  C 478.37 605.37 540.67 589.05 601.26 567.71
  A 0.51 0.51 0.0 0 1 601.87 568.44
  Z"
/>
</g>
<g fill="#0c0c1d">
<path d="
  M 637.5748 135.2294
  A 24.05 23.35 -3.1 0 1 614.8227 159.8458
  A 24.05 23.35 -3.1 0 1 589.5452 137.8306
  A 24.05 23.35 -3.1 0 1 612.2973 113.2142
  A 24.05 23.35 -3.1 0 1 637.5748 135.2294
  Z
  M 625.7293 134.9301
  A 12.18 11.98 -6.6 0 0 612.2531 124.4294
  A 12.18 11.98 -6.6 0 0 601.5307 137.7299
  A 12.18 11.98 -6.6 0 0 615.0069 148.2306
  A 12.18 11.98 -6.6 0 0 625.7293 134.9301
  Z"
/>
<path d="
  M 176.27 254.86
  C 171.42 258.42 167.02 255.34 165.83 250.19
  C 163.40 239.75 158.29 228.05 151.03 220.81
  C 142.56 212.35 132.90 208.84 121.32 205.70
  Q 118.00 204.80 115.95 200.53
  A 1.39 1.36 41.6 0 1 115.88 199.51
  Q 117.42 194.87 121.56 193.84
  C 145.21 187.99 161.42 173.52 166.25 149.16
  C 167.28 143.99 172.76 141.22 176.82 145.32
  Q 177.93 146.45 178.82 149.82
  Q 179.85 153.75 181.00 157.51
  Q 188.15 180.74 210.57 189.92
  Q 213.56 191.14 223.04 194.16
  Q 225.09 194.82 226.47 197.25
  C 228.35 200.57 226.01 204.82 222.42 205.67
  C 209.63 208.72 197.92 214.14 190.16 223.88
  C 185.25 230.05 181.19 238.61 179.13 247.54
  Q 177.98 252.56 177.02 254.06
  A 2.98 2.98 0.0 0 1 176.27 254.86
  Z
  M 141.19 199.58
  Q 141.19 199.89 141.31 199.95
  Q 162.17 209.72 171.58 230.69
  Q 171.66 230.86 171.91 230.86
  Q 172.17 230.86 172.25 230.69
  Q 181.68 209.73 202.56 199.98
  Q 202.67 199.93 202.67 199.61
  Q 202.67 199.30 202.56 199.24
  Q 181.69 189.47 172.29 168.51
  Q 172.21 168.33 171.95 168.33
  Q 171.69 168.33 171.61 168.50
  Q 162.18 189.46 141.31 199.21
  Q 141.19 199.26 141.19 199.58
  Z"
/>
<path d="
  M 612.83 288.24
  A 1.72 1.71 73.2 0 0 614.26 289.01
  Q 623.37 289.08 649.50 289.01
  Q 655.77 288.99 658.34 289.31
  Q 662.33 289.81 667.18 289.88
  Q 693.52 290.26 720.31 294.81
  Q 747.66 299.46 764.04 305.13
  Q 784.16 312.10 803.96 325.58
  C 817.45 334.78 828.55 346.06 835.03 360.89
  C 842.31 377.53 839.63 398.12 832.02 414.27
  C 823.03 433.33 809.31 449.44 793.69 463.71
  C 770.04 485.32 741.82 503.26 713.53 518.51
  Q 671.00 541.44 627.03 558.01
  C 624.31 559.03 622.37 561.18 620.62 563.98
  C 600.15 596.68 573.61 623.24 540.12 642.59
  C 510.51 659.70 478.89 670.62 445.52 674.51
  C 405.59 679.16 363.59 672.30 326.56 656.71
  C 309.72 649.62 294.66 640.20 280.41 629.31
  A 3.73 3.67 -21.2 0 0 278.74 628.59
  Q 274.19 627.88 273.00 627.90
  Q 239.33 628.47 206.00 626.05
  C 164.36 623.03 125.14 616.33 86.82 603.15
  C 65.17 595.70 44.98 585.50 26.99 570.77
  C 13.99 560.12 3.57 545.00 1.14 528.13
  C 0.62 524.56 0.11 519.41 0.34 515.60
  C 1.78 492.15 13.71 472.03 29.55 455.04
  C 49.88 433.25 74.66 415.62 100.33 401.12
  Q 118.86 390.66 143.42 379.95
  Q 168.79 368.90 190.08 361.05
  A 2.79 2.76 88.7 0 0 191.76 359.28
  C 207.55 309.45 238.82 265.12 281.44 235.06
  C 315.95 210.72 357.29 195.80 399.45 192.33
  C 405.63 191.82 412.02 192.17 418.63 191.15
  C 421.77 190.67 426.90 191.66 430.62 191.75
  C 499.14 193.45 563.83 227.59 606.77 280.24
  Q 610.79 285.17 612.83 288.24
  Z
  M 224.45 544.51
  C 225.82 546.78 226.28 546.74 228.75 546.95
  Q 263.53 549.90 298.00 548.89
  Q 363.64 546.95 428.98 534.72
  Q 510.57 519.46 584.73 490.46
  Q 615.34 478.49 641.72 463.65
  A 2.08 2.07 79.1 0 0 642.77 462.09
  Q 647.61 423.82 641.03 385.69
  C 624.17 287.94 540.17 214.90 442.82 205.66
  Q 435.84 205.00 422.52 204.86
  C 359.74 204.24 298.84 228.98 256.17 274.71
  C 206.64 327.79 183.90 401.71 197.14 473.69
  Q 203.92 510.57 224.45 544.51
  Z
  M 186.06 376.91
  C 136.70 396.18 88.90 418.38 49.46 453.44
  Q 34.74 466.52 25.57 480.57
  C 11.35 502.37 7.70 528.23 25.09 549.52
  C 35.17 561.85 49.37 571.74 62.55 578.44
  C 85.31 590.02 110.69 597.88 136.00 603.00
  Q 181.51 612.21 228.76 614.10
  C 244.05 614.71 254.82 615.17 266.26 614.72
  C 278.71 614.23 292.35 614.52 301.02 614.08
  Q 414.03 608.38 522.24 578.76
  Q 588.84 560.52 649.44 534.67
  C 684.57 519.69 717.79 502.40 749.14 481.89
  Q 778.16 462.90 800.47 437.98
  C 821.45 414.53 838.98 378.97 813.40 351.09
  Q 790.70 326.34 757.38 316.36
  Q 740.68 311.36 727.17 309.09
  Q 676.07 300.52 623.09 301.70
  A 0.78 0.78 0.0 0 0 622.44 302.89
  Q 631.02 316.76 637.27 330.34
  A 2.09 2.08 -11.5 0 0 639.10 331.55
  C 657.30 332.13 674.52 333.97 692.13 339.11
  Q 705.32 342.96 716.00 350.21
  C 728.22 358.50 735.74 367.49 737.50 382.51
  C 738.76 393.17 733.29 405.60 727.12 414.17
  Q 716.64 428.75 701.42 440.68
  Q 685.98 452.78 669.42 462.94
  Q 626.66 489.17 578.17 507.16
  Q 452.57 553.75 318.41 561.16
  Q 314.75 561.36 298.60 561.68
  C 284.17 561.96 274.79 562.15 262.74 561.62
  Q 256.75 561.36 246.70 561.05
  C 239.15 560.83 229.53 559.78 220.99 559.00
  Q 203.37 557.41 181.19 552.81
  Q 160.02 548.42 140.65 540.85
  C 119.26 532.50 98.13 516.29 99.10 490.71
  C 99.50 480.18 105.30 467.99 111.63 459.86
  C 119.99 449.11 130.47 439.75 142.34 432.11
  Q 162.26 419.29 179.70 412.25
  Q 181.74 411.42 181.89 409.71
  Q 183.25 393.73 186.89 377.62
  A 0.62 0.62 0.0 0 0 186.06 376.91
  Z
  M 657.61 454.71
  Q 659.39 453.35 661.11 452.35
  Q 679.36 441.72 696.33 427.58
  Q 704.10 421.10 710.94 413.44
  C 717.46 406.15 723.01 398.03 724.12 388.53
  Q 725.74 374.78 714.28 365.21
  Q 703.15 355.91 687.22 351.28
  Q 665.54 344.97 646.94 344.88
  A 3.75 3.72 55.5 0 1 645.68 344.64
  L 645.12 344.42
  A 1.07 1.06 -89.4 0 0 643.74 345.78
  Q 655.62 379.21 657.04 413.91
  Q 657.09 414.93 657.85 424.84
  Q 658.52 433.40 657.12 441.76
  Q 656.67 444.47 657.11 454.47
  A 0.31 0.31 0.0 0 0 657.61 454.71
  Z
  M 208.71 543.09
  Q 185.76 501.62 181.53 455.02
  C 180.73 446.16 181.10 436.14 181.02 428.00
  A 1.22 1.22 0.0 0 0 179.29 426.90
  C 160.93 435.29 143.01 445.79 128.71 459.94
  Q 122.89 465.69 117.35 474.68
  C 114.89 478.66 113.56 483.15 112.57 487.51
  C 109.97 499.06 116.00 510.16 125.15 517.13
  C 134.05 523.90 145.14 528.83 155.65 532.31
  Q 181.08 540.74 207.94 544.22
  A 0.77 0.76 -10.8 0 0 208.71 543.09
  Z
  M 601.87 568.44
  A 0.51 0.51 0.0 0 0 601.26 567.71
  C 540.67 589.05 478.37 605.37 414.52 615.33
  C 376.88 621.20 339.65 625.46 302.25 626.91
  Q 301.72 626.93 301.48 627.18
  A 0.81 0.78 -51.6 0 0 301.60 628.39
  Q 322.92 642.31 347.01 650.46
  Q 365.18 656.61 390.89 660.55
  Q 400.63 662.04 412.66 662.26
  Q 426.70 662.53 434.50 661.94
  C 497.66 657.17 556.38 626.51 595.74 576.81
  C 597.84 574.17 600.15 571.55 601.87 568.44
  Z"
/>
<path d="
  M 699.93 719.95
  Q 695.26 718.57 694.06 713.41
  C 690.11 696.42 682.53 682.61 666.55 674.61
  Q 658.17 670.41 650.09 668.84
  Q 645.87 668.02 644.19 663.32
  A 2.11 2.08 40.6 0 1 644.10 662.24
  C 645.12 656.87 650.34 655.99 654.89 654.97
  Q 657.05 654.49 660.39 653.12
  Q 687.91 641.82 694.49 611.48
  Q 695.31 607.72 699.28 605.95
  A 1.54 1.52 -50.4 0 1 700.27 605.85
  Q 705.58 607.02 706.81 612.21
  C 709.31 622.79 713.56 632.01 720.73 640.06
  C 727.90 648.11 740.35 654.03 750.73 656.53
  C 756.88 658.01 758.50 666.43 751.59 668.31
  C 747.53 669.42 744.30 670.11 741.86 670.99
  Q 719.25 679.17 709.93 701.70
  Q 708.51 705.14 707.03 712.29
  C 706.13 716.68 704.94 718.68 700.98 719.94
  A 1.78 1.72 -44.4 0 1 699.93 719.95
  Z
  M 669.17 662.36
  Q 669.17 662.66 669.41 662.77
  Q 690.23 672.57 699.86 693.53
  A 0.37 0.25 4.1 0 0 700.08 693.70
  Q 700.14 693.72 700.20 693.72
  Q 700.26 693.72 700.32 693.70
  A 0.37 0.25 -4.0 0 0 700.54 693.53
  Q 710.18 672.57 731.00 662.79
  Q 731.24 662.67 731.24 662.37
  Q 731.24 662.07 731.00 661.95
  Q 710.18 652.16 700.55 631.20
  A 0.37 0.25 4.1 0 0 700.33 631.02
  Q 700.27 631.00 700.21 631.00
  Q 700.15 631.00 700.09 631.02
  A 0.37 0.25 -4.0 0 0 699.87 631.20
  Q 690.23 652.15 669.41 661.94
  Q 669.17 662.05 669.17 662.36
  Z"
/>
<path d="
  M 198.29 703.68
  A 22.11 22.11 0.0 0 1 176.18 725.79
  A 22.11 22.11 0.0 0 1 154.07 703.68
  A 22.11 22.11 0.0 0 1 176.18 681.57
  A 22.11 22.11 0.0 0 1 198.29 703.68
  Z
  M 187.63 703.05
  A 12.01 12.01 0.0 0 0 175.62 691.04
  A 12.01 12.01 0.0 0 0 163.61 703.05
  A 12.01 12.01 0.0 0 0 175.62 715.06
  A 12.01 12.01 0.0 0 0 187.63 703.05
  Z"
/>
</g>
</svg>
