<?xml version="1.0" encoding="UTF-8" standalone="no"?>
<!DOCTYPE svg PUBLIC "-//W3C//DTD SVG 1.1//EN" "http://www.w3.org/Graphics/SVG/1.1/DTD/svg11.dtd">
<svg xmlns="http://www.w3.org/2000/svg" version="1.1" viewBox="0.00 0.00 724.00 724.00">
<g stroke-width="2.00" fill="none" stroke-linecap="butt">
<path stroke="#0962b4" vector-effect="non-scaling-stroke" d="
  M 668.81 171.98
  L 669.01 197.63"
/>
<path stroke="#0962b4" vector-effect="non-scaling-stroke" d="
  M 549.58 272.90
  Q 548.04 271.41 546.22 271.33
  A 0.34 0.34 0.0 0 0 546.07 271.98
  L 546.30 272.08"
/>
<path stroke="#0962b4" vector-effect="non-scaling-stroke" d="
  M 704.34 538.64
  L 697.14 545.97"
/>
<path stroke="#3481c5" vector-effect="non-scaling-stroke" d="
  M 366.82 627.48
  L 350.99 627.43"
/>
<path stroke="#0962b4" vector-effect="non-scaling-stroke" d="
  M 88.99 239.72
  Q 91.53 240.46 93.69 238.83"
/>
<path stroke="#0962b4" vector-effect="non-scaling-stroke" d="
  M 146.14 232.77
  L 185.29 232.64"
/>
<path stroke="#3481c5" vector-effect="non-scaling-stroke" d="
  M 490.20 216.28
  Q 490.92 217.16 491.76 217.54
  A 0.34 0.34 0.0 0 0 492.24 217.22
  Q 492.19 215.77 491.28 215.11"
/>
<path stroke="#3481c5" vector-effect="non-scaling-stroke" d="
  M 523.56 136.71
  C 511.57 149.96 504.90 167.75 505.20 185.73
  Q 505.71 215.84 526.24 237.19
  C 555.40 267.50 603.98 265.94 632.05 234.95
  C 660.12 203.95 656.85 155.45 623.81 129.43
  Q 600.53 111.12 570.52 113.59
  C 552.60 115.07 535.55 123.47 523.56 136.71"
/>
<path stroke="#0962b4" vector-effect="non-scaling-stroke" d="
  M 154.12 387.53
  Q 155.15 389.09 157.25 390.77
  Q 180.53 409.38 206.95 423.82
  C 245.58 444.95 286.47 461.30 329.19 474.02
  Q 371.47 486.61 413.29 493.89
  Q 431.72 497.10 439.77 498.12
  C 469.55 501.89 497.19 503.81 526.80 502.91
  C 530.62 502.80 535.45 502.90 539.59 502.13
  A 2.27 2.27 0.0 0 0 541.09 501.12
  C 561.30 469.63 568.43 430.17 567.29 393.25
  C 565.81 345.13 548.27 301.19 516.10 265.61
  Q 498.37 245.99 475.01 230.66
  C 444.47 210.61 407.40 199.61 371.25 197.81
  Q 317.60 195.13 268.88 217.66
  Q 249.18 226.77 230.22 241.95
  C 197.63 268.04 172.28 303.78 161.29 344.04
  Q 156.10 363.04 153.84 386.40
  A 1.77 1.73 31.7 0 0 154.12 387.53"
/>
<path stroke="#3481c5" vector-effect="non-scaling-stroke" d="
  M 582.99 360.46
  Q 585.45 375.31 586.16 388.80
  A 1.36 1.34 -73.3 0 0 586.68 389.78
  C 608.27 406.71 629.49 427.50 635.00 455.50
  Q 638.67 474.15 626.99 487.60
  C 609.28 507.99 580.11 515.54 554.30 519.05
  Q 523.51 523.25 492.77 521.76
  C 456.05 519.99 419.70 514.85 383.77 507.18
  Q 354.24 500.86 314.47 488.74
  C 293.37 482.31 271.68 474.04 251.35 465.61
  Q 222.45 453.63 193.45 437.03
  C 162.61 419.38 133.63 397.62 109.86 371.00
  C 95.45 354.86 81.97 327.87 95.71 306.92
  C 110.85 283.83 146.79 276.77 171.91 275.95
  A 0.46 0.46 0.0 0 0 172.26 275.76
  L 189.72 252.63
  A 0.28 0.27 -69.7 0 0 189.52 252.19
  Q 171.66 250.85 159.37 251.15
  Q 152.62 251.31 134.51 252.56
  Q 106.46 254.50 80.58 262.07
  C 62.63 267.32 40.96 277.49 29.69 292.79
  C 19.94 306.01 17.53 323.91 22.35 339.33
  Q 25.05 347.99 33.10 361.23
  C 43.40 378.17 56.97 392.56 70.82 405.18
  Q 92.26 424.72 120.05 442.69
  Q 156.92 466.54 196.07 484.89
  Q 285.73 526.93 383.36 548.64
  Q 444.51 562.23 506.50 566.58
  Q 521.35 567.62 546.49 568.01
  C 557.58 568.18 567.88 567.17 582.50 566.27
  Q 594.34 565.54 612.54 562.25
  Q 635.39 558.13 655.46 549.22
  C 668.08 543.62 680.71 535.95 690.01 525.51
  C 702.69 511.27 707.20 491.75 701.07 473.43
  Q 696.33 459.27 687.58 446.41
  Q 676.79 430.55 660.74 415.50
  C 638.08 394.26 611.30 376.34 583.52 360.09
  A 0.36 0.36 0.0 0 0 582.99 360.46"
/>
<path stroke="#0962b4" vector-effect="non-scaling-stroke" d="
  M 586.62 414.23
  Q 584.99 421.66 585.44 427.41"
/>
<path stroke="#0962b4" vector-effect="non-scaling-stroke" d="
  M 176.05 496.18
  Q 176.18 497.23 176.97 498.74
  Q 189.84 523.31 207.65 541.84
  C 235.74 571.05 271.93 591.66 310.81 601.60
  C 360.82 614.40 415.22 607.69 460.17 582.11
  A 0.59 0.59 0.0 0 0 459.96 581.02
  Q 324.70 563.37 200.24 507.24
  Q 187.96 501.70 176.44 495.91
  A 0.27 0.27 0.0 0 0 176.05 496.18"
/>
<path stroke="#399bee" vector-effect="non-scaling-stroke" d="
  M 604.1772 141.3209
  A 18.59 17.90 -82.0 0 0 583.8642 157.2388
  A 18.59 17.90 -82.0 0 0 599.0028 178.1391
  A 18.59 17.90 -82.0 0 0 619.3158 162.2212
  A 18.59 17.90 -82.0 0 0 604.1772 141.3209"
/>
<path stroke="#399bee" vector-effect="non-scaling-stroke" d="
  M 541.8183 195.6206
  A 13.80 13.39 -163.5 0 0 551.2470 212.3786
  A 13.80 13.39 -163.5 0 0 568.2817 203.4594
  A 13.80 13.39 -163.5 0 0 558.8530 186.7014
  A 13.80 13.39 -163.5 0 0 541.8183 195.6206"
/>
<path stroke="#399bee" vector-effect="non-scaling-stroke" d="
  M 616.2686 218.8289
  A 11.53 11.12 -0.9 0 0 604.5653 207.8914
  A 11.53 11.12 -0.9 0 0 593.2114 219.1911
  A 11.53 11.12 -0.9 0 0 604.9147 230.1286
  A 11.53 11.12 -0.9 0 0 616.2686 218.8289"
/>
</g>
<g fill="#0e7bdd">
<ellipse cx="0.00" cy="0.00" transform="translate(601.59,159.73) rotate(-82.0)" rx="18.59" ry="17.90"/>
<path d="
  M 668.81 171.98
  Q 671.32 184.72 669.01 197.63
  L 668.81 171.98
  Z"
/>
<ellipse cx="0.00" cy="0.00" transform="translate(555.05,199.54) rotate(-163.5)" rx="13.80" ry="13.39"/>
<path d="
  M 153.84 386.40
  Q 156.10 363.04 161.29 344.04
  C 172.28 303.78 197.63 268.04 230.22 241.95
  Q 249.18 226.77 268.88 217.66
  Q 317.60 195.13 371.25 197.81
  C 407.40 199.61 444.47 210.61 475.01 230.66
  Q 498.37 245.99 516.10 265.61
  C 548.27 301.19 565.81 345.13 567.29 393.25
  C 568.43 430.17 561.30 469.63 541.09 501.12
  A 2.27 2.27 0.0 0 1 539.59 502.13
  C 535.45 502.90 530.62 502.80 526.80 502.91
  C 497.19 503.81 469.55 501.89 439.77 498.12
  Q 431.72 497.10 413.29 493.89
  Q 371.47 486.61 329.19 474.02
  C 286.47 461.30 245.58 444.95 206.95 423.82
  Q 180.53 409.38 157.25 390.77
  Q 155.15 389.09 154.12 387.53
  A 1.77 1.73 31.7 0 1 153.84 386.40
  Z"
/>
<ellipse cx="0.00" cy="0.00" transform="translate(604.74,219.01) rotate(-0.9)" rx="11.53" ry="11.12"/>
<path d="
  M 185.29 232.64
  L 146.14 232.77
  Q 165.70 231.26 185.29 232.64
  Z"
/>
<path d="
  M 93.69 238.83
  Q 91.53 240.46 88.99 239.72
  L 93.69 238.83
  Z"
/>
<path d="
  M 549.58 272.90
  L 546.30 272.08
  L 546.07 271.98
  A 0.34 0.34 0.0 0 1 546.22 271.33
  Q 548.04 271.41 549.58 272.90
  Z"
/>
<path d="
  M 586.62 414.23
  Q 587.04 416.83 586.72 418.77
  Q 586.14 422.26 586.14 422.29
  Q 585.96 424.82 585.44 427.41
  Q 584.99 421.66 586.62 414.23
  Z"
/>
<path d="
  M 176.05 496.18
  A 0.27 0.27 0.0 0 1 176.44 495.91
  Q 187.96 501.70 200.24 507.24
  Q 324.70 563.37 459.96 581.02
  A 0.59 0.59 0.0 0 1 460.17 582.11
  C 415.22 607.69 360.82 614.40 310.81 601.60
  C 271.93 591.66 235.74 571.05 207.65 541.84
  Q 189.84 523.31 176.97 498.74
  Q 176.18 497.23 176.05 496.18
  Z"
/>
<path d="
  M 704.34 538.64
  L 697.14 545.97
  L 704.34 538.64
  Z"
/>
</g>
<path fill="#04488b" d="
  M 668.81 171.98
  L 669.01 197.63
  Q 667.24 212.91 660.56 225.84
  Q 645.02 255.95 614.12 270.04
  Q 598.26 277.27 582.00 278.00
  Q 565.79 278.72 549.58 272.90
  Q 548.04 271.41 546.22 271.33
  A 0.34 0.34 0.0 0 0 546.07 271.98
  L 546.30 272.08
  Q 546.76 273.24 547.61 274.29
  Q 548.95 275.96 549.19 276.30
  Q 567.31 302.80 576.66 333.42
  A 2.40 2.37 6.3 0 0 577.79 334.81
  C 610.33 352.94 642.26 372.89 669.52 397.20
  Q 678.71 405.40 691.20 419.03
  C 711.18 440.82 726.47 470.40 722.54 500.41
  Q 719.67 522.37 704.34 538.64
  L 697.14 545.97
  Q 681.28 559.69 661.40 568.09
  Q 638.27 577.86 614.05 582.00
  C 603.72 583.76 594.80 585.11 584.92 585.79
  C 555.61 587.78 525.66 587.16 495.75 585.11
  C 493.46 584.95 491.81 585.19 489.65 586.59
  Q 484.51 589.93 479.49 593.22
  Q 440.41 618.82 394.01 625.42
  C 385.59 626.62 375.88 626.90 366.82 627.48
  L 350.99 627.43
  Q 335.53 626.79 326.27 625.42
  Q 302.91 621.95 277.47 611.76
  C 225.07 590.77 179.03 550.97 155.65 499.14
  Q 152.01 491.07 149.09 484.26
  Q 148.11 481.97 144.09 479.75
  Q 108.29 459.91 82.09 439.72
  C 57.46 420.73 37.33 402.03 20.56 378.22
  Q 11.42 365.24 5.30 349.23
  Q 4.46 347.01 2.95 341.29
  Q 1.79 336.90 1.32 333.19
  C -1.78 309.01 5.88 285.98 24.09 269.76
  C 41.96 253.85 65.77 245.24 88.99 239.72
  Q 91.53 240.46 93.69 238.83
  C 100.82 237.41 107.99 235.98 115.18 235.21
  Q 126.40 234.01 143.78 232.62
  Q 145.55 232.48 146.14 232.77
  L 185.29 232.64
  Q 193.36 232.70 205.50 234.00
  C 207.90 234.26 209.75 233.24 211.74 231.54
  C 247.07 201.36 291.19 181.98 337.53 178.95
  Q 357.25 177.67 365.50 178.01
  C 379.42 178.60 390.96 179.09 402.74 181.60
  C 406.81 182.46 411.29 183.10 415.78 184.20
  C 438.82 189.84 460.64 197.99 480.84 210.17
  Q 485.59 213.04 490.20 216.28
  Q 490.92 217.16 491.76 217.54
  A 0.34 0.34 0.0 0 0 492.24 217.22
  Q 492.19 215.77 491.28 215.11
  Q 490.40 211.85 489.44 208.54
  Q 488.36 204.79 487.98 201.90
  C 486.05 187.43 486.25 171.75 491.00 157.89
  Q 497.12 140.05 509.20 125.64
  C 518.19 114.92 531.04 106.58 544.02 101.03
  Q 547.41 99.58 555.72 97.28
  Q 561.63 95.64 567.79 95.26
  Q 581.27 94.43 590.24 95.52
  Q 603.26 97.10 616.26 103.01
  C 644.08 115.65 664.29 141.62 668.81 171.98
  Z
  M 523.56 136.71
  C 511.57 149.96 504.90 167.75 505.20 185.73
  Q 505.71 215.84 526.24 237.19
  C 555.40 267.50 603.98 265.94 632.05 234.95
  C 660.12 203.95 656.85 155.45 623.81 129.43
  Q 600.53 111.12 570.52 113.59
  C 552.60 115.07 535.55 123.47 523.56 136.71
  Z
  M 154.12 387.53
  Q 155.15 389.09 157.25 390.77
  Q 180.53 409.38 206.95 423.82
  C 245.58 444.95 286.47 461.30 329.19 474.02
  Q 371.47 486.61 413.29 493.89
  Q 431.72 497.10 439.77 498.12
  C 469.55 501.89 497.19 503.81 526.80 502.91
  C 530.62 502.80 535.45 502.90 539.59 502.13
  A 2.27 2.27 0.0 0 0 541.09 501.12
  C 561.30 469.63 568.43 430.17 567.29 393.25
  C 565.81 345.13 548.27 301.19 516.10 265.61
  Q 498.37 245.99 475.01 230.66
  C 444.47 210.61 407.40 199.61 371.25 197.81
  Q 317.60 195.13 268.88 217.66
  Q 249.18 226.77 230.22 241.95
  C 197.63 268.04 172.28 303.78 161.29 344.04
  Q 156.10 363.04 153.84 386.40
  A 1.77 1.73 31.7 0 0 154.12 387.53
  Z
  M 582.99 360.46
  Q 585.45 375.31 586.16 388.80
  A 1.36 1.34 -73.3 0 0 586.68 389.78
  C 608.27 406.71 629.49 427.50 635.00 455.50
  Q 638.67 474.15 626.99 487.60
  C 609.28 507.99 580.11 515.54 554.30 519.05
  Q 523.51 523.25 492.77 521.76
  C 456.05 519.99 419.70 514.85 383.77 507.18
  Q 354.24 500.86 314.47 488.74
  C 293.37 482.31 271.68 474.04 251.35 465.61
  Q 222.45 453.63 193.45 437.03
  C 162.61 419.38 133.63 397.62 109.86 371.00
  C 95.45 354.86 81.97 327.87 95.71 306.92
  C 110.85 283.83 146.79 276.77 171.91 275.95
  A 0.46 0.46 0.0 0 0 172.26 275.76
  L 189.72 252.63
  A 0.28 0.27 -69.7 0 0 189.52 252.19
  Q 171.66 250.85 159.37 251.15
  Q 152.62 251.31 134.51 252.56
  Q 106.46 254.50 80.58 262.07
  C 62.63 267.32 40.96 277.49 29.69 292.79
  C 19.94 306.01 17.53 323.91 22.35 339.33
  Q 25.05 347.99 33.10 361.23
  C 43.40 378.17 56.97 392.56 70.82 405.18
  Q 92.26 424.72 120.05 442.69
  Q 156.92 466.54 196.07 484.89
  Q 285.73 526.93 383.36 548.64
  Q 444.51 562.23 506.50 566.58
  Q 521.35 567.62 546.49 568.01
  C 557.58 568.18 567.88 567.17 582.50 566.27
  Q 594.34 565.54 612.54 562.25
  Q 635.39 558.13 655.46 549.22
  C 668.08 543.62 680.71 535.95 690.01 525.51
  C 702.69 511.27 707.20 491.75 701.07 473.43
  Q 696.33 459.27 687.58 446.41
  Q 676.79 430.55 660.74 415.50
  C 638.08 394.26 611.30 376.34 583.52 360.09
  A 0.36 0.36 0.0 0 0 582.99 360.46
  Z
  M 135.66 370.99
  A 0.29 0.29 0.0 0 0 136.14 370.73
  Q 135.92 369.14 136.44 367.77
  A 3.79 3.57 60.0 0 0 136.64 366.92
  Q 139.82 342.39 148.61 319.76
  Q 151.06 313.46 153.93 308.07
  Q 158.84 298.84 159.64 296.40
  A 0.34 0.33 3.0 0 0 159.25 295.97
  Q 155.79 296.69 146.25 298.45
  Q 141.32 299.36 131.90 302.89
  C 120.86 307.01 111.47 314.72 109.62 326.67
  C 109.06 330.27 110.59 337.25 111.88 339.84
  Q 120.71 357.51 135.66 370.99
  Z
  M 585.44 427.41
  Q 583.30 445.34 578.61 463.10
  Q 573.91 480.90 565.41 497.32
  A 0.67 0.66 5.9 0 0 566.18 498.26
  Q 579.04 494.85 590.41 490.11
  Q 602.34 485.13 609.57 478.87
  C 615.64 473.62 617.66 464.02 615.28 455.96
  Q 612.52 446.60 607.19 438.06
  Q 600.31 427.02 586.62 414.23
  Q 584.99 421.66 585.44 427.41
  Z
  M 176.05 496.18
  Q 176.18 497.23 176.97 498.74
  Q 189.84 523.31 207.65 541.84
  C 235.74 571.05 271.93 591.66 310.81 601.60
  C 360.82 614.40 415.22 607.69 460.17 582.11
  A 0.59 0.59 0.0 0 0 459.96 581.02
  Q 324.70 563.37 200.24 507.24
  Q 187.96 501.70 176.44 495.91
  A 0.27 0.27 0.0 0 0 176.05 496.18
  Z"
/>
<g fill="#64bafe">
<path d="
  M 632.05 234.95
  C 603.98 265.94 555.40 267.50 526.24 237.19
  Q 505.71 215.84 505.20 185.73
  C 504.90 167.75 511.57 149.96 523.56 136.71
  C 535.55 123.47 552.60 115.07 570.52 113.59
  Q 600.53 111.12 623.81 129.43
  C 656.85 155.45 660.12 203.95 632.05 234.95
  Z
  M 604.1772 141.3209
  A 18.59 17.90 -82.0 0 0 583.8642 157.2388
  A 18.59 17.90 -82.0 0 0 599.0028 178.1391
  A 18.59 17.90 -82.0 0 0 619.3158 162.2212
  A 18.59 17.90 -82.0 0 0 604.1772 141.3209
  Z
  M 541.8183 195.6206
  A 13.80 13.39 -163.5 0 0 551.2470 212.3786
  A 13.80 13.39 -163.5 0 0 568.2817 203.4594
  A 13.80 13.39 -163.5 0 0 558.8530 186.7014
  A 13.80 13.39 -163.5 0 0 541.8183 195.6206
  Z
  M 616.2686 218.8289
  A 11.53 11.12 -0.9 0 0 604.5653 207.8914
  A 11.53 11.12 -0.9 0 0 593.2114 219.1911
  A 11.53 11.12 -0.9 0 0 604.9147 230.1286
  A 11.53 11.12 -0.9 0 0 616.2686 218.8289
  Z"
/>
<path d="
  M 490.20 216.28
  L 491.28 215.11
  Q 492.19 215.77 492.24 217.22
  A 0.34 0.34 0.0 0 1 491.76 217.54
  Q 490.92 217.16 490.20 216.28
  Z"
/>
<path d="
  M 582.99 360.46
  A 0.36 0.36 0.0 0 1 583.52 360.09
  C 611.30 376.34 638.08 394.26 660.74 415.50
  Q 676.79 430.55 687.58 446.41
  Q 696.33 459.27 701.07 473.43
  C 707.20 491.75 702.69 511.27 690.01 525.51
  C 680.71 535.95 668.08 543.62 655.46 549.22
  Q 635.39 558.13 612.54 562.25
  Q 594.34 565.54 582.50 566.27
  C 567.88 567.17 557.58 568.18 546.49 568.01
  Q 521.35 567.62 506.50 566.58
  Q 444.51 562.23 383.36 548.64
  Q 285.73 526.93 196.07 484.89
  Q 156.92 466.54 120.05 442.69
  Q 92.26 424.72 70.82 405.18
  C 56.97 392.56 43.40 378.17 33.10 361.23
  Q 25.05 347.99 22.35 339.33
  C 17.53 323.91 19.94 306.01 29.69 292.79
  C 40.96 277.49 62.63 267.32 80.58 262.07
  Q 106.46 254.50 134.51 252.56
  Q 152.62 251.31 159.37 251.15
  Q 171.66 250.85 189.52 252.19
  A 0.28 0.27 -69.7 0 1 189.72 252.63
  L 172.26 275.76
  A 0.46 0.46 0.0 0 1 171.91 275.95
  C 146.79 276.77 110.85 283.83 95.71 306.92
  C 81.97 327.87 95.45 354.86 109.86 371.00
  C 133.63 397.62 162.61 419.38 193.45 437.03
  Q 222.45 453.63 251.35 465.61
  C 271.68 474.04 293.37 482.31 314.47 488.74
  Q 354.24 500.86 383.77 507.18
  C 419.70 514.85 456.05 519.99 492.77 521.76
  Q 523.51 523.25 554.30 519.05
  C 580.11 515.54 609.28 507.99 626.99 487.60
  Q 638.67 474.15 635.00 455.50
  C 629.49 427.50 608.27 406.71 586.68 389.78
  A 1.36 1.34 -73.3 0 1 586.16 388.80
  Q 585.45 375.31 582.99 360.46
  Z"
/>
<path d="
  M 366.82 627.48
  Q 358.92 628.24 350.99 627.43
  L 366.82 627.48
  Z"
/>
</g>
</svg>
