<?xml version="1.0" encoding="UTF-8" standalone="no"?>
<!DOCTYPE svg PUBLIC "-//W3C//DTD SVG 1.1//EN" "http://www.w3.org/Graphics/SVG/1.1/DTD/svg11.dtd">
<svg xmlns="http://www.w3.org/2000/svg" version="1.1" viewBox="0.00 0.00 435.00 318.00">
<g stroke-width="2.00" fill="none" stroke-linecap="butt">
<path stroke="#80a6c5" vector-effect="non-scaling-stroke" d="
  M 244.07 123.42
  C 255.96 146.92 276.93 157.80 302.86 162.48
  Q 325.63 166.58 348.94 161.20
  Q 378.40 154.39 393.77 128.93
  A 0.17 0.17 0.0 0 0 393.55 128.69
  C 380.59 135.00 371.07 125.68 368.86 113.42
  Q 366.72 101.52 371.24 90.48
  C 373.92 83.92 379.75 77.75 386.93 76.43
  Q 397.21 74.55 403.17 82.96
  A 0.15 0.15 0.0 0 0 403.44 82.86
  C 398.78 37.48 361.03 5.17 315.32 8.32
  Q 285.42 10.38 261.95 31.33
  A 0.25 0.25 0.0 0 0 262.24 31.73
  C 281.16 21.04 305.34 21.20 325.36 28.14
  C 350.76 36.93 367.75 59.09 365.37 86.45
  C 362.45 120.06 334.83 143.58 301.98 145.55
  C 281.44 146.78 258.57 138.83 244.30 123.27
  A 0.14 0.14 0.0 0 0 244.07 123.42"
/>
<path stroke="#806d64" vector-effect="non-scaling-stroke" d="
  M 311.50 69.39
  A 0.45 0.44 69.9 0 0 310.80 69.06
  L 302.34 75.10
  A 2.72 2.64 85.0 0 0 301.45 76.19
  Q 298.05 83.82 292.88 91.24
  A 2.92 2.91 -64.1 0 1 289.66 92.36
  L 289.62 92.35
  A 1.59 1.59 0.0 0 1 288.80 89.90
  C 293.18 83.92 295.60 78.97 298.80 71.88
  A 3.34 3.29 -6.1 0 1 299.86 70.59
  L 309.37 63.80
  A 1.42 1.40 74.0 0 0 309.95 62.74
  C 310.31 56.85 310.63 52.48 310.47 48.63
  Q 310.41 46.95 311.04 46.26
  Q 315.21 41.76 321.60 34.56
  A 0.32 0.32 0.0 0 0 321.46 34.04
  C 303.71 28.33 283.25 28.43 266.74 36.99
  C 251.23 45.02 240.41 59.62 238.02 77.03
  C 235.10 98.29 242.20 116.83 260.71 128.32
  C 281.82 141.42 309.15 142.89 330.52 130.08
  C 349.26 118.85 360.32 98.42 358.25 76.68
  C 356.50 58.27 344.52 44.35 328.07 36.60
  A 0.61 0.61 0.0 0 0 327.34 36.77
  L 316.96 49.23
  A 1.97 1.94 65.2 0 0 316.51 50.48
  L 316.51 59.11
  A 3.40 3.34 31.5 0 0 316.90 60.68
  Q 318.13 62.97 317.43 64.23
  Q 314.37 69.80 317.55 76.05
  Q 318.81 78.53 320.73 81.25
  A 3.26 3.25 -53.0 0 1 321.14 84.23
  L 318.62 91.25
  A 1.97 1.97 0.0 0 1 316.00 92.40
  L 315.89 92.35
  A 1.96 1.96 0.0 0 1 314.71 89.88
  L 316.46 84.68
  A 2.75 2.74 -54.0 0 0 316.07 82.17
  Q 312.08 76.77 311.50 69.39"
/>
<path stroke="#2579ba" vector-effect="non-scaling-stroke" d="
  M 385.19 124.60
  Q 391.81 125.78 397.16 117.44
  Q 401.65 110.44 402.46 100.78
  C 403.04 93.87 400.34 84.60 392.62 83.22
  C 384.89 81.83 379.14 89.59 377.28 96.26
  Q 374.68 105.60 376.46 113.73
  Q 378.58 123.41 385.19 124.60"
/>
<path stroke="#2579ba" vector-effect="non-scaling-stroke" d="
  M 412.90 198.81
  A 0.40 0.40 0.0 0 0 413.54 198.60
  Q 416.83 185.51 420.67 168.46
  Q 424.44 151.68 412.27 142.24
  C 408.77 139.53 402.99 137.27 398.60 135.97
  A 1.72 1.72 0.0 0 0 396.67 136.66
  Q 389.98 146.58 381.03 153.53
  A 0.57 0.56 39.8 0 0 381.12 154.48
  Q 387.45 157.76 392.58 162.86
  A 0.39 0.39 0.0 0 0 393.23 162.66
  Q 393.84 159.64 394.91 156.93
  Q 398.48 147.88 408.24 146.18
  A 4.75 4.74 -24.0 0 1 412.79 147.92
  L 412.84 147.97
  A 2.03 2.03 0.0 0 1 411.57 151.22
  L 406.28 152.10
  A 2.06 1.87 25.9 0 0 405.84 152.23
  C 400.15 154.91 398.70 161.58 397.75 166.77
  A 4.08 4.07 33.2 0 0 398.38 169.76
  Q 406.38 181.67 412.59 198.41
  Q 412.66 198.62 412.90 198.81"
/>
<path stroke="#80a6c5" vector-effect="non-scaling-stroke" d="
  M 246.06 143.36
  C 224.71 146.30 202.41 154.40 185.34 167.51
  C 175.75 174.87 163.69 190.45 168.79 202.91
  A 0.44 0.43 -47.4 0 0 169.61 202.87
  C 173.67 190.32 184.52 179.33 198.12 178.64
  Q 204.95 178.30 211.04 181.36
  A 0.28 0.27 -0.2 0 0 211.41 180.99
  Q 206.99 172.37 197.28 168.58
  A 2.74 2.73 20.9 0 1 195.71 165.09
  L 195.79 164.88
  A 2.87 2.87 0.0 0 1 199.38 163.15
  Q 210.90 166.94 216.55 177.58
  A 0.25 0.24 47.2 0 0 216.97 177.60
  Q 229.07 158.90 246.27 143.82
  A 0.26 0.26 0.0 0 0 246.06 143.36"
/>
<path stroke="#80a6c5" vector-effect="non-scaling-stroke" d="
  M 327.64 171.09
  Q 308.52 171.66 289.39 166.86
  C 276.25 163.56 262.63 157.56 252.95 148.05
  A 0.58 0.57 -43.0 0 0 252.18 148.03
  Q 233.17 164.77 220.11 186.07
  A 0.53 0.51 30.5 0 0 220.31 186.80
  Q 225.82 189.81 230.61 194.81
  A 0.63 0.63 0.0 0 0 231.61 194.69
  Q 238.02 183.40 246.52 168.70
  C 249.38 163.75 251.25 159.74 257.22 161.59
  Q 284.21 169.96 300.18 174.61
  C 305.55 176.17 309.80 178.18 306.08 184.31
  Q 296.90 199.47 290.52 210.13
  Q 288.92 212.81 287.51 213.95
  C 283.92 216.83 281.09 215.35 275.84 213.83
  Q 254.08 207.56 236.47 202.30
  A 0.41 0.41 0.0 0 0 235.99 202.89
  C 237.63 206.03 238.32 208.80 238.67 212.93
  A 0.90 0.89 8.0 0 0 239.24 213.68
  Q 239.79 213.89 252.25 218.12
  C 256.79 219.66 260.54 220.46 260.71 225.21
  A 0.87 0.86 10.0 0 0 261.26 225.98
  L 276.06 231.80
  A 0.77 0.76 26.0 0 0 276.99 231.48
  C 278.93 228.20 281.55 224.51 285.73 223.93
  Q 289.70 223.39 296.64 225.63
  Q 302.73 227.60 313.79 231.71
  C 323.69 235.40 327.34 241.52 325.32 252.02
  A 1.03 1.02 -69.8 0 0 325.81 253.09
  L 339.52 261.01
  A 0.52 0.52 0.0 0 0 340.23 260.82
  L 346.16 250.54
  A 0.27 0.27 0.0 0 0 346.06 250.16
  Q 317.39 234.03 318.11 202.77
  C 318.35 192.11 322.20 180.45 327.83 171.41
  A 0.21 0.21 0.0 0 0 327.64 171.09"
/>
<path stroke="#80a6c5" vector-effect="non-scaling-stroke" d="
  M 414.58 264.01
  Q 415.15 262.03 415.39 259.07
  C 417.76 231.00 409.52 202.51 395.51 178.11
  Q 390.20 168.85 381.72 162.62
  C 380.59 161.80 375.33 158.91 372.96 159.70
  C 361.18 163.59 350.71 175.92 345.90 186.67
  C 338.54 203.14 341.69 221.16 357.07 231.50
  A 0.67 0.66 -60.4 0 0 358.04 231.23
  L 360.62 225.77
  A 1.43 1.41 45.8 0 0 360.63 224.58
  L 350.54 202.74
  A 3.74 3.74 0.0 0 1 352.09 197.92
  L 352.21 197.85
  A 3.01 3.01 0.0 0 1 356.36 199.25
  Q 363.90 215.74 365.84 219.60
  C 367.54 222.99 368.50 226.97 370.46 230.89
  A 0.66 0.65 -26.6 0 0 371.35 231.18
  Q 381.21 226.08 393.53 226.36
  A 3.04 3.04 0.0 0 1 396.50 229.26
  L 396.51 229.45
  A 2.81 2.80 -0.7 0 1 393.63 232.39
  Q 382.32 232.08 372.84 237.18
  A 1.02 1.02 0.0 0 0 372.32 238.26
  Q 373.98 247.40 373.57 257.35
  A 0.42 0.41 -15.7 0 0 374.22 257.71
  C 380.97 253.21 390.93 253.86 398.61 255.46
  C 403.71 256.52 409.72 261.09 414.01 264.21
  A 0.37 0.37 0.0 0 0 414.58 264.01"
/>
<path stroke="#80a6c5" vector-effect="non-scaling-stroke" d="
  M 238.83 195.20
  A 0.53 0.53 0.0 0 0 239.13 195.97
  L 283.22 209.09
  A 0.53 0.53 0.0 0 0 283.83 208.85
  L 299.40 181.86
  A 0.53 0.53 0.0 0 0 299.10 181.09
  L 255.01 167.97
  A 0.53 0.53 0.0 0 0 254.40 168.21
  L 238.83 195.20"
/>
<path stroke="#2579ba" vector-effect="non-scaling-stroke" d="
  M 349.49 168.40
  A 0.21 0.21 0.0 0 0 349.28 168.06
  L 338.03 170.08
  A 1.66 1.66 0.0 0 0 337.25 170.45
  Q 336.32 171.27 335.30 172.81
  C 323.73 190.32 320.41 214.01 334.09 231.40
  Q 340.64 239.74 349.39 244.45
  A 0.98 0.98 0.0 0 0 350.70 244.08
  L 353.83 238.65
  A 1.02 1.02 0.0 0 0 353.51 237.29
  Q 333.34 223.60 335.56 199.29
  Q 336.69 186.91 343.65 176.30
  Q 345.56 173.39 349.49 168.40"
/>
<path stroke="#2579ba" vector-effect="non-scaling-stroke" d="
  M 231.53 215.87
  A 4.95 4.95 0.0 0 0 232.17 212.99
  C 231.29 203.17 221.44 193.16 211.90 191.12
  C 208.57 190.41 206.26 191.11 205.23 187.11
  A 1.12 1.11 88.7 0 0 204.37 186.28
  C 192.37 183.71 181.27 191.99 177.44 202.93
  C 175.73 207.82 176.00 211.49 181.24 213.52
  Q 183.49 214.40 183.82 215.98
  C 185.21 222.80 186.37 228.37 192.04 232.94
  Q 193.93 234.46 196.02 234.46
  A 1.36 1.36 0.0 0 0 197.37 232.90
  Q 196.73 228.38 190.76 222.31
  A 2.10 2.09 -35.8 0 1 191.30 218.98
  L 191.33 218.96
  A 3.90 3.88 53.8 0 1 195.85 219.67
  Q 200.21 224.01 201.59 227.99
  Q 202.90 231.76 203.43 232.50
  C 206.29 236.46 210.21 232.96 210.23 229.43
  C 210.27 223.52 207.15 219.36 202.97 215.22
  A 2.42 2.22 -49.9 0 1 202.84 212.19
  C 204.38 210.11 207.15 211.91 208.66 213.39
  Q 213.93 218.58 215.23 226.27
  C 215.87 230.08 219.87 229.99 221.19 226.65
  C 223.77 220.16 219.81 213.11 216.21 207.65
  A 1.86 1.84 -37.1 0 1 216.56 205.23
  C 219.17 202.98 221.42 206.22 222.69 208.06
  Q 226.02 212.90 227.10 218.86
  A 1.33 1.33 0.0 0 0 229.56 219.29
  L 231.53 215.87"
/>
<path stroke="#2579ba" vector-effect="non-scaling-stroke" d="
  M 133.90 203.22
  Q 131.69 195.38 126.99 189.30
  A 3.64 3.63 68.9 0 0 123.84 187.90
  C 111.14 188.86 100.90 198.05 93.60 207.99
  A 0.96 0.96 0.0 0 0 93.99 209.44
  Q 102.78 213.25 109.20 219.57
  A 0.64 0.63 -48.5 0 0 110.14 219.51
  C 116.09 212.00 123.65 205.82 133.36 204.08
  A 0.69 0.69 0.0 0 0 133.90 203.22"
/>
<path stroke="#2579ba" vector-effect="non-scaling-stroke" d="
  M 132.14 189.95
  C 134.66 194.34 136.62 198.83 137.60 203.18
  A 0.80 0.79 -2.1 0 0 138.26 203.79
  L 145.83 204.95
  A 0.71 0.71 0.0 0 0 146.64 204.19
  C 146.31 200.67 145.76 196.77 142.85 194.25
  Q 138.16 190.19 132.66 189.22
  A 0.50 0.49 -9.7 0 0 132.14 189.95"
/>
<path stroke="#80a6c5" vector-effect="non-scaling-stroke" d="
  M 150.66 198.68
  C 151.61 202.47 153.42 210.18 147.49 209.73
  C 144.36 209.49 136.42 208.85 132.19 209.93
  C 124.28 211.94 119.54 217.16 113.34 223.99
  Q 110.45 227.18 107.40 224.51
  Q 99.49 217.59 90.24 213.45
  A 0.55 0.54 -62.4 0 0 89.55 213.67
  L 86.09 219.66
  A 0.27 0.26 -64.7 0 0 86.22 220.03
  Q 103.37 226.87 113.36 242.65
  Q 114.28 244.11 116.20 247.27
  A 0.61 0.60 60.1 0 0 117.00 247.49
  L 128.11 241.46
  A 4.05 4.01 -84.2 0 0 129.24 240.53
  C 131.74 237.80 132.90 234.13 134.83 229.43
  A 3.07 3.06 -70.9 0 1 138.51 227.64
  L 138.79 227.74
  A 3.04 3.03 -69.3 0 1 140.61 231.78
  L 137.27 239.75
  A 0.24 0.24 0.0 0 0 137.52 240.08
  L 183.92 235.31
  A 0.24 0.24 0.0 0 0 184.07 234.91
  Q 179.91 230.43 178.37 224.47
  A 4.63 4.61 15.6 0 0 177.18 222.37
  Q 176.63 221.81 171.03 215.88
  Q 166.69 211.28 151.11 198.40
  A 0.28 0.28 0.0 0 0 150.66 198.68"
/>
<path stroke="#2579ba" vector-effect="non-scaling-stroke" d="
  M 47.08 294.56
  L 51.83 293.51
  A 0.62 0.62 0.0 0 0 52.32 292.88
  Q 51.94 282.36 50.91 270.28
  Q 50.29 263.05 50.43 259.71
  C 50.77 251.57 51.00 244.58 54.73 237.87
  A 3.77 3.72 58.2 0 0 55.19 235.85
  C 54.38 221.80 47.39 202.80 31.14 200.53
  A 0.43 0.42 -12.2 0 0 30.72 201.18
  C 33.73 205.93 35.71 211.82 37.49 218.50
  Q 39.57 226.32 41.68 244.10
  Q 42.77 253.31 43.34 255.74
  Q 43.50 256.43 46.38 267.10
  C 48.49 274.92 50.12 286.80 46.82 294.23
  A 0.24 0.23 -83.9 0 0 47.08 294.56"
/>
<path stroke="#2579ba" vector-effect="non-scaling-stroke" d="
  M 39.25 297.19
  A 3.78 3.75 3.2 0 0 41.54 295.16
  C 48.42 279.97 39.26 263.58 37.80 248.70
  Q 37.62 246.86 35.81 232.70
  Q 33.90 217.79 27.41 204.34
  A 3.91 3.91 0.0 0 0 22.71 202.31
  L 22.09 202.51
  A 2.11 2.11 0.0 0 0 20.96 205.68
  C 29.53 218.76 31.18 234.96 32.42 250.10
  C 32.98 256.89 35.45 264.36 36.85 271.56
  Q 39.56 285.50 35.84 296.80
  A 0.88 0.88 0.0 0 0 36.94 297.91
  L 39.25 297.19"
/>
<path stroke="#2579ba" vector-effect="non-scaling-stroke" d="
  M 20.99 215.75
  L 16.81 209.90
  A 0.75 0.75 0.0 0 0 15.50 210.06
  L 13.21 215.90
  A 0.51 0.51 0.0 0 0 13.69 216.60
  L 20.55 216.60
  A 0.54 0.54 0.0 0 0 20.99 215.75"
/>
<path stroke="#2579ba" vector-effect="non-scaling-stroke" d="
  M 246.02 238.99
  L 253.10 225.47
  A 0.33 0.32 25.1 0 0 252.93 225.02
  L 237.91 219.13
  A 0.84 0.84 0.0 0 0 236.83 219.58
  Q 234.60 224.91 229.17 226.96
  A 1.75 1.72 88.4 0 0 228.12 228.09
  L 227.12 231.47
  A 0.73 0.72 -71.0 0 0 227.55 232.36
  L 245.21 239.30
  A 0.65 0.65 0.0 0 0 246.02 238.99"
/>
<path stroke="#2579ba" vector-effect="non-scaling-stroke" d="
  M 13.06 230.64
  A 0.61 0.61 0.0 0 0 13.67 231.25
  L 24.29 231.25
  A 0.61 0.61 0.0 0 0 24.89 230.51
  L 22.99 221.88
  A 0.61 0.61 0.0 0 0 22.39 221.40
  L 13.67 221.40
  A 0.61 0.61 0.0 0 0 13.06 222.01
  L 13.06 230.64"
/>
<path stroke="#2579ba" vector-effect="non-scaling-stroke" d="
  M 75.96 235.12
  C 86.03 238.27 91.21 246.56 95.67 255.60
  A 0.75 0.74 70.4 0 0 96.50 256.00
  L 110.56 252.91
  A 1.40 1.40 0.0 0 0 111.52 250.92
  Q 104.09 235.79 88.86 228.14
  Q 85.30 226.35 82.41 225.65
  A 1.91 1.90 -67.9 0 0 80.31 226.54
  L 75.72 234.50
  A 0.43 0.42 23.9 0 0 75.96 235.12"
/>
<path stroke="#2579ba" vector-effect="non-scaling-stroke" d="
  M 286.33 230.34
  C 283.46 231.64 279.74 240.23 278.34 243.36
  Q 276.79 246.85 270.80 262.17
  A 6.18 6.16 -59.2 0 0 272.54 269.10
  L 272.94 269.43
  A 3.75 3.74 32.2 0 0 278.70 268.13
  L 285.80 253.09
  A 4.60 4.58 50.7 0 0 286.10 250.04
  C 284.39 243.19 290.37 237.13 288.98 231.49
  Q 288.46 229.39 286.33 230.34"
/>
<path stroke="#2579ba" vector-effect="non-scaling-stroke" d="
  M 273.75 237.95
  A 0.81 0.81 0.0 0 0 273.31 236.85
  L 257.76 230.75
  A 0.81 0.81 0.0 0 0 256.74 231.15
  L 252.81 239.46
  A 0.81 0.81 0.0 0 0 253.25 240.56
  L 268.80 246.66
  A 0.81 0.81 0.0 0 0 269.82 246.26
  L 273.75 237.95"
/>
<path stroke="#2579ba" vector-effect="non-scaling-stroke" d="
  M 293.62 231.67
  Q 294.17 236.55 291.93 241.64
  C 289.48 247.21 293.11 250.05 296.72 253.15
  Q 303.11 258.65 311.52 258.21
  C 313.71 258.09 315.43 257.28 316.57 255.58
  C 318.35 252.91 320.36 247.21 319.01 243.80
  C 317.14 239.06 311.99 237.54 307.62 235.92
  Q 297.51 232.17 294.22 231.17
  A 0.47 0.47 0.0 0 0 293.62 231.67"
/>
<path stroke="#2579ba" vector-effect="non-scaling-stroke" d="
  M 364.89 234.01
  A 0.54 0.54 0.0 0 0 363.88 233.89
  Q 352.80 257.15 337.13 275.63
  A 0.33 0.33 0.0 0 0 337.32 276.16
  Q 340.87 276.92 347.02 277.10
  Q 350.58 277.20 351.53 276.45
  Q 357.71 271.55 364.52 269.34
  A 1.72 1.70 85.8 0 0 365.67 267.99
  Q 368.40 250.65 364.89 234.01"
/>
<path stroke="#80a6c5" vector-effect="non-scaling-stroke" d="
  M 164.64 295.91
  Q 183.61 295.99 196.25 297.78
  Q 222.10 301.44 231.24 302.47
  Q 252.67 304.89 274.25 302.08
  Q 302.77 298.37 323.61 279.64
  A 0.36 0.36 0.0 0 0 323.55 279.06
  L 314.93 274.09
  A 0.62 0.62 0.0 0 0 314.05 274.38
  C 311.91 279.38 308.33 284.97 302.71 286.02
  Q 299.99 286.54 295.46 285.17
  Q 280.44 280.65 269.87 275.39
  Q 265.57 273.25 264.24 268.14
  C 263.17 264.02 265.38 258.50 266.92 252.78
  A 0.52 0.51 18.5 0 0 266.61 252.17
  L 250.13 245.70
  A 0.58 0.55 -32.6 0 0 249.92 245.66
  L 245.35 245.66
  A 3.46 3.44 -33.9 0 1 244.06 245.41
  L 224.18 237.60
  A 4.24 4.24 0.0 0 1 222.78 236.70
  L 221.79 235.74
  A 1.22 1.22 0.0 0 0 220.67 235.41
  Q 218.02 235.99 215.88 235.67
  A 0.93 0.91 -66.3 0 0 215.04 236.01
  Q 209.99 242.30 202.77 240.23
  A 1.38 1.25 48.0 0 0 202.29 240.18
  L 169.79 243.52
  A 0.36 0.35 -18.8 0 0 169.52 244.06
  Q 175.43 253.51 175.63 265.25
  C 175.71 269.90 172.79 270.81 168.57 270.70
  Q 159.80 270.46 156.01 270.71
  Q 143.29 271.55 132.38 276.11
  C 129.59 277.28 126.85 277.31 126.00 274.25
  Q 123.27 264.44 117.47 256.15
  A 0.24 0.23 -35.1 0 0 117.15 256.10
  L 114.71 257.85
  A 0.42 0.42 0.0 0 0 114.59 258.41
  C 120.20 268.17 122.19 278.89 122.59 290.04
  Q 122.83 296.92 120.40 303.04
  A 0.35 0.35 0.0 0 0 120.78 303.51
  Q 133.91 301.42 149.78 297.39
  C 154.77 296.13 157.27 294.52 159.64 290.36
  A 3.21 3.20 -63.9 0 1 163.64 288.99
  L 163.84 289.06
  A 2.73 2.72 -68.2 0 1 165.42 292.75
  L 164.26 295.32
  A 0.42 0.42 0.0 0 0 164.64 295.91"
/>
<path stroke="#2579ba" vector-effect="non-scaling-stroke" d="
  M 15.02 246.22
  A 0.76 0.76 0.0 0 0 15.78 246.90
  L 26.10 246.90
  A 0.76 0.76 0.0 0 0 26.85 246.06
  L 25.88 236.59
  A 0.76 0.76 0.0 0 0 25.12 235.91
  L 14.80 235.91
  A 0.76 0.76 0.0 0 0 14.05 236.75
  L 15.02 246.22"
/>
<path stroke="#2579ba" vector-effect="non-scaling-stroke" d="
  M 68.89 309.55
  Q 70.67 309.95 72.87 309.04
  A 1.12 1.11 -5.9 0 0 73.52 308.25
  C 74.73 302.73 74.22 296.95 73.85 290.92
  Q 73.58 286.35 73.84 280.59
  C 74.40 268.32 73.59 253.19 68.07 242.04
  A 4.43 4.40 76.7 0 0 64.12 239.58
  L 63.42 239.58
  A 1.77 1.77 0.0 0 0 61.91 242.27
  Q 63.88 245.49 64.88 249.84
  Q 67.14 259.64 67.69 270.50
  Q 68.28 282.25 69.27 297.00
  Q 69.76 304.28 68.44 308.79
  A 0.61 0.60 14.9 0 0 68.89 309.55"
/>
<path stroke="#2579ba" vector-effect="non-scaling-stroke" d="
  M 78.86 308.74
  Q 79.30 308.76 86.60 307.36
  Q 94.97 305.77 111.52 305.27
  Q 113.44 305.21 114.30 303.27
  Q 116.44 298.44 116.62 292.22
  Q 117.09 275.58 109.65 261.20
  A 2.28 2.27 -19.8 0 0 107.13 260.02
  L 97.77 262.08
  A 0.63 0.63 0.0 0 0 97.28 262.82
  Q 98.28 268.36 97.49 276.29
  A 2.01 2.01 0.0 0 1 94.94 278.03
  L 94.77 277.98
  A 2.92 2.92 0.0 0 1 92.65 274.89
  Q 93.49 266.17 90.71 258.33
  C 87.76 250.04 81.33 241.47 72.39 239.82
  A 0.47 0.47 0.0 0 0 71.90 240.52
  C 81.40 256.88 77.30 278.18 78.45 294.57
  Q 79.04 302.96 78.32 308.08
  A 0.58 0.57 -84.5 0 0 78.86 308.74"
/>
<path stroke="#2579ba" vector-effect="non-scaling-stroke" d="
  M 154.87 245.33
  Q 160.66 254.41 160.50 264.82
  A 0.94 0.94 0.0 0 0 161.44 265.78
  L 169.70 265.78
  A 0.66 0.66 0.0 0 0 170.36 265.07
  Q 169.63 254.22 163.59 244.57
  A 0.53 0.52 -18.1 0 0 163.09 244.32
  L 154.95 245.16
  A 0.11 0.11 0.0 0 0 154.87 245.33"
/>
<path stroke="#2579ba" vector-effect="non-scaling-stroke" d="
  M 131.63 270.78
  Q 143.28 266.15 155.71 265.56
  A 0.60 0.59 87.6 0 0 156.28 264.93
  Q 155.76 255.25 150.66 246.83
  A 2.22 2.20 73.0 0 0 148.69 245.77
  C 139.74 246.11 130.51 247.57 122.48 251.89
  A 0.58 0.58 0.0 0 0 122.28 252.73
  Q 127.97 260.73 131.10 270.53
  A 0.40 0.40 0.0 0 0 131.63 270.78"
/>
<path stroke="#2579ba" vector-effect="non-scaling-stroke" d="
  M 58.85 247.10
  A 0.56 0.55 40.7 0 0 57.77 247.18
  L 56.84 253.26
  A 1.04 1.04 0.0 0 0 57.57 254.41
  L 60.58 255.30
  A 0.53 0.53 0.0 0 0 61.23 254.63
  L 58.85 247.10"
/>
<path stroke="#2579ba" vector-effect="non-scaling-stroke" d="
  M 16.84 251.50
  A 0.33 0.33 0.0 0 0 16.53 251.93
  L 20.97 265.99
  A 0.33 0.33 0.0 0 0 21.28 266.22
  L 30.15 266.22
  A 0.33 0.33 0.0 0 0 30.47 265.82
  L 27.38 251.76
  A 0.33 0.33 0.0 0 0 27.05 251.50
  L 16.84 251.50"
/>
<path stroke="#2579ba" vector-effect="non-scaling-stroke" d="
  M 310.66 264.22
  C 301.94 264.12 295.95 260.76 290.73 254.91
  A 0.42 0.41 -53.1 0 0 290.05 255.01
  L 281.75 272.60
  A 0.34 0.34 0.0 0 0 281.93 273.06
  Q 289.05 275.85 296.06 277.93
  Q 299.07 278.83 301.48 278.92
  A 3.78 3.77 -71.0 0 0 304.67 277.36
  Q 309.13 271.21 311.18 264.93
  A 0.55 0.55 0.0 0 0 310.66 264.22"
/>
<path stroke="#2579ba" vector-effect="non-scaling-stroke" d="
  M 335.37 265.67
  L 323.00 257.73
  A 0.30 0.30 0.0 0 0 322.58 257.82
  L 319.49 262.63
  A 6.20 2.56 -57.3 0 0 318.30 269.23
  L 326.86 274.73
  A 6.20 2.56 -57.3 0 0 332.37 270.90
  L 335.46 266.08
  A 0.30 0.30 0.0 0 0 335.37 265.67"
/>
<path stroke="#2579ba" vector-effect="non-scaling-stroke" d="
  M 63.09 270.41
  L 62.14 261.18
  A 1.21 1.18 -85.3 0 0 61.29 260.16
  L 57.49 259.03
  A 0.73 0.72 -84.4 0 0 56.56 259.80
  L 57.44 268.39
  A 0.39 0.38 -83.8 0 0 57.68 268.70
  L 62.72 270.69
  A 0.27 0.27 0.0 0 0 63.09 270.41"
/>
<path stroke="#2579ba" vector-effect="non-scaling-stroke" d="
  M 373.61 268.63
  Q 374.03 268.91 374.68 269.40
  C 376.34 270.65 375.67 273.30 373.71 273.72
  Q 365.76 275.42 363.37 276.62
  Q 361.50 277.56 355.36 281.35
  Q 348.26 285.73 344.85 292.84
  C 343.88 294.87 342.16 299.45 344.46 301.09
  C 346.25 302.36 347.44 301.16 347.95 299.39
  Q 350.20 291.58 356.50 286.78
  C 358.54 285.22 362.24 282.60 363.78 285.86
  A 2.42 2.15 62.3 0 1 363.04 288.85
  Q 355.97 293.07 353.19 301.69
  A 3.24 3.23 -78.4 0 0 355.97 305.91
  L 356.35 305.94
  A 4.95 4.95 0.0 0 0 361.58 302.31
  Q 363.16 296.48 368.60 291.61
  C 370.79 289.65 374.42 286.56 376.66 289.56
  A 2.17 2.17 0.0 0 1 376.13 292.65
  C 371.47 295.78 368.38 299.78 366.77 305.54
  A 2.50 2.50 0.0 0 0 369.18 308.71
  L 369.62 308.71
  A 5.15 5.14 -79.3 0 0 374.41 305.44
  C 376.30 300.60 381.94 293.66 387.72 292.63
  A 2.59 2.50 77.0 0 1 390.58 294.49
  Q 390.93 295.73 389.78 296.56
  C 385.51 299.63 381.43 303.28 379.68 308.42
  A 1.62 1.61 -72.8 0 0 380.77 310.50
  C 385.04 311.70 389.32 308.07 392.63 305.65
  C 395.14 303.83 400.19 303.10 403.00 301.20
  C 408.28 297.64 409.26 294.29 409.68 288.27
  A 7.85 7.84 -32.1 0 1 410.21 285.97
  C 411.68 282.30 415.18 274.33 411.72 270.77
  Q 398.85 257.56 381.83 261.10
  Q 376.75 262.15 373.40 267.70
  A 0.69 0.69 0.0 0 0 373.61 268.63"
/>
<path stroke="#2579ba" vector-effect="non-scaling-stroke" d="
  M 32.14 282.54
  A 0.96 0.96 0.0 0 0 33.09 281.48
  L 32.09 271.79
  A 0.96 0.96 0.0 0 0 31.13 270.93
  L 21.67 270.93
  A 0.96 0.96 0.0 0 0 20.72 271.99
  L 21.71 281.68
  A 0.96 0.96 0.0 0 0 22.67 282.54
  L 32.14 282.54"
/>
<path stroke="#2579ba" vector-effect="non-scaling-stroke" d="
  M 58.11 278.62
  Q 58.13 279.20 58.23 280.59
  A 0.97 0.96 -78.3 0 0 58.74 281.38
  Q 61.27 282.70 62.96 282.94
  A 0.56 0.55 -88.2 0 0 63.58 282.35
  Q 63.43 280.30 63.33 278.25
  Q 63.30 277.67 63.21 276.28
  A 0.97 0.96 -78.3 0 0 62.70 275.49
  Q 60.17 274.17 58.48 273.93
  A 0.56 0.55 -88.2 0 0 57.86 274.52
  Q 58.01 276.58 58.11 278.62"
/>
<path stroke="#80a6c5" vector-effect="non-scaling-stroke" d="
  M 309.24 298.59
  L 336.27 298.59
  A 0.73 0.72 0.4 0 0 337.00 297.88
  Q 337.11 292.16 340.76 286.90
  A 0.48 0.48 0.0 0 0 340.42 286.15
  Q 335.28 285.48 330.50 283.30
  A 0.97 0.96 -53.6 0 0 329.46 283.46
  Q 319.90 292.19 309.17 298.30
  A 0.16 0.15 -59.2 0 0 309.24 298.59"
/>
<path stroke="#2579ba" vector-effect="non-scaling-stroke" d="
  M 58.68 293.00
  Q 58.74 295.52 58.90 296.34
  A 1.43 1.41 5.7 0 0 59.77 297.40
  L 64.09 299.09
  A 0.40 0.40 0.0 0 0 64.64 298.69
  Q 64.42 295.71 64.35 292.88
  Q 64.30 290.35 64.14 289.53
  A 1.43 1.41 5.7 0 0 63.26 288.47
  L 58.94 286.78
  A 0.40 0.40 0.0 0 0 58.40 287.19
  Q 58.61 290.17 58.68 293.00"
/>
<path stroke="#2579ba" vector-effect="non-scaling-stroke" d="
  M 32.72 287.25
  L 23.66 287.25
  A 0.21 0.21 0.0 0 0 23.46 287.52
  Q 25.33 293.11 29.77 296.49
  A 1.19 1.18 -67.1 0 0 31.66 295.72
  L 32.92 287.48
  A 0.20 0.20 0.0 0 0 32.72 287.25"
/>
<path stroke="#2579ba" vector-effect="non-scaling-stroke" d="
  M 58.78 301.62
  Q 59.35 303.92 62.30 307.69
  A 0.90 0.90 0.0 0 0 63.81 307.54
  Q 64.39 306.40 64.78 304.29
  A 1.15 1.14 16.3 0 0 64.07 303.01
  L 59.32 301.14
  A 0.41 0.41 0.0 0 0 58.78 301.62"
/>
<path stroke="#2579ba" vector-effect="non-scaling-stroke" d="
  M 390.60 114.01
  Q 388.37 111.68 388.43 107.09
  Q 388.55 98.00 395.12 94.36
  A 1.94 1.93 61.5 0 0 395.89 91.76
  L 395.82 91.63
  A 2.06 2.06 0.0 0 0 393.20 90.69
  C 384.82 94.20 382.78 105.35 384.60 113.38
  Q 385.00 115.15 386.68 116.75
  A 2.86 2.86 0.0 0 0 390.24 117.05
  L 390.26 117.03
  A 1.99 1.98 -38.8 0 0 390.60 114.01"
/>
<path stroke="#80a6c5" vector-effect="non-scaling-stroke" d="
  M 255.60 184.17
  L 263.73 181.30
  A 2.42 2.42 0.0 0 0 265.21 178.23
  L 265.18 178.16
  A 1.93 1.93 0.0 0 0 262.62 176.83
  Q 257.67 178.74 252.46 180.35
  Q 249.88 181.15 250.09 183.47
  Q 250.25 185.24 252.99 191.36
  A 2.37 2.36 68.2 0 0 255.94 192.63
  L 256.25 192.53
  A 1.57 1.56 72.4 0 0 257.26 190.57
  L 255.38 184.61
  A 0.35 0.35 0.0 0 1 255.60 184.17"
/>
<path stroke="#80a6c5" vector-effect="non-scaling-stroke" d="
  M 276.4227 182.2104
  A 2.27 2.27 0.0 0 0 276.1876 179.0087
  L 276.1270 178.9565
  A 2.27 2.27 0.0 0 0 272.9254 179.1916
  L 260.4973 193.5896
  A 2.27 2.27 0.0 0 0 260.7324 196.7913
  L 260.7930 196.8435
  A 2.27 2.27 0.0 0 0 263.9946 196.6084
  L 276.4227 182.2104"
/>
<path stroke="#80a6c5" vector-effect="non-scaling-stroke" d="
  M 282.29 192.26
  L 273.56 194.56
  A 2.37 2.37 0.0 0 0 271.82 197.25
  L 271.82 197.27
  A 1.92 1.91 -11.5 0 0 274.23 198.86
  Q 276.65 198.20 283.20 196.68
  C 286.59 195.89 289.23 194.43 287.08 190.71
  Q 285.20 187.47 282.52 183.68
  A 2.00 2.00 0.0 0 0 279.63 183.28
  L 279.41 183.45
  A 2.22 2.22 0.0 0 0 278.97 186.49
  L 282.56 191.52
  A 0.48 0.48 0.0 0 1 282.29 192.26"
/>
<path stroke="#2579ba" vector-effect="non-scaling-stroke" d="
  M 308.51 250.77
  A 3.59 3.59 0.0 0 0 304.92 247.18
  A 3.59 3.59 0.0 0 0 301.33 250.77
  A 3.59 3.59 0.0 0 0 304.92 254.36
  A 3.59 3.59 0.0 0 0 308.51 250.77"
/>
</g>
<g fill="#014d8d">
<path d="
  M 22.65 298.43
  Q 22.07 298.04 21.90 297.09
  A 2.20 2.12 -69.5 0 0 21.49 296.14
  Q 17.86 291.34 17.06 288.94
  Q 14.38 280.95 14.22 276.74
  Q 13.84 267.38 13.17 265.03
  C 10.12 254.31 7.76 246.33 7.11 235.97
  Q 6.91 232.75 6.96 217.25
  Q 6.99 207.10 13.50 199.99
  C 16.75 196.44 24.06 194.25 28.62 193.84
  C 36.43 193.15 44.46 197.14 49.45 203.04
  Q 59.68 215.12 60.99 230.88
  A 1.53 1.51 19.3 0 0 61.47 231.86
  Q 63.11 233.33 65.27 232.95
  C 69.28 232.24 71.04 229.64 73.15 225.83
  A 25.93 25.43 80.0 0 1 75.80 221.96
  C 77.72 219.65 79.13 218.05 80.84 215.19
  C 87.85 203.48 96.58 192.59 107.99 185.75
  Q 111.85 183.44 118.46 181.73
  Q 123.30 180.47 129.59 181.57
  Q 146.43 184.51 158.81 196.15
  A 0.66 0.66 0.0 0 0 159.92 195.77
  Q 161.92 181.54 171.27 171.04
  C 182.59 158.33 197.54 150.42 213.94 144.04
  C 222.85 140.57 232.56 137.59 242.03 136.97
  A 1.14 1.13 -17.4 0 0 242.93 135.25
  C 228.38 111.04 225.61 80.93 236.85 55.16
  C 248.58 28.28 272.77 9.09 301.26 2.50
  Q 307.69 1.02 311.50 1.03
  C 319.35 1.07 329.35 0.43 337.69 2.02
  C 346.09 3.62 356.63 6.93 364.60 11.55
  C 385.04 23.39 400.18 41.07 407.10 63.60
  Q 417.54 97.60 401.35 129.22
  A 0.47 0.47 0.0 0 0 401.66 129.89
  Q 414.78 132.96 423.02 143.69
  C 429.17 151.69 429.38 161.27 427.07 171.39
  Q 421.87 194.24 417.53 209.14
  A 6.28 6.21 45.9 0 0 417.50 212.52
  Q 419.89 221.37 421.35 230.91
  Q 421.52 232.02 422.45 243.98
  Q 422.96 250.49 422.09 257.03
  Q 421.14 264.23 419.59 277.63
  C 419.16 281.39 417.69 285.32 416.51 288.64
  A 0.78 0.71 60.9 0 0 416.46 288.85
  L 415.08 297.85
  A 1.03 1.03 0.0 0 0 416.10 299.03
  L 431.71 299.03
  A 2.31 2.31 0.0 0 1 434.02 301.34
  L 434.02 302.74
  A 2.24 2.24 0.0 0 1 431.78 304.98
  L 411.11 304.98
  A 5.90 5.89 -62.5 0 0 407.71 306.06
  Q 403.77 308.83 398.19 310.49
  A 8.17 7.99 -67.9 0 0 396.40 311.27
  Q 393.75 312.84 390.36 315.21
  C 386.37 317.99 380.46 317.29 376.01 315.72
  A 5.23 5.21 57.2 0 0 374.82 315.46
  Q 370.85 315.08 365.78 314.73
  Q 364.38 314.64 361.69 312.66
  A 1.53 1.52 -25.1 0 0 360.91 312.38
  L 353.51 311.92
  A 4.28 4.27 -23.4 0 1 351.08 310.96
  Q 347.35 307.87 343.19 307.83
  A 2.25 2.24 -23.6 0 1 341.71 307.25
  Q 339.43 305.16 337.51 305.11
  Q 327.32 304.86 294.05 305.03
  Q 292.92 305.03 289.51 305.93
  Q 275.48 309.60 263.51 310.01
  Q 257.64 310.22 256.70 310.28
  Q 254.19 310.44 249.84 310.30
  Q 236.00 309.83 234.95 309.79
  C 223.83 309.32 212.48 306.69 201.51 306.19
  Q 194.51 305.87 191.01 305.59
  Q 184.79 305.11 153.15 305.61
  A 5.64 5.52 51.3 0 1 151.67 305.43
  Q 149.33 304.79 147.84 305.12
  Q 127.71 309.63 117.24 311.20
  C 109.60 312.35 100.48 312.53 92.29 313.86
  Q 82.57 315.44 75.75 316.41
  C 66.37 317.74 56.54 316.11 52.87 306.23
  A 1.19 1.18 79.6 0 0 51.76 305.46
  L 4.37 305.46
  A 3.35 3.34 -90.0 0 1 1.03 302.11
  L 1.03 301.77
  A 3.11 3.11 0.0 0 1 4.14 298.66
  L 22.58 298.66
  A 0.13 0.13 0.0 0 0 22.65 298.43
  Z
  M 244.07 123.42
  C 255.96 146.92 276.93 157.80 302.86 162.48
  Q 325.63 166.58 348.94 161.20
  Q 378.40 154.39 393.77 128.93
  A 0.17 0.17 0.0 0 0 393.55 128.69
  C 380.59 135.00 371.07 125.68 368.86 113.42
  Q 366.72 101.52 371.24 90.48
  C 373.92 83.92 379.75 77.75 386.93 76.43
  Q 397.21 74.55 403.17 82.96
  A 0.15 0.15 0.0 0 0 403.44 82.86
  C 398.78 37.48 361.03 5.17 315.32 8.32
  Q 285.42 10.38 261.95 31.33
  A 0.25 0.25 0.0 0 0 262.24 31.73
  C 281.16 21.04 305.34 21.20 325.36 28.14
  C 350.76 36.93 367.75 59.09 365.37 86.45
  C 362.45 120.06 334.83 143.58 301.98 145.55
  C 281.44 146.78 258.57 138.83 244.30 123.27
  A 0.14 0.14 0.0 0 0 244.07 123.42
  Z
  M 311.50 69.39
  A 0.45 0.44 69.9 0 0 310.80 69.06
  L 302.34 75.10
  A 2.72 2.64 85.0 0 0 301.45 76.19
  Q 298.05 83.82 292.88 91.24
  A 2.92 2.91 -64.1 0 1 289.66 92.36
  L 289.62 92.35
  A 1.59 1.59 0.0 0 1 288.80 89.90
  C 293.18 83.92 295.60 78.97 298.80 71.88
  A 3.34 3.29 -6.1 0 1 299.86 70.59
  L 309.37 63.80
  A 1.42 1.40 74.0 0 0 309.95 62.74
  C 310.31 56.85 310.63 52.48 310.47 48.63
  Q 310.41 46.95 311.04 46.26
  Q 315.21 41.76 321.60 34.56
  A 0.32 0.32 0.0 0 0 321.46 34.04
  C 303.71 28.33 283.25 28.43 266.74 36.99
  C 251.23 45.02 240.41 59.62 238.02 77.03
  C 235.10 98.29 242.20 116.83 260.71 128.32
  C 281.82 141.42 309.15 142.89 330.52 130.08
  C 349.26 118.85 360.32 98.42 358.25 76.68
  C 356.50 58.27 344.52 44.35 328.07 36.60
  A 0.61 0.61 0.0 0 0 327.34 36.77
  L 316.96 49.23
  A 1.97 1.94 65.2 0 0 316.51 50.48
  L 316.51 59.11
  A 3.40 3.34 31.5 0 0 316.90 60.68
  Q 318.13 62.97 317.43 64.23
  Q 314.37 69.80 317.55 76.05
  Q 318.81 78.53 320.73 81.25
  A 3.26 3.25 -53.0 0 1 321.14 84.23
  L 318.62 91.25
  A 1.97 1.97 0.0 0 1 316.00 92.40
  L 315.89 92.35
  A 1.96 1.96 0.0 0 1 314.71 89.88
  L 316.46 84.68
  A 2.75 2.74 -54.0 0 0 316.07 82.17
  Q 312.08 76.77 311.50 69.39
  Z
  M 385.19 124.60
  Q 391.81 125.78 397.16 117.44
  Q 401.65 110.44 402.46 100.78
  C 403.04 93.87 400.34 84.60 392.62 83.22
  C 384.89 81.83 379.14 89.59 377.28 96.26
  Q 374.68 105.60 376.46 113.73
  Q 378.58 123.41 385.19 124.60
  Z
  M 412.90 198.81
  A 0.40 0.40 0.0 0 0 413.54 198.60
  Q 416.83 185.51 420.67 168.46
  Q 424.44 151.68 412.27 142.24
  C 408.77 139.53 402.99 137.27 398.60 135.97
  A 1.72 1.72 0.0 0 0 396.67 136.66
  Q 389.98 146.58 381.03 153.53
  A 0.57 0.56 39.8 0 0 381.12 154.48
  Q 387.45 157.76 392.58 162.86
  A 0.39 0.39 0.0 0 0 393.23 162.66
  Q 393.84 159.64 394.91 156.93
  Q 398.48 147.88 408.24 146.18
  A 4.75 4.74 -24.0 0 1 412.79 147.92
  L 412.84 147.97
  A 2.03 2.03 0.0 0 1 411.57 151.22
  L 406.28 152.10
  A 2.06 1.87 25.9 0 0 405.84 152.23
  C 400.15 154.91 398.70 161.58 397.75 166.77
  A 4.08 4.07 33.2 0 0 398.38 169.76
  Q 406.38 181.67 412.59 198.41
  Q 412.66 198.62 412.90 198.81
  Z
  M 246.06 143.36
  C 224.71 146.30 202.41 154.40 185.34 167.51
  C 175.75 174.87 163.69 190.45 168.79 202.91
  A 0.44 0.43 -47.4 0 0 169.61 202.87
  C 173.67 190.32 184.52 179.33 198.12 178.64
  Q 204.95 178.30 211.04 181.36
  A 0.28 0.27 -0.2 0 0 211.41 180.99
  Q 206.99 172.37 197.28 168.58
  A 2.74 2.73 20.9 0 1 195.71 165.09
  L 195.79 164.88
  A 2.87 2.87 0.0 0 1 199.38 163.15
  Q 210.90 166.94 216.55 177.58
  A 0.25 0.24 47.2 0 0 216.97 177.60
  Q 229.07 158.90 246.27 143.82
  A 0.26 0.26 0.0 0 0 246.06 143.36
  Z
  M 327.64 171.09
  Q 308.52 171.66 289.39 166.86
  C 276.25 163.56 262.63 157.56 252.95 148.05
  A 0.58 0.57 -43.0 0 0 252.18 148.03
  Q 233.17 164.77 220.11 186.07
  A 0.53 0.51 30.5 0 0 220.31 186.80
  Q 225.82 189.81 230.61 194.81
  A 0.63 0.63 0.0 0 0 231.61 194.69
  Q 238.02 183.40 246.52 168.70
  C 249.38 163.75 251.25 159.74 257.22 161.59
  Q 284.21 169.96 300.18 174.61
  C 305.55 176.17 309.80 178.18 306.08 184.31
  Q 296.90 199.47 290.52 210.13
  Q 288.92 212.81 287.51 213.95
  C 283.92 216.83 281.09 215.35 275.84 213.83
  Q 254.08 207.56 236.47 202.30
  A 0.41 0.41 0.0 0 0 235.99 202.89
  C 237.63 206.03 238.32 208.80 238.67 212.93
  A 0.90 0.89 8.0 0 0 239.24 213.68
  Q 239.79 213.89 252.25 218.12
  C 256.79 219.66 260.54 220.46 260.71 225.21
  A 0.87 0.86 10.0 0 0 261.26 225.98
  L 276.06 231.80
  A 0.77 0.76 26.0 0 0 276.99 231.48
  C 278.93 228.20 281.55 224.51 285.73 223.93
  Q 289.70 223.39 296.64 225.63
  Q 302.73 227.60 313.79 231.71
  C 323.69 235.40 327.34 241.52 325.32 252.02
  A 1.03 1.02 -69.8 0 0 325.81 253.09
  L 339.52 261.01
  A 0.52 0.52 0.0 0 0 340.23 260.82
  L 346.16 250.54
  A 0.27 0.27 0.0 0 0 346.06 250.16
  Q 317.39 234.03 318.11 202.77
  C 318.35 192.11 322.20 180.45 327.83 171.41
  A 0.21 0.21 0.0 0 0 327.64 171.09
  Z
  M 414.58 264.01
  Q 415.15 262.03 415.39 259.07
  C 417.76 231.00 409.52 202.51 395.51 178.11
  Q 390.20 168.85 381.72 162.62
  C 380.59 161.80 375.33 158.91 372.96 159.70
  C 361.18 163.59 350.71 175.92 345.90 186.67
  C 338.54 203.14 341.69 221.16 357.07 231.50
  A 0.67 0.66 -60.4 0 0 358.04 231.23
  L 360.62 225.77
  A 1.43 1.41 45.8 0 0 360.63 224.58
  L 350.54 202.74
  A 3.74 3.74 0.0 0 1 352.09 197.92
  L 352.21 197.85
  A 3.01 3.01 0.0 0 1 356.36 199.25
  Q 363.90 215.74 365.84 219.60
  C 367.54 222.99 368.50 226.97 370.46 230.89
  A 0.66 0.65 -26.6 0 0 371.35 231.18
  Q 381.21 226.08 393.53 226.36
  A 3.04 3.04 0.0 0 1 396.50 229.26
  L 396.51 229.45
  A 2.81 2.80 -0.7 0 1 393.63 232.39
  Q 382.32 232.08 372.84 237.18
  A 1.02 1.02 0.0 0 0 372.32 238.26
  Q 373.98 247.40 373.57 257.35
  A 0.42 0.41 -15.7 0 0 374.22 257.71
  C 380.97 253.21 390.93 253.86 398.61 255.46
  C 403.71 256.52 409.72 261.09 414.01 264.21
  A 0.37 0.37 0.0 0 0 414.58 264.01
  Z
  M 238.83 195.20
  A 0.53 0.53 0.0 0 0 239.13 195.97
  L 283.22 209.09
  A 0.53 0.53 0.0 0 0 283.83 208.85
  L 299.40 181.86
  A 0.53 0.53 0.0 0 0 299.10 181.09
  L 255.01 167.97
  A 0.53 0.53 0.0 0 0 254.40 168.21
  L 238.83 195.20
  Z
  M 349.49 168.40
  A 0.21 0.21 0.0 0 0 349.28 168.06
  L 338.03 170.08
  A 1.66 1.66 0.0 0 0 337.25 170.45
  Q 336.32 171.27 335.30 172.81
  C 323.73 190.32 320.41 214.01 334.09 231.40
  Q 340.64 239.74 349.39 244.45
  A 0.98 0.98 0.0 0 0 350.70 244.08
  L 353.83 238.65
  A 1.02 1.02 0.0 0 0 353.51 237.29
  Q 333.34 223.60 335.56 199.29
  Q 336.69 186.91 343.65 176.30
  Q 345.56 173.39 349.49 168.40
  Z
  M 231.53 215.87
  A 4.95 4.95 0.0 0 0 232.17 212.99
  C 231.29 203.17 221.44 193.16 211.90 191.12
  C 208.57 190.41 206.26 191.11 205.23 187.11
  A 1.12 1.11 88.7 0 0 204.37 186.28
  C 192.37 183.71 181.27 191.99 177.44 202.93
  C 175.73 207.82 176.00 211.49 181.24 213.52
  Q 183.49 214.40 183.82 215.98
  C 185.21 222.80 186.37 228.37 192.04 232.94
  Q 193.93 234.46 196.02 234.46
  A 1.36 1.36 0.0 0 0 197.37 232.90
  Q 196.73 228.38 190.76 222.31
  A 2.10 2.09 -35.8 0 1 191.30 218.98
  L 191.33 218.96
  A 3.90 3.88 53.8 0 1 195.85 219.67
  Q 200.21 224.01 201.59 227.99
  Q 202.90 231.76 203.43 232.50
  C 206.29 236.46 210.21 232.96 210.23 229.43
  C 210.27 223.52 207.15 219.36 202.97 215.22
  A 2.42 2.22 -49.9 0 1 202.84 212.19
  C 204.38 210.11 207.15 211.91 208.66 213.39
  Q 213.93 218.58 215.23 226.27
  C 215.87 230.08 219.87 229.99 221.19 226.65
  C 223.77 220.16 219.81 213.11 216.21 207.65
  A 1.86 1.84 -37.1 0 1 216.56 205.23
  C 219.17 202.98 221.42 206.22 222.69 208.06
  Q 226.02 212.90 227.10 218.86
  A 1.33 1.33 0.0 0 0 229.56 219.29
  L 231.53 215.87
  Z
  M 133.90 203.22
  Q 131.69 195.38 126.99 189.30
  A 3.64 3.63 68.9 0 0 123.84 187.90
  C 111.14 188.86 100.90 198.05 93.60 207.99
  A 0.96 0.96 0.0 0 0 93.99 209.44
  Q 102.78 213.25 109.20 219.57
  A 0.64 0.63 -48.5 0 0 110.14 219.51
  C 116.09 212.00 123.65 205.82 133.36 204.08
  A 0.69 0.69 0.0 0 0 133.90 203.22
  Z
  M 132.14 189.95
  C 134.66 194.34 136.62 198.83 137.60 203.18
  A 0.80 0.79 -2.1 0 0 138.26 203.79
  L 145.83 204.95
  A 0.71 0.71 0.0 0 0 146.64 204.19
  C 146.31 200.67 145.76 196.77 142.85 194.25
  Q 138.16 190.19 132.66 189.22
  A 0.50 0.49 -9.7 0 0 132.14 189.95
  Z
  M 150.66 198.68
  C 151.61 202.47 153.42 210.18 147.49 209.73
  C 144.36 209.49 136.42 208.85 132.19 209.93
  C 124.28 211.94 119.54 217.16 113.34 223.99
  Q 110.45 227.18 107.40 224.51
  Q 99.49 217.59 90.24 213.45
  A 0.55 0.54 -62.4 0 0 89.55 213.67
  L 86.09 219.66
  A 0.27 0.26 -64.7 0 0 86.22 220.03
  Q 103.37 226.87 113.36 242.65
  Q 114.28 244.11 116.20 247.27
  A 0.61 0.60 60.1 0 0 117.00 247.49
  L 128.11 241.46
  A 4.05 4.01 -84.2 0 0 129.24 240.53
  C 131.74 237.80 132.90 234.13 134.83 229.43
  A 3.07 3.06 -70.9 0 1 138.51 227.64
  L 138.79 227.74
  A 3.04 3.03 -69.3 0 1 140.61 231.78
  L 137.27 239.75
  A 0.24 0.24 0.0 0 0 137.52 240.08
  L 183.92 235.31
  A 0.24 0.24 0.0 0 0 184.07 234.91
  Q 179.91 230.43 178.37 224.47
  A 4.63 4.61 15.6 0 0 177.18 222.37
  Q 176.63 221.81 171.03 215.88
  Q 166.69 211.28 151.11 198.40
  A 0.28 0.28 0.0 0 0 150.66 198.68
  Z
  M 47.08 294.56
  L 51.83 293.51
  A 0.62 0.62 0.0 0 0 52.32 292.88
  Q 51.94 282.36 50.91 270.28
  Q 50.29 263.05 50.43 259.71
  C 50.77 251.57 51.00 244.58 54.73 237.87
  A 3.77 3.72 58.2 0 0 55.19 235.85
  C 54.38 221.80 47.39 202.80 31.14 200.53
  A 0.43 0.42 -12.2 0 0 30.72 201.18
  C 33.73 205.93 35.71 211.82 37.49 218.50
  Q 39.57 226.32 41.68 244.10
  Q 42.77 253.31 43.34 255.74
  Q 43.50 256.43 46.38 267.10
  C 48.49 274.92 50.12 286.80 46.82 294.23
  A 0.24 0.23 -83.9 0 0 47.08 294.56
  Z
  M 39.25 297.19
  A 3.78 3.75 3.2 0 0 41.54 295.16
  C 48.42 279.97 39.26 263.58 37.80 248.70
  Q 37.62 246.86 35.81 232.70
  Q 33.90 217.79 27.41 204.34
  A 3.91 3.91 0.0 0 0 22.71 202.31
  L 22.09 202.51
  A 2.11 2.11 0.0 0 0 20.96 205.68
  C 29.53 218.76 31.18 234.96 32.42 250.10
  C 32.98 256.89 35.45 264.36 36.85 271.56
  Q 39.56 285.50 35.84 296.80
  A 0.88 0.88 0.0 0 0 36.94 297.91
  L 39.25 297.19
  Z
  M 20.99 215.75
  L 16.81 209.90
  A 0.75 0.75 0.0 0 0 15.50 210.06
  L 13.21 215.90
  A 0.51 0.51 0.0 0 0 13.69 216.60
  L 20.55 216.60
  A 0.54 0.54 0.0 0 0 20.99 215.75
  Z
  M 246.02 238.99
  L 253.10 225.47
  A 0.33 0.32 25.1 0 0 252.93 225.02
  L 237.91 219.13
  A 0.84 0.84 0.0 0 0 236.83 219.58
  Q 234.60 224.91 229.17 226.96
  A 1.75 1.72 88.4 0 0 228.12 228.09
  L 227.12 231.47
  A 0.73 0.72 -71.0 0 0 227.55 232.36
  L 245.21 239.30
  A 0.65 0.65 0.0 0 0 246.02 238.99
  Z
  M 13.06 230.64
  A 0.61 0.61 0.0 0 0 13.67 231.25
  L 24.29 231.25
  A 0.61 0.61 0.0 0 0 24.89 230.51
  L 22.99 221.88
  A 0.61 0.61 0.0 0 0 22.39 221.40
  L 13.67 221.40
  A 0.61 0.61 0.0 0 0 13.06 222.01
  L 13.06 230.64
  Z
  M 75.96 235.12
  C 86.03 238.27 91.21 246.56 95.67 255.60
  A 0.75 0.74 70.4 0 0 96.50 256.00
  L 110.56 252.91
  A 1.40 1.40 0.0 0 0 111.52 250.92
  Q 104.09 235.79 88.86 228.14
  Q 85.30 226.35 82.41 225.65
  A 1.91 1.90 -67.9 0 0 80.31 226.54
  L 75.72 234.50
  A 0.43 0.42 23.9 0 0 75.96 235.12
  Z
  M 286.33 230.34
  C 283.46 231.64 279.74 240.23 278.34 243.36
  Q 276.79 246.85 270.80 262.17
  A 6.18 6.16 -59.2 0 0 272.54 269.10
  L 272.94 269.43
  A 3.75 3.74 32.2 0 0 278.70 268.13
  L 285.80 253.09
  A 4.60 4.58 50.7 0 0 286.10 250.04
  C 284.39 243.19 290.37 237.13 288.98 231.49
  Q 288.46 229.39 286.33 230.34
  Z
  M 273.75 237.95
  A 0.81 0.81 0.0 0 0 273.31 236.85
  L 257.76 230.75
  A 0.81 0.81 0.0 0 0 256.74 231.15
  L 252.81 239.46
  A 0.81 0.81 0.0 0 0 253.25 240.56
  L 268.80 246.66
  A 0.81 0.81 0.0 0 0 269.82 246.26
  L 273.75 237.95
  Z
  M 293.62 231.67
  Q 294.17 236.55 291.93 241.64
  C 289.48 247.21 293.11 250.05 296.72 253.15
  Q 303.11 258.65 311.52 258.21
  C 313.71 258.09 315.43 257.28 316.57 255.58
  C 318.35 252.91 320.36 247.21 319.01 243.80
  C 317.14 239.06 311.99 237.54 307.62 235.92
  Q 297.51 232.17 294.22 231.17
  A 0.47 0.47 0.0 0 0 293.62 231.67
  Z
  M 364.89 234.01
  A 0.54 0.54 0.0 0 0 363.88 233.89
  Q 352.80 257.15 337.13 275.63
  A 0.33 0.33 0.0 0 0 337.32 276.16
  Q 340.87 276.92 347.02 277.10
  Q 350.58 277.20 351.53 276.45
  Q 357.71 271.55 364.52 269.34
  A 1.72 1.70 85.8 0 0 365.67 267.99
  Q 368.40 250.65 364.89 234.01
  Z
  M 164.64 295.91
  Q 183.61 295.99 196.25 297.78
  Q 222.10 301.44 231.24 302.47
  Q 252.67 304.89 274.25 302.08
  Q 302.77 298.37 323.61 279.64
  A 0.36 0.36 0.0 0 0 323.55 279.06
  L 314.93 274.09
  A 0.62 0.62 0.0 0 0 314.05 274.38
  C 311.91 279.38 308.33 284.97 302.71 286.02
  Q 299.99 286.54 295.46 285.17
  Q 280.44 280.65 269.87 275.39
  Q 265.57 273.25 264.24 268.14
  C 263.17 264.02 265.38 258.50 266.92 252.78
  A 0.52 0.51 18.5 0 0 266.61 252.17
  L 250.13 245.70
  A 0.58 0.55 -32.6 0 0 249.92 245.66
  L 245.35 245.66
  A 3.46 3.44 -33.9 0 1 244.06 245.41
  L 224.18 237.60
  A 4.24 4.24 0.0 0 1 222.78 236.70
  L 221.79 235.74
  A 1.22 1.22 0.0 0 0 220.67 235.41
  Q 218.02 235.99 215.88 235.67
  A 0.93 0.91 -66.3 0 0 215.04 236.01
  Q 209.99 242.30 202.77 240.23
  A 1.38 1.25 48.0 0 0 202.29 240.18
  L 169.79 243.52
  A 0.36 0.35 -18.8 0 0 169.52 244.06
  Q 175.43 253.51 175.63 265.25
  C 175.71 269.90 172.79 270.81 168.57 270.70
  Q 159.80 270.46 156.01 270.71
  Q 143.29 271.55 132.38 276.11
  C 129.59 277.28 126.85 277.31 126.00 274.25
  Q 123.27 264.44 117.47 256.15
  A 0.24 0.23 -35.1 0 0 117.15 256.10
  L 114.71 257.85
  A 0.42 0.42 0.0 0 0 114.59 258.41
  C 120.20 268.17 122.19 278.89 122.59 290.04
  Q 122.83 296.92 120.40 303.04
  A 0.35 0.35 0.0 0 0 120.78 303.51
  Q 133.91 301.42 149.78 297.39
  C 154.77 296.13 157.27 294.52 159.64 290.36
  A 3.21 3.20 -63.9 0 1 163.64 288.99
  L 163.84 289.06
  A 2.73 2.72 -68.2 0 1 165.42 292.75
  L 164.26 295.32
  A 0.42 0.42 0.0 0 0 164.64 295.91
  Z
  M 15.02 246.22
  A 0.76 0.76 0.0 0 0 15.78 246.90
  L 26.10 246.90
  A 0.76 0.76 0.0 0 0 26.85 246.06
  L 25.88 236.59
  A 0.76 0.76 0.0 0 0 25.12 235.91
  L 14.80 235.91
  A 0.76 0.76 0.0 0 0 14.05 236.75
  L 15.02 246.22
  Z
  M 68.89 309.55
  Q 70.67 309.95 72.87 309.04
  A 1.12 1.11 -5.9 0 0 73.52 308.25
  C 74.73 302.73 74.22 296.95 73.85 290.92
  Q 73.58 286.35 73.84 280.59
  C 74.40 268.32 73.59 253.19 68.07 242.04
  A 4.43 4.40 76.7 0 0 64.12 239.58
  L 63.42 239.58
  A 1.77 1.77 0.0 0 0 61.91 242.27
  Q 63.88 245.49 64.88 249.84
  Q 67.14 259.64 67.69 270.50
  Q 68.28 282.25 69.27 297.00
  Q 69.76 304.28 68.44 308.79
  A 0.61 0.60 14.9 0 0 68.89 309.55
  Z
  M 78.86 308.74
  Q 79.30 308.76 86.60 307.36
  Q 94.97 305.77 111.52 305.27
  Q 113.44 305.21 114.30 303.27
  Q 116.44 298.44 116.62 292.22
  Q 117.09 275.58 109.65 261.20
  A 2.28 2.27 -19.8 0 0 107.13 260.02
  L 97.77 262.08
  A 0.63 0.63 0.0 0 0 97.28 262.82
  Q 98.28 268.36 97.49 276.29
  A 2.01 2.01 0.0 0 1 94.94 278.03
  L 94.77 277.98
  A 2.92 2.92 0.0 0 1 92.65 274.89
  Q 93.49 266.17 90.71 258.33
  C 87.76 250.04 81.33 241.47 72.39 239.82
  A 0.47 0.47 0.0 0 0 71.90 240.52
  C 81.40 256.88 77.30 278.18 78.45 294.57
  Q 79.04 302.96 78.32 308.08
  A 0.58 0.57 -84.5 0 0 78.86 308.74
  Z
  M 154.87 245.33
  Q 160.66 254.41 160.50 264.82
  A 0.94 0.94 0.0 0 0 161.44 265.78
  L 169.70 265.78
  A 0.66 0.66 0.0 0 0 170.36 265.07
  Q 169.63 254.22 163.59 244.57
  A 0.53 0.52 -18.1 0 0 163.09 244.32
  L 154.95 245.16
  A 0.11 0.11 0.0 0 0 154.87 245.33
  Z
  M 131.63 270.78
  Q 143.28 266.15 155.71 265.56
  A 0.60 0.59 87.6 0 0 156.28 264.93
  Q 155.76 255.25 150.66 246.83
  A 2.22 2.20 73.0 0 0 148.69 245.77
  C 139.74 246.11 130.51 247.57 122.48 251.89
  A 0.58 0.58 0.0 0 0 122.28 252.73
  Q 127.97 260.73 131.10 270.53
  A 0.40 0.40 0.0 0 0 131.63 270.78
  Z
  M 58.85 247.10
  A 0.56 0.55 40.7 0 0 57.77 247.18
  L 56.84 253.26
  A 1.04 1.04 0.0 0 0 57.57 254.41
  L 60.58 255.30
  A 0.53 0.53 0.0 0 0 61.23 254.63
  L 58.85 247.10
  Z
  M 16.84 251.50
  A 0.33 0.33 0.0 0 0 16.53 251.93
  L 20.97 265.99
  A 0.33 0.33 0.0 0 0 21.28 266.22
  L 30.15 266.22
  A 0.33 0.33 0.0 0 0 30.47 265.82
  L 27.38 251.76
  A 0.33 0.33 0.0 0 0 27.05 251.50
  L 16.84 251.50
  Z
  M 310.66 264.22
  C 301.94 264.12 295.95 260.76 290.73 254.91
  A 0.42 0.41 -53.1 0 0 290.05 255.01
  L 281.75 272.60
  A 0.34 0.34 0.0 0 0 281.93 273.06
  Q 289.05 275.85 296.06 277.93
  Q 299.07 278.83 301.48 278.92
  A 3.78 3.77 -71.0 0 0 304.67 277.36
  Q 309.13 271.21 311.18 264.93
  A 0.55 0.55 0.0 0 0 310.66 264.22
  Z
  M 335.37 265.67
  L 323.00 257.73
  A 0.30 0.30 0.0 0 0 322.58 257.82
  L 319.49 262.63
  A 6.20 2.56 -57.3 0 0 318.30 269.23
  L 326.86 274.73
  A 6.20 2.56 -57.3 0 0 332.37 270.90
  L 335.46 266.08
  A 0.30 0.30 0.0 0 0 335.37 265.67
  Z
  M 63.09 270.41
  L 62.14 261.18
  A 1.21 1.18 -85.3 0 0 61.29 260.16
  L 57.49 259.03
  A 0.73 0.72 -84.4 0 0 56.56 259.80
  L 57.44 268.39
  A 0.39 0.38 -83.8 0 0 57.68 268.70
  L 62.72 270.69
  A 0.27 0.27 0.0 0 0 63.09 270.41
  Z
  M 373.61 268.63
  Q 374.03 268.91 374.68 269.40
  C 376.34 270.65 375.67 273.30 373.71 273.72
  Q 365.76 275.42 363.37 276.62
  Q 361.50 277.56 355.36 281.35
  Q 348.26 285.73 344.85 292.84
  C 343.88 294.87 342.16 299.45 344.46 301.09
  C 346.25 302.36 347.44 301.16 347.95 299.39
  Q 350.20 291.58 356.50 286.78
  C 358.54 285.22 362.24 282.60 363.78 285.86
  A 2.42 2.15 62.3 0 1 363.04 288.85
  Q 355.97 293.07 353.19 301.69
  A 3.24 3.23 -78.4 0 0 355.97 305.91
  L 356.35 305.94
  A 4.95 4.95 0.0 0 0 361.58 302.31
  Q 363.16 296.48 368.60 291.61
  C 370.79 289.65 374.42 286.56 376.66 289.56
  A 2.17 2.17 0.0 0 1 376.13 292.65
  C 371.47 295.78 368.38 299.78 366.77 305.54
  A 2.50 2.50 0.0 0 0 369.18 308.71
  L 369.62 308.71
  A 5.15 5.14 -79.3 0 0 374.41 305.44
  C 376.30 300.60 381.94 293.66 387.72 292.63
  A 2.59 2.50 77.0 0 1 390.58 294.49
  Q 390.93 295.73 389.78 296.56
  C 385.51 299.63 381.43 303.28 379.68 308.42
  A 1.62 1.61 -72.8 0 0 380.77 310.50
  C 385.04 311.70 389.32 308.07 392.63 305.65
  C 395.14 303.83 400.19 303.10 403.00 301.20
  C 408.28 297.64 409.26 294.29 409.68 288.27
  A 7.85 7.84 -32.1 0 1 410.21 285.97
  C 411.68 282.30 415.18 274.33 411.72 270.77
  Q 398.85 257.56 381.83 261.10
  Q 376.75 262.15 373.40 267.70
  A 0.69 0.69 0.0 0 0 373.61 268.63
  Z
  M 32.14 282.54
  A 0.96 0.96 0.0 0 0 33.09 281.48
  L 32.09 271.79
  A 0.96 0.96 0.0 0 0 31.13 270.93
  L 21.67 270.93
  A 0.96 0.96 0.0 0 0 20.72 271.99
  L 21.71 281.68
  A 0.96 0.96 0.0 0 0 22.67 282.54
  L 32.14 282.54
  Z
  M 58.11 278.62
  Q 58.13 279.20 58.23 280.59
  A 0.97 0.96 -78.3 0 0 58.74 281.38
  Q 61.27 282.70 62.96 282.94
  A 0.56 0.55 -88.2 0 0 63.58 282.35
  Q 63.43 280.30 63.33 278.25
  Q 63.30 277.67 63.21 276.28
  A 0.97 0.96 -78.3 0 0 62.70 275.49
  Q 60.17 274.17 58.48 273.93
  A 0.56 0.55 -88.2 0 0 57.86 274.52
  Q 58.01 276.58 58.11 278.62
  Z
  M 309.24 298.59
  L 336.27 298.59
  A 0.73 0.72 0.4 0 0 337.00 297.88
  Q 337.11 292.16 340.76 286.90
  A 0.48 0.48 0.0 0 0 340.42 286.15
  Q 335.28 285.48 330.50 283.30
  A 0.97 0.96 -53.6 0 0 329.46 283.46
  Q 319.90 292.19 309.17 298.30
  A 0.16 0.15 -59.2 0 0 309.24 298.59
  Z
  M 58.68 293.00
  Q 58.74 295.52 58.90 296.34
  A 1.43 1.41 5.7 0 0 59.77 297.40
  L 64.09 299.09
  A 0.40 0.40 0.0 0 0 64.64 298.69
  Q 64.42 295.71 64.35 292.88
  Q 64.30 290.35 64.14 289.53
  A 1.43 1.41 5.7 0 0 63.26 288.47
  L 58.94 286.78
  A 0.40 0.40 0.0 0 0 58.40 287.19
  Q 58.61 290.17 58.68 293.00
  Z
  M 32.72 287.25
  L 23.66 287.25
  A 0.21 0.21 0.0 0 0 23.46 287.52
  Q 25.33 293.11 29.77 296.49
  A 1.19 1.18 -67.1 0 0 31.66 295.72
  L 32.92 287.48
  A 0.20 0.20 0.0 0 0 32.72 287.25
  Z
  M 58.78 301.62
  Q 59.35 303.92 62.30 307.69
  A 0.90 0.90 0.0 0 0 63.81 307.54
  Q 64.39 306.40 64.78 304.29
  A 1.15 1.14 16.3 0 0 64.07 303.01
  L 59.32 301.14
  A 0.41 0.41 0.0 0 0 58.78 301.62
  Z"
/>
<path d="
  M 390.60 114.01
  A 1.99 1.98 -38.8 0 1 390.26 117.03
  L 390.24 117.05
  A 2.86 2.86 0.0 0 1 386.68 116.75
  Q 385.00 115.15 384.60 113.38
  C 382.78 105.35 384.82 94.20 393.20 90.69
  A 2.06 2.06 0.0 0 1 395.82 91.63
  L 395.89 91.76
  A 1.94 1.93 61.5 0 1 395.12 94.36
  Q 388.55 98.00 388.43 107.09
  Q 388.37 111.68 390.60 114.01
  Z"
/>
<path d="
  M 255.60 184.17
  A 0.35 0.35 0.0 0 0 255.38 184.61
  L 257.26 190.57
  A 1.57 1.56 72.4 0 1 256.25 192.53
  L 255.94 192.63
  A 2.37 2.36 68.2 0 1 252.99 191.36
  Q 250.25 185.24 250.09 183.47
  Q 249.88 181.15 252.46 180.35
  Q 257.67 178.74 262.62 176.83
  A 1.93 1.93 0.0 0 1 265.18 178.16
  L 265.21 178.23
  A 2.42 2.42 0.0 0 1 263.73 181.30
  L 255.60 184.17
  Z"
/>
<rect x="-2.31" y="-11.78" transform="translate(268.46,187.90) rotate(40.8)" width="4.62" height="23.56" rx="2.27"/>
<path d="
  M 282.56 191.52
  L 278.97 186.49
  A 2.22 2.22 0.0 0 1 279.41 183.45
  L 279.63 183.28
  A 2.00 2.00 0.0 0 1 282.52 183.68
  Q 285.20 187.47 287.08 190.71
  C 289.23 194.43 286.59 195.89 283.20 196.68
  Q 276.65 198.20 274.23 198.86
  A 1.92 1.91 -11.5 0 1 271.82 197.27
  L 271.82 197.25
  A 2.37 2.37 0.0 0 1 273.56 194.56
  L 282.29 192.26
  A 0.48 0.48 0.0 0 0 282.56 191.52
  Z"
/>
<circle cx="304.92" cy="250.77" r="3.59"/>
</g>
<g fill="#fffffc">
<path d="
  M 244.07 123.42
  A 0.14 0.14 0.0 0 1 244.30 123.27
  C 258.57 138.83 281.44 146.78 301.98 145.55
  C 334.83 143.58 362.45 120.06 365.37 86.45
  C 367.75 59.09 350.76 36.93 325.36 28.14
  C 305.34 21.20 281.16 21.04 262.24 31.73
  A 0.25 0.25 0.0 0 1 261.95 31.33
  Q 285.42 10.38 315.32 8.32
  C 361.03 5.17 398.78 37.48 403.44 82.86
  A 0.15 0.15 0.0 0 1 403.17 82.96
  Q 397.21 74.55 386.93 76.43
  C 379.75 77.75 373.92 83.92 371.24 90.48
  Q 366.72 101.52 368.86 113.42
  C 371.07 125.68 380.59 135.00 393.55 128.69
  A 0.17 0.17 0.0 0 1 393.77 128.93
  Q 378.40 154.39 348.94 161.20
  Q 325.63 166.58 302.86 162.48
  C 276.93 157.80 255.96 146.92 244.07 123.42
  Z"
/>
<path d="
  M 246.06 143.36
  A 0.26 0.26 0.0 0 1 246.27 143.82
  Q 229.07 158.90 216.97 177.60
  A 0.25 0.24 47.2 0 1 216.55 177.58
  Q 210.90 166.94 199.38 163.15
  A 2.87 2.87 0.0 0 0 195.79 164.88
  L 195.71 165.09
  A 2.74 2.73 20.9 0 0 197.28 168.58
  Q 206.99 172.37 211.41 180.99
  A 0.28 0.27 -0.2 0 1 211.04 181.36
  Q 204.95 178.30 198.12 178.64
  C 184.52 179.33 173.67 190.32 169.61 202.87
  A 0.44 0.43 -47.4 0 1 168.79 202.91
  C 163.69 190.45 175.75 174.87 185.34 167.51
  C 202.41 154.40 224.71 146.30 246.06 143.36
  Z"
/>
<path d="
  M 327.64 171.09
  A 0.21 0.21 0.0 0 1 327.83 171.41
  C 322.20 180.45 318.35 192.11 318.11 202.77
  Q 317.39 234.03 346.06 250.16
  A 0.27 0.27 0.0 0 1 346.16 250.54
  L 340.23 260.82
  A 0.52 0.52 0.0 0 1 339.52 261.01
  L 325.81 253.09
  A 1.03 1.02 -69.8 0 1 325.32 252.02
  C 327.34 241.52 323.69 235.40 313.79 231.71
  Q 302.73 227.60 296.64 225.63
  Q 289.70 223.39 285.73 223.93
  C 281.55 224.51 278.93 228.20 276.99 231.48
  A 0.77 0.76 26.0 0 1 276.06 231.80
  L 261.26 225.98
  A 0.87 0.86 10.0 0 1 260.71 225.21
  C 260.54 220.46 256.79 219.66 252.25 218.12
  Q 239.79 213.89 239.24 213.68
  A 0.90 0.89 8.0 0 1 238.67 212.93
  C 238.32 208.80 237.63 206.03 235.99 202.89
  A 0.41 0.41 0.0 0 1 236.47 202.30
  Q 254.08 207.56 275.84 213.83
  C 281.09 215.35 283.92 216.83 287.51 213.95
  Q 288.92 212.81 290.52 210.13
  Q 296.90 199.47 306.08 184.31
  C 309.80 178.18 305.55 176.17 300.18 174.61
  Q 284.21 169.96 257.22 161.59
  C 251.25 159.74 249.38 163.75 246.52 168.70
  Q 238.02 183.40 231.61 194.69
  A 0.63 0.63 0.0 0 1 230.61 194.81
  Q 225.82 189.81 220.31 186.80
  A 0.53 0.51 30.5 0 1 220.11 186.07
  Q 233.17 164.77 252.18 148.03
  A 0.58 0.57 -43.0 0 1 252.95 148.05
  C 262.63 157.56 276.25 163.56 289.39 166.86
  Q 308.52 171.66 327.64 171.09
  Z"
/>
<path d="
  M 414.58 264.01
  A 0.37 0.37 0.0 0 1 414.01 264.21
  C 409.72 261.09 403.71 256.52 398.61 255.46
  C 390.93 253.86 380.97 253.21 374.22 257.71
  A 0.42 0.41 -15.7 0 1 373.57 257.35
  Q 373.98 247.40 372.32 238.26
  A 1.02 1.02 0.0 0 1 372.84 237.18
  Q 382.32 232.08 393.63 232.39
  A 2.81 2.80 -0.7 0 0 396.51 229.45
  L 396.50 229.26
  A 3.04 3.04 0.0 0 0 393.53 226.36
  Q 381.21 226.08 371.35 231.18
  A 0.66 0.65 -26.6 0 1 370.46 230.89
  C 368.50 226.97 367.54 222.99 365.84 219.60
  Q 363.90 215.74 356.36 199.25
  A 3.01 3.01 0.0 0 0 352.21 197.85
  L 352.09 197.92
  A 3.74 3.74 0.0 0 0 350.54 202.74
  L 360.63 224.58
  A 1.43 1.41 45.8 0 1 360.62 225.77
  L 358.04 231.23
  A 0.67 0.66 -60.4 0 1 357.07 231.50
  C 341.69 221.16 338.54 203.14 345.90 186.67
  C 350.71 175.92 361.18 163.59 372.96 159.70
  C 375.33 158.91 380.59 161.80 381.72 162.62
  Q 390.20 168.85 395.51 178.11
  C 409.52 202.51 417.76 231.00 415.39 259.07
  Q 415.15 262.03 414.58 264.01
  Z"
/>
<path d="
  M 238.83 195.20
  L 254.40 168.21
  A 0.53 0.53 0.0 0 1 255.01 167.97
  L 299.10 181.09
  A 0.53 0.53 0.0 0 1 299.40 181.86
  L 283.83 208.85
  A 0.53 0.53 0.0 0 1 283.22 209.09
  L 239.13 195.97
  A 0.53 0.53 0.0 0 1 238.83 195.20
  Z
  M 255.60 184.17
  L 263.73 181.30
  A 2.42 2.42 0.0 0 0 265.21 178.23
  L 265.18 178.16
  A 1.93 1.93 0.0 0 0 262.62 176.83
  Q 257.67 178.74 252.46 180.35
  Q 249.88 181.15 250.09 183.47
  Q 250.25 185.24 252.99 191.36
  A 2.37 2.36 68.2 0 0 255.94 192.63
  L 256.25 192.53
  A 1.57 1.56 72.4 0 0 257.26 190.57
  L 255.38 184.61
  A 0.35 0.35 0.0 0 1 255.60 184.17
  Z
  M 276.4227 182.2104
  A 2.27 2.27 0.0 0 0 276.1876 179.0087
  L 276.1270 178.9565
  A 2.27 2.27 0.0 0 0 272.9254 179.1916
  L 260.4973 193.5896
  A 2.27 2.27 0.0 0 0 260.7324 196.7913
  L 260.7930 196.8435
  A 2.27 2.27 0.0 0 0 263.9946 196.6084
  L 276.4227 182.2104
  Z
  M 282.29 192.26
  L 273.56 194.56
  A 2.37 2.37 0.0 0 0 271.82 197.25
  L 271.82 197.27
  A 1.92 1.91 -11.5 0 0 274.23 198.86
  Q 276.65 198.20 283.20 196.68
  C 286.59 195.89 289.23 194.43 287.08 190.71
  Q 285.20 187.47 282.52 183.68
  A 2.00 2.00 0.0 0 0 279.63 183.28
  L 279.41 183.45
  A 2.22 2.22 0.0 0 0 278.97 186.49
  L 282.56 191.52
  A 0.48 0.48 0.0 0 1 282.29 192.26
  Z"
/>
<path d="
  M 151.11 198.40
  Q 166.69 211.28 171.03 215.88
  Q 176.63 221.81 177.18 222.37
  A 4.63 4.61 15.6 0 1 178.37 224.47
  Q 179.91 230.43 184.07 234.91
  A 0.24 0.24 0.0 0 1 183.92 235.31
  L 137.52 240.08
  A 0.24 0.24 0.0 0 1 137.27 239.75
  L 140.61 231.78
  A 3.04 3.03 -69.3 0 0 138.79 227.74
  L 138.51 227.64
  A 3.07 3.06 -70.9 0 0 134.83 229.43
  C 132.90 234.13 131.74 237.80 129.24 240.53
  A 4.05 4.01 -84.2 0 1 128.11 241.46
  L 117.00 247.49
  A 0.61 0.60 60.1 0 1 116.20 247.27
  Q 114.28 244.11 113.36 242.65
  Q 103.37 226.87 86.22 220.03
  A 0.27 0.26 -64.7 0 1 86.09 219.66
  L 89.55 213.67
  A 0.55 0.54 -62.4 0 1 90.24 213.45
  Q 99.49 217.59 107.40 224.51
  Q 110.45 227.18 113.34 223.99
  C 119.54 217.16 124.28 211.94 132.19 209.93
  C 136.42 208.85 144.36 209.49 147.49 209.73
  C 153.42 210.18 151.61 202.47 150.66 198.68
  A 0.28 0.28 0.0 0 1 151.11 198.40
  Z"
/>
<path d="
  M 164.26 295.32
  L 165.42 292.75
  A 2.73 2.72 -68.2 0 0 163.84 289.06
  L 163.64 288.99
  A 3.21 3.20 -63.9 0 0 159.64 290.36
  C 157.27 294.52 154.77 296.13 149.78 297.39
  Q 133.91 301.42 120.78 303.51
  A 0.35 0.35 0.0 0 1 120.40 303.04
  Q 122.83 296.92 122.59 290.04
  C 122.19 278.89 120.20 268.17 114.59 258.41
  A 0.42 0.42 0.0 0 1 114.71 257.85
  L 117.15 256.10
  A 0.24 0.23 -35.1 0 1 117.47 256.15
  Q 123.27 264.44 126.00 274.25
  C 126.85 277.31 129.59 277.28 132.38 276.11
  Q 143.29 271.55 156.01 270.71
  Q 159.80 270.46 168.57 270.70
  C 172.79 270.81 175.71 269.90 175.63 265.25
  Q 175.43 253.51 169.52 244.06
  A 0.36 0.35 -18.8 0 1 169.79 243.52
  L 202.29 240.18
  A 1.38 1.25 48.0 0 1 202.77 240.23
  Q 209.99 242.30 215.04 236.01
  A 0.93 0.91 -66.3 0 1 215.88 235.67
  Q 218.02 235.99 220.67 235.41
  A 1.22 1.22 0.0 0 1 221.79 235.74
  L 222.78 236.70
  A 4.24 4.24 0.0 0 0 224.18 237.60
  L 244.06 245.41
  A 3.46 3.44 -33.9 0 0 245.35 245.66
  L 249.92 245.66
  A 0.58 0.55 -32.6 0 1 250.13 245.70
  L 266.61 252.17
  A 0.52 0.51 18.5 0 1 266.92 252.78
  C 265.38 258.50 263.17 264.02 264.24 268.14
  Q 265.57 273.25 269.87 275.39
  Q 280.44 280.65 295.46 285.17
  Q 299.99 286.54 302.71 286.02
  C 308.33 284.97 311.91 279.38 314.05 274.38
  A 0.62 0.62 0.0 0 1 314.93 274.09
  L 323.55 279.06
  A 0.36 0.36 0.0 0 1 323.61 279.64
  Q 302.77 298.37 274.25 302.08
  Q 252.67 304.89 231.24 302.47
  Q 222.10 301.44 196.25 297.78
  Q 183.61 295.99 164.64 295.91
  A 0.42 0.42 0.0 0 1 164.26 295.32
  Z"
/>
<path d="
  M 309.24 298.59
  A 0.16 0.15 -59.2 0 1 309.17 298.30
  Q 319.90 292.19 329.46 283.46
  A 0.97 0.96 -53.6 0 1 330.50 283.30
  Q 335.28 285.48 340.42 286.15
  A 0.48 0.48 0.0 0 1 340.76 286.90
  Q 337.11 292.16 337.00 297.88
  A 0.73 0.72 0.4 0 1 336.27 298.59
  L 309.24 298.59
  Z"
/>
</g>
<g fill="#49a4e6">
<path d="
  M 392.62 83.22
  C 400.34 84.60 403.04 93.87 402.46 100.78
  Q 401.65 110.44 397.16 117.44
  Q 391.81 125.78 385.19 124.60
  Q 378.58 123.41 376.46 113.73
  Q 374.68 105.60 377.28 96.26
  C 379.14 89.59 384.89 81.83 392.62 83.22
  Z
  M 390.60 114.01
  Q 388.37 111.68 388.43 107.09
  Q 388.55 98.00 395.12 94.36
  A 1.94 1.93 61.5 0 0 395.89 91.76
  L 395.82 91.63
  A 2.06 2.06 0.0 0 0 393.20 90.69
  C 384.82 94.20 382.78 105.35 384.60 113.38
  Q 385.00 115.15 386.68 116.75
  A 2.86 2.86 0.0 0 0 390.24 117.05
  L 390.26 117.03
  A 1.99 1.98 -38.8 0 0 390.60 114.01
  Z"
/>
<path d="
  M 412.90 198.81
  Q 412.66 198.62 412.59 198.41
  Q 406.38 181.67 398.38 169.76
  A 4.08 4.07 33.2 0 1 397.75 166.77
  C 398.70 161.58 400.15 154.91 405.84 152.23
  A 2.06 1.87 25.9 0 1 406.28 152.10
  L 411.57 151.22
  A 2.03 2.03 0.0 0 0 412.84 147.97
  L 412.79 147.92
  A 4.75 4.74 -24.0 0 0 408.24 146.18
  Q 398.48 147.88 394.91 156.93
  Q 393.84 159.64 393.23 162.66
  A 0.39 0.39 0.0 0 1 392.58 162.86
  Q 387.45 157.76 381.12 154.48
  A 0.57 0.56 39.8 0 1 381.03 153.53
  Q 389.98 146.58 396.67 136.66
  A 1.72 1.72 0.0 0 1 398.60 135.97
  C 402.99 137.27 408.77 139.53 412.27 142.24
  Q 424.44 151.68 420.67 168.46
  Q 416.83 185.51 413.54 198.60
  A 0.40 0.40 0.0 0 1 412.90 198.81
  Z"
/>
<path d="
  M 349.49 168.40
  Q 345.56 173.39 343.65 176.30
  Q 336.69 186.91 335.56 199.29
  Q 333.34 223.60 353.51 237.29
  A 1.02 1.02 0.0 0 1 353.83 238.65
  L 350.70 244.08
  A 0.98 0.98 0.0 0 1 349.39 244.45
  Q 340.64 239.74 334.09 231.40
  C 320.41 214.01 323.73 190.32 335.30 172.81
  Q 336.32 171.27 337.25 170.45
  A 1.66 1.66 0.0 0 1 338.03 170.08
  L 349.28 168.06
  A 0.21 0.21 0.0 0 1 349.49 168.40
  Z"
/>
<path d="
  M 231.53 215.87
  L 229.56 219.29
  A 1.33 1.33 0.0 0 1 227.10 218.86
  Q 226.02 212.90 222.69 208.06
  C 221.42 206.22 219.17 202.98 216.56 205.23
  A 1.86 1.84 -37.1 0 0 216.21 207.65
  C 219.81 213.11 223.77 220.16 221.19 226.65
  C 219.87 229.99 215.87 230.08 215.23 226.27
  Q 213.93 218.58 208.66 213.39
  C 207.15 211.91 204.38 210.11 202.84 212.19
  A 2.42 2.22 -49.9 0 0 202.97 215.22
  C 207.15 219.36 210.27 223.52 210.23 229.43
  C 210.21 232.96 206.29 236.46 203.43 232.50
  Q 202.90 231.76 201.59 227.99
  Q 200.21 224.01 195.85 219.67
  A 3.90 3.88 53.8 0 0 191.33 218.96
  L 191.30 218.98
  A 2.10 2.09 -35.8 0 0 190.76 222.31
  Q 196.73 228.38 197.37 232.90
  A 1.36 1.36 0.0 0 1 196.02 234.46
  Q 193.93 234.46 192.04 232.94
  C 186.37 228.37 185.21 222.80 183.82 215.98
  Q 183.49 214.40 181.24 213.52
  C 176.00 211.49 175.73 207.82 177.44 202.93
  C 181.27 191.99 192.37 183.71 204.37 186.28
  A 1.12 1.11 88.7 0 1 205.23 187.11
  C 206.26 191.11 208.57 190.41 211.90 191.12
  C 221.44 193.16 231.29 203.17 232.17 212.99
  A 4.95 4.95 0.0 0 1 231.53 215.87
  Z"
/>
<path d="
  M 133.36 204.08
  C 123.65 205.82 116.09 212.00 110.14 219.51
  A 0.64 0.63 -48.5 0 1 109.20 219.57
  Q 102.78 213.25 93.99 209.44
  A 0.96 0.96 0.0 0 1 93.60 207.99
  C 100.90 198.05 111.14 188.86 123.84 187.90
  A 3.64 3.63 68.9 0 1 126.99 189.30
  Q 131.69 195.38 133.90 203.22
  A 0.69 0.69 0.0 0 1 133.36 204.08
  Z"
/>
<path d="
  M 132.66 189.22
  Q 138.16 190.19 142.85 194.25
  C 145.76 196.77 146.31 200.67 146.64 204.19
  A 0.71 0.71 0.0 0 1 145.83 204.95
  L 138.26 203.79
  A 0.80 0.79 -2.1 0 1 137.60 203.18
  C 136.62 198.83 134.66 194.34 132.14 189.95
  A 0.50 0.49 -9.7 0 1 132.66 189.22
  Z"
/>
<path d="
  M 47.08 294.56
  A 0.24 0.23 -83.9 0 1 46.82 294.23
  C 50.12 286.80 48.49 274.92 46.38 267.10
  Q 43.50 256.43 43.34 255.74
  Q 42.77 253.31 41.68 244.10
  Q 39.57 226.32 37.49 218.50
  C 35.71 211.82 33.73 205.93 30.72 201.18
  A 0.43 0.42 -12.2 0 1 31.14 200.53
  C 47.39 202.80 54.38 221.80 55.19 235.85
  A 3.77 3.72 58.2 0 1 54.73 237.87
  C 51.00 244.58 50.77 251.57 50.43 259.71
  Q 50.29 263.05 50.91 270.28
  Q 51.94 282.36 52.32 292.88
  A 0.62 0.62 0.0 0 1 51.83 293.51
  L 47.08 294.56
  Z"
/>
<path d="
  M 39.25 297.19
  L 36.94 297.91
  A 0.88 0.88 0.0 0 1 35.84 296.80
  Q 39.56 285.50 36.85 271.56
  C 35.45 264.36 32.98 256.89 32.42 250.10
  C 31.18 234.96 29.53 218.76 20.96 205.68
  A 2.11 2.11 0.0 0 1 22.09 202.51
  L 22.71 202.31
  A 3.91 3.91 0.0 0 1 27.41 204.34
  Q 33.90 217.79 35.81 232.70
  Q 37.62 246.86 37.80 248.70
  C 39.26 263.58 48.42 279.97 41.54 295.16
  A 3.78 3.75 3.2 0 1 39.25 297.19
  Z"
/>
<path d="
  M 20.55 216.60
  L 13.69 216.60
  A 0.51 0.51 0.0 0 1 13.21 215.90
  L 15.50 210.06
  A 0.75 0.75 0.0 0 1 16.81 209.90
  L 20.99 215.75
  A 0.54 0.54 0.0 0 1 20.55 216.60
  Z"
/>
<path d="
  M 246.02 238.99
  A 0.65 0.65 0.0 0 1 245.21 239.30
  L 227.55 232.36
  A 0.73 0.72 -71.0 0 1 227.12 231.47
  L 228.12 228.09
  A 1.75 1.72 88.4 0 1 229.17 226.96
  Q 234.60 224.91 236.83 219.58
  A 0.84 0.84 0.0 0 1 237.91 219.13
  L 252.93 225.02
  A 0.33 0.32 25.1 0 1 253.10 225.47
  L 246.02 238.99
  Z"
/>
<path d="
  M 13.06 230.64
  L 13.06 222.01
  A 0.61 0.61 0.0 0 1 13.67 221.40
  L 22.39 221.40
  A 0.61 0.61 0.0 0 1 22.99 221.88
  L 24.89 230.51
  A 0.61 0.61 0.0 0 1 24.29 231.25
  L 13.67 231.25
  A 0.61 0.61 0.0 0 1 13.06 230.64
  Z"
/>
<path d="
  M 75.96 235.12
  A 0.43 0.42 23.9 0 1 75.72 234.50
  L 80.31 226.54
  A 1.91 1.90 -67.9 0 1 82.41 225.65
  Q 85.30 226.35 88.86 228.14
  Q 104.09 235.79 111.52 250.92
  A 1.40 1.40 0.0 0 1 110.56 252.91
  L 96.50 256.00
  A 0.75 0.74 70.4 0 1 95.67 255.60
  C 91.21 246.56 86.03 238.27 75.96 235.12
  Z"
/>
<path d="
  M 286.33 230.34
  Q 288.46 229.39 288.98 231.49
  C 290.37 237.13 284.39 243.19 286.10 250.04
  A 4.60 4.58 50.7 0 1 285.80 253.09
  L 278.70 268.13
  A 3.75 3.74 32.2 0 1 272.94 269.43
  L 272.54 269.10
  A 6.18 6.16 -59.2 0 1 270.80 262.17
  Q 276.79 246.85 278.34 243.36
  C 279.74 240.23 283.46 231.64 286.33 230.34
  Z"
/>
<path d="
  M 273.75 237.95
  L 269.82 246.26
  A 0.81 0.81 0.0 0 1 268.80 246.66
  L 253.25 240.56
  A 0.81 0.81 0.0 0 1 252.81 239.46
  L 256.74 231.15
  A 0.81 0.81 0.0 0 1 257.76 230.75
  L 273.31 236.85
  A 0.81 0.81 0.0 0 1 273.75 237.95
  Z"
/>
<path d="
  M 294.22 231.17
  Q 297.51 232.17 307.62 235.92
  C 311.99 237.54 317.14 239.06 319.01 243.80
  C 320.36 247.21 318.35 252.91 316.57 255.58
  C 315.43 257.28 313.71 258.09 311.52 258.21
  Q 303.11 258.65 296.72 253.15
  C 293.11 250.05 289.48 247.21 291.93 241.64
  Q 294.17 236.55 293.62 231.67
  A 0.47 0.47 0.0 0 1 294.22 231.17
  Z
  M 308.51 250.77
  A 3.59 3.59 0.0 0 0 304.92 247.18
  A 3.59 3.59 0.0 0 0 301.33 250.77
  A 3.59 3.59 0.0 0 0 304.92 254.36
  A 3.59 3.59 0.0 0 0 308.51 250.77
  Z"
/>
<path d="
  M 364.89 234.01
  Q 368.40 250.65 365.67 267.99
  A 1.72 1.70 85.8 0 1 364.52 269.34
  Q 357.71 271.55 351.53 276.45
  Q 350.58 277.20 347.02 277.10
  Q 340.87 276.92 337.32 276.16
  A 0.33 0.33 0.0 0 1 337.13 275.63
  Q 352.80 257.15 363.88 233.89
  A 0.54 0.54 0.0 0 1 364.89 234.01
  Z"
/>
<path d="
  M 15.02 246.22
  L 14.05 236.75
  A 0.76 0.76 0.0 0 1 14.80 235.91
  L 25.12 235.91
  A 0.76 0.76 0.0 0 1 25.88 236.59
  L 26.85 246.06
  A 0.76 0.76 0.0 0 1 26.10 246.90
  L 15.78 246.90
  A 0.76 0.76 0.0 0 1 15.02 246.22
  Z"
/>
<path d="
  M 68.44 308.79
  Q 69.76 304.28 69.27 297.00
  Q 68.28 282.25 67.69 270.50
  Q 67.14 259.64 64.88 249.84
  Q 63.88 245.49 61.91 242.27
  A 1.77 1.77 0.0 0 1 63.42 239.58
  L 64.12 239.58
  A 4.43 4.40 76.7 0 1 68.07 242.04
  C 73.59 253.19 74.40 268.32 73.84 280.59
  Q 73.58 286.35 73.85 290.92
  C 74.22 296.95 74.73 302.73 73.52 308.25
  A 1.12 1.11 -5.9 0 1 72.87 309.04
  Q 70.67 309.95 68.89 309.55
  A 0.61 0.60 14.9 0 1 68.44 308.79
  Z"
/>
<path d="
  M 78.32 308.08
  Q 79.04 302.96 78.45 294.57
  C 77.30 278.18 81.40 256.88 71.90 240.52
  A 0.47 0.47 0.0 0 1 72.39 239.82
  C 81.33 241.47 87.76 250.04 90.71 258.33
  Q 93.49 266.17 92.65 274.89
  A 2.92 2.92 0.0 0 0 94.77 277.98
  L 94.94 278.03
  A 2.01 2.01 0.0 0 0 97.49 276.29
  Q 98.28 268.36 97.28 262.82
  A 0.63 0.63 0.0 0 1 97.77 262.08
  L 107.13 260.02
  A 2.28 2.27 -19.8 0 1 109.65 261.20
  Q 117.09 275.58 116.62 292.22
  Q 116.44 298.44 114.30 303.27
  Q 113.44 305.21 111.52 305.27
  Q 94.97 305.77 86.60 307.36
  Q 79.30 308.76 78.86 308.74
  A 0.58 0.57 -84.5 0 1 78.32 308.08
  Z"
/>
<path d="
  M 154.87 245.33
  A 0.11 0.11 0.0 0 1 154.95 245.16
  L 163.09 244.32
  A 0.53 0.52 -18.1 0 1 163.59 244.57
  Q 169.63 254.22 170.36 265.07
  A 0.66 0.66 0.0 0 1 169.70 265.78
  L 161.44 265.78
  A 0.94 0.94 0.0 0 1 160.50 264.82
  Q 160.66 254.41 154.87 245.33
  Z"
/>
<path d="
  M 131.63 270.78
  A 0.40 0.40 0.0 0 1 131.10 270.53
  Q 127.97 260.73 122.28 252.73
  A 0.58 0.58 0.0 0 1 122.48 251.89
  C 130.51 247.57 139.74 246.11 148.69 245.77
  A 2.22 2.20 73.0 0 1 150.66 246.83
  Q 155.76 255.25 156.28 264.93
  A 0.60 0.59 87.6 0 1 155.71 265.56
  Q 143.28 266.15 131.63 270.78
  Z"
/>
<path d="
  M 58.85 247.10
  L 61.23 254.63
  A 0.53 0.53 0.0 0 1 60.58 255.30
  L 57.57 254.41
  A 1.04 1.04 0.0 0 1 56.84 253.26
  L 57.77 247.18
  A 0.56 0.55 40.7 0 1 58.85 247.10
  Z"
/>
<path d="
  M 16.84 251.50
  L 27.05 251.50
  A 0.33 0.33 0.0 0 1 27.38 251.76
  L 30.47 265.82
  A 0.33 0.33 0.0 0 1 30.15 266.22
  L 21.28 266.22
  A 0.33 0.33 0.0 0 1 20.97 265.99
  L 16.53 251.93
  A 0.33 0.33 0.0 0 1 16.84 251.50
  Z"
/>
<path d="
  M 311.18 264.93
  Q 309.13 271.21 304.67 277.36
  A 3.78 3.77 -71.0 0 1 301.48 278.92
  Q 299.07 278.83 296.06 277.93
  Q 289.05 275.85 281.93 273.06
  A 0.34 0.34 0.0 0 1 281.75 272.60
  L 290.05 255.01
  A 0.42 0.41 -53.1 0 1 290.73 254.91
  C 295.95 260.76 301.94 264.12 310.66 264.22
  A 0.55 0.55 0.0 0 1 311.18 264.93
  Z"
/>
<path d="
  M 335.37 265.67
  A 0.30 0.30 0.0 0 1 335.46 266.08
  L 332.37 270.90
  A 6.20 2.56 -57.3 0 1 326.86 274.73
  L 318.30 269.23
  A 6.20 2.56 -57.3 0 1 319.49 262.63
  L 322.58 257.82
  A 0.30 0.30 0.0 0 1 323.00 257.73
  L 335.37 265.67
  Z"
/>
<path d="
  M 63.09 270.41
  A 0.27 0.27 0.0 0 1 62.72 270.69
  L 57.68 268.70
  A 0.39 0.38 -83.8 0 1 57.44 268.39
  L 56.56 259.80
  A 0.73 0.72 -84.4 0 1 57.49 259.03
  L 61.29 260.16
  A 1.21 1.18 -85.3 0 1 62.14 261.18
  L 63.09 270.41
  Z"
/>
<path d="
  M 373.40 267.70
  Q 376.75 262.15 381.83 261.10
  Q 398.85 257.56 411.72 270.77
  C 415.18 274.33 411.68 282.30 410.21 285.97
  A 7.85 7.84 -32.1 0 0 409.68 288.27
  C 409.26 294.29 408.28 297.64 403.00 301.20
  C 400.19 303.10 395.14 303.83 392.63 305.65
  C 389.32 308.07 385.04 311.70 380.77 310.50
  A 1.62 1.61 -72.8 0 1 379.68 308.42
  C 381.43 303.28 385.51 299.63 389.78 296.56
  Q 390.93 295.73 390.58 294.49
  A 2.59 2.50 77.0 0 0 387.72 292.63
  C 381.94 293.66 376.30 300.60 374.41 305.44
  A 5.15 5.14 -79.3 0 1 369.62 308.71
  L 369.18 308.71
  A 2.50 2.50 0.0 0 1 366.77 305.54
  C 368.38 299.78 371.47 295.78 376.13 292.65
  A 2.17 2.17 0.0 0 0 376.66 289.56
  C 374.42 286.56 370.79 289.65 368.60 291.61
  Q 363.16 296.48 361.58 302.31
  A 4.95 4.95 0.0 0 1 356.35 305.94
  L 355.97 305.91
  A 3.24 3.23 -78.4 0 1 353.19 301.69
  Q 355.97 293.07 363.04 288.85
  A 2.42 2.15 62.3 0 0 363.78 285.86
  C 362.24 282.60 358.54 285.22 356.50 286.78
  Q 350.20 291.58 347.95 299.39
  C 347.44 301.16 346.25 302.36 344.46 301.09
  C 342.16 299.45 343.88 294.87 344.85 292.84
  Q 348.26 285.73 355.36 281.35
  Q 361.50 277.56 363.37 276.62
  Q 365.76 275.42 373.71 273.72
  C 375.67 273.30 376.34 270.65 374.68 269.40
  Q 374.03 268.91 373.61 268.63
  A 0.69 0.69 0.0 0 1 373.40 267.70
  Z"
/>
<path d="
  M 32.14 282.54
  L 22.67 282.54
  A 0.96 0.96 0.0 0 1 21.71 281.68
  L 20.72 271.99
  A 0.96 0.96 0.0 0 1 21.67 270.93
  L 31.13 270.93
  A 0.96 0.96 0.0 0 1 32.09 271.79
  L 33.09 281.48
  A 0.96 0.96 0.0 0 1 32.14 282.54
  Z"
/>
<path d="
  M 63.33 278.25
  Q 63.43 280.30 63.58 282.35
  A 0.56 0.55 -88.2 0 1 62.96 282.94
  Q 61.27 282.70 58.74 281.38
  A 0.97 0.96 -78.3 0 1 58.23 280.59
  Q 58.13 279.20 58.11 278.62
  Q 58.01 276.58 57.86 274.52
  A 0.56 0.55 -88.2 0 1 58.48 273.93
  Q 60.17 274.17 62.70 275.49
  A 0.97 0.96 -78.3 0 1 63.21 276.28
  Q 63.30 277.67 63.33 278.25
  Z"
/>
<path d="
  M 58.68 293.00
  Q 58.61 290.17 58.40 287.19
  A 0.40 0.40 0.0 0 1 58.94 286.78
  L 63.26 288.47
  A 1.43 1.41 5.7 0 1 64.14 289.53
  Q 64.30 290.35 64.35 292.88
  Q 64.42 295.71 64.64 298.69
  A 0.40 0.40 0.0 0 1 64.09 299.09
  L 59.77 297.40
  A 1.43 1.41 5.7 0 1 58.90 296.34
  Q 58.74 295.52 58.68 293.00
  Z"
/>
<path d="
  M 32.92 287.48
  L 31.66 295.72
  A 1.19 1.18 -67.1 0 1 29.77 296.49
  Q 25.33 293.11 23.46 287.52
  A 0.21 0.21 0.0 0 1 23.66 287.25
  L 32.72 287.25
  A 0.20 0.20 0.0 0 1 32.92 287.48
  Z"
/>
<path d="
  M 59.32 301.14
  L 64.07 303.01
  A 1.15 1.14 16.3 0 1 64.78 304.29
  Q 64.39 306.40 63.81 307.54
  A 0.90 0.90 0.0 0 1 62.30 307.69
  Q 59.35 303.92 58.78 301.62
  A 0.41 0.41 0.0 0 1 59.32 301.14
  Z"
/>
</g>
<path fill="#ff8c3a" d="
  M 311.50 69.39
  Q 312.08 76.77 316.07 82.17
  A 2.75 2.74 -54.0 0 1 316.46 84.68
  L 314.71 89.88
  A 1.96 1.96 0.0 0 0 315.89 92.35
  L 316.00 92.40
  A 1.97 1.97 0.0 0 0 318.62 91.25
  L 321.14 84.23
  A 3.26 3.25 -53.0 0 0 320.73 81.25
  Q 318.81 78.53 317.55 76.05
  Q 314.37 69.80 317.43 64.23
  Q 318.13 62.97 316.90 60.68
  A 3.40 3.34 31.5 0 1 316.51 59.11
  L 316.51 50.48
  A 1.97 1.94 65.2 0 1 316.96 49.23
  L 327.34 36.77
  A 0.61 0.61 0.0 0 1 328.07 36.60
  C 344.52 44.35 356.50 58.27 358.25 76.68
  C 360.32 98.42 349.26 118.85 330.52 130.08
  C 309.15 142.89 281.82 141.42 260.71 128.32
  C 242.20 116.83 235.10 98.29 238.02 77.03
  C 240.41 59.62 251.23 45.02 266.74 36.99
  C 283.25 28.43 303.71 28.33 321.46 34.04
  A 0.32 0.32 0.0 0 1 321.60 34.56
  Q 315.21 41.76 311.04 46.26
  Q 310.41 46.95 310.47 48.63
  C 310.63 52.48 310.31 56.85 309.95 62.74
  A 1.42 1.40 74.0 0 1 309.37 63.80
  L 299.86 70.59
  A 3.34 3.29 -6.1 0 0 298.80 71.88
  C 295.60 78.97 293.18 83.92 288.80 89.90
  A 1.59 1.59 0.0 0 0 289.62 92.35
  L 289.66 92.36
  A 2.92 2.91 -64.1 0 0 292.88 91.24
  Q 298.05 83.82 301.45 76.19
  A 2.72 2.64 85.0 0 1 302.34 75.10
  L 310.80 69.06
  A 0.45 0.44 69.9 0 1 311.50 69.39
  Z"
/>
</svg>
