<?xml version="1.0" encoding="UTF-8" standalone="no"?>
<!DOCTYPE svg PUBLIC "-//W3C//DTD SVG 1.1//EN" "http://www.w3.org/Graphics/SVG/1.1/DTD/svg11.dtd">
<svg xmlns="http://www.w3.org/2000/svg" version="1.1" viewBox="0.00 0.00 435.00 318.00">
<g stroke-width="2.00" fill="none" stroke-linecap="butt">
<path stroke="#80a7c5" vector-effect="non-scaling-stroke" d="
  M 244.09 123.39
  C 256.08 147.07 276.77 157.62 302.89 162.54
  Q 322.40 166.21 344.99 162.06
  Q 377.06 156.18 393.75 129.08
  A 0.23 0.23 0.0 0 0 393.45 128.75
  Q 384.93 132.79 377.77 128.44
  C 370.66 124.11 368.13 114.16 368.19 106.01
  C 368.26 95.86 371.59 85.30 379.94 79.41
  C 387.66 73.98 397.51 75.02 403.17 82.96
  A 0.14 0.14 0.0 0 0 403.43 82.87
  C 400.91 57.83 388.13 35.58 367.27 21.75
  C 334.68 0.16 290.45 4.74 261.98 31.40
  A 0.21 0.21 0.0 0 0 262.23 31.74
  Q 273.38 25.49 286.00 23.98
  C 304.10 21.82 325.07 25.10 340.33 35.52
  C 357.67 47.36 367.13 64.79 365.39 86.25
  C 363.73 106.66 352.26 124.85 334.66 135.54
  C 315.50 147.19 292.64 148.37 271.35 140.88
  Q 255.40 135.27 244.30 123.24
  A 0.13 0.13 0.0 0 0 244.09 123.39"
/>
<path stroke="#806d64" vector-effect="non-scaling-stroke" d="
  M 311.50 69.39
  A 0.45 0.45 0.0 0 0 310.79 69.06
  L 302.33 75.11
  A 2.76 2.69 84.9 0 0 301.45 76.19
  Q 298.05 83.82 292.88 91.24
  A 2.92 2.91 25.7 0 1 289.66 92.36
  L 289.63 92.35
  A 1.59 1.59 0.0 0 1 288.80 89.90
  C 293.19 83.90 295.59 78.99 298.80 71.88
  A 3.28 3.14 -6.9 0 1 299.86 70.59
  L 309.44 63.74
  A 1.38 1.37 -16.5 0 0 310.02 62.68
  L 310.63 47.41
  A 1.87 1.85 -23.5 0 1 311.11 46.22
  L 321.63 34.56
  A 0.31 0.31 0.0 0 0 321.50 34.05
  C 294.04 25.35 262.09 30.52 245.69 56.10
  C 239.71 65.44 237.16 76.29 237.37 87.19
  C 237.89 114.12 256.71 130.95 281.55 136.93
  Q 305.05 142.60 325.65 132.74
  C 342.46 124.70 355.19 108.72 357.87 89.89
  C 361.30 65.82 349.40 46.50 327.99 36.60
  A 0.53 0.53 0.0 0 0 327.36 36.74
  L 317.00 49.18
  A 1.97 1.94 65.2 0 0 316.55 50.43
  L 316.47 59.02
  A 3.63 3.62 -57.2 0 0 316.79 60.51
  C 317.70 62.50 318.10 63.22 316.98 65.27
  C 314.76 69.36 316.32 74.54 318.88 78.45
  Q 321.15 81.91 321.17 81.96
  A 4.11 4.07 -43.2 0 1 321.08 84.38
  L 318.64 91.24
  A 1.98 1.98 0.0 0 1 316.02 92.40
  L 315.91 92.35
  A 1.96 1.95 19.2 0 1 314.71 89.88
  L 316.46 84.68
  A 2.75 2.74 -54.0 0 0 316.07 82.17
  Q 312.07 76.77 311.50 69.39"
/>
<path stroke="#2579ba" vector-effect="non-scaling-stroke" d="
  M 385.19 124.60
  Q 391.82 125.78 397.15 117.44
  Q 402.22 109.51 402.51 99.04
  C 402.69 92.59 399.68 84.49 392.62 83.22
  C 385.55 81.95 379.91 88.51 377.84 94.61
  Q 374.47 104.53 376.47 113.73
  Q 378.57 123.41 385.19 124.60"
/>
<path stroke="#2579ba" vector-effect="non-scaling-stroke" d="
  M 412.90 198.81
  A 0.39 0.39 0.0 0 0 413.53 198.60
  Q 417.67 182.02 420.62 168.63
  C 424.58 150.63 414.97 140.41 398.24 135.93
  A 1.34 1.34 0.0 0 0 396.79 136.48
  Q 390.13 146.45 381.03 153.53
  A 0.57 0.57 0.0 0 0 381.12 154.48
  Q 387.45 157.77 392.55 162.84
  A 0.40 0.39 29.2 0 0 393.21 162.66
  C 395.23 154.26 398.53 148.22 407.41 146.35
  Q 411.43 145.50 413.03 148.39
  A 1.90 1.90 0.0 0 1 411.69 151.18
  L 406.04 152.16
  A 0.63 0.47 -53.3 0 0 405.84 152.22
  C 400.14 154.79 398.84 161.44 397.78 166.72
  A 4.09 4.05 33.9 0 0 398.40 169.81
  Q 406.40 181.70 412.59 198.43
  Q 412.66 198.61 412.90 198.81"
/>
<path stroke="#80a7c5" vector-effect="non-scaling-stroke" d="
  M 246.06 143.36
  C 224.40 146.37 203.02 154.31 185.48 167.41
  C 176.03 174.47 163.59 190.49 168.79 202.91
  A 0.44 0.44 0.0 0 0 169.62 202.87
  C 175.05 185.97 193.35 172.37 211.10 181.40
  A 0.19 0.19 0.0 0 0 211.36 181.16
  Q 208.30 173.43 197.00 168.34
  A 2.55 2.55 0.0 0 1 195.83 164.75
  L 195.90 164.62
  A 3.17 3.16 -65.1 0 1 199.74 163.21
  Q 211.32 167.44 216.54 177.58
  A 0.25 0.25 0.0 0 0 216.97 177.60
  Q 229.02 158.96 246.27 143.82
  A 0.26 0.26 0.0 0 0 246.06 143.36"
/>
<path stroke="#80a7c5" vector-effect="non-scaling-stroke" d="
  M 327.59 171.08
  Q 308.55 171.68 289.38 166.84
  C 275.96 163.46 262.95 157.62 252.94 148.04
  A 0.55 0.55 0.0 0 0 252.20 148.02
  Q 233.19 164.74 220.11 186.07
  A 0.52 0.52 0.0 0 0 220.30 186.79
  Q 225.66 189.72 230.63 194.81
  A 0.62 0.62 0.0 0 0 231.61 194.68
  Q 235.88 187.14 246.47 168.78
  C 249.54 163.46 251.28 159.73 257.56 161.67
  Q 289.57 171.59 302.08 175.20
  C 304.95 176.02 307.07 177.23 307.51 180.08
  Q 307.74 181.58 305.44 185.37
  Q 291.55 208.33 289.91 211.14
  Q 286.51 216.94 279.81 215.00
  Q 255.36 207.92 236.46 202.31
  A 0.38 0.38 0.0 0 0 236.01 202.84
  C 237.59 206.14 238.47 209.14 238.64 212.87
  A 0.93 0.91 -82.1 0 0 239.26 213.70
  Q 250.78 217.60 256.41 219.58
  Q 260.46 221.00 260.78 225.33
  A 0.74 0.74 0.0 0 0 261.26 225.98
  L 276.07 231.80
  A 0.77 0.76 26.1 0 0 277.00 231.49
  C 279.89 226.67 282.90 223.06 289.25 223.92
  Q 293.62 224.51 299.25 226.48
  Q 310.16 230.30 314.13 231.86
  C 324.15 235.80 327.30 241.95 325.32 252.02
  A 1.01 1.01 0.0 0 0 325.81 253.09
  L 339.52 261.01
  A 0.52 0.52 0.0 0 0 340.23 260.82
  L 346.21 250.46
  A 0.27 0.26 28.8 0 0 346.10 250.09
  C 336.39 245.13 327.37 236.39 322.80 226.59
  C 314.56 208.90 317.70 188.08 327.80 171.43
  A 0.24 0.23 14.7 0 0 327.59 171.08"
/>
<path stroke="#80a7c5" vector-effect="non-scaling-stroke" d="
  M 414.56 264.07
  Q 415.14 261.95 415.39 259.06
  C 417.18 238.62 413.09 217.62 405.57 198.89
  C 401.28 188.21 396.24 177.75 389.11 169.17
  Q 384.52 163.66 376.96 160.19
  C 374.60 159.10 372.56 159.51 370.47 160.62
  Q 351.97 170.36 344.64 189.91
  C 338.77 205.60 342.99 222.53 357.54 231.72
  A 0.21 0.21 0.0 0 0 357.84 231.63
  L 360.58 225.83
  A 1.56 1.55 45.7 0 0 360.59 224.50
  L 350.55 202.74
  A 3.73 3.73 0.0 0 1 352.09 197.93
  L 352.20 197.87
  A 3.00 3.00 0.0 0 1 356.36 199.25
  Q 364.05 216.07 365.84 219.60
  C 367.54 222.98 368.50 226.97 370.46 230.89
  A 0.66 0.65 -26.6 0 0 371.35 231.18
  Q 381.20 226.08 393.53 226.36
  A 3.04 3.04 0.0 0 1 396.50 229.26
  L 396.51 229.45
  A 2.81 2.80 89.5 0 1 393.63 232.39
  Q 382.51 232.08 373.01 237.08
  A 1.28 1.27 -18.6 0 0 372.34 238.43
  Q 374.02 247.92 373.56 257.34
  A 0.41 0.41 0.0 0 0 374.19 257.71
  Q 379.21 254.56 385.17 254.37
  C 391.18 254.17 398.95 254.51 404.11 257.63
  Q 409.46 260.87 414.05 264.24
  A 0.33 0.33 0.0 0 0 414.56 264.07"
/>
<path stroke="#80a7c5" vector-effect="non-scaling-stroke" d="
  M 238.83 195.20
  A 0.53 0.53 0.0 0 0 239.13 195.97
  L 283.22 209.09
  A 0.53 0.53 0.0 0 0 283.83 208.85
  L 299.40 181.86
  A 0.53 0.53 0.0 0 0 299.10 181.09
  L 255.01 167.97
  A 0.53 0.53 0.0 0 0 254.40 168.21
  L 238.83 195.20"
/>
<path stroke="#2579ba" vector-effect="non-scaling-stroke" d="
  M 349.09 167.87
  L 337.40 170.44
  A 1.15 1.13 -77.7 0 0 336.71 170.89
  C 324.01 188.11 319.98 213.22 333.88 231.13
  Q 340.53 239.70 349.46 244.49
  A 1.02 1.02 0.0 0 0 350.84 244.06
  L 353.77 238.49
  A 0.95 0.95 0.0 0 0 353.47 237.27
  Q 339.24 227.58 336.22 212.59
  C 333.01 196.61 338.61 180.76 349.52 168.62
  A 0.46 0.45 -75.1 0 0 349.09 167.87"
/>
<path stroke="#2579ba" vector-effect="non-scaling-stroke" d="
  M 231.00 217.22
  A 5.19 5.18 64.1 0 0 232.20 213.74
  C 231.95 205.55 226.06 198.72 219.37 194.35
  Q 214.84 191.39 209.07 190.65
  Q 205.84 190.24 205.37 187.45
  A 1.47 1.45 1.5 0 0 204.23 186.26
  C 190.70 183.39 179.16 194.00 176.42 206.72
  Q 176.06 208.42 177.82 211.35
  C 179.39 213.95 183.61 212.76 184.18 217.31
  C 185.02 224.11 188.50 232.82 195.51 234.47
  A 1.58 1.57 -2.4 0 0 197.37 232.45
  Q 195.44 226.58 191.06 222.76
  A 2.44 2.37 -52.9 0 1 190.67 219.62
  C 192.27 217.19 195.41 219.05 196.88 220.65
  Q 201.05 225.18 202.89 231.54
  Q 203.60 234.03 206.61 234.24
  A 1.73 1.72 29.9 0 0 207.69 233.95
  Q 210.73 231.86 210.20 227.71
  C 209.56 222.69 206.66 218.68 202.98 215.24
  A 2.42 2.17 -50.9 0 1 202.83 212.20
  C 204.52 209.87 207.66 212.29 209.17 213.89
  Q 213.93 218.92 215.18 226.03
  C 215.54 228.08 216.43 229.32 218.54 229.08
  C 220.88 228.83 221.85 225.43 221.95 223.46
  C 222.25 217.99 219.69 212.55 216.35 207.91
  A 2.08 1.99 52.2 0 1 216.64 205.15
  C 221.60 200.99 226.76 216.47 227.12 218.83
  A 1.17 1.17 0.0 0 0 229.18 219.40
  L 231.00 217.22"
/>
<path stroke="#2579ba" vector-effect="non-scaling-stroke" d="
  M 133.87 203.18
  Q 131.78 195.52 126.91 189.21
  A 3.27 3.26 -17.6 0 0 124.45 187.94
  Q 120.67 187.81 116.18 189.45
  C 106.86 192.86 99.86 200.01 93.60 207.94
  A 0.97 0.97 0.0 0 0 93.98 209.43
  Q 102.70 213.19 109.20 219.57
  A 0.62 0.62 0.0 0 0 110.11 219.52
  C 116.36 211.90 123.34 206.00 133.33 204.05
  A 0.70 0.69 77.0 0 0 133.87 203.18"
/>
<path stroke="#2579ba" vector-effect="non-scaling-stroke" d="
  M 132.14 189.84
  Q 132.35 190.45 134.49 194.36
  C 135.68 196.54 136.79 200.05 137.60 203.12
  A 0.85 0.85 0.0 0 0 138.28 203.74
  L 145.86 204.99
  A 0.78 0.78 0.0 0 0 146.75 204.05
  L 145.20 196.95
  A 1.26 1.21 18.9 0 0 144.93 196.43
  Q 139.72 190.42 132.63 189.26
  A 0.44 0.44 0.0 0 0 132.14 189.84"
/>
<path stroke="#80a7c5" vector-effect="non-scaling-stroke" d="
  M 150.67 198.68
  C 151.61 202.73 153.47 209.92 147.49 209.75
  Q 143.85 209.64 139.78 209.38
  C 127.29 208.57 121.10 215.66 113.28 224.03
  Q 110.40 227.12 107.39 224.50
  Q 99.50 217.61 90.24 213.44
  A 0.53 0.52 -63.1 0 0 89.56 213.67
  L 86.10 219.66
  A 0.26 0.25 -63.8 0 0 86.22 220.03
  Q 103.83 227.07 113.83 243.42
  Q 115.94 246.86 116.20 247.28
  A 0.58 0.58 0.0 0 0 116.96 247.48
  L 128.30 241.39
  A 0.97 0.95 8.7 0 0 128.55 241.21
  C 131.55 238.33 132.63 234.67 134.87 229.40
  A 3.07 3.07 0.0 0 1 138.57 227.66
  L 138.80 227.74
  A 3.04 3.04 0.0 0 1 140.61 231.79
  L 137.27 239.75
  A 0.24 0.24 0.0 0 0 137.52 240.08
  L 183.92 235.31
  A 0.24 0.24 0.0 0 0 184.07 234.91
  Q 179.91 230.43 178.37 224.47
  A 4.57 4.54 -74.9 0 0 177.18 222.38
  Q 176.67 221.86 171.03 215.88
  Q 166.67 211.26 151.12 198.40
  A 0.28 0.28 0.0 0 0 150.67 198.68"
/>
<path stroke="#2579ba" vector-effect="non-scaling-stroke" d="
  M 47.37 294.52
  L 51.82 293.54
  A 0.64 0.63 83.0 0 0 52.32 292.89
  Q 51.96 282.60 50.94 270.67
  Q 50.30 263.25 50.43 259.81
  C 50.73 251.48 51.03 244.44 54.84 237.65
  A 2.57 2.56 -28.1 0 0 55.14 236.67
  Q 55.23 235.83 54.96 233.28
  C 53.54 219.74 46.44 202.63 31.09 200.51
  A 0.36 0.36 0.0 0 0 30.72 201.04
  C 38.74 215.86 39.76 229.41 42.38 249.49
  C 43.35 256.96 45.32 262.51 47.26 270.98
  Q 50.18 283.81 46.94 294.05
  A 0.37 0.37 0.0 0 0 47.37 294.52"
/>
<path stroke="#2579ba" vector-effect="non-scaling-stroke" d="
  M 35.95 297.87
  Q 40.93 297.86 42.52 293.03
  C 47.46 278.00 39.21 263.20 37.68 248.10
  Q 37.00 241.38 35.58 231.20
  Q 33.65 217.40 27.45 204.39
  A 3.97 3.97 0.0 0 0 22.64 202.33
  L 22.05 202.52
  A 2.10 2.09 64.3 0 0 20.95 205.66
  C 29.48 218.66 31.17 234.79 32.39 249.80
  C 32.98 256.99 35.59 264.82 37.03 272.45
  Q 39.55 285.77 35.72 297.57
  A 0.24 0.23 8.8 0 0 35.95 297.87"
/>
<path stroke="#2579ba" vector-effect="non-scaling-stroke" d="
  M 21.00 215.80
  L 16.70 209.78
  A 0.66 0.66 0.0 0 0 15.55 209.92
  L 13.20 215.92
  A 0.50 0.50 0.0 0 0 13.66 216.60
  L 20.59 216.60
  A 0.51 0.50 -17.9 0 0 21.00 215.80"
/>
<path stroke="#2579ba" vector-effect="non-scaling-stroke" d="
  M 245.92 239.12
  L 253.19 225.31
  A 0.16 0.16 0.0 0 0 253.11 225.09
  L 237.92 219.13
  A 0.84 0.84 0.0 0 0 236.84 219.58
  Q 234.59 224.93 229.14 226.97
  A 1.68 1.67 88.2 0 0 228.13 228.05
  L 227.15 231.36
  A 0.85 0.85 0.0 0 0 227.66 232.40
  L 245.32 239.34
  A 0.48 0.48 0.0 0 0 245.92 239.12"
/>
<path stroke="#2579ba" vector-effect="non-scaling-stroke" d="
  M 13.06 230.64
  A 0.61 0.61 0.0 0 0 13.67 231.25
  L 24.28 231.25
  A 0.61 0.61 0.0 0 0 24.88 230.51
  L 22.99 221.89
  A 0.61 0.61 0.0 0 0 22.39 221.41
  L 13.67 221.41
  A 0.61 0.61 0.0 0 0 13.06 222.02
  L 13.06 230.64"
/>
<path stroke="#2579ba" vector-effect="non-scaling-stroke" d="
  M 75.94 235.07
  C 86.47 238.79 90.71 246.08 95.67 255.58
  A 0.79 0.79 0.0 0 0 96.54 255.99
  L 110.50 252.93
  A 1.46 1.46 0.0 0 0 111.49 250.86
  Q 104.05 235.77 88.86 228.14
  Q 85.31 226.36 82.41 225.65
  A 1.89 1.89 0.0 0 0 80.32 226.54
  L 75.72 234.50
  A 0.40 0.39 24.6 0 0 75.94 235.07"
/>
<path stroke="#2579ba" vector-effect="non-scaling-stroke" d="
  M 286.06 230.43
  C 282.95 232.86 280.55 238.58 278.65 242.64
  Q 277.39 245.33 270.77 262.29
  A 6.22 6.21 -59.3 0 0 272.56 269.32
  L 272.72 269.45
  A 4.04 4.04 0.0 0 0 278.88 267.95
  L 285.82 252.84
  A 4.37 4.36 -39.7 0 0 286.09 249.99
  C 284.42 243.20 290.42 236.57 289.01 231.41
  A 1.87 1.87 0.0 0 0 286.06 230.43"
/>
<path stroke="#2579ba" vector-effect="non-scaling-stroke" d="
  M 273.75 237.95
  A 0.81 0.81 0.0 0 0 273.31 236.85
  L 257.76 230.75
  A 0.81 0.81 0.0 0 0 256.74 231.15
  L 252.81 239.46
  A 0.81 0.81 0.0 0 0 253.25 240.56
  L 268.80 246.66
  A 0.81 0.81 0.0 0 0 269.82 246.26
  L 273.75 237.95"
/>
<path stroke="#2579ba" vector-effect="non-scaling-stroke" d="
  M 293.61 231.71
  Q 294.15 236.62 292.07 241.32
  Q 291.23 243.21 291.16 244.28
  Q 291.01 246.67 291.41 247.29
  Q 297.88 257.15 309.19 258.27
  C 315.77 258.92 317.59 254.96 319.03 249.53
  C 321.09 241.77 315.33 238.71 308.94 236.38
  Q 299.25 232.84 294.38 231.10
  A 0.58 0.58 0.0 0 0 293.61 231.71"
/>
<path stroke="#2579ba" vector-effect="non-scaling-stroke" d="
  M 364.89 234.01
  A 0.53 0.53 0.0 0 0 363.89 233.89
  Q 352.79 257.15 337.12 275.66
  A 0.32 0.31 -64.6 0 0 337.30 276.17
  C 339.61 276.63 349.43 278.08 351.65 276.34
  Q 357.80 271.52 364.52 269.33
  A 1.69 1.68 -4.6 0 0 365.67 267.99
  Q 368.40 250.65 364.89 234.01"
/>
<path stroke="#80a7c5" vector-effect="non-scaling-stroke" d="
  M 169.54 244.03
  Q 176.35 255.54 175.45 267.00
  C 175.23 269.82 172.24 270.74 169.63 270.69
  Q 159.49 270.48 156.01 270.71
  Q 143.28 271.55 132.32 276.14
  C 129.71 277.23 126.85 277.31 126.05 274.43
  Q 123.34 264.58 117.51 256.20
  A 0.29 0.28 54.1 0 0 117.11 256.13
  L 114.75 257.81
  A 0.49 0.49 0.0 0 0 114.61 258.45
  C 120.21 268.19 122.19 278.91 122.59 290.04
  Q 122.83 296.93 120.40 303.04
  A 0.35 0.35 0.0 0 0 120.78 303.52
  Q 135.11 301.18 150.91 297.11
  Q 156.94 295.56 159.57 290.48
  A 3.21 3.20 24.7 0 1 163.63 288.99
  L 163.93 289.11
  A 2.76 2.75 24.7 0 1 165.37 292.97
  L 164.36 294.90
  A 0.64 0.64 0.0 0 0 164.92 295.84
  Q 183.90 296.15 192.48 297.32
  Q 221.55 301.27 226.75 301.94
  Q 248.37 304.71 270.27 302.62
  Q 301.01 299.68 323.61 279.73
  A 0.56 0.55 -52.1 0 0 323.50 278.82
  L 314.75 274.21
  A 0.53 0.53 0.0 0 0 314.01 274.47
  C 311.89 279.33 308.46 284.73 303.18 285.91
  C 299.17 286.81 295.16 285.12 290.24 283.52
  Q 281.94 280.82 274.62 277.63
  Q 268.38 274.91 267.21 273.54
  Q 263.01 268.60 264.16 263.43
  Q 265.00 259.67 266.94 252.72
  A 0.43 0.43 0.0 0 0 266.68 252.20
  L 250.12 245.69
  A 0.64 0.54 -31.3 0 0 249.93 245.66
  L 245.32 245.66
  A 3.38 3.34 55.3 0 1 244.10 245.43
  L 224.18 237.60
  A 4.24 4.24 0.0 0 1 222.78 236.70
  L 221.79 235.74
  A 1.22 1.22 0.0 0 0 220.67 235.41
  Q 217.99 235.99 215.88 235.67
  A 0.93 0.90 22.8 0 0 215.04 236.00
  Q 210.00 242.33 202.68 240.20
  A 1.33 1.23 47.3 0 0 202.18 240.16
  L 169.81 243.49
  A 0.36 0.36 0.0 0 0 169.54 244.03"
/>
<path stroke="#2579ba" vector-effect="non-scaling-stroke" d="
  M 15.02 246.23
  A 0.75 0.75 0.0 0 0 15.77 246.90
  L 26.11 246.90
  A 0.75 0.75 0.0 0 0 26.85 246.07
  L 25.88 236.58
  A 0.75 0.75 0.0 0 0 25.13 235.91
  L 14.79 235.91
  A 0.75 0.75 0.0 0 0 14.05 236.74
  L 15.02 246.23"
/>
<path stroke="#2579ba" vector-effect="non-scaling-stroke" d="
  M 61.85 242.08
  Q 64.53 246.78 65.66 253.34
  C 68.16 267.79 68.40 285.91 69.21 296.25
  Q 69.81 303.97 68.45 308.89
  A 0.55 0.55 0.0 0 0 68.86 309.58
  C 70.75 309.98 73.57 309.68 73.84 307.01
  C 74.68 298.72 73.41 289.92 73.82 281.26
  Q 74.52 266.71 71.79 252.77
  Q 70.74 247.39 68.24 242.28
  A 4.72 4.70 78.0 0 0 64.20 239.64
  L 63.35 239.61
  A 1.65 1.65 0.0 0 0 61.85 242.08"
/>
<path stroke="#2579ba" vector-effect="non-scaling-stroke" d="
  M 72.02 240.64
  C 78.50 251.94 78.52 266.25 78.29 278.91
  Q 78.04 292.11 78.76 301.50
  Q 78.93 303.70 78.32 308.00
  A 0.67 0.67 0.0 0 0 79.12 308.75
  Q 95.19 305.38 111.65 305.32
  A 2.54 2.52 -73.5 0 0 113.78 304.15
  Q 115.61 301.31 116.08 297.53
  Q 118.22 280.49 111.48 265.01
  Q 110.18 262.03 108.96 260.44
  A 1.39 1.37 -24.8 0 0 107.57 259.94
  L 97.77 262.09
  A 0.61 0.61 0.0 0 0 97.30 262.77
  Q 98.34 269.75 97.41 276.67
  A 1.68 1.67 -81.5 0 1 95.48 278.11
  L 94.92 278.01
  A 2.77 2.77 0.0 0 1 92.61 275.00
  C 93.96 261.28 88.05 245.62 74.51 240.27
  Q 73.41 239.84 72.37 239.96
  A 0.46 0.46 0.0 0 0 72.02 240.64"
/>
<path stroke="#2579ba" vector-effect="non-scaling-stroke" d="
  M 154.86 245.31
  Q 160.63 254.36 160.50 264.67
  A 0.92 0.92 0.0 0 0 161.39 265.61
  L 169.56 265.94
  A 0.77 0.77 0.0 0 0 170.36 265.13
  Q 169.76 254.69 163.62 244.61
  A 0.63 0.62 -18.1 0 0 163.04 244.32
  L 154.93 245.16
  A 0.10 0.09 71.2 0 0 154.86 245.31"
/>
<path stroke="#2579ba" vector-effect="non-scaling-stroke" d="
  M 122.31 252.74
  Q 127.98 260.81 131.01 270.27
  A 0.56 0.55 72.4 0 0 131.70 270.63
  Q 132.95 270.25 136.90 268.93
  Q 145.45 266.07 155.49 265.61
  A 0.76 0.75 2.8 0 0 156.20 264.97
  Q 156.34 264.08 155.96 261.54
  Q 154.69 253.09 150.36 246.43
  A 1.45 1.45 0.0 0 0 149.07 245.76
  C 139.88 246.12 130.57 247.49 122.51 251.88
  A 0.59 0.59 0.0 0 0 122.31 252.74"
/>
<path stroke="#2579ba" vector-effect="non-scaling-stroke" d="
  M 58.58 247.14
  A 0.41 0.41 0.0 0 0 57.80 247.23
  L 56.81 253.23
  A 1.05 1.04 12.8 0 0 57.55 254.40
  L 60.68 255.33
  A 0.65 0.64 87.4 0 0 61.46 254.47
  L 58.58 247.14"
/>
<path stroke="#2579ba" vector-effect="non-scaling-stroke" d="
  M 30.17 266.39
  A 0.33 0.33 0.0 0 0 30.51 265.99
  L 27.38 251.76
  A 0.33 0.33 0.0 0 0 27.05 251.50
  L 16.84 251.50
  A 0.33 0.33 0.0 0 0 16.53 251.93
  L 20.91 265.80
  A 0.33 0.33 0.0 0 0 21.21 266.03
  L 30.17 266.39"
/>
<path stroke="#2579ba" vector-effect="non-scaling-stroke" d="
  M 310.68 264.23
  C 301.87 264.13 296.19 260.83 290.71 254.91
  A 0.40 0.39 -54.2 0 0 290.06 255.02
  L 281.86 272.37
  A 0.60 0.60 0.0 0 0 282.18 273.19
  Q 291.17 276.65 299.07 278.69
  Q 302.76 279.64 304.40 277.66
  Q 308.17 273.12 311.19 264.98
  A 0.55 0.55 0.0 0 0 310.68 264.23"
/>
<path stroke="#2579ba" vector-effect="non-scaling-stroke" d="
  M 335.36 265.67
  L 322.98 257.72
  A 0.25 0.25 0.0 0 0 322.63 257.80
  L 319.15 263.22
  A 5.53 2.61 -57.3 0 0 318.36 269.28
  L 326.78 274.68
  A 5.53 2.61 -57.3 0 0 331.96 271.44
  L 335.44 266.02
  A 0.25 0.25 0.0 0 0 335.36 265.67"
/>
<path stroke="#2579ba" vector-effect="non-scaling-stroke" d="
  M 63.08 270.31
  L 62.15 261.26
  A 1.32 1.32 0.0 0 0 61.21 260.13
  L 57.57 259.05
  A 0.78 0.78 0.0 0 0 56.57 259.88
  L 57.43 268.33
  A 0.51 0.51 0.0 0 0 57.74 268.73
  L 62.63 270.65
  A 0.33 0.33 0.0 0 0 63.08 270.31"
/>
<path stroke="#2579ba" vector-effect="non-scaling-stroke" d="
  M 373.65 268.68
  Q 375.34 269.67 375.56 271.01
  A 2.44 2.35 81.2 0 1 373.59 273.81
  C 365.44 274.96 359.64 278.24 352.45 283.44
  Q 346.88 287.47 343.97 294.97
  C 343.22 296.93 342.61 300.74 345.22 301.53
  Q 347.09 302.10 347.79 299.77
  Q 350.97 289.12 360.13 284.55
  A 2.63 2.62 61.3 0 1 363.56 285.56
  L 363.61 285.64
  A 2.50 2.50 0.0 0 1 362.76 289.05
  C 358.31 291.76 354.04 297.02 353.11 302.34
  C 352.44 306.19 357.10 306.23 359.39 305.31
  C 361.22 304.57 361.64 301.72 362.59 299.60
  Q 365.50 293.08 372.35 288.88
  C 374.63 287.48 377.46 288.76 377.04 291.46
  A 1.41 1.37 -14.9 0 1 376.49 292.38
  C 371.63 296.03 368.37 299.40 366.79 305.53
  A 2.55 2.54 -81.7 0 0 369.15 308.71
  L 369.51 308.73
  A 5.00 4.99 11.4 0 0 374.38 305.51
  Q 376.99 298.62 384.25 294.01
  C 386.15 292.80 389.21 291.53 390.43 294.14
  A 1.96 1.95 59.1 0 1 389.84 296.53
  C 385.29 299.97 381.68 303.04 379.74 308.14
  A 1.89 1.89 0.0 0 0 381.28 310.69
  Q 384.99 311.14 388.06 308.79
  Q 392.77 305.19 396.65 303.88
  Q 401.71 302.18 403.70 300.74
  C 408.25 297.47 409.36 293.97 409.75 288.29
  A 8.05 7.95 -33.0 0 1 410.25 286.00
  C 411.67 282.26 415.17 274.32 411.74 270.78
  Q 398.90 257.55 381.86 261.09
  Q 376.82 262.14 373.40 267.67
  A 0.73 0.73 0.0 0 0 373.65 268.68"
/>
<path stroke="#2579ba" vector-effect="non-scaling-stroke" d="
  M 32.11 282.48
  A 0.96 0.96 0.0 0 0 33.06 281.42
  L 32.07 271.80
  A 0.96 0.96 0.0 0 0 31.11 270.94
  L 21.68 270.94
  A 0.96 0.96 0.0 0 0 20.73 272.00
  L 21.72 281.62
  A 0.96 0.96 0.0 0 0 22.68 282.48
  L 32.11 282.48"
/>
<path stroke="#2579ba" vector-effect="non-scaling-stroke" d="
  M 58.11 278.55
  Q 58.23 280.08 58.27 280.53
  A 1.28 1.28 0.0 0 0 59.07 281.61
  L 62.76 283.06
  A 0.61 0.61 0.0 0 0 63.59 282.47
  Q 63.50 280.40 63.34 278.33
  Q 63.21 276.80 63.17 276.34
  A 1.28 1.28 0.0 0 0 62.37 275.27
  L 58.68 273.82
  A 0.61 0.61 0.0 0 0 57.85 274.41
  Q 57.94 276.48 58.11 278.55"
/>
<path stroke="#2579ba" vector-effect="non-scaling-stroke" d="
  M 58.68 293.00
  Q 58.75 295.50 58.90 296.31
  A 1.49 1.48 -84.7 0 0 59.82 297.43
  L 64.03 299.08
  A 0.41 0.41 0.0 0 0 64.59 298.68
  Q 64.43 295.77 64.36 292.88
  Q 64.29 290.38 64.14 289.56
  A 1.49 1.48 -84.7 0 0 63.22 288.45
  L 59.01 286.80
  A 0.41 0.41 0.0 0 0 58.45 287.20
  Q 58.60 290.10 58.68 293.00"
/>
<path stroke="#2579ba" vector-effect="non-scaling-stroke" d="
  M 32.67 287.27
  L 23.72 287.27
  A 0.22 0.21 80.3 0 0 23.52 287.56
  Q 25.33 293.06 29.70 296.38
  A 1.17 1.17 0.0 0 0 31.56 295.64
  L 32.90 287.54
  A 0.24 0.23 -85.7 0 0 32.67 287.27"
/>
<path stroke="#2579ba" vector-effect="non-scaling-stroke" d="
  M 58.62 301.10
  Q 59.81 305.10 62.50 307.81
  A 0.78 0.78 0.0 0 0 63.73 307.65
  Q 64.81 305.79 64.71 303.56
  A 0.42 0.42 0.0 0 0 64.44 303.18
  L 58.78 300.95
  A 0.12 0.12 0.0 0 0 58.62 301.10"
/>
<path stroke="#2579ba" vector-effect="non-scaling-stroke" d="
  M 390.60 114.01
  Q 388.37 111.68 388.43 107.09
  Q 388.55 98.00 395.12 94.36
  A 1.94 1.93 61.5 0 0 395.89 91.76
  L 395.82 91.63
  A 2.06 2.06 0.0 0 0 393.20 90.69
  C 384.82 94.20 382.78 105.35 384.60 113.38
  Q 385.00 115.15 386.68 116.75
  A 2.86 2.86 0.0 0 0 390.24 117.05
  L 390.26 117.03
  A 1.99 1.98 -38.8 0 0 390.60 114.01"
/>
<path stroke="#80a7c5" vector-effect="non-scaling-stroke" d="
  M 255.47 184.21
  L 263.73 181.30
  A 2.42 2.42 0.0 0 0 265.21 178.23
  L 265.18 178.16
  A 1.93 1.93 0.0 0 0 262.62 176.83
  Q 257.67 178.74 252.46 180.35
  Q 249.88 181.15 250.09 183.47
  Q 250.25 185.24 252.99 191.36
  A 2.37 2.36 68.2 0 0 255.94 192.63
  L 256.07 192.59
  A 2.00 2.00 0.0 0 0 257.31 189.92
  L 255.19 184.83
  A 0.47 0.46 -21.4 0 1 255.47 184.21"
/>
<path stroke="#80a7c5" vector-effect="non-scaling-stroke" d="
  M 276.4227 182.2104
  A 2.27 2.27 0.0 0 0 276.1876 179.0087
  L 276.1270 178.9565
  A 2.27 2.27 0.0 0 0 272.9254 179.1916
  L 260.4973 193.5896
  A 2.27 2.27 0.0 0 0 260.7324 196.7913
  L 260.7930 196.8435
  A 2.27 2.27 0.0 0 0 263.9946 196.6084
  L 276.4227 182.2104"
/>
<path stroke="#80a7c5" vector-effect="non-scaling-stroke" d="
  M 282.27 192.27
  L 273.56 194.56
  A 2.37 2.37 0.0 0 0 271.82 197.25
  L 271.82 197.28
  A 1.89 1.89 0.0 0 0 274.13 198.86
  Q 284.19 196.45 284.76 196.26
  Q 289.13 194.88 287.26 191.07
  Q 286.36 189.23 282.62 183.79
  A 2.11 2.10 53.3 0 0 279.57 183.34
  L 279.49 183.40
  A 2.31 2.30 53.4 0 0 279.04 186.49
  L 282.52 191.58
  A 0.45 0.45 0.0 0 1 282.27 192.27"
/>
<path stroke="#2579ba" vector-effect="non-scaling-stroke" d="
  M 308.51 250.77
  A 3.59 3.59 0.0 0 0 304.92 247.18
  A 3.59 3.59 0.0 0 0 301.33 250.77
  A 3.59 3.59 0.0 0 0 304.92 254.36
  A 3.59 3.59 0.0 0 0 308.51 250.77"
/>
</g>
<g fill="#014e8d">
<path d="
  M 340.40 286.34
  L 330.03 283.25
  A 0.91 0.89 -59.1 0 0 329.14 283.48
  C 323.58 288.95 316.43 294.63 309.00 297.92
  Q 308.13 298.30 303.00 300.75
  C 299.01 302.65 294.54 303.83 289.78 305.61
  C 282.01 308.51 271.74 309.74 264.26 309.98
  Q 258.42 310.17 256.94 310.26
  Q 254.26 310.44 249.60 310.29
  Q 232.49 309.75 228.50 309.33
  Q 224.94 308.95 209.08 306.80
  C 205.24 306.28 200.59 304.86 196.77 304.95
  A 5.41 5.33 -37.3 0 1 195.28 304.76
  Q 192.42 303.97 188.38 303.98
  A 4.79 4.67 -34.8 0 1 186.83 303.72
  Q 184.55 302.92 181.50 303.01
  C 179.94 303.06 178.44 302.32 176.75 302.21
  Q 169.29 301.69 161.97 301.21
  A 9.14 8.74 -46.3 0 0 159.95 301.30
  Q 154.96 302.09 149.71 303.94
  Q 143.89 305.99 139.66 306.97
  Q 121.15 311.23 105.06 312.46
  C 96.16 313.14 91.21 314.09 82.59 315.38
  Q 77.72 316.10 77.44 316.15
  C 68.39 317.93 55.49 316.79 52.84 305.40
  Q 51.97 301.68 51.90 300.75
  A 0.67 0.67 0.0 0 0 50.98 300.18
  L 41.90 303.75
  A 3.30 3.27 34.8 0 1 40.59 303.98
  L 31.47 303.76
  A 1.04 0.96 -28.8 0 1 30.99 303.64
  L 25.31 300.65
  A 0.57 0.48 -4.7 0 1 25.17 300.55
  Q 15.68 291.36 14.40 277.87
  Q 13.96 273.28 13.58 267.29
  A 10.55 10.51 -54.7 0 0 13.21 265.11
  Q 11.93 260.48 10.46 255.28
  C 8.37 247.89 7.11 240.52 7.02 232.48
  Q 6.87 219.95 6.92 217.49
  Q 7.17 206.72 13.39 200.12
  Q 16.96 196.34 24.38 194.61
  Q 38.11 191.41 48.23 201.83
  Q 59.17 213.08 61.06 231.04
  A 1.08 1.05 -73.0 0 0 61.43 231.76
  C 65.08 235.00 70.06 231.33 71.94 227.94
  Q 74.13 223.99 74.64 223.39
  C 76.46 221.22 78.99 218.31 81.04 214.87
  Q 88.67 202.06 98.78 192.56
  Q 107.12 184.72 117.81 181.86
  Q 122.89 180.51 128.77 181.44
  Q 146.07 184.19 158.80 196.15
  A 0.63 0.62 -63.9 0 0 159.84 195.79
  C 161.44 186.33 164.95 177.79 171.76 170.56
  C 183.20 158.42 195.57 151.33 211.27 145.08
  C 221.55 140.99 231.61 137.83 242.08 136.91
  A 1.12 1.12 0.0 0 0 242.94 135.22
  Q 226.93 108.70 230.72 77.79
  C 235.30 40.37 264.80 11.00 301.27 2.51
  Q 307.63 1.03 311.50 1.03
  C 319.79 1.05 329.21 0.43 337.42 1.97
  C 346.81 3.73 358.08 7.38 366.85 12.87
  Q 383.23 23.12 393.28 36.45
  C 402.07 48.13 408.24 62.86 410.30 77.49
  Q 414.08 104.27 401.37 129.26
  A 0.46 0.46 0.0 0 0 401.67 129.91
  Q 416.80 133.49 424.88 146.54
  C 429.38 153.80 428.98 162.64 427.06 171.39
  Q 423.03 189.69 417.55 209.14
  A 6.56 6.54 -44.9 0 0 417.54 212.64
  C 419.83 221.01 421.69 230.40 422.10 239.42
  C 422.36 245.16 422.96 248.77 422.35 254.50
  Q 422.12 256.67 419.44 278.75
  C 419.04 282.08 416.81 286.88 416.19 290.90
  C 415.56 295.01 415.52 298.29 412.81 301.09
  Q 408.50 305.55 404.24 308.25
  Q 403.15 308.94 398.07 310.58
  A 9.50 9.10 -68.0 0 0 396.25 311.40
  Q 393.72 312.88 390.41 315.18
  C 386.40 317.98 380.60 317.32 376.03 315.73
  A 5.79 5.74 57.4 0 0 374.78 315.45
  Q 372.23 315.20 365.57 314.70
  Q 364.34 314.60 361.98 312.84
  A 2.32 2.30 -24.1 0 0 360.84 312.41
  C 358.52 312.18 353.06 312.62 350.67 310.68
  Q 347.40 308.03 342.61 307.80
  A 2.11 2.10 73.3 0 1 340.98 306.92
  L 337.15 301.56
  A 0.93 0.85 -68.9 0 1 336.99 301.15
  C 336.31 295.75 337.80 292.44 340.60 286.81
  A 0.34 0.33 -68.6 0 0 340.40 286.34
  Z
  M 244.09 123.39
  C 256.08 147.07 276.77 157.62 302.89 162.54
  Q 322.40 166.21 344.99 162.06
  Q 377.06 156.18 393.75 129.08
  A 0.23 0.23 0.0 0 0 393.45 128.75
  Q 384.93 132.79 377.77 128.44
  C 370.66 124.11 368.13 114.16 368.19 106.01
  C 368.26 95.86 371.59 85.30 379.94 79.41
  C 387.66 73.98 397.51 75.02 403.17 82.96
  A 0.14 0.14 0.0 0 0 403.43 82.87
  C 400.91 57.83 388.13 35.58 367.27 21.75
  C 334.68 0.16 290.45 4.74 261.98 31.40
  A 0.21 0.21 0.0 0 0 262.23 31.74
  Q 273.38 25.49 286.00 23.98
  C 304.10 21.82 325.07 25.10 340.33 35.52
  C 357.67 47.36 367.13 64.79 365.39 86.25
  C 363.73 106.66 352.26 124.85 334.66 135.54
  C 315.50 147.19 292.64 148.37 271.35 140.88
  Q 255.40 135.27 244.30 123.24
  A 0.13 0.13 0.0 0 0 244.09 123.39
  Z
  M 311.50 69.39
  A 0.45 0.45 0.0 0 0 310.79 69.06
  L 302.33 75.11
  A 2.76 2.69 84.9 0 0 301.45 76.19
  Q 298.05 83.82 292.88 91.24
  A 2.92 2.91 25.7 0 1 289.66 92.36
  L 289.63 92.35
  A 1.59 1.59 0.0 0 1 288.80 89.90
  C 293.19 83.90 295.59 78.99 298.80 71.88
  A 3.28 3.14 -6.9 0 1 299.86 70.59
  L 309.44 63.74
  A 1.38 1.37 -16.5 0 0 310.02 62.68
  L 310.63 47.41
  A 1.87 1.85 -23.5 0 1 311.11 46.22
  L 321.63 34.56
  A 0.31 0.31 0.0 0 0 321.50 34.05
  C 294.04 25.35 262.09 30.52 245.69 56.10
  C 239.71 65.44 237.16 76.29 237.37 87.19
  C 237.89 114.12 256.71 130.95 281.55 136.93
  Q 305.05 142.60 325.65 132.74
  C 342.46 124.70 355.19 108.72 357.87 89.89
  C 361.30 65.82 349.40 46.50 327.99 36.60
  A 0.53 0.53 0.0 0 0 327.36 36.74
  L 317.00 49.18
  A 1.97 1.94 65.2 0 0 316.55 50.43
  L 316.47 59.02
  A 3.63 3.62 -57.2 0 0 316.79 60.51
  C 317.70 62.50 318.10 63.22 316.98 65.27
  C 314.76 69.36 316.32 74.54 318.88 78.45
  Q 321.15 81.91 321.17 81.96
  A 4.11 4.07 -43.2 0 1 321.08 84.38
  L 318.64 91.24
  A 1.98 1.98 0.0 0 1 316.02 92.40
  L 315.91 92.35
  A 1.96 1.95 19.2 0 1 314.71 89.88
  L 316.46 84.68
  A 2.75 2.74 -54.0 0 0 316.07 82.17
  Q 312.07 76.77 311.50 69.39
  Z
  M 385.19 124.60
  Q 391.82 125.78 397.15 117.44
  Q 402.22 109.51 402.51 99.04
  C 402.69 92.59 399.68 84.49 392.62 83.22
  C 385.55 81.95 379.91 88.51 377.84 94.61
  Q 374.47 104.53 376.47 113.73
  Q 378.57 123.41 385.19 124.60
  Z
  M 412.90 198.81
  A 0.39 0.39 0.0 0 0 413.53 198.60
  Q 417.67 182.02 420.62 168.63
  C 424.58 150.63 414.97 140.41 398.24 135.93
  A 1.34 1.34 0.0 0 0 396.79 136.48
  Q 390.13 146.45 381.03 153.53
  A 0.57 0.57 0.0 0 0 381.12 154.48
  Q 387.45 157.77 392.55 162.84
  A 0.40 0.39 29.2 0 0 393.21 162.66
  C 395.23 154.26 398.53 148.22 407.41 146.35
  Q 411.43 145.50 413.03 148.39
  A 1.90 1.90 0.0 0 1 411.69 151.18
  L 406.04 152.16
  A 0.63 0.47 -53.3 0 0 405.84 152.22
  C 400.14 154.79 398.84 161.44 397.78 166.72
  A 4.09 4.05 33.9 0 0 398.40 169.81
  Q 406.40 181.70 412.59 198.43
  Q 412.66 198.61 412.90 198.81
  Z
  M 246.06 143.36
  C 224.40 146.37 203.02 154.31 185.48 167.41
  C 176.03 174.47 163.59 190.49 168.79 202.91
  A 0.44 0.44 0.0 0 0 169.62 202.87
  C 175.05 185.97 193.35 172.37 211.10 181.40
  A 0.19 0.19 0.0 0 0 211.36 181.16
  Q 208.30 173.43 197.00 168.34
  A 2.55 2.55 0.0 0 1 195.83 164.75
  L 195.90 164.62
  A 3.17 3.16 -65.1 0 1 199.74 163.21
  Q 211.32 167.44 216.54 177.58
  A 0.25 0.25 0.0 0 0 216.97 177.60
  Q 229.02 158.96 246.27 143.82
  A 0.26 0.26 0.0 0 0 246.06 143.36
  Z
  M 327.59 171.08
  Q 308.55 171.68 289.38 166.84
  C 275.96 163.46 262.95 157.62 252.94 148.04
  A 0.55 0.55 0.0 0 0 252.20 148.02
  Q 233.19 164.74 220.11 186.07
  A 0.52 0.52 0.0 0 0 220.30 186.79
  Q 225.66 189.72 230.63 194.81
  A 0.62 0.62 0.0 0 0 231.61 194.68
  Q 235.88 187.14 246.47 168.78
  C 249.54 163.46 251.28 159.73 257.56 161.67
  Q 289.57 171.59 302.08 175.20
  C 304.95 176.02 307.07 177.23 307.51 180.08
  Q 307.74 181.58 305.44 185.37
  Q 291.55 208.33 289.91 211.14
  Q 286.51 216.94 279.81 215.00
  Q 255.36 207.92 236.46 202.31
  A 0.38 0.38 0.0 0 0 236.01 202.84
  C 237.59 206.14 238.47 209.14 238.64 212.87
  A 0.93 0.91 -82.1 0 0 239.26 213.70
  Q 250.78 217.60 256.41 219.58
  Q 260.46 221.00 260.78 225.33
  A 0.74 0.74 0.0 0 0 261.26 225.98
  L 276.07 231.80
  A 0.77 0.76 26.1 0 0 277.00 231.49
  C 279.89 226.67 282.90 223.06 289.25 223.92
  Q 293.62 224.51 299.25 226.48
  Q 310.16 230.30 314.13 231.86
  C 324.15 235.80 327.30 241.95 325.32 252.02
  A 1.01 1.01 0.0 0 0 325.81 253.09
  L 339.52 261.01
  A 0.52 0.52 0.0 0 0 340.23 260.82
  L 346.21 250.46
  A 0.27 0.26 28.8 0 0 346.10 250.09
  C 336.39 245.13 327.37 236.39 322.80 226.59
  C 314.56 208.90 317.70 188.08 327.80 171.43
  A 0.24 0.23 14.7 0 0 327.59 171.08
  Z
  M 414.56 264.07
  Q 415.14 261.95 415.39 259.06
  C 417.18 238.62 413.09 217.62 405.57 198.89
  C 401.28 188.21 396.24 177.75 389.11 169.17
  Q 384.52 163.66 376.96 160.19
  C 374.60 159.10 372.56 159.51 370.47 160.62
  Q 351.97 170.36 344.64 189.91
  C 338.77 205.60 342.99 222.53 357.54 231.72
  A 0.21 0.21 0.0 0 0 357.84 231.63
  L 360.58 225.83
  A 1.56 1.55 45.7 0 0 360.59 224.50
  L 350.55 202.74
  A 3.73 3.73 0.0 0 1 352.09 197.93
  L 352.20 197.87
  A 3.00 3.00 0.0 0 1 356.36 199.25
  Q 364.05 216.07 365.84 219.60
  C 367.54 222.98 368.50 226.97 370.46 230.89
  A 0.66 0.65 -26.6 0 0 371.35 231.18
  Q 381.20 226.08 393.53 226.36
  A 3.04 3.04 0.0 0 1 396.50 229.26
  L 396.51 229.45
  A 2.81 2.80 89.5 0 1 393.63 232.39
  Q 382.51 232.08 373.01 237.08
  A 1.28 1.27 -18.6 0 0 372.34 238.43
  Q 374.02 247.92 373.56 257.34
  A 0.41 0.41 0.0 0 0 374.19 257.71
  Q 379.21 254.56 385.17 254.37
  C 391.18 254.17 398.95 254.51 404.11 257.63
  Q 409.46 260.87 414.05 264.24
  A 0.33 0.33 0.0 0 0 414.56 264.07
  Z
  M 238.83 195.20
  A 0.53 0.53 0.0 0 0 239.13 195.97
  L 283.22 209.09
  A 0.53 0.53 0.0 0 0 283.83 208.85
  L 299.40 181.86
  A 0.53 0.53 0.0 0 0 299.10 181.09
  L 255.01 167.97
  A 0.53 0.53 0.0 0 0 254.40 168.21
  L 238.83 195.20
  Z
  M 349.09 167.87
  L 337.40 170.44
  A 1.15 1.13 -77.7 0 0 336.71 170.89
  C 324.01 188.11 319.98 213.22 333.88 231.13
  Q 340.53 239.70 349.46 244.49
  A 1.02 1.02 0.0 0 0 350.84 244.06
  L 353.77 238.49
  A 0.95 0.95 0.0 0 0 353.47 237.27
  Q 339.24 227.58 336.22 212.59
  C 333.01 196.61 338.61 180.76 349.52 168.62
  A 0.46 0.45 -75.1 0 0 349.09 167.87
  Z
  M 231.00 217.22
  A 5.19 5.18 64.1 0 0 232.20 213.74
  C 231.95 205.55 226.06 198.72 219.37 194.35
  Q 214.84 191.39 209.07 190.65
  Q 205.84 190.24 205.37 187.45
  A 1.47 1.45 1.5 0 0 204.23 186.26
  C 190.70 183.39 179.16 194.00 176.42 206.72
  Q 176.06 208.42 177.82 211.35
  C 179.39 213.95 183.61 212.76 184.18 217.31
  C 185.02 224.11 188.50 232.82 195.51 234.47
  A 1.58 1.57 -2.4 0 0 197.37 232.45
  Q 195.44 226.58 191.06 222.76
  A 2.44 2.37 -52.9 0 1 190.67 219.62
  C 192.27 217.19 195.41 219.05 196.88 220.65
  Q 201.05 225.18 202.89 231.54
  Q 203.60 234.03 206.61 234.24
  A 1.73 1.72 29.9 0 0 207.69 233.95
  Q 210.73 231.86 210.20 227.71
  C 209.56 222.69 206.66 218.68 202.98 215.24
  A 2.42 2.17 -50.9 0 1 202.83 212.20
  C 204.52 209.87 207.66 212.29 209.17 213.89
  Q 213.93 218.92 215.18 226.03
  C 215.54 228.08 216.43 229.32 218.54 229.08
  C 220.88 228.83 221.85 225.43 221.95 223.46
  C 222.25 217.99 219.69 212.55 216.35 207.91
  A 2.08 1.99 52.2 0 1 216.64 205.15
  C 221.60 200.99 226.76 216.47 227.12 218.83
  A 1.17 1.17 0.0 0 0 229.18 219.40
  L 231.00 217.22
  Z
  M 133.87 203.18
  Q 131.78 195.52 126.91 189.21
  A 3.27 3.26 -17.6 0 0 124.45 187.94
  Q 120.67 187.81 116.18 189.45
  C 106.86 192.86 99.86 200.01 93.60 207.94
  A 0.97 0.97 0.0 0 0 93.98 209.43
  Q 102.70 213.19 109.20 219.57
  A 0.62 0.62 0.0 0 0 110.11 219.52
  C 116.36 211.90 123.34 206.00 133.33 204.05
  A 0.70 0.69 77.0 0 0 133.87 203.18
  Z
  M 132.14 189.84
  Q 132.35 190.45 134.49 194.36
  C 135.68 196.54 136.79 200.05 137.60 203.12
  A 0.85 0.85 0.0 0 0 138.28 203.74
  L 145.86 204.99
  A 0.78 0.78 0.0 0 0 146.75 204.05
  L 145.20 196.95
  A 1.26 1.21 18.9 0 0 144.93 196.43
  Q 139.72 190.42 132.63 189.26
  A 0.44 0.44 0.0 0 0 132.14 189.84
  Z
  M 150.67 198.68
  C 151.61 202.73 153.47 209.92 147.49 209.75
  Q 143.85 209.64 139.78 209.38
  C 127.29 208.57 121.10 215.66 113.28 224.03
  Q 110.40 227.12 107.39 224.50
  Q 99.50 217.61 90.24 213.44
  A 0.53 0.52 -63.1 0 0 89.56 213.67
  L 86.10 219.66
  A 0.26 0.25 -63.8 0 0 86.22 220.03
  Q 103.83 227.07 113.83 243.42
  Q 115.94 246.86 116.20 247.28
  A 0.58 0.58 0.0 0 0 116.96 247.48
  L 128.30 241.39
  A 0.97 0.95 8.7 0 0 128.55 241.21
  C 131.55 238.33 132.63 234.67 134.87 229.40
  A 3.07 3.07 0.0 0 1 138.57 227.66
  L 138.80 227.74
  A 3.04 3.04 0.0 0 1 140.61 231.79
  L 137.27 239.75
  A 0.24 0.24 0.0 0 0 137.52 240.08
  L 183.92 235.31
  A 0.24 0.24 0.0 0 0 184.07 234.91
  Q 179.91 230.43 178.37 224.47
  A 4.57 4.54 -74.9 0 0 177.18 222.38
  Q 176.67 221.86 171.03 215.88
  Q 166.67 211.26 151.12 198.40
  A 0.28 0.28 0.0 0 0 150.67 198.68
  Z
  M 47.37 294.52
  L 51.82 293.54
  A 0.64 0.63 83.0 0 0 52.32 292.89
  Q 51.96 282.60 50.94 270.67
  Q 50.30 263.25 50.43 259.81
  C 50.73 251.48 51.03 244.44 54.84 237.65
  A 2.57 2.56 -28.1 0 0 55.14 236.67
  Q 55.23 235.83 54.96 233.28
  C 53.54 219.74 46.44 202.63 31.09 200.51
  A 0.36 0.36 0.0 0 0 30.72 201.04
  C 38.74 215.86 39.76 229.41 42.38 249.49
  C 43.35 256.96 45.32 262.51 47.26 270.98
  Q 50.18 283.81 46.94 294.05
  A 0.37 0.37 0.0 0 0 47.37 294.52
  Z
  M 35.95 297.87
  Q 40.93 297.86 42.52 293.03
  C 47.46 278.00 39.21 263.20 37.68 248.10
  Q 37.00 241.38 35.58 231.20
  Q 33.65 217.40 27.45 204.39
  A 3.97 3.97 0.0 0 0 22.64 202.33
  L 22.05 202.52
  A 2.10 2.09 64.3 0 0 20.95 205.66
  C 29.48 218.66 31.17 234.79 32.39 249.80
  C 32.98 256.99 35.59 264.82 37.03 272.45
  Q 39.55 285.77 35.72 297.57
  A 0.24 0.23 8.8 0 0 35.95 297.87
  Z
  M 21.00 215.80
  L 16.70 209.78
  A 0.66 0.66 0.0 0 0 15.55 209.92
  L 13.20 215.92
  A 0.50 0.50 0.0 0 0 13.66 216.60
  L 20.59 216.60
  A 0.51 0.50 -17.9 0 0 21.00 215.80
  Z
  M 245.92 239.12
  L 253.19 225.31
  A 0.16 0.16 0.0 0 0 253.11 225.09
  L 237.92 219.13
  A 0.84 0.84 0.0 0 0 236.84 219.58
  Q 234.59 224.93 229.14 226.97
  A 1.68 1.67 88.2 0 0 228.13 228.05
  L 227.15 231.36
  A 0.85 0.85 0.0 0 0 227.66 232.40
  L 245.32 239.34
  A 0.48 0.48 0.0 0 0 245.92 239.12
  Z
  M 13.06 230.64
  A 0.61 0.61 0.0 0 0 13.67 231.25
  L 24.28 231.25
  A 0.61 0.61 0.0 0 0 24.88 230.51
  L 22.99 221.89
  A 0.61 0.61 0.0 0 0 22.39 221.41
  L 13.67 221.41
  A 0.61 0.61 0.0 0 0 13.06 222.02
  L 13.06 230.64
  Z
  M 75.94 235.07
  C 86.47 238.79 90.71 246.08 95.67 255.58
  A 0.79 0.79 0.0 0 0 96.54 255.99
  L 110.50 252.93
  A 1.46 1.46 0.0 0 0 111.49 250.86
  Q 104.05 235.77 88.86 228.14
  Q 85.31 226.36 82.41 225.65
  A 1.89 1.89 0.0 0 0 80.32 226.54
  L 75.72 234.50
  A 0.40 0.39 24.6 0 0 75.94 235.07
  Z
  M 286.06 230.43
  C 282.95 232.86 280.55 238.58 278.65 242.64
  Q 277.39 245.33 270.77 262.29
  A 6.22 6.21 -59.3 0 0 272.56 269.32
  L 272.72 269.45
  A 4.04 4.04 0.0 0 0 278.88 267.95
  L 285.82 252.84
  A 4.37 4.36 -39.7 0 0 286.09 249.99
  C 284.42 243.20 290.42 236.57 289.01 231.41
  A 1.87 1.87 0.0 0 0 286.06 230.43
  Z
  M 273.75 237.95
  A 0.81 0.81 0.0 0 0 273.31 236.85
  L 257.76 230.75
  A 0.81 0.81 0.0 0 0 256.74 231.15
  L 252.81 239.46
  A 0.81 0.81 0.0 0 0 253.25 240.56
  L 268.80 246.66
  A 0.81 0.81 0.0 0 0 269.82 246.26
  L 273.75 237.95
  Z
  M 293.61 231.71
  Q 294.15 236.62 292.07 241.32
  Q 291.23 243.21 291.16 244.28
  Q 291.01 246.67 291.41 247.29
  Q 297.88 257.15 309.19 258.27
  C 315.77 258.92 317.59 254.96 319.03 249.53
  C 321.09 241.77 315.33 238.71 308.94 236.38
  Q 299.25 232.84 294.38 231.10
  A 0.58 0.58 0.0 0 0 293.61 231.71
  Z
  M 364.89 234.01
  A 0.53 0.53 0.0 0 0 363.89 233.89
  Q 352.79 257.15 337.12 275.66
  A 0.32 0.31 -64.6 0 0 337.30 276.17
  C 339.61 276.63 349.43 278.08 351.65 276.34
  Q 357.80 271.52 364.52 269.33
  A 1.69 1.68 -4.6 0 0 365.67 267.99
  Q 368.40 250.65 364.89 234.01
  Z
  M 169.54 244.03
  Q 176.35 255.54 175.45 267.00
  C 175.23 269.82 172.24 270.74 169.63 270.69
  Q 159.49 270.48 156.01 270.71
  Q 143.28 271.55 132.32 276.14
  C 129.71 277.23 126.85 277.31 126.05 274.43
  Q 123.34 264.58 117.51 256.20
  A 0.29 0.28 54.1 0 0 117.11 256.13
  L 114.75 257.81
  A 0.49 0.49 0.0 0 0 114.61 258.45
  C 120.21 268.19 122.19 278.91 122.59 290.04
  Q 122.83 296.93 120.40 303.04
  A 0.35 0.35 0.0 0 0 120.78 303.52
  Q 135.11 301.18 150.91 297.11
  Q 156.94 295.56 159.57 290.48
  A 3.21 3.20 24.7 0 1 163.63 288.99
  L 163.93 289.11
  A 2.76 2.75 24.7 0 1 165.37 292.97
  L 164.36 294.90
  A 0.64 0.64 0.0 0 0 164.92 295.84
  Q 183.90 296.15 192.48 297.32
  Q 221.55 301.27 226.75 301.94
  Q 248.37 304.71 270.27 302.62
  Q 301.01 299.68 323.61 279.73
  A 0.56 0.55 -52.1 0 0 323.50 278.82
  L 314.75 274.21
  A 0.53 0.53 0.0 0 0 314.01 274.47
  C 311.89 279.33 308.46 284.73 303.18 285.91
  C 299.17 286.81 295.16 285.12 290.24 283.52
  Q 281.94 280.82 274.62 277.63
  Q 268.38 274.91 267.21 273.54
  Q 263.01 268.60 264.16 263.43
  Q 265.00 259.67 266.94 252.72
  A 0.43 0.43 0.0 0 0 266.68 252.20
  L 250.12 245.69
  A 0.64 0.54 -31.3 0 0 249.93 245.66
  L 245.32 245.66
  A 3.38 3.34 55.3 0 1 244.10 245.43
  L 224.18 237.60
  A 4.24 4.24 0.0 0 1 222.78 236.70
  L 221.79 235.74
  A 1.22 1.22 0.0 0 0 220.67 235.41
  Q 217.99 235.99 215.88 235.67
  A 0.93 0.90 22.8 0 0 215.04 236.00
  Q 210.00 242.33 202.68 240.20
  A 1.33 1.23 47.3 0 0 202.18 240.16
  L 169.81 243.49
  A 0.36 0.36 0.0 0 0 169.54 244.03
  Z
  M 15.02 246.23
  A 0.75 0.75 0.0 0 0 15.77 246.90
  L 26.11 246.90
  A 0.75 0.75 0.0 0 0 26.85 246.07
  L 25.88 236.58
  A 0.75 0.75 0.0 0 0 25.13 235.91
  L 14.79 235.91
  A 0.75 0.75 0.0 0 0 14.05 236.74
  L 15.02 246.23
  Z
  M 61.85 242.08
  Q 64.53 246.78 65.66 253.34
  C 68.16 267.79 68.40 285.91 69.21 296.25
  Q 69.81 303.97 68.45 308.89
  A 0.55 0.55 0.0 0 0 68.86 309.58
  C 70.75 309.98 73.57 309.68 73.84 307.01
  C 74.68 298.72 73.41 289.92 73.82 281.26
  Q 74.52 266.71 71.79 252.77
  Q 70.74 247.39 68.24 242.28
  A 4.72 4.70 78.0 0 0 64.20 239.64
  L 63.35 239.61
  A 1.65 1.65 0.0 0 0 61.85 242.08
  Z
  M 72.02 240.64
  C 78.50 251.94 78.52 266.25 78.29 278.91
  Q 78.04 292.11 78.76 301.50
  Q 78.93 303.70 78.32 308.00
  A 0.67 0.67 0.0 0 0 79.12 308.75
  Q 95.19 305.38 111.65 305.32
  A 2.54 2.52 -73.5 0 0 113.78 304.15
  Q 115.61 301.31 116.08 297.53
  Q 118.22 280.49 111.48 265.01
  Q 110.18 262.03 108.96 260.44
  A 1.39 1.37 -24.8 0 0 107.57 259.94
  L 97.77 262.09
  A 0.61 0.61 0.0 0 0 97.30 262.77
  Q 98.34 269.75 97.41 276.67
  A 1.68 1.67 -81.5 0 1 95.48 278.11
  L 94.92 278.01
  A 2.77 2.77 0.0 0 1 92.61 275.00
  C 93.96 261.28 88.05 245.62 74.51 240.27
  Q 73.41 239.84 72.37 239.96
  A 0.46 0.46 0.0 0 0 72.02 240.64
  Z
  M 154.86 245.31
  Q 160.63 254.36 160.50 264.67
  A 0.92 0.92 0.0 0 0 161.39 265.61
  L 169.56 265.94
  A 0.77 0.77 0.0 0 0 170.36 265.13
  Q 169.76 254.69 163.62 244.61
  A 0.63 0.62 -18.1 0 0 163.04 244.32
  L 154.93 245.16
  A 0.10 0.09 71.2 0 0 154.86 245.31
  Z
  M 122.31 252.74
  Q 127.98 260.81 131.01 270.27
  A 0.56 0.55 72.4 0 0 131.70 270.63
  Q 132.95 270.25 136.90 268.93
  Q 145.45 266.07 155.49 265.61
  A 0.76 0.75 2.8 0 0 156.20 264.97
  Q 156.34 264.08 155.96 261.54
  Q 154.69 253.09 150.36 246.43
  A 1.45 1.45 0.0 0 0 149.07 245.76
  C 139.88 246.12 130.57 247.49 122.51 251.88
  A 0.59 0.59 0.0 0 0 122.31 252.74
  Z
  M 58.58 247.14
  A 0.41 0.41 0.0 0 0 57.80 247.23
  L 56.81 253.23
  A 1.05 1.04 12.8 0 0 57.55 254.40
  L 60.68 255.33
  A 0.65 0.64 87.4 0 0 61.46 254.47
  L 58.58 247.14
  Z
  M 30.17 266.39
  A 0.33 0.33 0.0 0 0 30.51 265.99
  L 27.38 251.76
  A 0.33 0.33 0.0 0 0 27.05 251.50
  L 16.84 251.50
  A 0.33 0.33 0.0 0 0 16.53 251.93
  L 20.91 265.80
  A 0.33 0.33 0.0 0 0 21.21 266.03
  L 30.17 266.39
  Z
  M 310.68 264.23
  C 301.87 264.13 296.19 260.83 290.71 254.91
  A 0.40 0.39 -54.2 0 0 290.06 255.02
  L 281.86 272.37
  A 0.60 0.60 0.0 0 0 282.18 273.19
  Q 291.17 276.65 299.07 278.69
  Q 302.76 279.64 304.40 277.66
  Q 308.17 273.12 311.19 264.98
  A 0.55 0.55 0.0 0 0 310.68 264.23
  Z
  M 335.36 265.67
  L 322.98 257.72
  A 0.25 0.25 0.0 0 0 322.63 257.80
  L 319.15 263.22
  A 5.53 2.61 -57.3 0 0 318.36 269.28
  L 326.78 274.68
  A 5.53 2.61 -57.3 0 0 331.96 271.44
  L 335.44 266.02
  A 0.25 0.25 0.0 0 0 335.36 265.67
  Z
  M 63.08 270.31
  L 62.15 261.26
  A 1.32 1.32 0.0 0 0 61.21 260.13
  L 57.57 259.05
  A 0.78 0.78 0.0 0 0 56.57 259.88
  L 57.43 268.33
  A 0.51 0.51 0.0 0 0 57.74 268.73
  L 62.63 270.65
  A 0.33 0.33 0.0 0 0 63.08 270.31
  Z
  M 373.65 268.68
  Q 375.34 269.67 375.56 271.01
  A 2.44 2.35 81.2 0 1 373.59 273.81
  C 365.44 274.96 359.64 278.24 352.45 283.44
  Q 346.88 287.47 343.97 294.97
  C 343.22 296.93 342.61 300.74 345.22 301.53
  Q 347.09 302.10 347.79 299.77
  Q 350.97 289.12 360.13 284.55
  A 2.63 2.62 61.3 0 1 363.56 285.56
  L 363.61 285.64
  A 2.50 2.50 0.0 0 1 362.76 289.05
  C 358.31 291.76 354.04 297.02 353.11 302.34
  C 352.44 306.19 357.10 306.23 359.39 305.31
  C 361.22 304.57 361.64 301.72 362.59 299.60
  Q 365.50 293.08 372.35 288.88
  C 374.63 287.48 377.46 288.76 377.04 291.46
  A 1.41 1.37 -14.9 0 1 376.49 292.38
  C 371.63 296.03 368.37 299.40 366.79 305.53
  A 2.55 2.54 -81.7 0 0 369.15 308.71
  L 369.51 308.73
  A 5.00 4.99 11.4 0 0 374.38 305.51
  Q 376.99 298.62 384.25 294.01
  C 386.15 292.80 389.21 291.53 390.43 294.14
  A 1.96 1.95 59.1 0 1 389.84 296.53
  C 385.29 299.97 381.68 303.04 379.74 308.14
  A 1.89 1.89 0.0 0 0 381.28 310.69
  Q 384.99 311.14 388.06 308.79
  Q 392.77 305.19 396.65 303.88
  Q 401.71 302.18 403.70 300.74
  C 408.25 297.47 409.36 293.97 409.75 288.29
  A 8.05 7.95 -33.0 0 1 410.25 286.00
  C 411.67 282.26 415.17 274.32 411.74 270.78
  Q 398.90 257.55 381.86 261.09
  Q 376.82 262.14 373.40 267.67
  A 0.73 0.73 0.0 0 0 373.65 268.68
  Z
  M 32.11 282.48
  A 0.96 0.96 0.0 0 0 33.06 281.42
  L 32.07 271.80
  A 0.96 0.96 0.0 0 0 31.11 270.94
  L 21.68 270.94
  A 0.96 0.96 0.0 0 0 20.73 272.00
  L 21.72 281.62
  A 0.96 0.96 0.0 0 0 22.68 282.48
  L 32.11 282.48
  Z
  M 58.11 278.55
  Q 58.23 280.08 58.27 280.53
  A 1.28 1.28 0.0 0 0 59.07 281.61
  L 62.76 283.06
  A 0.61 0.61 0.0 0 0 63.59 282.47
  Q 63.50 280.40 63.34 278.33
  Q 63.21 276.80 63.17 276.34
  A 1.28 1.28 0.0 0 0 62.37 275.27
  L 58.68 273.82
  A 0.61 0.61 0.0 0 0 57.85 274.41
  Q 57.94 276.48 58.11 278.55
  Z
  M 58.68 293.00
  Q 58.75 295.50 58.90 296.31
  A 1.49 1.48 -84.7 0 0 59.82 297.43
  L 64.03 299.08
  A 0.41 0.41 0.0 0 0 64.59 298.68
  Q 64.43 295.77 64.36 292.88
  Q 64.29 290.38 64.14 289.56
  A 1.49 1.48 -84.7 0 0 63.22 288.45
  L 59.01 286.80
  A 0.41 0.41 0.0 0 0 58.45 287.20
  Q 58.60 290.10 58.68 293.00
  Z
  M 32.67 287.27
  L 23.72 287.27
  A 0.22 0.21 80.3 0 0 23.52 287.56
  Q 25.33 293.06 29.70 296.38
  A 1.17 1.17 0.0 0 0 31.56 295.64
  L 32.90 287.54
  A 0.24 0.23 -85.7 0 0 32.67 287.27
  Z
  M 58.62 301.10
  Q 59.81 305.10 62.50 307.81
  A 0.78 0.78 0.0 0 0 63.73 307.65
  Q 64.81 305.79 64.71 303.56
  A 0.42 0.42 0.0 0 0 64.44 303.18
  L 58.78 300.95
  A 0.12 0.12 0.0 0 0 58.62 301.10
  Z"
/>
<path d="
  M 390.60 114.01
  A 1.99 1.98 -38.8 0 1 390.26 117.03
  L 390.24 117.05
  A 2.86 2.86 0.0 0 1 386.68 116.75
  Q 385.00 115.15 384.60 113.38
  C 382.78 105.35 384.82 94.20 393.20 90.69
  A 2.06 2.06 0.0 0 1 395.82 91.63
  L 395.89 91.76
  A 1.94 1.93 61.5 0 1 395.12 94.36
  Q 388.55 98.00 388.43 107.09
  Q 388.37 111.68 390.60 114.01
  Z"
/>
<path d="
  M 255.47 184.21
  A 0.47 0.46 -21.4 0 0 255.19 184.83
  L 257.31 189.92
  A 2.00 2.00 0.0 0 1 256.07 192.59
  L 255.94 192.63
  A 2.37 2.36 68.2 0 1 252.99 191.36
  Q 250.25 185.24 250.09 183.47
  Q 249.88 181.15 252.46 180.35
  Q 257.67 178.74 262.62 176.83
  A 1.93 1.93 0.0 0 1 265.18 178.16
  L 265.21 178.23
  A 2.42 2.42 0.0 0 1 263.73 181.30
  L 255.47 184.21
  Z"
/>
<rect x="-2.31" y="-11.78" transform="translate(268.46,187.90) rotate(40.8)" width="4.62" height="23.56" rx="2.27"/>
<path d="
  M 282.52 191.58
  L 279.04 186.49
  A 2.31 2.30 53.4 0 1 279.49 183.40
  L 279.57 183.34
  A 2.11 2.10 53.3 0 1 282.62 183.79
  Q 286.36 189.23 287.26 191.07
  Q 289.13 194.88 284.76 196.26
  Q 284.19 196.45 274.13 198.86
  A 1.89 1.89 0.0 0 1 271.82 197.28
  L 271.82 197.25
  A 2.37 2.37 0.0 0 1 273.56 194.56
  L 282.27 192.27
  A 0.45 0.45 0.0 0 0 282.52 191.58
  Z"
/>
<circle cx="304.92" cy="250.77" r="3.59"/>
</g>
<g fill="#fffffc">
<path d="
  M 244.09 123.39
  A 0.13 0.13 0.0 0 1 244.30 123.24
  Q 255.40 135.27 271.35 140.88
  C 292.64 148.37 315.50 147.19 334.66 135.54
  C 352.26 124.85 363.73 106.66 365.39 86.25
  C 367.13 64.79 357.67 47.36 340.33 35.52
  C 325.07 25.10 304.10 21.82 286.00 23.98
  Q 273.38 25.49 262.23 31.74
  A 0.21 0.21 0.0 0 1 261.98 31.40
  C 290.45 4.74 334.68 0.16 367.27 21.75
  C 388.13 35.58 400.91 57.83 403.43 82.87
  A 0.14 0.14 0.0 0 1 403.17 82.96
  C 397.51 75.02 387.66 73.98 379.94 79.41
  C 371.59 85.30 368.26 95.86 368.19 106.01
  C 368.13 114.16 370.66 124.11 377.77 128.44
  Q 384.93 132.79 393.45 128.75
  A 0.23 0.23 0.0 0 1 393.75 129.08
  Q 377.06 156.18 344.99 162.06
  Q 322.40 166.21 302.89 162.54
  C 276.77 157.62 256.08 147.07 244.09 123.39
  Z"
/>
<path d="
  M 246.06 143.36
  A 0.26 0.26 0.0 0 1 246.27 143.82
  Q 229.02 158.96 216.97 177.60
  A 0.25 0.25 0.0 0 1 216.54 177.58
  Q 211.32 167.44 199.74 163.21
  A 3.17 3.16 -65.1 0 0 195.90 164.62
  L 195.83 164.75
  A 2.55 2.55 0.0 0 0 197.00 168.34
  Q 208.30 173.43 211.36 181.16
  A 0.19 0.19 0.0 0 1 211.10 181.40
  C 193.35 172.37 175.05 185.97 169.62 202.87
  A 0.44 0.44 0.0 0 1 168.79 202.91
  C 163.59 190.49 176.03 174.47 185.48 167.41
  C 203.02 154.31 224.40 146.37 246.06 143.36
  Z"
/>
<path d="
  M 327.59 171.08
  A 0.24 0.23 14.7 0 1 327.80 171.43
  C 317.70 188.08 314.56 208.90 322.80 226.59
  C 327.37 236.39 336.39 245.13 346.10 250.09
  A 0.27 0.26 28.8 0 1 346.21 250.46
  L 340.23 260.82
  A 0.52 0.52 0.0 0 1 339.52 261.01
  L 325.81 253.09
  A 1.01 1.01 0.0 0 1 325.32 252.02
  C 327.30 241.95 324.15 235.80 314.13 231.86
  Q 310.16 230.30 299.25 226.48
  Q 293.62 224.51 289.25 223.92
  C 282.90 223.06 279.89 226.67 277.00 231.49
  A 0.77 0.76 26.1 0 1 276.07 231.80
  L 261.26 225.98
  A 0.74 0.74 0.0 0 1 260.78 225.33
  Q 260.46 221.00 256.41 219.58
  Q 250.78 217.60 239.26 213.70
  A 0.93 0.91 -82.1 0 1 238.64 212.87
  C 238.47 209.14 237.59 206.14 236.01 202.84
  A 0.38 0.38 0.0 0 1 236.46 202.31
  Q 255.36 207.92 279.81 215.00
  Q 286.51 216.94 289.91 211.14
  Q 291.55 208.33 305.44 185.37
  Q 307.74 181.58 307.51 180.08
  C 307.07 177.23 304.95 176.02 302.08 175.20
  Q 289.57 171.59 257.56 161.67
  C 251.28 159.73 249.54 163.46 246.47 168.78
  Q 235.88 187.14 231.61 194.68
  A 0.62 0.62 0.0 0 1 230.63 194.81
  Q 225.66 189.72 220.30 186.79
  A 0.52 0.52 0.0 0 1 220.11 186.07
  Q 233.19 164.74 252.20 148.02
  A 0.55 0.55 0.0 0 1 252.94 148.04
  C 262.95 157.62 275.96 163.46 289.38 166.84
  Q 308.55 171.68 327.59 171.08
  Z"
/>
<path d="
  M 414.56 264.07
  A 0.33 0.33 0.0 0 1 414.05 264.24
  Q 409.46 260.87 404.11 257.63
  C 398.95 254.51 391.18 254.17 385.17 254.37
  Q 379.21 254.56 374.19 257.71
  A 0.41 0.41 0.0 0 1 373.56 257.34
  Q 374.02 247.92 372.34 238.43
  A 1.28 1.27 -18.6 0 1 373.01 237.08
  Q 382.51 232.08 393.63 232.39
  A 2.81 2.80 89.5 0 0 396.51 229.45
  L 396.50 229.26
  A 3.04 3.04 0.0 0 0 393.53 226.36
  Q 381.20 226.08 371.35 231.18
  A 0.66 0.65 -26.6 0 1 370.46 230.89
  C 368.50 226.97 367.54 222.98 365.84 219.60
  Q 364.05 216.07 356.36 199.25
  A 3.00 3.00 0.0 0 0 352.20 197.87
  L 352.09 197.93
  A 3.73 3.73 0.0 0 0 350.55 202.74
  L 360.59 224.50
  A 1.56 1.55 45.7 0 1 360.58 225.83
  L 357.84 231.63
  A 0.21 0.21 0.0 0 1 357.54 231.72
  C 342.99 222.53 338.77 205.60 344.64 189.91
  Q 351.97 170.36 370.47 160.62
  C 372.56 159.51 374.60 159.10 376.96 160.19
  Q 384.52 163.66 389.11 169.17
  C 396.24 177.75 401.28 188.21 405.57 198.89
  C 413.09 217.62 417.18 238.62 415.39 259.06
  Q 415.14 261.95 414.56 264.07
  Z"
/>
<path d="
  M 238.83 195.20
  L 254.40 168.21
  A 0.53 0.53 0.0 0 1 255.01 167.97
  L 299.10 181.09
  A 0.53 0.53 0.0 0 1 299.40 181.86
  L 283.83 208.85
  A 0.53 0.53 0.0 0 1 283.22 209.09
  L 239.13 195.97
  A 0.53 0.53 0.0 0 1 238.83 195.20
  Z
  M 255.47 184.21
  L 263.73 181.30
  A 2.42 2.42 0.0 0 0 265.21 178.23
  L 265.18 178.16
  A 1.93 1.93 0.0 0 0 262.62 176.83
  Q 257.67 178.74 252.46 180.35
  Q 249.88 181.15 250.09 183.47
  Q 250.25 185.24 252.99 191.36
  A 2.37 2.36 68.2 0 0 255.94 192.63
  L 256.07 192.59
  A 2.00 2.00 0.0 0 0 257.31 189.92
  L 255.19 184.83
  A 0.47 0.46 -21.4 0 1 255.47 184.21
  Z
  M 276.4227 182.2104
  A 2.27 2.27 0.0 0 0 276.1876 179.0087
  L 276.1270 178.9565
  A 2.27 2.27 0.0 0 0 272.9254 179.1916
  L 260.4973 193.5896
  A 2.27 2.27 0.0 0 0 260.7324 196.7913
  L 260.7930 196.8435
  A 2.27 2.27 0.0 0 0 263.9946 196.6084
  L 276.4227 182.2104
  Z
  M 282.27 192.27
  L 273.56 194.56
  A 2.37 2.37 0.0 0 0 271.82 197.25
  L 271.82 197.28
  A 1.89 1.89 0.0 0 0 274.13 198.86
  Q 284.19 196.45 284.76 196.26
  Q 289.13 194.88 287.26 191.07
  Q 286.36 189.23 282.62 183.79
  A 2.11 2.10 53.3 0 0 279.57 183.34
  L 279.49 183.40
  A 2.31 2.30 53.4 0 0 279.04 186.49
  L 282.52 191.58
  A 0.45 0.45 0.0 0 1 282.27 192.27
  Z"
/>
<path d="
  M 151.12 198.40
  Q 166.67 211.26 171.03 215.88
  Q 176.67 221.86 177.18 222.38
  A 4.57 4.54 -74.9 0 1 178.37 224.47
  Q 179.91 230.43 184.07 234.91
  A 0.24 0.24 0.0 0 1 183.92 235.31
  L 137.52 240.08
  A 0.24 0.24 0.0 0 1 137.27 239.75
  L 140.61 231.79
  A 3.04 3.04 0.0 0 0 138.80 227.74
  L 138.57 227.66
  A 3.07 3.07 0.0 0 0 134.87 229.40
  C 132.63 234.67 131.55 238.33 128.55 241.21
  A 0.97 0.95 8.7 0 1 128.30 241.39
  L 116.96 247.48
  A 0.58 0.58 0.0 0 1 116.20 247.28
  Q 115.94 246.86 113.83 243.42
  Q 103.83 227.07 86.22 220.03
  A 0.26 0.25 -63.8 0 1 86.10 219.66
  L 89.56 213.67
  A 0.53 0.52 -63.1 0 1 90.24 213.44
  Q 99.50 217.61 107.39 224.50
  Q 110.40 227.12 113.28 224.03
  C 121.10 215.66 127.29 208.57 139.78 209.38
  Q 143.85 209.64 147.49 209.75
  C 153.47 209.92 151.61 202.73 150.67 198.68
  A 0.28 0.28 0.0 0 1 151.12 198.40
  Z"
/>
<path d="
  M 169.81 243.49
  L 202.18 240.16
  A 1.33 1.23 47.3 0 1 202.68 240.20
  Q 210.00 242.33 215.04 236.00
  A 0.93 0.90 22.8 0 1 215.88 235.67
  Q 217.99 235.99 220.67 235.41
  A 1.22 1.22 0.0 0 1 221.79 235.74
  L 222.78 236.70
  A 4.24 4.24 0.0 0 0 224.18 237.60
  L 244.10 245.43
  A 3.38 3.34 55.3 0 0 245.32 245.66
  L 249.93 245.66
  A 0.64 0.54 -31.3 0 1 250.12 245.69
  L 266.68 252.20
  A 0.43 0.43 0.0 0 1 266.94 252.72
  Q 265.00 259.67 264.16 263.43
  Q 263.01 268.60 267.21 273.54
  Q 268.38 274.91 274.62 277.63
  Q 281.94 280.82 290.24 283.52
  C 295.16 285.12 299.17 286.81 303.18 285.91
  C 308.46 284.73 311.89 279.33 314.01 274.47
  A 0.53 0.53 0.0 0 1 314.75 274.21
  L 323.50 278.82
  A 0.56 0.55 -52.1 0 1 323.61 279.73
  Q 301.01 299.68 270.27 302.62
  Q 248.37 304.71 226.75 301.94
  Q 221.55 301.27 192.48 297.32
  Q 183.90 296.15 164.92 295.84
  A 0.64 0.64 0.0 0 1 164.36 294.90
  L 165.37 292.97
  A 2.76 2.75 24.7 0 0 163.93 289.11
  L 163.63 288.99
  A 3.21 3.20 24.7 0 0 159.57 290.48
  Q 156.94 295.56 150.91 297.11
  Q 135.11 301.18 120.78 303.52
  A 0.35 0.35 0.0 0 1 120.40 303.04
  Q 122.83 296.93 122.59 290.04
  C 122.19 278.91 120.21 268.19 114.61 258.45
  A 0.49 0.49 0.0 0 1 114.75 257.81
  L 117.11 256.13
  A 0.29 0.28 54.1 0 1 117.51 256.20
  Q 123.34 264.58 126.05 274.43
  C 126.85 277.31 129.71 277.23 132.32 276.14
  Q 143.28 271.55 156.01 270.71
  Q 159.49 270.48 169.63 270.69
  C 172.24 270.74 175.23 269.82 175.45 267.00
  Q 176.35 255.54 169.54 244.03
  A 0.36 0.36 0.0 0 1 169.81 243.49
  Z"
/>
</g>
<g fill="#49a4e6">
<path d="
  M 392.62 83.22
  C 399.68 84.49 402.69 92.59 402.51 99.04
  Q 402.22 109.51 397.15 117.44
  Q 391.82 125.78 385.19 124.60
  Q 378.57 123.41 376.47 113.73
  Q 374.47 104.53 377.84 94.61
  C 379.91 88.51 385.55 81.95 392.62 83.22
  Z
  M 390.60 114.01
  Q 388.37 111.68 388.43 107.09
  Q 388.55 98.00 395.12 94.36
  A 1.94 1.93 61.5 0 0 395.89 91.76
  L 395.82 91.63
  A 2.06 2.06 0.0 0 0 393.20 90.69
  C 384.82 94.20 382.78 105.35 384.60 113.38
  Q 385.00 115.15 386.68 116.75
  A 2.86 2.86 0.0 0 0 390.24 117.05
  L 390.26 117.03
  A 1.99 1.98 -38.8 0 0 390.60 114.01
  Z"
/>
<path d="
  M 412.90 198.81
  Q 412.66 198.61 412.59 198.43
  Q 406.40 181.70 398.40 169.81
  A 4.09 4.05 33.9 0 1 397.78 166.72
  C 398.84 161.44 400.14 154.79 405.84 152.22
  A 0.63 0.47 -53.3 0 1 406.04 152.16
  L 411.69 151.18
  A 1.90 1.90 0.0 0 0 413.03 148.39
  Q 411.43 145.50 407.41 146.35
  C 398.53 148.22 395.23 154.26 393.21 162.66
  A 0.40 0.39 29.2 0 1 392.55 162.84
  Q 387.45 157.77 381.12 154.48
  A 0.57 0.57 0.0 0 1 381.03 153.53
  Q 390.13 146.45 396.79 136.48
  A 1.34 1.34 0.0 0 1 398.24 135.93
  C 414.97 140.41 424.58 150.63 420.62 168.63
  Q 417.67 182.02 413.53 198.60
  A 0.39 0.39 0.0 0 1 412.90 198.81
  Z"
/>
<path d="
  M 349.09 167.87
  A 0.46 0.45 -75.1 0 1 349.52 168.62
  C 338.61 180.76 333.01 196.61 336.22 212.59
  Q 339.24 227.58 353.47 237.27
  A 0.95 0.95 0.0 0 1 353.77 238.49
  L 350.84 244.06
  A 1.02 1.02 0.0 0 1 349.46 244.49
  Q 340.53 239.70 333.88 231.13
  C 319.98 213.22 324.01 188.11 336.71 170.89
  A 1.15 1.13 -77.7 0 1 337.40 170.44
  L 349.09 167.87
  Z"
/>
<path d="
  M 231.00 217.22
  L 229.18 219.40
  A 1.17 1.17 0.0 0 1 227.12 218.83
  C 226.76 216.47 221.60 200.99 216.64 205.15
  A 2.08 1.99 52.2 0 0 216.35 207.91
  C 219.69 212.55 222.25 217.99 221.95 223.46
  C 221.85 225.43 220.88 228.83 218.54 229.08
  C 216.43 229.32 215.54 228.08 215.18 226.03
  Q 213.93 218.92 209.17 213.89
  C 207.66 212.29 204.52 209.87 202.83 212.20
  A 2.42 2.17 -50.9 0 0 202.98 215.24
  C 206.66 218.68 209.56 222.69 210.20 227.71
  Q 210.73 231.86 207.69 233.95
  A 1.73 1.72 29.9 0 1 206.61 234.24
  Q 203.60 234.03 202.89 231.54
  Q 201.05 225.18 196.88 220.65
  C 195.41 219.05 192.27 217.19 190.67 219.62
  A 2.44 2.37 -52.9 0 0 191.06 222.76
  Q 195.44 226.58 197.37 232.45
  A 1.58 1.57 -2.4 0 1 195.51 234.47
  C 188.50 232.82 185.02 224.11 184.18 217.31
  C 183.61 212.76 179.39 213.95 177.82 211.35
  Q 176.06 208.42 176.42 206.72
  C 179.16 194.00 190.70 183.39 204.23 186.26
  A 1.47 1.45 1.5 0 1 205.37 187.45
  Q 205.84 190.24 209.07 190.65
  Q 214.84 191.39 219.37 194.35
  C 226.06 198.72 231.95 205.55 232.20 213.74
  A 5.19 5.18 64.1 0 1 231.00 217.22
  Z"
/>
<path d="
  M 133.33 204.05
  C 123.34 206.00 116.36 211.90 110.11 219.52
  A 0.62 0.62 0.0 0 1 109.20 219.57
  Q 102.70 213.19 93.98 209.43
  A 0.97 0.97 0.0 0 1 93.60 207.94
  C 99.86 200.01 106.86 192.86 116.18 189.45
  Q 120.67 187.81 124.45 187.94
  A 3.27 3.26 -17.6 0 1 126.91 189.21
  Q 131.78 195.52 133.87 203.18
  A 0.70 0.69 77.0 0 1 133.33 204.05
  Z"
/>
<path d="
  M 132.63 189.26
  Q 139.72 190.42 144.93 196.43
  A 1.26 1.21 18.9 0 1 145.20 196.95
  L 146.75 204.05
  A 0.78 0.78 0.0 0 1 145.86 204.99
  L 138.28 203.74
  A 0.85 0.85 0.0 0 1 137.60 203.12
  C 136.79 200.05 135.68 196.54 134.49 194.36
  Q 132.35 190.45 132.14 189.84
  A 0.44 0.44 0.0 0 1 132.63 189.26
  Z"
/>
<path d="
  M 46.94 294.05
  Q 50.18 283.81 47.26 270.98
  C 45.32 262.51 43.35 256.96 42.38 249.49
  C 39.76 229.41 38.74 215.86 30.72 201.04
  A 0.36 0.36 0.0 0 1 31.09 200.51
  C 46.44 202.63 53.54 219.74 54.96 233.28
  Q 55.23 235.83 55.14 236.67
  A 2.57 2.56 -28.1 0 1 54.84 237.65
  C 51.03 244.44 50.73 251.48 50.43 259.81
  Q 50.30 263.25 50.94 270.67
  Q 51.96 282.60 52.32 292.89
  A 0.64 0.63 83.0 0 1 51.82 293.54
  L 47.37 294.52
  A 0.37 0.37 0.0 0 1 46.94 294.05
  Z"
/>
<path d="
  M 35.95 297.87
  A 0.24 0.23 8.8 0 1 35.72 297.57
  Q 39.55 285.77 37.03 272.45
  C 35.59 264.82 32.98 256.99 32.39 249.80
  C 31.17 234.79 29.48 218.66 20.95 205.66
  A 2.10 2.09 64.3 0 1 22.05 202.52
  L 22.64 202.33
  A 3.97 3.97 0.0 0 1 27.45 204.39
  Q 33.65 217.40 35.58 231.20
  Q 37.00 241.38 37.68 248.10
  C 39.21 263.20 47.46 278.00 42.52 293.03
  Q 40.93 297.86 35.95 297.87
  Z"
/>
<path d="
  M 20.59 216.60
  L 13.66 216.60
  A 0.50 0.50 0.0 0 1 13.20 215.92
  L 15.55 209.92
  A 0.66 0.66 0.0 0 1 16.70 209.78
  L 21.00 215.80
  A 0.51 0.50 -17.9 0 1 20.59 216.60
  Z"
/>
<path d="
  M 245.92 239.12
  A 0.48 0.48 0.0 0 1 245.32 239.34
  L 227.66 232.40
  A 0.85 0.85 0.0 0 1 227.15 231.36
  L 228.13 228.05
  A 1.68 1.67 88.2 0 1 229.14 226.97
  Q 234.59 224.93 236.84 219.58
  A 0.84 0.84 0.0 0 1 237.92 219.13
  L 253.11 225.09
  A 0.16 0.16 0.0 0 1 253.19 225.31
  L 245.92 239.12
  Z"
/>
<path d="
  M 13.06 230.64
  L 13.06 222.02
  A 0.61 0.61 0.0 0 1 13.67 221.41
  L 22.39 221.41
  A 0.61 0.61 0.0 0 1 22.99 221.89
  L 24.88 230.51
  A 0.61 0.61 0.0 0 1 24.28 231.25
  L 13.67 231.25
  A 0.61 0.61 0.0 0 1 13.06 230.64
  Z"
/>
<path d="
  M 75.94 235.07
  A 0.40 0.39 24.6 0 1 75.72 234.50
  L 80.32 226.54
  A 1.89 1.89 0.0 0 1 82.41 225.65
  Q 85.31 226.36 88.86 228.14
  Q 104.05 235.77 111.49 250.86
  A 1.46 1.46 0.0 0 1 110.50 252.93
  L 96.54 255.99
  A 0.79 0.79 0.0 0 1 95.67 255.58
  C 90.71 246.08 86.47 238.79 75.94 235.07
  Z"
/>
<path d="
  M 286.06 230.43
  A 1.87 1.87 0.0 0 1 289.01 231.41
  C 290.42 236.57 284.42 243.20 286.09 249.99
  A 4.37 4.36 -39.7 0 1 285.82 252.84
  L 278.88 267.95
  A 4.04 4.04 0.0 0 1 272.72 269.45
  L 272.56 269.32
  A 6.22 6.21 -59.3 0 1 270.77 262.29
  Q 277.39 245.33 278.65 242.64
  C 280.55 238.58 282.95 232.86 286.06 230.43
  Z"
/>
<path d="
  M 273.75 237.95
  L 269.82 246.26
  A 0.81 0.81 0.0 0 1 268.80 246.66
  L 253.25 240.56
  A 0.81 0.81 0.0 0 1 252.81 239.46
  L 256.74 231.15
  A 0.81 0.81 0.0 0 1 257.76 230.75
  L 273.31 236.85
  A 0.81 0.81 0.0 0 1 273.75 237.95
  Z"
/>
<path d="
  M 294.38 231.10
  Q 299.25 232.84 308.94 236.38
  C 315.33 238.71 321.09 241.77 319.03 249.53
  C 317.59 254.96 315.77 258.92 309.19 258.27
  Q 297.88 257.15 291.41 247.29
  Q 291.01 246.67 291.16 244.28
  Q 291.23 243.21 292.07 241.32
  Q 294.15 236.62 293.61 231.71
  A 0.58 0.58 0.0 0 1 294.38 231.10
  Z
  M 308.51 250.77
  A 3.59 3.59 0.0 0 0 304.92 247.18
  A 3.59 3.59 0.0 0 0 301.33 250.77
  A 3.59 3.59 0.0 0 0 304.92 254.36
  A 3.59 3.59 0.0 0 0 308.51 250.77
  Z"
/>
<path d="
  M 364.89 234.01
  Q 368.40 250.65 365.67 267.99
  A 1.69 1.68 -4.6 0 1 364.52 269.33
  Q 357.80 271.52 351.65 276.34
  C 349.43 278.08 339.61 276.63 337.30 276.17
  A 0.32 0.31 -64.6 0 1 337.12 275.66
  Q 352.79 257.15 363.89 233.89
  A 0.53 0.53 0.0 0 1 364.89 234.01
  Z"
/>
<path d="
  M 15.02 246.23
  L 14.05 236.74
  A 0.75 0.75 0.0 0 1 14.79 235.91
  L 25.13 235.91
  A 0.75 0.75 0.0 0 1 25.88 236.58
  L 26.85 246.07
  A 0.75 0.75 0.0 0 1 26.11 246.90
  L 15.77 246.90
  A 0.75 0.75 0.0 0 1 15.02 246.23
  Z"
/>
<path d="
  M 61.85 242.08
  A 1.65 1.65 0.0 0 1 63.35 239.61
  L 64.20 239.64
  A 4.72 4.70 78.0 0 1 68.24 242.28
  Q 70.74 247.39 71.79 252.77
  Q 74.52 266.71 73.82 281.26
  C 73.41 289.92 74.68 298.72 73.84 307.01
  C 73.57 309.68 70.75 309.98 68.86 309.58
  A 0.55 0.55 0.0 0 1 68.45 308.89
  Q 69.81 303.97 69.21 296.25
  C 68.40 285.91 68.16 267.79 65.66 253.34
  Q 64.53 246.78 61.85 242.08
  Z"
/>
<path d="
  M 72.37 239.96
  Q 73.41 239.84 74.51 240.27
  C 88.05 245.62 93.96 261.28 92.61 275.00
  A 2.77 2.77 0.0 0 0 94.92 278.01
  L 95.48 278.11
  A 1.68 1.67 -81.5 0 0 97.41 276.67
  Q 98.34 269.75 97.30 262.77
  A 0.61 0.61 0.0 0 1 97.77 262.09
  L 107.57 259.94
  A 1.39 1.37 -24.8 0 1 108.96 260.44
  Q 110.18 262.03 111.48 265.01
  Q 118.22 280.49 116.08 297.53
  Q 115.61 301.31 113.78 304.15
  A 2.54 2.52 -73.5 0 1 111.65 305.32
  Q 95.19 305.38 79.12 308.75
  A 0.67 0.67 0.0 0 1 78.32 308.00
  Q 78.93 303.70 78.76 301.50
  Q 78.04 292.11 78.29 278.91
  C 78.52 266.25 78.50 251.94 72.02 240.64
  A 0.46 0.46 0.0 0 1 72.37 239.96
  Z"
/>
<path d="
  M 154.86 245.31
  A 0.10 0.09 71.2 0 1 154.93 245.16
  L 163.04 244.32
  A 0.63 0.62 -18.1 0 1 163.62 244.61
  Q 169.76 254.69 170.36 265.13
  A 0.77 0.77 0.0 0 1 169.56 265.94
  L 161.39 265.61
  A 0.92 0.92 0.0 0 1 160.50 264.67
  Q 160.63 254.36 154.86 245.31
  Z"
/>
<path d="
  M 122.31 252.74
  A 0.59 0.59 0.0 0 1 122.51 251.88
  C 130.57 247.49 139.88 246.12 149.07 245.76
  A 1.45 1.45 0.0 0 1 150.36 246.43
  Q 154.69 253.09 155.96 261.54
  Q 156.34 264.08 156.20 264.97
  A 0.76 0.75 2.8 0 1 155.49 265.61
  Q 145.45 266.07 136.90 268.93
  Q 132.95 270.25 131.70 270.63
  A 0.56 0.55 72.4 0 1 131.01 270.27
  Q 127.98 260.81 122.31 252.74
  Z"
/>
<path d="
  M 58.58 247.14
  L 61.46 254.47
  A 0.65 0.64 87.4 0 1 60.68 255.33
  L 57.55 254.40
  A 1.05 1.04 12.8 0 1 56.81 253.23
  L 57.80 247.23
  A 0.41 0.41 0.0 0 1 58.58 247.14
  Z"
/>
<path d="
  M 30.17 266.39
  L 21.21 266.03
  A 0.33 0.33 0.0 0 1 20.91 265.80
  L 16.53 251.93
  A 0.33 0.33 0.0 0 1 16.84 251.50
  L 27.05 251.50
  A 0.33 0.33 0.0 0 1 27.38 251.76
  L 30.51 265.99
  A 0.33 0.33 0.0 0 1 30.17 266.39
  Z"
/>
<path d="
  M 311.19 264.98
  Q 308.17 273.12 304.40 277.66
  Q 302.76 279.64 299.07 278.69
  Q 291.17 276.65 282.18 273.19
  A 0.60 0.60 0.0 0 1 281.86 272.37
  L 290.06 255.02
  A 0.40 0.39 -54.2 0 1 290.71 254.91
  C 296.19 260.83 301.87 264.13 310.68 264.23
  A 0.55 0.55 0.0 0 1 311.19 264.98
  Z"
/>
<path d="
  M 335.36 265.67
  A 0.25 0.25 0.0 0 1 335.44 266.02
  L 331.96 271.44
  A 5.53 2.61 -57.3 0 1 326.78 274.68
  L 318.36 269.28
  A 5.53 2.61 -57.3 0 1 319.15 263.22
  L 322.63 257.80
  A 0.25 0.25 0.0 0 1 322.98 257.72
  L 335.36 265.67
  Z"
/>
<path d="
  M 63.08 270.31
  A 0.33 0.33 0.0 0 1 62.63 270.65
  L 57.74 268.73
  A 0.51 0.51 0.0 0 1 57.43 268.33
  L 56.57 259.88
  A 0.78 0.78 0.0 0 1 57.57 259.05
  L 61.21 260.13
  A 1.32 1.32 0.0 0 1 62.15 261.26
  L 63.08 270.31
  Z"
/>
<path d="
  M 373.40 267.67
  Q 376.82 262.14 381.86 261.09
  Q 398.90 257.55 411.74 270.78
  C 415.17 274.32 411.67 282.26 410.25 286.00
  A 8.05 7.95 -33.0 0 0 409.75 288.29
  C 409.36 293.97 408.25 297.47 403.70 300.74
  Q 401.71 302.18 396.65 303.88
  Q 392.77 305.19 388.06 308.79
  Q 384.99 311.14 381.28 310.69
  A 1.89 1.89 0.0 0 1 379.74 308.14
  C 381.68 303.04 385.29 299.97 389.84 296.53
  A 1.96 1.95 59.1 0 0 390.43 294.14
  C 389.21 291.53 386.15 292.80 384.25 294.01
  Q 376.99 298.62 374.38 305.51
  A 5.00 4.99 11.4 0 1 369.51 308.73
  L 369.15 308.71
  A 2.55 2.54 -81.7 0 1 366.79 305.53
  C 368.37 299.40 371.63 296.03 376.49 292.38
  A 1.41 1.37 -14.9 0 0 377.04 291.46
  C 377.46 288.76 374.63 287.48 372.35 288.88
  Q 365.50 293.08 362.59 299.60
  C 361.64 301.72 361.22 304.57 359.39 305.31
  C 357.10 306.23 352.44 306.19 353.11 302.34
  C 354.04 297.02 358.31 291.76 362.76 289.05
  A 2.50 2.50 0.0 0 0 363.61 285.64
  L 363.56 285.56
  A 2.63 2.62 61.3 0 0 360.13 284.55
  Q 350.97 289.12 347.79 299.77
  Q 347.09 302.10 345.22 301.53
  C 342.61 300.74 343.22 296.93 343.97 294.97
  Q 346.88 287.47 352.45 283.44
  C 359.64 278.24 365.44 274.96 373.59 273.81
  A 2.44 2.35 81.2 0 0 375.56 271.01
  Q 375.34 269.67 373.65 268.68
  A 0.73 0.73 0.0 0 1 373.40 267.67
  Z"
/>
<path d="
  M 32.11 282.48
  L 22.68 282.48
  A 0.96 0.96 0.0 0 1 21.72 281.62
  L 20.73 272.00
  A 0.96 0.96 0.0 0 1 21.68 270.94
  L 31.11 270.94
  A 0.96 0.96 0.0 0 1 32.07 271.80
  L 33.06 281.42
  A 0.96 0.96 0.0 0 1 32.11 282.48
  Z"
/>
<path d="
  M 58.11 278.55
  Q 57.94 276.48 57.85 274.41
  A 0.61 0.61 0.0 0 1 58.68 273.82
  L 62.37 275.27
  A 1.28 1.28 0.0 0 1 63.17 276.34
  Q 63.21 276.80 63.34 278.33
  Q 63.50 280.40 63.59 282.47
  A 0.61 0.61 0.0 0 1 62.76 283.06
  L 59.07 281.61
  A 1.28 1.28 0.0 0 1 58.27 280.53
  Q 58.23 280.08 58.11 278.55
  Z"
/>
<path d="
  M 58.68 293.00
  Q 58.60 290.10 58.45 287.20
  A 0.41 0.41 0.0 0 1 59.01 286.80
  L 63.22 288.45
  A 1.49 1.48 -84.7 0 1 64.14 289.56
  Q 64.29 290.38 64.36 292.88
  Q 64.43 295.77 64.59 298.68
  A 0.41 0.41 0.0 0 1 64.03 299.08
  L 59.82 297.43
  A 1.49 1.48 -84.7 0 1 58.90 296.31
  Q 58.75 295.50 58.68 293.00
  Z"
/>
<path d="
  M 32.90 287.54
  L 31.56 295.64
  A 1.17 1.17 0.0 0 1 29.70 296.38
  Q 25.33 293.06 23.52 287.56
  A 0.22 0.21 80.3 0 1 23.72 287.27
  L 32.67 287.27
  A 0.24 0.23 -85.7 0 1 32.90 287.54
  Z"
/>
<path d="
  M 58.62 301.10
  A 0.12 0.12 0.0 0 1 58.78 300.95
  L 64.44 303.18
  A 0.42 0.42 0.0 0 1 64.71 303.56
  Q 64.81 305.79 63.73 307.65
  A 0.78 0.78 0.0 0 1 62.50 307.81
  Q 59.81 305.10 58.62 301.10
  Z"
/>
</g>
<path fill="#ff8c3a" d="
  M 311.50 69.39
  Q 312.07 76.77 316.07 82.17
  A 2.75 2.74 -54.0 0 1 316.46 84.68
  L 314.71 89.88
  A 1.96 1.95 19.2 0 0 315.91 92.35
  L 316.02 92.40
  A 1.98 1.98 0.0 0 0 318.64 91.24
  L 321.08 84.38
  A 4.11 4.07 -43.2 0 0 321.17 81.96
  Q 321.15 81.91 318.88 78.45
  C 316.32 74.54 314.76 69.36 316.98 65.27
  C 318.10 63.22 317.70 62.50 316.79 60.51
  A 3.63 3.62 -57.2 0 1 316.47 59.02
  L 316.55 50.43
  A 1.97 1.94 65.2 0 1 317.00 49.18
  L 327.36 36.74
  A 0.53 0.53 0.0 0 1 327.99 36.60
  C 349.40 46.50 361.30 65.82 357.87 89.89
  C 355.19 108.72 342.46 124.70 325.65 132.74
  Q 305.05 142.60 281.55 136.93
  C 256.71 130.95 237.89 114.12 237.37 87.19
  C 237.16 76.29 239.71 65.44 245.69 56.10
  C 262.09 30.52 294.04 25.35 321.50 34.05
  A 0.31 0.31 0.0 0 1 321.63 34.56
  L 311.11 46.22
  A 1.87 1.85 -23.5 0 0 310.63 47.41
  L 310.02 62.68
  A 1.38 1.37 -16.5 0 1 309.44 63.74
  L 299.86 70.59
  A 3.28 3.14 -6.9 0 0 298.80 71.88
  C 295.59 78.99 293.19 83.90 288.80 89.90
  A 1.59 1.59 0.0 0 0 289.63 92.35
  L 289.66 92.36
  A 2.92 2.91 25.7 0 0 292.88 91.24
  Q 298.05 83.82 301.45 76.19
  A 2.76 2.69 84.9 0 1 302.33 75.11
  L 310.79 69.06
  A 0.45 0.45 0.0 0 1 311.50 69.39
  Z"
/>
</svg>
