<?xml version="1.0" encoding="UTF-8" standalone="no"?>
<!DOCTYPE svg PUBLIC "-//W3C//DTD SVG 1.1//EN" "http://www.w3.org/Graphics/SVG/1.1/DTD/svg11.dtd">
<svg xmlns="http://www.w3.org/2000/svg" version="1.1" viewBox="0.00 0.00 688.00 460.00">
<g stroke-width="2.00" fill="none" stroke-linecap="butt">
<path stroke="#807874" vector-effect="non-scaling-stroke" d="
  M 539.72 185.41
  Q 536.41 187.37 536.57 191.90"
/>
<path stroke="#258ad8" vector-effect="non-scaling-stroke" d="
  M 536.57 191.90
  L 530.12 191.59
  A 2.42 2.41 1.5 0 0 527.58 194.00
  L 527.58 198.96
  A 2.66 2.65 -0.4 0 0 530.28 201.61
  L 536.92 201.52"
/>
<path stroke="#807874" vector-effect="non-scaling-stroke" d="
  M 536.92 201.52
  Q 536.73 206.05 538.59 207.93"
/>
<path stroke="#80b2dd" vector-effect="non-scaling-stroke" d="
  M 419.01 39.48
  A 0.16 0.16 0.0 0 0 419.21 39.23
  C 399.98 17.88 373.29 6.39 344.35 8.38
  C 308.02 10.88 276.76 33.81 267.00 69.09
  A 0.29 0.29 0.0 0 0 267.50 69.35
  C 272.95 62.86 281.23 59.14 289.56 60.93
  C 298.58 62.86 304.92 71.71 306.95 80.30
  Q 309.42 90.75 305.70 101.50
  C 300.79 115.67 287.61 124.22 273.40 116.46
  C 270.91 115.11 269.02 113.12 267.22 110.97
  A 0.33 0.33 0.0 0 0 266.67 111.32
  L 270.85 120.15
  A 5.06 5.03 3.1 0 0 272.81 122.32
  C 278.40 125.68 282.57 130.59 287.58 134.46
  C 312.97 154.06 343.35 162.10 375.25 160.95
  Q 390.29 160.41 403.57 153.63
  A 0.13 0.02 -25.8 0 0 403.67 153.56
  Q 403.67 153.52 403.68 153.48
  A 0.14 0.09 -8.4 0 0 403.49 153.40
  C 387.81 158.35 370.39 153.59 356.09 146.38
  C 325.17 130.80 311.30 93.23 329.81 62.53
  C 338.25 48.53 353.39 39.11 369.22 35.44
  C 385.53 31.66 403.66 31.14 419.01 39.48"
/>
<path stroke="#807874" vector-effect="non-scaling-stroke" d="
  M 359.50 139.76
  Q 373.95 146.89 389.63 147.57
  Q 413.56 148.62 427.04 130.46
  C 440.07 112.92 442.26 92.43 436.82 71.25
  C 434.72 63.07 430.41 56.26 424.17 51.34
  C 406.68 37.52 383.02 39.74 362.92 45.64
  C 351.07 49.12 338.36 60.42 333.88 71.37
  Q 330.57 79.46 329.69 88.56
  C 327.61 110.14 340.46 130.36 359.50 139.76"
/>
<path stroke="#258ad8" vector-effect="non-scaling-stroke" d="
  M 293.99 90.18
  C 293.88 99.38 290.00 107.99 281.51 112.24
  A 0.38 0.38 0.0 0 0 281.67 112.95
  C 294.15 113.23 300.93 101.50 301.07 90.26
  C 301.20 79.02 294.68 67.13 282.20 67.13
  A 0.38 0.38 0.0 0 0 282.02 67.83
  C 290.42 72.28 294.09 80.98 293.99 90.18"
/>
<path stroke="#258ad8" vector-effect="non-scaling-stroke" d="
  M 277.3926 72.2301
  A 17.92 11.75 -89.8 0 0 265.5801 90.1090
  A 17.92 11.75 -89.8 0 0 277.2674 108.0699
  A 17.92 11.75 -89.8 0 0 289.0799 90.1910
  A 17.92 11.75 -89.8 0 0 277.3926 72.2301"
/>
<path stroke="#258ad8" vector-effect="non-scaling-stroke" d="
  M 239.83 119.23
  Q 249.71 114.27 260.02 116.59
  A 0.38 0.38 0.0 0 0 260.46 116.08
  Q 257.06 107.00 256.24 97.04
  A 0.96 0.95 -88.1 0 0 255.43 96.17
  L 236.73 93.37
  A 0.26 0.25 70.6 0 0 236.52 93.81
  C 242.93 99.63 242.09 111.71 239.48 118.93
  A 0.25 0.25 0.0 0 0 239.83 119.23"
/>
<path stroke="#258ad8" vector-effect="non-scaling-stroke" d="
  M 200.85 118.69
  A 0.96 0.95 -61.8 0 0 201.17 119.77
  Q 210.29 126.69 219.34 130.53
  A 0.65 0.64 41.5 0 0 219.92 130.50
  L 231.65 123.73
  A 2.96 2.84 89.8 0 0 232.74 122.59
  C 236.82 114.85 239.24 100.90 229.98 95.70
  C 221.63 91.02 212.63 97.42 207.92 104.48
  Q 203.80 110.63 200.85 118.69"
/>
<path stroke="#258ad8" vector-effect="non-scaling-stroke" d="
  M 251.07 122.82
  A 0.35 0.35 0.0 0 0 250.98 123.49
  C 260.94 127.89 268.17 133.18 273.08 143.19
  Q 282.65 162.69 272.49 181.21
  Q 271.46 183.07 268.98 187.10
  C 268.11 188.52 268.13 189.66 269.27 190.68
  A 0.91 0.91 0.0 0 0 270.21 190.84
  C 279.33 187.09 283.61 178.32 285.98 169.26
  Q 288.21 160.77 285.72 152.54
  C 282.64 142.34 275.69 131.40 267.40 126.10
  Q 260.22 121.50 251.07 122.82"
/>
<path stroke="#258ad8" vector-effect="non-scaling-stroke" d="
  M 197.21 125.69
  L 174.07 176.56
  A 1.35 1.35 0.0 0 0 174.49 178.20
  L 182.95 184.52
  A 0.87 0.86 -61.7 0 0 184.29 184.11
  C 190.85 165.71 200.15 149.45 214.02 135.77
  A 0.28 0.28 0.0 0 0 213.97 135.34
  L 198.04 125.43
  A 0.58 0.58 0.0 0 0 197.21 125.69"
/>
<path stroke="#80b2dd" vector-effect="non-scaling-stroke" d="
  M 266.22 176.49
  C 269.79 170.68 271.46 164.20 270.33 157.24
  C 267.67 140.79 255.25 126.67 237.24 130.30
  Q 230.73 131.61 223.24 137.49
  Q 215.50 143.57 213.62 151.89
  Q 211.36 161.88 211.13 168.19
  Q 210.33 190.45 218.08 212.42
  A 0.31 0.31 0.0 0 0 218.64 212.48
  C 228.04 197.90 243.27 188.49 260.79 185.89
  A 0.59 0.58 -7.1 0 0 261.29 185.25
  L 259.08 161.98
  A 3.01 3.00 -11.5 0 1 261.18 158.82
  L 261.52 158.71
  A 2.46 2.46 0.0 0 1 264.76 160.88
  L 265.75 176.37
  A 0.26 0.25 59.1 0 0 266.22 176.49"
/>
<path stroke="#258ad8" vector-effect="non-scaling-stroke" d="
  M 292.89 152.61
  A 0.32 0.32 0.0 0 0 293.03 152.83
  Q 326.60 173.87 365.78 173.07
  C 369.46 173.00 374.62 172.23 376.63 168.72
  A 0.57 0.57 0.0 0 0 376.11 167.86
  Q 362.76 168.61 347.91 166.79
  Q 318.30 163.17 292.13 145.83
  A 0.09 0.09 0.0 0 0 291.99 145.91
  L 292.89 152.61"
/>
<path stroke="#80b2dd" vector-effect="non-scaling-stroke" d="
  M 205.30 158.55
  A 0.18 0.17 -20.9 0 0 204.98 158.41
  C 197.71 169.83 192.95 183.18 188.94 196.67
  A 0.56 0.56 0.0 0 0 189.15 197.28
  Q 199.93 205.06 210.00 210.61
  A 0.21 0.20 -85.4 0 0 210.29 210.36
  Q 202.44 187.26 204.74 161.28
  Q 204.84 160.12 205.30 158.55"
/>
<path stroke="#80b2dd" vector-effect="non-scaling-stroke" d="
  M 363.04 180.17
  Q 326.16 179.82 293.98 161.33
  A 0.19 0.18 16.4 0 0 293.70 161.48
  Q 293.14 173.64 287.09 184.73
  C 284.77 189.00 280.72 192.79 276.76 195.27
  A 0.38 0.38 0.0 0 0 276.83 195.95
  L 290.29 200.95
  A 0.92 0.92 0.0 0 0 291.42 200.53
  Q 296.06 192.01 299.56 182.66
  C 301.62 177.14 304.35 173.37 310.26 175.28
  Q 331.48 182.13 347.84 185.14
  Q 354.56 186.37 352.68 193.41
  Q 350.85 200.25 348.68 204.92
  A 0.39 0.38 12.4 0 0 349.04 205.47
  L 352.23 205.47
  A 1.05 1.02 12.5 0 0 353.17 204.89
  C 354.99 201.18 357.40 196.16 358.76 192.26
  Q 360.94 186.00 363.31 180.59
  A 0.30 0.30 0.0 0 0 363.04 180.17"
/>
<path stroke="#80b2dd" vector-effect="non-scaling-stroke" d="
  M 400.18 177.10
  L 390.42 167.34
  A 0.92 0.90 -24.7 0 0 389.69 167.08
  L 384.91 167.53
  A 0.93 0.92 3.0 0 0 384.10 168.25
  Q 382.83 174.25 377.10 177.32
  A 0.25 0.24 -58.8 0 0 377.21 177.78
  L 399.90 177.78
  A 0.40 0.40 0.0 0 0 400.18 177.10"
/>
<path stroke="#258ad8" vector-effect="non-scaling-stroke" d="
  M 514.75 210.22
  Q 512.13 205.84 511.72 201.14
  C 511.08 193.88 510.99 187.38 514.74 181.38
  A 0.56 0.55 20.8 0 0 514.36 180.54
  C 508.98 179.63 504.74 181.86 503.34 187.13
  C 501.93 192.44 502.05 199.05 502.54 204.48
  C 503.16 211.33 508.39 212.38 514.43 210.97
  A 0.51 0.50 -22.2 0 0 514.75 210.22"
/>
<path stroke="#258ad8" vector-effect="non-scaling-stroke" d="
  M 525.29 206.73
  Q 521.20 203.12 521.67 195.22
  Q 522.02 189.44 524.76 186.00
  A 2.65 2.65 0.0 0 0 524.44 182.37
  L 524.22 182.18
  A 2.20 2.19 -53.8 0 0 520.89 182.70
  Q 515.93 190.98 518.04 201.76
  Q 519.05 206.94 521.14 209.17
  A 1.89 1.88 53.5 0 0 523.45 209.52
  L 525.11 208.56
  A 1.13 1.13 0.0 0 0 525.29 206.73"
/>
<path stroke="#80b2dd" vector-effect="non-scaling-stroke" d="
  M 335.04 206.88
  L 339.84 206.02
  A 1.77 1.76 6.9 0 0 341.12 205.02
  L 346.62 192.92
  A 0.76 0.76 0.0 0 0 346.06 191.85
  Q 330.96 189.32 318.16 185.16
  Q 312.40 183.29 308.28 182.45
  A 0.58 0.58 0.0 0 0 307.60 182.91
  C 306.32 189.40 302.77 195.20 299.33 201.75
  A 0.37 0.37 0.0 0 0 299.59 202.28
  Q 309.15 204.24 318.76 207.22
  Q 319.75 207.53 320.72 208.88
  A 0.87 0.86 67.0 0 0 321.58 209.23
  L 329.98 207.72
  A 0.27 0.27 0.0 0 0 330.01 207.20
  Q 328.80 206.82 328.35 206.05
  A 1.75 1.31 -31.2 0 1 329.16 204.04
  Q 330.85 203.01 334.46 201.50
  A 0.51 0.51 0.0 0 0 334.68 200.73
  L 332.85 198.15
  A 2.26 2.26 0.0 0 1 333.36 195.01
  L 333.50 194.91
  A 2.22 2.22 0.0 0 1 336.63 195.36
  Q 339.82 199.63 340.15 200.11
  Q 341.80 202.47 339.80 203.78
  Q 337.77 205.10 334.87 206.31
  A 0.30 0.30 0.0 0 0 335.04 206.88"
/>
<path stroke="#258ad8" vector-effect="non-scaling-stroke" d="
  M 171.07 183.95
  C 166.77 191.07 164.57 201.11 170.22 207.99
  A 0.54 0.54 0.0 0 0 171.13 207.88
  Q 174.49 200.58 180.71 195.51
  Q 182.23 194.28 182.36 191.63
  A 0.80 0.79 18.1 0 0 182.00 190.93
  L 171.52 183.86
  A 0.32 0.32 0.0 0 0 171.07 183.95"
/>
<path stroke="#258ad8" vector-effect="non-scaling-stroke" d="
  M 360.81 205.88
  L 370.23 208.75
  A 4.67 4.48 -36.3 0 0 371.67 208.94
  Q 401.85 207.96 436.24 208.80
  A 0.68 0.68 0.0 0 0 436.94 208.12
  L 436.94 198.01
  A 0.95 0.95 0.0 0 0 435.99 197.06
  L 396.97 197.06
  A 3.09 3.09 0.0 0 1 393.88 193.97
  L 393.88 193.40
  A 2.65 2.64 90.0 0 1 396.52 190.75
  L 436.45 190.75
  A 1.19 1.19 0.0 0 0 437.64 189.56
  L 437.64 186.22
  A 1.05 1.05 0.0 0 0 436.61 185.17
  Q 400.67 184.75 373.75 185.57
  Q 370.91 185.66 369.36 188.37
  Q 364.59 196.76 360.59 205.40
  A 0.35 0.35 0.0 0 0 360.81 205.88"
/>
<path stroke="#258ad8" vector-effect="non-scaling-stroke" d="
  M 496.46 185.61
  L 444.40 185.61
  A 1.10 1.09 -84.6 0 0 443.33 186.50
  Q 441.20 197.54 442.02 207.99
  A 0.84 0.84 0.0 0 0 442.86 208.77
  L 445.78 208.77
  A 1.38 1.36 -72.6 0 0 446.91 208.17
  C 450.65 202.75 453.38 201.89 459.86 202.40
  A 0.98 0.97 20.7 0 0 460.71 202.02
  Q 461.24 201.32 462.22 199.93
  C 465.71 194.95 471.43 196.37 475.76 199.44
  A 0.94 0.93 46.3 0 0 476.77 199.47
  C 477.73 198.89 478.73 198.00 479.76 197.61
  C 486.34 195.13 491.00 199.88 494.02 205.31
  Q 494.56 206.29 496.41 205.94
  A 0.56 0.56 0.0 0 0 496.86 205.31
  C 495.85 198.60 495.26 193.05 497.04 186.35
  A 0.60 0.59 7.1 0 0 496.46 185.61"
/>
<path stroke="#80b2dd" vector-effect="non-scaling-stroke" d="
  M 238.48 200.33
  A 0.14 0.14 0.0 0 0 238.46 200.55
  L 244.94 206.11
  A 0.28 0.27 -48.8 0 0 245.32 206.08
  Q 253.07 197.20 262.78 193.72
  A 1.06 1.05 31.1 0 0 262.27 191.68
  Q 249.51 193.43 238.48 200.33"
/>
<path stroke="#80b2dd" vector-effect="non-scaling-stroke" d="
  M 274.45 247.43
  C 269.12 233.59 274.85 216.92 284.32 206.47
  A 0.41 0.41 0.0 0 0 284.13 205.81
  Q 275.06 203.08 268.39 198.48
  A 1.17 1.17 0.0 0 0 267.45 198.30
  C 251.75 202.15 242.51 216.51 243.06 232.23
  Q 243.19 236.04 244.57 239.41
  A 1.79 1.78 89.5 0 0 245.58 240.41
  Q 259.62 245.89 274.15 247.81
  A 0.28 0.28 0.0 0 0 274.45 247.43"
/>
<path stroke="#258ad8" vector-effect="non-scaling-stroke" d="
  M 212.63 219.92
  Q 202.31 215.48 193.36 208.92
  Q 189.31 205.96 184.75 203.35
  A 1.97 1.96 37.6 0 0 182.42 203.65
  C 179.22 206.73 176.65 211.74 174.72 215.76
  A 1.22 1.20 34.7 0 0 174.98 217.16
  Q 183.98 225.71 195.22 231.01
  Q 199.08 232.83 203.52 233.69
  A 2.22 2.21 20.5 0 0 205.86 232.63
  L 212.84 220.54
  A 0.44 0.44 0.0 0 0 212.63 219.92"
/>
<path stroke="#258ad8" vector-effect="non-scaling-stroke" d="
  M 237.97 237.03
  Q 235.96 222.82 242.31 211.20
  A 0.69 0.68 35.5 0 0 242.16 210.35
  L 234.36 203.65
  A 0.85 0.84 -44.7 0 0 233.27 203.65
  C 228.57 207.65 219.94 217.62 222.75 224.20
  C 224.94 229.31 232.16 235.00 237.36 237.48
  A 0.43 0.43 0.0 0 0 237.97 237.03"
/>
<path stroke="#80b2dd" vector-effect="non-scaling-stroke" d="
  M 485.24 226.02
  A 7.47 7.44 -7.4 0 0 488.46 221.85
  Q 490.81 214.20 487.72 206.25
  A 4.38 4.37 72.1 0 0 482.56 203.60
  L 482.43 203.64
  A 3.56 3.56 0.0 0 0 479.99 208.36
  Q 483.96 218.74 479.55 227.50
  A 0.94 0.93 -2.6 0 0 480.88 228.71
  L 485.24 226.02"
/>
<path stroke="#80b2dd" vector-effect="non-scaling-stroke" d="
  M 464.88 231.72
  C 478.78 233.59 478.03 215.62 474.48 208.00
  A 6.33 6.32 -14.0 0 0 468.40 204.35
  L 468.20 204.36
  A 3.11 3.11 0.0 0 0 465.51 208.73
  Q 468.46 215.39 467.38 224.35
  Q 467.22 225.69 464.49 230.97
  A 0.52 0.52 0.0 0 0 464.88 231.72"
/>
<path stroke="#258ad8" vector-effect="non-scaling-stroke" d="
  M 306.39 252.52
  A 0.44 0.43 79.6 0 0 306.82 251.89
  C 300.30 238.84 303.99 223.09 314.33 213.24
  A 0.72 0.72 0.0 0 0 313.97 212.01
  L 292.69 207.94
  A 1.62 1.53 -46.6 0 0 291.99 207.98
  C 289.28 208.79 285.95 213.24 284.97 215.20
  Q 280.38 224.41 278.90 233.80
  C 278.16 238.54 278.31 246.29 282.48 249.59
  A 2.57 2.54 66.7 0 0 283.84 250.14
  L 306.39 252.52"
/>
<path stroke="#80b2dd" vector-effect="non-scaling-stroke" d="
  M 445.94 229.36
  C 455.35 237.24 462.22 229.07 461.94 219.50
  C 461.87 216.86 461.72 213.69 460.43 211.38
  C 459.00 208.81 456.13 207.20 453.83 209.88
  C 451.78 212.26 451.58 215.31 451.61 218.08
  C 451.66 222.73 449.66 226.26 445.98 228.68
  A 0.43 0.43 0.0 0 0 445.94 229.36"
/>
<path stroke="#80b2dd" vector-effect="non-scaling-stroke" d="
  M 373.15 238.89
  C 376.74 237.78 378.88 234.69 379.13 230.74
  Q 379.45 225.50 375.46 220.70
  C 368.65 212.49 358.16 210.57 347.99 211.15
  Q 334.97 211.89 321.46 215.16
  A 3.41 3.25 21.9 0 0 320.63 215.49
  C 311.50 220.83 304.07 240.86 312.40 249.06
  A 0.79 0.79 0.0 0 0 313.31 249.21
  C 319.12 246.32 326.29 241.11 330.23 247.60
  C 331.77 250.14 331.90 254.78 333.38 256.77
  Q 335.71 259.92 338.72 258.86
  C 343.72 257.09 343.00 249.00 341.48 245.25
  Q 341.10 244.30 339.03 241.15
  A 2.60 2.59 -36.4 0 1 339.55 237.73
  C 343.58 234.39 346.38 240.41 347.14 243.59
  Q 348.35 248.61 348.25 254.14
  A 1.53 1.53 0.0 0 0 350.22 255.64
  Q 352.37 254.99 353.15 253.04
  Q 356.18 245.38 353.99 237.96
  A 5.84 5.70 18.4 0 0 353.00 236.04
  Q 350.73 233.09 350.29 232.39
  A 2.66 2.27 50.7 0 1 350.35 229.44
  Q 352.37 227.11 354.95 229.61
  C 359.86 234.36 360.88 240.99 360.05 247.88
  A 1.08 1.08 0.0 0 0 361.59 248.98
  Q 366.56 246.58 367.04 241.01
  Q 367.91 230.77 360.39 224.59
  A 2.02 2.00 41.1 0 1 360.17 221.66
  C 362.94 218.71 366.95 223.98 368.45 225.98
  Q 372.62 231.57 372.64 238.51
  A 0.40 0.39 81.4 0 0 373.15 238.89"
/>
<path stroke="#258ad8" vector-effect="non-scaling-stroke" d="
  M 385.61 227.26
  C 388.96 224.34 392.35 220.83 392.25 215.78
  A 0.54 0.54 0.0 0 0 391.71 215.25
  L 379.36 215.25
  A 0.38 0.38 0.0 0 0 379.08 215.89
  Q 383.64 220.63 385.08 227.08
  A 0.33 0.33 0.0 0 0 385.61 227.26"
/>
<path stroke="#80b2dd" vector-effect="non-scaling-stroke" d="
  M 264.87 265.34
  C 282.79 282.70 292.22 303.18 278.43 326.70
  Q 258.22 361.16 251.83 371.56
  A 0.94 0.93 -51.7 0 0 251.96 372.71
  L 257.27 378.02
  A 1.38 1.37 -21.3 0 0 258.19 378.42
  Q 278.61 379.04 312.48 378.91
  Q 319.07 378.89 323.49 375.25
  Q 332.21 368.07 341.42 358.18
  C 346.24 353.01 349.65 349.62 356.51 349.49
  Q 363.85 349.36 373.80 349.48
  A 0.93 0.92 -81.8 0 0 374.70 348.80
  C 379.20 331.63 385.85 316.01 397.17 301.92
  Q 419.80 273.76 454.30 263.17
  A 0.35 0.35 0.0 0 0 454.41 262.55
  C 436.67 249.27 422.69 234.31 410.43 215.98
  A 1.17 1.15 -16.3 0 0 409.46 215.46
  L 399.89 215.46
  A 0.65 0.65 0.0 0 0 399.24 216.14
  Q 399.34 219.22 397.38 224.32
  A 0.49 0.48 -59.6 0 0 397.52 224.86
  Q 403.96 230.16 408.29 237.75
  C 411.12 242.70 408.61 249.02 404.33 252.32
  Q 390.86 262.68 382.57 268.54
  C 376.42 272.88 372.60 275.22 366.50 275.07
  Q 357.60 274.86 315.19 274.15
  C 307.27 274.02 301.32 264.91 298.07 258.70
  A 1.03 1.02 78.5 0 0 297.26 258.16
  L 286.31 257.01
  A 0.70 0.70 0.0 0 0 285.59 257.42
  C 281.57 266.60 273.60 265.15 265.04 264.93
  A 0.24 0.24 0.0 0 0 264.87 265.34"
/>
<path stroke="#258ad8" vector-effect="non-scaling-stroke" d="
  M 468.72 258.28
  Q 454.48 249.11 445.31 240.20
  Q 437.25 232.38 425.84 216.14
  A 1.32 1.31 -17.2 0 0 424.76 215.58
  L 416.54 215.58
  A 0.48 0.48 0.0 0 0 416.15 216.35
  Q 424.59 228.07 434.54 238.96
  Q 444.04 249.36 458.52 259.82
  A 4.97 4.94 -29.6 0 0 461.87 260.73
  L 468.27 260.12
  A 1.00 1.00 0.0 0 0 468.72 258.28"
/>
<path stroke="#258ad8" vector-effect="non-scaling-stroke" d="
  M 434.99 216.99
  L 441.35 224.47
  A 1.34 1.33 67.4 0 0 442.46 224.93
  Q 442.93 224.93 443.89 224.40
  C 446.44 222.99 446.37 218.42 445.58 215.99
  A 0.53 0.52 -11.8 0 0 445.03 215.64
  L 435.16 216.58
  A 0.25 0.25 0.0 0 0 434.99 216.99"
/>
<path stroke="#258ad8" vector-effect="non-scaling-stroke" d="
  M 202.77 239.35
  A 0.45 0.45 0.0 0 0 202.45 238.72
  C 191.44 236.64 180.83 229.59 172.64 222.18
  A 0.46 0.46 0.0 0 0 171.90 222.36
  C 170.38 226.38 167.87 233.34 168.81 237.19
  A 2.48 2.46 -71.3 0 0 169.31 238.21
  Q 170.86 240.11 174.71 243.05
  Q 184.23 250.31 195.54 254.18
  A 0.49 0.48 21.4 0 0 196.15 253.92
  L 202.77 239.35"
/>
<path stroke="#258ad8" vector-effect="non-scaling-stroke" d="
  M 216.59 226.79
  A 1.14 1.13 -48.1 0 0 214.60 226.90
  L 201.90 253.27
  A 2.00 2.00 0.0 0 0 204.56 255.95
  L 208.81 253.94
  A 8.79 8.78 -0.5 0 0 213.06 249.62
  L 219.92 234.54
  A 2.82 2.80 41.5 0 0 219.75 231.90
  L 216.59 226.79"
/>
<path stroke="#258ad8" vector-effect="non-scaling-stroke" d="
  M 328.38 263.33
  L 319.41 268.29
  A 0.30 0.29 31.0 0 0 319.55 268.84
  Q 344.64 269.57 364.44 269.76
  C 368.79 269.80 371.84 269.20 375.05 266.78
  Q 387.75 257.20 398.28 249.63
  Q 405.70 244.30 400.01 237.16
  Q 396.76 233.09 393.78 230.44
  A 0.47 0.46 -43.4 0 0 393.18 230.43
  L 384.03 238.03
  A 3.71 3.59 89.1 0 0 383.41 238.69
  C 380.51 242.63 378.12 245.01 373.01 246.35
  A 1.87 1.84 10.1 0 0 371.96 247.07
  C 368.48 251.90 366.14 255.43 359.76 255.53
  A 1.69 1.68 -71.0 0 0 358.46 256.17
  C 355.87 259.41 354.38 262.51 349.59 262.25
  C 348.48 262.19 347.08 261.37 346.18 261.06
  A 0.61 0.61 0.0 0 0 345.42 261.37
  Q 345.04 262.17 343.14 263.90
  Q 338.25 268.39 331.85 265.85
  Q 330.91 265.47 330.44 264.99
  Q 329.10 263.63 329.06 263.55
  A 0.49 0.49 0.0 0 0 328.38 263.33"
/>
<path stroke="#80b2dd" vector-effect="non-scaling-stroke" d="
  M 156.34 233.20
  A 0.53 0.53 0.0 0 0 155.89 232.42
  Q 136.02 231.76 116.07 235.63
  Q 108.06 237.18 100.61 239.83
  A 0.53 0.52 -32.9 0 0 100.42 240.70
  Q 104.55 244.68 110.53 249.13
  Q 128.07 262.17 154.97 281.30
  Q 172.10 293.47 203.96 315.39
  A 0.49 0.48 33.9 0 0 204.64 315.26
  L 211.43 305.21
  A 0.70 0.70 0.0 0 0 211.19 304.22
  Q 192.82 294.02 179.38 279.11
  A 11.42 11.09 -4.9 0 0 176.79 276.99
  Q 168.57 272.06 165.29 267.56
  Q 156.51 255.49 155.22 238.60
  Q 155.00 235.67 156.34 233.20"
/>
<path stroke="#258ad8" vector-effect="non-scaling-stroke" d="
  M 161.32 232.57
  A 0.48 0.47 -81.6 0 0 160.80 232.96
  Q 159.05 243.38 163.12 252.54
  C 165.46 257.83 167.92 261.88 172.33 265.36
  A 0.23 0.23 0.0 0 0 172.69 265.10
  Q 169.80 257.09 169.63 249.51
  A 2.34 2.31 22.3 0 0 168.96 247.93
  C 167.26 246.22 164.35 243.87 163.19 241.79
  Q 160.95 237.78 161.66 232.99
  A 0.37 0.37 0.0 0 0 161.34 232.57
  L 161.32 232.57"
/>
<path stroke="#258ad8" vector-effect="non-scaling-stroke" d="
  M 453.86 239.20
  Q 459.11 244.10 472.99 254.61
  Q 475.28 256.35 477.51 257.29
  A 0.81 0.81 0.0 0 0 478.40 255.97
  L 460.15 237.72
  A 1.29 1.28 -27.4 0 0 458.99 237.36
  L 454.15 238.23
  A 0.57 0.56 -28.5 0 0 453.86 239.20"
/>
<path stroke="#258ad8" vector-effect="non-scaling-stroke" d="
  M 250.67 250.73
  A 0.87 0.87 0.0 0 0 250.06 249.90
  Q 243.34 247.76 234.96 243.55
  Q 230.19 241.15 226.43 237.87
  A 0.57 0.57 0.0 0 0 225.54 238.07
  L 222.93 243.80
  A 0.52 0.51 -74.2 0 0 223.33 244.52
  Q 233.92 245.95 243.38 250.62
  Q 249.70 253.74 250.09 253.98
  A 0.39 0.38 15.2 0 0 250.67 253.65
  L 250.67 250.73"
/>
<path stroke="#80b2dd" vector-effect="non-scaling-stroke" d="
  M 176.48 254.18
  Q 178.42 264.68 182.41 270.62
  Q 188.83 280.17 199.05 287.73
  Q 211.52 296.95 216.84 299.37
  A 0.91 0.91 0.0 0 0 217.68 299.33
  Q 230.54 291.96 245.24 289.38
  A 0.90 0.90 0.0 0 0 245.98 288.38
  Q 245.49 284.70 247.51 283.28
  C 253.27 279.23 262.39 278.65 269.04 279.34
  A 0.17 0.17 0.0 0 0 269.19 279.07
  C 257.14 263.38 240.66 251.88 220.76 249.53
  A 0.81 0.81 0.0 0 0 219.95 249.93
  C 217.04 254.91 215.01 259.40 209.06 261.29
  C 204.47 262.74 199.13 263.20 194.29 261.53
  C 187.95 259.35 180.48 255.50 177.04 253.76
  A 0.39 0.39 0.0 0 0 176.48 254.18"
/>
<path stroke="#258ad8" vector-effect="non-scaling-stroke" d="
  M 257.16 252.90
  L 256.95 255.91
  A 1.68 1.68 0.0 0 0 258.51 257.70
  L 274.25 258.76
  A 2.70 2.69 -73.1 0 0 276.76 257.42
  L 277.28 256.52
  A 0.98 0.98 0.0 0 0 276.52 255.06
  Q 266.37 254.12 258.40 252.01
  A 0.99 0.99 0.0 0 0 257.16 252.90"
/>
<path stroke="#258ad8" vector-effect="non-scaling-stroke" d="
  M 324.44 252.59
  A 0.64 0.64 0.0 0 0 323.59 252.28
  L 316.26 255.74
  A 0.64 0.64 0.0 0 0 316.08 256.77
  L 319.39 260.08
  A 0.64 0.64 0.0 0 0 320.17 260.18
  L 325.84 256.91
  A 0.64 0.64 0.0 0 0 326.10 256.08
  L 324.44 252.59"
/>
<path stroke="#258ad8" vector-effect="non-scaling-stroke" d="
  M 305.34 260.02
  L 309.96 265.60
  A 1.08 1.07 -34.6 0 0 311.31 265.84
  L 312.82 264.96
  A 0.37 0.37 0.0 0 0 312.92 264.40
  L 308.96 259.64
  A 1.76 1.76 0.0 0 0 307.45 259.01
  L 305.68 259.18
  A 0.51 0.51 0.0 0 0 305.34 260.02"
/>
<path stroke="#80b2dd" vector-effect="non-scaling-stroke" d="
  M 536.28 278.85
  C 519.08 267.33 496.52 264.21 476.50 265.81
  Q 468.51 266.45 460.95 268.98
  Q 456.98 270.31 453.42 274.37
  A 0.50 0.50 0.0 0 0 453.37 274.97
  L 463.10 290.73
  A 0.43 0.43 0.0 0 0 463.65 290.90
  Q 486.19 280.63 511.00 279.66
  Q 522.43 279.21 536.08 279.48
  A 0.35 0.34 -27.6 0 0 536.28 278.85"
/>
<path stroke="#258ad8" vector-effect="non-scaling-stroke" d="
  M 478.12 375.63
  C 484.49 380.63 493.45 378.00 495.94 370.22
  Q 497.49 365.36 494.22 359.78
  Q 478.90 333.61 451.66 284.85
  Q 448.74 279.62 447.19 277.52
  Q 445.59 275.35 442.94 276.17
  Q 435.05 278.61 428.08 284.22
  A 0.69 0.68 55.9 0 0 427.92 285.09
  L 473.43 363.91
  A 0.50 0.50 0.0 0 0 474.32 363.87
  C 476.53 359.05 481.84 355.33 487.15 357.61
  C 490.83 359.19 491.70 364.10 491.06 367.55
  C 490.10 372.82 486.00 375.76 480.78 375.37
  Q 478.43 375.19 478.28 375.18
  A 0.25 0.25 0.0 0 0 478.12 375.63"
/>
<path stroke="#258ad8" vector-effect="non-scaling-stroke" d="
  M 252.09 286.81
  A 1.09 1.08 -14.0 0 0 251.38 287.99
  Q 251.80 291.05 252.36 294.51
  Q 254.06 304.96 251.70 315.48
  C 250.20 322.17 267.66 323.23 271.59 323.19
  A 1.17 1.17 0.0 0 0 272.55 322.66
  C 279.65 311.41 281.00 296.84 273.55 285.55
  A 1.00 0.99 -11.7 0 0 272.87 285.11
  Q 261.75 283.41 252.09 286.81"
/>
<path stroke="#80b2dd" vector-effect="non-scaling-stroke" d="
  M 246.19 294.56
  Q 233.62 297.02 222.54 302.67
  A 0.37 0.37 0.0 0 0 222.61 303.36
  Q 235.14 307.05 246.89 308.12
  A 0.37 0.37 0.0 0 0 247.29 307.79
  Q 248.07 301.12 247.01 295.12
  A 0.70 0.70 0.0 0 0 246.19 294.56"
/>
<path stroke="#80b2dd" vector-effect="non-scaling-stroke" d="
  M 426.05 296.36
  C 413.45 308.04 401.77 324.62 399.07 342.02
  Q 398.70 344.41 399.13 346.22
  C 399.92 349.57 404.76 348.52 406.63 347.05
  Q 407.71 346.21 409.46 342.18
  C 414.66 330.26 422.85 317.76 433.15 309.18
  A 0.73 0.73 0.0 0 0 433.32 308.26
  L 426.48 296.42
  A 0.28 0.27 -36.3 0 0 426.05 296.36"
/>
<path stroke="#258ad8" vector-effect="non-scaling-stroke" d="
  M 443.41 326.57
  Q 436.13 336.57 432.54 348.48
  C 424.22 376.09 433.46 406.29 458.35 421.61
  C 475.66 432.27 498.55 432.89 516.73 423.99
  C 556.60 404.47 568.82 348.06 533.63 317.47
  C 516.74 302.80 494.76 299.89 473.28 307.18
  A 0.91 0.91 0.0 0 0 472.75 308.43
  L 475.19 313.59
  A 1.25 1.24 -22.4 0 0 476.74 314.23
  C 505.68 304.03 537.19 319.28 544.52 349.70
  C 551.37 378.11 537.23 405.89 510.85 418.14
  C 501.65 422.41 490.02 423.38 480.35 421.61
  Q 458.96 417.71 447.02 399.85
  C 433.39 379.45 435.07 354.56 447.81 333.90
  A 0.57 0.56 -45.8 0 0 447.81 333.31
  L 443.65 326.58
  A 0.15 0.14 -42.2 0 0 443.41 326.57"
/>
<path stroke="#258ad8" vector-effect="non-scaling-stroke" d="
  M 180.81 327.75
  Q 166.27 307.93 143.37 304.21
  Q 124.90 301.21 108.69 308.96
  C 73.17 325.92 61.36 371.28 82.93 403.56
  C 100.46 429.82 136.43 436.53 162.82 419.83
  Q 172.95 413.42 181.57 402.22
  A 0.25 0.24 42.1 0 0 181.55 401.91
  L 176.56 396.92
  A 0.31 0.30 -49.6 0 0 176.10 396.96
  Q 167.09 409.43 153.68 415.92
  C 137.94 423.54 118.53 422.62 104.05 413.14
  C 87.66 402.40 78.84 383.15 80.26 363.74
  Q 82.20 337.25 103.42 321.11
  Q 113.03 313.80 125.08 312.06
  Q 154.56 307.80 173.59 330.89
  A 0.46 0.46 0.0 0 0 174.14 331.01
  L 180.78 327.87
  A 0.08 0.08 0.0 0 0 180.81 327.75"
/>
<path stroke="#80b2dd" vector-effect="non-scaling-stroke" d="
  M 269.27 328.59
  C 262.86 328.55 243.27 325.83 246.15 315.11
  Q 246.39 314.23 246.41 313.85
  A 0.66 0.66 0.0 0 0 245.80 313.16
  Q 232.23 312.20 218.80 307.60
  A 0.79 0.78 27.6 0 0 217.91 307.87
  Q 212.35 315.26 209.21 323.18
  A 1.08 1.06 37.9 0 0 209.35 324.23
  Q 216.06 333.16 225.14 337.89
  C 234.44 342.75 248.27 346.10 259.47 344.48
  A 1.39 1.35 -77.6 0 0 260.43 343.85
  L 269.57 329.14
  A 0.36 0.36 0.0 0 0 269.27 328.59"
/>
<path stroke="#258ad8" vector-effect="non-scaling-stroke" d="
  M 198.36 326.74
  Q 174.71 338.23 144.61 351.53
  C 138.77 354.12 134.28 356.53 128.22 359.71
  Q 123.49 362.19 124.11 367.30
  C 124.65 371.74 128.84 373.03 132.75 373.12
  Q 152.22 373.61 170.71 374.90
  A 1.84 1.84 0.0 0 0 172.44 373.97
  Q 180.52 359.60 185.99 350.99
  C 190.81 343.43 194.09 335.47 198.85 327.26
  A 0.37 0.37 0.0 0 0 198.36 326.74"
/>
<path stroke="#258ad8" vector-effect="non-scaling-stroke" d="
  M 256.66 350.79
  A 0.51 0.51 0.0 0 0 256.14 350.02
  Q 253.45 350.48 250.76 350.18
  C 233.39 348.21 217.67 342.55 206.26 328.77
  A 0.53 0.53 0.0 0 0 205.40 328.84
  L 195.96 345.20
  A 1.56 1.56 0.0 0 0 196.10 346.98
  C 208.21 361.76 226.73 368.01 245.46 367.24
  A 1.87 1.86 14.7 0 0 246.97 366.36
  L 256.66 350.79"
/>
<path stroke="#80b2dd" vector-effect="non-scaling-stroke" d="
  M 254.35 384.67
  Q 252.48 382.09 250.68 381.68
  C 242.86 379.87 234.96 379.35 226.86 380.94
  A 2.19 2.04 44.2 0 1 225.95 380.92
  C 223.67 380.36 222.21 377.40 224.65 375.97
  Q 226.03 375.16 227.34 375.02
  Q 234.96 374.24 245.89 375.56
  A 0.11 0.11 0.0 0 0 246.00 375.40
  L 244.77 372.81
  A 0.47 0.45 76.3 0 0 244.34 372.54
  C 225.47 372.88 207.06 366.04 193.73 352.26
  A 0.56 0.56 0.0 0 0 192.85 352.35
  L 182.65 368.75
  A 0.84 0.84 0.0 0 0 182.70 369.71
  Q 198.88 390.90 220.87 404.10
  C 232.71 411.20 249.56 417.37 262.74 413.34
  A 1.66 1.63 -3.1 0 0 263.88 412.09
  Q 265.47 404.12 263.26 396.82
  C 261.78 391.93 257.88 390.95 253.28 390.19
  Q 242.96 388.47 232.87 390.99
  A 1.68 1.67 -41.3 0 1 231.89 390.93
  C 229.14 389.85 229.50 386.32 232.26 385.50
  C 238.79 383.55 247.01 384.24 254.12 385.05
  A 0.25 0.24 -14.2 0 0 254.35 384.67"
/>
<path stroke="#258ad8" vector-effect="non-scaling-stroke" d="
  M 263.67 385.52
  Q 268.60 391.81 270.08 398.33
  A 1.54 1.54 0.0 0 0 271.57 399.53
  C 294.45 399.81 324.60 398.62 350.00 399.10
  Q 354.56 399.18 358.29 397.56
  C 363.02 395.50 369.65 390.38 371.29 385.62
  Q 371.81 384.11 371.79 380.87
  Q 371.73 368.48 373.37 356.58
  A 0.57 0.56 3.5 0 0 372.80 355.94
  Q 364.84 356.09 360.07 356.10
  C 354.77 356.12 351.77 357.08 348.06 360.82
  Q 337.31 371.67 333.09 376.07
  Q 329.60 379.70 324.55 382.66
  C 319.04 385.88 312.30 385.85 304.77 385.91
  Q 282.40 386.08 263.98 384.95
  A 0.36 0.35 -16.8 0 0 263.67 385.52"
/>
<path stroke="#258ad8" vector-effect="non-scaling-stroke" d="
  M 187.05 395.80
  Q 186.89 394.06 188.28 392.51
  A 1.81 1.80 -39.4 0 1 191.17 392.79
  C 199.31 406.44 212.26 415.30 226.96 421.08
  C 235.76 424.54 255.97 429.91 261.86 420.27
  A 0.52 0.51 13.0 0 0 261.37 419.49
  C 229.20 422.53 200.05 399.66 181.14 375.80
  A 1.18 1.18 0.0 0 0 179.14 376.05
  L 176.39 382.10
  A 3.78 3.77 41.8 0 0 176.59 385.62
  Q 180.75 392.50 186.54 396.11
  A 0.34 0.33 13.2 0 0 187.05 395.80"
/>
<path stroke="#807874" vector-effect="non-scaling-stroke" d="
  M 418.67 92.09
  L 423.82 95.56
  A 2.92 2.92 0.0 0 0 427.87 94.78
  L 428.14 94.37
  A 2.32 2.32 0.0 0 0 427.13 90.94
  Q 415.99 86.18 416.14 73.04
  A 1.57 1.56 -85.1 0 0 414.82 71.47
  C 409.23 70.57 410.96 79.44 412.23 82.10
  Q 413.58 84.93 415.15 86.77
  A 0.95 0.94 47.4 0 1 415.10 88.04
  Q 410.93 92.33 405.90 100.68
  A 2.73 2.72 62.8 0 0 405.52 101.87
  Q 405.28 105.47 406.42 109.12
  A 2.04 2.04 0.0 0 1 406.17 110.86
  L 395.70 126.37
  A 1.65 1.63 -56.2 0 0 396.14 128.65
  L 396.76 129.07
  A 2.08 2.07 35.2 0 0 399.59 128.59
  L 410.87 113.50
  A 3.24 3.21 -31.7 0 0 411.47 111.01
  C 410.90 107.68 409.65 103.05 411.03 101.04
  Q 413.65 97.22 417.91 92.20
  A 0.57 0.57 0.0 0 1 418.67 92.09"
/>
<path stroke="#a59c8e" vector-effect="non-scaling-stroke" d="
  M 536.92 201.52
  L 536.57 191.90"
/>
<path stroke="#80b2dd" vector-effect="non-scaling-stroke" d="
  M 314.64 196.52
  L 319.63 194.16
  A 2.42 2.42 0.0 0 0 320.83 191.04
  L 320.72 190.76
  A 2.21 2.20 67.6 0 0 317.72 189.51
  L 308.32 193.88
  A 1.83 1.83 0.0 0 0 307.53 196.51
  L 311.94 203.66
  A 3.19 3.19 0.0 0 0 316.02 204.87
  L 316.58 204.61
  A 2.30 2.30 0.0 0 0 317.36 201.06
  L 314.42 197.52
  A 0.65 0.65 0.0 0 1 314.64 196.52"
/>
<path stroke="#80b2dd" vector-effect="non-scaling-stroke" d="
  M 330.4661 194.9011
  A 1.43 1.43 0.0 0 0 329.9803 192.9380
  L 329.4665 192.6281
  A 1.43 1.43 0.0 0 0 327.5034 193.1139
  L 320.3339 204.9989
  A 1.43 1.43 0.0 0 0 320.8197 206.9620
  L 321.3335 207.2719
  A 1.43 1.43 0.0 0 0 323.2966 206.7861
  L 330.4661 194.9011"
/>
<path stroke="#258ad8" vector-effect="non-scaling-stroke" d="
  M 187.2927 219.7730
  A 3.11 2.81 -126.9 0 0 186.9129 223.9472
  A 3.11 2.81 -126.9 0 0 191.0273 224.7470
  A 3.11 2.81 -126.9 0 0 191.4071 220.5728
  A 3.11 2.81 -126.9 0 0 187.2927 219.7730"
/>
<path stroke="#80b2dd" vector-effect="non-scaling-stroke" d="
  M 322.88 330.86
  C 330.77 331.15 336.95 331.60 341.55 324.02
  Q 345.38 317.72 352.21 303.80
  C 353.50 301.17 355.03 298.63 354.90 296.22
  Q 354.65 291.62 351.24 289.56
  Q 349.63 288.59 343.54 288.56
  Q 333.87 288.50 324.25 288.15
  C 316.35 287.86 310.17 287.41 305.57 294.99
  Q 301.74 301.29 294.91 315.21
  C 293.62 317.84 292.09 320.38 292.22 322.79
  Q 292.47 327.39 295.88 329.45
  Q 297.49 330.42 303.58 330.46
  Q 313.25 330.51 322.88 330.86"
/>
<path stroke="#258ad8" vector-effect="non-scaling-stroke" d="
  M 326.44 296.11
  A 0.56 0.56 0.0 0 0 326.06 295.32
  C 319.22 293.78 313.53 294.23 309.96 301.02
  Q 302.92 314.43 298.86 322.06
  A 0.95 0.95 0.0 0 0 299.70 323.45
  L 312.77 323.45
  A 0.80 0.78 12.2 0 0 313.49 323.00
  L 326.44 296.11"
/>
<path stroke="#258ad8" vector-effect="non-scaling-stroke" d="
  M 319.27 323.77
  C 322.51 324.12 326.44 323.93 330.43 323.95
  Q 333.84 323.96 335.34 321.26
  Q 341.00 311.08 348.09 296.45
  A 0.69 0.69 0.0 0 0 347.47 295.46
  L 333.24 295.46
  A 1.79 1.79 0.0 0 0 331.63 296.47
  L 318.85 323.02
  A 0.53 0.52 16.1 0 0 319.27 323.77"
/>
</g>
<g fill="#0066bd">
<path d="
  M 356.00 0.00
  Q 367.83 0.79 374.79 2.67
  C 415.04 13.57 445.82 47.22 447.86 89.51
  C 448.38 100.30 445.60 113.57 440.96 123.56
  C 432.84 141.04 417.79 156.74 399.47 164.08
  A 0.42 0.42 0.0 0 0 399.32 164.76
  Q 404.67 170.62 407.94 176.49
  A 3.27 3.25 -14.5 0 0 410.79 178.16
  L 499.55 177.83
  A 2.42 2.39 -62.1 0 0 500.92 177.40
  C 502.97 175.98 504.28 173.55 507.42 173.19
  C 513.08 172.54 519.41 173.51 525.41 174.30
  C 529.27 174.81 531.05 180.58 531.04 183.79
  A 1.21 1.21 0.0 0 0 532.19 185.01
  L 539.72 185.41
  Q 536.41 187.37 536.57 191.90
  L 530.12 191.59
  A 2.42 2.41 1.5 0 0 527.58 194.00
  L 527.58 198.96
  A 2.66 2.65 -0.4 0 0 530.28 201.61
  L 536.92 201.52
  Q 536.73 206.05 538.59 207.93
  Q 536.05 209.15 533.17 208.25
  A 0.95 0.93 30.4 0 0 532.24 208.48
  Q 531.06 209.67 530.90 211.28
  A 1.61 1.53 -29.5 0 1 530.72 211.87
  L 529.02 214.95
  A 3.25 3.23 -3.2 0 1 528.01 216.07
  Q 526.71 216.99 523.52 217.00
  Q 509.49 217.05 505.17 216.87
  Q 502.66 216.77 500.67 213.69
  A 1.59 1.59 0.0 0 0 499.34 212.97
  L 496.73 212.97
  A 0.72 0.71 -89.2 0 0 496.02 213.67
  L 495.88 219.83
  A 1.43 1.26 55.5 0 1 495.84 220.16
  C 493.51 229.71 485.31 235.18 475.82 236.14
  C 474.26 236.30 472.46 236.95 471.35 238.00
  A 1.24 1.24 0.0 0 0 471.31 239.76
  Q 477.09 245.70 486.88 255.36
  C 488.14 256.61 488.15 257.91 490.49 258.10
  C 506.94 259.44 522.52 262.66 537.22 270.50
  C 541.19 272.62 545.42 275.66 546.95 279.97
  A 1.40 1.39 46.4 0 1 546.93 280.94
  C 545.52 284.65 540.93 285.22 537.31 285.06
  A 0.33 0.33 0.0 0 0 537.19 285.70
  Q 551.38 290.75 562.76 301.10
  Q 589.83 325.72 590.97 362.09
  Q 591.52 379.45 584.60 396.60
  Q 572.62 426.29 545.67 442.55
  Q 543.98 443.58 541.65 444.65
  Q 538.96 445.88 537.57 446.79
  A 0.43 0.43 0.0 0 0 537.95 447.55
  Q 540.93 446.47 545.19 447.60
  A 4.32 3.79 -33.5 0 0 546.14 447.73
  C 558.91 448.09 573.80 447.38 586.08 449.53
  A 1.86 1.86 0.0 0 1 587.14 452.61
  Q 585.84 454.04 583.01 454.27
  C 577.56 454.73 568.72 455.55 561.99 455.74
  Q 543.17 456.28 535.91 456.67
  C 526.63 457.17 515.52 456.63 508.29 457.12
  Q 492.20 458.20 472.43 458.01
  C 456.00 457.84 441.32 459.01 426.13 459.00
  Q 246.17 458.96 229.50 459.02
  C 211.25 459.08 193.66 457.89 176.49 457.95
  Q 135.64 458.08 124.00 457.94
  Q 120.94 457.90 118.08 457.23
  A 4.97 4.45 -35.2 0 0 116.97 457.10
  Q 88.54 457.07 57.25 455.29
  Q 52.52 455.02 47.78 454.24
  Q 44.90 453.76 44.95 451.23
  A 1.17 1.17 0.0 0 1 45.35 450.37
  Q 46.26 449.57 49.01 449.30
  Q 58.56 448.37 62.00 448.18
  C 67.89 447.85 80.06 448.54 90.18 447.60
  Q 97.47 446.92 98.49 446.95
  A 1.12 1.10 56.8 0 1 98.95 447.05
  Q 99.80 447.42 100.02 447.39
  A 0.43 0.43 0.0 0 0 100.16 446.60
  C 98.04 445.35 93.98 443.66 91.41 441.94
  Q 62.95 422.93 54.00 389.98
  C 45.51 358.72 56.18 325.71 79.05 303.28
  Q 99.28 283.44 127.53 279.25
  C 130.38 278.83 132.81 279.11 135.42 278.38
  A 0.68 0.68 0.0 0 0 135.64 277.17
  Q 122.42 267.61 103.75 253.51
  C 99.98 250.66 92.14 244.51 92.13 239.76
  C 92.12 234.62 95.34 232.85 100.18 231.36
  Q 110.92 228.04 122.88 226.08
  C 135.24 224.06 151.55 225.25 163.31 224.94
  A 0.75 0.75 0.0 0 0 164.01 224.41
  L 166.39 216.59
  A 0.92 0.91 34.1 0 0 166.23 215.77
  Q 154.66 201.10 162.58 183.83
  Q 183.18 138.88 194.88 113.13
  C 201.27 99.07 207.38 87.77 224.20 84.94
  Q 226.83 84.49 235.22 85.68
  Q 246.41 87.26 255.91 89.03
  A 0.94 0.94 0.0 0 0 257.03 88.08
  C 256.89 82.67 257.04 77.94 258.22 72.73
  Q 264.00 47.21 280.56 29.80
  Q 306.60 2.42 345.72 0.00
  L 356.00 0.00
  Z
  M 419.01 39.48
  A 0.16 0.16 0.0 0 0 419.21 39.23
  C 399.98 17.88 373.29 6.39 344.35 8.38
  C 308.02 10.88 276.76 33.81 267.00 69.09
  A 0.29 0.29 0.0 0 0 267.50 69.35
  C 272.95 62.86 281.23 59.14 289.56 60.93
  C 298.58 62.86 304.92 71.71 306.95 80.30
  Q 309.42 90.75 305.70 101.50
  C 300.79 115.67 287.61 124.22 273.40 116.46
  C 270.91 115.11 269.02 113.12 267.22 110.97
  A 0.33 0.33 0.0 0 0 266.67 111.32
  L 270.85 120.15
  A 5.06 5.03 3.1 0 0 272.81 122.32
  C 278.40 125.68 282.57 130.59 287.58 134.46
  C 312.97 154.06 343.35 162.10 375.25 160.95
  Q 390.29 160.41 403.57 153.63
  A 0.13 0.02 -25.8 0 0 403.67 153.56
  Q 403.67 153.52 403.68 153.48
  A 0.14 0.09 -8.4 0 0 403.49 153.40
  C 387.81 158.35 370.39 153.59 356.09 146.38
  C 325.17 130.80 311.30 93.23 329.81 62.53
  C 338.25 48.53 353.39 39.11 369.22 35.44
  C 385.53 31.66 403.66 31.14 419.01 39.48
  Z
  M 359.50 139.76
  Q 373.95 146.89 389.63 147.57
  Q 413.56 148.62 427.04 130.46
  C 440.07 112.92 442.26 92.43 436.82 71.25
  C 434.72 63.07 430.41 56.26 424.17 51.34
  C 406.68 37.52 383.02 39.74 362.92 45.64
  C 351.07 49.12 338.36 60.42 333.88 71.37
  Q 330.57 79.46 329.69 88.56
  C 327.61 110.14 340.46 130.36 359.50 139.76
  Z
  M 293.99 90.18
  C 293.88 99.38 290.00 107.99 281.51 112.24
  A 0.38 0.38 0.0 0 0 281.67 112.95
  C 294.15 113.23 300.93 101.50 301.07 90.26
  C 301.20 79.02 294.68 67.13 282.20 67.13
  A 0.38 0.38 0.0 0 0 282.02 67.83
  C 290.42 72.28 294.09 80.98 293.99 90.18
  Z
  M 277.3926 72.2301
  A 17.92 11.75 -89.8 0 0 265.5801 90.1090
  A 17.92 11.75 -89.8 0 0 277.2674 108.0699
  A 17.92 11.75 -89.8 0 0 289.0799 90.1910
  A 17.92 11.75 -89.8 0 0 277.3926 72.2301
  Z
  M 239.83 119.23
  Q 249.71 114.27 260.02 116.59
  A 0.38 0.38 0.0 0 0 260.46 116.08
  Q 257.06 107.00 256.24 97.04
  A 0.96 0.95 -88.1 0 0 255.43 96.17
  L 236.73 93.37
  A 0.26 0.25 70.6 0 0 236.52 93.81
  C 242.93 99.63 242.09 111.71 239.48 118.93
  A 0.25 0.25 0.0 0 0 239.83 119.23
  Z
  M 200.85 118.69
  A 0.96 0.95 -61.8 0 0 201.17 119.77
  Q 210.29 126.69 219.34 130.53
  A 0.65 0.64 41.5 0 0 219.92 130.50
  L 231.65 123.73
  A 2.96 2.84 89.8 0 0 232.74 122.59
  C 236.82 114.85 239.24 100.90 229.98 95.70
  C 221.63 91.02 212.63 97.42 207.92 104.48
  Q 203.80 110.63 200.85 118.69
  Z
  M 251.07 122.82
  A 0.35 0.35 0.0 0 0 250.98 123.49
  C 260.94 127.89 268.17 133.18 273.08 143.19
  Q 282.65 162.69 272.49 181.21
  Q 271.46 183.07 268.98 187.10
  C 268.11 188.52 268.13 189.66 269.27 190.68
  A 0.91 0.91 0.0 0 0 270.21 190.84
  C 279.33 187.09 283.61 178.32 285.98 169.26
  Q 288.21 160.77 285.72 152.54
  C 282.64 142.34 275.69 131.40 267.40 126.10
  Q 260.22 121.50 251.07 122.82
  Z
  M 197.21 125.69
  L 174.07 176.56
  A 1.35 1.35 0.0 0 0 174.49 178.20
  L 182.95 184.52
  A 0.87 0.86 -61.7 0 0 184.29 184.11
  C 190.85 165.71 200.15 149.45 214.02 135.77
  A 0.28 0.28 0.0 0 0 213.97 135.34
  L 198.04 125.43
  A 0.58 0.58 0.0 0 0 197.21 125.69
  Z
  M 266.22 176.49
  C 269.79 170.68 271.46 164.20 270.33 157.24
  C 267.67 140.79 255.25 126.67 237.24 130.30
  Q 230.73 131.61 223.24 137.49
  Q 215.50 143.57 213.62 151.89
  Q 211.36 161.88 211.13 168.19
  Q 210.33 190.45 218.08 212.42
  A 0.31 0.31 0.0 0 0 218.64 212.48
  C 228.04 197.90 243.27 188.49 260.79 185.89
  A 0.59 0.58 -7.1 0 0 261.29 185.25
  L 259.08 161.98
  A 3.01 3.00 -11.5 0 1 261.18 158.82
  L 261.52 158.71
  A 2.46 2.46 0.0 0 1 264.76 160.88
  L 265.75 176.37
  A 0.26 0.25 59.1 0 0 266.22 176.49
  Z
  M 292.89 152.61
  A 0.32 0.32 0.0 0 0 293.03 152.83
  Q 326.60 173.87 365.78 173.07
  C 369.46 173.00 374.62 172.23 376.63 168.72
  A 0.57 0.57 0.0 0 0 376.11 167.86
  Q 362.76 168.61 347.91 166.79
  Q 318.30 163.17 292.13 145.83
  A 0.09 0.09 0.0 0 0 291.99 145.91
  L 292.89 152.61
  Z
  M 205.30 158.55
  A 0.18 0.17 -20.9 0 0 204.98 158.41
  C 197.71 169.83 192.95 183.18 188.94 196.67
  A 0.56 0.56 0.0 0 0 189.15 197.28
  Q 199.93 205.06 210.00 210.61
  A 0.21 0.20 -85.4 0 0 210.29 210.36
  Q 202.44 187.26 204.74 161.28
  Q 204.84 160.12 205.30 158.55
  Z
  M 363.04 180.17
  Q 326.16 179.82 293.98 161.33
  A 0.19 0.18 16.4 0 0 293.70 161.48
  Q 293.14 173.64 287.09 184.73
  C 284.77 189.00 280.72 192.79 276.76 195.27
  A 0.38 0.38 0.0 0 0 276.83 195.95
  L 290.29 200.95
  A 0.92 0.92 0.0 0 0 291.42 200.53
  Q 296.06 192.01 299.56 182.66
  C 301.62 177.14 304.35 173.37 310.26 175.28
  Q 331.48 182.13 347.84 185.14
  Q 354.56 186.37 352.68 193.41
  Q 350.85 200.25 348.68 204.92
  A 0.39 0.38 12.4 0 0 349.04 205.47
  L 352.23 205.47
  A 1.05 1.02 12.5 0 0 353.17 204.89
  C 354.99 201.18 357.40 196.16 358.76 192.26
  Q 360.94 186.00 363.31 180.59
  A 0.30 0.30 0.0 0 0 363.04 180.17
  Z
  M 400.18 177.10
  L 390.42 167.34
  A 0.92 0.90 -24.7 0 0 389.69 167.08
  L 384.91 167.53
  A 0.93 0.92 3.0 0 0 384.10 168.25
  Q 382.83 174.25 377.10 177.32
  A 0.25 0.24 -58.8 0 0 377.21 177.78
  L 399.90 177.78
  A 0.40 0.40 0.0 0 0 400.18 177.10
  Z
  M 514.75 210.22
  Q 512.13 205.84 511.72 201.14
  C 511.08 193.88 510.99 187.38 514.74 181.38
  A 0.56 0.55 20.8 0 0 514.36 180.54
  C 508.98 179.63 504.74 181.86 503.34 187.13
  C 501.93 192.44 502.05 199.05 502.54 204.48
  C 503.16 211.33 508.39 212.38 514.43 210.97
  A 0.51 0.50 -22.2 0 0 514.75 210.22
  Z
  M 525.29 206.73
  Q 521.20 203.12 521.67 195.22
  Q 522.02 189.44 524.76 186.00
  A 2.65 2.65 0.0 0 0 524.44 182.37
  L 524.22 182.18
  A 2.20 2.19 -53.8 0 0 520.89 182.70
  Q 515.93 190.98 518.04 201.76
  Q 519.05 206.94 521.14 209.17
  A 1.89 1.88 53.5 0 0 523.45 209.52
  L 525.11 208.56
  A 1.13 1.13 0.0 0 0 525.29 206.73
  Z
  M 335.04 206.88
  L 339.84 206.02
  A 1.77 1.76 6.9 0 0 341.12 205.02
  L 346.62 192.92
  A 0.76 0.76 0.0 0 0 346.06 191.85
  Q 330.96 189.32 318.16 185.16
  Q 312.40 183.29 308.28 182.45
  A 0.58 0.58 0.0 0 0 307.60 182.91
  C 306.32 189.40 302.77 195.20 299.33 201.75
  A 0.37 0.37 0.0 0 0 299.59 202.28
  Q 309.15 204.24 318.76 207.22
  Q 319.75 207.53 320.72 208.88
  A 0.87 0.86 67.0 0 0 321.58 209.23
  L 329.98 207.72
  A 0.27 0.27 0.0 0 0 330.01 207.20
  Q 328.80 206.82 328.35 206.05
  A 1.75 1.31 -31.2 0 1 329.16 204.04
  Q 330.85 203.01 334.46 201.50
  A 0.51 0.51 0.0 0 0 334.68 200.73
  L 332.85 198.15
  A 2.26 2.26 0.0 0 1 333.36 195.01
  L 333.50 194.91
  A 2.22 2.22 0.0 0 1 336.63 195.36
  Q 339.82 199.63 340.15 200.11
  Q 341.80 202.47 339.80 203.78
  Q 337.77 205.10 334.87 206.31
  A 0.30 0.30 0.0 0 0 335.04 206.88
  Z
  M 171.07 183.95
  C 166.77 191.07 164.57 201.11 170.22 207.99
  A 0.54 0.54 0.0 0 0 171.13 207.88
  Q 174.49 200.58 180.71 195.51
  Q 182.23 194.28 182.36 191.63
  A 0.80 0.79 18.1 0 0 182.00 190.93
  L 171.52 183.86
  A 0.32 0.32 0.0 0 0 171.07 183.95
  Z
  M 360.81 205.88
  L 370.23 208.75
  A 4.67 4.48 -36.3 0 0 371.67 208.94
  Q 401.85 207.96 436.24 208.80
  A 0.68 0.68 0.0 0 0 436.94 208.12
  L 436.94 198.01
  A 0.95 0.95 0.0 0 0 435.99 197.06
  L 396.97 197.06
  A 3.09 3.09 0.0 0 1 393.88 193.97
  L 393.88 193.40
  A 2.65 2.64 90.0 0 1 396.52 190.75
  L 436.45 190.75
  A 1.19 1.19 0.0 0 0 437.64 189.56
  L 437.64 186.22
  A 1.05 1.05 0.0 0 0 436.61 185.17
  Q 400.67 184.75 373.75 185.57
  Q 370.91 185.66 369.36 188.37
  Q 364.59 196.76 360.59 205.40
  A 0.35 0.35 0.0 0 0 360.81 205.88
  Z
  M 496.46 185.61
  L 444.40 185.61
  A 1.10 1.09 -84.6 0 0 443.33 186.50
  Q 441.20 197.54 442.02 207.99
  A 0.84 0.84 0.0 0 0 442.86 208.77
  L 445.78 208.77
  A 1.38 1.36 -72.6 0 0 446.91 208.17
  C 450.65 202.75 453.38 201.89 459.86 202.40
  A 0.98 0.97 20.7 0 0 460.71 202.02
  Q 461.24 201.32 462.22 199.93
  C 465.71 194.95 471.43 196.37 475.76 199.44
  A 0.94 0.93 46.3 0 0 476.77 199.47
  C 477.73 198.89 478.73 198.00 479.76 197.61
  C 486.34 195.13 491.00 199.88 494.02 205.31
  Q 494.56 206.29 496.41 205.94
  A 0.56 0.56 0.0 0 0 496.86 205.31
  C 495.85 198.60 495.26 193.05 497.04 186.35
  A 0.60 0.59 7.1 0 0 496.46 185.61
  Z
  M 238.48 200.33
  A 0.14 0.14 0.0 0 0 238.46 200.55
  L 244.94 206.11
  A 0.28 0.27 -48.8 0 0 245.32 206.08
  Q 253.07 197.20 262.78 193.72
  A 1.06 1.05 31.1 0 0 262.27 191.68
  Q 249.51 193.43 238.48 200.33
  Z
  M 274.45 247.43
  C 269.12 233.59 274.85 216.92 284.32 206.47
  A 0.41 0.41 0.0 0 0 284.13 205.81
  Q 275.06 203.08 268.39 198.48
  A 1.17 1.17 0.0 0 0 267.45 198.30
  C 251.75 202.15 242.51 216.51 243.06 232.23
  Q 243.19 236.04 244.57 239.41
  A 1.79 1.78 89.5 0 0 245.58 240.41
  Q 259.62 245.89 274.15 247.81
  A 0.28 0.28 0.0 0 0 274.45 247.43
  Z
  M 212.63 219.92
  Q 202.31 215.48 193.36 208.92
  Q 189.31 205.96 184.75 203.35
  A 1.97 1.96 37.6 0 0 182.42 203.65
  C 179.22 206.73 176.65 211.74 174.72 215.76
  A 1.22 1.20 34.7 0 0 174.98 217.16
  Q 183.98 225.71 195.22 231.01
  Q 199.08 232.83 203.52 233.69
  A 2.22 2.21 20.5 0 0 205.86 232.63
  L 212.84 220.54
  A 0.44 0.44 0.0 0 0 212.63 219.92
  Z
  M 237.97 237.03
  Q 235.96 222.82 242.31 211.20
  A 0.69 0.68 35.5 0 0 242.16 210.35
  L 234.36 203.65
  A 0.85 0.84 -44.7 0 0 233.27 203.65
  C 228.57 207.65 219.94 217.62 222.75 224.20
  C 224.94 229.31 232.16 235.00 237.36 237.48
  A 0.43 0.43 0.0 0 0 237.97 237.03
  Z
  M 485.24 226.02
  A 7.47 7.44 -7.4 0 0 488.46 221.85
  Q 490.81 214.20 487.72 206.25
  A 4.38 4.37 72.1 0 0 482.56 203.60
  L 482.43 203.64
  A 3.56 3.56 0.0 0 0 479.99 208.36
  Q 483.96 218.74 479.55 227.50
  A 0.94 0.93 -2.6 0 0 480.88 228.71
  L 485.24 226.02
  Z
  M 464.88 231.72
  C 478.78 233.59 478.03 215.62 474.48 208.00
  A 6.33 6.32 -14.0 0 0 468.40 204.35
  L 468.20 204.36
  A 3.11 3.11 0.0 0 0 465.51 208.73
  Q 468.46 215.39 467.38 224.35
  Q 467.22 225.69 464.49 230.97
  A 0.52 0.52 0.0 0 0 464.88 231.72
  Z
  M 306.39 252.52
  A 0.44 0.43 79.6 0 0 306.82 251.89
  C 300.30 238.84 303.99 223.09 314.33 213.24
  A 0.72 0.72 0.0 0 0 313.97 212.01
  L 292.69 207.94
  A 1.62 1.53 -46.6 0 0 291.99 207.98
  C 289.28 208.79 285.95 213.24 284.97 215.20
  Q 280.38 224.41 278.90 233.80
  C 278.16 238.54 278.31 246.29 282.48 249.59
  A 2.57 2.54 66.7 0 0 283.84 250.14
  L 306.39 252.52
  Z
  M 445.94 229.36
  C 455.35 237.24 462.22 229.07 461.94 219.50
  C 461.87 216.86 461.72 213.69 460.43 211.38
  C 459.00 208.81 456.13 207.20 453.83 209.88
  C 451.78 212.26 451.58 215.31 451.61 218.08
  C 451.66 222.73 449.66 226.26 445.98 228.68
  A 0.43 0.43 0.0 0 0 445.94 229.36
  Z
  M 373.15 238.89
  C 376.74 237.78 378.88 234.69 379.13 230.74
  Q 379.45 225.50 375.46 220.70
  C 368.65 212.49 358.16 210.57 347.99 211.15
  Q 334.97 211.89 321.46 215.16
  A 3.41 3.25 21.9 0 0 320.63 215.49
  C 311.50 220.83 304.07 240.86 312.40 249.06
  A 0.79 0.79 0.0 0 0 313.31 249.21
  C 319.12 246.32 326.29 241.11 330.23 247.60
  C 331.77 250.14 331.90 254.78 333.38 256.77
  Q 335.71 259.92 338.72 258.86
  C 343.72 257.09 343.00 249.00 341.48 245.25
  Q 341.10 244.30 339.03 241.15
  A 2.60 2.59 -36.4 0 1 339.55 237.73
  C 343.58 234.39 346.38 240.41 347.14 243.59
  Q 348.35 248.61 348.25 254.14
  A 1.53 1.53 0.0 0 0 350.22 255.64
  Q 352.37 254.99 353.15 253.04
  Q 356.18 245.38 353.99 237.96
  A 5.84 5.70 18.4 0 0 353.00 236.04
  Q 350.73 233.09 350.29 232.39
  A 2.66 2.27 50.7 0 1 350.35 229.44
  Q 352.37 227.11 354.95 229.61
  C 359.86 234.36 360.88 240.99 360.05 247.88
  A 1.08 1.08 0.0 0 0 361.59 248.98
  Q 366.56 246.58 367.04 241.01
  Q 367.91 230.77 360.39 224.59
  A 2.02 2.00 41.1 0 1 360.17 221.66
  C 362.94 218.71 366.95 223.98 368.45 225.98
  Q 372.62 231.57 372.64 238.51
  A 0.40 0.39 81.4 0 0 373.15 238.89
  Z
  M 385.61 227.26
  C 388.96 224.34 392.35 220.83 392.25 215.78
  A 0.54 0.54 0.0 0 0 391.71 215.25
  L 379.36 215.25
  A 0.38 0.38 0.0 0 0 379.08 215.89
  Q 383.64 220.63 385.08 227.08
  A 0.33 0.33 0.0 0 0 385.61 227.26
  Z
  M 264.87 265.34
  C 282.79 282.70 292.22 303.18 278.43 326.70
  Q 258.22 361.16 251.83 371.56
  A 0.94 0.93 -51.7 0 0 251.96 372.71
  L 257.27 378.02
  A 1.38 1.37 -21.3 0 0 258.19 378.42
  Q 278.61 379.04 312.48 378.91
  Q 319.07 378.89 323.49 375.25
  Q 332.21 368.07 341.42 358.18
  C 346.24 353.01 349.65 349.62 356.51 349.49
  Q 363.85 349.36 373.80 349.48
  A 0.93 0.92 -81.8 0 0 374.70 348.80
  C 379.20 331.63 385.85 316.01 397.17 301.92
  Q 419.80 273.76 454.30 263.17
  A 0.35 0.35 0.0 0 0 454.41 262.55
  C 436.67 249.27 422.69 234.31 410.43 215.98
  A 1.17 1.15 -16.3 0 0 409.46 215.46
  L 399.89 215.46
  A 0.65 0.65 0.0 0 0 399.24 216.14
  Q 399.34 219.22 397.38 224.32
  A 0.49 0.48 -59.6 0 0 397.52 224.86
  Q 403.96 230.16 408.29 237.75
  C 411.12 242.70 408.61 249.02 404.33 252.32
  Q 390.86 262.68 382.57 268.54
  C 376.42 272.88 372.60 275.22 366.50 275.07
  Q 357.60 274.86 315.19 274.15
  C 307.27 274.02 301.32 264.91 298.07 258.70
  A 1.03 1.02 78.5 0 0 297.26 258.16
  L 286.31 257.01
  A 0.70 0.70 0.0 0 0 285.59 257.42
  C 281.57 266.60 273.60 265.15 265.04 264.93
  A 0.24 0.24 0.0 0 0 264.87 265.34
  Z
  M 468.72 258.28
  Q 454.48 249.11 445.31 240.20
  Q 437.25 232.38 425.84 216.14
  A 1.32 1.31 -17.2 0 0 424.76 215.58
  L 416.54 215.58
  A 0.48 0.48 0.0 0 0 416.15 216.35
  Q 424.59 228.07 434.54 238.96
  Q 444.04 249.36 458.52 259.82
  A 4.97 4.94 -29.6 0 0 461.87 260.73
  L 468.27 260.12
  A 1.00 1.00 0.0 0 0 468.72 258.28
  Z
  M 434.99 216.99
  L 441.35 224.47
  A 1.34 1.33 67.4 0 0 442.46 224.93
  Q 442.93 224.93 443.89 224.40
  C 446.44 222.99 446.37 218.42 445.58 215.99
  A 0.53 0.52 -11.8 0 0 445.03 215.64
  L 435.16 216.58
  A 0.25 0.25 0.0 0 0 434.99 216.99
  Z
  M 202.77 239.35
  A 0.45 0.45 0.0 0 0 202.45 238.72
  C 191.44 236.64 180.83 229.59 172.64 222.18
  A 0.46 0.46 0.0 0 0 171.90 222.36
  C 170.38 226.38 167.87 233.34 168.81 237.19
  A 2.48 2.46 -71.3 0 0 169.31 238.21
  Q 170.86 240.11 174.71 243.05
  Q 184.23 250.31 195.54 254.18
  A 0.49 0.48 21.4 0 0 196.15 253.92
  L 202.77 239.35
  Z
  M 216.59 226.79
  A 1.14 1.13 -48.1 0 0 214.60 226.90
  L 201.90 253.27
  A 2.00 2.00 0.0 0 0 204.56 255.95
  L 208.81 253.94
  A 8.79 8.78 -0.5 0 0 213.06 249.62
  L 219.92 234.54
  A 2.82 2.80 41.5 0 0 219.75 231.90
  L 216.59 226.79
  Z
  M 328.38 263.33
  L 319.41 268.29
  A 0.30 0.29 31.0 0 0 319.55 268.84
  Q 344.64 269.57 364.44 269.76
  C 368.79 269.80 371.84 269.20 375.05 266.78
  Q 387.75 257.20 398.28 249.63
  Q 405.70 244.30 400.01 237.16
  Q 396.76 233.09 393.78 230.44
  A 0.47 0.46 -43.4 0 0 393.18 230.43
  L 384.03 238.03
  A 3.71 3.59 89.1 0 0 383.41 238.69
  C 380.51 242.63 378.12 245.01 373.01 246.35
  A 1.87 1.84 10.1 0 0 371.96 247.07
  C 368.48 251.90 366.14 255.43 359.76 255.53
  A 1.69 1.68 -71.0 0 0 358.46 256.17
  C 355.87 259.41 354.38 262.51 349.59 262.25
  C 348.48 262.19 347.08 261.37 346.18 261.06
  A 0.61 0.61 0.0 0 0 345.42 261.37
  Q 345.04 262.17 343.14 263.90
  Q 338.25 268.39 331.85 265.85
  Q 330.91 265.47 330.44 264.99
  Q 329.10 263.63 329.06 263.55
  A 0.49 0.49 0.0 0 0 328.38 263.33
  Z
  M 156.34 233.20
  A 0.53 0.53 0.0 0 0 155.89 232.42
  Q 136.02 231.76 116.07 235.63
  Q 108.06 237.18 100.61 239.83
  A 0.53 0.52 -32.9 0 0 100.42 240.70
  Q 104.55 244.68 110.53 249.13
  Q 128.07 262.17 154.97 281.30
  Q 172.10 293.47 203.96 315.39
  A 0.49 0.48 33.9 0 0 204.64 315.26
  L 211.43 305.21
  A 0.70 0.70 0.0 0 0 211.19 304.22
  Q 192.82 294.02 179.38 279.11
  A 11.42 11.09 -4.9 0 0 176.79 276.99
  Q 168.57 272.06 165.29 267.56
  Q 156.51 255.49 155.22 238.60
  Q 155.00 235.67 156.34 233.20
  Z
  M 161.32 232.57
  A 0.48 0.47 -81.6 0 0 160.80 232.96
  Q 159.05 243.38 163.12 252.54
  C 165.46 257.83 167.92 261.88 172.33 265.36
  A 0.23 0.23 0.0 0 0 172.69 265.10
  Q 169.80 257.09 169.63 249.51
  A 2.34 2.31 22.3 0 0 168.96 247.93
  C 167.26 246.22 164.35 243.87 163.19 241.79
  Q 160.95 237.78 161.66 232.99
  A 0.37 0.37 0.0 0 0 161.34 232.57
  L 161.32 232.57
  Z
  M 453.86 239.20
  Q 459.11 244.10 472.99 254.61
  Q 475.28 256.35 477.51 257.29
  A 0.81 0.81 0.0 0 0 478.40 255.97
  L 460.15 237.72
  A 1.29 1.28 -27.4 0 0 458.99 237.36
  L 454.15 238.23
  A 0.57 0.56 -28.5 0 0 453.86 239.20
  Z
  M 250.67 250.73
  A 0.87 0.87 0.0 0 0 250.06 249.90
  Q 243.34 247.76 234.96 243.55
  Q 230.19 241.15 226.43 237.87
  A 0.57 0.57 0.0 0 0 225.54 238.07
  L 222.93 243.80
  A 0.52 0.51 -74.2 0 0 223.33 244.52
  Q 233.92 245.95 243.38 250.62
  Q 249.70 253.74 250.09 253.98
  A 0.39 0.38 15.2 0 0 250.67 253.65
  L 250.67 250.73
  Z
  M 176.48 254.18
  Q 178.42 264.68 182.41 270.62
  Q 188.83 280.17 199.05 287.73
  Q 211.52 296.95 216.84 299.37
  A 0.91 0.91 0.0 0 0 217.68 299.33
  Q 230.54 291.96 245.24 289.38
  A 0.90 0.90 0.0 0 0 245.98 288.38
  Q 245.49 284.70 247.51 283.28
  C 253.27 279.23 262.39 278.65 269.04 279.34
  A 0.17 0.17 0.0 0 0 269.19 279.07
  C 257.14 263.38 240.66 251.88 220.76 249.53
  A 0.81 0.81 0.0 0 0 219.95 249.93
  C 217.04 254.91 215.01 259.40 209.06 261.29
  C 204.47 262.74 199.13 263.20 194.29 261.53
  C 187.95 259.35 180.48 255.50 177.04 253.76
  A 0.39 0.39 0.0 0 0 176.48 254.18
  Z
  M 257.16 252.90
  L 256.95 255.91
  A 1.68 1.68 0.0 0 0 258.51 257.70
  L 274.25 258.76
  A 2.70 2.69 -73.1 0 0 276.76 257.42
  L 277.28 256.52
  A 0.98 0.98 0.0 0 0 276.52 255.06
  Q 266.37 254.12 258.40 252.01
  A 0.99 0.99 0.0 0 0 257.16 252.90
  Z
  M 324.44 252.59
  A 0.64 0.64 0.0 0 0 323.59 252.28
  L 316.26 255.74
  A 0.64 0.64 0.0 0 0 316.08 256.77
  L 319.39 260.08
  A 0.64 0.64 0.0 0 0 320.17 260.18
  L 325.84 256.91
  A 0.64 0.64 0.0 0 0 326.10 256.08
  L 324.44 252.59
  Z
  M 305.34 260.02
  L 309.96 265.60
  A 1.08 1.07 -34.6 0 0 311.31 265.84
  L 312.82 264.96
  A 0.37 0.37 0.0 0 0 312.92 264.40
  L 308.96 259.64
  A 1.76 1.76 0.0 0 0 307.45 259.01
  L 305.68 259.18
  A 0.51 0.51 0.0 0 0 305.34 260.02
  Z
  M 536.28 278.85
  C 519.08 267.33 496.52 264.21 476.50 265.81
  Q 468.51 266.45 460.95 268.98
  Q 456.98 270.31 453.42 274.37
  A 0.50 0.50 0.0 0 0 453.37 274.97
  L 463.10 290.73
  A 0.43 0.43 0.0 0 0 463.65 290.90
  Q 486.19 280.63 511.00 279.66
  Q 522.43 279.21 536.08 279.48
  A 0.35 0.34 -27.6 0 0 536.28 278.85
  Z
  M 478.12 375.63
  C 484.49 380.63 493.45 378.00 495.94 370.22
  Q 497.49 365.36 494.22 359.78
  Q 478.90 333.61 451.66 284.85
  Q 448.74 279.62 447.19 277.52
  Q 445.59 275.35 442.94 276.17
  Q 435.05 278.61 428.08 284.22
  A 0.69 0.68 55.9 0 0 427.92 285.09
  L 473.43 363.91
  A 0.50 0.50 0.0 0 0 474.32 363.87
  C 476.53 359.05 481.84 355.33 487.15 357.61
  C 490.83 359.19 491.70 364.10 491.06 367.55
  C 490.10 372.82 486.00 375.76 480.78 375.37
  Q 478.43 375.19 478.28 375.18
  A 0.25 0.25 0.0 0 0 478.12 375.63
  Z
  M 252.09 286.81
  A 1.09 1.08 -14.0 0 0 251.38 287.99
  Q 251.80 291.05 252.36 294.51
  Q 254.06 304.96 251.70 315.48
  C 250.20 322.17 267.66 323.23 271.59 323.19
  A 1.17 1.17 0.0 0 0 272.55 322.66
  C 279.65 311.41 281.00 296.84 273.55 285.55
  A 1.00 0.99 -11.7 0 0 272.87 285.11
  Q 261.75 283.41 252.09 286.81
  Z
  M 246.19 294.56
  Q 233.62 297.02 222.54 302.67
  A 0.37 0.37 0.0 0 0 222.61 303.36
  Q 235.14 307.05 246.89 308.12
  A 0.37 0.37 0.0 0 0 247.29 307.79
  Q 248.07 301.12 247.01 295.12
  A 0.70 0.70 0.0 0 0 246.19 294.56
  Z
  M 426.05 296.36
  C 413.45 308.04 401.77 324.62 399.07 342.02
  Q 398.70 344.41 399.13 346.22
  C 399.92 349.57 404.76 348.52 406.63 347.05
  Q 407.71 346.21 409.46 342.18
  C 414.66 330.26 422.85 317.76 433.15 309.18
  A 0.73 0.73 0.0 0 0 433.32 308.26
  L 426.48 296.42
  A 0.28 0.27 -36.3 0 0 426.05 296.36
  Z
  M 443.41 326.57
  Q 436.13 336.57 432.54 348.48
  C 424.22 376.09 433.46 406.29 458.35 421.61
  C 475.66 432.27 498.55 432.89 516.73 423.99
  C 556.60 404.47 568.82 348.06 533.63 317.47
  C 516.74 302.80 494.76 299.89 473.28 307.18
  A 0.91 0.91 0.0 0 0 472.75 308.43
  L 475.19 313.59
  A 1.25 1.24 -22.4 0 0 476.74 314.23
  C 505.68 304.03 537.19 319.28 544.52 349.70
  C 551.37 378.11 537.23 405.89 510.85 418.14
  C 501.65 422.41 490.02 423.38 480.35 421.61
  Q 458.96 417.71 447.02 399.85
  C 433.39 379.45 435.07 354.56 447.81 333.90
  A 0.57 0.56 -45.8 0 0 447.81 333.31
  L 443.65 326.58
  A 0.15 0.14 -42.2 0 0 443.41 326.57
  Z
  M 180.81 327.75
  Q 166.27 307.93 143.37 304.21
  Q 124.90 301.21 108.69 308.96
  C 73.17 325.92 61.36 371.28 82.93 403.56
  C 100.46 429.82 136.43 436.53 162.82 419.83
  Q 172.95 413.42 181.57 402.22
  A 0.25 0.24 42.1 0 0 181.55 401.91
  L 176.56 396.92
  A 0.31 0.30 -49.6 0 0 176.10 396.96
  Q 167.09 409.43 153.68 415.92
  C 137.94 423.54 118.53 422.62 104.05 413.14
  C 87.66 402.40 78.84 383.15 80.26 363.74
  Q 82.20 337.25 103.42 321.11
  Q 113.03 313.80 125.08 312.06
  Q 154.56 307.80 173.59 330.89
  A 0.46 0.46 0.0 0 0 174.14 331.01
  L 180.78 327.87
  A 0.08 0.08 0.0 0 0 180.81 327.75
  Z
  M 269.27 328.59
  C 262.86 328.55 243.27 325.83 246.15 315.11
  Q 246.39 314.23 246.41 313.85
  A 0.66 0.66 0.0 0 0 245.80 313.16
  Q 232.23 312.20 218.80 307.60
  A 0.79 0.78 27.6 0 0 217.91 307.87
  Q 212.35 315.26 209.21 323.18
  A 1.08 1.06 37.9 0 0 209.35 324.23
  Q 216.06 333.16 225.14 337.89
  C 234.44 342.75 248.27 346.10 259.47 344.48
  A 1.39 1.35 -77.6 0 0 260.43 343.85
  L 269.57 329.14
  A 0.36 0.36 0.0 0 0 269.27 328.59
  Z
  M 167.63 333.02
  C 161.64 326.66 153.79 321.28 145.13 320.81
  C 123.17 319.63 106.07 338.53 101.46 358.51
  Q 98.46 371.53 102.59 384.65
  Q 107.90 401.55 123.19 409.99
  Q 133.37 415.61 144.17 413.23
  Q 155.02 410.83 163.37 403.16
  Q 169.22 397.79 172.28 393.21
  A 1.02 1.02 0.0 0 0 172.23 391.99
  C 169.77 388.92 169.95 385.04 169.93 381.57
  A 0.97 0.97 0.0 0 0 168.87 380.61
  L 160.29 381.43
  A 1.09 1.07 18.0 0 0 159.59 381.78
  C 152.82 389.11 147.38 394.62 136.97 395.19
  Q 121.88 396.02 113.42 384.42
  C 103.38 370.65 107.62 352.41 120.39 341.89
  Q 132.32 332.05 146.87 338.17
  C 148.33 338.78 149.76 340.01 151.16 340.58
  A 2.02 2.02 0.0 0 0 152.76 340.53
  L 167.54 333.54
  A 0.33 0.32 55.5 0 0 167.63 333.02
  Z
  M 460.16 356.39
  L 459.01 362.85
  A 1.83 1.19 -51.5 0 0 458.98 363.16
  Q 458.77 374.73 458.92 376.06
  C 460.41 389.22 466.79 402.60 478.76 409.43
  Q 499.63 421.35 518.13 407.57
  Q 526.11 401.62 530.64 395.21
  Q 542.76 378.09 540.18 357.27
  Q 538.59 344.41 531.05 334.94
  C 522.87 324.65 511.01 318.18 497.87 322.12
  Q 491.91 323.90 484.11 327.54
  A 0.61 0.60 -27.5 0 0 483.84 328.39
  L 487.45 334.64
  A 2.61 2.60 -17.8 0 0 489.97 335.93
  C 497.57 335.18 505.93 337.85 511.54 342.96
  C 523.96 354.26 523.99 373.39 512.84 385.75
  C 503.75 395.84 489.51 398.73 477.40 392.34
  Q 463.34 384.92 461.66 369.00
  Q 461.34 365.99 461.59 364.13
  C 462.09 360.43 462.45 359.17 460.62 356.29
  A 0.25 0.25 0.0 0 0 460.16 356.39
  Z
  M 198.36 326.74
  Q 174.71 338.23 144.61 351.53
  C 138.77 354.12 134.28 356.53 128.22 359.71
  Q 123.49 362.19 124.11 367.30
  C 124.65 371.74 128.84 373.03 132.75 373.12
  Q 152.22 373.61 170.71 374.90
  A 1.84 1.84 0.0 0 0 172.44 373.97
  Q 180.52 359.60 185.99 350.99
  C 190.81 343.43 194.09 335.47 198.85 327.26
  A 0.37 0.37 0.0 0 0 198.36 326.74
  Z
  M 256.66 350.79
  A 0.51 0.51 0.0 0 0 256.14 350.02
  Q 253.45 350.48 250.76 350.18
  C 233.39 348.21 217.67 342.55 206.26 328.77
  A 0.53 0.53 0.0 0 0 205.40 328.84
  L 195.96 345.20
  A 1.56 1.56 0.0 0 0 196.10 346.98
  C 208.21 361.76 226.73 368.01 245.46 367.24
  A 1.87 1.86 14.7 0 0 246.97 366.36
  L 256.66 350.79
  Z
  M 254.35 384.67
  Q 252.48 382.09 250.68 381.68
  C 242.86 379.87 234.96 379.35 226.86 380.94
  A 2.19 2.04 44.2 0 1 225.95 380.92
  C 223.67 380.36 222.21 377.40 224.65 375.97
  Q 226.03 375.16 227.34 375.02
  Q 234.96 374.24 245.89 375.56
  A 0.11 0.11 0.0 0 0 246.00 375.40
  L 244.77 372.81
  A 0.47 0.45 76.3 0 0 244.34 372.54
  C 225.47 372.88 207.06 366.04 193.73 352.26
  A 0.56 0.56 0.0 0 0 192.85 352.35
  L 182.65 368.75
  A 0.84 0.84 0.0 0 0 182.70 369.71
  Q 198.88 390.90 220.87 404.10
  C 232.71 411.20 249.56 417.37 262.74 413.34
  A 1.66 1.63 -3.1 0 0 263.88 412.09
  Q 265.47 404.12 263.26 396.82
  C 261.78 391.93 257.88 390.95 253.28 390.19
  Q 242.96 388.47 232.87 390.99
  A 1.68 1.67 -41.3 0 1 231.89 390.93
  C 229.14 389.85 229.50 386.32 232.26 385.50
  C 238.79 383.55 247.01 384.24 254.12 385.05
  A 0.25 0.24 -14.2 0 0 254.35 384.67
  Z
  M 176.35 447.44
  Q 178.32 446.99 181.75 446.99
  Q 338.63 447.02 455.25 446.98
  Q 456.08 446.98 457.51 447.39
  A 0.46 0.46 0.0 0 0 458.05 447.12
  L 458.08 447.02
  A 0.42 0.42 0.0 0 0 457.86 446.49
  Q 450.75 443.30 445.38 439.11
  C 427.02 424.78 415.25 406.05 411.48 383.04
  C 410.32 375.92 410.81 368.10 411.19 360.75
  Q 411.30 358.66 412.93 353.73
  A 0.57 0.56 -85.6 0 0 412.30 352.99
  L 411.75 353.09
  A 2.05 2.05 0.0 0 0 410.27 354.23
  Q 405.07 365.27 402.62 376.57
  Q 400.49 386.45 399.39 388.38
  C 394.99 396.13 389.33 401.92 381.02 404.80
  Q 377.48 406.03 368.34 406.03
  Q 297.95 405.98 270.38 405.99
  A 0.41 0.40 90.0 0 0 269.98 406.40
  Q 270.09 411.10 269.91 414.45
  C 269.26 426.75 260.10 432.58 248.50 432.34
  Q 233.91 432.04 220.64 425.87
  Q 217.21 424.28 211.80 421.31
  A 1.57 1.57 0.0 0 0 209.90 421.60
  Q 205.86 425.82 202.89 428.64
  Q 191.92 439.11 178.06 445.80
  A 1.83 1.82 30.1 0 1 177.34 445.99
  L 176.45 446.06
  A 0.53 0.52 -87.9 0 0 175.97 446.51
  L 175.89 447.01
  A 0.38 0.38 0.0 0 0 176.35 447.44
  Z
  M 263.67 385.52
  Q 268.60 391.81 270.08 398.33
  A 1.54 1.54 0.0 0 0 271.57 399.53
  C 294.45 399.81 324.60 398.62 350.00 399.10
  Q 354.56 399.18 358.29 397.56
  C 363.02 395.50 369.65 390.38 371.29 385.62
  Q 371.81 384.11 371.79 380.87
  Q 371.73 368.48 373.37 356.58
  A 0.57 0.56 3.5 0 0 372.80 355.94
  Q 364.84 356.09 360.07 356.10
  C 354.77 356.12 351.77 357.08 348.06 360.82
  Q 337.31 371.67 333.09 376.07
  Q 329.60 379.70 324.55 382.66
  C 319.04 385.88 312.30 385.85 304.77 385.91
  Q 282.40 386.08 263.98 384.95
  A 0.36 0.35 -16.8 0 0 263.67 385.52
  Z
  M 187.05 395.80
  Q 186.89 394.06 188.28 392.51
  A 1.81 1.80 -39.4 0 1 191.17 392.79
  C 199.31 406.44 212.26 415.30 226.96 421.08
  C 235.76 424.54 255.97 429.91 261.86 420.27
  A 0.52 0.51 13.0 0 0 261.37 419.49
  C 229.20 422.53 200.05 399.66 181.14 375.80
  A 1.18 1.18 0.0 0 0 179.14 376.05
  L 176.39 382.10
  A 3.78 3.77 41.8 0 0 176.59 385.62
  Q 180.75 392.50 186.54 396.11
  A 0.34 0.33 13.2 0 0 187.05 395.80
  Z"
/>
<path d="
  M 418.67 92.09
  A 0.57 0.57 0.0 0 0 417.91 92.20
  Q 413.65 97.22 411.03 101.04
  C 409.65 103.05 410.90 107.68 411.47 111.01
  A 3.24 3.21 -31.7 0 1 410.87 113.50
  L 399.59 128.59
  A 2.08 2.07 35.2 0 1 396.76 129.07
  L 396.14 128.65
  A 1.65 1.63 -56.2 0 1 395.70 126.37
  L 406.17 110.86
  A 2.04 2.04 0.0 0 0 406.42 109.12
  Q 405.28 105.47 405.52 101.87
  A 2.73 2.72 62.8 0 1 405.90 100.68
  Q 410.93 92.33 415.10 88.04
  A 0.95 0.94 47.4 0 0 415.15 86.77
  Q 413.58 84.93 412.23 82.10
  C 410.96 79.44 409.23 70.57 414.82 71.47
  A 1.57 1.56 -85.1 0 1 416.14 73.04
  Q 415.99 86.18 427.13 90.94
  A 2.32 2.32 0.0 0 1 428.14 94.37
  L 427.87 94.78
  A 2.92 2.92 0.0 0 1 423.82 95.56
  L 418.67 92.09
  Z"
/>
<path d="
  M 314.42 197.52
  L 317.36 201.06
  A 2.30 2.30 0.0 0 1 316.58 204.61
  L 316.02 204.87
  A 3.19 3.19 0.0 0 1 311.94 203.66
  L 307.53 196.51
  A 1.83 1.83 0.0 0 1 308.32 193.88
  L 317.72 189.51
  A 2.21 2.20 67.6 0 1 320.72 190.76
  L 320.83 191.04
  A 2.42 2.42 0.0 0 1 319.63 194.16
  L 314.64 196.52
  A 0.65 0.65 0.0 0 0 314.42 197.52
  Z"
/>
<rect x="-1.73" y="-8.37" transform="translate(325.40,199.95) rotate(31.1)" width="3.46" height="16.74" rx="1.43"/>
<ellipse cx="0.00" cy="0.00" transform="translate(189.16,222.26) rotate(-126.9)" rx="3.11" ry="2.81"/>
<rect x="32.07" y="267.02" width="66.60" height="6.96" rx="3.43"/>
<path d="
  M 324.25 288.15
  Q 333.87 288.50 343.54 288.56
  Q 349.63 288.59 351.24 289.56
  Q 354.65 291.62 354.90 296.22
  C 355.03 298.63 353.50 301.17 352.21 303.80
  Q 345.38 317.72 341.55 324.02
  C 336.95 331.60 330.77 331.15 322.88 330.86
  Q 313.25 330.51 303.58 330.46
  Q 297.49 330.42 295.88 329.45
  Q 292.47 327.39 292.22 322.79
  C 292.09 320.38 293.62 317.84 294.91 315.21
  Q 301.74 301.29 305.57 294.99
  C 310.17 287.41 316.35 287.86 324.25 288.15
  Z
  M 326.44 296.11
  A 0.56 0.56 0.0 0 0 326.06 295.32
  C 319.22 293.78 313.53 294.23 309.96 301.02
  Q 302.92 314.43 298.86 322.06
  A 0.95 0.95 0.0 0 0 299.70 323.45
  L 312.77 323.45
  A 0.80 0.78 12.2 0 0 313.49 323.00
  L 326.44 296.11
  Z
  M 319.27 323.77
  C 322.51 324.12 326.44 323.93 330.43 323.95
  Q 333.84 323.96 335.34 321.26
  Q 341.00 311.08 348.09 296.45
  A 0.69 0.69 0.0 0 0 347.47 295.46
  L 333.24 295.46
  A 1.79 1.79 0.0 0 0 331.63 296.47
  L 318.85 323.02
  A 0.53 0.52 16.1 0 0 319.27 323.77
  Z"
/>
<rect x="0.31" y="306.01" width="55.70" height="7.96" rx="3.91"/>
<rect x="13.37" y="412.11" width="35.52" height="8.06" rx="3.92"/>
</g>
<g fill="#fffefc">
<path d="
  M 419.01 39.48
  C 403.66 31.14 385.53 31.66 369.22 35.44
  C 353.39 39.11 338.25 48.53 329.81 62.53
  C 311.30 93.23 325.17 130.80 356.09 146.38
  C 370.39 153.59 387.81 158.35 403.49 153.40
  A 0.14 0.09 -8.4 0 1 403.68 153.48
  Q 403.67 153.52 403.67 153.56
  A 0.13 0.02 -25.8 0 1 403.57 153.63
  Q 390.29 160.41 375.25 160.95
  C 343.35 162.10 312.97 154.06 287.58 134.46
  C 282.57 130.59 278.40 125.68 272.81 122.32
  A 5.06 5.03 3.1 0 1 270.85 120.15
  L 266.67 111.32
  A 0.33 0.33 0.0 0 1 267.22 110.97
  C 269.02 113.12 270.91 115.11 273.40 116.46
  C 287.61 124.22 300.79 115.67 305.70 101.50
  Q 309.42 90.75 306.95 80.30
  C 304.92 71.71 298.58 62.86 289.56 60.93
  C 281.23 59.14 272.95 62.86 267.50 69.35
  A 0.29 0.29 0.0 0 1 267.00 69.09
  C 276.76 33.81 308.02 10.88 344.35 8.38
  C 373.29 6.39 399.98 17.88 419.21 39.23
  A 0.16 0.16 0.0 0 1 419.01 39.48
  Z"
/>
<path d="
  M 266.22 176.49
  A 0.26 0.25 59.1 0 1 265.75 176.37
  L 264.76 160.88
  A 2.46 2.46 0.0 0 0 261.52 158.71
  L 261.18 158.82
  A 3.01 3.00 -11.5 0 0 259.08 161.98
  L 261.29 185.25
  A 0.59 0.58 -7.1 0 1 260.79 185.89
  C 243.27 188.49 228.04 197.90 218.64 212.48
  A 0.31 0.31 0.0 0 1 218.08 212.42
  Q 210.33 190.45 211.13 168.19
  Q 211.36 161.88 213.62 151.89
  Q 215.50 143.57 223.24 137.49
  Q 230.73 131.61 237.24 130.30
  C 255.25 126.67 267.67 140.79 270.33 157.24
  C 271.46 164.20 269.79 170.68 266.22 176.49
  Z"
/>
<path d="
  M 205.30 158.55
  Q 204.84 160.12 204.74 161.28
  Q 202.44 187.26 210.29 210.36
  A 0.21 0.20 -85.4 0 1 210.00 210.61
  Q 199.93 205.06 189.15 197.28
  A 0.56 0.56 0.0 0 1 188.94 196.67
  C 192.95 183.18 197.71 169.83 204.98 158.41
  A 0.18 0.17 -20.9 0 1 205.30 158.55
  Z"
/>
<path d="
  M 363.31 180.59
  Q 360.94 186.00 358.76 192.26
  C 357.40 196.16 354.99 201.18 353.17 204.89
  A 1.05 1.02 12.5 0 1 352.23 205.47
  L 349.04 205.47
  A 0.39 0.38 12.4 0 1 348.68 204.92
  Q 350.85 200.25 352.68 193.41
  Q 354.56 186.37 347.84 185.14
  Q 331.48 182.13 310.26 175.28
  C 304.35 173.37 301.62 177.14 299.56 182.66
  Q 296.06 192.01 291.42 200.53
  A 0.92 0.92 0.0 0 1 290.29 200.95
  L 276.83 195.95
  A 0.38 0.38 0.0 0 1 276.76 195.27
  C 280.72 192.79 284.77 189.00 287.09 184.73
  Q 293.14 173.64 293.70 161.48
  A 0.19 0.18 16.4 0 1 293.98 161.33
  Q 326.16 179.82 363.04 180.17
  A 0.30 0.30 0.0 0 1 363.31 180.59
  Z"
/>
<path d="
  M 399.90 177.78
  L 377.21 177.78
  A 0.25 0.24 -58.8 0 1 377.10 177.32
  Q 382.83 174.25 384.10 168.25
  A 0.93 0.92 3.0 0 1 384.91 167.53
  L 389.69 167.08
  A 0.92 0.90 -24.7 0 1 390.42 167.34
  L 400.18 177.10
  A 0.40 0.40 0.0 0 1 399.90 177.78
  Z"
/>
<path d="
  M 335.04 206.88
  A 0.30 0.30 0.0 0 1 334.87 206.31
  Q 337.77 205.10 339.80 203.78
  Q 341.80 202.47 340.15 200.11
  Q 339.82 199.63 336.63 195.36
  A 2.22 2.22 0.0 0 0 333.50 194.91
  L 333.36 195.01
  A 2.26 2.26 0.0 0 0 332.85 198.15
  L 334.68 200.73
  A 0.51 0.51 0.0 0 1 334.46 201.50
  Q 330.85 203.01 329.16 204.04
  A 1.75 1.31 -31.2 0 0 328.35 206.05
  Q 328.80 206.82 330.01 207.20
  A 0.27 0.27 0.0 0 1 329.98 207.72
  L 321.58 209.23
  A 0.87 0.86 67.0 0 1 320.72 208.88
  Q 319.75 207.53 318.76 207.22
  Q 309.15 204.24 299.59 202.28
  A 0.37 0.37 0.0 0 1 299.33 201.75
  C 302.77 195.20 306.32 189.40 307.60 182.91
  A 0.58 0.58 0.0 0 1 308.28 182.45
  Q 312.40 183.29 318.16 185.16
  Q 330.96 189.32 346.06 191.85
  A 0.76 0.76 0.0 0 1 346.62 192.92
  L 341.12 205.02
  A 1.77 1.76 6.9 0 1 339.84 206.02
  L 335.04 206.88
  Z
  M 314.64 196.52
  L 319.63 194.16
  A 2.42 2.42 0.0 0 0 320.83 191.04
  L 320.72 190.76
  A 2.21 2.20 67.6 0 0 317.72 189.51
  L 308.32 193.88
  A 1.83 1.83 0.0 0 0 307.53 196.51
  L 311.94 203.66
  A 3.19 3.19 0.0 0 0 316.02 204.87
  L 316.58 204.61
  A 2.30 2.30 0.0 0 0 317.36 201.06
  L 314.42 197.52
  A 0.65 0.65 0.0 0 1 314.64 196.52
  Z
  M 330.4661 194.9011
  A 1.43 1.43 0.0 0 0 329.9803 192.9380
  L 329.4665 192.6281
  A 1.43 1.43 0.0 0 0 327.5034 193.1139
  L 320.3339 204.9989
  A 1.43 1.43 0.0 0 0 320.8197 206.9620
  L 321.3335 207.2719
  A 1.43 1.43 0.0 0 0 323.2966 206.7861
  L 330.4661 194.9011
  Z"
/>
<path d="
  M 238.48 200.33
  Q 249.51 193.43 262.27 191.68
  A 1.06 1.05 31.1 0 1 262.78 193.72
  Q 253.07 197.20 245.32 206.08
  A 0.28 0.27 -48.8 0 1 244.94 206.11
  L 238.46 200.55
  A 0.14 0.14 0.0 0 1 238.48 200.33
  Z"
/>
<path d="
  M 274.45 247.43
  A 0.28 0.28 0.0 0 1 274.15 247.81
  Q 259.62 245.89 245.58 240.41
  A 1.79 1.78 89.5 0 1 244.57 239.41
  Q 243.19 236.04 243.06 232.23
  C 242.51 216.51 251.75 202.15 267.45 198.30
  A 1.17 1.17 0.0 0 1 268.39 198.48
  Q 275.06 203.08 284.13 205.81
  A 0.41 0.41 0.0 0 1 284.32 206.47
  C 274.85 216.92 269.12 233.59 274.45 247.43
  Z"
/>
<path d="
  M 485.24 226.02
  L 480.88 228.71
  A 0.94 0.93 -2.6 0 1 479.55 227.50
  Q 483.96 218.74 479.99 208.36
  A 3.56 3.56 0.0 0 1 482.43 203.64
  L 482.56 203.60
  A 4.38 4.37 72.1 0 1 487.72 206.25
  Q 490.81 214.20 488.46 221.85
  A 7.47 7.44 -7.4 0 1 485.24 226.02
  Z"
/>
<path d="
  M 464.49 230.97
  Q 467.22 225.69 467.38 224.35
  Q 468.46 215.39 465.51 208.73
  A 3.11 3.11 0.0 0 1 468.20 204.36
  L 468.40 204.35
  A 6.33 6.32 -14.0 0 1 474.48 208.00
  C 478.03 215.62 478.78 233.59 464.88 231.72
  A 0.52 0.52 0.0 0 1 464.49 230.97
  Z"
/>
<path d="
  M 445.94 229.36
  A 0.43 0.43 0.0 0 1 445.98 228.68
  C 449.66 226.26 451.66 222.73 451.61 218.08
  C 451.58 215.31 451.78 212.26 453.83 209.88
  C 456.13 207.20 459.00 208.81 460.43 211.38
  C 461.72 213.69 461.87 216.86 461.94 219.50
  C 462.22 229.07 455.35 237.24 445.94 229.36
  Z"
/>
<path d="
  M 373.15 238.89
  A 0.40 0.39 81.4 0 1 372.64 238.51
  Q 372.62 231.57 368.45 225.98
  C 366.95 223.98 362.94 218.71 360.17 221.66
  A 2.02 2.00 41.1 0 0 360.39 224.59
  Q 367.91 230.77 367.04 241.01
  Q 366.56 246.58 361.59 248.98
  A 1.08 1.08 0.0 0 1 360.05 247.88
  C 360.88 240.99 359.86 234.36 354.95 229.61
  Q 352.37 227.11 350.35 229.44
  A 2.66 2.27 50.7 0 0 350.29 232.39
  Q 350.73 233.09 353.00 236.04
  A 5.84 5.70 18.4 0 1 353.99 237.96
  Q 356.18 245.38 353.15 253.04
  Q 352.37 254.99 350.22 255.64
  A 1.53 1.53 0.0 0 1 348.25 254.14
  Q 348.35 248.61 347.14 243.59
  C 346.38 240.41 343.58 234.39 339.55 237.73
  A 2.60 2.59 -36.4 0 0 339.03 241.15
  Q 341.10 244.30 341.48 245.25
  C 343.00 249.00 343.72 257.09 338.72 258.86
  Q 335.71 259.92 333.38 256.77
  C 331.90 254.78 331.77 250.14 330.23 247.60
  C 326.29 241.11 319.12 246.32 313.31 249.21
  A 0.79 0.79 0.0 0 1 312.40 249.06
  C 304.07 240.86 311.50 220.83 320.63 215.49
  A 3.41 3.25 21.9 0 1 321.46 215.16
  Q 334.97 211.89 347.99 211.15
  C 358.16 210.57 368.65 212.49 375.46 220.70
  Q 379.45 225.50 379.13 230.74
  C 378.88 234.69 376.74 237.78 373.15 238.89
  Z"
/>
<path d="
  M 265.04 264.93
  C 273.60 265.15 281.57 266.60 285.59 257.42
  A 0.70 0.70 0.0 0 1 286.31 257.01
  L 297.26 258.16
  A 1.03 1.02 78.5 0 1 298.07 258.70
  C 301.32 264.91 307.27 274.02 315.19 274.15
  Q 357.60 274.86 366.50 275.07
  C 372.60 275.22 376.42 272.88 382.57 268.54
  Q 390.86 262.68 404.33 252.32
  C 408.61 249.02 411.12 242.70 408.29 237.75
  Q 403.96 230.16 397.52 224.86
  A 0.49 0.48 -59.6 0 1 397.38 224.32
  Q 399.34 219.22 399.24 216.14
  A 0.65 0.65 0.0 0 1 399.89 215.46
  L 409.46 215.46
  A 1.17 1.15 -16.3 0 1 410.43 215.98
  C 422.69 234.31 436.67 249.27 454.41 262.55
  A 0.35 0.35 0.0 0 1 454.30 263.17
  Q 419.80 273.76 397.17 301.92
  C 385.85 316.01 379.20 331.63 374.70 348.80
  A 0.93 0.92 -81.8 0 1 373.80 349.48
  Q 363.85 349.36 356.51 349.49
  C 349.65 349.62 346.24 353.01 341.42 358.18
  Q 332.21 368.07 323.49 375.25
  Q 319.07 378.89 312.48 378.91
  Q 278.61 379.04 258.19 378.42
  A 1.38 1.37 -21.3 0 1 257.27 378.02
  L 251.96 372.71
  A 0.94 0.93 -51.7 0 1 251.83 371.56
  Q 258.22 361.16 278.43 326.70
  C 292.22 303.18 282.79 282.70 264.87 265.34
  A 0.24 0.24 0.0 0 1 265.04 264.93
  Z
  M 322.88 330.86
  C 330.77 331.15 336.95 331.60 341.55 324.02
  Q 345.38 317.72 352.21 303.80
  C 353.50 301.17 355.03 298.63 354.90 296.22
  Q 354.65 291.62 351.24 289.56
  Q 349.63 288.59 343.54 288.56
  Q 333.87 288.50 324.25 288.15
  C 316.35 287.86 310.17 287.41 305.57 294.99
  Q 301.74 301.29 294.91 315.21
  C 293.62 317.84 292.09 320.38 292.22 322.79
  Q 292.47 327.39 295.88 329.45
  Q 297.49 330.42 303.58 330.46
  Q 313.25 330.51 322.88 330.86
  Z"
/>
<path d="
  M 156.34 233.20
  Q 155.00 235.67 155.22 238.60
  Q 156.51 255.49 165.29 267.56
  Q 168.57 272.06 176.79 276.99
  A 11.42 11.09 -4.9 0 1 179.38 279.11
  Q 192.82 294.02 211.19 304.22
  A 0.70 0.70 0.0 0 1 211.43 305.21
  L 204.64 315.26
  A 0.49 0.48 33.9 0 1 203.96 315.39
  Q 172.10 293.47 154.97 281.30
  Q 128.07 262.17 110.53 249.13
  Q 104.55 244.68 100.42 240.70
  A 0.53 0.52 -32.9 0 1 100.61 239.83
  Q 108.06 237.18 116.07 235.63
  Q 136.02 231.76 155.89 232.42
  A 0.53 0.53 0.0 0 1 156.34 233.20
  Z"
/>
<path d="
  M 177.04 253.76
  C 180.48 255.50 187.95 259.35 194.29 261.53
  C 199.13 263.20 204.47 262.74 209.06 261.29
  C 215.01 259.40 217.04 254.91 219.95 249.93
  A 0.81 0.81 0.0 0 1 220.76 249.53
  C 240.66 251.88 257.14 263.38 269.19 279.07
  A 0.17 0.17 0.0 0 1 269.04 279.34
  C 262.39 278.65 253.27 279.23 247.51 283.28
  Q 245.49 284.70 245.98 288.38
  A 0.90 0.90 0.0 0 1 245.24 289.38
  Q 230.54 291.96 217.68 299.33
  A 0.91 0.91 0.0 0 1 216.84 299.37
  Q 211.52 296.95 199.05 287.73
  Q 188.83 280.17 182.41 270.62
  Q 178.42 264.68 176.48 254.18
  A 0.39 0.39 0.0 0 1 177.04 253.76
  Z"
/>
<path d="
  M 536.28 278.85
  A 0.35 0.34 -27.6 0 1 536.08 279.48
  Q 522.43 279.21 511.00 279.66
  Q 486.19 280.63 463.65 290.90
  A 0.43 0.43 0.0 0 1 463.10 290.73
  L 453.37 274.97
  A 0.50 0.50 0.0 0 1 453.42 274.37
  Q 456.98 270.31 460.95 268.98
  Q 468.51 266.45 476.50 265.81
  C 496.52 264.21 519.08 267.33 536.28 278.85
  Z"
/>
<path d="
  M 247.01 295.12
  Q 248.07 301.12 247.29 307.79
  A 0.37 0.37 0.0 0 1 246.89 308.12
  Q 235.14 307.05 222.61 303.36
  A 0.37 0.37 0.0 0 1 222.54 302.67
  Q 233.62 297.02 246.19 294.56
  A 0.70 0.70 0.0 0 1 247.01 295.12
  Z"
/>
<path d="
  M 426.05 296.36
  A 0.28 0.27 -36.3 0 1 426.48 296.42
  L 433.32 308.26
  A 0.73 0.73 0.0 0 1 433.15 309.18
  C 422.85 317.76 414.66 330.26 409.46 342.18
  Q 407.71 346.21 406.63 347.05
  C 404.76 348.52 399.92 349.57 399.13 346.22
  Q 398.70 344.41 399.07 342.02
  C 401.77 324.62 413.45 308.04 426.05 296.36
  Z"
/>
<path d="
  M 269.27 328.59
  A 0.36 0.36 0.0 0 1 269.57 329.14
  L 260.43 343.85
  A 1.39 1.35 -77.6 0 1 259.47 344.48
  C 248.27 346.10 234.44 342.75 225.14 337.89
  Q 216.06 333.16 209.35 324.23
  A 1.08 1.06 37.9 0 1 209.21 323.18
  Q 212.35 315.26 217.91 307.87
  A 0.79 0.78 27.6 0 1 218.80 307.60
  Q 232.23 312.20 245.80 313.16
  A 0.66 0.66 0.0 0 1 246.41 313.85
  Q 246.39 314.23 246.15 315.11
  C 243.27 325.83 262.86 328.55 269.27 328.59
  Z"
/>
<path d="
  M 254.12 385.05
  C 247.01 384.24 238.79 383.55 232.26 385.50
  C 229.50 386.32 229.14 389.85 231.89 390.93
  A 1.68 1.67 -41.3 0 0 232.87 390.99
  Q 242.96 388.47 253.28 390.19
  C 257.88 390.95 261.78 391.93 263.26 396.82
  Q 265.47 404.12 263.88 412.09
  A 1.66 1.63 -3.1 0 1 262.74 413.34
  C 249.56 417.37 232.71 411.20 220.87 404.10
  Q 198.88 390.90 182.70 369.71
  A 0.84 0.84 0.0 0 1 182.65 368.75
  L 192.85 352.35
  A 0.56 0.56 0.0 0 1 193.73 352.26
  C 207.06 366.04 225.47 372.88 244.34 372.54
  A 0.47 0.45 76.3 0 1 244.77 372.81
  L 246.00 375.40
  A 0.11 0.11 0.0 0 1 245.89 375.56
  Q 234.96 374.24 227.34 375.02
  Q 226.03 375.16 224.65 375.97
  C 222.21 377.40 223.67 380.36 225.95 380.92
  A 2.19 2.04 44.2 0 0 226.86 380.94
  C 234.96 379.35 242.86 379.87 250.68 381.68
  Q 252.48 382.09 254.35 384.67
  A 0.25 0.24 -14.2 0 1 254.12 385.05
  Z"
/>
</g>
<g fill="#ff8a2a">
<path d="
  M 359.50 139.76
  C 340.46 130.36 327.61 110.14 329.69 88.56
  Q 330.57 79.46 333.88 71.37
  C 338.36 60.42 351.07 49.12 362.92 45.64
  C 383.02 39.74 406.68 37.52 424.17 51.34
  C 430.41 56.26 434.72 63.07 436.82 71.25
  C 442.26 92.43 440.07 112.92 427.04 130.46
  Q 413.56 148.62 389.63 147.57
  Q 373.95 146.89 359.50 139.76
  Z
  M 418.67 92.09
  L 423.82 95.56
  A 2.92 2.92 0.0 0 0 427.87 94.78
  L 428.14 94.37
  A 2.32 2.32 0.0 0 0 427.13 90.94
  Q 415.99 86.18 416.14 73.04
  A 1.57 1.56 -85.1 0 0 414.82 71.47
  C 409.23 70.57 410.96 79.44 412.23 82.10
  Q 413.58 84.93 415.15 86.77
  A 0.95 0.94 47.4 0 1 415.10 88.04
  Q 410.93 92.33 405.90 100.68
  A 2.73 2.72 62.8 0 0 405.52 101.87
  Q 405.28 105.47 406.42 109.12
  A 2.04 2.04 0.0 0 1 406.17 110.86
  L 395.70 126.37
  A 1.65 1.63 -56.2 0 0 396.14 128.65
  L 396.76 129.07
  A 2.08 2.07 35.2 0 0 399.59 128.59
  L 410.87 113.50
  A 3.24 3.21 -31.7 0 0 411.47 111.01
  C 410.90 107.68 409.65 103.05 411.03 101.04
  Q 413.65 97.22 417.91 92.20
  A 0.57 0.57 0.0 0 1 418.67 92.09
  Z"
/>
<path d="
  M 538.59 207.93
  Q 536.73 206.05 536.92 201.52
  L 536.57 191.90
  Q 536.41 187.37 539.72 185.41
  Q 549.00 176.56 558.29 167.29
  C 566.42 159.17 573.63 152.74 582.18 144.18
  C 584.00 142.35 588.20 138.47 590.71 138.85
  A 2.19 2.12 -79.6 0 1 592.46 141.47
  Q 591.97 143.75 591.16 145.92
  Q 586.81 157.54 584.12 166.94
  A 0.93 0.93 0.0 0 0 585.28 168.09
  Q 590.22 166.62 594.69 165.31
  Q 618.43 158.33 642.53 151.80
  Q 644.45 151.28 646.61 150.95
  A 2.60 2.47 48.6 0 1 647.74 151.05
  C 650.49 151.95 651.69 154.71 649.60 156.87
  Q 641.09 165.68 632.35 174.09
  Q 631.42 174.99 630.36 176.83
  A 1.27 1.27 0.0 0 0 631.01 178.65
  Q 632.81 179.33 636.20 180.33
  Q 655.62 186.06 681.08 192.91
  C 683.41 193.54 687.58 195.15 686.56 198.21
  Q 685.79 200.55 683.22 201.21
  Q 678.16 202.52 644.26 210.52
  Q 639.86 211.56 634.98 212.96
  Q 632.28 213.73 630.35 215.13
  A 0.98 0.98 0.0 0 0 630.10 216.44
  Q 631.54 218.69 633.35 220.66
  Q 636.89 224.51 648.35 236.63
  C 649.60 237.96 651.27 240.52 648.97 241.59
  C 645.98 242.97 639.40 240.69 636.29 239.73
  Q 614.21 232.89 586.91 225.24
  A 0.89 0.89 0.0 0 0 585.84 226.42
  Q 590.85 239.10 593.62 245.58
  C 595.59 250.20 590.35 251.31 587.61 249.14
  Q 562.44 229.17 538.59 207.93
  Z
  M 635.04 198.25
  Q 633.78 197.56 632.74 197.27
  Q 628.62 196.11 606.02 190.45
  Q 601.92 189.42 598.33 187.86
  A 0.46 0.46 0.0 0 1 598.19 187.11
  Q 600.71 184.64 604.25 181.99
  Q 607.05 179.89 607.88 177.22
  A 1.10 1.10 0.0 0 0 606.69 175.81
  Q 589.85 177.97 572.19 181.90
  A 1.87 1.87 0.0 0 1 569.98 179.60
  L 572.12 171.53
  A 1.17 1.16 -6.3 0 0 570.46 170.20
  Q 569.93 170.48 568.71 171.46
  Q 558.89 179.36 545.66 189.91
  C 542.34 192.56 542.53 196.03 543.21 200.03
  Q 543.62 202.46 546.55 204.72
  Q 548.39 206.14 569.60 221.67
  Q 571.09 222.76 573.01 223.15
  A 0.92 0.92 0.0 0 0 574.10 222.11
  C 573.57 218.59 569.95 214.56 568.63 212.01
  A 1.22 1.22 0.0 0 1 569.36 210.29
  Q 569.38 210.28 570.46 210.38
  Q 570.50 210.39 594.16 215.69
  Q 603.80 217.85 606.46 218.00
  Q 608.45 218.12 609.00 216.08
  A 0.94 0.92 -58.2 0 0 608.81 215.23
  L 603.06 208.30
  A 1.27 1.26 55.0 0 1 603.39 206.40
  Q 605.26 205.29 607.65 204.89
  Q 622.82 202.30 634.90 199.28
  A 0.56 0.56 0.0 0 0 635.04 198.25
  Z"
/>
</g>
<g fill="#4aaef2">
<path d="
  M 301.07 90.26
  C 300.93 101.50 294.15 113.23 281.67 112.95
  A 0.38 0.38 0.0 0 1 281.51 112.24
  C 290.00 107.99 293.88 99.38 293.99 90.18
  C 294.09 80.98 290.42 72.28 282.02 67.83
  A 0.38 0.38 0.0 0 1 282.20 67.13
  C 294.68 67.13 301.20 79.02 301.07 90.26
  Z"
/>
<ellipse cx="0.00" cy="0.00" transform="translate(277.33,90.15) rotate(-89.8)" rx="17.92" ry="11.75"/>
<path d="
  M 239.83 119.23
  A 0.25 0.25 0.0 0 1 239.48 118.93
  C 242.09 111.71 242.93 99.63 236.52 93.81
  A 0.26 0.25 70.6 0 1 236.73 93.37
  L 255.43 96.17
  A 0.96 0.95 -88.1 0 1 256.24 97.04
  Q 257.06 107.00 260.46 116.08
  A 0.38 0.38 0.0 0 1 260.02 116.59
  Q 249.71 114.27 239.83 119.23
  Z"
/>
<path d="
  M 200.85 118.69
  Q 203.80 110.63 207.92 104.48
  C 212.63 97.42 221.63 91.02 229.98 95.70
  C 239.24 100.90 236.82 114.85 232.74 122.59
  A 2.96 2.84 89.8 0 1 231.65 123.73
  L 219.92 130.50
  A 0.65 0.64 41.5 0 1 219.34 130.53
  Q 210.29 126.69 201.17 119.77
  A 0.96 0.95 -61.8 0 1 200.85 118.69
  Z"
/>
<path d="
  M 251.07 122.82
  Q 260.22 121.50 267.40 126.10
  C 275.69 131.40 282.64 142.34 285.72 152.54
  Q 288.21 160.77 285.98 169.26
  C 283.61 178.32 279.33 187.09 270.21 190.84
  A 0.91 0.91 0.0 0 1 269.27 190.68
  C 268.13 189.66 268.11 188.52 268.98 187.10
  Q 271.46 183.07 272.49 181.21
  Q 282.65 162.69 273.08 143.19
  C 268.17 133.18 260.94 127.89 250.98 123.49
  A 0.35 0.35 0.0 0 1 251.07 122.82
  Z"
/>
<path d="
  M 197.21 125.69
  A 0.58 0.58 0.0 0 1 198.04 125.43
  L 213.97 135.34
  A 0.28 0.28 0.0 0 1 214.02 135.77
  C 200.15 149.45 190.85 165.71 184.29 184.11
  A 0.87 0.86 -61.7 0 1 182.95 184.52
  L 174.49 178.20
  A 1.35 1.35 0.0 0 1 174.07 176.56
  L 197.21 125.69
  Z"
/>
<path d="
  M 292.89 152.61
  L 291.99 145.91
  A 0.09 0.09 0.0 0 1 292.13 145.83
  Q 318.30 163.17 347.91 166.79
  Q 362.76 168.61 376.11 167.86
  A 0.57 0.57 0.0 0 1 376.63 168.72
  C 374.62 172.23 369.46 173.00 365.78 173.07
  Q 326.60 173.87 293.03 152.83
  A 0.32 0.32 0.0 0 1 292.89 152.61
  Z"
/>
<path d="
  M 514.43 210.97
  C 508.39 212.38 503.16 211.33 502.54 204.48
  C 502.05 199.05 501.93 192.44 503.34 187.13
  C 504.74 181.86 508.98 179.63 514.36 180.54
  A 0.56 0.55 20.8 0 1 514.74 181.38
  C 510.99 187.38 511.08 193.88 511.72 201.14
  Q 512.13 205.84 514.75 210.22
  A 0.51 0.50 -22.2 0 1 514.43 210.97
  Z"
/>
<path d="
  M 525.29 206.73
  A 1.13 1.13 0.0 0 1 525.11 208.56
  L 523.45 209.52
  A 1.89 1.88 53.5 0 1 521.14 209.17
  Q 519.05 206.94 518.04 201.76
  Q 515.93 190.98 520.89 182.70
  A 2.20 2.19 -53.8 0 1 524.22 182.18
  L 524.44 182.37
  A 2.65 2.65 0.0 0 1 524.76 186.00
  Q 522.02 189.44 521.67 195.22
  Q 521.20 203.12 525.29 206.73
  Z"
/>
<path d="
  M 171.07 183.95
  A 0.32 0.32 0.0 0 1 171.52 183.86
  L 182.00 190.93
  A 0.80 0.79 18.1 0 1 182.36 191.63
  Q 182.23 194.28 180.71 195.51
  Q 174.49 200.58 171.13 207.88
  A 0.54 0.54 0.0 0 1 170.22 207.99
  C 164.57 201.11 166.77 191.07 171.07 183.95
  Z"
/>
<path d="
  M 360.81 205.88
  A 0.35 0.35 0.0 0 1 360.59 205.40
  Q 364.59 196.76 369.36 188.37
  Q 370.91 185.66 373.75 185.57
  Q 400.67 184.75 436.61 185.17
  A 1.05 1.05 0.0 0 1 437.64 186.22
  L 437.64 189.56
  A 1.19 1.19 0.0 0 1 436.45 190.75
  L 396.52 190.75
  A 2.65 2.64 -90.0 0 0 393.88 193.40
  L 393.88 193.97
  A 3.09 3.09 0.0 0 0 396.97 197.06
  L 435.99 197.06
  A 0.95 0.95 0.0 0 1 436.94 198.01
  L 436.94 208.12
  A 0.68 0.68 0.0 0 1 436.24 208.80
  Q 401.85 207.96 371.67 208.94
  A 4.67 4.48 -36.3 0 1 370.23 208.75
  L 360.81 205.88
  Z"
/>
<path d="
  M 496.46 185.61
  A 0.60 0.59 7.1 0 1 497.04 186.35
  C 495.26 193.05 495.85 198.60 496.86 205.31
  A 0.56 0.56 0.0 0 1 496.41 205.94
  Q 494.56 206.29 494.02 205.31
  C 491.00 199.88 486.34 195.13 479.76 197.61
  C 478.73 198.00 477.73 198.89 476.77 199.47
  A 0.94 0.93 46.3 0 1 475.76 199.44
  C 471.43 196.37 465.71 194.95 462.22 199.93
  Q 461.24 201.32 460.71 202.02
  A 0.98 0.97 20.7 0 1 459.86 202.40
  C 453.38 201.89 450.65 202.75 446.91 208.17
  A 1.38 1.36 -72.6 0 1 445.78 208.77
  L 442.86 208.77
  A 0.84 0.84 0.0 0 1 442.02 207.99
  Q 441.20 197.54 443.33 186.50
  A 1.10 1.09 -84.6 0 1 444.40 185.61
  L 496.46 185.61
  Z"
/>
<path d="
  M 536.57 191.90
  L 536.92 201.52
  L 530.28 201.61
  A 2.66 2.65 -0.4 0 1 527.58 198.96
  L 527.58 194.00
  A 2.42 2.41 1.5 0 1 530.12 191.59
  L 536.57 191.90
  Z"
/>
<path d="
  M 212.63 219.92
  A 0.44 0.44 0.0 0 1 212.84 220.54
  L 205.86 232.63
  A 2.22 2.21 20.5 0 1 203.52 233.69
  Q 199.08 232.83 195.22 231.01
  Q 183.98 225.71 174.98 217.16
  A 1.22 1.20 34.7 0 1 174.72 215.76
  C 176.65 211.74 179.22 206.73 182.42 203.65
  A 1.97 1.96 37.6 0 1 184.75 203.35
  Q 189.31 205.96 193.36 208.92
  Q 202.31 215.48 212.63 219.92
  Z
  M 187.2927 219.7730
  A 3.11 2.81 -126.9 0 0 186.9129 223.9472
  A 3.11 2.81 -126.9 0 0 191.0273 224.7470
  A 3.11 2.81 -126.9 0 0 191.4071 220.5728
  A 3.11 2.81 -126.9 0 0 187.2927 219.7730
  Z"
/>
<path d="
  M 237.97 237.03
  A 0.43 0.43 0.0 0 1 237.36 237.48
  C 232.16 235.00 224.94 229.31 222.75 224.20
  C 219.94 217.62 228.57 207.65 233.27 203.65
  A 0.85 0.84 -44.7 0 1 234.36 203.65
  L 242.16 210.35
  A 0.69 0.68 35.5 0 1 242.31 211.20
  Q 235.96 222.82 237.97 237.03
  Z"
/>
<path d="
  M 306.39 252.52
  L 283.84 250.14
  A 2.57 2.54 66.7 0 1 282.48 249.59
  C 278.31 246.29 278.16 238.54 278.90 233.80
  Q 280.38 224.41 284.97 215.20
  C 285.95 213.24 289.28 208.79 291.99 207.98
  A 1.62 1.53 -46.6 0 1 292.69 207.94
  L 313.97 212.01
  A 0.72 0.72 0.0 0 1 314.33 213.24
  C 303.99 223.09 300.30 238.84 306.82 251.89
  A 0.44 0.43 79.6 0 1 306.39 252.52
  Z"
/>
<path d="
  M 385.61 227.26
  A 0.33 0.33 0.0 0 1 385.08 227.08
  Q 383.64 220.63 379.08 215.89
  A 0.38 0.38 0.0 0 1 379.36 215.25
  L 391.71 215.25
  A 0.54 0.54 0.0 0 1 392.25 215.78
  C 392.35 220.83 388.96 224.34 385.61 227.26
  Z"
/>
<path d="
  M 468.72 258.28
  A 1.00 1.00 0.0 0 1 468.27 260.12
  L 461.87 260.73
  A 4.97 4.94 -29.6 0 1 458.52 259.82
  Q 444.04 249.36 434.54 238.96
  Q 424.59 228.07 416.15 216.35
  A 0.48 0.48 0.0 0 1 416.54 215.58
  L 424.76 215.58
  A 1.32 1.31 -17.2 0 1 425.84 216.14
  Q 437.25 232.38 445.31 240.20
  Q 454.48 249.11 468.72 258.28
  Z"
/>
<path d="
  M 435.16 216.58
  L 445.03 215.64
  A 0.53 0.52 -11.8 0 1 445.58 215.99
  C 446.37 218.42 446.44 222.99 443.89 224.40
  Q 442.93 224.93 442.46 224.93
  A 1.34 1.33 67.4 0 1 441.35 224.47
  L 434.99 216.99
  A 0.25 0.25 0.0 0 1 435.16 216.58
  Z"
/>
<path d="
  M 202.77 239.35
  L 196.15 253.92
  A 0.49 0.48 21.4 0 1 195.54 254.18
  Q 184.23 250.31 174.71 243.05
  Q 170.86 240.11 169.31 238.21
  A 2.48 2.46 -71.3 0 1 168.81 237.19
  C 167.87 233.34 170.38 226.38 171.90 222.36
  A 0.46 0.46 0.0 0 1 172.64 222.18
  C 180.83 229.59 191.44 236.64 202.45 238.72
  A 0.45 0.45 0.0 0 1 202.77 239.35
  Z"
/>
<path d="
  M 216.59 226.79
  L 219.75 231.90
  A 2.82 2.80 41.5 0 1 219.92 234.54
  L 213.06 249.62
  A 8.79 8.78 -0.5 0 1 208.81 253.94
  L 204.56 255.95
  A 2.00 2.00 0.0 0 1 201.90 253.27
  L 214.60 226.90
  A 1.14 1.13 -48.1 0 1 216.59 226.79
  Z"
/>
<path d="
  M 329.06 263.55
  Q 329.10 263.63 330.44 264.99
  Q 330.91 265.47 331.85 265.85
  Q 338.25 268.39 343.14 263.90
  Q 345.04 262.17 345.42 261.37
  A 0.61 0.61 0.0 0 1 346.18 261.06
  C 347.08 261.37 348.48 262.19 349.59 262.25
  C 354.38 262.51 355.87 259.41 358.46 256.17
  A 1.69 1.68 -71.0 0 1 359.76 255.53
  C 366.14 255.43 368.48 251.90 371.96 247.07
  A 1.87 1.84 10.1 0 1 373.01 246.35
  C 378.12 245.01 380.51 242.63 383.41 238.69
  A 3.71 3.59 89.1 0 1 384.03 238.03
  L 393.18 230.43
  A 0.47 0.46 -43.4 0 1 393.78 230.44
  Q 396.76 233.09 400.01 237.16
  Q 405.70 244.30 398.28 249.63
  Q 387.75 257.20 375.05 266.78
  C 371.84 269.20 368.79 269.80 364.44 269.76
  Q 344.64 269.57 319.55 268.84
  A 0.30 0.29 31.0 0 1 319.41 268.29
  L 328.38 263.33
  A 0.49 0.49 0.0 0 1 329.06 263.55
  Z"
/>
<path d="
  M 161.32 232.57
  L 161.34 232.57
  A 0.37 0.37 0.0 0 1 161.66 232.99
  Q 160.95 237.78 163.19 241.79
  C 164.35 243.87 167.26 246.22 168.96 247.93
  A 2.34 2.31 22.3 0 1 169.63 249.51
  Q 169.80 257.09 172.69 265.10
  A 0.23 0.23 0.0 0 1 172.33 265.36
  C 167.92 261.88 165.46 257.83 163.12 252.54
  Q 159.05 243.38 160.80 232.96
  A 0.48 0.47 -81.6 0 1 161.32 232.57
  Z"
/>
<path d="
  M 453.86 239.20
  A 0.57 0.56 -28.5 0 1 454.15 238.23
  L 458.99 237.36
  A 1.29 1.28 -27.4 0 1 460.15 237.72
  L 478.40 255.97
  A 0.81 0.81 0.0 0 1 477.51 257.29
  Q 475.28 256.35 472.99 254.61
  Q 459.11 244.10 453.86 239.20
  Z"
/>
<path d="
  M 250.67 250.73
  L 250.67 253.65
  A 0.39 0.38 15.2 0 1 250.09 253.98
  Q 249.70 253.74 243.38 250.62
  Q 233.92 245.95 223.33 244.52
  A 0.52 0.51 -74.2 0 1 222.93 243.80
  L 225.54 238.07
  A 0.57 0.57 0.0 0 1 226.43 237.87
  Q 230.19 241.15 234.96 243.55
  Q 243.34 247.76 250.06 249.90
  A 0.87 0.87 0.0 0 1 250.67 250.73
  Z"
/>
<path d="
  M 257.16 252.90
  A 0.99 0.99 0.0 0 1 258.40 252.01
  Q 266.37 254.12 276.52 255.06
  A 0.98 0.98 0.0 0 1 277.28 256.52
  L 276.76 257.42
  A 2.70 2.69 -73.1 0 1 274.25 258.76
  L 258.51 257.70
  A 1.68 1.68 0.0 0 1 256.95 255.91
  L 257.16 252.90
  Z"
/>
<path d="
  M 324.44 252.59
  L 326.10 256.08
  A 0.64 0.64 0.0 0 1 325.84 256.91
  L 320.17 260.18
  A 0.64 0.64 0.0 0 1 319.39 260.08
  L 316.08 256.77
  A 0.64 0.64 0.0 0 1 316.26 255.74
  L 323.59 252.28
  A 0.64 0.64 0.0 0 1 324.44 252.59
  Z"
/>
<path d="
  M 305.34 260.02
  A 0.51 0.51 0.0 0 1 305.68 259.18
  L 307.45 259.01
  A 1.76 1.76 0.0 0 1 308.96 259.64
  L 312.92 264.40
  A 0.37 0.37 0.0 0 1 312.82 264.96
  L 311.31 265.84
  A 1.08 1.07 -34.6 0 1 309.96 265.60
  L 305.34 260.02
  Z"
/>
<path d="
  M 478.28 375.18
  Q 478.43 375.19 480.78 375.37
  C 486.00 375.76 490.10 372.82 491.06 367.55
  C 491.70 364.10 490.83 359.19 487.15 357.61
  C 481.84 355.33 476.53 359.05 474.32 363.87
  A 0.50 0.50 0.0 0 1 473.43 363.91
  L 427.92 285.09
  A 0.69 0.68 55.9 0 1 428.08 284.22
  Q 435.05 278.61 442.94 276.17
  Q 445.59 275.35 447.19 277.52
  Q 448.74 279.62 451.66 284.85
  Q 478.90 333.61 494.22 359.78
  Q 497.49 365.36 495.94 370.22
  C 493.45 378.00 484.49 380.63 478.12 375.63
  A 0.25 0.25 0.0 0 1 478.28 375.18
  Z"
/>
<path d="
  M 252.09 286.81
  Q 261.75 283.41 272.87 285.11
  A 1.00 0.99 -11.7 0 1 273.55 285.55
  C 281.00 296.84 279.65 311.41 272.55 322.66
  A 1.17 1.17 0.0 0 1 271.59 323.19
  C 267.66 323.23 250.20 322.17 251.70 315.48
  Q 254.06 304.96 252.36 294.51
  Q 251.80 291.05 251.38 287.99
  A 1.09 1.08 -14.0 0 1 252.09 286.81
  Z"
/>
<path d="
  M 326.44 296.11
  L 313.49 323.00
  A 0.80 0.78 12.2 0 1 312.77 323.45
  L 299.70 323.45
  A 0.95 0.95 0.0 0 1 298.86 322.06
  Q 302.92 314.43 309.96 301.02
  C 313.53 294.23 319.22 293.78 326.06 295.32
  A 0.56 0.56 0.0 0 1 326.44 296.11
  Z"
/>
<path d="
  M 319.27 323.77
  A 0.53 0.52 16.1 0 1 318.85 323.02
  L 331.63 296.47
  A 1.79 1.79 0.0 0 1 333.24 295.46
  L 347.47 295.46
  A 0.69 0.69 0.0 0 1 348.09 296.45
  Q 341.00 311.08 335.34 321.26
  Q 333.84 323.96 330.43 323.95
  C 326.44 323.93 322.51 324.12 319.27 323.77
  Z"
/>
<path d="
  M 443.41 326.57
  A 0.15 0.14 -42.2 0 1 443.65 326.58
  L 447.81 333.31
  A 0.57 0.56 -45.8 0 1 447.81 333.90
  C 435.07 354.56 433.39 379.45 447.02 399.85
  Q 458.96 417.71 480.35 421.61
  C 490.02 423.38 501.65 422.41 510.85 418.14
  C 537.23 405.89 551.37 378.11 544.52 349.70
  C 537.19 319.28 505.68 304.03 476.74 314.23
  A 1.25 1.24 -22.4 0 1 475.19 313.59
  L 472.75 308.43
  A 0.91 0.91 0.0 0 1 473.28 307.18
  C 494.76 299.89 516.74 302.80 533.63 317.47
  C 568.82 348.06 556.60 404.47 516.73 423.99
  C 498.55 432.89 475.66 432.27 458.35 421.61
  C 433.46 406.29 424.22 376.09 432.54 348.48
  Q 436.13 336.57 443.41 326.57
  Z"
/>
<path d="
  M 180.81 327.75
  A 0.08 0.08 0.0 0 1 180.78 327.87
  L 174.14 331.01
  A 0.46 0.46 0.0 0 1 173.59 330.89
  Q 154.56 307.80 125.08 312.06
  Q 113.03 313.80 103.42 321.11
  Q 82.20 337.25 80.26 363.74
  C 78.84 383.15 87.66 402.40 104.05 413.14
  C 118.53 422.62 137.94 423.54 153.68 415.92
  Q 167.09 409.43 176.10 396.96
  A 0.31 0.30 -49.6 0 1 176.56 396.92
  L 181.55 401.91
  A 0.25 0.24 42.1 0 1 181.57 402.22
  Q 172.95 413.42 162.82 419.83
  C 136.43 436.53 100.46 429.82 82.93 403.56
  C 61.36 371.28 73.17 325.92 108.69 308.96
  Q 124.90 301.21 143.37 304.21
  Q 166.27 307.93 180.81 327.75
  Z"
/>
<path d="
  M 198.36 326.74
  A 0.37 0.37 0.0 0 1 198.85 327.26
  C 194.09 335.47 190.81 343.43 185.99 350.99
  Q 180.52 359.60 172.44 373.97
  A 1.84 1.84 0.0 0 1 170.71 374.90
  Q 152.22 373.61 132.75 373.12
  C 128.84 373.03 124.65 371.74 124.11 367.30
  Q 123.49 362.19 128.22 359.71
  C 134.28 356.53 138.77 354.12 144.61 351.53
  Q 174.71 338.23 198.36 326.74
  Z"
/>
<path d="
  M 256.66 350.79
  L 246.97 366.36
  A 1.87 1.86 14.7 0 1 245.46 367.24
  C 226.73 368.01 208.21 361.76 196.10 346.98
  A 1.56 1.56 0.0 0 1 195.96 345.20
  L 205.40 328.84
  A 0.53 0.53 0.0 0 1 206.26 328.77
  C 217.67 342.55 233.39 348.21 250.76 350.18
  Q 253.45 350.48 256.14 350.02
  A 0.51 0.51 0.0 0 1 256.66 350.79
  Z"
/>
<path d="
  M 263.67 385.52
  A 0.36 0.35 -16.8 0 1 263.98 384.95
  Q 282.40 386.08 304.77 385.91
  C 312.30 385.85 319.04 385.88 324.55 382.66
  Q 329.60 379.70 333.09 376.07
  Q 337.31 371.67 348.06 360.82
  C 351.77 357.08 354.77 356.12 360.07 356.10
  Q 364.84 356.09 372.80 355.94
  A 0.57 0.56 3.5 0 1 373.37 356.58
  Q 371.73 368.48 371.79 380.87
  Q 371.81 384.11 371.29 385.62
  C 369.65 390.38 363.02 395.50 358.29 397.56
  Q 354.56 399.18 350.00 399.10
  C 324.60 398.62 294.45 399.81 271.57 399.53
  A 1.54 1.54 0.0 0 1 270.08 398.33
  Q 268.60 391.81 263.67 385.52
  Z"
/>
<path d="
  M 187.05 395.80
  A 0.34 0.33 13.2 0 1 186.54 396.11
  Q 180.75 392.50 176.59 385.62
  A 3.78 3.77 41.8 0 1 176.39 382.10
  L 179.14 376.05
  A 1.18 1.18 0.0 0 1 181.14 375.80
  C 200.05 399.66 229.20 422.53 261.37 419.49
  A 0.52 0.51 13.0 0 1 261.86 420.27
  C 255.97 429.91 235.76 424.54 226.96 421.08
  C 212.26 415.30 199.31 406.44 191.17 392.79
  A 1.81 1.80 -39.4 0 0 188.28 392.51
  Q 186.89 394.06 187.05 395.80
  Z"
/>
</g>
</svg>
