<?xml version="1.0" encoding="UTF-8" standalone="no"?>
<!DOCTYPE svg PUBLIC "-//W3C//DTD SVG 1.1//EN" "http://www.w3.org/Graphics/SVG/1.1/DTD/svg11.dtd">
<svg xmlns="http://www.w3.org/2000/svg" version="1.1" viewBox="0.00 0.00 691.00 954.00">
<g stroke-width="2.00" fill="none" stroke-linecap="butt">
<path stroke="#8f9073" vector-effect="non-scaling-stroke" d="
  M 306.06 44.10
  A 31.76 31.76 0.0 0 0 274.30 12.34
  A 31.76 31.76 0.0 0 0 242.54 44.10
  A 31.76 31.76 0.0 0 0 274.30 75.86
  A 31.76 31.76 0.0 0 0 306.06 44.10"
/>
<path stroke="#71a8d5" vector-effect="non-scaling-stroke" d="
  M 251.17 196.32
  C 261.64 193.87 271.38 188.57 281.72 184.85
  Q 297.54 179.15 317.99 177.43
  C 347.63 174.95 376.76 177.69 402.29 191.00
  C 424.23 202.44 444.88 218.77 463.22 231.26
  Q 486.38 247.04 510.33 258.82
  C 518.68 262.92 530.44 267.65 540.56 271.47
  Q 558.38 278.21 575.12 279.82
  Q 582.30 280.51 584.94 279.66
  C 595.86 276.15 599.71 262.56 600.80 252.23
  Q 603.62 225.69 589.44 201.79
  Q 584.40 193.32 580.20 188.31
  C 561.03 165.49 533.95 148.60 506.32 136.62
  Q 481.45 125.84 455.69 120.18
  Q 390.90 105.94 328.28 126.07
  Q 296.95 136.14 271.46 153.68
  C 257.56 163.25 245.94 177.22 249.83 195.47
  A 1.11 1.11 0.0 0 0 251.17 196.32"
/>
<path stroke="#71a8d5" vector-effect="non-scaling-stroke" d="
  M 352.66 219.46
  C 352.01 217.00 350.20 213.05 349.65 209.77
  Q 347.92 199.63 350.89 189.10
  A 0.82 0.81 7.8 0 0 350.10 188.07
  L 332.05 188.07
  A 1.05 1.04 1.1 0 0 331.00 189.07
  C 330.71 196.62 332.74 208.88 338.74 214.00
  A 1.92 1.88 -11.9 0 0 339.18 214.28
  L 352.10 219.95
  A 0.41 0.41 0.0 0 0 352.66 219.46"
/>
<path stroke="#71a8d5" vector-effect="non-scaling-stroke" d="
  M 324.43 212.03
  Q 320.11 200.88 320.80 189.61
  A 0.64 0.63 87.5 0 0 320.07 188.94
  L 304.24 191.42
  A 1.36 1.36 0.0 0 0 303.11 192.97
  C 303.68 196.75 306.79 209.96 311.80 210.56
  Q 317.84 211.28 323.85 212.69
  A 0.50 0.49 -4.0 0 0 324.43 212.03"
/>
<path stroke="#71a8d5" vector-effect="non-scaling-stroke" d="
  M 378.69 230.94
  Q 376.46 225.24 375.74 221.74
  C 373.93 212.98 376.10 202.35 379.99 194.58
  A 0.81 0.80 19.5 0 0 379.44 193.43
  L 362.26 189.69
  A 1.20 1.19 -75.4 0 0 360.86 190.52
  Q 358.10 199.84 359.30 208.71
  Q 359.90 213.13 363.30 219.56
  C 365.99 224.66 373.92 229.31 377.96 231.58
  A 0.52 0.51 -86.1 0 0 378.69 230.94"
/>
<path stroke="#71a8d5" vector-effect="non-scaling-stroke" d="
  M 297.65 209.83
  Q 294.58 202.83 293.58 194.73
  A 0.75 0.74 80.2 0 0 292.68 194.09
  Q 284.29 195.93 275.58 199.66
  A 0.90 0.89 61.7 0 0 275.19 200.97
  C 280.22 208.60 288.51 210.67 297.15 210.61
  A 0.56 0.55 78.1 0 0 297.65 209.83"
/>
<path stroke="#71a8d5" vector-effect="non-scaling-stroke" d="
  M 402.85 243.40
  A 2.25 2.24 68.8 0 0 404.36 239.97
  C 398.16 230.36 400.42 216.22 405.57 206.82
  A 0.95 0.95 0.0 0 0 405.21 205.54
  L 391.29 197.64
  A 1.27 1.26 -51.8 0 0 389.80 197.82
  C 388.80 198.76 388.44 200.46 388.02 201.56
  Q 381.52 218.87 390.90 235.59
  Q 393.43 240.10 394.70 241.61
  A 6.30 6.30 0.0 0 0 400.61 243.78
  L 402.85 243.40"
/>
<path stroke="#71a8d5" vector-effect="non-scaling-stroke" d="
  M 540.71 358.35
  C 533.34 357.19 527.34 355.40 521.23 352.29
  Q 495.14 339.03 479.04 315.73
  C 474.80 309.59 470.86 300.90 470.86 292.96
  Q 470.86 290.81 470.81 285.36
  A 7.32 7.25 -61.3 0 0 469.73 281.61
  C 461.87 268.81 455.37 256.38 456.02 241.28
  A 2.11 2.10 -71.4 0 0 455.12 239.46
  L 416.27 212.15
  A 1.44 1.44 0.0 0 0 414.15 212.69
  Q 409.89 221.27 411.38 230.62
  C 412.00 234.48 414.07 238.29 416.11 242.17
  C 420.39 250.34 419.81 257.20 418.68 266.47
  Q 418.60 267.08 414.75 288.75
  C 413.13 297.89 417.87 306.04 424.68 312.32
  Q 435.88 322.64 446.31 330.42
  Q 463.84 343.51 484.01 357.02
  Q 491.25 361.87 502.56 367.97
  Q 511.43 372.75 519.17 371.74
  C 527.18 370.69 535.37 365.28 541.02 359.25
  A 0.54 0.54 0.0 0 0 540.71 358.35"
/>
<path stroke="#71a8d5" vector-effect="non-scaling-stroke" d="
  M 151.16 246.95
  Q 151.07 247.14 151.12 247.50
  Q 153.08 259.96 154.54 274.24
  C 154.98 278.57 154.54 283.62 148.69 282.70
  A 1.24 1.16 -25.1 0 1 148.35 282.59
  L 142.31 279.66
  A 1.02 0.75 53.8 0 0 142.09 279.59
  C 125.99 276.02 111.69 271.43 100.91 258.61
  Q 96.80 253.72 95.80 252.66
  A 0.43 0.43 0.0 0 0 95.07 253.06
  C 97.84 265.06 101.23 276.38 111.68 283.27
  C 114.84 285.35 121.85 286.40 120.58 291.37
  C 119.73 294.68 117.14 295.57 113.98 294.75
  C 99.95 291.11 92.05 279.21 88.54 265.86
  A 7.02 6.93 -77.2 0 0 86.36 262.35
  Q 77.07 254.29 68.09 244.42
  A 0.42 0.42 0.0 0 0 67.36 244.77
  Q 68.20 250.06 70.55 256.12
  Q 83.36 289.12 116.55 304.61
  Q 126.34 309.18 137.64 312.52
  C 142.78 314.04 145.48 315.63 146.77 320.71
  Q 155.46 355.02 168.83 387.93
  C 172.22 396.27 176.33 405.42 182.47 412.59
  Q 187.28 418.19 194.74 417.15
  Q 201.20 416.25 207.63 413.88
  C 226.92 406.78 247.41 394.95 263.12 386.36
  Q 281.85 376.13 315.28 353.98
  C 318.66 351.74 321.91 354.32 322.48 357.72
  C 323.03 360.99 320.26 363.51 317.55 365.31
  Q 290.13 383.51 262.38 399.37
  Q 258.73 401.46 257.95 403.05
  Q 256.18 406.67 254.64 411.73
  A 16.36 16.31 70.9 0 1 252.40 416.37
  C 242.31 430.87 233.44 443.85 227.76 460.14
  C 224.23 470.28 222.95 481.65 224.19 491.43
  C 227.06 513.94 242.91 528.14 260.47 540.54
  Q 271.55 548.37 297.78 567.28
  C 304.24 571.94 311.70 576.64 316.50 580.26
  Q 324.47 586.26 321.65 596.15
  Q 319.63 603.23 317.16 607.89
  Q 302.88 634.74 302.31 635.82
  C 292.41 654.69 282.84 670.18 271.81 689.81
  C 267.90 696.78 261.08 701.48 253.60 704.37
  C 250.14 705.71 248.45 709.59 247.21 712.86
  C 245.36 717.77 246.31 722.00 249.16 726.34
  Q 253.35 732.72 256.57 735.92
  Q 264.76 744.06 266.14 745.62
  C 270.59 750.63 273.20 755.91 276.91 762.96
  C 281.05 770.84 285.61 774.67 293.21 782.27
  Q 296.62 785.68 298.95 789.40
  A 7.50 7.41 -67.2 0 1 299.90 791.77
  C 300.98 796.90 302.32 803.44 305.07 807.50
  A 0.86 0.86 0.0 0 0 306.43 807.58
  C 312.08 801.02 311.09 788.65 306.29 781.93
  Q 306.06 781.60 298.00 772.25
  C 296.46 770.47 294.82 765.77 297.59 764.21
  Q 301.91 761.77 305.55 765.54
  C 315.84 776.22 322.64 789.13 328.42 802.57
  A 0.50 0.50 0.0 0 0 329.37 802.46
  Q 332.82 782.74 319.55 768.48
  Q 316.64 765.35 310.05 758.94
  Q 308.43 757.36 303.64 750.17
  C 298.92 743.08 294.67 737.27 288.23 728.37
  C 282.20 720.04 286.09 711.72 291.78 704.77
  Q 320.98 669.18 346.30 635.81
  Q 356.42 622.47 366.42 603.79
  Q 371.35 594.58 372.16 591.99
  C 374.47 584.58 374.82 575.94 370.05 569.44
  Q 362.79 559.52 354.03 550.42
  Q 330.11 525.56 306.22 502.73
  Q 297.05 493.97 290.38 488.42
  Q 274.43 475.15 256.77 467.84
  Q 252.98 466.27 252.13 464.83
  Q 250.15 461.46 253.17 458.84
  C 255.89 456.49 260.40 458.31 263.44 459.61
  Q 285.07 468.86 303.75 485.51
  Q 309.60 490.72 319.93 500.41
  A 0.82 0.81 -57.3 0 0 321.24 500.12
  Q 327.33 485.29 331.47 469.01
  Q 332.93 463.25 338.94 457.56
  A 2.92 2.88 10.7 0 1 339.73 457.03
  L 372.67 442.42
  A 0.65 0.64 49.6 0 0 372.76 441.29
  C 370.85 440.02 368.93 438.35 368.68 436.21
  C 368.38 433.61 370.81 429.22 374.09 430.41
  C 379.58 432.40 385.23 434.63 389.98 430.25
  Q 395.77 424.91 400.28 418.04
  A 0.47 0.46 -79.9 0 0 399.79 417.33
  C 396.19 418.18 391.26 418.90 388.60 416.12
  C 386.23 413.65 385.70 408.85 389.66 407.39
  Q 390.95 406.92 393.91 407.09
  Q 401.79 407.54 410.40 405.39
  A 0.93 0.92 8.6 0 0 410.98 404.97
  C 423.85 384.35 429.47 362.29 430.93 338.24
  Q 431.14 334.77 429.67 331.60
  A 2.02 2.02 0.0 0 0 426.87 330.66
  Q 426.68 330.76 426.28 331.54
  Q 421.30 341.07 414.78 346.98
  C 411.93 349.56 407.62 351.22 405.65 346.81
  C 404.13 343.43 407.93 339.78 409.72 337.30
  Q 415.05 329.94 418.27 322.74
  A 1.17 1.17 0.0 0 0 417.98 321.39
  Q 413.03 316.95 408.75 311.13
  A 0.72 0.72 0.0 0 0 407.55 311.18
  Q 400.53 322.72 395.50 332.77
  Q 394.56 334.65 390.73 344.71
  C 388.65 350.20 379.27 349.41 380.88 341.84
  C 382.56 333.92 386.46 326.65 390.81 318.45
  Q 397.16 306.50 404.05 296.51
  A 4.51 4.49 -30.0 0 0 404.83 293.62
  Q 404.47 288.90 405.06 284.01
  C 405.78 278.02 409.03 264.94 408.68 254.84
  A 0.70 0.70 0.0 0 0 407.91 254.17
  L 396.29 255.44
  A 2.27 2.26 7.2 0 0 394.41 256.89
  Q 389.61 269.60 382.03 279.72
  C 376.99 286.46 371.59 290.58 363.80 292.81
  Q 356.14 294.99 348.13 296.20
  A 0.49 0.49 0.0 0 0 347.92 297.09
  Q 358.82 304.65 365.43 315.52
  C 367.80 319.41 370.96 329.52 363.44 330.30
  C 361.77 330.47 360.16 329.26 359.53 327.97
  C 351.79 312.11 336.93 298.60 318.50 299.22
  Q 302.37 299.76 289.12 309.09
  Q 278.61 316.49 274.87 319.88
  Q 254.06 338.75 242.05 350.29
  Q 232.84 359.14 223.95 366.70
  Q 217.57 372.12 211.55 376.03
  Q 207.40 378.73 204.03 375.27
  Q 202.39 373.59 198.91 367.87
  Q 182.92 341.63 172.05 310.70
  Q 170.46 306.19 171.07 300.99
  C 172.23 291.04 172.50 280.12 168.19 270.58
  C 164.34 262.05 158.76 253.18 151.88 246.82
  A 0.46 0.46 0.0 0 0 151.16 246.95"
/>
<path stroke="#71a8d5" vector-effect="non-scaling-stroke" d="
  M 239.82 255.04
  Q 239.88 255.45 240.07 255.67
  Q 246.31 262.77 249.62 267.37
  Q 259.69 281.34 265.87 295.65
  C 267.65 299.77 268.77 303.43 270.33 308.58
  A 0.47 0.47 0.0 0 0 271.04 308.84
  L 289.02 296.74
  A 0.71 0.70 59.4 0 0 289.25 295.83
  Q 273.59 265.25 240.27 254.66
  A 0.35 0.35 0.0 0 0 239.82 255.04"
/>
<path stroke="#71a8d5" vector-effect="non-scaling-stroke" d="
  M 321.91 258.95
  A 0.45 0.45 0.0 0 0 321.40 259.56
  Q 327.00 272.42 329.23 286.04
  A 1.56 1.55 83.5 0 0 330.86 287.34
  Q 338.40 286.89 344.46 285.21
  A 0.90 0.90 0.0 0 0 345.04 283.99
  Q 338.74 269.53 325.50 260.49
  Q 323.95 259.44 321.91 258.95"
/>
<path stroke="#8fb8d8" vector-effect="non-scaling-stroke" d="
  M 533.38 280.33
  L 529.12 278.08
  A 0.17 0.17 0.0 0 0 528.89 278.15
  L 528.81 278.29
  A 10.17 2.50 -62.2 0 0 526.28 288.46
  L 526.42 288.53
  A 10.17 2.50 -62.2 0 0 533.38 280.70
  L 533.45 280.56
  A 0.17 0.17 0.0 0 0 533.38 280.33"
/>
<path stroke="#8fb8d8" vector-effect="non-scaling-stroke" d="
  M 556.32 289.35
  A 0.79 0.79 0.0 0 0 555.91 288.11
  L 549.42 286.24
  A 0.79 0.79 0.0 0 0 548.41 287.09
  L 549.38 295.98
  A 0.79 0.79 0.0 0 0 550.79 296.38
  L 556.32 289.35"
/>
<path stroke="#8fb8d8" vector-effect="non-scaling-stroke" d="
  M 569.28 290.41
  L 570.96 301.15
  A 0.33 0.33 0.0 0 0 571.52 301.33
  Q 575.91 296.91 578.22 291.18
  A 0.30 0.30 0.0 0 0 577.99 290.78
  L 570.23 289.47
  A 0.82 0.82 0.0 0 0 569.28 290.41"
/>
<path stroke="#71a8d5" vector-effect="non-scaling-stroke" d="
  M 226.39 315.25
  A 0.48 0.48 0.0 0 0 226.20 315.91
  Q 227.64 318.36 229.98 321.99
  Q 235.14 329.95 237.51 338.68
  A 0.53 0.53 0.0 0 0 238.40 338.91
  L 247.12 330.18
  A 0.73 0.72 47.1 0 0 247.15 329.18
  C 241.22 322.57 235.64 318.22 227.01 315.23
  A 0.79 0.71 48.4 0 0 226.67 315.19
  Q 226.45 315.21 226.39 315.25"
/>
<path stroke="#8fb8d8" vector-effect="non-scaling-stroke" d="
  M 507.00 329.83
  Q 507.70 325.08 506.86 319.77
  A 0.42 0.42 0.0 0 0 506.22 319.48
  L 500.35 323.05
  A 0.61 0.61 0.0 0 0 500.24 324.01
  L 506.29 330.07
  A 0.42 0.42 0.0 0 0 507.00 329.83"
/>
<path stroke="#8fb8d8" vector-effect="non-scaling-stroke" d="
  M 519.58 339.26
  L 524.43 342.01
  A 0.67 0.67 0.0 0 0 525.34 341.77
  Q 527.99 337.27 527.78 332.25
  A 0.59 0.59 0.0 0 0 526.80 331.83
  L 519.48 338.25
  A 0.63 0.62 39.6 0 0 519.58 339.26"
/>
<path stroke="#8fb8d8" vector-effect="non-scaling-stroke" d="
  M 542.01 340.24
  L 535.61 346.25
  A 0.26 0.26 0.0 0 0 535.60 346.62
  L 535.67 346.69
  A 5.72 4.51 46.8 0 0 542.87 347.77
  L 543.07 347.58
  A 5.72 4.51 46.8 0 0 542.45 340.32
  L 542.38 340.25
  A 0.26 0.26 0.0 0 0 542.01 340.24"
/>
<path stroke="#71a8d5" vector-effect="non-scaling-stroke" d="
  M 672.00 450.43
  Q 645.28 459.14 615.70 453.01
  A 5.29 5.28 -81.2 0 1 611.52 447.30
  L 611.55 447.00
  A 4.55 4.54 -81.8 0 1 616.90 442.99
  Q 634.53 446.27 648.05 443.73
  Q 650.00 443.36 653.11 441.36
  C 660.04 436.90 667.66 430.64 672.31 423.52
  A 0.30 0.30 0.0 0 0 671.91 423.10
  C 662.12 428.66 649.93 433.87 638.88 434.89
  C 628.82 435.83 618.56 434.51 608.76 431.86
  C 604.35 430.66 602.08 430.68 596.98 430.39
  C 593.09 430.17 591.11 429.16 592.38 425.07
  Q 593.49 421.49 598.75 413.22
  Q 599.56 411.94 600.06 410.04
  A 0.39 0.39 0.0 0 0 599.50 409.60
  Q 591.41 413.89 585.09 419.36
  C 578.05 425.45 574.81 429.78 568.19 430.67
  Q 553.29 432.66 540.50 433.77
  Q 511.73 436.29 483.28 433.94
  Q 477.94 433.50 475.40 429.85
  C 461.56 410.03 450.04 387.00 439.58 365.36
  A 0.64 0.64 0.0 0 0 438.37 365.50
  Q 433.77 387.28 422.54 406.64
  A 1.12 1.11 44.7 0 0 422.55 407.76
  Q 435.14 429.15 450.43 447.10
  C 454.90 452.35 460.43 458.20 464.64 461.65
  Q 467.63 464.10 473.69 464.12
  C 507.96 464.28 531.59 460.90 575.71 455.96
  C 578.62 455.63 581.40 455.80 583.74 457.02
  Q 598.71 464.80 615.66 468.02
  Q 642.52 473.12 664.83 457.76
  Q 669.12 454.81 672.29 450.85
  A 0.27 0.27 0.0 0 0 672.00 450.43"
/>
<path stroke="#71a8d5" vector-effect="non-scaling-stroke" d="
  M 212.94 481.11
  A 0.30 0.30 0.0 0 0 212.41 480.91
  Q 209.60 484.14 201.15 494.30
  Q 198.25 497.79 197.92 499.55
  C 196.80 505.64 201.66 512.45 206.20 515.91
  C 208.81 517.90 210.54 520.58 208.58 523.40
  A 4.09 3.47 -66.7 0 1 205.03 525.16
  Q 203.11 524.91 200.69 523.54
  Q 192.14 518.68 188.19 509.03
  A 0.55 0.55 0.0 0 0 187.32 508.83
  L 166.43 527.13
  A 4.41 4.41 0.0 0 0 164.92 530.58
  C 165.08 536.21 169.44 541.28 174.18 546.28
  C 175.36 547.53 176.42 549.10 175.82 550.81
  C 174.77 553.78 171.76 555.92 168.75 554.23
  C 162.58 550.76 157.86 543.90 155.33 537.12
  A 0.95 0.95 0.0 0 0 153.89 536.68
  Q 144.79 543.20 134.85 547.90
  Q 132.76 548.90 132.21 549.79
  C 130.63 552.37 132.01 557.87 133.06 560.44
  C 134.09 562.98 137.01 567.27 136.37 569.63
  C 135.55 572.66 132.10 573.72 129.54 571.96
  C 124.09 568.21 121.51 560.07 121.20 553.77
  A 0.68 0.68 0.0 0 0 120.33 553.15
  Q 111.04 555.97 101.42 556.87
  A 0.49 0.48 -2.0 0 0 100.98 557.34
  Q 100.92 562.02 101.19 568.48
  Q 101.37 572.77 97.99 574.28
  C 89.46 578.09 90.69 561.10 90.99 557.29
  A 0.77 0.76 8.8 0 0 90.40 556.49
  Q 89.49 556.28 86.92 555.88
  Q 79.57 554.73 72.12 551.25
  A 1.33 1.31 28.9 0 0 70.46 551.72
  Q 69.00 553.92 65.58 560.32
  C 61.79 567.39 55.15 563.44 56.53 556.51
  Q 57.71 550.56 61.96 545.88
  A 0.93 0.93 0.0 0 0 61.85 544.53
  Q 56.54 540.26 52.69 534.37
  A 0.91 0.91 0.0 0 0 51.43 534.11
  C 48.37 536.13 44.17 539.54 41.96 539.46
  C 37.96 539.32 36.77 534.74 37.96 531.61
  C 39.05 528.72 44.16 526.34 47.19 524.59
  A 1.16 1.15 63.4 0 0 47.67 523.14
  Q 44.48 515.58 43.79 507.40
  A 1.17 1.16 87.6 0 0 42.63 506.33
  L 36.60 506.33
  A 1.98 1.98 0.0 0 1 34.71 504.93
  C 32.76 498.50 36.32 496.67 41.78 495.63
  A 1.29 1.28 89.4 0 0 42.80 494.58
  L 45.27 479.96
  A 0.66 0.66 0.0 0 0 44.94 479.27
  C 42.72 478.00 40.44 476.36 40.15 473.79
  C 39.60 468.99 44.54 468.24 47.96 467.76
  A 1.97 1.97 0.0 0 0 49.54 466.49
  Q 54.92 451.84 64.18 439.71
  C 66.67 436.44 71.64 430.33 75.28 429.16
  A 2.64 2.63 -23.1 0 1 78.42 430.42
  L 80.85 434.93
  A 0.76 0.74 -21.8 0 0 81.72 435.29
  Q 81.77 435.27 81.94 435.15
  A 0.73 0.65 -5.9 0 0 82.17 434.90
  Q 85.29 429.53 89.46 422.71
  Q 93.42 416.22 106.96 400.96
  Q 107.55 400.30 107.80 399.65
  A 0.49 0.49 0.0 0 0 107.28 398.98
  Q 86.59 401.74 67.65 411.89
  Q 66.17 412.68 65.26 413.64
  A 0.70 0.69 -54.1 0 0 65.43 414.73
  Q 69.15 416.72 71.10 417.95
  C 74.28 419.94 73.07 423.55 70.54 425.47
  C 54.53 437.63 40.03 454.03 32.30 472.56
  Q 28.03 482.77 25.29 495.76
  C 20.31 519.36 24.08 541.46 38.97 560.83
  C 63.51 592.75 111.25 595.94 146.07 584.33
  Q 156.49 580.86 168.64 574.40
  Q 188.88 563.64 206.64 549.15
  Q 218.03 539.86 229.46 529.67
  A 0.88 0.87 -41.5 0 0 229.54 528.44
  Q 218.43 515.78 214.47 499.86
  C 212.85 493.35 212.77 487.97 212.94 481.11"
/>
<path stroke="#71a8d5" vector-effect="non-scaling-stroke" d="
  M 375.35 664.19
  L 396.81 672.50
  A 1.53 1.53 0.0 0 0 398.63 671.93
  C 412.21 651.69 422.78 640.42 444.04 615.56
  Q 454.48 603.34 462.48 591.99
  C 468.48 583.48 473.77 575.18 475.49 565.50
  C 476.49 559.88 474.27 555.69 470.49 551.74
  Q 466.06 547.13 461.19 544.05
  C 439.54 530.37 417.97 520.22 393.58 509.62
  Q 366.71 497.94 338.52 488.18
  A 0.51 0.51 0.0 0 0 337.88 488.48
  L 329.98 508.85
  A 2.20 2.20 0.0 0 0 330.51 511.22
  L 344.39 524.62
  A 1.79 1.76 74.3 0 0 345.16 525.06
  Q 347.05 525.60 349.26 525.52
  Q 358.70 525.17 366.76 525.25
  C 373.20 525.32 380.64 526.94 385.44 531.17
  C 393.24 538.06 393.04 550.77 390.31 559.87
  A 1.01 1.00 22.4 0 0 390.81 561.05
  Q 404.26 568.06 414.53 572.35
  Q 418.24 573.89 419.16 575.19
  C 421.86 578.99 418.76 585.52 416.46 589.21
  C 401.16 613.80 387.26 637.89 375.07 663.48
  A 0.52 0.52 0.0 0 0 375.35 664.19"
/>
<path stroke="#71a8d5" vector-effect="non-scaling-stroke" d="
  M 356.89 536.90
  L 377.28 560.17
  A 0.33 0.33 0.0 0 0 377.81 560.12
  C 381.64 553.61 384.07 541.90 375.94 537.66
  A 5.81 5.71 59.5 0 0 373.48 537.00
  L 357.13 536.39
  A 0.31 0.31 0.0 0 0 356.89 536.90"
/>
<path stroke="#71a8d5" vector-effect="non-scaling-stroke" d="
  M 248.39 547.42
  L 251.23 557.68
  A 5.17 5.16 -88.4 0 0 254.54 561.19
  Q 256.16 561.79 260.50 561.88
  Q 266.84 562.03 270.18 561.84
  A 0.56 0.56 0.0 0 0 270.47 560.83
  L 249.89 546.36
  A 0.98 0.98 0.0 0 0 248.39 547.42"
/>
<path stroke="#8fb8d8" vector-effect="non-scaling-stroke" d="
  M 303.41 610.64
  Q 308.91 602.05 311.72 591.92
  A 2.63 2.63 0.0 0 0 310.70 589.06
  L 298.58 580.55
  A 0.37 0.37 0.0 0 0 298.00 580.89
  Q 299.54 596.14 302.75 610.52
  A 0.36 0.36 0.0 0 0 303.41 610.64"
/>
<path stroke="#8fb8d8" vector-effect="non-scaling-stroke" d="
  M 334.55 771.25
  Q 332.65 728.62 333.60 679.79
  Q 333.67 676.45 334.20 670.52
  A 0.52 0.51 -21.4 0 0 333.30 670.13
  C 325.95 678.37 318.43 689.03 312.64 696.14
  Q 311.04 698.11 311.18 699.82
  Q 313.20 724.33 313.42 743.76
  C 313.45 746.46 316.70 750.04 318.15 751.60
  Q 327.99 762.15 334.23 771.36
  A 0.18 0.18 0.0 0 0 334.55 771.25"
/>
<path stroke="#71a8d5" vector-effect="non-scaling-stroke" d="
  M 235.88 721.71
  Q 235.10 722.44 233.45 724.66
  C 200.88 768.46 200.71 829.35 228.75 874.80
  C 245.98 902.71 273.92 923.96 305.36 931.76
  C 334.23 938.92 366.73 936.76 393.87 923.45
  C 428.39 906.54 455.02 874.67 464.43 836.72
  Q 473.86 798.67 462.42 762.62
  Q 452.78 732.24 430.13 710.29
  C 420.33 700.79 407.87 691.18 395.57 685.09
  Q 372.54 673.68 346.32 670.69
  A 0.83 0.82 4.2 0 0 345.40 671.48
  L 344.85 686.26
  A 0.55 0.54 -87.3 0 0 345.36 686.83
  Q 351.77 687.18 358.97 688.78
  Q 390.37 695.77 413.68 716.77
  C 438.61 739.23 453.82 772.16 452.74 806.25
  Q 451.95 831.35 441.98 852.46
  C 432.28 872.99 417.01 891.06 397.58 903.00
  C 368.13 921.08 332.67 925.33 300.13 913.58
  C 271.29 903.17 247.92 880.41 234.88 852.20
  Q 224.95 830.71 224.25 806.18
  Q 223.23 770.39 242.62 738.25
  A 2.02 2.02 0.0 0 0 242.43 735.90
  Q 237.56 730.14 236.52 721.94
  A 0.38 0.38 0.0 0 0 235.88 721.71"
/>
<path stroke="#71a8d5" vector-effect="non-scaling-stroke" d="
  M 345.24 762.22
  C 346.73 760.05 347.41 757.65 348.91 754.70
  C 353.61 745.47 355.60 741.21 360.15 733.43
  Q 361.64 730.88 375.66 706.83
  A 0.47 0.47 0.0 0 0 375.45 706.16
  Q 367.76 702.54 358.41 700.37
  A 0.78 0.77 -65.4 0 0 357.62 700.67
  C 354.44 705.02 352.31 710.86 349.85 715.66
  Q 349.53 716.30 345.38 724.38
  Q 344.06 726.96 344.02 730.00
  Q 343.83 745.89 344.83 762.11
  A 0.23 0.22 -29.6 0 0 345.24 762.22"
/>
<path stroke="#8fb8d8" vector-effect="non-scaling-stroke" d="
  M 318.83 809.59
  Q 317.84 810.74 318.77 811.79
  Q 321.37 814.73 324.65 817.60
  C 332.08 824.09 342.34 822.65 348.03 814.55
  C 354.54 805.28 350.84 792.98 340.51 788.84
  A 0.49 0.48 7.3 0 0 339.85 789.35
  Q 340.24 792.43 340.52 794.61
  C 341.30 800.61 339.11 807.62 335.87 812.62
  Q 334.61 814.57 331.51 816.75
  C 325.83 820.75 321.61 814.55 319.54 809.70
  A 0.42 0.42 0.0 0 0 318.83 809.59"
/>
<path stroke="#71a8d5" vector-effect="non-scaling-stroke" d="
  M 293.34 807.58
  Q 293.63 800.58 288.95 795.00
  A 1.91 1.89 78.9 0 0 288.05 794.39
  Q 286.77 793.96 284.51 793.93
  Q 275.22 793.81 268.25 794.66
  C 266.58 794.87 264.59 795.15 264.00 797.22
  C 262.70 801.73 262.55 808.16 268.75 808.28
  Q 281.44 808.54 292.72 808.20
  A 0.64 0.63 -89.5 0 0 293.34 807.58"
/>
<path stroke="#8f9073" vector-effect="non-scaling-stroke" d="
  M 152.60 151.28
  A 31.62 31.62 0.0 0 0 120.98 119.66
  A 31.62 31.62 0.0 0 0 89.36 151.28
  A 31.62 31.62 0.0 0 0 120.98 182.90
  A 31.62 31.62 0.0 0 0 152.60 151.28"
/>
<path stroke="#71a8d5" vector-effect="non-scaling-stroke" d="
  M 445.87 261.21
  C 441.70 260.27 439.45 265.64 438.98 268.80
  Q 436.58 284.80 442.63 299.79
  C 445.47 306.83 454.81 302.96 452.52 296.46
  C 450.37 290.38 448.61 285.43 448.95 278.50
  Q 449.24 272.42 449.50 266.53
  Q 449.70 262.08 445.87 261.21"
/>
<path stroke="#71a8d5" vector-effect="non-scaling-stroke" d="
  M 355.71 373.94
  Q 364.09 380.35 374.51 382.28
  C 377.61 382.85 381.39 383.36 382.80 380.05
  C 385.11 374.61 381.87 372.71 377.08 371.71
  C 371.71 370.58 366.39 368.89 362.10 365.60
  C 357.81 362.31 354.78 357.61 352.30 352.73
  C 350.08 348.36 347.40 345.73 342.75 349.38
  C 339.93 351.60 341.40 355.12 342.76 357.96
  Q 347.34 367.52 355.71 373.94"
/>
<path stroke="#71a8d5" vector-effect="non-scaling-stroke" d="
  M 318.90 373.03
  C 313.63 375.92 314.43 380.19 317.45 384.79
  Q 331.48 406.21 357.81 409.68
  Q 362.98 410.36 367.44 409.89
  C 371.20 409.49 374.50 406.39 371.75 402.47
  Q 369.95 399.92 367.50 399.89
  C 353.20 399.76 338.63 395.14 329.82 383.50
  Q 327.47 380.39 323.98 374.95
  C 323.02 373.46 320.89 371.94 318.90 373.03"
/>
<path stroke="#71a8d5" vector-effect="non-scaling-stroke" d="
  M 407.28 377.52
  Q 406.40 377.83 406.28 377.84
  Q 399.96 378.81 399.94 378.82
  A 2.73 2.55 -64.3 0 0 399.07 379.16
  Q 395.82 381.16 397.14 384.66
  C 399.26 390.32 405.72 388.71 410.60 387.00
  C 415.48 385.29 421.53 382.52 419.66 376.77
  Q 418.51 373.21 414.72 373.68
  A 2.73 2.55 25.7 0 0 413.83 373.96
  Q 413.80 373.96 408.26 377.15
  Q 408.16 377.21 407.28 377.52"
/>
<path stroke="#71a8d5" vector-effect="non-scaling-stroke" d="
  M 294.83 395.17
  C 288.90 397.38 289.46 402.43 292.35 406.90
  C 297.15 414.32 303.38 422.23 310.59 426.39
  Q 325.25 434.85 341.71 436.00
  C 344.49 436.19 348.77 435.89 351.66 434.92
  C 356.40 433.32 357.06 428.38 352.81 425.60
  Q 351.51 424.76 348.16 424.86
  Q 340.87 425.07 337.51 424.78
  Q 328.22 423.96 317.98 418.49
  C 309.67 414.06 304.34 406.47 299.90 398.02
  Q 299.11 396.52 296.10 395.20
  A 1.71 1.70 46.2 0 0 294.83 395.17"
/>
<path stroke="#71a8d5" vector-effect="non-scaling-stroke" d="
  M 331.81 453.08
  Q 333.80 448.57 329.94 446.72
  Q 327.33 445.47 326.25 445.48
  Q 319.25 445.48 314.78 445.17
  C 296.32 443.89 282.51 432.06 274.88 415.91
  A 3.52 3.51 78.2 0 0 271.82 413.90
  C 266.89 413.73 264.05 417.36 266.14 421.99
  C 269.86 430.22 275.58 437.36 282.56 443.43
  C 292.91 452.44 310.00 457.23 323.47 456.50
  C 325.80 456.38 330.80 455.39 331.81 453.08"
/>
<path stroke="#8f9073" vector-effect="non-scaling-stroke" d="
  M 670.2993 350.0356
  A 32.29 32.14 -10.5 0 0 632.6930 324.3182
  A 32.29 32.14 -10.5 0 0 606.8007 361.8044
  A 32.29 32.14 -10.5 0 0 644.4070 387.5218
  A 32.29 32.14 -10.5 0 0 670.2993 350.0356"
/>
</g>
<g fill="#c2def4">
<path d="
  M 251.17 196.32
  A 1.11 1.11 0.0 0 1 249.83 195.47
  C 245.94 177.22 257.56 163.25 271.46 153.68
  Q 296.95 136.14 328.28 126.07
  Q 390.90 105.94 455.69 120.18
  Q 481.45 125.84 506.32 136.62
  C 533.95 148.60 561.03 165.49 580.20 188.31
  Q 584.40 193.32 589.44 201.79
  Q 603.62 225.69 600.80 252.23
  C 599.71 262.56 595.86 276.15 584.94 279.66
  Q 582.30 280.51 575.12 279.82
  Q 558.38 278.21 540.56 271.47
  C 530.44 267.65 518.68 262.92 510.33 258.82
  Q 486.38 247.04 463.22 231.26
  C 444.88 218.77 424.23 202.44 402.29 191.00
  C 376.76 177.69 347.63 174.95 317.99 177.43
  Q 297.54 179.15 281.72 184.85
  C 271.38 188.57 261.64 193.87 251.17 196.32
  Z"
/>
<path d="
  M 352.66 219.46
  A 0.41 0.41 0.0 0 1 352.10 219.95
  L 339.18 214.28
  A 1.92 1.88 -11.9 0 1 338.74 214.00
  C 332.74 208.88 330.71 196.62 331.00 189.07
  A 1.05 1.04 1.1 0 1 332.05 188.07
  L 350.10 188.07
  A 0.82 0.81 7.8 0 1 350.89 189.10
  Q 347.92 199.63 349.65 209.77
  C 350.20 213.05 352.01 217.00 352.66 219.46
  Z"
/>
<path d="
  M 324.43 212.03
  A 0.50 0.49 -4.0 0 1 323.85 212.69
  Q 317.84 211.28 311.80 210.56
  C 306.79 209.96 303.68 196.75 303.11 192.97
  A 1.36 1.36 0.0 0 1 304.24 191.42
  L 320.07 188.94
  A 0.64 0.63 87.5 0 1 320.80 189.61
  Q 320.11 200.88 324.43 212.03
  Z"
/>
<path d="
  M 378.69 230.94
  A 0.52 0.51 -86.1 0 1 377.96 231.58
  C 373.92 229.31 365.99 224.66 363.30 219.56
  Q 359.90 213.13 359.30 208.71
  Q 358.10 199.84 360.86 190.52
  A 1.20 1.19 -75.4 0 1 362.26 189.69
  L 379.44 193.43
  A 0.81 0.80 19.5 0 1 379.99 194.58
  C 376.10 202.35 373.93 212.98 375.74 221.74
  Q 376.46 225.24 378.69 230.94
  Z"
/>
<path d="
  M 297.65 209.83
  A 0.56 0.55 78.1 0 1 297.15 210.61
  C 288.51 210.67 280.22 208.60 275.19 200.97
  A 0.90 0.89 61.7 0 1 275.58 199.66
  Q 284.29 195.93 292.68 194.09
  A 0.75 0.74 80.2 0 1 293.58 194.73
  Q 294.58 202.83 297.65 209.83
  Z"
/>
<path d="
  M 402.85 243.40
  L 400.61 243.78
  A 6.30 6.30 0.0 0 1 394.70 241.61
  Q 393.43 240.10 390.90 235.59
  Q 381.52 218.87 388.02 201.56
  C 388.44 200.46 388.80 198.76 389.80 197.82
  A 1.27 1.26 -51.8 0 1 391.29 197.64
  L 405.21 205.54
  A 0.95 0.95 0.0 0 1 405.57 206.82
  C 400.42 216.22 398.16 230.36 404.36 239.97
  A 2.25 2.24 68.8 0 1 402.85 243.40
  Z"
/>
<path d="
  M 540.71 358.35
  A 0.54 0.54 0.0 0 1 541.02 359.25
  C 535.37 365.28 527.18 370.69 519.17 371.74
  Q 511.43 372.75 502.56 367.97
  Q 491.25 361.87 484.01 357.02
  Q 463.84 343.51 446.31 330.42
  Q 435.88 322.64 424.68 312.32
  C 417.87 306.04 413.13 297.89 414.75 288.75
  Q 418.60 267.08 418.68 266.47
  C 419.81 257.20 420.39 250.34 416.11 242.17
  C 414.07 238.29 412.00 234.48 411.38 230.62
  Q 409.89 221.27 414.15 212.69
  A 1.44 1.44 0.0 0 1 416.27 212.15
  L 455.12 239.46
  A 2.11 2.10 -71.4 0 1 456.02 241.28
  C 455.37 256.38 461.87 268.81 469.73 281.61
  A 7.32 7.25 -61.3 0 1 470.81 285.36
  Q 470.86 290.81 470.86 292.96
  C 470.86 300.90 474.80 309.59 479.04 315.73
  Q 495.14 339.03 521.23 352.29
  C 527.34 355.40 533.34 357.19 540.71 358.35
  Z
  M 445.87 261.21
  C 441.70 260.27 439.45 265.64 438.98 268.80
  Q 436.58 284.80 442.63 299.79
  C 445.47 306.83 454.81 302.96 452.52 296.46
  C 450.37 290.38 448.61 285.43 448.95 278.50
  Q 449.24 272.42 449.50 266.53
  Q 449.70 262.08 445.87 261.21
  Z"
/>
<path d="
  M 151.16 246.95
  A 0.46 0.46 0.0 0 1 151.88 246.82
  C 158.76 253.18 164.34 262.05 168.19 270.58
  C 172.50 280.12 172.23 291.04 171.07 300.99
  Q 170.46 306.19 172.05 310.70
  Q 182.92 341.63 198.91 367.87
  Q 202.39 373.59 204.03 375.27
  Q 207.40 378.73 211.55 376.03
  Q 217.57 372.12 223.95 366.70
  Q 232.84 359.14 242.05 350.29
  Q 254.06 338.75 274.87 319.88
  Q 278.61 316.49 289.12 309.09
  Q 302.37 299.76 318.50 299.22
  C 336.93 298.60 351.79 312.11 359.53 327.97
  C 360.16 329.26 361.77 330.47 363.44 330.30
  C 370.96 329.52 367.80 319.41 365.43 315.52
  Q 358.82 304.65 347.92 297.09
  A 0.49 0.49 0.0 0 1 348.13 296.20
  Q 356.14 294.99 363.80 292.81
  C 371.59 290.58 376.99 286.46 382.03 279.72
  Q 389.61 269.60 394.41 256.89
  A 2.27 2.26 7.2 0 1 396.29 255.44
  L 407.91 254.17
  A 0.70 0.70 0.0 0 1 408.68 254.84
  C 409.03 264.94 405.78 278.02 405.06 284.01
  Q 404.47 288.90 404.83 293.62
  A 4.51 4.49 -30.0 0 1 404.05 296.51
  Q 397.16 306.50 390.81 318.45
  C 386.46 326.65 382.56 333.92 380.88 341.84
  C 379.27 349.41 388.65 350.20 390.73 344.71
  Q 394.56 334.65 395.50 332.77
  Q 400.53 322.72 407.55 311.18
  A 0.72 0.72 0.0 0 1 408.75 311.13
  Q 413.03 316.95 417.98 321.39
  A 1.17 1.17 0.0 0 1 418.27 322.74
  Q 415.05 329.94 409.72 337.30
  C 407.93 339.78 404.13 343.43 405.65 346.81
  C 407.62 351.22 411.93 349.56 414.78 346.98
  Q 421.30 341.07 426.28 331.54
  Q 426.68 330.76 426.87 330.66
  A 2.02 2.02 0.0 0 1 429.67 331.60
  Q 431.14 334.77 430.93 338.24
  C 429.47 362.29 423.85 384.35 410.98 404.97
  A 0.93 0.92 8.6 0 1 410.40 405.39
  Q 401.79 407.54 393.91 407.09
  Q 390.95 406.92 389.66 407.39
  C 385.70 408.85 386.23 413.65 388.60 416.12
  C 391.26 418.90 396.19 418.18 399.79 417.33
  A 0.47 0.46 -79.9 0 1 400.28 418.04
  Q 395.77 424.91 389.98 430.25
  C 385.23 434.63 379.58 432.40 374.09 430.41
  C 370.81 429.22 368.38 433.61 368.68 436.21
  C 368.93 438.35 370.85 440.02 372.76 441.29
  A 0.65 0.64 49.6 0 1 372.67 442.42
  L 339.73 457.03
  A 2.92 2.88 10.7 0 0 338.94 457.56
  Q 332.93 463.25 331.47 469.01
  Q 327.33 485.29 321.24 500.12
  A 0.82 0.81 -57.3 0 1 319.93 500.41
  Q 309.60 490.72 303.75 485.51
  Q 285.07 468.86 263.44 459.61
  C 260.40 458.31 255.89 456.49 253.17 458.84
  Q 250.15 461.46 252.13 464.83
  Q 252.98 466.27 256.77 467.84
  Q 274.43 475.15 290.38 488.42
  Q 297.05 493.97 306.22 502.73
  Q 330.11 525.56 354.03 550.42
  Q 362.79 559.52 370.05 569.44
  C 374.82 575.94 374.47 584.58 372.16 591.99
  Q 371.35 594.58 366.42 603.79
  Q 356.42 622.47 346.30 635.81
  Q 320.98 669.18 291.78 704.77
  C 286.09 711.72 282.20 720.04 288.23 728.37
  C 294.67 737.27 298.92 743.08 303.64 750.17
  Q 308.43 757.36 310.05 758.94
  Q 316.64 765.35 319.55 768.48
  Q 332.82 782.74 329.37 802.46
  A 0.50 0.50 0.0 0 1 328.42 802.57
  C 322.64 789.13 315.84 776.22 305.55 765.54
  Q 301.91 761.77 297.59 764.21
  C 294.82 765.77 296.46 770.47 298.00 772.25
  Q 306.06 781.60 306.29 781.93
  C 311.09 788.65 312.08 801.02 306.43 807.58
  A 0.86 0.86 0.0 0 1 305.07 807.50
  C 302.32 803.44 300.98 796.90 299.90 791.77
  A 7.50 7.41 -67.2 0 0 298.95 789.40
  Q 296.62 785.68 293.21 782.27
  C 285.61 774.67 281.05 770.84 276.91 762.96
  C 273.20 755.91 270.59 750.63 266.14 745.62
  Q 264.76 744.06 256.57 735.92
  Q 253.35 732.72 249.16 726.34
  C 246.31 722.00 245.36 717.77 247.21 712.86
  C 248.45 709.59 250.14 705.71 253.60 704.37
  C 261.08 701.48 267.90 696.78 271.81 689.81
  C 282.84 670.18 292.41 654.69 302.31 635.82
  Q 302.88 634.74 317.16 607.89
  Q 319.63 603.23 321.65 596.15
  Q 324.47 586.26 316.50 580.26
  C 311.70 576.64 304.24 571.94 297.78 567.28
  Q 271.55 548.37 260.47 540.54
  C 242.91 528.14 227.06 513.94 224.19 491.43
  C 222.95 481.65 224.23 470.28 227.76 460.14
  C 233.44 443.85 242.31 430.87 252.40 416.37
  A 16.36 16.31 70.9 0 0 254.64 411.73
  Q 256.18 406.67 257.95 403.05
  Q 258.73 401.46 262.38 399.37
  Q 290.13 383.51 317.55 365.31
  C 320.26 363.51 323.03 360.99 322.48 357.72
  C 321.91 354.32 318.66 351.74 315.28 353.98
  Q 281.85 376.13 263.12 386.36
  C 247.41 394.95 226.92 406.78 207.63 413.88
  Q 201.20 416.25 194.74 417.15
  Q 187.28 418.19 182.47 412.59
  C 176.33 405.42 172.22 396.27 168.83 387.93
  Q 155.46 355.02 146.77 320.71
  C 145.48 315.63 142.78 314.04 137.64 312.52
  Q 126.34 309.18 116.55 304.61
  Q 83.36 289.12 70.55 256.12
  Q 68.20 250.06 67.36 244.77
  A 0.42 0.42 0.0 0 1 68.09 244.42
  Q 77.07 254.29 86.36 262.35
  A 7.02 6.93 -77.2 0 1 88.54 265.86
  C 92.05 279.21 99.95 291.11 113.98 294.75
  C 117.14 295.57 119.73 294.68 120.58 291.37
  C 121.85 286.40 114.84 285.35 111.68 283.27
  C 101.23 276.38 97.84 265.06 95.07 253.06
  A 0.43 0.43 0.0 0 1 95.80 252.66
  Q 96.80 253.72 100.91 258.61
  C 111.69 271.43 125.99 276.02 142.09 279.59
  A 1.02 0.75 53.8 0 1 142.31 279.66
  L 148.35 282.59
  A 1.24 1.16 -25.1 0 0 148.69 282.70
  C 154.54 283.62 154.98 278.57 154.54 274.24
  Q 153.08 259.96 151.12 247.50
  Q 151.07 247.14 151.16 246.95
  Z
  M 355.71 373.94
  Q 364.09 380.35 374.51 382.28
  C 377.61 382.85 381.39 383.36 382.80 380.05
  C 385.11 374.61 381.87 372.71 377.08 371.71
  C 371.71 370.58 366.39 368.89 362.10 365.60
  C 357.81 362.31 354.78 357.61 352.30 352.73
  C 350.08 348.36 347.40 345.73 342.75 349.38
  C 339.93 351.60 341.40 355.12 342.76 357.96
  Q 347.34 367.52 355.71 373.94
  Z
  M 318.90 373.03
  C 313.63 375.92 314.43 380.19 317.45 384.79
  Q 331.48 406.21 357.81 409.68
  Q 362.98 410.36 367.44 409.89
  C 371.20 409.49 374.50 406.39 371.75 402.47
  Q 369.95 399.92 367.50 399.89
  C 353.20 399.76 338.63 395.14 329.82 383.50
  Q 327.47 380.39 323.98 374.95
  C 323.02 373.46 320.89 371.94 318.90 373.03
  Z
  M 407.28 377.52
  Q 406.40 377.83 406.28 377.84
  Q 399.96 378.81 399.94 378.82
  A 2.73 2.55 -64.3 0 0 399.07 379.16
  Q 395.82 381.16 397.14 384.66
  C 399.26 390.32 405.72 388.71 410.60 387.00
  C 415.48 385.29 421.53 382.52 419.66 376.77
  Q 418.51 373.21 414.72 373.68
  A 2.73 2.55 25.7 0 0 413.83 373.96
  Q 413.80 373.96 408.26 377.15
  Q 408.16 377.21 407.28 377.52
  Z
  M 294.83 395.17
  C 288.90 397.38 289.46 402.43 292.35 406.90
  C 297.15 414.32 303.38 422.23 310.59 426.39
  Q 325.25 434.85 341.71 436.00
  C 344.49 436.19 348.77 435.89 351.66 434.92
  C 356.40 433.32 357.06 428.38 352.81 425.60
  Q 351.51 424.76 348.16 424.86
  Q 340.87 425.07 337.51 424.78
  Q 328.22 423.96 317.98 418.49
  C 309.67 414.06 304.34 406.47 299.90 398.02
  Q 299.11 396.52 296.10 395.20
  A 1.71 1.70 46.2 0 0 294.83 395.17
  Z
  M 331.81 453.08
  Q 333.80 448.57 329.94 446.72
  Q 327.33 445.47 326.25 445.48
  Q 319.25 445.48 314.78 445.17
  C 296.32 443.89 282.51 432.06 274.88 415.91
  A 3.52 3.51 78.2 0 0 271.82 413.90
  C 266.89 413.73 264.05 417.36 266.14 421.99
  C 269.86 430.22 275.58 437.36 282.56 443.43
  C 292.91 452.44 310.00 457.23 323.47 456.50
  C 325.80 456.38 330.80 455.39 331.81 453.08
  Z"
/>
<path d="
  M 239.82 255.04
  A 0.35 0.35 0.0 0 1 240.27 254.66
  Q 273.59 265.25 289.25 295.83
  A 0.71 0.70 59.4 0 1 289.02 296.74
  L 271.04 308.84
  A 0.47 0.47 0.0 0 1 270.33 308.58
  C 268.77 303.43 267.65 299.77 265.87 295.65
  Q 259.69 281.34 249.62 267.37
  Q 246.31 262.77 240.07 255.67
  Q 239.88 255.45 239.82 255.04
  Z"
/>
<path d="
  M 321.91 258.95
  Q 323.95 259.44 325.50 260.49
  Q 338.74 269.53 345.04 283.99
  A 0.90 0.90 0.0 0 1 344.46 285.21
  Q 338.40 286.89 330.86 287.34
  A 1.56 1.55 83.5 0 1 329.23 286.04
  Q 327.00 272.42 321.40 259.56
  A 0.45 0.45 0.0 0 1 321.91 258.95
  Z"
/>
<path d="
  M 226.39 315.25
  Q 226.45 315.21 226.67 315.19
  A 0.79 0.71 48.4 0 1 227.01 315.23
  C 235.64 318.22 241.22 322.57 247.15 329.18
  A 0.73 0.72 47.1 0 1 247.12 330.18
  L 238.40 338.91
  A 0.53 0.53 0.0 0 1 237.51 338.68
  Q 235.14 329.95 229.98 321.99
  Q 227.64 318.36 226.20 315.91
  A 0.48 0.48 0.0 0 1 226.39 315.25
  Z"
/>
<path d="
  M 672.00 450.43
  A 0.27 0.27 0.0 0 1 672.29 450.85
  Q 669.12 454.81 664.83 457.76
  Q 642.52 473.12 615.66 468.02
  Q 598.71 464.80 583.74 457.02
  C 581.40 455.80 578.62 455.63 575.71 455.96
  C 531.59 460.90 507.96 464.28 473.69 464.12
  Q 467.63 464.10 464.64 461.65
  C 460.43 458.20 454.90 452.35 450.43 447.10
  Q 435.14 429.15 422.55 407.76
  A 1.12 1.11 44.7 0 1 422.54 406.64
  Q 433.77 387.28 438.37 365.50
  A 0.64 0.64 0.0 0 1 439.58 365.36
  C 450.04 387.00 461.56 410.03 475.40 429.85
  Q 477.94 433.50 483.28 433.94
  Q 511.73 436.29 540.50 433.77
  Q 553.29 432.66 568.19 430.67
  C 574.81 429.78 578.05 425.45 585.09 419.36
  Q 591.41 413.89 599.50 409.60
  A 0.39 0.39 0.0 0 1 600.06 410.04
  Q 599.56 411.94 598.75 413.22
  Q 593.49 421.49 592.38 425.07
  C 591.11 429.16 593.09 430.17 596.98 430.39
  C 602.08 430.68 604.35 430.66 608.76 431.86
  C 618.56 434.51 628.82 435.83 638.88 434.89
  C 649.93 433.87 662.12 428.66 671.91 423.10
  A 0.30 0.30 0.0 0 1 672.31 423.52
  C 667.66 430.64 660.04 436.90 653.11 441.36
  Q 650.00 443.36 648.05 443.73
  Q 634.53 446.27 616.90 442.99
  A 4.55 4.54 -81.8 0 0 611.55 447.00
  L 611.52 447.30
  A 5.29 5.28 -81.2 0 0 615.70 453.01
  Q 645.28 459.14 672.00 450.43
  Z"
/>
<path d="
  M 212.94 481.11
  C 212.77 487.97 212.85 493.35 214.47 499.86
  Q 218.43 515.78 229.54 528.44
  A 0.88 0.87 -41.5 0 1 229.46 529.67
  Q 218.03 539.86 206.64 549.15
  Q 188.88 563.64 168.64 574.40
  Q 156.49 580.86 146.07 584.33
  C 111.25 595.94 63.51 592.75 38.97 560.83
  C 24.08 541.46 20.31 519.36 25.29 495.76
  Q 28.03 482.77 32.30 472.56
  C 40.03 454.03 54.53 437.63 70.54 425.47
  C 73.07 423.55 74.28 419.94 71.10 417.95
  Q 69.15 416.72 65.43 414.73
  A 0.70 0.69 -54.1 0 1 65.26 413.64
  Q 66.17 412.68 67.65 411.89
  Q 86.59 401.74 107.28 398.98
  A 0.49 0.49 0.0 0 1 107.80 399.65
  Q 107.55 400.30 106.96 400.96
  Q 93.42 416.22 89.46 422.71
  Q 85.29 429.53 82.17 434.90
  A 0.73 0.65 -5.9 0 1 81.94 435.15
  Q 81.77 435.27 81.72 435.29
  A 0.76 0.74 -21.8 0 1 80.85 434.93
  L 78.42 430.42
  A 2.64 2.63 -23.1 0 0 75.28 429.16
  C 71.64 430.33 66.67 436.44 64.18 439.71
  Q 54.92 451.84 49.54 466.49
  A 1.97 1.97 0.0 0 1 47.96 467.76
  C 44.54 468.24 39.60 468.99 40.15 473.79
  C 40.44 476.36 42.72 478.00 44.94 479.27
  A 0.66 0.66 0.0 0 1 45.27 479.96
  L 42.80 494.58
  A 1.29 1.28 89.4 0 1 41.78 495.63
  C 36.32 496.67 32.76 498.50 34.71 504.93
  A 1.98 1.98 0.0 0 0 36.60 506.33
  L 42.63 506.33
  A 1.17 1.16 87.6 0 1 43.79 507.40
  Q 44.48 515.58 47.67 523.14
  A 1.16 1.15 63.4 0 1 47.19 524.59
  C 44.16 526.34 39.05 528.72 37.96 531.61
  C 36.77 534.74 37.96 539.32 41.96 539.46
  C 44.17 539.54 48.37 536.13 51.43 534.11
  A 0.91 0.91 0.0 0 1 52.69 534.37
  Q 56.54 540.26 61.85 544.53
  A 0.93 0.93 0.0 0 1 61.96 545.88
  Q 57.71 550.56 56.53 556.51
  C 55.15 563.44 61.79 567.39 65.58 560.32
  Q 69.00 553.92 70.46 551.72
  A 1.33 1.31 28.9 0 1 72.12 551.25
  Q 79.57 554.73 86.92 555.88
  Q 89.49 556.28 90.40 556.49
  A 0.77 0.76 8.8 0 1 90.99 557.29
  C 90.69 561.10 89.46 578.09 97.99 574.28
  Q 101.37 572.77 101.19 568.48
  Q 100.92 562.02 100.98 557.34
  A 0.49 0.48 -2.0 0 1 101.42 556.87
  Q 111.04 555.97 120.33 553.15
  A 0.68 0.68 0.0 0 1 121.20 553.77
  C 121.51 560.07 124.09 568.21 129.54 571.96
  C 132.10 573.72 135.55 572.66 136.37 569.63
  C 137.01 567.27 134.09 562.98 133.06 560.44
  C 132.01 557.87 130.63 552.37 132.21 549.79
  Q 132.76 548.90 134.85 547.90
  Q 144.79 543.20 153.89 536.68
  A 0.95 0.95 0.0 0 1 155.33 537.12
  C 157.86 543.90 162.58 550.76 168.75 554.23
  C 171.76 555.92 174.77 553.78 175.82 550.81
  C 176.42 549.10 175.36 547.53 174.18 546.28
  C 169.44 541.28 165.08 536.21 164.92 530.58
  A 4.41 4.41 0.0 0 1 166.43 527.13
  L 187.32 508.83
  A 0.55 0.55 0.0 0 1 188.19 509.03
  Q 192.14 518.68 200.69 523.54
  Q 203.11 524.91 205.03 525.16
  A 4.09 3.47 -66.7 0 0 208.58 523.40
  C 210.54 520.58 208.81 517.90 206.20 515.91
  C 201.66 512.45 196.80 505.64 197.92 499.55
  Q 198.25 497.79 201.15 494.30
  Q 209.60 484.14 212.41 480.91
  A 0.30 0.30 0.0 0 1 212.94 481.11
  Z"
/>
<path d="
  M 375.35 664.19
  A 0.52 0.52 0.0 0 1 375.07 663.48
  C 387.26 637.89 401.16 613.80 416.46 589.21
  C 418.76 585.52 421.86 578.99 419.16 575.19
  Q 418.24 573.89 414.53 572.35
  Q 404.26 568.06 390.81 561.05
  A 1.01 1.00 22.4 0 1 390.31 559.87
  C 393.04 550.77 393.24 538.06 385.44 531.17
  C 380.64 526.94 373.20 525.32 366.76 525.25
  Q 358.70 525.17 349.26 525.52
  Q 347.05 525.60 345.16 525.06
  A 1.79 1.76 74.3 0 1 344.39 524.62
  L 330.51 511.22
  A 2.20 2.20 0.0 0 1 329.98 508.85
  L 337.88 488.48
  A 0.51 0.51 0.0 0 1 338.52 488.18
  Q 366.71 497.94 393.58 509.62
  C 417.97 520.22 439.54 530.37 461.19 544.05
  Q 466.06 547.13 470.49 551.74
  C 474.27 555.69 476.49 559.88 475.49 565.50
  C 473.77 575.18 468.48 583.48 462.48 591.99
  Q 454.48 603.34 444.04 615.56
  C 422.78 640.42 412.21 651.69 398.63 671.93
  A 1.53 1.53 0.0 0 1 396.81 672.50
  L 375.35 664.19
  Z"
/>
<path d="
  M 356.89 536.90
  A 0.31 0.31 0.0 0 1 357.13 536.39
  L 373.48 537.00
  A 5.81 5.71 59.5 0 1 375.94 537.66
  C 384.07 541.90 381.64 553.61 377.81 560.12
  A 0.33 0.33 0.0 0 1 377.28 560.17
  L 356.89 536.90
  Z"
/>
<path d="
  M 248.39 547.42
  A 0.98 0.98 0.0 0 1 249.89 546.36
  L 270.47 560.83
  A 0.56 0.56 0.0 0 1 270.18 561.84
  Q 266.84 562.03 260.50 561.88
  Q 256.16 561.79 254.54 561.19
  A 5.17 5.16 -88.4 0 1 251.23 557.68
  L 248.39 547.42
  Z"
/>
<path d="
  M 236.52 721.94
  Q 237.56 730.14 242.43 735.90
  A 2.02 2.02 0.0 0 1 242.62 738.25
  Q 223.23 770.39 224.25 806.18
  Q 224.95 830.71 234.88 852.20
  C 247.92 880.41 271.29 903.17 300.13 913.58
  C 332.67 925.33 368.13 921.08 397.58 903.00
  C 417.01 891.06 432.28 872.99 441.98 852.46
  Q 451.95 831.35 452.74 806.25
  C 453.82 772.16 438.61 739.23 413.68 716.77
  Q 390.37 695.77 358.97 688.78
  Q 351.77 687.18 345.36 686.83
  A 0.55 0.54 -87.3 0 1 344.85 686.26
  L 345.40 671.48
  A 0.83 0.82 4.2 0 1 346.32 670.69
  Q 372.54 673.68 395.57 685.09
  C 407.87 691.18 420.33 700.79 430.13 710.29
  Q 452.78 732.24 462.42 762.62
  Q 473.86 798.67 464.43 836.72
  C 455.02 874.67 428.39 906.54 393.87 923.45
  C 366.73 936.76 334.23 938.92 305.36 931.76
  C 273.92 923.96 245.98 902.71 228.75 874.80
  C 200.71 829.35 200.88 768.46 233.45 724.66
  Q 235.10 722.44 235.88 721.71
  A 0.38 0.38 0.0 0 1 236.52 721.94
  Z"
/>
<path d="
  M 344.83 762.11
  Q 343.83 745.89 344.02 730.00
  Q 344.06 726.96 345.38 724.38
  Q 349.53 716.30 349.85 715.66
  C 352.31 710.86 354.44 705.02 357.62 700.67
  A 0.78 0.77 -65.4 0 1 358.41 700.37
  Q 367.76 702.54 375.45 706.16
  A 0.47 0.47 0.0 0 1 375.66 706.83
  Q 361.64 730.88 360.15 733.43
  C 355.60 741.21 353.61 745.47 348.91 754.70
  C 347.41 757.65 346.73 760.05 345.24 762.22
  A 0.23 0.22 -29.6 0 1 344.83 762.11
  Z"
/>
<path d="
  M 293.34 807.58
  A 0.64 0.63 -89.5 0 1 292.72 808.20
  Q 281.44 808.54 268.75 808.28
  C 262.55 808.16 262.70 801.73 264.00 797.22
  C 264.59 795.15 266.58 794.87 268.25 794.66
  Q 275.22 793.81 284.51 793.93
  Q 286.77 793.96 288.05 794.39
  A 1.91 1.89 78.9 0 1 288.95 795.00
  Q 293.63 800.58 293.34 807.58
  Z"
/>
</g>
<g fill="#1f72b6">
<path d="
  M 317.77 44.00
  A 43.29 43.29 0.0 0 1 274.48 87.29
  A 43.29 43.29 0.0 0 1 231.19 44.00
  A 43.29 43.29 0.0 0 1 274.48 0.71
  A 43.29 43.29 0.0 0 1 317.77 44.00
  Z
  M 306.06 44.10
  A 31.76 31.76 0.0 0 0 274.30 12.34
  A 31.76 31.76 0.0 0 0 242.54 44.10
  A 31.76 31.76 0.0 0 0 274.30 75.86
  A 31.76 31.76 0.0 0 0 306.06 44.10
  Z"
/>
<path d="
  M 606.66 420.90
  Q 622.15 424.79 630.76 424.90
  Q 641.90 425.04 653.34 420.33
  Q 663.62 416.10 675.95 409.97
  Q 678.63 408.64 681.73 409.06
  Q 686.08 409.63 686.13 414.25
  Q 686.19 419.43 684.14 423.66
  Q 679.81 432.58 672.31 439.11
  A 0.55 0.55 0.0 0 0 672.54 440.06
  Q 674.02 440.43 675.90 439.64
  C 680.22 437.81 683.67 435.87 687.90 437.59
  A 2.61 2.51 -9.7 0 1 688.80 438.20
  C 691.09 440.57 690.10 444.67 688.52 447.29
  C 685.65 452.04 681.69 457.41 677.41 461.23
  C 668.14 469.49 657.39 475.94 645.36 478.31
  Q 624.72 482.38 606.04 477.12
  Q 594.25 473.81 580.97 467.51
  Q 578.98 466.57 576.24 466.90
  C 555.61 469.41 530.85 472.80 507.00 474.27
  Q 486.23 475.54 468.01 474.77
  C 460.44 474.45 452.78 465.92 447.66 460.34
  Q 430.15 441.26 416.12 418.32
  A 1.15 1.15 0.0 0 0 414.16 418.31
  Q 400.50 440.40 376.89 452.37
  Q 366.24 457.77 352.09 463.07
  C 349.65 463.98 344.86 465.85 343.60 468.59
  Q 342.17 471.71 341.51 475.72
  A 0.96 0.96 0.0 0 0 342.09 476.76
  Q 346.87 478.73 354.30 481.47
  Q 393.87 496.04 432.73 515.25
  Q 448.68 523.14 462.91 531.79
  Q 473.21 538.05 480.55 546.40
  Q 486.07 552.69 486.80 562.48
  C 487.02 565.38 485.58 572.45 484.13 576.05
  C 477.95 591.34 467.30 604.66 456.49 618.00
  Q 456.40 618.12 426.13 654.11
  Q 416.03 666.10 408.04 677.73
  A 0.54 0.53 -58.6 0 0 408.22 678.50
  C 421.13 685.72 431.69 694.65 441.81 705.18
  Q 468.79 733.25 477.39 772.27
  C 479.29 780.86 480.83 792.52 480.72 802.01
  Q 480.56 816.85 477.49 832.24
  Q 469.58 871.98 441.85 901.85
  Q 428.60 916.12 412.91 926.69
  Q 410.87 928.06 409.57 928.70
  Q 407.54 929.70 406.12 930.54
  A 0.41 0.41 0.0 0 0 406.39 931.30
  Q 408.77 930.94 413.01 930.96
  Q 422.57 931.01 428.39 931.36
  Q 437.14 931.89 443.71 931.99
  Q 474.17 932.45 505.49 935.58
  Q 515.00 936.53 523.18 939.36
  Q 524.61 939.85 525.25 940.46
  A 1.34 1.34 0.0 0 1 525.29 942.34
  Q 522.75 945.06 519.19 945.99
  Q 513.23 947.55 508.05 948.06
  Q 481.72 950.64 458.84 951.17
  C 456.81 951.22 454.68 951.76 452.50 951.78
  Q 435.51 951.99 419.25 952.00
  C 413.55 952.01 407.91 953.00 402.57 952.99
  Q 326.64 952.90 278.00 952.99
  Q 267.14 953.01 261.80 952.68
  Q 250.40 951.98 245.62 951.98
  C 218.46 952.01 190.98 950.62 164.43 947.32
  C 161.56 946.97 154.39 945.57 152.37 943.59
  A 2.30 2.21 -38.9 0 1 152.81 940.09
  Q 153.80 939.44 155.57 938.83
  Q 161.75 936.66 169.51 935.81
  Q 201.82 932.25 234.46 931.87
  Q 242.15 931.79 252.52 931.27
  Q 260.62 930.87 270.58 931.59
  A 0.34 0.34 0.0 0 0 270.77 930.95
  Q 243.40 915.47 224.76 889.96
  Q 197.58 852.78 196.92 805.48
  Q 196.56 780.28 203.11 759.13
  C 212.78 727.92 233.70 697.34 263.11 681.69
  C 265.28 680.54 266.78 677.28 268.07 674.96
  Q 279.69 654.06 293.28 630.53
  Q 293.99 629.31 294.49 627.60
  A 2.52 2.43 -44.0 0 0 294.53 626.40
  C 293.24 620.62 290.74 610.25 289.66 602.98
  Q 286.43 581.31 286.15 577.74
  Q 286.12 577.39 286.01 574.89
  A 1.59 1.59 0.0 0 0 284.43 573.37
  Q 267.16 573.26 257.00 572.91
  C 241.33 572.38 237.95 556.19 236.99 543.75
  Q 236.73 540.45 237.49 538.53
  A 0.45 0.45 0.0 0 0 236.89 537.95
  Q 235.25 538.67 233.52 540.27
  C 213.14 559.08 192.53 574.72 168.67 586.92
  C 152.59 595.14 133.38 600.42 114.90 601.00
  Q 101.37 601.42 91.76 600.37
  Q 83.94 599.52 72.39 595.84
  Q 43.15 586.52 26.42 561.00
  A 0.89 0.88 70.1 0 0 25.58 560.60
  Q 22.49 560.94 18.47 561.15
  Q 12.91 561.44 10.69 556.53
  C 8.95 552.68 13.83 545.58 16.41 542.96
  Q 17.54 541.82 16.93 539.49
  Q 15.33 533.42 14.17 527.72
  A 4.21 4.19 -85.9 0 0 11.48 524.60
  C 6.25 522.69 -1.03 520.95 1.41 513.48
  C 2.71 509.50 7.26 506.61 11.12 504.58
  A 4.56 4.55 82.2 0 0 13.43 501.53
  L 16.67 486.64
  A 0.71 0.70 26.1 0 0 16.42 485.93
  C 13.42 483.53 7.19 479.45 6.85 475.26
  C 6.27 467.98 18.29 466.67 23.12 465.79
  A 2.17 2.16 9.6 0 0 24.62 464.73
  L 32.52 450.80
  A 0.88 0.87 -54.9 0 0 32.33 449.70
  Q 29.46 447.29 27.17 444.36
  Q 24.24 440.62 27.17 437.24
  Q 29.98 433.98 35.50 433.96
  Q 41.56 433.94 43.28 435.06
  A 1.12 1.11 -52.3 0 0 44.71 434.87
  L 55.67 422.59
  A 0.39 0.39 0.0 0 0 55.42 421.94
  Q 51.12 421.41 48.69 418.06
  C 44.36 412.11 58.62 404.19 62.22 402.23
  Q 86.14 389.26 113.53 386.86
  Q 116.34 386.61 119.81 387.28
  C 124.53 388.20 127.44 392.98 125.34 397.37
  Q 124.54 399.02 120.72 402.78
  Q 99.67 423.48 86.09 449.10
  Q 84.97 451.21 82.13 451.16
  Q 79.21 451.10 78.28 449.82
  Q 76.78 447.78 74.36 443.58
  A 0.93 0.93 0.0 0 0 72.83 443.48
  Q 68.62 448.92 65.69 454.96
  Q 59.33 468.02 55.95 481.95
  Q 53.82 490.73 53.86 501.12
  C 53.92 516.66 60.95 531.68 74.03 540.60
  A 0.76 0.76 0.0 0 0 75.02 540.48
  Q 77.01 538.24 79.61 536.37
  Q 86.32 531.54 91.64 538.18
  Q 94.95 542.31 95.56 544.89
  A 1.09 1.05 7.5 0 0 96.13 545.61
  C 98.98 547.04 105.77 545.54 108.52 544.35
  A 2.31 2.31 0.0 0 0 109.91 542.31
  C 110.11 536.62 113.35 525.75 121.35 528.24
  C 124.92 529.35 128.94 534.24 131.44 537.01
  A 0.99 0.98 -36.4 0 0 132.68 537.19
  L 146.09 529.02
  A 1.00 0.98 -25.3 0 0 146.52 527.85
  C 144.74 522.71 143.20 517.45 144.33 512.29
  A 3.83 3.52 69.1 0 1 144.75 511.23
  Q 148.28 505.31 155.32 507.90
  Q 158.89 509.22 164.84 511.90
  A 3.08 3.07 36.5 0 0 168.14 511.41
  L 177.18 503.49
  A 2.45 2.44 -39.2 0 0 177.52 500.18
  Q 173.72 495.16 172.83 488.21
  A 2.69 2.65 -34.8 0 1 173.13 486.60
  Q 174.59 483.89 178.26 483.38
  Q 185.33 482.39 193.86 483.73
  A 3.46 3.45 25.3 0 0 196.97 482.62
  L 206.83 471.57
  A 0.94 0.93 49.2 0 0 206.91 470.42
  C 203.37 465.15 200.67 462.45 201.02 457.27
  Q 201.18 455.01 202.63 454.17
  Q 210.15 449.83 219.02 447.84
  C 220.87 447.43 222.13 445.88 223.02 444.06
  Q 231.34 427.11 242.42 412.68
  Q 243.25 411.60 243.00 410.54
  A 0.47 0.47 0.0 0 0 242.32 410.23
  Q 222.69 420.71 206.01 425.98
  Q 200.20 427.82 193.02 428.23
  C 179.55 429.02 171.78 418.82 166.05 408.19
  Q 163.35 403.18 161.36 398.53
  Q 146.17 363.02 136.77 325.77
  Q 136.37 324.20 133.23 323.09
  C 117.14 317.39 101.08 309.83 88.26 299.04
  Q 58.36 273.87 54.92 234.72
  C 54.50 229.89 55.66 224.46 61.08 223.09
  A 1.74 1.71 -43.3 0 1 62.01 223.11
  Q 64.67 223.91 66.22 225.80
  Q 75.04 236.54 84.88 246.73
  A 0.66 0.66 0.0 0 0 86.02 246.25
  C 85.90 241.31 85.12 236.54 89.96 234.42
  C 92.96 233.11 97.13 236.90 98.78 239.07
  C 106.54 249.30 113.20 258.08 124.28 262.92
  Q 133.16 266.80 142.75 268.98
  A 1.10 1.10 0.0 0 0 144.07 267.66
  Q 141.56 256.68 141.08 244.83
  C 140.85 239.32 140.33 235.62 144.59 232.85
  C 149.97 229.36 157.38 237.43 160.83 241.13
  Q 170.87 251.89 177.02 264.17
  Q 183.48 277.05 182.79 292.01
  Q 182.50 298.38 182.17 302.25
  Q 181.84 306.28 183.63 311.12
  Q 193.56 337.96 208.94 363.47
  A 1.19 1.18 -36.1 0 0 210.74 363.75
  L 228.93 347.82
  A 2.48 2.46 -28.3 0 0 229.69 345.32
  Q 225.02 327.92 211.81 315.32
  C 209.81 313.40 207.19 310.57 208.59 307.63
  C 210.92 302.73 216.07 302.35 221.42 302.94
  C 234.58 304.40 245.65 312.57 255.27 321.68
  A 1.32 1.31 -47.2 0 0 257.16 321.60
  L 260.33 318.05
  A 1.39 1.38 -31.4 0 0 260.64 316.79
  C 254.74 293.19 241.40 270.02 222.32 254.45
  Q 219.64 252.26 219.98 248.98
  C 221.26 236.50 243.75 243.76 250.77 246.50
  Q 283.42 259.23 299.66 290.10
  A 2.02 1.94 3.1 0 0 300.38 290.87
  Q 301.15 291.35 302.06 290.60
  Q 302.33 290.38 303.93 290.00
  Q 311.43 288.21 316.73 287.97
  A 1.54 1.53 -6.0 0 0 318.18 286.19
  Q 316.50 275.84 311.67 264.95
  Q 310.27 261.79 308.62 259.13
  C 306.18 255.18 303.33 251.38 304.43 248.16
  C 306.41 242.31 313.26 243.41 317.84 244.94
  C 335.82 250.94 349.48 265.75 357.46 282.93
  A 0.39 0.39 0.0 0 0 357.91 283.14
  Q 366.71 280.83 372.34 273.85
  Q 380.76 263.42 384.61 250.56
  A 0.79 0.78 25.9 0 0 384.30 249.68
  Q 350.84 226.67 311.01 225.96
  Q 301.10 225.79 285.26 226.73
  Q 278.69 227.12 267.74 225.01
  C 260.44 223.61 251.39 218.36 246.35 212.73
  Q 233.33 198.17 238.61 178.42
  C 242.88 162.44 254.97 150.48 268.75 141.49
  C 300.78 120.61 337.79 108.16 375.76 103.83
  Q 381.28 103.20 385.92 103.07
  Q 389.54 102.96 396.06 102.38
  Q 403.60 101.70 409.64 102.40
  C 416.35 103.18 421.22 102.97 428.25 103.74
  C 476.05 108.98 523.98 126.33 562.38 155.62
  C 580.36 169.34 596.61 187.53 605.57 208.40
  C 613.92 227.84 615.84 250.30 607.94 270.19
  Q 602.79 283.15 590.45 289.45
  A 2.98 2.97 86.0 0 0 588.97 291.16
  Q 584.34 304.73 571.62 312.06
  C 567.87 314.22 563.34 312.68 561.93 308.40
  Q 560.99 305.57 560.96 303.67
  A 0.90 0.90 0.0 0 0 559.51 302.97
  Q 553.07 308.03 551.00 309.47
  C 547.58 311.86 541.47 314.47 540.02 308.20
  Q 538.71 302.49 538.28 298.74
  Q 537.92 295.62 537.15 293.33
  A 0.41 0.41 0.0 0 0 536.52 293.13
  Q 529.66 298.18 523.56 301.26
  C 518.19 303.97 515.99 300.21 514.77 295.77
  Q 514.23 293.84 510.00 273.83
  C 508.91 268.66 504.66 267.57 500.49 266.03
  A 1.06 1.05 -72.6 0 0 499.10 266.76
  Q 498.94 267.44 494.89 281.67
  Q 490.33 297.75 499.37 311.61
  A 0.75 0.75 0.0 0 0 500.40 311.83
  Q 504.95 308.91 510.49 309.07
  C 515.22 309.20 516.51 311.49 517.13 315.97
  Q 517.97 322.11 517.53 326.55
  A 0.49 0.49 0.0 0 0 518.31 327.00
  Q 523.73 323.02 525.01 322.18
  C 526.93 320.92 531.46 318.84 533.52 320.90
  C 536.46 323.84 536.00 327.82 536.01 333.01
  A 0.87 0.87 0.0 0 0 537.44 333.67
  Q 540.79 330.84 543.95 328.46
  C 547.10 326.07 550.92 324.63 554.10 327.40
  A 2.00 2.00 0.0 0 1 554.78 328.71
  C 555.54 336.26 554.40 342.90 553.12 355.02
  Q 552.60 359.96 550.14 363.61
  C 546.12 369.60 540.14 374.90 533.34 378.51
  C 524.79 383.04 516.78 383.63 507.30 381.44
  C 502.53 380.33 495.66 376.70 491.47 374.16
  Q 465.42 358.36 444.51 342.23
  Q 443.37 341.36 442.67 341.32
  A 0.84 0.84 0.0 0 0 441.85 342.50
  Q 448.17 357.00 454.88 371.36
  Q 463.03 388.82 480.68 418.52
  Q 480.98 419.03 483.55 422.21
  Q 485.03 424.03 488.01 424.02
  C 507.88 423.96 519.75 424.55 534.98 423.37
  Q 550.87 422.13 565.97 420.09
  A 6.42 6.40 -70.7 0 0 569.55 418.36
  Q 579.15 409.18 590.53 402.28
  C 594.83 399.67 599.93 397.56 604.85 396.93
  C 608.70 396.44 614.59 396.51 614.10 401.95
  C 613.52 408.45 610.03 415.06 606.45 420.34
  A 0.37 0.36 -66.1 0 0 606.66 420.90
  Z
  M 251.17 196.32
  C 261.64 193.87 271.38 188.57 281.72 184.85
  Q 297.54 179.15 317.99 177.43
  C 347.63 174.95 376.76 177.69 402.29 191.00
  C 424.23 202.44 444.88 218.77 463.22 231.26
  Q 486.38 247.04 510.33 258.82
  C 518.68 262.92 530.44 267.65 540.56 271.47
  Q 558.38 278.21 575.12 279.82
  Q 582.30 280.51 584.94 279.66
  C 595.86 276.15 599.71 262.56 600.80 252.23
  Q 603.62 225.69 589.44 201.79
  Q 584.40 193.32 580.20 188.31
  C 561.03 165.49 533.95 148.60 506.32 136.62
  Q 481.45 125.84 455.69 120.18
  Q 390.90 105.94 328.28 126.07
  Q 296.95 136.14 271.46 153.68
  C 257.56 163.25 245.94 177.22 249.83 195.47
  A 1.11 1.11 0.0 0 0 251.17 196.32
  Z
  M 352.66 219.46
  C 352.01 217.00 350.20 213.05 349.65 209.77
  Q 347.92 199.63 350.89 189.10
  A 0.82 0.81 7.8 0 0 350.10 188.07
  L 332.05 188.07
  A 1.05 1.04 1.1 0 0 331.00 189.07
  C 330.71 196.62 332.74 208.88 338.74 214.00
  A 1.92 1.88 -11.9 0 0 339.18 214.28
  L 352.10 219.95
  A 0.41 0.41 0.0 0 0 352.66 219.46
  Z
  M 324.43 212.03
  Q 320.11 200.88 320.80 189.61
  A 0.64 0.63 87.5 0 0 320.07 188.94
  L 304.24 191.42
  A 1.36 1.36 0.0 0 0 303.11 192.97
  C 303.68 196.75 306.79 209.96 311.80 210.56
  Q 317.84 211.28 323.85 212.69
  A 0.50 0.49 -4.0 0 0 324.43 212.03
  Z
  M 378.69 230.94
  Q 376.46 225.24 375.74 221.74
  C 373.93 212.98 376.10 202.35 379.99 194.58
  A 0.81 0.80 19.5 0 0 379.44 193.43
  L 362.26 189.69
  A 1.20 1.19 -75.4 0 0 360.86 190.52
  Q 358.10 199.84 359.30 208.71
  Q 359.90 213.13 363.30 219.56
  C 365.99 224.66 373.92 229.31 377.96 231.58
  A 0.52 0.51 -86.1 0 0 378.69 230.94
  Z
  M 297.65 209.83
  Q 294.58 202.83 293.58 194.73
  A 0.75 0.74 80.2 0 0 292.68 194.09
  Q 284.29 195.93 275.58 199.66
  A 0.90 0.89 61.7 0 0 275.19 200.97
  C 280.22 208.60 288.51 210.67 297.15 210.61
  A 0.56 0.55 78.1 0 0 297.65 209.83
  Z
  M 402.85 243.40
  A 2.25 2.24 68.8 0 0 404.36 239.97
  C 398.16 230.36 400.42 216.22 405.57 206.82
  A 0.95 0.95 0.0 0 0 405.21 205.54
  L 391.29 197.64
  A 1.27 1.26 -51.8 0 0 389.80 197.82
  C 388.80 198.76 388.44 200.46 388.02 201.56
  Q 381.52 218.87 390.90 235.59
  Q 393.43 240.10 394.70 241.61
  A 6.30 6.30 0.0 0 0 400.61 243.78
  L 402.85 243.40
  Z
  M 540.71 358.35
  C 533.34 357.19 527.34 355.40 521.23 352.29
  Q 495.14 339.03 479.04 315.73
  C 474.80 309.59 470.86 300.90 470.86 292.96
  Q 470.86 290.81 470.81 285.36
  A 7.32 7.25 -61.3 0 0 469.73 281.61
  C 461.87 268.81 455.37 256.38 456.02 241.28
  A 2.11 2.10 -71.4 0 0 455.12 239.46
  L 416.27 212.15
  A 1.44 1.44 0.0 0 0 414.15 212.69
  Q 409.89 221.27 411.38 230.62
  C 412.00 234.48 414.07 238.29 416.11 242.17
  C 420.39 250.34 419.81 257.20 418.68 266.47
  Q 418.60 267.08 414.75 288.75
  C 413.13 297.89 417.87 306.04 424.68 312.32
  Q 435.88 322.64 446.31 330.42
  Q 463.84 343.51 484.01 357.02
  Q 491.25 361.87 502.56 367.97
  Q 511.43 372.75 519.17 371.74
  C 527.18 370.69 535.37 365.28 541.02 359.25
  A 0.54 0.54 0.0 0 0 540.71 358.35
  Z
  M 151.16 246.95
  Q 151.07 247.14 151.12 247.50
  Q 153.08 259.96 154.54 274.24
  C 154.98 278.57 154.54 283.62 148.69 282.70
  A 1.24 1.16 -25.1 0 1 148.35 282.59
  L 142.31 279.66
  A 1.02 0.75 53.8 0 0 142.09 279.59
  C 125.99 276.02 111.69 271.43 100.91 258.61
  Q 96.80 253.72 95.80 252.66
  A 0.43 0.43 0.0 0 0 95.07 253.06
  C 97.84 265.06 101.23 276.38 111.68 283.27
  C 114.84 285.35 121.85 286.40 120.58 291.37
  C 119.73 294.68 117.14 295.57 113.98 294.75
  C 99.95 291.11 92.05 279.21 88.54 265.86
  A 7.02 6.93 -77.2 0 0 86.36 262.35
  Q 77.07 254.29 68.09 244.42
  A 0.42 0.42 0.0 0 0 67.36 244.77
  Q 68.20 250.06 70.55 256.12
  Q 83.36 289.12 116.55 304.61
  Q 126.34 309.18 137.64 312.52
  C 142.78 314.04 145.48 315.63 146.77 320.71
  Q 155.46 355.02 168.83 387.93
  C 172.22 396.27 176.33 405.42 182.47 412.59
  Q 187.28 418.19 194.74 417.15
  Q 201.20 416.25 207.63 413.88
  C 226.92 406.78 247.41 394.95 263.12 386.36
  Q 281.85 376.13 315.28 353.98
  C 318.66 351.74 321.91 354.32 322.48 357.72
  C 323.03 360.99 320.26 363.51 317.55 365.31
  Q 290.13 383.51 262.38 399.37
  Q 258.73 401.46 257.95 403.05
  Q 256.18 406.67 254.64 411.73
  A 16.36 16.31 70.9 0 1 252.40 416.37
  C 242.31 430.87 233.44 443.85 227.76 460.14
  C 224.23 470.28 222.95 481.65 224.19 491.43
  C 227.06 513.94 242.91 528.14 260.47 540.54
  Q 271.55 548.37 297.78 567.28
  C 304.24 571.94 311.70 576.64 316.50 580.26
  Q 324.47 586.26 321.65 596.15
  Q 319.63 603.23 317.16 607.89
  Q 302.88 634.74 302.31 635.82
  C 292.41 654.69 282.84 670.18 271.81 689.81
  C 267.90 696.78 261.08 701.48 253.60 704.37
  C 250.14 705.71 248.45 709.59 247.21 712.86
  C 245.36 717.77 246.31 722.00 249.16 726.34
  Q 253.35 732.72 256.57 735.92
  Q 264.76 744.06 266.14 745.62
  C 270.59 750.63 273.20 755.91 276.91 762.96
  C 281.05 770.84 285.61 774.67 293.21 782.27
  Q 296.62 785.68 298.95 789.40
  A 7.50 7.41 -67.2 0 1 299.90 791.77
  C 300.98 796.90 302.32 803.44 305.07 807.50
  A 0.86 0.86 0.0 0 0 306.43 807.58
  C 312.08 801.02 311.09 788.65 306.29 781.93
  Q 306.06 781.60 298.00 772.25
  C 296.46 770.47 294.82 765.77 297.59 764.21
  Q 301.91 761.77 305.55 765.54
  C 315.84 776.22 322.64 789.13 328.42 802.57
  A 0.50 0.50 0.0 0 0 329.37 802.46
  Q 332.82 782.74 319.55 768.48
  Q 316.64 765.35 310.05 758.94
  Q 308.43 757.36 303.64 750.17
  C 298.92 743.08 294.67 737.27 288.23 728.37
  C 282.20 720.04 286.09 711.72 291.78 704.77
  Q 320.98 669.18 346.30 635.81
  Q 356.42 622.47 366.42 603.79
  Q 371.35 594.58 372.16 591.99
  C 374.47 584.58 374.82 575.94 370.05 569.44
  Q 362.79 559.52 354.03 550.42
  Q 330.11 525.56 306.22 502.73
  Q 297.05 493.97 290.38 488.42
  Q 274.43 475.15 256.77 467.84
  Q 252.98 466.27 252.13 464.83
  Q 250.15 461.46 253.17 458.84
  C 255.89 456.49 260.40 458.31 263.44 459.61
  Q 285.07 468.86 303.75 485.51
  Q 309.60 490.72 319.93 500.41
  A 0.82 0.81 -57.3 0 0 321.24 500.12
  Q 327.33 485.29 331.47 469.01
  Q 332.93 463.25 338.94 457.56
  A 2.92 2.88 10.7 0 1 339.73 457.03
  L 372.67 442.42
  A 0.65 0.64 49.6 0 0 372.76 441.29
  C 370.85 440.02 368.93 438.35 368.68 436.21
  C 368.38 433.61 370.81 429.22 374.09 430.41
  C 379.58 432.40 385.23 434.63 389.98 430.25
  Q 395.77 424.91 400.28 418.04
  A 0.47 0.46 -79.9 0 0 399.79 417.33
  C 396.19 418.18 391.26 418.90 388.60 416.12
  C 386.23 413.65 385.70 408.85 389.66 407.39
  Q 390.95 406.92 393.91 407.09
  Q 401.79 407.54 410.40 405.39
  A 0.93 0.92 8.6 0 0 410.98 404.97
  C 423.85 384.35 429.47 362.29 430.93 338.24
  Q 431.14 334.77 429.67 331.60
  A 2.02 2.02 0.0 0 0 426.87 330.66
  Q 426.68 330.76 426.28 331.54
  Q 421.30 341.07 414.78 346.98
  C 411.93 349.56 407.62 351.22 405.65 346.81
  C 404.13 343.43 407.93 339.78 409.72 337.30
  Q 415.05 329.94 418.27 322.74
  A 1.17 1.17 0.0 0 0 417.98 321.39
  Q 413.03 316.95 408.75 311.13
  A 0.72 0.72 0.0 0 0 407.55 311.18
  Q 400.53 322.72 395.50 332.77
  Q 394.56 334.65 390.73 344.71
  C 388.65 350.20 379.27 349.41 380.88 341.84
  C 382.56 333.92 386.46 326.65 390.81 318.45
  Q 397.16 306.50 404.05 296.51
  A 4.51 4.49 -30.0 0 0 404.83 293.62
  Q 404.47 288.90 405.06 284.01
  C 405.78 278.02 409.03 264.94 408.68 254.84
  A 0.70 0.70 0.0 0 0 407.91 254.17
  L 396.29 255.44
  A 2.27 2.26 7.2 0 0 394.41 256.89
  Q 389.61 269.60 382.03 279.72
  C 376.99 286.46 371.59 290.58 363.80 292.81
  Q 356.14 294.99 348.13 296.20
  A 0.49 0.49 0.0 0 0 347.92 297.09
  Q 358.82 304.65 365.43 315.52
  C 367.80 319.41 370.96 329.52 363.44 330.30
  C 361.77 330.47 360.16 329.26 359.53 327.97
  C 351.79 312.11 336.93 298.60 318.50 299.22
  Q 302.37 299.76 289.12 309.09
  Q 278.61 316.49 274.87 319.88
  Q 254.06 338.75 242.05 350.29
  Q 232.84 359.14 223.95 366.70
  Q 217.57 372.12 211.55 376.03
  Q 207.40 378.73 204.03 375.27
  Q 202.39 373.59 198.91 367.87
  Q 182.92 341.63 172.05 310.70
  Q 170.46 306.19 171.07 300.99
  C 172.23 291.04 172.50 280.12 168.19 270.58
  C 164.34 262.05 158.76 253.18 151.88 246.82
  A 0.46 0.46 0.0 0 0 151.16 246.95
  Z
  M 239.82 255.04
  Q 239.88 255.45 240.07 255.67
  Q 246.31 262.77 249.62 267.37
  Q 259.69 281.34 265.87 295.65
  C 267.65 299.77 268.77 303.43 270.33 308.58
  A 0.47 0.47 0.0 0 0 271.04 308.84
  L 289.02 296.74
  A 0.71 0.70 59.4 0 0 289.25 295.83
  Q 273.59 265.25 240.27 254.66
  A 0.35 0.35 0.0 0 0 239.82 255.04
  Z
  M 321.91 258.95
  A 0.45 0.45 0.0 0 0 321.40 259.56
  Q 327.00 272.42 329.23 286.04
  A 1.56 1.55 83.5 0 0 330.86 287.34
  Q 338.40 286.89 344.46 285.21
  A 0.90 0.90 0.0 0 0 345.04 283.99
  Q 338.74 269.53 325.50 260.49
  Q 323.95 259.44 321.91 258.95
  Z
  M 533.38 280.33
  L 529.12 278.08
  A 0.17 0.17 0.0 0 0 528.89 278.15
  L 528.81 278.29
  A 10.17 2.50 -62.2 0 0 526.28 288.46
  L 526.42 288.53
  A 10.17 2.50 -62.2 0 0 533.38 280.70
  L 533.45 280.56
  A 0.17 0.17 0.0 0 0 533.38 280.33
  Z
  M 556.32 289.35
  A 0.79 0.79 0.0 0 0 555.91 288.11
  L 549.42 286.24
  A 0.79 0.79 0.0 0 0 548.41 287.09
  L 549.38 295.98
  A 0.79 0.79 0.0 0 0 550.79 296.38
  L 556.32 289.35
  Z
  M 569.28 290.41
  L 570.96 301.15
  A 0.33 0.33 0.0 0 0 571.52 301.33
  Q 575.91 296.91 578.22 291.18
  A 0.30 0.30 0.0 0 0 577.99 290.78
  L 570.23 289.47
  A 0.82 0.82 0.0 0 0 569.28 290.41
  Z
  M 226.39 315.25
  A 0.48 0.48 0.0 0 0 226.20 315.91
  Q 227.64 318.36 229.98 321.99
  Q 235.14 329.95 237.51 338.68
  A 0.53 0.53 0.0 0 0 238.40 338.91
  L 247.12 330.18
  A 0.73 0.72 47.1 0 0 247.15 329.18
  C 241.22 322.57 235.64 318.22 227.01 315.23
  A 0.79 0.71 48.4 0 0 226.67 315.19
  Q 226.45 315.21 226.39 315.25
  Z
  M 507.00 329.83
  Q 507.70 325.08 506.86 319.77
  A 0.42 0.42 0.0 0 0 506.22 319.48
  L 500.35 323.05
  A 0.61 0.61 0.0 0 0 500.24 324.01
  L 506.29 330.07
  A 0.42 0.42 0.0 0 0 507.00 329.83
  Z
  M 519.58 339.26
  L 524.43 342.01
  A 0.67 0.67 0.0 0 0 525.34 341.77
  Q 527.99 337.27 527.78 332.25
  A 0.59 0.59 0.0 0 0 526.80 331.83
  L 519.48 338.25
  A 0.63 0.62 39.6 0 0 519.58 339.26
  Z
  M 542.01 340.24
  L 535.61 346.25
  A 0.26 0.26 0.0 0 0 535.60 346.62
  L 535.67 346.69
  A 5.72 4.51 46.8 0 0 542.87 347.77
  L 543.07 347.58
  A 5.72 4.51 46.8 0 0 542.45 340.32
  L 542.38 340.25
  A 0.26 0.26 0.0 0 0 542.01 340.24
  Z
  M 672.00 450.43
  Q 645.28 459.14 615.70 453.01
  A 5.29 5.28 -81.2 0 1 611.52 447.30
  L 611.55 447.00
  A 4.55 4.54 -81.8 0 1 616.90 442.99
  Q 634.53 446.27 648.05 443.73
  Q 650.00 443.36 653.11 441.36
  C 660.04 436.90 667.66 430.64 672.31 423.52
  A 0.30 0.30 0.0 0 0 671.91 423.10
  C 662.12 428.66 649.93 433.87 638.88 434.89
  C 628.82 435.83 618.56 434.51 608.76 431.86
  C 604.35 430.66 602.08 430.68 596.98 430.39
  C 593.09 430.17 591.11 429.16 592.38 425.07
  Q 593.49 421.49 598.75 413.22
  Q 599.56 411.94 600.06 410.04
  A 0.39 0.39 0.0 0 0 599.50 409.60
  Q 591.41 413.89 585.09 419.36
  C 578.05 425.45 574.81 429.78 568.19 430.67
  Q 553.29 432.66 540.50 433.77
  Q 511.73 436.29 483.28 433.94
  Q 477.94 433.50 475.40 429.85
  C 461.56 410.03 450.04 387.00 439.58 365.36
  A 0.64 0.64 0.0 0 0 438.37 365.50
  Q 433.77 387.28 422.54 406.64
  A 1.12 1.11 44.7 0 0 422.55 407.76
  Q 435.14 429.15 450.43 447.10
  C 454.90 452.35 460.43 458.20 464.64 461.65
  Q 467.63 464.10 473.69 464.12
  C 507.96 464.28 531.59 460.90 575.71 455.96
  C 578.62 455.63 581.40 455.80 583.74 457.02
  Q 598.71 464.80 615.66 468.02
  Q 642.52 473.12 664.83 457.76
  Q 669.12 454.81 672.29 450.85
  A 0.27 0.27 0.0 0 0 672.00 450.43
  Z
  M 212.94 481.11
  A 0.30 0.30 0.0 0 0 212.41 480.91
  Q 209.60 484.14 201.15 494.30
  Q 198.25 497.79 197.92 499.55
  C 196.80 505.64 201.66 512.45 206.20 515.91
  C 208.81 517.90 210.54 520.58 208.58 523.40
  A 4.09 3.47 -66.7 0 1 205.03 525.16
  Q 203.11 524.91 200.69 523.54
  Q 192.14 518.68 188.19 509.03
  A 0.55 0.55 0.0 0 0 187.32 508.83
  L 166.43 527.13
  A 4.41 4.41 0.0 0 0 164.92 530.58
  C 165.08 536.21 169.44 541.28 174.18 546.28
  C 175.36 547.53 176.42 549.10 175.82 550.81
  C 174.77 553.78 171.76 555.92 168.75 554.23
  C 162.58 550.76 157.86 543.90 155.33 537.12
  A 0.95 0.95 0.0 0 0 153.89 536.68
  Q 144.79 543.20 134.85 547.90
  Q 132.76 548.90 132.21 549.79
  C 130.63 552.37 132.01 557.87 133.06 560.44
  C 134.09 562.98 137.01 567.27 136.37 569.63
  C 135.55 572.66 132.10 573.72 129.54 571.96
  C 124.09 568.21 121.51 560.07 121.20 553.77
  A 0.68 0.68 0.0 0 0 120.33 553.15
  Q 111.04 555.97 101.42 556.87
  A 0.49 0.48 -2.0 0 0 100.98 557.34
  Q 100.92 562.02 101.19 568.48
  Q 101.37 572.77 97.99 574.28
  C 89.46 578.09 90.69 561.10 90.99 557.29
  A 0.77 0.76 8.8 0 0 90.40 556.49
  Q 89.49 556.28 86.92 555.88
  Q 79.57 554.73 72.12 551.25
  A 1.33 1.31 28.9 0 0 70.46 551.72
  Q 69.00 553.92 65.58 560.32
  C 61.79 567.39 55.15 563.44 56.53 556.51
  Q 57.71 550.56 61.96 545.88
  A 0.93 0.93 0.0 0 0 61.85 544.53
  Q 56.54 540.26 52.69 534.37
  A 0.91 0.91 0.0 0 0 51.43 534.11
  C 48.37 536.13 44.17 539.54 41.96 539.46
  C 37.96 539.32 36.77 534.74 37.96 531.61
  C 39.05 528.72 44.16 526.34 47.19 524.59
  A 1.16 1.15 63.4 0 0 47.67 523.14
  Q 44.48 515.58 43.79 507.40
  A 1.17 1.16 87.6 0 0 42.63 506.33
  L 36.60 506.33
  A 1.98 1.98 0.0 0 1 34.71 504.93
  C 32.76 498.50 36.32 496.67 41.78 495.63
  A 1.29 1.28 89.4 0 0 42.80 494.58
  L 45.27 479.96
  A 0.66 0.66 0.0 0 0 44.94 479.27
  C 42.72 478.00 40.44 476.36 40.15 473.79
  C 39.60 468.99 44.54 468.24 47.96 467.76
  A 1.97 1.97 0.0 0 0 49.54 466.49
  Q 54.92 451.84 64.18 439.71
  C 66.67 436.44 71.64 430.33 75.28 429.16
  A 2.64 2.63 -23.1 0 1 78.42 430.42
  L 80.85 434.93
  A 0.76 0.74 -21.8 0 0 81.72 435.29
  Q 81.77 435.27 81.94 435.15
  A 0.73 0.65 -5.9 0 0 82.17 434.90
  Q 85.29 429.53 89.46 422.71
  Q 93.42 416.22 106.96 400.96
  Q 107.55 400.30 107.80 399.65
  A 0.49 0.49 0.0 0 0 107.28 398.98
  Q 86.59 401.74 67.65 411.89
  Q 66.17 412.68 65.26 413.64
  A 0.70 0.69 -54.1 0 0 65.43 414.73
  Q 69.15 416.72 71.10 417.95
  C 74.28 419.94 73.07 423.55 70.54 425.47
  C 54.53 437.63 40.03 454.03 32.30 472.56
  Q 28.03 482.77 25.29 495.76
  C 20.31 519.36 24.08 541.46 38.97 560.83
  C 63.51 592.75 111.25 595.94 146.07 584.33
  Q 156.49 580.86 168.64 574.40
  Q 188.88 563.64 206.64 549.15
  Q 218.03 539.86 229.46 529.67
  A 0.88 0.87 -41.5 0 0 229.54 528.44
  Q 218.43 515.78 214.47 499.86
  C 212.85 493.35 212.77 487.97 212.94 481.11
  Z
  M 375.35 664.19
  L 396.81 672.50
  A 1.53 1.53 0.0 0 0 398.63 671.93
  C 412.21 651.69 422.78 640.42 444.04 615.56
  Q 454.48 603.34 462.48 591.99
  C 468.48 583.48 473.77 575.18 475.49 565.50
  C 476.49 559.88 474.27 555.69 470.49 551.74
  Q 466.06 547.13 461.19 544.05
  C 439.54 530.37 417.97 520.22 393.58 509.62
  Q 366.71 497.94 338.52 488.18
  A 0.51 0.51 0.0 0 0 337.88 488.48
  L 329.98 508.85
  A 2.20 2.20 0.0 0 0 330.51 511.22
  L 344.39 524.62
  A 1.79 1.76 74.3 0 0 345.16 525.06
  Q 347.05 525.60 349.26 525.52
  Q 358.70 525.17 366.76 525.25
  C 373.20 525.32 380.64 526.94 385.44 531.17
  C 393.24 538.06 393.04 550.77 390.31 559.87
  A 1.01 1.00 22.4 0 0 390.81 561.05
  Q 404.26 568.06 414.53 572.35
  Q 418.24 573.89 419.16 575.19
  C 421.86 578.99 418.76 585.52 416.46 589.21
  C 401.16 613.80 387.26 637.89 375.07 663.48
  A 0.52 0.52 0.0 0 0 375.35 664.19
  Z
  M 356.89 536.90
  L 377.28 560.17
  A 0.33 0.33 0.0 0 0 377.81 560.12
  C 381.64 553.61 384.07 541.90 375.94 537.66
  A 5.81 5.71 59.5 0 0 373.48 537.00
  L 357.13 536.39
  A 0.31 0.31 0.0 0 0 356.89 536.90
  Z
  M 248.39 547.42
  L 251.23 557.68
  A 5.17 5.16 -88.4 0 0 254.54 561.19
  Q 256.16 561.79 260.50 561.88
  Q 266.84 562.03 270.18 561.84
  A 0.56 0.56 0.0 0 0 270.47 560.83
  L 249.89 546.36
  A 0.98 0.98 0.0 0 0 248.39 547.42
  Z
  M 347.56 658.89
  Q 352.27 660.25 355.63 660.09
  C 357.97 659.98 360.46 661.26 363.15 660.96
  A 1.17 1.16 17.1 0 0 363.91 660.56
  Q 365.05 659.25 365.65 657.89
  Q 371.60 644.57 379.68 629.93
  Q 392.90 605.96 407.71 582.74
  A 0.83 0.83 0.0 0 0 407.37 581.54
  L 385.50 571.35
  A 0.99 0.98 -85.9 0 0 384.14 572.53
  C 386.74 581.08 384.10 592.27 380.37 600.16
  C 372.48 616.81 361.01 633.95 348.81 650.55
  Q 346.35 653.90 347.04 658.30
  A 0.73 0.73 0.0 0 0 347.56 658.89
  Z
  M 303.41 610.64
  Q 308.91 602.05 311.72 591.92
  A 2.63 2.63 0.0 0 0 310.70 589.06
  L 298.58 580.55
  A 0.37 0.37 0.0 0 0 298.00 580.89
  Q 299.54 596.14 302.75 610.52
  A 0.36 0.36 0.0 0 0 303.41 610.64
  Z
  M 334.55 771.25
  Q 332.65 728.62 333.60 679.79
  Q 333.67 676.45 334.20 670.52
  A 0.52 0.51 -21.4 0 0 333.30 670.13
  C 325.95 678.37 318.43 689.03 312.64 696.14
  Q 311.04 698.11 311.18 699.82
  Q 313.20 724.33 313.42 743.76
  C 313.45 746.46 316.70 750.04 318.15 751.60
  Q 327.99 762.15 334.23 771.36
  A 0.18 0.18 0.0 0 0 334.55 771.25
  Z
  M 235.88 721.71
  Q 235.10 722.44 233.45 724.66
  C 200.88 768.46 200.71 829.35 228.75 874.80
  C 245.98 902.71 273.92 923.96 305.36 931.76
  C 334.23 938.92 366.73 936.76 393.87 923.45
  C 428.39 906.54 455.02 874.67 464.43 836.72
  Q 473.86 798.67 462.42 762.62
  Q 452.78 732.24 430.13 710.29
  C 420.33 700.79 407.87 691.18 395.57 685.09
  Q 372.54 673.68 346.32 670.69
  A 0.83 0.82 4.2 0 0 345.40 671.48
  L 344.85 686.26
  A 0.55 0.54 -87.3 0 0 345.36 686.83
  Q 351.77 687.18 358.97 688.78
  Q 390.37 695.77 413.68 716.77
  C 438.61 739.23 453.82 772.16 452.74 806.25
  Q 451.95 831.35 441.98 852.46
  C 432.28 872.99 417.01 891.06 397.58 903.00
  C 368.13 921.08 332.67 925.33 300.13 913.58
  C 271.29 903.17 247.92 880.41 234.88 852.20
  Q 224.95 830.71 224.25 806.18
  Q 223.23 770.39 242.62 738.25
  A 2.02 2.02 0.0 0 0 242.43 735.90
  Q 237.56 730.14 236.52 721.94
  A 0.38 0.38 0.0 0 0 235.88 721.71
  Z
  M 344.69 698.98
  A 0.69 0.69 0.0 0 0 344.00 699.67
  L 344.00 706.62
  A 0.36 0.36 0.0 0 0 344.70 706.75
  L 347.44 699.65
  A 0.49 0.49 0.0 0 0 346.98 698.98
  L 344.69 698.98
  Z
  M 345.24 762.22
  C 346.73 760.05 347.41 757.65 348.91 754.70
  C 353.61 745.47 355.60 741.21 360.15 733.43
  Q 361.64 730.88 375.66 706.83
  A 0.47 0.47 0.0 0 0 375.45 706.16
  Q 367.76 702.54 358.41 700.37
  A 0.78 0.77 -65.4 0 0 357.62 700.67
  C 354.44 705.02 352.31 710.86 349.85 715.66
  Q 349.53 716.30 345.38 724.38
  Q 344.06 726.96 344.02 730.00
  Q 343.83 745.89 344.83 762.11
  A 0.23 0.22 -29.6 0 0 345.24 762.22
  Z
  M 301.94 727.61
  Q 302.06 725.42 302.01 717.52
  Q 302.00 715.47 301.62 714.54
  Q 300.90 712.80 301.37 711.71
  A 0.47 0.47 0.0 0 0 301.17 711.11
  L 300.83 710.92
  A 0.36 0.35 -60.3 0 0 300.34 711.06
  L 296.15 718.45
  A 1.78 1.77 -45.9 0 0 296.17 720.25
  Q 298.32 723.77 300.77 726.56
  Q 300.88 726.68 301.07 727.24
  Q 301.29 727.90 301.46 727.95
  A 0.38 0.37 -79.7 0 0 301.94 727.61
  Z
  M 354.98 784.69
  C 355.98 785.70 357.03 786.16 358.34 785.39
  Q 391.38 765.97 423.12 748.30
  A 1.70 1.69 -31.2 0 0 423.72 745.88
  Q 417.77 736.81 410.76 729.69
  Q 403.74 722.57 394.75 716.50
  A 1.70 1.69 -58.0 0 0 392.32 717.06
  Q 374.21 748.55 354.33 781.32
  C 353.54 782.62 353.98 783.67 354.98 784.69
  Z
  M 278.85 783.49
  Q 278.76 783.22 277.34 781.83
  Q 276.62 781.13 275.57 779.85
  Q 269.28 772.22 265.13 763.51
  Q 262.15 757.23 261.07 755.93
  C 258.68 753.05 255.01 748.58 252.00 747.36
  A 1.35 1.35 0.0 0 0 250.31 747.96
  Q 238.90 768.46 236.10 791.81
  Q 235.79 794.41 235.96 796.40
  A 0.66 0.66 0.0 0 0 236.63 797.01
  Q 243.73 796.89 249.88 797.44
  Q 250.37 797.49 250.94 797.81
  Q 251.54 798.16 252.06 798.06
  Q 252.63 797.96 252.86 796.69
  Q 254.35 788.55 261.42 785.24
  Q 264.17 783.95 269.84 783.86
  Q 277.33 783.74 278.46 783.94
  A 0.35 0.34 86.0 0 0 278.85 783.49
  Z
  M 428.90 756.82
  C 425.73 758.37 421.93 761.29 418.73 763.11
  Q 395.49 776.26 364.42 793.93
  Q 362.42 795.07 361.70 795.83
  A 1.84 1.83 22.7 0 0 362.97 798.92
  Q 401.63 800.50 439.92 799.91
  A 1.16 1.15 0.5 0 0 441.06 798.80
  C 441.39 789.54 439.00 780.35 436.02 770.95
  Q 433.69 763.59 429.96 757.14
  A 0.81 0.81 0.0 0 0 428.90 756.82
  Z
  M 318.83 809.59
  Q 317.84 810.74 318.77 811.79
  Q 321.37 814.73 324.65 817.60
  C 332.08 824.09 342.34 822.65 348.03 814.55
  C 354.54 805.28 350.84 792.98 340.51 788.84
  A 0.49 0.48 7.3 0 0 339.85 789.35
  Q 340.24 792.43 340.52 794.61
  C 341.30 800.61 339.11 807.62 335.87 812.62
  Q 334.61 814.57 331.51 816.75
  C 325.83 820.75 321.61 814.55 319.54 809.70
  A 0.42 0.42 0.0 0 0 318.83 809.59
  Z
  M 293.34 807.58
  Q 293.63 800.58 288.95 795.00
  A 1.91 1.89 78.9 0 0 288.05 794.39
  Q 286.77 793.96 284.51 793.93
  Q 275.22 793.81 268.25 794.66
  C 266.58 794.87 264.59 795.15 264.00 797.22
  C 262.70 801.73 262.55 808.16 268.75 808.28
  Q 281.44 808.54 292.72 808.20
  A 0.64 0.63 -89.5 0 0 293.34 807.58
  Z
  M 300.55 819.26
  C 293.86 818.76 284.37 818.95 269.26 819.11
  Q 264.28 819.16 262.61 818.29
  Q 256.60 815.18 253.36 808.74
  A 1.44 1.43 76.5 0 0 252.08 807.95
  L 235.97 807.95
  A 1.02 1.01 81.8 0 0 235.00 809.25
  L 235.67 811.53
  A 1.67 1.42 40.3 0 1 235.72 811.83
  C 236.81 825.43 240.49 839.34 247.31 851.35
  A 0.62 0.61 59.0 0 0 248.17 851.57
  L 300.64 819.62
  A 0.20 0.19 31.5 0 0 300.55 819.26
  Z
  M 427.93 854.04
  A 0.44 0.44 0.0 0 0 428.44 853.87
  Q 431.07 850.11 432.53 846.54
  Q 439.10 830.48 440.95 816.23
  Q 441.22 814.21 440.92 811.68
  A 0.80 0.79 86.8 0 0 440.13 810.97
  Q 408.20 811.18 373.75 809.49
  Q 371.21 809.37 366.25 808.92
  Q 364.45 808.76 362.71 809.27
  A 0.93 0.92 -1.2 0 0 362.08 809.92
  Q 361.39 812.52 363.64 814.12
  Q 366.27 815.98 368.57 817.42
  Q 414.64 846.11 427.12 853.63
  Q 427.59 853.92 427.93 854.04
  Z
  M 354.56 824.50
  Q 353.64 825.41 353.23 826.00
  A 0.58 0.57 -43.7 0 0 353.21 826.63
  L 392.85 891.73
  A 1.08 1.08 0.0 0 0 394.33 892.09
  Q 402.15 887.25 409.60 879.84
  Q 417.05 872.43 421.93 864.64
  A 1.08 1.08 0.0 0 0 421.58 863.15
  L 356.70 823.16
  A 0.58 0.57 -46.0 0 0 356.06 823.18
  Q 355.48 823.58 354.56 824.50
  Z
  M 253.34 862.76
  Q 264.39 878.66 280.47 890.82
  A 1.30 1.30 0.0 0 0 282.39 890.43
  L 317.73 828.18
  A 2.12 2.11 39.0 0 0 317.47 825.74
  Q 314.88 822.80 312.23 824.98
  Q 311.14 825.87 305.70 829.19
  Q 276.34 847.12 253.85 860.41
  A 1.64 1.64 0.0 0 0 253.34 862.76
  Z
  M 384.03 897.71
  L 343.36 830.92
  A 0.72 0.72 0.0 0 0 342.03 831.29
  L 342.03 908.47
  A 0.54 0.54 0.0 0 0 342.57 909.01
  C 356.55 908.81 371.19 904.53 383.83 898.38
  A 0.48 0.47 -28.8 0 0 384.03 897.71
  Z
  M 328.70 832.87
  Q 327.15 832.66 326.10 834.65
  C 315.78 854.09 302.46 876.00 290.98 896.69
  A 0.73 0.73 0.0 0 0 291.29 897.70
  Q 308.66 906.63 328.01 908.92
  Q 329.35 909.07 330.28 908.93
  A 0.91 0.90 -4.5 0 0 331.05 908.04
  Q 330.88 869.00 331.11 838.26
  Q 331.14 834.58 329.63 833.28
  A 1.87 1.82 68.0 0 0 328.70 832.87
  Z"
/>
<path d="
  M 163.94 151.18
  A 43.03 43.03 0.0 0 1 120.91 194.21
  A 43.03 43.03 0.0 0 1 77.88 151.18
  A 43.03 43.03 0.0 0 1 120.91 108.15
  A 43.03 43.03 0.0 0 1 163.94 151.18
  Z
  M 152.60 151.28
  A 31.62 31.62 0.0 0 0 120.98 119.66
  A 31.62 31.62 0.0 0 0 89.36 151.28
  A 31.62 31.62 0.0 0 0 120.98 182.90
  A 31.62 31.62 0.0 0 0 152.60 151.28
  Z"
/>
<path d="
  M 445.87 261.21
  Q 449.70 262.08 449.50 266.53
  Q 449.24 272.42 448.95 278.50
  C 448.61 285.43 450.37 290.38 452.52 296.46
  C 454.81 302.96 445.47 306.83 442.63 299.79
  Q 436.58 284.80 438.98 268.80
  C 439.45 265.64 441.70 260.27 445.87 261.21
  Z"
/>
<path d="
  M 682.18 355.84
  A 43.58 43.58 0.0 0 1 638.60 399.42
  A 43.58 43.58 0.0 0 1 595.02 355.84
  A 43.58 43.58 0.0 0 1 638.60 312.26
  A 43.58 43.58 0.0 0 1 682.18 355.84
  Z
  M 670.2993 350.0356
  A 32.29 32.14 -10.5 0 0 632.6930 324.3182
  A 32.29 32.14 -10.5 0 0 606.8007 361.8044
  A 32.29 32.14 -10.5 0 0 644.4070 387.5218
  A 32.29 32.14 -10.5 0 0 670.2993 350.0356
  Z"
/>
<path d="
  M 362.10 365.60
  C 366.39 368.89 371.71 370.58 377.08 371.71
  C 381.87 372.71 385.11 374.61 382.80 380.05
  C 381.39 383.36 377.61 382.85 374.51 382.28
  Q 364.09 380.35 355.71 373.94
  Q 347.34 367.52 342.76 357.96
  C 341.40 355.12 339.93 351.60 342.75 349.38
  C 347.40 345.73 350.08 348.36 352.30 352.73
  C 354.78 357.61 357.81 362.31 362.10 365.60
  Z"
/>
<path d="
  M 318.90 373.03
  C 320.89 371.94 323.02 373.46 323.98 374.95
  Q 327.47 380.39 329.82 383.50
  C 338.63 395.14 353.20 399.76 367.50 399.89
  Q 369.95 399.92 371.75 402.47
  C 374.50 406.39 371.20 409.49 367.44 409.89
  Q 362.98 410.36 357.81 409.68
  Q 331.48 406.21 317.45 384.79
  C 314.43 380.19 313.63 375.92 318.90 373.03
  Z"
/>
<path d="
  M 410.60 387.00
  C 405.72 388.71 399.26 390.32 397.14 384.66
  Q 395.82 381.16 399.07 379.16
  A 2.73 2.55 -64.3 0 1 399.94 378.82
  Q 399.96 378.81 406.28 377.84
  Q 406.40 377.83 407.28 377.52
  Q 408.16 377.21 408.26 377.15
  Q 413.80 373.96 413.83 373.96
  A 2.73 2.55 25.7 0 1 414.72 373.68
  Q 418.51 373.21 419.66 376.77
  C 421.53 382.52 415.48 385.29 410.60 387.00
  Z"
/>
<path d="
  M 296.10 395.20
  Q 299.11 396.52 299.90 398.02
  C 304.34 406.47 309.67 414.06 317.98 418.49
  Q 328.22 423.96 337.51 424.78
  Q 340.87 425.07 348.16 424.86
  Q 351.51 424.76 352.81 425.60
  C 357.06 428.38 356.40 433.32 351.66 434.92
  C 348.77 435.89 344.49 436.19 341.71 436.00
  Q 325.25 434.85 310.59 426.39
  C 303.38 422.23 297.15 414.32 292.35 406.90
  C 289.46 402.43 288.90 397.38 294.83 395.17
  A 1.71 1.70 46.2 0 1 296.10 395.20
  Z"
/>
<path d="
  M 331.81 453.08
  C 330.80 455.39 325.80 456.38 323.47 456.50
  C 310.00 457.23 292.91 452.44 282.56 443.43
  C 275.58 437.36 269.86 430.22 266.14 421.99
  C 264.05 417.36 266.89 413.73 271.82 413.90
  A 3.52 3.51 78.2 0 1 274.88 415.91
  C 282.51 432.06 296.32 443.89 314.78 445.17
  Q 319.25 445.48 326.25 445.48
  Q 327.33 445.47 329.94 446.72
  Q 333.80 448.57 331.81 453.08
  Z"
/>
</g>
<g fill="#ffae30">
<circle cx="274.30" cy="44.10" r="31.76"/>
<circle cx="120.98" cy="151.28" r="31.62"/>
<ellipse cx="0.00" cy="0.00" transform="translate(638.55,355.92) rotate(-10.5)" rx="32.29" ry="32.14"/>
</g>
<g fill="#fffdfa">
<path d="
  M 533.38 280.33
  A 0.17 0.17 0.0 0 1 533.45 280.56
  L 533.38 280.70
  A 10.17 2.50 -62.2 0 1 526.42 288.53
  L 526.28 288.46
  A 10.17 2.50 -62.2 0 1 528.81 278.29
  L 528.89 278.15
  A 0.17 0.17 0.0 0 1 529.12 278.08
  L 533.38 280.33
  Z"
/>
<path d="
  M 556.32 289.35
  L 550.79 296.38
  A 0.79 0.79 0.0 0 1 549.38 295.98
  L 548.41 287.09
  A 0.79 0.79 0.0 0 1 549.42 286.24
  L 555.91 288.11
  A 0.79 0.79 0.0 0 1 556.32 289.35
  Z"
/>
<path d="
  M 570.23 289.47
  L 577.99 290.78
  A 0.30 0.30 0.0 0 1 578.22 291.18
  Q 575.91 296.91 571.52 301.33
  A 0.33 0.33 0.0 0 1 570.96 301.15
  L 569.28 290.41
  A 0.82 0.82 0.0 0 1 570.23 289.47
  Z"
/>
<path d="
  M 507.00 329.83
  A 0.42 0.42 0.0 0 1 506.29 330.07
  L 500.24 324.01
  A 0.61 0.61 0.0 0 1 500.35 323.05
  L 506.22 319.48
  A 0.42 0.42 0.0 0 1 506.86 319.77
  Q 507.70 325.08 507.00 329.83
  Z"
/>
<path d="
  M 519.58 339.26
  A 0.63 0.62 39.6 0 1 519.48 338.25
  L 526.80 331.83
  A 0.59 0.59 0.0 0 1 527.78 332.25
  Q 527.99 337.27 525.34 341.77
  A 0.67 0.67 0.0 0 1 524.43 342.01
  L 519.58 339.26
  Z"
/>
<path d="
  M 542.01 340.24
  A 0.26 0.26 0.0 0 1 542.38 340.25
  L 542.45 340.32
  A 5.72 4.51 46.8 0 1 543.07 347.58
  L 542.87 347.77
  A 5.72 4.51 46.8 0 1 535.67 346.69
  L 535.60 346.62
  A 0.26 0.26 0.0 0 1 535.61 346.25
  L 542.01 340.24
  Z"
/>
<path d="
  M 303.41 610.64
  A 0.36 0.36 0.0 0 1 302.75 610.52
  Q 299.54 596.14 298.00 580.89
  A 0.37 0.37 0.0 0 1 298.58 580.55
  L 310.70 589.06
  A 2.63 2.63 0.0 0 1 311.72 591.92
  Q 308.91 602.05 303.41 610.64
  Z"
/>
<path d="
  M 334.55 771.25
  A 0.18 0.18 0.0 0 1 334.23 771.36
  Q 327.99 762.15 318.15 751.60
  C 316.70 750.04 313.45 746.46 313.42 743.76
  Q 313.20 724.33 311.18 699.82
  Q 311.04 698.11 312.64 696.14
  C 318.43 689.03 325.95 678.37 333.30 670.13
  A 0.52 0.51 -21.4 0 1 334.20 670.52
  Q 333.67 676.45 333.60 679.79
  Q 332.65 728.62 334.55 771.25
  Z"
/>
<path d="
  M 319.54 809.70
  C 321.61 814.55 325.83 820.75 331.51 816.75
  Q 334.61 814.57 335.87 812.62
  C 339.11 807.62 341.30 800.61 340.52 794.61
  Q 340.24 792.43 339.85 789.35
  A 0.49 0.48 7.3 0 1 340.51 788.84
  C 350.84 792.98 354.54 805.28 348.03 814.55
  C 342.34 822.65 332.08 824.09 324.65 817.60
  Q 321.37 814.73 318.77 811.79
  Q 317.84 810.74 318.83 809.59
  A 0.42 0.42 0.0 0 1 319.54 809.70
  Z"
/>
</g>
</svg>
