<?xml version="1.0" encoding="UTF-8" standalone="no"?>
<!DOCTYPE svg PUBLIC "-//W3C//DTD SVG 1.1//EN" "http://www.w3.org/Graphics/SVG/1.1/DTD/svg11.dtd">
<svg xmlns="http://www.w3.org/2000/svg" version="1.1" viewBox="0.00 0.00 678.00 730.00">
<g fill="var(--art-stroke)">
<path d="
  M 458.50 0.00
  Q 466.94 2.34 473.03 8.98
  C 477.44 13.79 476.90 20.98 473.69 26.15
  A 0.52 0.52 0.0 0 0 474.47 26.81
  C 480.76 21.24 486.08 18.02 493.69 24.29
  C 497.96 27.80 505.29 34.73 503.92 40.04
  Q 502.69 44.85 499.48 49.29
  A 0.52 0.52 0.0 0 0 500.22 50.01
  Q 501.76 48.81 503.54 48.05
  C 507.62 46.32 510.37 44.76 514.71 47.78
  C 519.26 50.94 529.45 60.54 525.01 66.82
  Q 522.63 70.19 522.41 71.06
  A 0.36 0.36 0.0 0 0 522.84 71.50
  Q 527.97 70.25 531.28 73.22
  Q 537.57 78.86 540.13 87.76
  Q 542.25 95.13 535.82 98.88
  Q 535.62 99.00 459.36 142.84
  C 454.80 145.46 449.96 150.90 444.84 153.43
  Q 430.09 160.71 415.33 153.22
  A 0.81 0.80 -52.5 0 0 414.41 153.35
  L 376.45 189.22
  A 1.88 1.88 0.0 0 0 376.12 191.52
  C 381.09 200.06 383.45 209.74 381.23 219.60
  C 378.26 232.83 371.03 242.41 361.93 253.00
  A 3.02 2.90 76.6 0 0 361.43 253.85
  Q 358.18 262.61 357.23 264.99
  Q 353.48 274.49 345.72 290.25
  C 335.33 311.38 318.37 332.15 293.02 333.87
  Q 282.08 334.61 272.87 332.06
  Q 258.12 327.98 244.73 319.50
  A 0.46 0.46 0.0 0 0 244.17 319.55
  L 229.53 333.39
  A 2.15 2.14 -33.2 0 0 229.02 335.80
  Q 232.76 344.62 230.31 354.59
  C 228.72 361.04 224.77 364.53 220.27 369.26
  A 3.98 3.86 80.0 0 0 219.34 370.63
  L 217.85 374.39
  A 1.56 1.55 23.7 0 0 218.63 376.37
  Q 225.55 379.69 232.22 383.03
  Q 247.78 390.82 261.43 402.21
  C 266.67 406.59 273.29 415.28 276.30 423.30
  Q 278.13 428.19 278.39 429.90
  Q 280.33 443.09 277.65 456.19
  C 276.57 461.48 274.68 469.41 272.76 475.46
  Q 266.35 495.78 258.25 516.37
  A 1.85 1.85 0.0 0 0 259.72 518.88
  C 274.82 520.95 287.48 530.02 293.19 544.33
  C 295.62 550.39 295.89 560.67 294.07 565.96
  A 1.58 1.58 0.0 0 0 294.78 567.85
  C 300.01 570.82 300.65 575.31 301.05 581.46
  C 301.43 587.23 301.34 595.32 298.08 599.51
  C 295.43 602.92 290.32 605.42 285.67 605.13
  A 0.64 0.63 2.2 0 0 284.99 605.75
  Q 284.97 606.50 285.49 607.16
  A 1.06 1.04 20.3 0 1 285.70 607.61
  C 286.51 611.55 287.13 615.28 287.95 618.65
  Q 294.67 646.20 302.83 680.40
  Q 304.59 687.78 305.06 689.36
  Q 307.05 696.05 307.25 700.15
  A 0.66 0.66 0.0 0 0 307.86 700.77
  Q 317.33 701.48 327.21 704.27
  Q 329.81 705.01 331.51 706.84
  A 1.76 1.76 0.0 0 1 331.40 709.33
  Q 329.38 711.17 326.23 712.24
  Q 323.04 713.32 313.11 715.13
  Q 306.91 716.26 299.82 716.91
  Q 270.12 719.66 238.25 720.83
  Q 232.19 721.05 214.73 720.95
  A 7.90 7.71 -50.7 0 0 212.85 721.16
  Q 209.18 721.99 208.00 721.99
  Q 134.83 722.02 126.25 721.95
  Q 123.07 721.92 119.54 721.19
  A 8.85 8.69 -38.8 0 0 117.82 721.02
  C 107.18 720.99 98.00 720.98 86.08 720.39
  Q 72.55 719.72 60.51 719.13
  Q 49.81 718.60 28.74 716.60
  Q 15.82 715.37 5.04 711.99
  Q 2.28 711.12 0.00 708.64
  L 0.00 707.61
  Q 1.91 705.02 4.70 704.17
  Q 13.24 701.56 21.82 700.97
  A 1.29 1.28 -84.7 0 0 22.98 700.00
  L 46.13 607.74
  A 1.49 1.48 8.7 0 0 44.77 605.90
  Q 42.72 605.79 39.53 605.07
  C 32.82 603.55 28.79 598.21 28.86 591.26
  Q 28.93 584.82 29.12 579.65
  A 4.00 3.84 55.2 0 1 29.26 578.77
  Q 30.97 572.39 37.36 569.83
  A 1.16 1.15 78.3 0 0 38.08 568.73
  C 38.00 565.31 37.86 562.17 38.45 558.86
  Q 41.16 543.51 43.54 535.26
  Q 49.19 515.75 57.00 496.22
  C 58.45 492.59 61.81 490.52 63.42 486.70
  Q 70.58 469.80 71.85 464.69
  Q 73.06 459.81 69.43 455.33
  Q 66.10 451.22 52.06 434.49
  C 39.39 419.40 32.10 401.87 33.07 382.10
  Q 33.20 379.46 33.45 378.30
  C 33.99 375.75 34.79 373.01 33.02 371.45
  A 1.74 1.62 -13.4 0 0 32.42 371.11
  C 18.94 366.88 7.20 359.00 3.58 344.97
  C 2.09 339.20 1.80 332.62 2.50 326.00
  Q 3.81 313.57 6.57 301.51
  Q 15.40 262.96 20.09 244.07
  Q 23.69 229.54 27.47 216.45
  C 32.13 200.33 39.40 186.94 55.96 180.72
  Q 65.76 177.04 79.03 177.08
  A 4.73 4.58 -34.6 0 1 80.54 177.33
  Q 83.45 178.34 87.51 177.93
  A 0.59 0.58 86.0 0 0 88.04 177.31
  Q 88.03 176.91 87.41 176.35
  Q 86.98 175.95 87.01 175.30
  Q 87.16 172.21 86.22 168.08
  A 6.38 6.29 -51.3 0 1 86.07 166.62
  Q 86.08 166.27 86.00 153.53
  Q 85.96 146.54 86.92 140.53
  C 91.65 110.87 107.82 85.74 132.60 68.52
  Q 162.21 47.95 198.35 46.97
  Q 220.69 46.37 240.29 53.17
  C 267.24 62.53 290.44 82.09 301.87 108.97
  C 316.25 142.80 312.81 183.05 291.60 213.17
  Q 286.47 220.45 280.99 226.53
  Q 275.98 232.08 270.48 235.99
  Q 269.79 236.49 268.01 238.61
  A 0.79 0.79 0.0 0 0 268.48 239.89
  L 269.98 240.14
  A 3.74 3.65 63.2 0 1 271.12 240.53
  C 274.67 242.44 278.78 245.55 281.33 243.07
  Q 287.31 237.26 293.18 232.13
  A 2.88 2.86 61.4 0 0 294.04 229.17
  Q 292.34 223.34 293.28 217.79
  C 293.98 213.63 298.09 209.45 301.59 206.10
  C 303.05 204.71 304.98 204.31 306.12 203.05
  A 2.31 2.29 67.3 0 0 306.71 201.59
  Q 307.21 189.05 318.62 184.13
  Q 321.19 183.03 323.61 182.91
  A 1.25 1.24 -80.3 0 0 324.70 182.13
  Q 328.37 172.97 337.88 170.60
  C 342.60 169.43 346.03 170.55 350.64 171.93
  A 3.68 3.68 0.0 0 0 354.25 171.06
  L 393.84 132.91
  A 0.65 0.65 0.0 0 0 393.95 132.12
  C 387.79 121.44 386.19 104.93 394.83 94.83
  Q 395.82 93.68 400.91 89.32
  A 6.35 6.22 89.4 0 0 401.83 88.36
  Q 402.92 86.96 404.44 84.23
  Q 430.13 38.01 448.04 7.05
  Q 450.71 2.43 455.48 0.00
  L 458.50 0.00
  Z
  M 458.15 10.66
  Q 457.08 11.81 454.63 16.13
  Q 430.49 58.62 413.32 89.24
  C 411.60 92.31 410.37 93.98 412.42 96.83
  Q 423.44 112.19 436.99 124.53
  Q 442.37 129.44 445.92 131.79
  C 449.35 134.07 450.95 135.89 454.40 133.92
  Q 507.41 103.57 528.66 91.15
  A 2.33 2.31 65.6 0 0 529.68 88.40
  Q 528.74 85.66 526.13 81.78
  Q 524.41 79.24 521.13 81.09
  Q 505.43 89.93 481.49 104.47
  A 3.47 3.46 -35.0 0 1 476.98 103.68
  L 476.90 103.58
  A 3.07 3.06 -38.7 0 1 477.38 99.27
  Q 494.86 85.35 509.87 71.12
  Q 513.17 67.98 515.21 64.69
  A 2.77 2.76 38.8 0 0 514.84 61.31
  L 510.64 56.95
  A 2.31 2.30 52.7 0 0 507.80 56.56
  C 492.43 65.58 478.82 76.57 464.94 88.32
  A 3.96 3.95 -41.9 0 1 459.52 88.03
  L 459.42 87.93
  A 3.94 3.93 45.2 0 1 459.43 82.49
  C 470.92 70.54 481.50 58.70 490.47 45.48
  Q 492.55 42.42 493.26 40.18
  A 2.95 2.94 31.9 0 0 492.57 37.23
  L 487.32 31.78
  A 2.21 2.21 0.0 0 0 484.68 31.36
  Q 481.88 32.87 479.36 35.38
  C 467.28 47.40 456.59 60.60 446.56 73.44
  A 3.32 3.31 40.8 0 1 441.66 73.79
  L 441.56 73.69
  A 4.47 4.46 38.1 0 1 440.87 68.08
  Q 450.07 53.57 456.92 40.95
  C 459.75 35.72 467.64 19.92 465.28 15.88
  Q 463.40 12.67 459.25 10.47
  A 0.92 0.91 -54.6 0 0 458.15 10.66
  Z
  M 256.74 233.88
  Q 241.44 237.90 225.95 235.77
  Q 209.24 233.46 196.36 226.60
  C 160.34 207.39 151.51 156.66 173.04 123.50
  Q 180.19 112.48 189.09 105.91
  Q 198.45 99.00 210.46 94.93
  C 233.77 87.03 259.92 86.78 282.50 97.08
  A 0.28 0.28 0.0 0 0 282.84 96.66
  C 265.69 73.19 238.02 59.12 209.51 57.77
  C 168.46 55.82 129.29 73.67 108.61 109.99
  C 92.42 138.45 91.22 176.14 109.52 204.53
  A 1.50 1.45 -5.9 0 0 110.27 205.12
  C 125.92 210.62 138.93 218.72 154.39 228.33
  C 171.05 238.69 190.03 245.16 210.26 246.10
  Q 235.40 247.26 256.86 234.16
  A 0.15 0.15 0.0 0 0 256.74 233.88
  Z
  M 442.88 142.11
  C 427.61 130.25 413.71 116.82 403.57 100.24
  A 0.42 0.42 0.0 0 0 402.89 100.19
  Q 401.11 102.31 400.31 104.62
  C 395.64 118.14 402.14 128.74 411.50 137.99
  C 420.86 147.24 431.16 150.14 442.85 142.81
  A 0.43 0.42 47.9 0 0 442.88 142.11
  Z
  M 206.19 107.98
  C 187.00 115.88 174.68 135.10 172.42 155.61
  C 169.34 183.56 182.47 209.71 209.11 220.39
  C 230.15 228.82 260.97 228.55 278.23 211.46
  C 294.49 195.38 300.94 170.25 300.01 148.01
  Q 299.39 133.10 294.99 124.53
  C 289.49 113.82 279.44 106.66 267.86 103.71
  Q 236.20 95.63 206.19 107.98
  Z
  M 400.74 140.74
  A 0.32 0.32 0.0 0 0 400.29 140.73
  L 362.61 177.06
  A 0.32 0.32 0.0 0 0 362.64 177.55
  L 369.22 182.26
  A 0.32 0.32 0.0 0 0 369.63 182.24
  L 406.27 146.93
  A 0.32 0.32 0.0 0 0 406.28 146.48
  L 400.74 140.74
  Z
  M 335.51 184.50
  C 342.31 187.81 347.55 190.34 352.37 195.42
  Q 355.66 198.88 354.44 203.84
  A 1.32 1.31 -10.0 0 1 353.87 204.65
  Q 350.78 206.68 348.30 203.63
  Q 340.41 193.97 326.65 192.40
  A 8.70 8.69 21.8 0 0 318.74 195.78
  L 318.47 196.13
  A 3.08 3.07 21.6 0 0 320.60 201.05
  Q 325.51 201.56 330.85 206.02
  Q 336.14 210.44 336.97 217.00
  C 337.53 221.38 333.38 222.29 330.66 219.61
  Q 330.01 218.97 328.18 216.27
  A 6.91 6.76 1.3 0 0 326.51 214.56
  Q 318.53 208.79 309.94 212.43
  C 304.76 214.63 302.56 218.65 303.45 224.24
  A 0.23 0.23 0.0 0 0 303.68 224.44
  L 314.39 224.44
  A 2.11 2.02 -31.5 0 1 315.26 224.63
  Q 325.35 229.34 322.42 239.08
  C 321.58 241.85 319.17 244.97 317.01 247.48
  A 1.07 1.06 40.7 0 0 317.13 248.99
  C 321.86 253.03 326.86 254.77 333.33 254.41
  Q 344.66 253.79 353.22 246.27
  C 363.08 237.60 371.93 224.09 371.52 210.26
  C 371.26 201.39 367.09 194.48 360.87 188.57
  Q 354.10 182.14 344.23 180.71
  Q 338.83 179.93 335.38 183.89
  A 0.39 0.39 0.0 0 0 335.51 184.50
  Z
  M 98.15 205.32
  L 90.46 189.11
  A 0.93 0.91 -8.2 0 0 89.75 188.59
  C 70.62 185.88 49.38 187.43 41.41 207.94
  C 36.27 221.16 32.77 236.23 28.37 253.85
  Q 20.33 286.12 15.78 306.06
  Q 14.45 311.92 13.55 318.09
  C 11.28 333.81 9.78 349.36 26.11 357.66
  Q 29.75 359.52 35.74 361.75
  A 0.38 0.37 16.9 0 0 36.23 361.49
  Q 39.62 348.32 43.61 336.34
  Q 45.32 331.22 47.10 327.83
  A 0.67 0.62 -45.0 0 0 47.12 327.26
  C 43.49 319.53 40.99 311.25 40.73 301.88
  Q 40.06 277.35 48.59 253.86
  C 56.49 232.09 72.18 207.74 98.01 205.58
  A 0.18 0.18 0.0 0 0 98.15 205.32
  Z
  M 115.84 285.05
  C 123.37 268.44 129.32 246.57 119.91 229.60
  C 114.60 220.03 102.51 213.20 91.46 216.99
  C 76.60 222.07 66.65 236.69 60.51 250.78
  Q 49.08 277.05 50.74 304.27
  Q 51.62 318.63 61.15 329.71
  Q 66.27 335.68 77.59 341.44
  C 87.50 346.48 98.82 350.05 109.98 353.27
  A 0.36 0.36 0.0 0 0 110.44 352.92
  Q 110.36 347.17 111.68 341.66
  Q 117.16 318.67 134.56 303.26
  A 0.34 0.33 34.9 0 0 134.46 302.70
  Q 122.62 297.94 105.73 291.76
  Q 101.07 290.05 99.93 288.80
  C 96.79 285.35 99.05 280.53 103.63 280.54
  A 0.80 0.71 -30.1 0 1 103.93 280.60
  L 115.48 285.20
  A 0.28 0.28 0.0 0 0 115.84 285.05
  Z
  M 128.07 223.95
  A 0.26 0.26 0.0 0 0 127.73 224.33
  C 139.79 241.96 132.57 269.88 124.57 287.89
  A 0.64 0.64 0.0 0 0 124.94 288.75
  L 133.87 291.94
  A 0.53 0.52 -68.9 0 0 134.54 291.64
  C 140.64 276.34 145.83 258.36 144.66 242.63
  C 144.06 234.62 140.53 231.19 133.80 227.24
  Q 129.10 224.48 128.07 223.95
  Z
  M 218.36 319.62
  L 224.00 325.35
  A 0.31 0.30 -44.3 0 0 224.43 325.35
  Q 273.03 277.21 297.98 252.99
  Q 306.28 244.93 312.44 237.57
  A 2.10 2.10 0.0 0 0 310.70 234.13
  L 308.79 234.24
  A 10.47 10.46 21.1 0 0 302.07 237.22
  L 218.36 319.55
  A 0.06 0.05 -49.7 0 0 218.36 319.62
  Z
  M 143.78 296.25
  Q 158.57 302.69 170.11 311.33
  A 1.81 1.81 0.0 0 0 171.36 311.67
  C 178.60 310.84 182.75 309.96 188.79 310.52
  Q 199.61 311.53 207.76 315.53
  A 0.94 0.94 0.0 0 0 208.84 315.36
  L 214.37 309.92
  A 0.26 0.26 0.0 0 0 214.07 309.50
  Q 211.69 310.76 209.75 310.63
  Q 175.90 308.27 174.53 308.17
  C 171.13 307.93 167.93 307.27 166.22 304.35
  Q 165.59 303.28 166.17 300.59
  Q 168.21 291.09 170.78 274.77
  C 171.98 267.23 177.01 268.42 183.93 268.84
  Q 200.73 269.87 212.64 270.91
  C 217.72 271.35 222.99 271.58 223.30 277.50
  A 1.39 1.23 -41.4 0 1 223.26 277.82
  L 215.97 307.66
  A 0.25 0.24 -16.8 0 0 216.39 307.88
  Q 224.09 299.72 230.90 293.35
  Q 233.18 291.23 234.75 286.81
  Q 240.61 270.30 240.09 253.00
  A 0.39 0.39 0.0 0 0 239.58 252.64
  C 231.21 255.32 221.12 256.74 212.07 256.45
  Q 181.24 255.47 154.14 239.56
  A 0.23 0.23 0.0 0 0 153.80 239.79
  Q 155.52 250.99 153.45 262.45
  Q 150.41 279.36 143.55 295.67
  A 0.45 0.44 23.6 0 0 143.78 296.25
  Z
  M 246.37 276.44
  A 0.27 0.27 0.0 0 0 246.79 276.73
  Q 249.87 274.47 250.87 270.88
  Q 254.17 259.10 254.89 246.92
  A 0.13 0.12 77.8 0 0 254.71 246.80
  L 248.68 250.05
  A 0.44 0.43 74.7 0 0 248.45 250.47
  Q 249.65 263.66 246.37 276.44
  Z
  M 262.87 261.72
  Q 263.32 261.92 265.05 259.20
  A 0.62 0.43 -14.4 0 1 265.16 259.07
  L 271.98 252.90
  A 0.44 0.44 0.0 0 0 271.84 252.16
  Q 269.71 251.37 267.91 250.56
  Q 266.12 249.75 264.11 248.67
  A 0.44 0.44 0.0 0 0 263.47 249.06
  L 263.35 258.25
  A 0.62 0.43 63.1 0 1 263.33 258.42
  Q 262.42 261.52 262.87 261.72
  Z
  M 347.58 262.03
  A 0.30 0.30 0.0 0 0 347.22 261.62
  Q 341.96 263.16 335.66 263.91
  Q 328.46 264.77 323.90 263.68
  Q 315.67 261.71 309.27 255.65
  A 0.47 0.45 -45.0 0 0 308.64 255.66
  L 298.76 265.19
  A 0.65 0.64 -34.7 0 0 298.62 265.92
  C 305.42 280.26 320.96 287.48 336.58 283.57
  Q 338.28 283.14 339.36 280.61
  Q 343.16 271.71 347.58 262.03
  Z
  M 332.00 293.87
  A 0.37 0.36 -76.3 0 0 331.68 293.33
  C 326.70 293.41 323.29 293.63 319.46 292.76
  Q 301.66 288.72 291.63 272.81
  A 0.25 0.25 0.0 0 0 291.24 272.77
  L 252.18 311.18
  A 0.56 0.55 38.9 0 0 252.28 312.05
  C 272.95 325.02 296.82 330.01 316.87 312.57
  Q 326.48 304.22 332.00 293.87
  Z
  M 212.38 281.09
  A 0.35 0.35 0.0 0 0 212.06 280.66
  L 181.93 278.89
  A 0.35 0.35 0.0 0 0 181.57 279.15
  L 177.12 297.72
  A 0.35 0.35 0.0 0 0 177.44 298.15
  L 207.57 299.93
  A 0.35 0.35 0.0 0 0 207.93 299.66
  L 212.38 281.09
  Z
  M 218.70 355.70
  A 0.37 0.37 0.0 0 0 219.39 355.73
  C 224.42 344.82 220.06 335.68 210.93 328.60
  C 198.98 319.34 185.32 318.22 170.51 321.24
  Q 167.50 321.85 165.70 320.50
  Q 155.77 313.04 144.42 307.73
  A 1.24 1.23 37.5 0 0 143.11 307.90
  Q 121.20 326.11 119.36 354.94
  A 1.03 1.02 -81.6 0 0 120.14 356.00
  L 134.38 359.41
  A 0.68 0.68 0.0 0 0 135.18 358.97
  C 136.73 354.44 137.74 349.91 140.39 346.17
  C 142.84 342.71 147.18 344.44 148.03 348.19
  A 1.78 1.75 44.6 0 1 148.04 348.91
  L 145.97 359.04
  A 1.68 1.65 -44.5 0 0 145.96 359.64
  C 146.88 365.55 155.59 368.11 160.25 367.57
  C 166.16 366.89 173.03 364.48 174.95 373.08
  C 175.79 376.82 173.49 381.76 178.51 384.27
  A 2.81 2.72 58.7 0 0 179.58 384.55
  Q 185.06 384.85 187.95 380.85
  C 192.53 374.51 191.31 365.34 186.91 358.94
  C 185.79 357.32 184.89 354.69 185.79 353.24
  C 187.36 350.67 190.59 350.34 192.72 352.49
  C 198.55 358.37 200.81 367.67 200.10 375.69
  A 0.81 0.81 0.0 0 0 201.15 376.53
  C 208.03 374.40 211.13 367.54 210.23 360.77
  Q 209.00 351.50 201.46 342.78
  A 4.19 4.18 -42.2 0 1 201.75 337.01
  L 201.93 336.84
  A 4.36 4.35 44.7 0 1 207.89 336.81
  Q 214.29 342.74 216.78 350.23
  Q 217.44 352.22 218.70 355.70
  Z
  M 53.87 357.50
  A 0.50 0.50 0.0 0 0 54.58 357.25
  L 60.21 343.13
  A 0.50 0.50 0.0 0 0 60.09 342.58
  L 54.22 337.13
  A 0.50 0.50 0.0 0 0 53.40 337.34
  L 48.14 353.75
  A 0.50 0.50 0.0 0 0 48.37 354.33
  L 53.87 357.50
  Z
  M 68.71 348.32
  A 0.51 0.51 0.0 0 0 68.02 348.55
  Q 64.08 356.91 61.37 366.50
  A 2.14 2.14 0.0 0 0 62.10 368.75
  C 70.77 375.59 83.56 379.32 93.98 380.28
  Q 97.25 380.58 98.03 377.51
  Q 99.67 371.14 102.67 362.14
  A 0.70 0.70 0.0 0 0 102.18 361.24
  Q 84.08 356.57 68.71 348.32
  Z
  M 101.35 403.11
  Q 105.54 402.97 109.63 401.02
  Q 113.11 399.37 114.74 394.73
  Q 118.48 384.03 122.69 367.25
  A 0.38 0.38 0.0 0 0 122.41 366.79
  L 112.18 364.22
  A 1.37 1.36 -75.9 0 0 110.52 365.22
  L 101.09 402.79
  A 0.26 0.25 6.6 0 0 101.35 403.11
  Z
  M 243.10 401.10
  Q 228.37 391.60 210.65 383.82
  A 1.13 1.12 39.6 0 0 209.55 383.92
  Q 203.76 387.95 197.13 386.95
  A 1.49 1.47 -58.2 0 0 196.05 387.21
  Q 195.23 387.80 192.87 389.86
  C 186.94 395.03 176.93 396.54 170.65 390.92
  A 0.57 0.55 44.2 0 0 169.89 390.92
  Q 161.97 398.19 157.23 403.10
  Q 151.78 408.75 148.40 409.69
  C 140.87 411.79 136.20 406.43 132.80 400.16
  Q 130.15 395.26 132.50 390.67
  A 0.36 0.36 0.0 0 0 132.22 390.15
  L 126.66 389.53
  A 0.27 0.27 0.0 0 0 126.36 389.74
  C 123.98 399.96 120.46 407.87 109.62 411.09
  C 91.23 416.55 68.72 408.38 53.70 397.67
  C 47.75 393.43 48.64 389.21 49.68 381.78
  Q 50.84 373.42 51.85 367.72
  A 0.74 0.74 0.0 0 0 51.46 366.93
  L 46.32 364.33
  A 0.36 0.36 0.0 0 0 45.81 364.57
  Q 43.72 373.54 42.66 382.74
  Q 42.25 386.31 43.30 393.31
  Q 46.03 411.44 56.82 425.01
  Q 67.88 438.92 78.26 450.46
  A 0.49 0.48 50.8 0 0 78.89 450.53
  Q 88.13 444.17 98.95 440.69
  Q 101.35 439.92 102.15 439.39
  A 0.93 0.93 0.0 0 0 102.55 438.42
  Q 101.52 433.40 104.94 430.44
  C 114.37 422.28 129.42 422.03 140.32 426.47
  Q 141.24 426.84 145.76 428.73
  A 1.05 1.04 -47.8 0 0 146.68 428.68
  C 151.51 425.98 157.75 423.44 162.54 420.06
  Q 168.50 415.84 173.03 411.15
  C 175.61 408.46 178.51 406.09 181.56 409.25
  Q 184.50 412.27 181.86 415.60
  Q 179.70 418.33 176.84 420.83
  Q 170.30 426.53 161.93 432.38
  A 0.21 0.21 0.0 0 0 161.98 432.75
  Q 172.31 436.21 178.53 438.05
  C 185.72 440.17 192.77 441.58 199.05 445.40
  A 0.99 0.99 0.0 0 0 200.14 445.36
  Q 208.57 439.20 221.03 433.84
  A 2.32 2.31 72.3 0 0 222.37 431.24
  C 221.36 426.56 219.77 421.38 221.06 418.77
  C 225.38 410.05 233.79 404.53 243.00 401.79
  A 0.38 0.38 0.0 0 0 243.10 401.10
  Z
  M 144.32 372.75
  C 142.72 372.02 141.83 370.58 139.99 370.30
  C 138.40 370.06 136.72 370.35 135.25 369.89
  Q 134.57 369.67 132.90 369.32
  A 0.93 0.93 0.0 0 0 131.81 370.01
  L 129.64 379.06
  A 0.68 0.67 -80.5 0 0 130.22 379.89
  L 137.26 380.68
  A 1.32 1.30 -64.8 0 0 138.35 380.28
  L 144.50 373.64
  A 0.56 0.56 0.0 0 0 144.32 372.75
  Z
  M 58.25 377.16
  L 57.25 386.12
  A 4.40 4.40 0.0 0 0 58.67 389.89
  Q 60.93 391.93 64.24 393.79
  Q 76.13 400.43 90.63 402.94
  A 0.98 0.98 0.0 0 0 91.74 402.21
  L 94.71 390.41
  A 1.30 1.30 0.0 0 0 93.77 388.84
  C 81.61 385.75 70.26 382.93 59.26 376.65
  A 0.68 0.68 0.0 0 0 58.25 377.16
  Z
  M 164.32 377.91
  L 154.55 377.91
  A 1.29 1.28 -68.1 0 0 153.62 378.31
  L 144.17 388.52
  A 8.37 8.35 57.2 0 0 142.38 396.88
  L 142.68 397.78
  A 2.90 2.90 0.0 0 0 147.41 398.97
  L 164.59 382.91
  Q 164.63 382.86 164.67 382.81
  Q 165.50 381.35 164.63 378.14
  A 0.32 0.31 -6.9 0 0 164.32 377.91
  Z
  M 235.53 461.29
  C 240.26 466.93 259.61 466.89 265.33 462.43
  A 4.30 4.24 -10.9 0 0 266.80 460.29
  C 270.05 449.58 271.44 435.61 266.77 425.46
  C 264.55 420.62 258.07 409.56 252.23 409.88
  Q 241.01 410.51 233.42 417.81
  C 227.76 423.26 230.08 427.98 232.34 434.80
  C 234.85 442.33 235.09 451.02 234.80 459.17
  A 3.14 3.14 0.0 0 0 235.53 461.29
  Z
  M 109.89 478.12
  C 109.27 481.34 112.00 482.76 114.57 483.93
  Q 127.62 489.87 141.66 485.48
  A 3.23 3.23 0.0 0 0 143.75 483.47
  Q 148.56 469.79 149.23 456.01
  C 149.62 448.00 147.75 440.52 140.04 436.69
  C 131.65 432.52 119.65 431.58 111.77 437.51
  Q 109.71 439.07 110.20 441.05
  Q 113.41 453.89 111.78 466.07
  Q 110.78 473.54 109.89 478.12
  Z
  M 157.81 441.51
  A 0.73 0.73 0.0 0 0 156.88 442.51
  C 159.93 448.88 159.48 457.72 158.40 464.50
  Q 155.86 480.40 148.66 496.90
  Q 140.72 515.11 131.05 534.89
  A 0.71 0.71 0.0 0 0 131.43 535.87
  C 139.69 539.03 147.29 544.81 151.18 552.79
  Q 152.29 555.05 154.13 560.36
  A 0.89 0.88 78.7 0 0 155.02 560.96
  L 172.24 559.96
  A 0.84 0.83 87.8 0 0 173.02 559.11
  Q 172.94 552.80 174.11 545.09
  C 176.88 526.71 181.25 509.68 187.47 490.15
  Q 192.11 475.56 197.80 459.24
  A 2.30 2.25 51.0 0 0 197.90 458.17
  C 197.35 454.22 192.66 452.70 188.98 451.24
  Q 185.89 450.02 182.72 449.18
  Q 172.66 446.53 160.98 442.87
  C 160.07 442.58 159.07 442.01 157.81 441.51
  Z
  M 262.94 473.01
  C 252.89 475.14 240.21 474.93 231.22 470.19
  Q 227.86 468.42 225.94 464.12
  A 4.08 4.03 -56.0 0 1 225.59 462.25
  Q 226.09 452.03 224.64 442.59
  A 0.35 0.35 0.0 0 0 224.16 442.32
  Q 214.56 446.12 206.71 452.16
  A 0.85 0.85 0.0 0 0 206.45 453.19
  C 209.61 460.06 203.44 473.73 200.43 481.54
  A 0.83 0.81 -62.7 0 0 200.73 482.51
  Q 203.45 484.33 208.06 485.71
  Q 231.56 492.78 256.07 490.21
  A 2.45 2.44 -83.9 0 0 258.15 488.52
  L 263.07 473.16
  A 0.12 0.11 -88.0 0 0 262.94 473.01
  Z
  M 102.66 448.77
  Q 94.46 451.07 85.06 457.08
  Q 83.23 458.25 82.32 459.13
  A 1.61 1.58 -21.2 0 0 81.84 460.19
  L 81.55 465.06
  A 0.97 0.96 13.6 0 0 82.13 466.00
  Q 90.87 469.85 100.63 470.95
  A 0.59 0.59 0.0 0 0 101.27 470.50
  Q 103.81 459.20 103.33 449.26
  A 0.53 0.53 0.0 0 0 102.66 448.77
  Z
  M 137.93 495.58
  Q 122.20 497.87 108.62 490.68
  C 104.03 488.25 101.09 485.19 100.31 480.22
  A 0.65 0.65 0.0 0 0 99.72 479.67
  Q 88.77 478.98 78.99 474.67
  A 0.41 0.40 -66.8 0 0 78.45 474.89
  L 71.38 492.65
  A 1.21 1.20 33.0 0 0 71.67 493.98
  Q 75.32 497.44 78.51 499.03
  Q 93.85 506.70 111.66 509.12
  Q 123.31 510.70 131.60 509.25
  A 0.80 0.78 -81.2 0 0 132.16 508.83
  L 138.48 496.35
  A 0.54 0.53 -80.8 0 0 137.93 495.58
  Z
  M 253.17 500.74
  Q 224.22 503.10 197.51 492.49
  A 0.49 0.49 0.0 0 0 196.86 492.80
  C 191.99 508.71 186.94 526.23 184.27 543.37
  A 1.33 1.33 0.0 0 0 184.97 544.76
  Q 189.10 546.93 194.48 548.30
  Q 212.40 552.85 233.75 553.76
  Q 254.83 554.67 270.52 553.71
  Q 279.11 553.19 284.34 552.41
  A 0.81 0.81 0.0 0 0 285.01 551.43
  C 282.34 539.02 271.39 530.11 258.95 527.96
  Q 246.87 525.88 233.66 529.90
  C 225.50 532.38 224.08 523.34 230.75 520.92
  Q 237.86 518.34 246.14 517.89
  A 2.14 2.13 8.4 0 0 248.05 516.48
  L 253.51 501.18
  A 0.33 0.33 0.0 0 0 253.17 500.74
  Z
  M 126.75 520.28
  Q 115.91 520.67 106.15 518.78
  C 91.19 515.88 77.89 511.36 65.51 502.79
  A 0.43 0.42 -61.8 0 0 64.87 502.99
  Q 55.12 528.30 49.07 553.11
  A 2.00 1.99 -69.5 0 0 50.08 555.34
  Q 55.39 558.14 61.18 560.07
  C 78.14 565.70 95.49 569.23 113.84 569.24
  Q 129.78 569.25 140.52 567.76
  Q 143.39 567.36 144.64 567.02
  A 0.78 0.78 0.0 0 0 145.22 566.18
  C 143.71 553.01 134.01 544.17 120.75 543.40
  Q 110.21 542.79 98.82 545.74
  C 92.98 547.25 90.55 540.67 95.46 537.44
  Q 97.72 535.94 102.42 535.17
  Q 110.82 533.78 119.90 533.96
  A 1.06 1.06 0.0 0 0 120.88 533.37
  L 127.17 520.94
  A 0.45 0.45 0.0 0 0 126.75 520.28
  Z
  M 284.19 559.41
  Q 268.65 562.34 247.51 562.23
  Q 224.06 562.11 203.61 558.41
  Q 192.41 556.37 184.10 553.25
  A 1.16 1.15 -78.1 0 0 182.55 554.27
  L 182.23 559.58
  A 2.23 2.23 0.0 0 0 183.81 561.84
  Q 206.19 568.53 228.26 569.88
  C 244.01 570.84 261.82 571.22 277.01 568.80
  Q 279.34 568.43 282.77 566.94
  A 1.59 1.58 -5.4 0 0 283.68 565.85
  L 285.02 560.28
  A 0.72 0.71 -88.7 0 0 284.19 559.41
  Z
  M 47.55 562.52
  L 47.23 567.93
  A 2.08 2.08 0.0 0 0 48.29 569.87
  Q 52.14 572.02 57.98 574.26
  Q 93.99 588.05 131.75 584.78
  Q 137.20 584.31 143.12 582.14
  A 2.63 2.62 81.7 0 0 144.84 579.82
  L 145.09 575.59
  A 1.07 1.07 0.0 0 0 143.77 574.48
  Q 137.24 576.06 126.53 576.59
  Q 96.74 578.07 71.01 571.06
  Q 57.98 567.52 48.70 561.92
  A 0.76 0.75 17.2 0 0 47.55 562.52
  Z
  M 200.38 575.99
  Q 189.70 573.97 180.03 570.31
  A 5.67 5.59 53.4 0 0 177.70 569.95
  L 155.70 571.24
  A 0.74 0.74 0.0 0 0 155.01 571.93
  L 154.63 578.36
  A 0.54 0.53 -89.5 0 0 155.19 578.93
  L 200.36 576.29
  A 0.15 0.15 0.0 0 0 200.38 575.99
  Z
  M 287.02 575.13
  Q 278.62 578.98 269.75 579.49
  Q 263.37 579.86 229.25 583.07
  Q 189.66 586.80 151.96 588.90
  A 10.24 10.12 -57.8 0 0 148.57 589.69
  C 143.15 591.96 137.71 593.75 131.38 594.49
  Q 120.99 595.71 110.00 594.97
  C 87.99 593.49 66.96 589.21 47.04 579.81
  C 44.66 578.68 43.16 578.55 41.02 579.52
  C 38.22 580.77 38.41 586.04 38.39 589.41
  Q 38.38 592.59 39.63 593.87
  Q 41.36 595.62 43.93 595.90
  Q 93.78 601.22 135.02 605.85
  Q 141.92 606.63 154.00 605.79
  Q 232.43 600.31 282.17 595.64
  Q 285.74 595.30 288.10 594.68
  A 3.29 3.29 0.0 0 0 290.52 591.90
  Q 291.06 587.28 290.66 581.57
  C 290.52 579.62 290.75 577.96 289.79 576.09
  A 2.12 2.11 64.0 0 0 287.02 575.13
  Z
  M 273.43 606.03
  L 267.42 607.45
  A 1.69 1.69 0.0 0 0 266.16 609.48
  L 287.28 698.80
  A 4.97 4.36 76.7 0 0 292.66 702.64
  L 293.48 702.44
  A 4.97 4.36 76.7 0 0 296.58 696.60
  L 275.47 607.29
  A 1.69 1.69 0.0 0 0 273.43 606.03
  Z
  M 63.74 608.59
  L 57.31 607.02
  A 1.31 1.31 0.0 0 0 55.73 607.98
  L 34.10 696.69
  A 4.62 3.58 -76.3 0 0 36.48 702.03
  L 38.51 702.52
  A 4.62 3.58 -76.3 0 0 43.08 698.88
  L 64.70 610.17
  A 1.31 1.31 0.0 0 0 63.74 608.59
  Z
  M 198.98 612.59
  L 198.98 696.51
  A 0.57 0.57 0.0 0 0 199.56 697.08
  C 227.43 696.82 251.03 696.61 275.77 699.15
  Q 276.69 699.25 277.03 698.42
  Q 277.20 698.00 277.09 697.53
  Q 261.87 632.38 258.23 617.01
  Q 257.14 612.40 256.97 609.48
  A 1.23 1.21 -73.3 0 0 256.49 608.57
  Q 255.28 607.64 253.27 608.02
  C 247.57 609.09 242.56 608.94 236.99 609.41
  Q 214.26 611.30 211.94 611.50
  Q 204.19 612.16 199.53 612.06
  A 0.53 0.53 0.0 0 0 198.98 612.59
  Z
  M 130.02 696.37
  C 130.01 690.74 130.01 687.96 130.45 683.19
  C 130.82 679.20 130.69 676.28 130.87 673.28
  Q 131.79 658.31 133.08 628.18
  C 133.24 624.28 133.93 620.50 134.14 617.35
  A 1.59 1.58 5.1 0 0 132.73 615.67
  L 78.47 609.57
  A 6.20 5.97 -33.6 0 1 77.43 609.38
  L 76.46 609.11
  A 1.64 1.63 -75.4 0 0 74.44 610.30
  L 53.31 698.58
  A 0.35 0.35 0.0 0 0 53.64 699.01
  Q 61.34 699.07 71.93 698.22
  C 78.63 697.68 82.64 697.68 88.52 697.28
  Q 92.70 696.99 100.99 696.99
  Q 122.88 697.02 129.37 697.02
  A 0.65 0.65 0.0 0 0 130.02 696.37
  Z
  M 158.59 696.00
  L 176.69 696.00
  A 0.28 0.27 -88.9 0 0 176.96 695.73
  Q 177.42 664.36 176.21 634.79
  C 175.92 627.81 176.04 620.67 175.98 614.59
  A 0.61 0.61 0.0 0 0 175.37 613.98
  L 165.43 613.98
  A 1.91 1.87 28.4 0 0 164.42 614.27
  Q 163.13 615.09 161.60 615.00
  A 0.54 0.54 0.0 0 0 161.02 615.54
  Q 161.11 638.47 159.51 664.83
  C 159.03 672.79 158.88 681.74 158.87 687.92
  A 7.63 7.62 -38.3 0 1 158.68 689.52
  Q 157.82 693.26 157.95 695.40
  A 0.64 0.64 0.0 0 0 158.59 696.00
  Z
  M 151.80 616.33
  L 143.56 615.97
  A 0.59 0.59 0.0 0 0 142.95 616.54
  L 139.12 704.17
  A 4.35 4.27 2.5 0 0 143.28 708.63
  L 144.00 708.66
  A 4.35 4.27 2.5 0 0 148.53 704.59
  L 152.36 616.95
  A 0.59 0.59 0.0 0 0 151.80 616.33
  Z"
/>
<path d="
  M 121.99 128.67
  C 133.40 128.87 141.39 137.10 143.04 148.24
  Q 144.88 160.59 141.55 170.66
  C 138.53 179.78 130.73 186.35 120.98 186.18
  C 111.23 186.01 103.67 179.16 100.98 169.94
  Q 98.00 159.77 100.27 147.48
  C 102.31 136.41 110.59 128.47 121.99 128.67
  Z
  M 109.97 156.94
  C 109.80 163.00 110.93 171.93 117.47 174.67
  C 123.63 177.25 129.12 174.24 131.08 167.98
  Q 132.58 163.16 132.74 157.61
  Q 132.91 152.06 131.69 147.16
  C 130.10 140.80 124.80 137.47 118.50 139.68
  C 111.81 142.03 110.15 150.89 109.97 156.94
  Z"
/>
<path d="
  M 476.60 547.26
  C 476.11 547.24 474.45 548.46 473.44 548.64
  Q 470.58 549.15 469.39 549.89
  Q 463.02 553.80 457.49 558.19
  Q 455.13 560.06 453.82 560.20
  C 447.45 560.88 450.52 548.08 451.47 545.19
  A 1.60 1.60 0.0 0 0 449.91 543.09
  Q 443.46 543.26 439.92 541.54
  A 3.19 3.18 -46.6 0 0 436.98 541.63
  Q 431.62 544.61 425.59 544.98
  Q 424.31 545.06 416.51 543.52
  C 412.31 542.69 403.87 541.68 400.21 544.70
  Q 396.51 547.75 392.09 551.73
  Q 390.48 553.18 388.78 552.48
  C 383.80 550.42 384.63 544.48 386.34 540.06
  Q 388.01 535.76 389.61 531.39
  A 1.03 0.95 78.3 0 1 389.82 531.04
  L 393.99 526.38
  A 0.66 0.66 0.0 0 0 393.68 525.31
  Q 392.14 524.86 390.51 525.26
  Q 385.15 526.59 379.76 527.82
  Q 377.31 528.38 375.04 527.59
  A 1.31 1.27 89.2 0 1 374.25 526.80
  C 372.26 521.04 374.78 518.61 378.84 514.32
  A 4.19 3.99 4.4 0 1 379.65 513.66
  Q 380.18 513.32 388.27 508.09
  Q 390.59 506.59 395.21 506.92
  A 0.52 0.52 0.0 0 0 395.74 506.26
  L 395.71 506.18
  A 1.09 1.08 85.7 0 0 394.83 505.42
  C 389.18 504.56 386.92 503.89 383.03 503.98
  Q 379.28 504.07 376.66 500.43
  A 1.96 1.93 35.7 0 1 376.37 498.74
  C 377.65 494.35 383.08 490.46 387.53 489.06
  Q 398.28 485.66 409.55 487.48
  Q 415.66 488.47 418.92 489.61
  C 422.28 490.79 425.04 493.10 427.57 494.44
  C 434.02 497.85 437.06 504.11 441.71 508.94
  A 5.02 4.99 73.0 0 0 444.38 510.37
  Q 456.34 512.60 468.77 512.07
  Q 471.33 511.95 472.22 511.67
  A 1.59 1.57 7.6 0 0 473.08 511.02
  Q 476.36 505.94 476.61 503.15
  Q 477.12 497.30 477.04 487.77
  C 476.99 480.88 482.29 471.74 486.47 465.84
  A 2.59 2.52 70.8 0 0 486.87 464.98
  Q 487.35 463.07 486.86 460.83
  A 1.33 1.33 0.0 0 0 484.86 459.99
  L 472.58 467.55
  A 0.45 0.38 -76.3 0 0 472.47 467.63
  C 469.38 470.61 464.88 472.62 462.39 474.32
  C 457.85 477.41 450.68 480.42 447.15 481.66
  Q 428.45 488.19 412.92 476.66
  C 408.92 473.69 409.54 464.40 410.12 460.24
  Q 410.46 457.86 413.68 456.83
  A 1.50 1.46 6.2 0 0 414.47 456.21
  Q 416.35 453.21 419.75 451.20
  A 1.16 1.15 54.2 0 1 421.20 451.44
  Q 424.54 455.25 423.82 458.36
  A 0.46 0.46 0.0 0 0 424.66 458.71
  Q 424.92 458.28 425.30 456.79
  A 2.44 2.34 -17.3 0 1 425.90 455.70
  Q 427.20 454.34 429.47 450.58
  Q 430.87 448.26 433.23 449.50
  A 0.96 0.93 6.4 0 1 433.71 450.08
  L 435.23 455.09
  A 0.47 0.46 -24.1 0 0 435.92 455.35
  Q 439.98 452.82 441.15 448.73
  A 1.17 1.16 7.9 0 1 442.27 447.89
  L 444.53 447.89
  A 1.44 1.43 75.6 0 1 445.79 448.64
  L 447.53 451.86
  A 0.53 0.52 47.2 0 0 448.44 451.90
  Q 452.59 445.34 449.43 438.25
  Q 447.23 433.33 444.98 430.60
  Q 444.24 429.68 444.03 429.51
  A 1.73 1.73 0.0 0 0 441.18 430.85
  Q 441.25 437.19 437.12 441.69
  A 0.55 0.55 0.0 0 1 436.27 441.64
  L 431.12 434.53
  A 0.54 0.54 0.0 0 0 430.16 434.72
  Q 429.27 438.23 428.33 441.56
  C 426.95 446.43 423.09 442.86 420.79 441.25
  A 0.60 0.57 -88.6 0 1 420.60 441.04
  L 418.05 436.31
  A 0.44 0.43 -51.1 0 0 417.25 436.40
  L 414.69 445.41
  A 0.84 0.83 -10.0 0 1 414.37 445.86
  Q 412.83 446.94 411.32 446.92
  A 0.94 0.92 68.5 0 1 410.63 446.61
  L 405.74 441.26
  A 1.49 1.41 16.8 0 1 405.46 440.77
  L 402.52 431.59
  A 1.80 1.59 -75.1 0 0 402.30 431.15
  L 397.05 423.90
  A 3.44 3.37 -68.1 0 1 396.45 422.45
  Q 394.44 410.32 398.81 399.50
  C 399.45 397.91 399.72 395.93 400.24 394.48
  Q 405.34 380.24 416.77 367.77
  Q 417.90 366.54 421.35 363.18
  Q 423.79 360.80 426.12 358.80
  Q 445.38 342.26 469.42 331.43
  Q 474.09 329.33 479.76 327.06
  Q 486.35 324.42 490.35 323.34
  C 496.46 321.68 502.28 319.24 509.50 317.88
  Q 523.10 315.33 526.08 314.90
  Q 543.32 312.39 560.24 315.58
  Q 560.99 315.72 569.34 317.71
  C 576.12 319.32 581.21 322.31 587.24 325.25
  A 7.90 7.89 -13.4 0 1 588.56 326.06
  L 595.02 331.05
  A 1.91 1.49 78.6 0 1 595.23 331.23
  L 600.51 336.71
  A 0.84 0.60 17.1 0 1 600.64 336.88
  Q 602.71 340.53 603.25 341.03
  C 605.77 343.36 606.55 347.32 607.17 349.79
  C 610.29 362.16 605.25 372.02 594.15 377.33
  C 589.62 379.49 585.04 382.01 579.87 382.95
  C 574.73 383.89 572.72 384.57 568.21 385.76
  Q 565.61 386.44 563.61 387.16
  Q 558.87 388.87 553.48 389.58
  A 1.39 1.13 24.4 0 0 553.25 389.64
  L 538.83 395.29
  A 1.65 1.30 -65.7 0 0 538.52 395.45
  Q 534.78 397.89 531.33 403.72
  C 528.15 409.11 528.84 414.88 531.23 420.30
  Q 534.38 427.43 535.17 428.91
  A 3.31 3.29 2.9 0 0 536.25 430.10
  Q 537.21 430.72 537.71 432.40
  A 0.41 0.41 0.0 0 0 538.48 432.43
  Q 540.85 426.38 545.61 421.09
  Q 551.22 414.85 559.39 409.39
  Q 562.68 407.19 565.76 405.94
  C 571.46 403.63 576.16 401.42 582.00 401.79
  C 584.75 401.96 586.08 403.65 586.86 405.81
  C 587.58 407.79 585.76 410.18 585.08 411.53
  A 3.70 3.69 83.3 0 1 584.16 412.70
  Q 582.28 414.29 581.20 415.69
  Q 576.05 422.34 570.75 431.78
  A 4.34 4.09 69.8 0 0 570.37 432.67
  Q 569.70 434.76 569.56 435.06
  Q 565.41 443.73 565.29 444.02
  Q 564.53 445.95 565.19 447.64
  A 0.80 0.80 0.0 0 0 566.49 447.92
  L 571.08 443.50
  A 0.28 0.10 -19.3 0 1 571.13 443.46
  Q 580.77 437.73 583.07 436.79
  Q 584.72 436.12 591.68 435.37
  C 595.43 434.97 598.83 436.74 597.63 440.77
  Q 596.35 445.05 593.61 448.57
  A 14.12 13.76 77.9 0 0 592.20 450.81
  L 578.94 477.01
  A 0.49 0.49 0.0 0 0 579.67 477.62
  Q 581.73 476.03 586.22 473.73
  C 589.26 472.17 596.47 470.68 600.31 472.38
  A 3.60 2.70 -79.7 0 1 601.93 475.62
  Q 601.78 478.72 600.30 481.56
  C 597.10 487.74 595.47 492.46 592.56 498.23
  Q 591.66 500.01 588.63 507.47
  A 1.71 1.69 50.6 0 0 588.54 508.44
  C 590.14 516.50 587.39 522.84 582.25 528.92
  A 0.87 0.87 0.0 0 0 582.52 530.26
  L 584.16 531.09
  A 1.08 1.06 -87.9 0 1 584.66 531.64
  Q 585.71 534.15 588.69 537.33
  C 591.55 540.38 590.39 544.42 594.00 547.32
  Q 596.11 549.02 601.60 551.11
  Q 617.02 557.00 626.92 545.28
  C 628.21 543.75 630.19 542.25 630.91 540.95
  C 635.50 532.59 635.71 520.79 634.03 511.66
  Q 633.39 508.17 630.44 497.73
  A 4.55 4.35 23.7 0 0 630.05 496.79
  Q 627.86 492.76 627.23 490.63
  Q 626.33 487.57 624.48 484.46
  Q 623.82 483.34 620.50 476.66
  C 619.17 473.96 617.31 471.82 616.36 469.17
  C 614.93 465.22 611.86 461.29 610.88 457.66
  Q 610.38 455.83 609.84 454.43
  Q 607.42 448.17 606.73 445.54
  Q 605.61 441.26 604.48 431.76
  Q 602.61 416.16 606.69 403.65
  Q 608.59 397.82 612.85 390.95
  Q 616.43 385.16 621.89 380.19
  Q 630.22 372.60 640.13 367.93
  Q 643.85 366.17 648.35 365.52
  C 653.63 364.76 658.18 364.22 661.95 366.16
  Q 663.76 367.09 664.68 369.95
  A 2.11 2.09 44.8 0 1 664.69 371.23
  C 664.01 373.48 662.93 375.98 660.28 377.12
  C 658.55 377.87 657.51 379.83 656.09 381.14
  Q 653.11 383.87 652.53 384.44
  A 5.29 5.11 -7.2 0 0 651.75 385.41
  Q 649.95 388.30 648.10 389.86
  A 1.38 1.36 75.1 0 0 647.62 390.71
  Q 647.44 391.78 646.63 393.15
  C 644.56 396.62 643.05 399.43 641.89 403.72
  Q 640.40 409.21 639.72 412.45
  Q 638.91 416.28 639.33 423.95
  Q 639.37 424.75 641.65 434.74
  C 642.98 440.58 645.51 444.50 648.36 450.64
  A 8.59 8.43 -75.4 0 0 649.06 451.86
  Q 650.69 454.18 651.54 455.92
  Q 652.87 458.65 653.52 459.59
  Q 656.06 463.27 660.90 471.61
  Q 666.16 480.69 670.45 490.95
  Q 672.43 495.68 673.75 501.46
  Q 675.99 511.22 676.11 512.22
  Q 677.98 526.52 676.38 535.97
  Q 675.89 538.85 673.94 547.01
  Q 672.53 552.90 670.22 557.68
  Q 661.69 575.35 645.59 586.81
  C 641.35 589.82 635.32 592.70 631.55 594.63
  A 10.31 10.04 24.6 0 1 629.11 595.50
  Q 620.96 597.24 617.20 597.94
  Q 602.90 600.58 589.25 596.29
  C 584.41 594.77 583.42 596.94 580.42 600.76
  Q 573.81 609.18 563.59 617.60
  Q 560.87 619.85 558.48 623.05
  A 0.55 0.54 28.9 0 0 558.72 623.88
  Q 565.43 626.47 574.86 631.19
  C 578.05 632.79 581.89 635.73 583.71 637.61
  Q 588.62 642.69 588.36 650.49
  Q 588.16 656.38 586.74 663.06
  C 585.21 670.26 584.69 677.52 583.56 684.75
  C 583.09 687.74 583.12 691.45 584.17 695.35
  Q 585.38 699.85 584.97 706.64
  A 1.36 1.35 2.2 0 0 586.30 708.07
  C 591.40 708.18 596.92 709.45 600.82 713.11
  A 0.46 0.45 -35.4 0 1 600.69 713.86
  Q 592.39 717.44 582.44 718.41
  A 3.37 3.20 29.1 0 0 581.43 718.67
  Q 579.15 719.69 578.67 719.71
  Q 563.87 720.22 548.75 723.49
  Q 543.98 724.52 536.34 726.20
  C 532.83 726.97 530.44 728.02 527.13 729.27
  A 3.47 3.46 53.8 0 1 523.78 728.75
  Q 519.81 725.64 521.63 720.92
  A 0.84 0.83 -85.3 0 0 520.68 719.80
  Q 517.83 720.42 515.23 721.48
  Q 511.85 722.84 507.24 723.74
  C 502.54 724.64 500.06 722.57 499.98 717.89
  A 0.86 0.86 0.0 0 0 499.17 717.04
  L 454.71 714.42
  A 3.55 3.54 38.8 0 0 453.59 714.54
  Q 451.22 715.21 445.08 716.40
  Q 441.50 717.09 439.87 714.57
  Q 438.13 711.88 439.82 709.34
  A 0.96 0.96 0.0 0 0 438.65 707.93
  Q 433.16 710.26 427.25 711.03
  C 425.32 711.28 422.58 711.10 421.58 708.93
  Q 420.31 706.17 421.75 703.49
  Q 424.97 697.49 425.35 696.71
  A 4.65 4.19 79.9 0 1 425.88 695.86
  C 430.45 690.19 436.43 685.38 443.65 682.60
  C 450.47 679.97 457.20 677.67 464.77 677.96
  Q 468.96 678.11 471.16 675.17
  Q 475.52 669.32 476.40 666.65
  Q 477.73 662.64 479.51 658.55
  Q 480.29 656.76 480.64 654.87
  A 3.07 3.06 26.7 0 0 479.71 652.06
  L 468.54 641.71
  A 5.92 5.88 -83.1 0 1 467.38 640.22
  Q 466.15 637.98 464.39 636.35
  A 4.97 4.60 7.3 0 1 463.57 635.37
  Q 459.36 628.72 457.74 624.28
  C 456.31 620.33 457.88 616.22 459.65 611.67
  Q 461.63 606.57 464.06 603.23
  Q 467.04 599.14 467.38 597.92
  A 1.96 1.90 -9.6 0 1 468.21 596.79
  Q 469.40 596.02 472.33 591.34
  Q 474.47 587.90 486.27 574.09
  C 489.43 570.39 492.65 569.16 493.13 563.57
  A 0.42 0.42 0.0 0 0 492.43 563.23
  Q 489.93 565.56 487.99 566.34
  A 2.71 2.55 11.2 0 0 487.19 566.84
  Q 479.69 573.58 478.13 575.42
  Q 474.78 579.38 471.69 580.73
  A 1.85 1.83 34.0 0 1 470.85 580.89
  C 465.90 580.66 466.86 573.89 466.78 569.50
  C 466.72 566.03 467.04 563.69 468.65 560.56
  Q 471.36 555.29 473.39 551.40
  A 1.87 1.59 -13.9 0 1 473.67 551.01
  L 476.77 547.66
  A 0.24 0.24 0.0 0 0 476.60 547.26
  Z
  M 406.08 422.71
  C 412.64 427.24 426.18 424.15 433.47 421.94
  Q 434.27 421.70 441.32 419.35
  Q 446.42 417.64 448.97 416.23
  C 453.17 413.91 456.99 412.57 460.90 410.03
  Q 469.04 404.74 475.78 398.35
  C 478.34 395.93 480.45 394.72 482.40 392.74
  C 484.86 390.24 488.76 388.09 491.33 385.88
  Q 493.38 384.12 495.27 383.27
  C 498.75 381.69 502.50 378.33 506.51 376.64
  C 509.97 375.17 513.88 372.13 517.84 371.03
  Q 519.12 370.68 525.27 368.13
  Q 528.13 366.95 532.90 365.83
  Q 541.37 363.86 545.19 362.97
  Q 561.11 359.28 576.30 362.45
  Q 582.37 363.72 587.27 364.71
  C 595.00 366.27 602.48 362.31 599.60 353.35
  Q 596.52 343.78 588.13 336.64
  Q 587.22 335.86 580.18 331.30
  A 6.78 6.71 71.8 0 0 578.89 330.64
  C 570.88 327.51 564.42 324.44 555.49 323.74
  Q 538.75 322.44 522.77 324.01
  Q 519.98 324.28 517.38 324.86
  C 511.02 326.26 504.90 328.24 498.47 329.80
  Q 494.33 330.81 490.39 332.33
  C 483.21 335.11 479.24 336.25 473.39 339.23
  Q 472.17 339.85 464.52 343.56
  Q 455.31 348.04 442.94 356.70
  C 430.11 365.69 420.03 375.74 411.87 389.45
  C 410.02 392.55 409.32 395.47 407.75 399.36
  C 404.87 406.45 404.23 413.41 405.16 421.17
  A 2.17 2.16 -75.9 0 0 406.08 422.71
  Z
  M 584.36 372.00
  Q 574.64 370.02 564.00 369.37
  Q 560.23 369.13 557.86 368.97
  A 1.19 1.19 0.0 0 0 556.67 370.59
  L 559.48 377.75
  A 1.81 1.80 -21.2 0 0 561.82 378.77
  Q 564.99 377.54 567.05 377.32
  Q 576.05 376.32 584.42 372.54
  A 0.29 0.28 38.8 0 0 584.36 372.00
  Z
  M 542.94 384.50
  L 551.50 381.91
  A 1.03 1.02 70.9 0 0 552.15 380.56
  L 548.52 371.28
  A 0.59 0.59 0.0 0 0 547.93 370.91
  L 540.65 371.33
  A 1.98 1.98 0.0 0 0 538.87 373.88
  L 541.92 383.95
  A 0.82 0.81 -16.6 0 0 542.94 384.50
  Z
  M 651.99 372.53
  Q 650.27 372.72 648.13 373.65
  Q 641.57 376.50 638.43 378.04
  A 1.81 1.69 -73.5 0 0 638.09 378.24
  L 629.94 384.14
  A 3.94 3.66 2.1 0 0 629.51 384.51
  L 622.21 391.67
  A 0.67 0.67 0.0 0 0 622.67 392.82
  Q 628.68 392.92 635.54 394.95
  A 1.10 1.10 0.0 0 0 636.95 394.00
  Q 637.10 392.52 637.83 391.32
  Q 642.57 383.49 647.45 377.85
  A 4.80 4.27 -1.1 0 1 648.12 377.23
  Q 650.83 375.18 652.35 373.16
  A 0.40 0.39 15.5 0 0 651.99 372.53
  Z
  M 519.67 380.27
  L 521.91 383.36
  A 2.00 1.86 -74.9 0 1 522.19 383.89
  L 525.46 393.02
  A 0.69 0.68 59.6 0 0 526.55 393.31
  Q 530.37 389.98 534.08 388.51
  A 0.93 0.93 0.0 0 0 534.67 387.54
  C 534.14 382.57 533.42 379.23 530.88 375.72
  A 0.71 0.70 63.1 0 0 530.10 375.46
  L 520.30 378.43
  A 1.19 1.19 0.0 0 0 519.67 380.27
  Z
  M 512.13 404.05
  Q 513.68 401.65 516.29 400.32
  C 520.04 398.41 517.72 391.99 516.05 389.41
  Q 514.09 386.40 512.89 383.80
  A 1.65 1.65 0.0 0 0 510.42 383.15
  L 503.73 388.00
  A 1.68 1.68 0.0 0 0 503.36 390.37
  L 506.95 395.18
  A 3.87 3.83 13.7 0 1 507.30 395.75
  L 511.52 404.02
  A 0.35 0.35 0.0 0 0 512.13 404.05
  Z
  M 417.76 466.93
  C 418.10 471.17 421.03 472.14 424.93 473.45
  Q 432.07 475.84 439.11 474.29
  Q 448.58 472.19 451.12 470.82
  Q 463.07 464.37 473.04 457.38
  C 478.44 453.59 481.76 452.90 488.00 451.79
  C 490.33 451.37 491.63 449.35 491.89 446.92
  Q 493.07 435.98 497.87 424.47
  Q 499.30 421.03 501.16 418.34
  Q 502.41 416.54 504.64 412.04
  A 2.50 2.50 0.0 0 0 504.79 410.20
  L 502.90 403.95
  A 2.77 2.71 20.0 0 0 502.55 403.22
  L 497.03 395.18
  A 2.59 2.59 0.0 0 0 493.61 394.40
  Q 491.94 395.34 490.79 396.30
  Q 482.10 403.50 472.46 412.13
  A 2.90 2.89 -23.4 0 0 471.50 414.55
  C 471.93 419.34 474.03 424.89 474.72 427.78
  Q 475.53 431.20 474.88 437.68
  A 5.95 5.80 60.2 0 1 474.42 439.46
  L 471.59 446.03
  A 3.58 3.45 80.8 0 1 470.77 447.21
  L 465.18 452.55
  A 1.89 1.83 -79.6 0 1 464.76 452.85
  C 460.04 455.54 456.23 458.62 451.71 460.34
  C 448.13 461.71 441.37 465.53 436.18 465.89
  Q 428.05 466.45 418.51 466.14
  A 0.74 0.73 88.6 0 0 417.76 466.93
  Z
  M 611.92 420.85
  Q 620.55 417.83 630.71 418.93
  A 0.78 0.78 0.0 0 0 631.57 418.20
  L 632.53 401.90
  A 0.93 0.92 1.7 0 0 631.60 400.92
  L 617.91 400.92
  A 2.03 2.02 11.3 0 0 616.04 402.16
  Q 612.40 410.94 611.53 420.54
  A 0.30 0.29 -6.4 0 0 611.92 420.85
  Z
  M 461.44 545.36
  Q 466.19 542.85 473.33 540.09
  Q 480.54 537.30 486.92 537.30
  C 489.86 537.29 491.78 537.94 492.89 540.86
  C 493.73 543.09 492.03 545.59 490.35 546.65
  Q 483.77 550.81 479.09 557.64
  C 477.07 560.61 475.95 564.50 475.02 566.75
  A 0.25 0.24 78.8 0 0 475.42 567.02
  Q 480.21 562.11 487.10 557.21
  Q 490.40 554.86 493.28 553.92
  C 496.35 552.91 507.99 547.51 504.78 556.79
  Q 502.94 562.11 501.65 564.83
  C 499.10 570.18 498.18 575.55 498.33 580.56
  A 0.34 0.34 0.0 0 0 498.96 580.74
  Q 501.77 576.55 503.47 571.21
  Q 504.52 567.90 506.69 566.40
  Q 512.24 562.55 518.68 559.43
  Q 521.78 557.94 523.11 554.59
  Q 525.15 549.45 526.63 544.03
  A 1.06 1.06 0.0 0 1 528.03 543.32
  Q 528.26 543.41 528.39 543.63
  Q 529.85 546.20 531.22 548.40
  A 1.35 1.35 0.0 0 0 532.86 548.95
  Q 537.15 547.30 547.53 543.10
  C 552.48 541.10 558.96 537.57 562.68 535.44
  Q 567.58 532.64 574.04 526.55
  C 577.65 523.15 580.53 519.72 580.61 515.29
  C 580.70 510.35 580.23 505.46 578.14 500.17
  Q 575.75 494.14 575.03 491.25
  C 573.91 486.77 571.13 482.70 570.26 478.49
  Q 569.68 475.72 567.48 471.64
  Q 566.21 469.27 564.57 464.75
  C 563.50 461.83 561.84 459.52 560.73 457.09
  C 556.81 448.55 543.21 439.53 534.09 446.15
  Q 532.95 446.97 530.64 448.23
  A 3.00 2.98 -1.2 0 0 529.39 449.52
  Q 526.95 454.37 525.21 458.98
  Q 524.68 460.37 522.88 461.16
  A 1.25 1.23 -44.1 0 1 521.83 461.15
  Q 518.46 459.60 518.13 456.63
  C 517.54 451.36 521.22 447.60 523.93 443.46
  A 1.12 1.12 0.0 0 1 524.26 443.13
  L 530.81 438.57
  A 0.61 0.60 -29.7 0 0 531.02 437.83
  L 527.98 431.15
  A 5.46 5.26 -75.9 0 0 527.48 430.28
  Q 520.28 420.25 522.42 406.28
  A 0.33 0.33 0.0 0 0 522.00 405.91
  Q 520.21 406.41 518.86 407.88
  Q 514.61 412.52 511.23 416.97
  Q 508.82 420.14 507.40 422.98
  Q 504.99 427.81 504.22 429.37
  A 9.86 9.84 63.8 0 0 503.32 432.02
  C 501.48 441.84 500.44 447.31 497.54 455.18
  A 1.02 0.99 76.4 0 1 497.32 455.55
  L 494.59 458.50
  A 1.44 1.44 0.0 0 0 494.34 460.09
  L 499.09 470.20
  A 1.99 1.69 18.5 0 0 499.32 470.58
  C 501.39 473.43 504.18 478.41 498.96 479.46
  A 1.50 1.48 52.3 0 1 498.00 479.33
  C 494.90 477.83 493.74 475.56 491.87 473.34
  A 0.38 0.38 0.0 0 0 491.26 473.38
  Q 489.70 475.86 488.49 477.94
  C 486.83 480.82 486.01 485.52 485.35 489.01
  Q 484.70 492.41 485.82 498.24
  C 486.74 502.98 486.93 506.22 488.56 509.29
  Q 489.82 511.68 491.36 513.61
  A 0.17 0.16 17.1 0 0 491.65 513.46
  C 490.71 510.44 488.42 506.21 487.79 502.74
  Q 486.58 495.96 487.64 491.10
  Q 488.08 489.03 490.77 488.84
  Q 493.77 488.63 494.05 491.50
  Q 494.88 499.83 496.61 505.32
  Q 498.35 510.86 501.79 515.33
  Q 505.77 520.50 509.57 523.64
  Q 514.36 527.59 519.63 524.87
  C 523.54 522.85 525.61 521.20 529.66 519.33
  C 533.14 517.72 537.51 514.75 541.96 512.64
  C 544.21 511.57 547.53 509.36 548.72 507.25
  A 1.41 1.40 -44.2 0 0 548.74 505.90
  L 532.38 475.53
  A 4.51 4.50 -37.9 0 1 533.04 470.33
  L 533.45 469.89
  A 3.07 3.07 0.0 0 1 538.35 470.42
  Q 541.40 475.65 543.53 480.41
  Q 545.50 484.83 546.40 486.36
  Q 548.74 490.36 549.40 492.32
  A 5.51 5.42 17.2 0 0 550.29 493.97
  C 553.74 498.37 555.96 504.16 555.15 509.66
  C 554.41 514.63 550.67 516.86 546.41 519.06
  C 542.38 521.15 539.86 523.31 535.84 525.09
  Q 532.07 526.75 527.90 529.58
  A 8.55 8.24 16.3 0 1 526.12 530.51
  Q 518.25 533.51 516.70 533.71
  C 511.48 534.37 505.55 533.52 500.77 532.21
  C 494.83 530.57 486.81 530.73 481.74 531.18
  Q 478.97 531.42 474.57 533.56
  Q 466.41 537.54 460.81 544.60
  A 0.50 0.50 0.0 0 0 461.44 545.36
  Z
  M 574.64 411.71
  L 568.15 413.49
  A 3.82 3.50 19.2 0 0 567.20 413.90
  C 558.32 419.34 550.18 425.69 545.61 435.07
  A 0.51 0.51 0.0 0 0 545.98 435.79
  Q 552.38 436.93 557.08 441.28
  A 1.05 1.04 30.4 0 0 558.79 440.84
  C 560.09 436.84 560.31 434.81 562.29 431.04
  Q 567.54 421.03 571.90 415.16
  Q 573.19 413.42 574.87 412.20
  A 0.28 0.27 -70.6 0 0 574.64 411.71
  Z
  M 617.08 449.99
  Q 625.56 443.73 634.83 442.49
  A 0.54 0.53 76.3 0 0 635.26 441.78
  C 633.05 435.73 632.13 434.05 631.86 428.24
  Q 631.77 426.35 629.61 426.07
  Q 620.30 424.88 612.29 430.42
  A 0.79 0.77 -24.5 0 0 611.97 431.25
  L 616.37 449.73
  A 0.46 0.45 -24.8 0 0 617.08 449.99
  Z
  M 574.78 467.36
  L 579.66 458.58
  A 2.14 1.81 -26.3 0 0 579.82 458.21
  Q 580.69 455.50 580.93 455.15
  Q 584.35 450.43 586.58 444.56
  A 0.19 0.19 0.0 0 0 586.30 444.33
  Q 582.90 446.52 578.79 448.27
  Q 576.96 449.05 573.10 452.87
  A 0.77 0.57 -2.9 0 1 572.93 453.01
  L 571.13 454.12
  A 3.06 3.05 67.0 0 0 569.78 457.48
  Q 571.16 462.85 574.22 467.38
  A 0.33 0.33 0.0 0 0 574.78 467.36
  Z
  M 630.95 476.06
  C 632.53 474.20 633.62 473.24 635.91 472.30
  Q 642.53 469.59 648.65 468.35
  A 0.36 0.36 0.0 0 0 648.89 467.81
  C 647.15 464.90 646.37 462.79 644.33 459.82
  Q 642.98 457.84 641.27 454.34
  Q 639.30 450.32 635.02 450.93
  Q 629.61 451.71 623.60 454.54
  Q 621.67 455.45 620.77 457.61
  A 1.06 1.06 0.0 0 0 620.75 458.38
  L 622.44 463.02
  A 4.11 3.95 -73.0 0 0 622.85 463.83
  Q 626.58 469.42 629.45 475.84
  A 0.90 0.89 53.2 0 0 630.95 476.06
  Z
  M 663.58 497.02
  Q 662.51 492.59 662.13 491.90
  Q 659.87 487.90 656.00 479.76
  Q 653.78 475.09 648.43 476.34
  C 641.20 478.03 638.45 478.22 633.52 482.55
  A 0.88 0.86 -31.7 0 0 633.28 483.53
  C 634.19 485.81 635.73 488.08 636.62 490.94
  Q 638.24 496.16 640.24 501.22
  A 0.78 0.77 71.3 0 0 641.16 501.68
  Q 643.39 501.06 646.48 499.78
  C 651.67 497.63 657.04 497.15 663.04 497.65
  A 0.52 0.51 -4.5 0 0 663.58 497.02
  Z
  M 591.46 481.20
  L 581.68 485.03
  A 1.33 1.32 -23.4 0 0 580.96 486.83
  L 584.72 494.76
  A 0.19 0.19 0.0 0 0 585.06 494.77
  C 587.47 490.27 589.97 486.67 591.70 481.42
  A 0.18 0.18 0.0 0 0 591.46 481.20
  Z
  M 394.44 538.55
  Q 396.79 537.49 400.89 535.42
  C 410.87 530.38 418.43 537.97 428.77 536.84
  A 3.42 3.40 -70.5 0 0 430.81 535.86
  C 433.12 533.56 434.67 530.89 438.11 532.12
  Q 447.23 535.36 455.43 536.86
  A 2.32 2.29 27.7 0 0 457.47 536.24
  L 461.91 531.87
  A 2.26 1.98 -75.3 0 1 462.53 531.45
  C 465.97 529.88 469.96 525.97 474.54 525.05
  Q 482.48 523.45 486.33 523.09
  A 1.01 1.00 69.5 0 0 487.05 521.50
  L 481.77 514.22
  A 0.35 0.35 0.0 0 0 481.23 514.19
  C 478.87 516.90 477.85 518.84 473.83 519.04
  Q 467.58 519.36 451.44 519.17
  C 444.67 519.08 441.22 519.23 437.03 515.03
  C 433.64 511.65 428.87 504.85 423.40 501.36
  Q 421.44 500.12 413.51 496.34
  A 10.13 10.05 61.3 0 0 410.58 495.47
  Q 400.51 494.15 391.13 495.70
  A 0.35 0.35 0.0 0 0 391.01 496.34
  Q 391.48 496.62 392.03 496.72
  Q 401.61 498.61 409.33 501.65
  C 411.73 502.60 418.23 506.67 417.77 510.15
  C 417.35 513.37 415.03 513.24 412.04 512.89
  Q 404.85 512.06 399.08 512.77
  C 394.37 513.36 390.73 515.40 387.36 518.37
  A 0.32 0.32 0.0 0 0 387.58 518.93
  C 392.98 518.73 413.93 516.88 415.17 523.48
  Q 415.75 526.52 412.61 527.50
  Q 406.49 529.40 401.82 531.22
  A 2.36 2.21 10.6 0 0 401.05 531.71
  L 394.30 538.35
  A 0.12 0.12 0.0 0 0 394.44 538.55
  Z
  M 667.98 532.81
  Q 668.69 522.31 667.38 508.56
  A 1.69 1.69 0.0 0 0 666.07 507.08
  C 659.41 505.56 649.41 505.55 643.25 509.34
  A 2.09 2.08 -17.7 0 0 642.26 511.25
  L 643.09 525.55
  A 0.81 0.80 87.7 0 0 643.90 526.31
  C 652.58 526.26 659.09 529.08 667.34 533.18
  A 0.45 0.44 -74.8 0 0 667.98 532.81
  Z
  M 651.22 571.64
  Q 652.72 568.47 656.01 565.29
  A 5.68 5.41 -6.7 0 0 656.83 564.30
  Q 662.93 555.02 665.72 545.15
  A 2.58 2.56 35.5 0 0 665.35 542.98
  C 662.84 539.36 660.34 537.80 655.51 536.56
  C 650.71 535.32 647.59 534.48 643.71 534.74
  A 1.65 1.65 0.0 0 0 642.36 535.64
  L 635.58 549.04
  A 0.75 0.75 0.0 0 0 635.68 549.87
  Q 637.75 552.23 640.33 553.97
  A 4.53 4.30 83.3 0 1 641.05 554.57
  Q 648.11 561.76 650.86 571.61
  A 0.19 0.19 0.0 0 0 651.22 571.64
  Z
  M 533.76 718.52
  Q 546.41 714.69 548.72 714.44
  Q 565.39 712.67 575.29 711.91
  A 2.16 2.15 -88.0 0 0 577.26 710.07
  Q 577.77 706.58 576.86 702.79
  Q 573.41 688.49 576.13 674.81
  C 578.15 664.65 580.91 656.20 579.91 646.61
  Q 579.75 645.13 578.02 643.58
  Q 573.49 639.52 568.11 637.23
  C 564.17 635.55 559.24 633.15 557.08 632.35
  Q 551.48 630.27 550.22 628.17
  Q 547.94 624.37 550.19 619.99
  A 1.35 1.34 78.4 0 1 550.36 619.73
  L 554.65 614.47
  A 4.37 4.32 2.5 0 1 555.60 613.61
  C 558.59 611.64 560.09 609.33 562.75 607.52
  C 564.16 606.56 565.48 604.47 567.19 602.94
  C 570.59 599.91 574.13 595.71 578.62 589.99
  C 580.36 587.79 581.43 585.31 583.27 582.97
  A 7.31 7.06 -16.7 0 0 584.36 581.03
  Q 587.65 572.20 587.95 570.23
  Q 589.29 561.42 586.94 553.29
  Q 586.15 550.55 584.50 545.35
  A 8.82 8.71 19.6 0 0 583.46 543.19
  C 581.08 539.59 579.72 537.39 577.08 535.32
  A 0.87 0.86 -44.7 0 0 576.01 535.32
  L 568.12 541.41
  A 5.08 4.87 12.5 0 1 567.10 542.03
  C 561.99 544.45 558.32 547.14 552.72 549.11
  Q 548.95 550.44 544.22 552.79
  A 7.94 7.76 -64.1 0 1 542.60 553.37
  C 538.17 554.38 531.79 554.83 529.99 558.94
  C 528.43 562.48 525.05 565.65 521.51 567.28
  A 0.90 0.90 0.0 0 0 521.08 568.51
  Q 524.29 574.69 530.16 578.08
  Q 532.38 579.36 533.58 577.60
  Q 538.32 570.62 546.36 562.96
  A 3.28 3.26 45.6 0 1 550.92 563.02
  L 551.06 563.16
  A 3.43 3.43 0.0 0 1 551.25 567.80
  C 548.20 571.40 545.77 573.47 543.13 577.49
  Q 537.64 585.88 534.40 593.11
  Q 531.25 600.16 530.22 601.82
  A 6.54 6.31 -23.6 0 0 529.39 603.83
  C 528.24 608.95 523.63 615.43 523.05 620.99
  Q 522.56 625.66 523.11 629.60
  A 4.08 4.05 -64.3 0 0 523.64 631.13
  C 529.03 640.14 542.22 645.72 549.45 649.08
  C 555.40 651.83 563.20 655.04 561.90 662.54
  Q 561.10 667.17 560.10 673.16
  C 559.09 679.16 555.09 693.34 548.69 695.66
  C 544.76 697.08 536.92 698.25 531.59 700.03
  Q 525.60 702.03 524.69 702.21
  A 7.03 7.00 21.3 0 0 521.92 703.42
  Q 515.43 708.11 514.21 709.30
  Q 512.81 710.67 511.95 713.31
  A 0.50 0.49 2.0 0 0 512.54 713.94
  L 527.09 710.42
  A 1.41 1.38 -66.2 0 0 527.54 710.24
  Q 530.59 708.49 534.36 705.27
  Q 539.81 700.62 547.34 702.26
  Q 549.97 702.83 548.68 705.40
  C 547.75 707.25 545.00 708.19 543.01 709.19
  A 12.49 12.15 10.7 0 0 540.64 710.76
  Q 538.43 712.64 535.24 714.95
  Q 533.97 715.88 533.37 718.15
  A 0.31 0.31 0.0 0 0 533.76 718.52
  Z
  M 616.86 589.96
  Q 619.23 590.07 620.44 589.68
  Q 627.94 587.24 636.07 583.05
  Q 639.78 581.13 642.44 578.33
  A 3.52 3.50 -30.0 0 0 643.32 575.08
  L 642.01 569.59
  A 9.72 9.66 -70.8 0 0 640.19 565.80
  L 636.43 561.01
  A 5.61 5.43 -0.9 0 0 635.18 559.84
  Q 632.84 558.24 630.43 555.37
  A 1.82 1.82 0.0 0 0 627.69 555.32
  Q 623.39 560.06 616.81 560.22
  A 1.30 1.29 84.9 0 0 615.57 561.71
  Q 616.31 566.39 617.52 573.98
  Q 618.29 578.78 616.42 589.42
  A 0.46 0.46 0.0 0 0 616.86 589.96
  Z
  M 596.14 558.73
  Q 595.93 559.48 596.16 565.74
  Q 596.53 575.22 591.71 583.71
  A 1.52 1.33 -22.9 0 0 591.58 583.98
  L 590.54 586.86
  A 1.54 1.53 15.8 0 0 591.68 588.89
  Q 600.12 590.61 607.29 589.88
  A 1.78 1.77 5.4 0 0 608.81 588.63
  Q 612.77 575.57 607.66 562.87
  Q 606.88 560.93 604.75 560.53
  Q 598.50 559.39 596.83 558.44
  A 0.48 0.48 0.0 0 0 596.14 558.73
  Z
  M 451.36 706.13
  Q 454.26 705.46 460.82 703.55
  C 465.86 702.07 473.50 702.10 478.72 701.08
  Q 483.75 700.09 496.33 697.96
  A 2.85 2.85 0.0 0 0 498.69 695.28
  Q 498.95 689.57 499.00 680.77
  Q 499.01 678.03 500.84 670.95
  C 502.87 663.10 503.88 656.21 506.84 648.58
  Q 508.05 645.45 506.93 643.32
  Q 503.28 636.35 495.50 630.89
  C 491.65 628.18 488.33 624.23 490.73 619.04
  Q 492.38 615.49 495.07 613.63
  C 497.21 612.14 498.32 610.67 500.05 609.30
  Q 511.89 599.98 520.14 593.25
  C 523.30 590.67 526.85 588.80 528.96 586.28
  A 1.01 1.01 0.0 0 0 528.42 584.65
  L 525.02 583.84
  A 3.80 3.77 70.0 0 1 523.70 583.22
  C 519.78 580.30 516.99 576.47 513.69 572.02
  A 0.97 0.96 50.8 0 0 512.28 571.87
  C 510.05 573.83 508.91 575.85 508.04 579.20
  C 507.29 582.10 504.13 590.50 500.87 592.02
  C 496.91 593.87 493.11 589.53 492.45 586.03
  Q 492.14 584.45 492.02 581.34
  A 0.34 0.34 0.0 0 0 491.45 581.11
  Q 487.96 584.45 486.28 587.29
  C 485.06 589.35 483.44 590.23 482.24 592.28
  Q 481.66 593.26 479.49 596.01
  Q 475.49 601.06 470.31 608.83
  Q 466.92 613.92 466.48 617.37
  C 465.59 624.32 468.71 628.21 473.07 633.96
  Q 475.62 637.32 479.36 640.33
  C 484.31 644.31 489.60 648.81 488.99 654.53
  Q 488.81 656.26 486.74 662.88
  C 485.57 666.63 483.24 670.15 481.83 674.04
  A 9.36 9.31 73.5 0 1 480.58 676.36
  Q 478.81 678.76 476.91 681.43
  C 474.40 684.96 467.74 685.83 463.34 686.45
  C 456.46 687.43 454.00 688.29 448.14 689.67
  C 441.64 691.20 436.01 695.88 432.35 701.25
  A 0.40 0.40 0.0 0 0 432.77 701.86
  L 445.63 698.80
  A 2.98 2.87 21.3 0 0 446.47 698.45
  Q 453.31 694.12 457.80 691.69
  C 460.61 690.17 468.67 688.37 469.63 692.69
  A 2.50 2.42 72.1 0 1 468.25 695.49
  Q 459.79 699.22 451.05 705.43
  A 0.39 0.39 0.0 0 0 451.36 706.13
  Z
  M 519.97 603.30
  C 519.02 604.24 518.13 605.52 516.73 606.63
  Q 507.59 613.91 498.64 621.76
  A 0.99 0.99 0.0 0 0 498.70 623.29
  Q 500.06 624.31 501.96 625.11
  A 4.60 4.41 -14.6 0 1 502.98 625.68
  Q 508.60 629.81 512.69 637.40
  Q 516.58 644.64 513.90 651.42
  A 3.87 3.48 -34.3 0 0 513.65 652.44
  Q 513.23 656.39 510.29 666.20
  C 507.95 674.01 507.03 680.49 506.87 688.01
  Q 506.82 690.62 506.93 697.63
  C 506.95 698.71 506.28 699.20 506.08 700.16
  A 0.55 0.54 14.5 0 0 506.45 700.78
  L 510.68 702.13
  A 0.82 0.81 28.4 0 0 511.56 701.87
  C 514.82 697.87 517.37 696.99 522.70 694.37
  Q 530.73 690.43 541.09 689.34
  Q 544.22 689.01 546.68 686.55
  Q 548.08 685.16 549.22 680.83
  Q 550.80 674.79 553.33 667.06
  Q 554.05 664.84 554.13 662.45
  A 1.35 1.35 0.0 0 0 553.60 661.34
  Q 547.05 656.35 540.52 654.37
  A 3.24 2.70 -16.4 0 1 539.92 654.11
  L 529.11 647.96
  A 1.30 0.65 61.1 0 1 528.99 647.87
  C 522.47 642.67 518.73 639.53 515.36 632.01
  C 513.71 628.34 513.32 624.70 514.52 621.24
  Q 517.79 611.79 518.68 607.69
  Q 518.90 606.68 520.88 604.38
  A 0.73 0.71 -44.4 0 0 520.90 603.46
  L 520.81 603.35
  A 0.57 0.57 0.0 0 0 519.97 603.30
  Z"
/>
<path d="
  M 529.05 485.42
  C 529.61 489.04 524.68 493.13 522.24 494.38
  C 515.93 497.62 504.56 499.95 498.52 494.67
  A 1.62 1.60 21.6 0 1 497.97 493.42
  C 498.06 490.08 500.69 488.61 504.02 489.50
  C 509.75 491.04 520.14 490.35 523.76 484.94
  A 1.47 1.43 5.2 0 1 524.44 484.39
  Q 526.85 483.39 528.48 484.51
  A 1.36 1.35 -77.4 0 1 529.05 485.42
  Z"
/>
<path d="
  M 533.69 496.80
  A 1.72 1.72 0.0 0 1 536.19 496.63
  L 536.65 497.06
  A 2.46 2.46 0.0 0 1 537.05 500.20
  L 533.50 505.68
  A 1.48 1.45 89.4 0 1 533.06 506.14
  C 528.27 509.39 523.99 513.02 517.92 513.05
  Q 514.18 513.06 510.42 513.09
  A 3.02 3.02 0.0 0 1 507.38 510.25
  L 507.31 509.09
  A 2.87 2.86 88.2 0 1 510.15 506.06
  C 515.19 506.02 518.58 506.44 523.26 504.31
  Q 530.10 501.21 533.69 496.80
  Z"
/>
</g>
<g fill="var(--art-astronaut-primary)">
<path d="
  M 256.74 233.88
  A 0.15 0.15 0.0 0 1 256.86 234.16
  Q 235.40 247.26 210.26 246.10
  C 190.03 245.16 171.05 238.69 154.39 228.33
  C 138.93 218.72 125.92 210.62 110.27 205.12
  A 1.50 1.45 -5.9 0 1 109.52 204.53
  C 91.22 176.14 92.42 138.45 108.61 109.99
  C 129.29 73.67 168.46 55.82 209.51 57.77
  C 238.02 59.12 265.69 73.19 282.84 96.66
  A 0.28 0.28 0.0 0 1 282.50 97.08
  C 259.92 86.78 233.77 87.03 210.46 94.93
  Q 198.45 99.00 189.09 105.91
  Q 180.19 112.48 173.04 123.50
  C 151.51 156.66 160.34 207.39 196.36 226.60
  Q 209.24 233.46 225.95 235.77
  Q 241.44 237.90 256.74 233.88
  Z
  M 120.98 186.18
  C 130.73 186.35 138.53 179.78 141.55 170.66
  Q 144.88 160.59 143.04 148.24
  C 141.39 137.10 133.40 128.87 121.99 128.67
  C 110.59 128.47 102.31 136.41 100.27 147.48
  Q 98.00 159.77 100.98 169.94
  C 103.67 179.16 111.23 186.01 120.98 186.18
  Z"
/>
<path d="
  M 283.55 130.19
  C 286.02 134.60 289.24 144.48 283.41 147.87
  C 279.63 150.06 275.90 147.50 274.18 143.78
  Q 272.65 140.46 270.88 137.29
  Q 269.11 134.12 267.07 131.08
  C 264.80 127.67 264.56 123.15 268.41 121.08
  C 274.34 117.88 281.08 125.78 283.55 130.19
  Z"
/>
<path d="
  M 335.51 184.50
  A 0.39 0.39 0.0 0 1 335.38 183.89
  Q 338.83 179.93 344.23 180.71
  Q 354.10 182.14 360.87 188.57
  C 367.09 194.48 371.26 201.39 371.52 210.26
  C 371.93 224.09 363.08 237.60 353.22 246.27
  Q 344.66 253.79 333.33 254.41
  C 326.86 254.77 321.86 253.03 317.13 248.99
  A 1.07 1.06 40.7 0 1 317.01 247.48
  C 319.17 244.97 321.58 241.85 322.42 239.08
  Q 325.35 229.34 315.26 224.63
  A 2.11 2.02 -31.5 0 0 314.39 224.44
  L 303.68 224.44
  A 0.23 0.23 0.0 0 1 303.45 224.24
  C 302.56 218.65 304.76 214.63 309.94 212.43
  Q 318.53 208.79 326.51 214.56
  A 6.91 6.76 1.3 0 1 328.18 216.27
  Q 330.01 218.97 330.66 219.61
  C 333.38 222.29 337.53 221.38 336.97 217.00
  Q 336.14 210.44 330.85 206.02
  Q 325.51 201.56 320.60 201.05
  A 3.08 3.07 21.6 0 1 318.47 196.13
  L 318.74 195.78
  A 8.70 8.69 21.8 0 1 326.65 192.40
  Q 340.41 193.97 348.30 203.63
  Q 350.78 206.68 353.87 204.65
  A 1.32 1.31 -10.0 0 0 354.44 203.84
  Q 355.66 198.88 352.37 195.42
  C 347.55 190.34 342.31 187.81 335.51 184.50
  Z"
/>
<path d="
  M 115.84 285.05
  A 0.28 0.28 0.0 0 1 115.48 285.20
  L 103.93 280.60
  A 0.80 0.71 -30.1 0 0 103.63 280.54
  C 99.05 280.53 96.79 285.35 99.93 288.80
  Q 101.07 290.05 105.73 291.76
  Q 122.62 297.94 134.46 302.70
  A 0.34 0.33 34.9 0 1 134.56 303.26
  Q 117.16 318.67 111.68 341.66
  Q 110.36 347.17 110.44 352.92
  A 0.36 0.36 0.0 0 1 109.98 353.27
  C 98.82 350.05 87.50 346.48 77.59 341.44
  Q 66.27 335.68 61.15 329.71
  Q 51.62 318.63 50.74 304.27
  Q 49.08 277.05 60.51 250.78
  C 66.65 236.69 76.60 222.07 91.46 216.99
  C 102.51 213.20 114.60 220.03 119.91 229.60
  C 129.32 246.57 123.37 268.44 115.84 285.05
  Z"
/>
<path d="
  M 143.55 295.67
  Q 150.41 279.36 153.45 262.45
  Q 155.52 250.99 153.80 239.79
  A 0.23 0.23 0.0 0 1 154.14 239.56
  Q 181.24 255.47 212.07 256.45
  C 221.12 256.74 231.21 255.32 239.58 252.64
  A 0.39 0.39 0.0 0 1 240.09 253.00
  Q 240.61 270.30 234.75 286.81
  Q 233.18 291.23 230.90 293.35
  Q 224.09 299.72 216.39 307.88
  A 0.25 0.24 -16.8 0 1 215.97 307.66
  L 223.26 277.82
  A 1.39 1.23 -41.4 0 0 223.30 277.50
  C 222.99 271.58 217.72 271.35 212.64 270.91
  Q 200.73 269.87 183.93 268.84
  C 177.01 268.42 171.98 267.23 170.78 274.77
  Q 168.21 291.09 166.17 300.59
  Q 165.59 303.28 166.22 304.35
  C 167.93 307.27 171.13 307.93 174.53 308.17
  Q 175.90 308.27 209.75 310.63
  Q 211.69 310.76 214.07 309.50
  A 0.26 0.26 0.0 0 1 214.37 309.92
  L 208.84 315.36
  A 0.94 0.94 0.0 0 1 207.76 315.53
  Q 199.61 311.53 188.79 310.52
  C 182.75 309.96 178.60 310.84 171.36 311.67
  A 1.81 1.81 0.0 0 1 170.11 311.33
  Q 158.57 302.69 143.78 296.25
  A 0.45 0.44 23.6 0 1 143.55 295.67
  Z"
/>
<path d="
  M 267.91 250.56
  Q 269.71 251.37 271.84 252.16
  A 0.44 0.44 0.0 0 1 271.98 252.90
  L 265.16 259.07
  A 0.62 0.43 -14.4 0 0 265.05 259.20
  Q 263.32 261.92 262.87 261.72
  Q 262.42 261.52 263.33 258.42
  A 0.62 0.43 63.1 0 0 263.35 258.25
  L 263.47 249.06
  A 0.44 0.44 0.0 0 1 264.11 248.67
  Q 266.12 249.75 267.91 250.56
  Z"
/>
<path d="
  M 347.58 262.03
  Q 343.16 271.71 339.36 280.61
  Q 338.28 283.14 336.58 283.57
  C 320.96 287.48 305.42 280.26 298.62 265.92
  A 0.65 0.64 -34.7 0 1 298.76 265.19
  L 308.64 255.66
  A 0.47 0.45 -45.0 0 1 309.27 255.65
  Q 315.67 261.71 323.90 263.68
  Q 328.46 264.77 335.66 263.91
  Q 341.96 263.16 347.22 261.62
  A 0.30 0.30 0.0 0 1 347.58 262.03
  Z"
/>
<path d="
  M 332.00 293.87
  Q 326.48 304.22 316.87 312.57
  C 296.82 330.01 272.95 325.02 252.28 312.05
  A 0.56 0.55 38.9 0 1 252.18 311.18
  L 291.24 272.77
  A 0.25 0.25 0.0 0 1 291.63 272.81
  Q 301.66 288.72 319.46 292.76
  C 323.29 293.63 326.70 293.41 331.68 293.33
  A 0.37 0.36 -76.3 0 1 332.00 293.87
  Z"
/>
<path d="
  M 218.70 355.70
  Q 217.44 352.22 216.78 350.23
  Q 214.29 342.74 207.89 336.81
  A 4.36 4.35 44.7 0 0 201.93 336.84
  L 201.75 337.01
  A 4.19 4.18 -42.2 0 0 201.46 342.78
  Q 209.00 351.50 210.23 360.77
  C 211.13 367.54 208.03 374.40 201.15 376.53
  A 0.81 0.81 0.0 0 1 200.10 375.69
  C 200.81 367.67 198.55 358.37 192.72 352.49
  C 190.59 350.34 187.36 350.67 185.79 353.24
  C 184.89 354.69 185.79 357.32 186.91 358.94
  C 191.31 365.34 192.53 374.51 187.95 380.85
  Q 185.06 384.85 179.58 384.55
  A 2.81 2.72 58.7 0 1 178.51 384.27
  C 173.49 381.76 175.79 376.82 174.95 373.08
  C 173.03 364.48 166.16 366.89 160.25 367.57
  C 155.59 368.11 146.88 365.55 145.96 359.64
  A 1.68 1.65 -44.5 0 1 145.97 359.04
  L 148.04 348.91
  A 1.78 1.75 44.6 0 0 148.03 348.19
  C 147.18 344.44 142.84 342.71 140.39 346.17
  C 137.74 349.91 136.73 354.44 135.18 358.97
  A 0.68 0.68 0.0 0 1 134.38 359.41
  L 120.14 356.00
  A 1.03 1.02 -81.6 0 1 119.36 354.94
  Q 121.20 326.11 143.11 307.90
  A 1.24 1.23 37.5 0 1 144.42 307.73
  Q 155.77 313.04 165.70 320.50
  Q 167.50 321.85 170.51 321.24
  C 185.32 318.22 198.98 319.34 210.93 328.60
  C 220.06 335.68 224.42 344.82 219.39 355.73
  A 0.37 0.37 0.0 0 1 218.70 355.70
  Z"
/>
<path d="
  M 53.87 357.50
  L 48.37 354.33
  A 0.50 0.50 0.0 0 1 48.14 353.75
  L 53.40 337.34
  A 0.50 0.50 0.0 0 1 54.22 337.13
  L 60.09 342.58
  A 0.50 0.50 0.0 0 1 60.21 343.13
  L 54.58 357.25
  A 0.50 0.50 0.0 0 1 53.87 357.50
  Z"
/>
<path d="
  M 243.10 401.10
  A 0.38 0.38 0.0 0 1 243.00 401.79
  C 233.79 404.53 225.38 410.05 221.06 418.77
  C 219.77 421.38 221.36 426.56 222.37 431.24
  A 2.32 2.31 72.3 0 1 221.03 433.84
  Q 208.57 439.20 200.14 445.36
  A 0.99 0.99 0.0 0 1 199.05 445.40
  C 192.77 441.58 185.72 440.17 178.53 438.05
  Q 172.31 436.21 161.98 432.75
  A 0.21 0.21 0.0 0 1 161.93 432.38
  Q 170.30 426.53 176.84 420.83
  Q 179.70 418.33 181.86 415.60
  Q 184.50 412.27 181.56 409.25
  C 178.51 406.09 175.61 408.46 173.03 411.15
  Q 168.50 415.84 162.54 420.06
  C 157.75 423.44 151.51 425.98 146.68 428.68
  A 1.05 1.04 -47.8 0 1 145.76 428.73
  Q 141.24 426.84 140.32 426.47
  C 129.42 422.03 114.37 422.28 104.94 430.44
  Q 101.52 433.40 102.55 438.42
  A 0.93 0.93 0.0 0 1 102.15 439.39
  Q 101.35 439.92 98.95 440.69
  Q 88.13 444.17 78.89 450.53
  A 0.49 0.48 50.8 0 1 78.26 450.46
  Q 67.88 438.92 56.82 425.01
  Q 46.03 411.44 43.30 393.31
  Q 42.25 386.31 42.66 382.74
  Q 43.72 373.54 45.81 364.57
  A 0.36 0.36 0.0 0 1 46.32 364.33
  L 51.46 366.93
  A 0.74 0.74 0.0 0 1 51.85 367.72
  Q 50.84 373.42 49.68 381.78
  C 48.64 389.21 47.75 393.43 53.70 397.67
  C 68.72 408.38 91.23 416.55 109.62 411.09
  C 120.46 407.87 123.98 399.96 126.36 389.74
  A 0.27 0.27 0.0 0 1 126.66 389.53
  L 132.22 390.15
  A 0.36 0.36 0.0 0 1 132.50 390.67
  Q 130.15 395.26 132.80 400.16
  C 136.20 406.43 140.87 411.79 148.40 409.69
  Q 151.78 408.75 157.23 403.10
  Q 161.97 398.19 169.89 390.92
  A 0.57 0.55 44.2 0 1 170.65 390.92
  C 176.93 396.54 186.94 395.03 192.87 389.86
  Q 195.23 387.80 196.05 387.21
  A 1.49 1.47 -58.2 0 1 197.13 386.95
  Q 203.76 387.95 209.55 383.92
  A 1.13 1.12 39.6 0 1 210.65 383.82
  Q 228.37 391.60 243.10 401.10
  Z"
/>
<path d="
  M 144.50 373.64
  L 138.35 380.28
  A 1.32 1.30 -64.8 0 1 137.26 380.68
  L 130.22 379.89
  A 0.68 0.67 -80.5 0 1 129.64 379.06
  L 131.81 370.01
  A 0.93 0.93 0.0 0 1 132.90 369.32
  Q 134.57 369.67 135.25 369.89
  C 136.72 370.35 138.40 370.06 139.99 370.30
  C 141.83 370.58 142.72 372.02 144.32 372.75
  A 0.56 0.56 0.0 0 1 144.50 373.64
  Z"
/>
<path d="
  M 262.94 473.01
  A 0.12 0.11 -88.0 0 1 263.07 473.16
  L 258.15 488.52
  A 2.45 2.44 -83.9 0 1 256.07 490.21
  Q 231.56 492.78 208.06 485.71
  Q 203.45 484.33 200.73 482.51
  A 0.83 0.81 -62.7 0 1 200.43 481.54
  C 203.44 473.73 209.61 460.06 206.45 453.19
  A 0.85 0.85 0.0 0 1 206.71 452.16
  Q 214.56 446.12 224.16 442.32
  A 0.35 0.35 0.0 0 1 224.64 442.59
  Q 226.09 452.03 225.59 462.25
  A 4.08 4.03 -56.0 0 0 225.94 464.12
  Q 227.86 468.42 231.22 470.19
  C 240.21 474.93 252.89 475.14 262.94 473.01
  Z"
/>
<path d="
  M 103.33 449.26
  Q 103.81 459.20 101.27 470.50
  A 0.59 0.59 0.0 0 1 100.63 470.95
  Q 90.87 469.85 82.13 466.00
  A 0.97 0.96 13.6 0 1 81.55 465.06
  L 81.84 460.19
  A 1.61 1.58 -21.2 0 1 82.32 459.13
  Q 83.23 458.25 85.06 457.08
  Q 94.46 451.07 102.66 448.77
  A 0.53 0.53 0.0 0 1 103.33 449.26
  Z"
/>
<path d="
  M 137.93 495.58
  A 0.54 0.53 -80.8 0 1 138.48 496.35
  L 132.16 508.83
  A 0.80 0.78 -81.2 0 1 131.60 509.25
  Q 123.31 510.70 111.66 509.12
  Q 93.85 506.70 78.51 499.03
  Q 75.32 497.44 71.67 493.98
  A 1.21 1.20 33.0 0 1 71.38 492.65
  L 78.45 474.89
  A 0.41 0.40 -66.8 0 1 78.99 474.67
  Q 88.77 478.98 99.72 479.67
  A 0.65 0.65 0.0 0 1 100.31 480.22
  C 101.09 485.19 104.03 488.25 108.62 490.68
  Q 122.20 497.87 137.93 495.58
  Z"
/>
<path d="
  M 212.38 281.09
  L 207.93 299.66
  A 0.35 0.35 0.0 0 1 207.57 299.93
  L 177.44 298.15
  A 0.35 0.35 0.0 0 1 177.12 297.72
  L 181.57 279.15
  A 0.35 0.35 0.0 0 1 181.93 278.89
  L 212.06 280.66
  A 0.35 0.35 0.0 0 1 212.38 281.09
  Z"
/>
</g>
<g fill="var(--art-astronaut-secondary)">
<path d="
  M 459.25 10.47
  Q 463.40 12.67 465.28 15.88
  C 467.64 19.92 459.75 35.72 456.92 40.95
  Q 450.07 53.57 440.87 68.08
  A 4.47 4.46 38.1 0 0 441.56 73.69
  L 441.66 73.79
  A 3.32 3.31 40.8 0 0 446.56 73.44
  C 456.59 60.60 467.28 47.40 479.36 35.38
  Q 481.88 32.87 484.68 31.36
  A 2.21 2.21 0.0 0 1 487.32 31.78
  L 492.57 37.23
  A 2.95 2.94 31.9 0 1 493.26 40.18
  Q 492.55 42.42 490.47 45.48
  C 481.50 58.70 470.92 70.54 459.43 82.49
  A 3.94 3.93 45.2 0 0 459.42 87.93
  L 459.52 88.03
  A 3.96 3.95 -41.9 0 0 464.94 88.32
  C 478.82 76.57 492.43 65.58 507.80 56.56
  A 2.31 2.30 52.7 0 1 510.64 56.95
  L 514.84 61.31
  A 2.77 2.76 38.8 0 1 515.21 64.69
  Q 513.17 67.98 509.87 71.12
  Q 494.86 85.35 477.38 99.27
  A 3.07 3.06 -38.7 0 0 476.90 103.58
  L 476.98 103.68
  A 3.47 3.46 -35.0 0 0 481.49 104.47
  Q 505.43 89.93 521.13 81.09
  Q 524.41 79.24 526.13 81.78
  Q 528.74 85.66 529.68 88.40
  A 2.33 2.31 65.6 0 1 528.66 91.15
  Q 507.41 103.57 454.40 133.92
  C 450.95 135.89 449.35 134.07 445.92 131.79
  Q 442.37 129.44 436.99 124.53
  Q 423.44 112.19 412.42 96.83
  C 410.37 93.98 411.60 92.31 413.32 89.24
  Q 430.49 58.62 454.63 16.13
  Q 457.08 11.81 458.15 10.66
  A 0.92 0.91 -54.6 0 1 459.25 10.47
  Z"
/>
<path d="
  M 442.88 142.11
  A 0.43 0.42 47.9 0 1 442.85 142.81
  C 431.16 150.14 420.86 147.24 411.50 137.99
  C 402.14 128.74 395.64 118.14 400.31 104.62
  Q 401.11 102.31 402.89 100.19
  A 0.42 0.42 0.0 0 1 403.57 100.24
  C 413.71 116.82 427.61 130.25 442.88 142.11
  Z"
/>
<path d="
  M 132.74 157.61
  Q 132.58 163.16 131.08 167.98
  C 129.12 174.24 123.63 177.25 117.47 174.67
  C 110.93 171.93 109.80 163.00 109.97 156.94
  C 110.15 150.89 111.81 142.03 118.50 139.68
  C 124.80 137.47 130.10 140.80 131.69 147.16
  Q 132.91 152.06 132.74 157.61
  Z"
/>
<path d="
  M 400.74 140.74
  L 406.28 146.48
  A 0.32 0.32 0.0 0 1 406.27 146.93
  L 369.63 182.24
  A 0.32 0.32 0.0 0 1 369.22 182.26
  L 362.64 177.55
  A 0.32 0.32 0.0 0 1 362.61 177.06
  L 400.29 140.73
  A 0.32 0.32 0.0 0 1 400.74 140.74
  Z"
/>
<path d="
  M 98.15 205.32
  A 0.18 0.18 0.0 0 1 98.01 205.58
  C 72.18 207.74 56.49 232.09 48.59 253.86
  Q 40.06 277.35 40.73 301.88
  C 40.99 311.25 43.49 319.53 47.12 327.26
  A 0.67 0.62 -45.0 0 1 47.10 327.83
  Q 45.32 331.22 43.61 336.34
  Q 39.62 348.32 36.23 361.49
  A 0.38 0.37 16.9 0 1 35.74 361.75
  Q 29.75 359.52 26.11 357.66
  C 9.78 349.36 11.28 333.81 13.55 318.09
  Q 14.45 311.92 15.78 306.06
  Q 20.33 286.12 28.37 253.85
  C 32.77 236.23 36.27 221.16 41.41 207.94
  C 49.38 187.43 70.62 185.88 89.75 188.59
  A 0.93 0.91 -8.2 0 1 90.46 189.11
  L 98.15 205.32
  Z"
/>
<path d="
  M 128.07 223.95
  Q 129.10 224.48 133.80 227.24
  C 140.53 231.19 144.06 234.62 144.66 242.63
  C 145.83 258.36 140.64 276.34 134.54 291.64
  A 0.53 0.52 -68.9 0 1 133.87 291.94
  L 124.94 288.75
  A 0.64 0.64 0.0 0 1 124.57 287.89
  C 132.57 269.88 139.79 241.96 127.73 224.33
  A 0.26 0.26 0.0 0 1 128.07 223.95
  Z"
/>
<path d="
  M 218.36 319.62
  A 0.06 0.05 -49.7 0 1 218.36 319.55
  L 302.07 237.22
  A 10.47 10.46 21.1 0 1 308.79 234.24
  L 310.70 234.13
  A 2.10 2.10 0.0 0 1 312.44 237.57
  Q 306.28 244.93 297.98 252.99
  Q 273.03 277.21 224.43 325.35
  A 0.31 0.30 -44.3 0 1 224.00 325.35
  L 218.36 319.62
  Z"
/>
<path d="
  M 246.37 276.44
  Q 249.65 263.66 248.45 250.47
  A 0.44 0.43 74.7 0 1 248.68 250.05
  L 254.71 246.80
  A 0.13 0.12 77.8 0 1 254.89 246.92
  Q 254.17 259.10 250.87 270.88
  Q 249.87 274.47 246.79 276.73
  A 0.27 0.27 0.0 0 1 246.37 276.44
  Z"
/>
<path d="
  M 68.71 348.32
  Q 84.08 356.57 102.18 361.24
  A 0.70 0.70 0.0 0 1 102.67 362.14
  Q 99.67 371.14 98.03 377.51
  Q 97.25 380.58 93.98 380.28
  C 83.56 379.32 70.77 375.59 62.10 368.75
  A 2.14 2.14 0.0 0 1 61.37 366.50
  Q 64.08 356.91 68.02 348.55
  A 0.51 0.51 0.0 0 1 68.71 348.32
  Z"
/>
<path d="
  M 101.35 403.11
  A 0.26 0.25 6.6 0 1 101.09 402.79
  L 110.52 365.22
  A 1.37 1.36 -75.9 0 1 112.18 364.22
  L 122.41 366.79
  A 0.38 0.38 0.0 0 1 122.69 367.25
  Q 118.48 384.03 114.74 394.73
  Q 113.11 399.37 109.63 401.02
  Q 105.54 402.97 101.35 403.11
  Z"
/>
<path d="
  M 58.25 377.16
  A 0.68 0.68 0.0 0 1 59.26 376.65
  C 70.26 382.93 81.61 385.75 93.77 388.84
  A 1.30 1.30 0.0 0 1 94.71 390.41
  L 91.74 402.21
  A 0.98 0.98 0.0 0 1 90.63 402.94
  Q 76.13 400.43 64.24 393.79
  Q 60.93 391.93 58.67 389.89
  A 4.40 4.40 0.0 0 1 57.25 386.12
  L 58.25 377.16
  Z"
/>
<path d="
  M 164.63 378.14
  Q 165.50 381.35 164.67 382.81
  Q 164.63 382.86 164.59 382.91
  L 147.41 398.97
  A 2.90 2.90 0.0 0 1 142.68 397.78
  L 142.38 396.88
  A 8.37 8.35 57.2 0 1 144.17 388.52
  L 153.62 378.31
  A 1.29 1.28 -68.1 0 1 154.55 377.91
  L 164.32 377.91
  A 0.32 0.31 -6.9 0 1 164.63 378.14
  Z"
/>
<path d="
  M 235.53 461.29
  A 3.14 3.14 0.0 0 1 234.80 459.17
  C 235.09 451.02 234.85 442.33 232.34 434.80
  C 230.08 427.98 227.76 423.26 233.42 417.81
  Q 241.01 410.51 252.23 409.88
  C 258.07 409.56 264.55 420.62 266.77 425.46
  C 271.44 435.61 270.05 449.58 266.80 460.29
  A 4.30 4.24 -10.9 0 1 265.33 462.43
  C 259.61 466.89 240.26 466.93 235.53 461.29
  Z"
/>
<path d="
  M 114.57 483.93
  C 112.00 482.76 109.27 481.34 109.89 478.12
  Q 110.78 473.54 111.78 466.07
  Q 113.41 453.89 110.20 441.05
  Q 109.71 439.07 111.77 437.51
  C 119.65 431.58 131.65 432.52 140.04 436.69
  C 147.75 440.52 149.62 448.00 149.23 456.01
  Q 148.56 469.79 143.75 483.47
  A 3.23 3.23 0.0 0 1 141.66 485.48
  Q 127.62 489.87 114.57 483.93
  Z"
/>
<path d="
  M 253.17 500.74
  A 0.33 0.33 0.0 0 1 253.51 501.18
  L 248.05 516.48
  A 2.14 2.13 8.4 0 1 246.14 517.89
  Q 237.86 518.34 230.75 520.92
  C 224.08 523.34 225.50 532.38 233.66 529.90
  Q 246.87 525.88 258.95 527.96
  C 271.39 530.11 282.34 539.02 285.01 551.43
  A 0.81 0.81 0.0 0 1 284.34 552.41
  Q 279.11 553.19 270.52 553.71
  Q 254.83 554.67 233.75 553.76
  Q 212.40 552.85 194.48 548.30
  Q 189.10 546.93 184.97 544.76
  A 1.33 1.33 0.0 0 1 184.27 543.37
  C 186.94 526.23 191.99 508.71 196.86 492.80
  A 0.49 0.49 0.0 0 1 197.51 492.49
  Q 224.22 503.10 253.17 500.74
  Z"
/>
<path d="
  M 126.75 520.28
  A 0.45 0.45 0.0 0 1 127.17 520.94
  L 120.88 533.37
  A 1.06 1.06 0.0 0 1 119.90 533.96
  Q 110.82 533.78 102.42 535.17
  Q 97.72 535.94 95.46 537.44
  C 90.55 540.67 92.98 547.25 98.82 545.74
  Q 110.21 542.79 120.75 543.40
  C 134.01 544.17 143.71 553.01 145.22 566.18
  A 0.78 0.78 0.0 0 1 144.64 567.02
  Q 143.39 567.36 140.52 567.76
  Q 129.78 569.25 113.84 569.24
  C 95.49 569.23 78.14 565.70 61.18 560.07
  Q 55.39 558.14 50.08 555.34
  A 2.00 1.99 -69.5 0 1 49.07 553.11
  Q 55.12 528.30 64.87 502.99
  A 0.43 0.42 -61.8 0 1 65.51 502.79
  C 77.89 511.36 91.19 515.88 106.15 518.78
  Q 115.91 520.67 126.75 520.28
  Z"
/>
<path d="
  M 285.02 560.28
  L 283.68 565.85
  A 1.59 1.58 -5.4 0 1 282.77 566.94
  Q 279.34 568.43 277.01 568.80
  C 261.82 571.22 244.01 570.84 228.26 569.88
  Q 206.19 568.53 183.81 561.84
  A 2.23 2.23 0.0 0 1 182.23 559.58
  L 182.55 554.27
  A 1.16 1.15 -78.1 0 1 184.10 553.25
  Q 192.41 556.37 203.61 558.41
  Q 224.06 562.11 247.51 562.23
  Q 268.65 562.34 284.19 559.41
  A 0.72 0.71 -88.7 0 1 285.02 560.28
  Z"
/>
<path d="
  M 47.55 562.52
  A 0.76 0.75 17.2 0 1 48.70 561.92
  Q 57.98 567.52 71.01 571.06
  Q 96.74 578.07 126.53 576.59
  Q 137.24 576.06 143.77 574.48
  A 1.07 1.07 0.0 0 1 145.09 575.59
  L 144.84 579.82
  A 2.63 2.62 81.7 0 1 143.12 582.14
  Q 137.20 584.31 131.75 584.78
  Q 93.99 588.05 57.98 574.26
  Q 52.14 572.02 48.29 569.87
  A 2.08 2.08 0.0 0 1 47.23 567.93
  L 47.55 562.52
  Z"
/>
</g>
<g fill="var(--art-alien-secondary)">
<path d="
  M 406.08 422.71
  A 2.17 2.16 -75.9 0 1 405.16 421.17
  C 404.23 413.41 404.87 406.45 407.75 399.36
  C 409.32 395.47 410.02 392.55 411.87 389.45
  C 420.03 375.74 430.11 365.69 442.94 356.70
  Q 455.31 348.04 464.52 343.56
  Q 472.17 339.85 473.39 339.23
  C 479.24 336.25 483.21 335.11 490.39 332.33
  Q 494.33 330.81 498.47 329.80
  C 504.90 328.24 511.02 326.26 517.38 324.86
  Q 519.98 324.28 522.77 324.01
  Q 538.75 322.44 555.49 323.74
  C 564.42 324.44 570.88 327.51 578.89 330.64
  A 6.78 6.71 71.8 0 1 580.18 331.30
  Q 587.22 335.86 588.13 336.64
  Q 596.52 343.78 599.60 353.35
  C 602.48 362.31 595.00 366.27 587.27 364.71
  Q 582.37 363.72 576.30 362.45
  Q 561.11 359.28 545.19 362.97
  Q 541.37 363.86 532.90 365.83
  Q 528.13 366.95 525.27 368.13
  Q 519.12 370.68 517.84 371.03
  C 513.88 372.13 509.97 375.17 506.51 376.64
  C 502.50 378.33 498.75 381.69 495.27 383.27
  Q 493.38 384.12 491.33 385.88
  C 488.76 388.09 484.86 390.24 482.40 392.74
  C 480.45 394.72 478.34 395.93 475.78 398.35
  Q 469.04 404.74 460.90 410.03
  C 456.99 412.57 453.17 413.91 448.97 416.23
  Q 446.42 417.64 441.32 419.35
  Q 434.27 421.70 433.47 421.94
  C 426.18 424.15 412.64 427.24 406.08 422.71
  Z"
/>
<path d="
  M 584.36 372.00
  A 0.29 0.28 38.8 0 1 584.42 372.54
  Q 576.05 376.32 567.05 377.32
  Q 564.99 377.54 561.82 378.77
  A 1.81 1.80 -21.2 0 1 559.48 377.75
  L 556.67 370.59
  A 1.19 1.19 0.0 0 1 557.86 368.97
  Q 560.23 369.13 564.00 369.37
  Q 574.64 370.02 584.36 372.00
  Z"
/>
<path d="
  M 542.94 384.50
  A 0.82 0.81 -16.6 0 1 541.92 383.95
  L 538.87 373.88
  A 1.98 1.98 0.0 0 1 540.65 371.33
  L 547.93 370.91
  A 0.59 0.59 0.0 0 1 548.52 371.28
  L 552.15 380.56
  A 1.03 1.02 70.9 0 1 551.50 381.91
  L 542.94 384.50
  Z"
/>
<path d="
  M 651.99 372.53
  A 0.40 0.39 15.5 0 1 652.35 373.16
  Q 650.83 375.18 648.12 377.23
  A 4.80 4.27 -1.1 0 0 647.45 377.85
  Q 642.57 383.49 637.83 391.32
  Q 637.10 392.52 636.95 394.00
  A 1.10 1.10 0.0 0 1 635.54 394.95
  Q 628.68 392.92 622.67 392.82
  A 0.67 0.67 0.0 0 1 622.21 391.67
  L 629.51 384.51
  A 3.94 3.66 2.1 0 1 629.94 384.14
  L 638.09 378.24
  A 1.81 1.69 -73.5 0 1 638.43 378.04
  Q 641.57 376.50 648.13 373.65
  Q 650.27 372.72 651.99 372.53
  Z"
/>
<path d="
  M 519.67 380.27
  A 1.19 1.19 0.0 0 1 520.30 378.43
  L 530.10 375.46
  A 0.71 0.70 63.1 0 1 530.88 375.72
  C 533.42 379.23 534.14 382.57 534.67 387.54
  A 0.93 0.93 0.0 0 1 534.08 388.51
  Q 530.37 389.98 526.55 393.31
  A 0.69 0.68 59.6 0 1 525.46 393.02
  L 522.19 383.89
  A 2.00 1.86 -74.9 0 0 521.91 383.36
  L 519.67 380.27
  Z"
/>
<path d="
  M 512.13 404.05
  A 0.35 0.35 0.0 0 1 511.52 404.02
  L 507.30 395.75
  A 3.87 3.83 13.7 0 0 506.95 395.18
  L 503.36 390.37
  A 1.68 1.68 0.0 0 1 503.73 388.00
  L 510.42 383.15
  A 1.65 1.65 0.0 0 1 512.89 383.80
  Q 514.09 386.40 516.05 389.41
  C 517.72 391.99 520.04 398.41 516.29 400.32
  Q 513.68 401.65 512.13 404.05
  Z"
/>
<path d="
  M 417.76 466.93
  A 0.74 0.73 88.6 0 1 418.51 466.14
  Q 428.05 466.45 436.18 465.89
  C 441.37 465.53 448.13 461.71 451.71 460.34
  C 456.23 458.62 460.04 455.54 464.76 452.85
  A 1.89 1.83 -79.6 0 0 465.18 452.55
  L 470.77 447.21
  A 3.58 3.45 80.8 0 0 471.59 446.03
  L 474.42 439.46
  A 5.95 5.80 60.2 0 0 474.88 437.68
  Q 475.53 431.20 474.72 427.78
  C 474.03 424.89 471.93 419.34 471.50 414.55
  A 2.90 2.89 -23.4 0 1 472.46 412.13
  Q 482.10 403.50 490.79 396.30
  Q 491.94 395.34 493.61 394.40
  A 2.59 2.59 0.0 0 1 497.03 395.18
  L 502.55 403.22
  A 2.77 2.71 20.0 0 1 502.90 403.95
  L 504.79 410.20
  A 2.50 2.50 0.0 0 1 504.64 412.04
  Q 502.41 416.54 501.16 418.34
  Q 499.30 421.03 497.87 424.47
  Q 493.07 435.98 491.89 446.92
  C 491.63 449.35 490.33 451.37 488.00 451.79
  C 481.76 452.90 478.44 453.59 473.04 457.38
  Q 463.07 464.37 451.12 470.82
  Q 448.58 472.19 439.11 474.29
  Q 432.07 475.84 424.93 473.45
  C 421.03 472.14 418.10 471.17 417.76 466.93
  Z"
/>
<path d="
  M 611.92 420.85
  A 0.30 0.29 -6.4 0 1 611.53 420.54
  Q 612.40 410.94 616.04 402.16
  A 2.03 2.02 11.3 0 1 617.91 400.92
  L 631.60 400.92
  A 0.93 0.92 1.7 0 1 632.53 401.90
  L 631.57 418.20
  A 0.78 0.78 0.0 0 1 630.71 418.93
  Q 620.55 417.83 611.92 420.85
  Z"
/>
<path d="
  M 461.44 545.36
  A 0.50 0.50 0.0 0 1 460.81 544.60
  Q 466.41 537.54 474.57 533.56
  Q 478.97 531.42 481.74 531.18
  C 486.81 530.73 494.83 530.57 500.77 532.21
  C 505.55 533.52 511.48 534.37 516.70 533.71
  Q 518.25 533.51 526.12 530.51
  A 8.55 8.24 16.3 0 0 527.90 529.58
  Q 532.07 526.75 535.84 525.09
  C 539.86 523.31 542.38 521.15 546.41 519.06
  C 550.67 516.86 554.41 514.63 555.15 509.66
  C 555.96 504.16 553.74 498.37 550.29 493.97
  A 5.51 5.42 17.2 0 1 549.40 492.32
  Q 548.74 490.36 546.40 486.36
  Q 545.50 484.83 543.53 480.41
  Q 541.40 475.65 538.35 470.42
  A 3.07 3.07 0.0 0 0 533.45 469.89
  L 533.04 470.33
  A 4.51 4.50 -37.9 0 0 532.38 475.53
  L 548.74 505.90
  A 1.41 1.40 -44.2 0 1 548.72 507.25
  C 547.53 509.36 544.21 511.57 541.96 512.64
  C 537.51 514.75 533.14 517.72 529.66 519.33
  C 525.61 521.20 523.54 522.85 519.63 524.87
  Q 514.36 527.59 509.57 523.64
  Q 505.77 520.50 501.79 515.33
  Q 498.35 510.86 496.61 505.32
  Q 494.88 499.83 494.05 491.50
  Q 493.77 488.63 490.77 488.84
  Q 488.08 489.03 487.64 491.10
  Q 486.58 495.96 487.79 502.74
  C 488.42 506.21 490.71 510.44 491.65 513.46
  A 0.17 0.16 17.1 0 1 491.36 513.61
  Q 489.82 511.68 488.56 509.29
  C 486.93 506.22 486.74 502.98 485.82 498.24
  Q 484.70 492.41 485.35 489.01
  C 486.01 485.52 486.83 480.82 488.49 477.94
  Q 489.70 475.86 491.26 473.38
  A 0.38 0.38 0.0 0 1 491.87 473.34
  C 493.74 475.56 494.90 477.83 498.00 479.33
  A 1.50 1.48 52.3 0 0 498.96 479.46
  C 504.18 478.41 501.39 473.43 499.32 470.58
  A 1.99 1.69 18.5 0 1 499.09 470.20
  L 494.34 460.09
  A 1.44 1.44 0.0 0 1 494.59 458.50
  L 497.32 455.55
  A 1.02 0.99 76.4 0 0 497.54 455.18
  C 500.44 447.31 501.48 441.84 503.32 432.02
  A 9.86 9.84 63.8 0 1 504.22 429.37
  Q 504.99 427.81 507.40 422.98
  Q 508.82 420.14 511.23 416.97
  Q 514.61 412.52 518.86 407.88
  Q 520.21 406.41 522.00 405.91
  A 0.33 0.33 0.0 0 1 522.42 406.28
  Q 520.28 420.25 527.48 430.28
  A 5.46 5.26 -75.9 0 1 527.98 431.15
  L 531.02 437.83
  A 0.61 0.60 -29.7 0 1 530.81 438.57
  L 524.26 443.13
  A 1.12 1.12 0.0 0 0 523.93 443.46
  C 521.22 447.60 517.54 451.36 518.13 456.63
  Q 518.46 459.60 521.83 461.15
  A 1.25 1.23 -44.1 0 0 522.88 461.16
  Q 524.68 460.37 525.21 458.98
  Q 526.95 454.37 529.39 449.52
  A 3.00 2.98 -1.2 0 1 530.64 448.23
  Q 532.95 446.97 534.09 446.15
  C 543.21 439.53 556.81 448.55 560.73 457.09
  C 561.84 459.52 563.50 461.83 564.57 464.75
  Q 566.21 469.27 567.48 471.64
  Q 569.68 475.72 570.26 478.49
  C 571.13 482.70 573.91 486.77 575.03 491.25
  Q 575.75 494.14 578.14 500.17
  C 580.23 505.46 580.70 510.35 580.61 515.29
  C 580.53 519.72 577.65 523.15 574.04 526.55
  Q 567.58 532.64 562.68 535.44
  C 558.96 537.57 552.48 541.10 547.53 543.10
  Q 537.15 547.30 532.86 548.95
  A 1.35 1.35 0.0 0 1 531.22 548.40
  Q 529.85 546.20 528.39 543.63
  Q 528.26 543.41 528.03 543.32
  A 1.06 1.06 0.0 0 0 526.63 544.03
  Q 525.15 549.45 523.11 554.59
  Q 521.78 557.94 518.68 559.43
  Q 512.24 562.55 506.69 566.40
  Q 504.52 567.90 503.47 571.21
  Q 501.77 576.55 498.96 580.74
  A 0.34 0.34 0.0 0 1 498.33 580.56
  C 498.18 575.55 499.10 570.18 501.65 564.83
  Q 502.94 562.11 504.78 556.79
  C 507.99 547.51 496.35 552.91 493.28 553.92
  Q 490.40 554.86 487.10 557.21
  Q 480.21 562.11 475.42 567.02
  A 0.25 0.24 78.8 0 1 475.02 566.75
  C 475.95 564.50 477.07 560.61 479.09 557.64
  Q 483.77 550.81 490.35 546.65
  C 492.03 545.59 493.73 543.09 492.89 540.86
  C 491.78 537.94 489.86 537.29 486.92 537.30
  Q 480.54 537.30 473.33 540.09
  Q 466.19 542.85 461.44 545.36
  Z
  M 528.48 484.51
  Q 526.85 483.39 524.44 484.39
  A 1.47 1.43 5.2 0 0 523.76 484.94
  C 520.14 490.35 509.75 491.04 504.02 489.50
  C 500.69 488.61 498.06 490.08 497.97 493.42
  A 1.62 1.60 21.6 0 0 498.52 494.67
  C 504.56 499.95 515.93 497.62 522.24 494.38
  C 524.68 493.13 529.61 489.04 529.05 485.42
  A 1.36 1.35 -77.4 0 0 528.48 484.51
  Z
  M 533.69 496.80
  Q 530.10 501.21 523.26 504.31
  C 518.58 506.44 515.19 506.02 510.15 506.06
  A 2.87 2.86 88.2 0 0 507.31 509.09
  L 507.38 510.25
  A 3.02 3.02 0.0 0 0 510.42 513.09
  Q 514.18 513.06 517.92 513.05
  C 523.99 513.02 528.27 509.39 533.06 506.14
  A 1.48 1.45 89.4 0 0 533.50 505.68
  L 537.05 500.20
  A 2.46 2.46 0.0 0 0 536.65 497.06
  L 536.19 496.63
  A 1.72 1.72 0.0 0 0 533.69 496.80
  Z"
/>
<path d="
  M 574.64 411.71
  A 0.28 0.27 -70.6 0 1 574.87 412.20
  Q 573.19 413.42 571.90 415.16
  Q 567.54 421.03 562.29 431.04
  C 560.31 434.81 560.09 436.84 558.79 440.84
  A 1.05 1.04 30.4 0 1 557.08 441.28
  Q 552.38 436.93 545.98 435.79
  A 0.51 0.51 0.0 0 1 545.61 435.07
  C 550.18 425.69 558.32 419.34 567.20 413.90
  A 3.82 3.50 19.2 0 1 568.15 413.49
  L 574.64 411.71
  Z"
/>
<path d="
  M 617.08 449.99
  A 0.46 0.45 -24.8 0 1 616.37 449.73
  L 611.97 431.25
  A 0.79 0.77 -24.5 0 1 612.29 430.42
  Q 620.30 424.88 629.61 426.07
  Q 631.77 426.35 631.86 428.24
  C 632.13 434.05 633.05 435.73 635.26 441.78
  A 0.54 0.53 76.3 0 1 634.83 442.49
  Q 625.56 443.73 617.08 449.99
  Z"
/>
<path d="
  M 574.22 467.38
  Q 571.16 462.85 569.78 457.48
  A 3.06 3.05 67.0 0 1 571.13 454.12
  L 572.93 453.01
  A 0.77 0.57 -2.9 0 0 573.10 452.87
  Q 576.96 449.05 578.79 448.27
  Q 582.90 446.52 586.30 444.33
  A 0.19 0.19 0.0 0 1 586.58 444.56
  Q 584.35 450.43 580.93 455.15
  Q 580.69 455.50 579.82 458.21
  A 2.14 1.81 -26.3 0 1 579.66 458.58
  L 574.78 467.36
  A 0.33 0.33 0.0 0 1 574.22 467.38
  Z"
/>
<path d="
  M 630.95 476.06
  A 0.90 0.89 53.2 0 1 629.45 475.84
  Q 626.58 469.42 622.85 463.83
  A 4.11 3.95 -73.0 0 1 622.44 463.02
  L 620.75 458.38
  A 1.06 1.06 0.0 0 1 620.77 457.61
  Q 621.67 455.45 623.60 454.54
  Q 629.61 451.71 635.02 450.93
  Q 639.30 450.32 641.27 454.34
  Q 642.98 457.84 644.33 459.82
  C 646.37 462.79 647.15 464.90 648.89 467.81
  A 0.36 0.36 0.0 0 1 648.65 468.35
  Q 642.53 469.59 635.91 472.30
  C 633.62 473.24 632.53 474.20 630.95 476.06
  Z"
/>
<path d="
  M 663.04 497.65
  C 657.04 497.15 651.67 497.63 646.48 499.78
  Q 643.39 501.06 641.16 501.68
  A 0.78 0.77 71.3 0 1 640.24 501.22
  Q 638.24 496.16 636.62 490.94
  C 635.73 488.08 634.19 485.81 633.28 483.53
  A 0.88 0.86 -31.7 0 1 633.52 482.55
  C 638.45 478.22 641.20 478.03 648.43 476.34
  Q 653.78 475.09 656.00 479.76
  Q 659.87 487.90 662.13 491.90
  Q 662.51 492.59 663.58 497.02
  A 0.52 0.51 -4.5 0 1 663.04 497.65
  Z"
/>
<path d="
  M 591.70 481.42
  C 589.97 486.67 587.47 490.27 585.06 494.77
  A 0.19 0.19 0.0 0 1 584.72 494.76
  L 580.96 486.83
  A 1.33 1.32 -23.4 0 1 581.68 485.03
  L 591.46 481.20
  A 0.18 0.18 0.0 0 1 591.70 481.42
  Z"
/>
<path d="
  M 394.44 538.55
  A 0.12 0.12 0.0 0 1 394.30 538.35
  L 401.05 531.71
  A 2.36 2.21 10.6 0 1 401.82 531.22
  Q 406.49 529.40 412.61 527.50
  Q 415.75 526.52 415.17 523.48
  C 413.93 516.88 392.98 518.73 387.58 518.93
  A 0.32 0.32 0.0 0 1 387.36 518.37
  C 390.73 515.40 394.37 513.36 399.08 512.77
  Q 404.85 512.06 412.04 512.89
  C 415.03 513.24 417.35 513.37 417.77 510.15
  C 418.23 506.67 411.73 502.60 409.33 501.65
  Q 401.61 498.61 392.03 496.72
  Q 391.48 496.62 391.01 496.34
  A 0.35 0.35 0.0 0 1 391.13 495.70
  Q 400.51 494.15 410.58 495.47
  A 10.13 10.05 61.3 0 1 413.51 496.34
  Q 421.44 500.12 423.40 501.36
  C 428.87 504.85 433.64 511.65 437.03 515.03
  C 441.22 519.23 444.67 519.08 451.44 519.17
  Q 467.58 519.36 473.83 519.04
  C 477.85 518.84 478.87 516.90 481.23 514.19
  A 0.35 0.35 0.0 0 1 481.77 514.22
  L 487.05 521.50
  A 1.01 1.00 69.5 0 1 486.33 523.09
  Q 482.48 523.45 474.54 525.05
  C 469.96 525.97 465.97 529.88 462.53 531.45
  A 2.26 1.98 -75.3 0 0 461.91 531.87
  L 457.47 536.24
  A 2.32 2.29 27.7 0 1 455.43 536.86
  Q 447.23 535.36 438.11 532.12
  C 434.67 530.89 433.12 533.56 430.81 535.86
  A 3.42 3.40 -70.5 0 1 428.77 536.84
  C 418.43 537.97 410.87 530.38 400.89 535.42
  Q 396.79 537.49 394.44 538.55
  Z"
/>
<path d="
  M 667.34 533.18
  C 659.09 529.08 652.58 526.26 643.90 526.31
  A 0.81 0.80 87.7 0 1 643.09 525.55
  L 642.26 511.25
  A 2.09 2.08 -17.7 0 1 643.25 509.34
  C 649.41 505.55 659.41 505.56 666.07 507.08
  A 1.69 1.69 0.0 0 1 667.38 508.56
  Q 668.69 522.31 667.98 532.81
  A 0.45 0.44 -74.8 0 1 667.34 533.18
  Z"
/>
<path d="
  M 651.22 571.64
  A 0.19 0.19 0.0 0 1 650.86 571.61
  Q 648.11 561.76 641.05 554.57
  A 4.53 4.30 83.3 0 0 640.33 553.97
  Q 637.75 552.23 635.68 549.87
  A 0.75 0.75 0.0 0 1 635.58 549.04
  L 642.36 535.64
  A 1.65 1.65 0.0 0 1 643.71 534.74
  C 647.59 534.48 650.71 535.32 655.51 536.56
  C 660.34 537.80 662.84 539.36 665.35 542.98
  A 2.58 2.56 35.5 0 1 665.72 545.15
  Q 662.93 555.02 656.83 564.30
  A 5.68 5.41 -6.7 0 1 656.01 565.29
  Q 652.72 568.47 651.22 571.64
  Z"
/>
<path d="
  M 533.37 718.15
  Q 533.97 715.88 535.24 714.95
  Q 538.43 712.64 540.64 710.76
  A 12.49 12.15 10.7 0 1 543.01 709.19
  C 545.00 708.19 547.75 707.25 548.68 705.40
  Q 549.97 702.83 547.34 702.26
  Q 539.81 700.62 534.36 705.27
  Q 530.59 708.49 527.54 710.24
  A 1.41 1.38 -66.2 0 1 527.09 710.42
  L 512.54 713.94
  A 0.50 0.49 2.0 0 1 511.95 713.31
  Q 512.81 710.67 514.21 709.30
  Q 515.43 708.11 521.92 703.42
  A 7.03 7.00 21.3 0 1 524.69 702.21
  Q 525.60 702.03 531.59 700.03
  C 536.92 698.25 544.76 697.08 548.69 695.66
  C 555.09 693.34 559.09 679.16 560.10 673.16
  Q 561.10 667.17 561.90 662.54
  C 563.20 655.04 555.40 651.83 549.45 649.08
  C 542.22 645.72 529.03 640.14 523.64 631.13
  A 4.08 4.05 -64.3 0 1 523.11 629.60
  Q 522.56 625.66 523.05 620.99
  C 523.63 615.43 528.24 608.95 529.39 603.83
  A 6.54 6.31 -23.6 0 1 530.22 601.82
  Q 531.25 600.16 534.40 593.11
  Q 537.64 585.88 543.13 577.49
  C 545.77 573.47 548.20 571.40 551.25 567.80
  A 3.43 3.43 0.0 0 0 551.06 563.16
  L 550.92 563.02
  A 3.28 3.26 45.6 0 0 546.36 562.96
  Q 538.32 570.62 533.58 577.60
  Q 532.38 579.36 530.16 578.08
  Q 524.29 574.69 521.08 568.51
  A 0.90 0.90 0.0 0 1 521.51 567.28
  C 525.05 565.65 528.43 562.48 529.99 558.94
  C 531.79 554.83 538.17 554.38 542.60 553.37
  A 7.94 7.76 -64.1 0 0 544.22 552.79
  Q 548.95 550.44 552.72 549.11
  C 558.32 547.14 561.99 544.45 567.10 542.03
  A 5.08 4.87 12.5 0 0 568.12 541.41
  L 576.01 535.32
  A 0.87 0.86 -44.7 0 1 577.08 535.32
  C 579.72 537.39 581.08 539.59 583.46 543.19
  A 8.82 8.71 19.6 0 1 584.50 545.35
  Q 586.15 550.55 586.94 553.29
  Q 589.29 561.42 587.95 570.23
  Q 587.65 572.20 584.36 581.03
  A 7.31 7.06 -16.7 0 1 583.27 582.97
  C 581.43 585.31 580.36 587.79 578.62 589.99
  C 574.13 595.71 570.59 599.91 567.19 602.94
  C 565.48 604.47 564.16 606.56 562.75 607.52
  C 560.09 609.33 558.59 611.64 555.60 613.61
  A 4.37 4.32 2.5 0 0 554.65 614.47
  L 550.36 619.73
  A 1.35 1.34 78.4 0 0 550.19 619.99
  Q 547.94 624.37 550.22 628.17
  Q 551.48 630.27 557.08 632.35
  C 559.24 633.15 564.17 635.55 568.11 637.23
  Q 573.49 639.52 578.02 643.58
  Q 579.75 645.13 579.91 646.61
  C 580.91 656.20 578.15 664.65 576.13 674.81
  Q 573.41 688.49 576.86 702.79
  Q 577.77 706.58 577.26 710.07
  A 2.16 2.15 -88.0 0 1 575.29 711.91
  Q 565.39 712.67 548.72 714.44
  Q 546.41 714.69 533.76 718.52
  A 0.31 0.31 0.0 0 1 533.37 718.15
  Z"
/>
<path d="
  M 616.42 589.42
  Q 618.29 578.78 617.52 573.98
  Q 616.31 566.39 615.57 561.71
  A 1.30 1.29 84.9 0 1 616.81 560.22
  Q 623.39 560.06 627.69 555.32
  A 1.82 1.82 0.0 0 1 630.43 555.37
  Q 632.84 558.24 635.18 559.84
  A 5.61 5.43 -0.9 0 1 636.43 561.01
  L 640.19 565.80
  A 9.72 9.66 -70.8 0 1 642.01 569.59
  L 643.32 575.08
  A 3.52 3.50 -30.0 0 1 642.44 578.33
  Q 639.78 581.13 636.07 583.05
  Q 627.94 587.24 620.44 589.68
  Q 619.23 590.07 616.86 589.96
  A 0.46 0.46 0.0 0 1 616.42 589.42
  Z"
/>
<path d="
  M 596.83 558.44
  Q 598.50 559.39 604.75 560.53
  Q 606.88 560.93 607.66 562.87
  Q 612.77 575.57 608.81 588.63
  A 1.78 1.77 5.4 0 1 607.29 589.88
  Q 600.12 590.61 591.68 588.89
  A 1.54 1.53 15.8 0 1 590.54 586.86
  L 591.58 583.98
  A 1.52 1.33 -22.9 0 1 591.71 583.71
  Q 596.53 575.22 596.16 565.74
  Q 595.93 559.48 596.14 558.73
  A 0.48 0.48 0.0 0 1 596.83 558.44
  Z"
/>
<path d="
  M 451.36 706.13
  A 0.39 0.39 0.0 0 1 451.05 705.43
  Q 459.79 699.22 468.25 695.49
  A 2.50 2.42 72.1 0 0 469.63 692.69
  C 468.67 688.37 460.61 690.17 457.80 691.69
  Q 453.31 694.12 446.47 698.45
  A 2.98 2.87 21.3 0 1 445.63 698.80
  L 432.77 701.86
  A 0.40 0.40 0.0 0 1 432.35 701.25
  C 436.01 695.88 441.64 691.20 448.14 689.67
  C 454.00 688.29 456.46 687.43 463.34 686.45
  C 467.74 685.83 474.40 684.96 476.91 681.43
  Q 478.81 678.76 480.58 676.36
  A 9.36 9.31 73.5 0 0 481.83 674.04
  C 483.24 670.15 485.57 666.63 486.74 662.88
  Q 488.81 656.26 488.99 654.53
  C 489.60 648.81 484.31 644.31 479.36 640.33
  Q 475.62 637.32 473.07 633.96
  C 468.71 628.21 465.59 624.32 466.48 617.37
  Q 466.92 613.92 470.31 608.83
  Q 475.49 601.06 479.49 596.01
  Q 481.66 593.26 482.24 592.28
  C 483.44 590.23 485.06 589.35 486.28 587.29
  Q 487.96 584.45 491.45 581.11
  A 0.34 0.34 0.0 0 1 492.02 581.34
  Q 492.14 584.45 492.45 586.03
  C 493.11 589.53 496.91 593.87 500.87 592.02
  C 504.13 590.50 507.29 582.10 508.04 579.20
  C 508.91 575.85 510.05 573.83 512.28 571.87
  A 0.97 0.96 50.8 0 1 513.69 572.02
  C 516.99 576.47 519.78 580.30 523.70 583.22
  A 3.80 3.77 70.0 0 0 525.02 583.84
  L 528.42 584.65
  A 1.01 1.01 0.0 0 1 528.96 586.28
  C 526.85 588.80 523.30 590.67 520.14 593.25
  Q 511.89 599.98 500.05 609.30
  C 498.32 610.67 497.21 612.14 495.07 613.63
  Q 492.38 615.49 490.73 619.04
  C 488.33 624.23 491.65 628.18 495.50 630.89
  Q 503.28 636.35 506.93 643.32
  Q 508.05 645.45 506.84 648.58
  C 503.88 656.21 502.87 663.10 500.84 670.95
  Q 499.01 678.03 499.00 680.77
  Q 498.95 689.57 498.69 695.28
  A 2.85 2.85 0.0 0 1 496.33 697.96
  Q 483.75 700.09 478.72 701.08
  C 473.50 702.10 465.86 702.07 460.82 703.55
  Q 454.26 705.46 451.36 706.13
  Z"
/></g>
<g fill="var(--art-item-secondary)">
<path d="
  M 200.38 575.99
  A 0.15 0.15 0.0 0 1 200.36 576.29
  L 155.19 578.93
  A 0.54 0.53 -89.5 0 1 154.63 578.36
  L 155.01 571.93
  A 0.74 0.74 0.0 0 1 155.70 571.24
  L 177.70 569.95
  A 5.67 5.59 53.4 0 1 180.03 570.31
  Q 189.70 573.97 200.38 575.99
  Z"
/>
<path d="
  M 287.02 575.13
  A 2.12 2.11 64.0 0 1 289.79 576.09
  C 290.75 577.96 290.52 579.62 290.66 581.57
  Q 291.06 587.28 290.52 591.90
  A 3.29 3.29 0.0 0 1 288.10 594.68
  Q 285.74 595.30 282.17 595.64
  Q 232.43 600.31 154.00 605.79
  Q 141.92 606.63 135.02 605.85
  Q 93.78 601.22 43.93 595.90
  Q 41.36 595.62 39.63 593.87
  Q 38.38 592.59 38.39 589.41
  C 38.41 586.04 38.22 580.77 41.02 579.52
  C 43.16 578.55 44.66 578.68 47.04 579.81
  C 66.96 589.21 87.99 593.49 110.00 594.97
  Q 120.99 595.71 131.38 594.49
  C 137.71 593.75 143.15 591.96 148.57 589.69
  A 10.24 10.12 -57.8 0 1 151.96 588.90
  Q 189.66 586.80 229.25 583.07
  Q 263.37 579.86 269.75 579.49
  Q 278.62 578.98 287.02 575.13
  Z"
/>
<path d="
  M 273.43 606.03
  A 1.69 1.69 0.0 0 1 275.47 607.29
  L 296.58 696.60
  A 4.97 4.36 76.7 0 1 293.48 702.44
  L 292.66 702.64
  A 4.97 4.36 76.7 0 1 287.28 698.80
  L 266.16 609.48
  A 1.69 1.69 0.0 0 1 267.42 607.45
  L 273.43 606.03
  Z"
/>
<path d="
  M 63.74 608.59
  A 1.31 1.31 0.0 0 1 64.70 610.17
  L 43.08 698.88
  A 4.62 3.58 -76.3 0 1 38.51 702.52
  L 36.48 702.03
  A 4.62 3.58 -76.3 0 1 34.10 696.69
  L 55.73 607.98
  A 1.31 1.31 0.0 0 1 57.31 607.02
  L 63.74 608.59
  Z"
/>
<path d="
  M 151.80 616.33
  A 0.59 0.59 0.0 0 1 152.36 616.95
  L 148.53 704.59
  A 4.35 4.27 2.5 0 1 144.00 708.66
  L 143.28 708.63
  A 4.35 4.27 2.5 0 1 139.12 704.17
  L 142.95 616.54
  A 0.59 0.59 0.0 0 1 143.56 615.97
  L 151.80 616.33
  Z"
/>
</g>
<g fill="var(--art-astronaut-accent)">
<path d="
  M 206.19 107.98
  Q 236.20 95.63 267.86 103.71
  C 279.44 106.66 289.49 113.82 294.99 124.53
  Q 299.39 133.10 300.01 148.01
  C 300.94 170.25 294.49 195.38 278.23 211.46
  C 260.97 228.55 230.15 228.82 209.11 220.39
  C 182.47 209.71 169.34 183.56 172.42 155.61
  C 174.68 135.10 187.00 115.88 206.19 107.98
  Z"
/>
</g>
<g fill="var(--art-astronaut-glare)">
<path d="
  M 283.55 130.19
  C 286.02 134.60 289.24 144.48 283.41 147.87
  C 279.63 150.06 275.90 147.50 274.18 143.78
  Q 272.65 140.46 270.88 137.29
  Q 269.11 134.12 267.07 131.08
  C 264.80 127.67 264.56 123.15 268.41 121.08
  C 274.34 117.88 281.08 125.78 283.55 130.19
  Z"
/>
</g>
</svg>
