<?xml version="1.0" encoding="UTF-8" standalone="no"?>
<!DOCTYPE svg PUBLIC "-//W3C//DTD SVG 1.1//EN" "http://www.w3.org/Graphics/SVG/1.1/DTD/svg11.dtd">
<svg xmlns="http://www.w3.org/2000/svg" version="1.1" viewBox="0.00 0.00 795.00 829.00">
<g stroke-width="2.00" fill="none" stroke-linecap="butt">
<path stroke="#5b9acf" vector-effect="non-scaling-stroke" d="
  M 746.68 400.51
  C 748.01 376.78 721.01 372.06 703.22 372.33
  A 2.81 2.79 -75.2 0 0 700.84 373.72
  Q 697.40 379.62 691.67 384.35"
/>
<path stroke="#5b9acf" vector-effect="non-scaling-stroke" d="
  M 584.44 297.17
  Q 576.81 298.64 568.96 296.79
  Q 556.99 293.97 547.37 288.40
  Q 528.67 277.57 515.15 262.87
  Q 508.88 256.06 506.27 247.33
  C 501.53 231.49 510.57 214.92 524.30 207.19
  A 0.34 0.34 0.0 0 0 524.28 206.59
  Q 520.64 204.92 512.57 200.94
  C 507.87 198.63 507.25 192.48 512.66 190.62
  A 2.34 2.31 -50.1 0 1 513.70 190.52
  Q 517.74 191.11 521.48 192.98
  Q 535.90 200.22 546.41 205.04
  Q 568.80 215.31 590.43 221.46
  C 595.74 222.97 602.13 224.53 606.68 224.83
  Q 615.36 225.39 625.23 224.62
  Q 629.48 224.29 631.14 223.58
  A 1.41 1.39 -86.8 0 0 631.85 222.94
  Q 632.61 221.54 632.91 220.16
  Q 638.04 196.19 632.61 174.22
  C 626.70 150.35 610.55 127.33 592.38 110.36
  Q 570.72 90.13 543.22 74.04
  Q 484.73 39.82 419.42 24.62
  Q 374.31 14.13 328.79 13.18
  C 311.15 12.81 292.86 13.88 275.76 16.11
  Q 259.52 18.23 237.42 25.36
  Q 210.71 33.97 192.67 51.12
  Q 179.24 63.89 176.49 81.23
  C 174.68 92.65 182.92 101.24 193.17 104.36
  Q 206.63 108.46 219.97 103.47
  Q 237.11 97.06 245.80 94.83
  C 258.61 91.54 270.15 90.37 284.57 89.39
  Q 295.70 88.64 301.45 88.76
  Q 340.38 89.57 373.40 99.38
  Q 418.69 112.85 456.94 145.32
  Q 464.75 151.95 472.84 161.16
  Q 477.90 166.94 479.92 174.07
  C 480.85 177.37 480.83 182.06 477.58 183.90
  C 475.04 185.33 471.33 184.11 470.08 181.68
  C 466.21 174.19 461.88 167.68 455.57 161.34
  Q 446.04 151.74 434.12 143.62
  A 0.49 0.49 0.0 0 0 433.42 143.77
  C 428.62 151.75 425.73 158.85 425.92 168.30
  Q 426.14 179.11 434.13 186.94
  Q 436.98 189.74 443.08 192.73
  Q 448.35 195.30 452.92 197.12
  Q 458.39 199.30 459.78 204.99
  C 461.91 213.70 462.01 220.19 462.80 229.91
  Q 463.48 238.14 464.88 241.74
  C 468.36 250.60 475.01 257.27 483.08 262.95
  Q 496.04 272.06 506.32 280.72
  Q 526.39 297.64 535.05 304.24
  C 540.48 308.38 546.18 312.21 552.20 312.86
  Q 568.69 314.62 580.29 303.36
  C 582.15 301.55 583.20 299.67 584.71 297.60
  A 0.27 0.27 0.0 0 0 584.44 297.17"
/>
<path stroke="#5b9acf" vector-effect="non-scaling-stroke" d="
  M 237.99 111.33
  C 243.21 112.21 248.88 112.97 254.28 114.13
  Q 276.70 118.96 298.53 125.26
  A 0.30 0.30 0.0 0 0 298.90 124.88
  Q 295.69 113.98 297.59 102.69
  A 0.42 0.42 0.0 0 0 297.19 102.20
  Q 267.08 101.46 237.95 110.71
  A 0.32 0.32 0.0 0 0 237.99 111.33"
/>
<path stroke="#5b9acf" vector-effect="non-scaling-stroke" d="
  M 329.09 133.10
  Q 324.93 118.41 329.36 104.23
  A 0.48 0.48 0.0 0 0 328.94 103.61
  L 310.98 102.22
  A 1.27 1.27 0.0 0 0 309.63 103.30
  Q 307.81 115.94 312.16 127.82
  A 2.46 2.44 -2.1 0 0 313.80 129.33
  L 328.67 133.53
  A 0.35 0.34 89.5 0 0 329.09 133.10"
/>
<path stroke="#5b9acf" vector-effect="non-scaling-stroke" d="
  M 358.38 141.50
  C 356.99 131.50 357.93 119.68 362.60 110.28
  A 0.46 0.45 19.1 0 0 362.28 109.63
  L 342.54 105.82
  A 0.71 0.71 0.0 0 0 341.71 106.35
  Q 338.26 120.29 342.41 133.82
  Q 343.40 137.06 345.89 137.93
  Q 349.10 139.06 357.97 141.85
  A 0.32 0.32 0.0 0 0 358.38 141.50"
/>
<path stroke="#5b9acf" vector-effect="non-scaling-stroke" d="
  M 386.97 152.32
  Q 386.71 135.28 395.34 121.82
  A 0.47 0.47 0.0 0 0 395.12 121.13
  L 374.92 113.13
  A 0.53 0.53 0.0 0 0 374.23 113.45
  Q 368.69 128.75 371.63 145.57
  A 2.43 2.41 5.5 0 0 373.15 147.40
  L 385.71 152.14
  A 0.56 0.49 -10.4 0 1 385.93 152.27
  L 386.28 152.62
  A 0.41 0.41 0.0 0 0 386.97 152.32"
/>
<path stroke="#5b9acf" vector-effect="non-scaling-stroke" d="
  M 413.89 166.48
  Q 414.09 150.04 423.58 136.33
  A 0.51 0.50 30.4 0 0 423.38 135.59
  L 407.80 128.06
  A 1.37 1.37 0.0 0 0 406.03 128.60
  Q 398.40 141.69 399.69 157.66
  A 2.38 2.36 -77.4 0 0 400.86 159.52
  L 413.40 166.76
  A 0.33 0.33 0.0 0 0 413.89 166.48"
/>
<path stroke="#5b9acf" vector-effect="non-scaling-stroke" d="
  M 780.54 355.39
  Q 775.79 343.72 765.53 335.32
  C 753.73 325.65 740.36 322.81 725.08 324.84
  Q 709.36 326.93 702.08 329.07
  C 698.36 330.17 697.18 331.03 695.95 334.72
  Q 695.47 336.13 693.96 342.45
  C 692.36 349.13 683.92 348.00 683.39 341.16
  Q 683.10 337.51 684.14 334.90
  Q 687.48 326.49 694.14 316.43
  C 701.05 305.98 708.51 296.42 718.04 290.75
  C 729.92 283.69 744.51 283.28 757.33 287.87
  A 0.19 0.19 0.0 0 0 757.56 287.59
  Q 752.82 279.57 744.14 276.08
  C 729.43 270.15 713.29 269.88 700.55 279.53
  C 696.02 282.97 691.76 287.35 687.63 292.64
  Q 685.66 295.14 666.15 327.16
  C 661.62 334.58 657.14 341.70 650.07 346.49
  Q 646.77 348.73 638.56 351.81
  Q 599.53 366.46 560.66 375.27
  C 550.66 377.54 535.36 379.88 526.99 381.72
  C 520.50 383.15 518.18 380.37 513.87 375.64
  Q 495.53 355.50 478.09 334.16
  C 473.37 328.39 467.31 320.55 466.96 314.01
  C 466.27 301.26 462.43 291.62 456.76 279.96
  A 0.30 0.30 0.0 0 0 456.25 279.92
  Q 448.73 290.52 440.01 299.42
  C 437.93 301.54 435.66 303.03 432.55 305.30
  C 429.20 307.75 424.31 308.04 422.95 303.40
  Q 422.05 300.33 423.98 298.43
  Q 443.20 279.52 458.60 256.33
  A 2.17 2.15 -44.8 0 0 458.62 253.97
  C 453.72 246.41 450.99 239.09 449.71 229.52
  Q 448.29 218.86 447.51 209.15
  A 1.68 1.68 0.0 0 0 446.34 207.68
  C 433.71 203.65 425.13 197.25 418.23 185.66
  A 5.59 5.50 -85.1 0 0 417.12 184.32
  Q 414.67 182.16 411.37 180.13
  Q 386.63 164.92 358.80 155.24
  Q 355.93 154.24 353.64 153.01
  A 0.14 0.14 0.0 0 0 353.47 153.23
  Q 364.93 166.45 363.44 184.24
  C 361.91 202.39 349.04 214.04 331.70 218.31
  Q 317.29 221.86 310.74 222.07
  A 0.39 0.39 0.0 0 0 310.46 222.72
  Q 321.69 235.48 329.22 245.35
  C 334.39 252.11 339.84 258.10 345.59 262.92
  Q 353.75 269.77 365.99 274.26
  Q 381.58 279.98 392.76 288.23
  C 396.39 290.91 402.02 295.29 402.90 299.77
  C 403.57 303.20 401.45 306.81 397.78 306.97
  Q 395.28 307.07 393.78 305.45
  C 384.59 295.47 373.97 289.84 361.09 284.87
  Q 349.49 280.40 346.71 278.79
  C 336.60 272.95 328.73 264.86 321.10 255.66
  Q 313.44 246.42 307.20 238.54
  C 297.24 225.96 285.81 217.49 268.68 222.19
  Q 262.74 223.82 256.80 227.06
  Q 242.09 235.09 231.66 246.16
  Q 230.36 247.54 222.97 255.47
  C 208.80 270.69 187.15 278.11 169.89 286.39
  C 152.37 294.79 136.50 302.92 122.37 314.57
  Q 111.22 323.76 110.44 337.56
  Q 109.86 347.71 112.24 356.05
  C 113.89 361.86 115.77 367.76 117.02 374.34
  Q 129.75 441.28 131.60 450.42
  Q 132.56 455.20 133.04 460.50
  Q 133.35 463.99 131.77 466.77
  Q 118.56 490.10 114.38 516.39
  Q 112.23 529.91 114.49 542.81
  C 115.81 550.35 118.70 558.44 124.13 563.86
  A 0.31 0.31 0.0 0 0 124.66 563.62
  Q 122.59 537.30 132.76 512.46
  C 134.85 507.37 137.85 502.67 143.65 505.49
  C 146.38 506.81 147.33 509.43 147.21 512.25
  Q 146.83 521.24 146.79 524.13
  Q 146.53 544.28 161.47 556.66
  Q 166.37 560.72 172.49 561.42
  A 0.58 0.58 0.0 0 0 173.06 560.55
  C 165.37 547.20 159.10 535.12 159.94 519.34
  C 160.62 506.32 167.89 490.34 183.60 493.63
  C 191.17 495.22 196.95 502.90 199.21 509.81
  A 0.24 0.24 0.0 0 0 199.67 509.77
  C 201.27 499.19 200.27 489.78 193.74 480.90
  Q 190.76 476.86 183.25 472.29
  Q 174.93 467.22 166.52 462.69
  C 162.43 460.48 160.09 458.74 158.83 454.68
  Q 156.41 446.84 155.34 437.97
  C 153.64 423.77 152.87 409.09 152.85 393.31
  Q 152.80 358.71 152.71 348.22
  C 152.64 339.50 157.83 335.26 165.36 332.59
  Q 198.58 320.83 205.88 317.89
  Q 217.45 313.23 235.36 304.87
  Q 249.57 298.23 264.76 295.29
  C 269.75 294.32 286.46 293.73 285.62 303.00
  C 285.39 305.62 282.48 307.94 279.76 307.20
  Q 272.63 305.24 266.25 306.73
  Q 254.09 309.55 242.04 315.07
  Q 228.22 321.40 215.44 327.03
  A 0.86 0.85 69.2 0 0 214.97 328.08
  Q 216.50 332.79 218.67 337.41
  Q 226.31 353.66 235.86 367.90
  C 238.07 371.20 239.35 374.07 238.59 377.54
  C 234.73 394.90 232.50 413.38 230.26 428.25
  Q 228.65 438.94 226.48 445.74
  Q 223.41 455.36 222.11 461.39
  Q 218.17 479.74 227.14 496.34
  Q 233.23 507.62 241.73 517.91
  Q 249.84 527.73 264.42 544.67
  Q 278.69 561.24 291.61 578.13
  Q 299.45 588.36 304.25 596.24
  Q 307.08 600.87 307.13 606.57
  C 307.16 610.77 305.47 613.02 301.79 614.59
  C 297.86 616.27 292.03 617.62 287.70 619.58
  Q 273.24 626.13 263.82 637.81
  C 251.44 653.17 245.43 661.90 233.62 671.30
  C 224.52 678.55 213.61 682.20 202.51 684.96
  C 194.88 686.86 190.17 689.23 187.55 696.27
  Q 186.18 699.95 185.89 701.71
  Q 182.09 724.72 174.87 747.42
  Q 173.29 752.36 167.77 769.26
  C 164.99 777.79 162.57 787.41 163.48 796.25
  Q 164.38 804.94 172.54 806.87
  C 180.05 808.65 188.25 807.89 196.25 807.97
  Q 209.06 808.11 220.42 812.82
  Q 221.66 813.34 222.63 814.17
  A 0.30 0.30 0.0 0 0 223.12 813.87
  Q 220.37 803.42 213.15 795.90
  Q 209.31 791.89 206.63 790.85
  Q 200.68 788.53 198.56 787.71
  C 194.44 786.12 195.52 780.47 198.36 778.33
  C 200.36 776.82 203.29 777.31 205.51 778.03
  Q 221.14 783.05 228.61 797.65
  Q 230.36 801.07 231.95 804.94
  A 1.04 1.03 80.2 0 0 232.86 805.59
  Q 243.25 806.18 252.67 810.62
  A 0.26 0.25 5.8 0 0 253.03 810.33
  Q 251.21 802.53 246.47 796.37
  Q 239.36 787.13 226.01 788.04
  A 4.86 4.85 -5.0 0 1 220.86 783.72
  L 220.83 783.51
  A 4.97 4.96 -7.4 0 1 225.03 778.06
  C 241.14 775.66 252.80 783.12 260.11 797.17
  A 3.88 3.87 80.7 0 0 262.92 799.20
  Q 269.76 800.33 276.77 803.55
  A 0.27 0.27 0.0 0 0 277.12 803.19
  C 270.64 789.93 259.43 777.46 243.75 776.28
  C 235.44 775.66 229.41 776.11 222.57 774.71
  C 218.42 773.86 213.70 773.01 212.14 769.12
  Q 210.41 764.79 210.09 759.94
  C 209.24 746.78 209.69 734.18 214.64 722.03
  Q 217.43 715.18 223.80 708.35
  C 233.96 697.47 246.19 689.85 259.13 682.87
  Q 264.78 679.83 280.78 671.51
  Q 300.95 661.02 320.67 648.41
  Q 330.86 641.89 339.93 634.43
  Q 346.06 629.38 349.50 625.51
  C 357.30 616.73 356.54 605.87 354.56 594.89
  Q 349.02 564.25 337.69 534.31
  Q 327.53 507.48 312.77 483.03
  Q 304.66 469.60 292.57 460.75
  C 289.87 458.77 285.57 456.35 282.57 454.81
  Q 279.07 453.02 278.12 451.42
  C 276.50 448.71 277.63 443.77 281.30 443.25
  Q 283.92 442.88 286.86 444.15
  C 304.22 451.63 318.39 465.85 326.94 482.63
  A 0.34 0.34 0.0 0 0 327.57 482.56
  Q 332.93 461.27 334.32 456.06
  Q 337.69 443.48 346.62 434.12
  Q 356.02 424.27 371.48 414.74
  C 379.43 409.83 381.34 422.18 386.02 420.11
  Q 391.20 417.82 394.88 413.05
  A 0.45 0.44 29.8 0 0 394.69 412.36
  Q 390.92 410.85 389.27 407.31
  C 387.58 403.67 388.29 399.92 392.35 398.62
  A 2.66 2.66 0.0 0 1 394.03 398.62
  Q 395.22 399.00 399.31 401.13
  Q 404.91 404.04 410.07 400.88
  Q 414.37 398.25 421.89 390.04
  A 0.34 0.34 0.0 0 0 421.67 389.48
  Q 418.02 389.12 413.49 387.57
  C 409.44 386.19 406.72 382.65 408.88 378.46
  C 412.08 372.28 420.27 379.14 425.01 377.50
  C 431.80 375.13 436.88 365.75 439.77 358.94
  A 0.35 0.35 0.0 0 0 439.37 358.46
  Q 433.23 359.96 429.28 360.28
  Q 425.10 360.61 423.73 359.98
  C 417.94 357.33 420.41 349.51 426.04 348.74
  C 433.04 347.78 437.94 347.23 442.92 344.09
  A 2.50 2.47 -10.9 0 0 444.05 342.44
  L 446.40 330.28
  A 0.44 0.43 80.1 0 0 445.75 329.82
  C 441.71 332.29 429.00 338.23 427.42 329.57
  C 426.54 324.75 429.33 323.30 433.85 322.11
  C 439.14 320.72 443.67 318.60 447.17 314.42
  A 3.11 3.11 0.0 0 0 447.84 312.96
  Q 447.98 312.10 449.16 307.72
  Q 450.57 302.51 456.09 302.91
  A 1.79 1.75 -22.9 0 1 457.08 303.30
  C 459.88 305.56 460.30 309.46 459.98 313.01
  Q 458.66 327.33 456.11 341.56
  Q 454.66 349.63 451.63 356.98
  A 2.14 2.13 36.3 0 0 451.97 359.16
  C 462.83 372.08 475.67 385.24 491.07 400.52
  Q 496.81 406.22 505.78 413.81
  C 511.79 418.90 519.54 423.66 526.97 422.41
  Q 537.92 420.56 549.80 416.30
  Q 594.62 400.20 637.63 379.37
  Q 645.35 375.63 653.48 375.97
  C 656.51 376.10 661.21 377.36 663.40 377.82
  C 671.67 379.55 681.45 378.32 688.17 372.21
  C 691.72 368.99 693.62 363.62 695.49 360.01
  Q 699.78 351.73 707.85 347.12
  C 721.21 339.49 737.52 337.85 752.52 342.23
  Q 767.23 346.53 780.26 355.62
  A 0.19 0.19 0.0 0 0 780.54 355.39"
/>
<path stroke="#5b9acf" vector-effect="non-scaling-stroke" d="
  M 311.14 210.43
  Q 298.79 189.98 279.09 176.68
  Q 269.47 170.19 259.28 167.39
  A 0.20 0.20 0.0 0 0 259.07 167.71
  Q 262.46 171.94 265.88 178.36
  Q 273.41 192.45 276.91 207.89
  A 1.19 1.18 -6.6 0 0 278.08 208.81
  Q 286.97 208.67 296.20 212.21
  A 5.86 5.72 -33.5 0 0 298.24 212.60
  Q 305.01 212.69 310.91 211.01
  A 0.39 0.39 0.0 0 0 311.14 210.43"
/>
<path stroke="#5b9acf" vector-effect="non-scaling-stroke" d="
  M 147.07 168.07
  Q 149.31 169.86 150.80 171.39
  Q 155.73 176.46 164.12 186.89
  Q 178.80 205.15 188.81 226.94
  Q 195.13 240.69 200.93 256.29
  A 0.60 0.60 0.0 0 0 201.81 256.59
  Q 207.12 253.31 212.35 249.26
  C 216.15 246.32 219.70 241.83 222.43 238.63
  A 1.89 1.87 49.7 0 0 222.60 236.43
  Q 214.81 223.58 205.63 211.43
  C 190.47 191.36 170.23 176.19 147.41 167.46
  A 0.36 0.35 74.4 0 0 147.07 168.07"
/>
<path stroke="#5b9acf" vector-effect="non-scaling-stroke" d="
  M 569.86 228.92
  A 0.89 0.89 0.0 0 0 569.54 227.47
  L 561.54 224.40
  A 0.89 0.89 0.0 0 0 560.33 225.26
  L 560.75 236.14
  A 0.89 0.89 0.0 0 0 562.27 236.73
  L 569.86 228.92"
/>
<path stroke="#5b9acf" vector-effect="non-scaling-stroke" d="
  M 582.94 232.09
  A 0.60 0.60 0.0 0 0 582.18 232.70
  L 582.80 243.73
  A 0.60 0.60 0.0 0 0 583.84 244.10
  L 591.76 235.48
  A 0.60 0.60 0.0 0 0 591.48 234.50
  L 582.94 232.09"
/>
<path stroke="#5b9acf" vector-effect="non-scaling-stroke" d="
  M 614.68 237.16
  L 606.50 236.53
  A 0.61 0.60 0.4 0 0 605.85 237.16
  L 606.54 249.53
  A 0.13 0.12 -29.4 0 0 606.77 249.59
  L 615.09 238.03
  A 0.56 0.55 20.1 0 0 614.68 237.16"
/>
<path stroke="#5b9acf" vector-effect="non-scaling-stroke" d="
  M 112.28 253.27
  A 0.13 0.13 0.0 0 0 112.15 253.48
  C 122.08 264.22 130.24 276.74 137.24 289.25
  A 0.55 0.54 60.4 0 0 137.99 289.46
  L 154.41 279.98
  A 0.37 0.37 0.0 0 0 154.49 279.40
  Q 136.66 261.37 112.28 253.27"
/>
<path stroke="#5b9acf" vector-effect="non-scaling-stroke" d="
  M 98.93 347.86
  Q 96.55 334.93 100.36 323.75
  A 1.35 1.35 0.0 0 0 99.81 322.18
  L 86.86 313.88
  A 0.49 0.48 16.2 0 0 86.11 314.29
  C 86.23 326.01 91.75 338.64 98.47 348.06
  A 0.26 0.26 0.0 0 0 98.93 347.86"
/>
<path stroke="#5b9acf" vector-effect="non-scaling-stroke" d="
  M 215.53 440.32
  L 216.14 436.57
  A 0.38 0.37 -83.6 0 0 215.80 436.14
  L 212.60 435.89
  A 0.39 0.39 0.0 0 0 212.25 436.51
  L 215.05 440.43
  A 0.27 0.26 31.9 0 0 215.53 440.32"
/>
<path stroke="#5b9acf" vector-effect="non-scaling-stroke" d="
  M 68.02 449.69
  Q 60.37 456.32 54.27 463.01
  C 46.15 471.92 41.68 480.54 35.66 492.89
  Q 32.35 499.67 30.33 506.31
  Q 24.27 526.15 23.24 546.75
  C 21.92 573.36 29.36 603.02 46.87 623.29
  Q 58.27 636.49 74.52 645.17
  C 80.66 648.45 85.38 650.82 91.57 652.92
  C 130.69 666.22 173.54 658.55 207.81 636.32
  C 232.95 620.02 253.83 597.68 267.51 570.90
  A 1.76 1.76 0.0 0 0 267.69 569.97
  Q 267.55 568.29 266.41 566.85
  Q 247.37 542.87 226.03 517.99
  A 0.32 0.32 0.0 0 0 225.47 518.16
  Q 224.07 531.29 220.98 544.20
  C 217.53 558.57 209.13 572.31 200.04 584.44
  C 193.72 592.87 186.97 599.02 178.68 606.70
  C 166.40 618.07 150.37 625.22 134.27 628.27
  Q 116.71 631.60 97.79 627.27
  C 83.78 624.06 71.35 615.89 61.26 606.17
  C 38.88 584.61 33.54 556.29 36.81 526.11
  Q 40.27 494.18 56.89 467.14
  Q 62.24 458.43 68.20 449.86
  A 0.13 0.12 87.6 0 0 68.02 449.69"
/>
<path stroke="#5b9acf" vector-effect="non-scaling-stroke" d="
  M 566.30 790.68
  Q 562.21 781.35 555.57 774.76
  Q 550.70 769.91 544.93 768.98
  C 540.19 768.21 537.07 767.05 538.12 761.86
  C 538.92 757.91 542.07 757.76 545.55 757.91
  Q 555.09 758.32 562.12 764.97
  Q 568.73 771.23 573.26 778.83
  A 1.84 1.83 -15.2 0 0 574.84 779.73
  Q 583.57 779.78 592.65 782.20
  A 0.21 0.20 80.9 0 0 592.87 781.89
  Q 587.56 773.92 580.13 766.94
  Q 570.22 757.63 557.23 755.85
  C 551.70 755.09 546.12 755.89 539.28 756.38
  C 517.94 757.90 498.96 751.60 484.39 735.87
  Q 473.37 723.97 463.72 709.02
  Q 448.43 685.34 443.24 676.24
  C 438.94 668.70 440.03 661.17 444.18 653.94
  Q 452.67 639.13 464.51 626.26
  Q 493.60 594.62 493.73 594.49
  C 502.92 584.36 511.01 574.37 517.02 562.30
  C 522.56 551.16 523.32 540.10 514.00 530.76
  C 506.05 522.80 498.53 517.72 487.30 509.32
  C 480.21 504.02 471.50 498.59 465.35 495.16
  Q 425.43 472.87 381.68 459.24
  C 371.51 456.07 359.59 453.37 349.36 450.27
  A 0.82 0.81 21.1 0 0 348.38 450.70
  Q 346.27 455.15 344.77 461.26
  C 341.16 476.01 339.21 485.63 334.39 495.27
  A 1.37 1.35 44.5 0 0 334.41 496.53
  Q 338.37 503.74 341.44 510.99
  C 342.52 513.53 343.75 514.70 346.01 516.01
  Q 351.54 519.22 357.37 520.87
  Q 375.57 526.01 397.76 530.73
  Q 426.76 536.91 449.76 541.62
  C 455.39 542.77 463.18 544.97 465.40 550.97
  A 2.33 2.28 37.1 0 1 465.55 551.98
  C 465.30 555.88 463.58 557.64 460.26 560.04
  C 449.35 567.92 438.59 577.18 432.91 587.82
  C 427.19 598.53 425.41 608.36 422.98 622.24
  Q 420.49 636.51 411.60 648.85
  Q 406.23 656.31 402.13 661.10
  Q 399.06 664.69 398.63 667.30
  C 397.60 673.47 400.83 678.97 405.36 683.16
  Q 414.46 691.58 420.56 697.44
  C 429.28 705.83 436.13 716.06 442.87 726.63
  C 447.38 733.70 451.36 742.63 453.74 752.17
  C 455.99 761.22 458.53 771.14 464.49 778.77
  A 2.96 2.95 88.0 0 0 465.26 779.49
  Q 470.89 783.19 477.69 784.08
  Q 489.04 785.56 499.91 787.14
  Q 519.60 789.99 536.49 797.02
  A 0.20 0.20 0.0 0 0 536.76 796.77
  Q 531.19 778.75 513.54 774.05
  C 510.92 773.35 507.11 773.07 505.22 772.88
  C 497.12 772.03 498.73 761.75 505.35 761.63
  Q 514.12 761.45 524.15 765.51
  C 532.12 768.74 538.66 775.03 542.82 782.43
  Q 543.86 784.28 545.06 786.09
  A 1.08 1.06 74.9 0 0 545.86 786.56
  Q 555.97 787.35 566.00 791.00
  A 0.24 0.24 0.0 0 0 566.30 790.68"
/>
<path stroke="#5b9acf" vector-effect="non-scaling-stroke" d="
  M 365.02 237.48
  A 0.11 0.11 0.0 0 0 364.86 237.48
  L 360.90 241.29
  A 0.21 0.18 -58.3 0 1 360.75 241.34
  L 360.38 241.28
  A 0.16 0.16 0.0 0 1 360.29 241.02
  L 369.02 231.52
  A 3.27 3.21 -12.4 0 0 369.62 230.60
  Q 370.38 229.06 375.53 221.52
  Q 382.09 211.91 388.33 195.36
  A 0.07 0.07 0.0 0 1 388.41 195.31
  L 388.66 195.35
  A 0.34 0.34 0.0 0 1 388.93 195.79
  Q 385.00 208.50 377.74 219.50
  C 375.14 223.43 373.14 226.78 370.48 230.24
  A 0.21 0.21 0.0 0 0 370.51 230.54
  L 370.53 230.55
  A 0.45 0.44 37.4 0 0 371.16 230.47
  Q 378.37 220.94 384.64 209.13
  Q 388.07 202.65 389.31 196.54
  A 2.75 2.68 -48.0 0 0 389.26 195.26
  Q 389.25 195.21 389.22 195.11
  A 3.04 2.98 -44.5 0 1 389.25 193.53
  C 390.50 189.22 390.79 183.70 385.33 182.98
  Q 380.75 182.37 378.98 187.05
  C 372.89 203.13 364.34 220.08 352.39 232.49
  C 349.80 235.17 348.37 238.54 350.72 241.72
  C 352.33 243.89 354.98 244.49 357.53 243.30
  Q 359.28 242.48 360.40 242.34
  A 2.09 2.04 17.0 0 0 361.64 241.70
  L 365.21 237.81
  A 0.12 0.11 43.2 0 0 365.20 237.65
  L 365.02 237.48"
/>
<path stroke="#5b9acf" vector-effect="non-scaling-stroke" d="
  M 386.97 265.20
  Q 388.92 264.09 390.21 262.44
  Q 391.84 260.34 396.01 255.29
  C 405.66 243.63 413.19 228.66 419.23 214.25
  C 421.04 209.91 421.61 202.18 414.87 202.36
  A 1.82 1.78 25.7 0 0 413.83 202.71
  Q 411.69 204.28 410.89 206.17
  Q 406.44 216.61 400.75 227.22
  Q 395.30 237.38 379.63 256.15
  C 375.35 261.28 381.12 265.64 385.89 265.50
  A 2.41 2.34 28.7 0 0 386.97 265.20"
/>
<path stroke="#5b9acf" vector-effect="non-scaling-stroke" d="
  M 419.8925 216.8919
  A 0.27 0.27 0.0 0 0 419.7532 216.5363
  L 419.7165 216.5203
  A 0.27 0.27 0.0 0 0 419.3610 216.6597
  L 412.9875 231.2481
  A 0.27 0.27 0.0 0 0 413.1268 231.6037
  L 413.1635 231.6197
  A 0.27 0.27 0.0 0 0 413.5190 231.4803
  L 419.8925 216.8919"
/>
<path stroke="#5b9acf" vector-effect="non-scaling-stroke" d="
  M 421.60 256.89
  C 418.35 262.36 414.80 267.33 411.12 272.17
  C 409.39 274.46 408.22 276.87 409.80 279.32
  C 416.11 289.09 429.64 266.33 431.69 262.88
  C 433.74 259.43 447.24 236.65 435.63 235.79
  C 432.73 235.57 431.17 237.76 430.00 240.37
  C 427.51 245.92 424.85 251.41 421.60 256.89"
/>
<path stroke="#5b9acf" vector-effect="non-scaling-stroke" d="
  M 352.15 321.50
  C 364.20 327.17 378.26 330.99 391.99 331.11
  Q 396.43 331.15 398.24 330.31
  C 401.51 328.79 402.51 324.12 400.06 321.50
  Q 398.54 319.86 395.27 319.68
  Q 374.88 318.57 357.39 310.35
  Q 339.91 302.13 326.04 287.13
  Q 323.82 284.73 321.59 284.61
  C 318.01 284.39 315.05 288.14 315.97 291.63
  Q 316.47 293.56 319.33 296.95
  C 328.19 307.45 340.10 315.84 352.15 321.50"
/>
<path stroke="#5b9acf" vector-effect="non-scaling-stroke" d="
  M 394.68 349.16
  Q 392.79 347.01 389.75 347.49
  C 381.09 348.87 372.34 350.11 363.73 349.01
  Q 337.85 345.69 318.37 329.33
  Q 310.78 322.94 306.57 317.68
  Q 304.55 315.16 302.09 312.99
  C 299.49 310.70 295.75 313.30 294.72 315.98
  C 293.81 318.35 294.92 321.01 296.33 322.90
  Q 306.12 336.01 319.60 345.66
  C 328.57 352.08 337.83 355.54 348.57 358.53
  C 360.93 361.98 373.75 361.83 386.25 359.52
  C 391.39 358.57 397.51 356.56 395.20 350.04
  A 2.62 2.55 15.2 0 0 394.68 349.16"
/>
<path stroke="#5b9acf" vector-effect="non-scaling-stroke" d="
  M 383.94 379.23
  Q 381.84 375.95 377.48 376.75
  C 358.55 380.21 338.19 380.51 320.34 372.40
  Q 293.57 360.23 278.36 336.18
  Q 276.50 333.24 275.28 332.72
  C 271.28 331.02 266.52 333.60 266.88 338.30
  Q 267.02 340.06 269.46 343.76
  Q 288.33 372.41 318.11 384.76
  C 326.99 388.45 335.95 390.61 345.67 391.08
  Q 362.64 391.90 378.85 387.32
  C 382.29 386.35 386.68 383.49 383.94 379.23"
/>
<path stroke="#5b9acf" vector-effect="non-scaling-stroke" d="
  M 255.40 360.04
  C 252.10 353.96 244.77 356.76 244.92 363.14
  A 3.25 3.24 -56.2 0 0 245.14 364.26
  Q 249.08 374.30 255.95 382.78
  Q 275.17 406.51 304.98 414.30
  C 315.61 417.08 325.92 416.94 337.26 415.93
  Q 342.62 415.45 347.93 413.71
  Q 352.34 412.26 351.64 407.86
  C 350.96 403.56 348.04 403.24 344.02 403.71
  Q 327.68 405.62 310.81 402.63
  C 287.38 398.48 266.40 380.32 255.40 360.04"
/>
<path stroke="#5b9acf" vector-effect="non-scaling-stroke" d="
  M 380.71 361.88
  C 376.43 362.46 372.57 362.07 368.83 362.77
  A 0.14 0.14 0.0 0 0 368.84 363.05
  Q 375.18 363.49 380.83 362.73
  Q 386.47 361.97 392.46 359.85
  A 0.14 0.14 0.0 0 0 392.41 359.58
  C 388.61 359.90 385.00 361.30 380.71 361.88"
/>
<path stroke="#5b9acf" vector-effect="non-scaling-stroke" d="
  M 365.22 391.45
  Q 356.74 392.65 347.91 392.52
  A 0.23 0.22 -8.4 0 0 347.69 392.81
  Q 347.76 393.03 348.04 393.07
  C 353.57 393.97 358.16 393.37 365.35 392.36
  C 372.53 391.34 377.10 390.63 382.17 388.23
  Q 382.43 388.11 382.43 387.88
  A 0.23 0.22 -7.8 0 0 382.14 387.66
  Q 373.70 390.24 365.22 391.45"
/>
</g>
<g fill="#9cccf4">
<path d="
  M 584.44 297.17
  A 0.27 0.27 0.0 0 1 584.71 297.60
  C 583.20 299.67 582.15 301.55 580.29 303.36
  Q 568.69 314.62 552.20 312.86
  C 546.18 312.21 540.48 308.38 535.05 304.24
  Q 526.39 297.64 506.32 280.72
  Q 496.04 272.06 483.08 262.95
  C 475.01 257.27 468.36 250.60 464.88 241.74
  Q 463.48 238.14 462.80 229.91
  C 462.01 220.19 461.91 213.70 459.78 204.99
  Q 458.39 199.30 452.92 197.12
  Q 448.35 195.30 443.08 192.73
  Q 436.98 189.74 434.13 186.94
  Q 426.14 179.11 425.92 168.30
  C 425.73 158.85 428.62 151.75 433.42 143.77
  A 0.49 0.49 0.0 0 1 434.12 143.62
  Q 446.04 151.74 455.57 161.34
  C 461.88 167.68 466.21 174.19 470.08 181.68
  C 471.33 184.11 475.04 185.33 477.58 183.90
  C 480.83 182.06 480.85 177.37 479.92 174.07
  Q 477.90 166.94 472.84 161.16
  Q 464.75 151.95 456.94 145.32
  Q 418.69 112.85 373.40 99.38
  Q 340.38 89.57 301.45 88.76
  Q 295.70 88.64 284.57 89.39
  C 270.15 90.37 258.61 91.54 245.80 94.83
  Q 237.11 97.06 219.97 103.47
  Q 206.63 108.46 193.17 104.36
  C 182.92 101.24 174.68 92.65 176.49 81.23
  Q 179.24 63.89 192.67 51.12
  Q 210.71 33.97 237.42 25.36
  Q 259.52 18.23 275.76 16.11
  C 292.86 13.88 311.15 12.81 328.79 13.18
  Q 374.31 14.13 419.42 24.62
  Q 484.73 39.82 543.22 74.04
  Q 570.72 90.13 592.38 110.36
  C 610.55 127.33 626.70 150.35 632.61 174.22
  Q 638.04 196.19 632.91 220.16
  Q 632.61 221.54 631.85 222.94
  A 1.41 1.39 -86.8 0 1 631.14 223.58
  Q 629.48 224.29 625.23 224.62
  Q 615.36 225.39 606.68 224.83
  C 602.13 224.53 595.74 222.97 590.43 221.46
  Q 568.80 215.31 546.41 205.04
  Q 535.90 200.22 521.48 192.98
  Q 517.74 191.11 513.70 190.52
  A 2.34 2.31 -50.1 0 0 512.66 190.62
  C 507.25 192.48 507.87 198.63 512.57 200.94
  Q 520.64 204.92 524.28 206.59
  A 0.34 0.34 0.0 0 1 524.30 207.19
  C 510.57 214.92 501.53 231.49 506.27 247.33
  Q 508.88 256.06 515.15 262.87
  Q 528.67 277.57 547.37 288.40
  Q 556.99 293.97 568.96 296.79
  Q 576.81 298.64 584.44 297.17
  Z"
/>
<path d="
  M 237.99 111.33
  A 0.32 0.32 0.0 0 1 237.95 110.71
  Q 267.08 101.46 297.19 102.20
  A 0.42 0.42 0.0 0 1 297.59 102.69
  Q 295.69 113.98 298.90 124.88
  A 0.30 0.30 0.0 0 1 298.53 125.26
  Q 276.70 118.96 254.28 114.13
  C 248.88 112.97 243.21 112.21 237.99 111.33
  Z"
/>
<path d="
  M 328.67 133.53
  L 313.80 129.33
  A 2.46 2.44 -2.1 0 1 312.16 127.82
  Q 307.81 115.94 309.63 103.30
  A 1.27 1.27 0.0 0 1 310.98 102.22
  L 328.94 103.61
  A 0.48 0.48 0.0 0 1 329.36 104.23
  Q 324.93 118.41 329.09 133.10
  A 0.35 0.34 89.5 0 1 328.67 133.53
  Z"
/>
<path d="
  M 357.97 141.85
  Q 349.10 139.06 345.89 137.93
  Q 343.40 137.06 342.41 133.82
  Q 338.26 120.29 341.71 106.35
  A 0.71 0.71 0.0 0 1 342.54 105.82
  L 362.28 109.63
  A 0.46 0.45 19.1 0 1 362.60 110.28
  C 357.93 119.68 356.99 131.50 358.38 141.50
  A 0.32 0.32 0.0 0 1 357.97 141.85
  Z"
/>
<path d="
  M 386.28 152.62
  L 385.93 152.27
  A 0.56 0.49 -10.4 0 0 385.71 152.14
  L 373.15 147.40
  A 2.43 2.41 5.5 0 1 371.63 145.57
  Q 368.69 128.75 374.23 113.45
  A 0.53 0.53 0.0 0 1 374.92 113.13
  L 395.12 121.13
  A 0.47 0.47 0.0 0 1 395.34 121.82
  Q 386.71 135.28 386.97 152.32
  A 0.41 0.41 0.0 0 1 386.28 152.62
  Z"
/>
<path d="
  M 413.40 166.76
  L 400.86 159.52
  A 2.38 2.36 -77.4 0 1 399.69 157.66
  Q 398.40 141.69 406.03 128.60
  A 1.37 1.37 0.0 0 1 407.80 128.06
  L 423.38 135.59
  A 0.51 0.50 30.4 0 1 423.58 136.33
  Q 414.09 150.04 413.89 166.48
  A 0.33 0.33 0.0 0 1 413.40 166.76
  Z"
/>
<path d="
  M 780.54 355.39
  A 0.19 0.19 0.0 0 1 780.26 355.62
  Q 767.23 346.53 752.52 342.23
  C 737.52 337.85 721.21 339.49 707.85 347.12
  Q 699.78 351.73 695.49 360.01
  C 693.62 363.62 691.72 368.99 688.17 372.21
  C 681.45 378.32 671.67 379.55 663.40 377.82
  C 661.21 377.36 656.51 376.10 653.48 375.97
  Q 645.35 375.63 637.63 379.37
  Q 594.62 400.20 549.80 416.30
  Q 537.92 420.56 526.97 422.41
  C 519.54 423.66 511.79 418.90 505.78 413.81
  Q 496.81 406.22 491.07 400.52
  C 475.67 385.24 462.83 372.08 451.97 359.16
  A 2.14 2.13 36.3 0 1 451.63 356.98
  Q 454.66 349.63 456.11 341.56
  Q 458.66 327.33 459.98 313.01
  C 460.30 309.46 459.88 305.56 457.08 303.30
  A 1.79 1.75 -22.9 0 0 456.09 302.91
  Q 450.57 302.51 449.16 307.72
  Q 447.98 312.10 447.84 312.96
  A 3.11 3.11 0.0 0 1 447.17 314.42
  C 443.67 318.60 439.14 320.72 433.85 322.11
  C 429.33 323.30 426.54 324.75 427.42 329.57
  C 429.00 338.23 441.71 332.29 445.75 329.82
  A 0.44 0.43 80.1 0 1 446.40 330.28
  L 444.05 342.44
  A 2.50 2.47 -10.9 0 1 442.92 344.09
  C 437.94 347.23 433.04 347.78 426.04 348.74
  C 420.41 349.51 417.94 357.33 423.73 359.98
  Q 425.10 360.61 429.28 360.28
  Q 433.23 359.96 439.37 358.46
  A 0.35 0.35 0.0 0 1 439.77 358.94
  C 436.88 365.75 431.80 375.13 425.01 377.50
  C 420.27 379.14 412.08 372.28 408.88 378.46
  C 406.72 382.65 409.44 386.19 413.49 387.57
  Q 418.02 389.12 421.67 389.48
  A 0.34 0.34 0.0 0 1 421.89 390.04
  Q 414.37 398.25 410.07 400.88
  Q 404.91 404.04 399.31 401.13
  Q 395.22 399.00 394.03 398.62
  A 2.66 2.66 0.0 0 0 392.35 398.62
  C 388.29 399.92 387.58 403.67 389.27 407.31
  Q 390.92 410.85 394.69 412.36
  A 0.45 0.44 29.8 0 1 394.88 413.05
  Q 391.20 417.82 386.02 420.11
  C 381.34 422.18 379.43 409.83 371.48 414.74
  Q 356.02 424.27 346.62 434.12
  Q 337.69 443.48 334.32 456.06
  Q 332.93 461.27 327.57 482.56
  A 0.34 0.34 0.0 0 1 326.94 482.63
  C 318.39 465.85 304.22 451.63 286.86 444.15
  Q 283.92 442.88 281.30 443.25
  C 277.63 443.77 276.50 448.71 278.12 451.42
  Q 279.07 453.02 282.57 454.81
  C 285.57 456.35 289.87 458.77 292.57 460.75
  Q 304.66 469.60 312.77 483.03
  Q 327.53 507.48 337.69 534.31
  Q 349.02 564.25 354.56 594.89
  C 356.54 605.87 357.30 616.73 349.50 625.51
  Q 346.06 629.38 339.93 634.43
  Q 330.86 641.89 320.67 648.41
  Q 300.95 661.02 280.78 671.51
  Q 264.78 679.83 259.13 682.87
  C 246.19 689.85 233.96 697.47 223.80 708.35
  Q 217.43 715.18 214.64 722.03
  C 209.69 734.18 209.24 746.78 210.09 759.94
  Q 210.41 764.79 212.14 769.12
  C 213.70 773.01 218.42 773.86 222.57 774.71
  C 229.41 776.11 235.44 775.66 243.75 776.28
  C 259.43 777.46 270.64 789.93 277.12 803.19
  A 0.27 0.27 0.0 0 1 276.77 803.55
  Q 269.76 800.33 262.92 799.20
  A 3.88 3.87 80.7 0 1 260.11 797.17
  C 252.80 783.12 241.14 775.66 225.03 778.06
  A 4.97 4.96 -7.4 0 0 220.83 783.51
  L 220.86 783.72
  A 4.86 4.85 -5.0 0 0 226.01 788.04
  Q 239.36 787.13 246.47 796.37
  Q 251.21 802.53 253.03 810.33
  A 0.26 0.25 5.8 0 1 252.67 810.62
  Q 243.25 806.18 232.86 805.59
  A 1.04 1.03 80.2 0 1 231.95 804.94
  Q 230.36 801.07 228.61 797.65
  Q 221.14 783.05 205.51 778.03
  C 203.29 777.31 200.36 776.82 198.36 778.33
  C 195.52 780.47 194.44 786.12 198.56 787.71
  Q 200.68 788.53 206.63 790.85
  Q 209.31 791.89 213.15 795.90
  Q 220.37 803.42 223.12 813.87
  A 0.30 0.30 0.0 0 1 222.63 814.17
  Q 221.66 813.34 220.42 812.82
  Q 209.06 808.11 196.25 807.97
  C 188.25 807.89 180.05 808.65 172.54 806.87
  Q 164.38 804.94 163.48 796.25
  C 162.57 787.41 164.99 777.79 167.77 769.26
  Q 173.29 752.36 174.87 747.42
  Q 182.09 724.72 185.89 701.71
  Q 186.18 699.95 187.55 696.27
  C 190.17 689.23 194.88 686.86 202.51 684.96
  C 213.61 682.20 224.52 678.55 233.62 671.30
  C 245.43 661.90 251.44 653.17 263.82 637.81
  Q 273.24 626.13 287.70 619.58
  C 292.03 617.62 297.86 616.27 301.79 614.59
  C 305.47 613.02 307.16 610.77 307.13 606.57
  Q 307.08 600.87 304.25 596.24
  Q 299.45 588.36 291.61 578.13
  Q 278.69 561.24 264.42 544.67
  Q 249.84 527.73 241.73 517.91
  Q 233.23 507.62 227.14 496.34
  Q 218.17 479.74 222.11 461.39
  Q 223.41 455.36 226.48 445.74
  Q 228.65 438.94 230.26 428.25
  C 232.50 413.38 234.73 394.90 238.59 377.54
  C 239.35 374.07 238.07 371.20 235.86 367.90
  Q 226.31 353.66 218.67 337.41
  Q 216.50 332.79 214.97 328.08
  A 0.86 0.85 69.2 0 1 215.44 327.03
  Q 228.22 321.40 242.04 315.07
  Q 254.09 309.55 266.25 306.73
  Q 272.63 305.24 279.76 307.20
  C 282.48 307.94 285.39 305.62 285.62 303.00
  C 286.46 293.73 269.75 294.32 264.76 295.29
  Q 249.57 298.23 235.36 304.87
  Q 217.45 313.23 205.88 317.89
  Q 198.58 320.83 165.36 332.59
  C 157.83 335.26 152.64 339.50 152.71 348.22
  Q 152.80 358.71 152.85 393.31
  C 152.87 409.09 153.64 423.77 155.34 437.97
  Q 156.41 446.84 158.83 454.68
  C 160.09 458.74 162.43 460.48 166.52 462.69
  Q 174.93 467.22 183.25 472.29
  Q 190.76 476.86 193.74 480.90
  C 200.27 489.78 201.27 499.19 199.67 509.77
  A 0.24 0.24 0.0 0 1 199.21 509.81
  C 196.95 502.90 191.17 495.22 183.60 493.63
  C 167.89 490.34 160.62 506.32 159.94 519.34
  C 159.10 535.12 165.37 547.20 173.06 560.55
  A 0.58 0.58 0.0 0 1 172.49 561.42
  Q 166.37 560.72 161.47 556.66
  Q 146.53 544.28 146.79 524.13
  Q 146.83 521.24 147.21 512.25
  C 147.33 509.43 146.38 506.81 143.65 505.49
  C 137.85 502.67 134.85 507.37 132.76 512.46
  Q 122.59 537.30 124.66 563.62
  A 0.31 0.31 0.0 0 1 124.13 563.86
  C 118.70 558.44 115.81 550.35 114.49 542.81
  Q 112.23 529.91 114.38 516.39
  Q 118.56 490.10 131.77 466.77
  Q 133.35 463.99 133.04 460.50
  Q 132.56 455.20 131.60 450.42
  Q 129.75 441.28 117.02 374.34
  C 115.77 367.76 113.89 361.86 112.24 356.05
  Q 109.86 347.71 110.44 337.56
  Q 111.22 323.76 122.37 314.57
  C 136.50 302.92 152.37 294.79 169.89 286.39
  C 187.15 278.11 208.80 270.69 222.97 255.47
  Q 230.36 247.54 231.66 246.16
  Q 242.09 235.09 256.80 227.06
  Q 262.74 223.82 268.68 222.19
  C 285.81 217.49 297.24 225.96 307.20 238.54
  Q 313.44 246.42 321.10 255.66
  C 328.73 264.86 336.60 272.95 346.71 278.79
  Q 349.49 280.40 361.09 284.87
  C 373.97 289.84 384.59 295.47 393.78 305.45
  Q 395.28 307.07 397.78 306.97
  C 401.45 306.81 403.57 303.20 402.90 299.77
  C 402.02 295.29 396.39 290.91 392.76 288.23
  Q 381.58 279.98 365.99 274.26
  Q 353.75 269.77 345.59 262.92
  C 339.84 258.10 334.39 252.11 329.22 245.35
  Q 321.69 235.48 310.46 222.72
  A 0.39 0.39 0.0 0 1 310.74 222.07
  Q 317.29 221.86 331.70 218.31
  C 349.04 214.04 361.91 202.39 363.44 184.24
  Q 364.93 166.45 353.47 153.23
  A 0.14 0.14 0.0 0 1 353.64 153.01
  Q 355.93 154.24 358.80 155.24
  Q 386.63 164.92 411.37 180.13
  Q 414.67 182.16 417.12 184.32
  A 5.59 5.50 -85.1 0 1 418.23 185.66
  C 425.13 197.25 433.71 203.65 446.34 207.68
  A 1.68 1.68 0.0 0 1 447.51 209.15
  Q 448.29 218.86 449.71 229.52
  C 450.99 239.09 453.72 246.41 458.62 253.97
  A 2.17 2.15 -44.8 0 1 458.60 256.33
  Q 443.20 279.52 423.98 298.43
  Q 422.05 300.33 422.95 303.40
  C 424.31 308.04 429.20 307.75 432.55 305.30
  C 435.66 303.03 437.93 301.54 440.01 299.42
  Q 448.73 290.52 456.25 279.92
  A 0.30 0.30 0.0 0 1 456.76 279.96
  C 462.43 291.62 466.27 301.26 466.96 314.01
  C 467.31 320.55 473.37 328.39 478.09 334.16
  Q 495.53 355.50 513.87 375.64
  C 518.18 380.37 520.50 383.15 526.99 381.72
  C 535.36 379.88 550.66 377.54 560.66 375.27
  Q 599.53 366.46 638.56 351.81
  Q 646.77 348.73 650.07 346.49
  C 657.14 341.70 661.62 334.58 666.15 327.16
  Q 685.66 295.14 687.63 292.64
  C 691.76 287.35 696.02 282.97 700.55 279.53
  C 713.29 269.88 729.43 270.15 744.14 276.08
  Q 752.82 279.57 757.56 287.59
  A 0.19 0.19 0.0 0 1 757.33 287.87
  C 744.51 283.28 729.92 283.69 718.04 290.75
  C 708.51 296.42 701.05 305.98 694.14 316.43
  Q 687.48 326.49 684.14 334.90
  Q 683.10 337.51 683.39 341.16
  C 683.92 348.00 692.36 349.13 693.96 342.45
  Q 695.47 336.13 695.95 334.72
  C 697.18 331.03 698.36 330.17 702.08 329.07
  Q 709.36 326.93 725.08 324.84
  C 740.36 322.81 753.73 325.65 765.53 335.32
  Q 775.79 343.72 780.54 355.39
  Z
  M 365.02 237.48
  A 0.11 0.11 0.0 0 0 364.86 237.48
  L 360.90 241.29
  A 0.21 0.18 -58.3 0 1 360.75 241.34
  L 360.38 241.28
  A 0.16 0.16 0.0 0 1 360.29 241.02
  L 369.02 231.52
  A 3.27 3.21 -12.4 0 0 369.62 230.60
  Q 370.38 229.06 375.53 221.52
  Q 382.09 211.91 388.33 195.36
  A 0.07 0.07 0.0 0 1 388.41 195.31
  L 388.66 195.35
  A 0.34 0.34 0.0 0 1 388.93 195.79
  Q 385.00 208.50 377.74 219.50
  C 375.14 223.43 373.14 226.78 370.48 230.24
  A 0.21 0.21 0.0 0 0 370.51 230.54
  L 370.53 230.55
  A 0.45 0.44 37.4 0 0 371.16 230.47
  Q 378.37 220.94 384.64 209.13
  Q 388.07 202.65 389.31 196.54
  A 2.75 2.68 -48.0 0 0 389.26 195.26
  Q 389.25 195.21 389.22 195.11
  A 3.04 2.98 -44.5 0 1 389.25 193.53
  C 390.50 189.22 390.79 183.70 385.33 182.98
  Q 380.75 182.37 378.98 187.05
  C 372.89 203.13 364.34 220.08 352.39 232.49
  C 349.80 235.17 348.37 238.54 350.72 241.72
  C 352.33 243.89 354.98 244.49 357.53 243.30
  Q 359.28 242.48 360.40 242.34
  A 2.09 2.04 17.0 0 0 361.64 241.70
  L 365.21 237.81
  A 0.12 0.11 43.2 0 0 365.20 237.65
  L 365.02 237.48
  Z
  M 386.97 265.20
  Q 388.92 264.09 390.21 262.44
  Q 391.84 260.34 396.01 255.29
  C 405.66 243.63 413.19 228.66 419.23 214.25
  C 421.04 209.91 421.61 202.18 414.87 202.36
  A 1.82 1.78 25.7 0 0 413.83 202.71
  Q 411.69 204.28 410.89 206.17
  Q 406.44 216.61 400.75 227.22
  Q 395.30 237.38 379.63 256.15
  C 375.35 261.28 381.12 265.64 385.89 265.50
  A 2.41 2.34 28.7 0 0 386.97 265.20
  Z
  M 419.8925 216.8919
  A 0.27 0.27 0.0 0 0 419.7532 216.5363
  L 419.7165 216.5203
  A 0.27 0.27 0.0 0 0 419.3610 216.6597
  L 412.9875 231.2481
  A 0.27 0.27 0.0 0 0 413.1268 231.6037
  L 413.1635 231.6197
  A 0.27 0.27 0.0 0 0 413.5190 231.4803
  L 419.8925 216.8919
  Z
  M 421.60 256.89
  C 418.35 262.36 414.80 267.33 411.12 272.17
  C 409.39 274.46 408.22 276.87 409.80 279.32
  C 416.11 289.09 429.64 266.33 431.69 262.88
  C 433.74 259.43 447.24 236.65 435.63 235.79
  C 432.73 235.57 431.17 237.76 430.00 240.37
  C 427.51 245.92 424.85 251.41 421.60 256.89
  Z
  M 352.15 321.50
  C 364.20 327.17 378.26 330.99 391.99 331.11
  Q 396.43 331.15 398.24 330.31
  C 401.51 328.79 402.51 324.12 400.06 321.50
  Q 398.54 319.86 395.27 319.68
  Q 374.88 318.57 357.39 310.35
  Q 339.91 302.13 326.04 287.13
  Q 323.82 284.73 321.59 284.61
  C 318.01 284.39 315.05 288.14 315.97 291.63
  Q 316.47 293.56 319.33 296.95
  C 328.19 307.45 340.10 315.84 352.15 321.50
  Z
  M 394.68 349.16
  Q 392.79 347.01 389.75 347.49
  C 381.09 348.87 372.34 350.11 363.73 349.01
  Q 337.85 345.69 318.37 329.33
  Q 310.78 322.94 306.57 317.68
  Q 304.55 315.16 302.09 312.99
  C 299.49 310.70 295.75 313.30 294.72 315.98
  C 293.81 318.35 294.92 321.01 296.33 322.90
  Q 306.12 336.01 319.60 345.66
  C 328.57 352.08 337.83 355.54 348.57 358.53
  C 360.93 361.98 373.75 361.83 386.25 359.52
  C 391.39 358.57 397.51 356.56 395.20 350.04
  A 2.62 2.55 15.2 0 0 394.68 349.16
  Z
  M 383.94 379.23
  Q 381.84 375.95 377.48 376.75
  C 358.55 380.21 338.19 380.51 320.34 372.40
  Q 293.57 360.23 278.36 336.18
  Q 276.50 333.24 275.28 332.72
  C 271.28 331.02 266.52 333.60 266.88 338.30
  Q 267.02 340.06 269.46 343.76
  Q 288.33 372.41 318.11 384.76
  C 326.99 388.45 335.95 390.61 345.67 391.08
  Q 362.64 391.90 378.85 387.32
  C 382.29 386.35 386.68 383.49 383.94 379.23
  Z
  M 255.40 360.04
  C 252.10 353.96 244.77 356.76 244.92 363.14
  A 3.25 3.24 -56.2 0 0 245.14 364.26
  Q 249.08 374.30 255.95 382.78
  Q 275.17 406.51 304.98 414.30
  C 315.61 417.08 325.92 416.94 337.26 415.93
  Q 342.62 415.45 347.93 413.71
  Q 352.34 412.26 351.64 407.86
  C 350.96 403.56 348.04 403.24 344.02 403.71
  Q 327.68 405.62 310.81 402.63
  C 287.38 398.48 266.40 380.32 255.40 360.04
  Z
  M 380.71 361.88
  C 376.43 362.46 372.57 362.07 368.83 362.77
  A 0.14 0.14 0.0 0 0 368.84 363.05
  Q 375.18 363.49 380.83 362.73
  Q 386.47 361.97 392.46 359.85
  A 0.14 0.14 0.0 0 0 392.41 359.58
  C 388.61 359.90 385.00 361.30 380.71 361.88
  Z
  M 365.22 391.45
  Q 356.74 392.65 347.91 392.52
  A 0.23 0.22 -8.4 0 0 347.69 392.81
  Q 347.76 393.03 348.04 393.07
  C 353.57 393.97 358.16 393.37 365.35 392.36
  C 372.53 391.34 377.10 390.63 382.17 388.23
  Q 382.43 388.11 382.43 387.88
  A 0.23 0.22 -7.8 0 0 382.14 387.66
  Q 373.70 390.24 365.22 391.45
  Z"
/>
<path d="
  M 310.91 211.01
  Q 305.01 212.69 298.24 212.60
  A 5.86 5.72 -33.5 0 1 296.20 212.21
  Q 286.97 208.67 278.08 208.81
  A 1.19 1.18 -6.6 0 1 276.91 207.89
  Q 273.41 192.45 265.88 178.36
  Q 262.46 171.94 259.07 167.71
  A 0.20 0.20 0.0 0 1 259.28 167.39
  Q 269.47 170.19 279.09 176.68
  Q 298.79 189.98 311.14 210.43
  A 0.39 0.39 0.0 0 1 310.91 211.01
  Z"
/>
<path d="
  M 147.07 168.07
  A 0.36 0.35 74.4 0 1 147.41 167.46
  C 170.23 176.19 190.47 191.36 205.63 211.43
  Q 214.81 223.58 222.60 236.43
  A 1.89 1.87 49.7 0 1 222.43 238.63
  C 219.70 241.83 216.15 246.32 212.35 249.26
  Q 207.12 253.31 201.81 256.59
  A 0.60 0.60 0.0 0 1 200.93 256.29
  Q 195.13 240.69 188.81 226.94
  Q 178.80 205.15 164.12 186.89
  Q 155.73 176.46 150.80 171.39
  Q 149.31 169.86 147.07 168.07
  Z"
/>
<path d="
  M 569.86 228.92
  L 562.27 236.73
  A 0.89 0.89 0.0 0 1 560.75 236.14
  L 560.33 225.26
  A 0.89 0.89 0.0 0 1 561.54 224.40
  L 569.54 227.47
  A 0.89 0.89 0.0 0 1 569.86 228.92
  Z"
/>
<path d="
  M 582.94 232.09
  L 591.48 234.50
  A 0.60 0.60 0.0 0 1 591.76 235.48
  L 583.84 244.10
  A 0.60 0.60 0.0 0 1 582.80 243.73
  L 582.18 232.70
  A 0.60 0.60 0.0 0 1 582.94 232.09
  Z"
/>
<path d="
  M 614.68 237.16
  A 0.56 0.55 20.1 0 1 615.09 238.03
  L 606.77 249.59
  A 0.13 0.12 -29.4 0 1 606.54 249.53
  L 605.85 237.16
  A 0.61 0.60 0.4 0 1 606.50 236.53
  L 614.68 237.16
  Z"
/>
<path d="
  M 112.28 253.27
  Q 136.66 261.37 154.49 279.40
  A 0.37 0.37 0.0 0 1 154.41 279.98
  L 137.99 289.46
  A 0.55 0.54 60.4 0 1 137.24 289.25
  C 130.24 276.74 122.08 264.22 112.15 253.48
  A 0.13 0.13 0.0 0 1 112.28 253.27
  Z"
/>
<path d="
  M 98.93 347.86
  A 0.26 0.26 0.0 0 1 98.47 348.06
  C 91.75 338.64 86.23 326.01 86.11 314.29
  A 0.49 0.48 16.2 0 1 86.86 313.88
  L 99.81 322.18
  A 1.35 1.35 0.0 0 1 100.36 323.75
  Q 96.55 334.93 98.93 347.86
  Z"
/>
<path d="
  M 746.68 400.51
  L 738.46 393.62
  A 2.81 2.71 -9.1 0 0 738.03 393.32
  C 730.51 389.19 723.26 387.32 714.46 385.35
  Q 704.73 383.18 691.67 384.35
  Q 697.40 379.62 700.84 373.72
  A 2.81 2.79 -75.2 0 1 703.22 372.33
  C 721.01 372.06 748.01 376.78 746.68 400.51
  Z"
/>
<path d="
  M 215.53 440.32
  A 0.27 0.26 31.9 0 1 215.05 440.43
  L 212.25 436.51
  A 0.39 0.39 0.0 0 1 212.60 435.89
  L 215.80 436.14
  A 0.38 0.37 -83.6 0 1 216.14 436.57
  L 215.53 440.32
  Z"
/>
<path d="
  M 68.02 449.69
  A 0.13 0.12 87.6 0 1 68.20 449.86
  Q 62.24 458.43 56.89 467.14
  Q 40.27 494.18 36.81 526.11
  C 33.54 556.29 38.88 584.61 61.26 606.17
  C 71.35 615.89 83.78 624.06 97.79 627.27
  Q 116.71 631.60 134.27 628.27
  C 150.37 625.22 166.40 618.07 178.68 606.70
  C 186.97 599.02 193.72 592.87 200.04 584.44
  C 209.13 572.31 217.53 558.57 220.98 544.20
  Q 224.07 531.29 225.47 518.16
  A 0.32 0.32 0.0 0 1 226.03 517.99
  Q 247.37 542.87 266.41 566.85
  Q 267.55 568.29 267.69 569.97
  A 1.76 1.76 0.0 0 1 267.51 570.90
  C 253.83 597.68 232.95 620.02 207.81 636.32
  C 173.54 658.55 130.69 666.22 91.57 652.92
  C 85.38 650.82 80.66 648.45 74.52 645.17
  Q 58.27 636.49 46.87 623.29
  C 29.36 603.02 21.92 573.36 23.24 546.75
  Q 24.27 526.15 30.33 506.31
  Q 32.35 499.67 35.66 492.89
  C 41.68 480.54 46.15 471.92 54.27 463.01
  Q 60.37 456.32 68.02 449.69
  Z"
/>
<path d="
  M 566.30 790.68
  A 0.24 0.24 0.0 0 1 566.00 791.00
  Q 555.97 787.35 545.86 786.56
  A 1.08 1.06 74.9 0 1 545.06 786.09
  Q 543.86 784.28 542.82 782.43
  C 538.66 775.03 532.12 768.74 524.15 765.51
  Q 514.12 761.45 505.35 761.63
  C 498.73 761.75 497.12 772.03 505.22 772.88
  C 507.11 773.07 510.92 773.35 513.54 774.05
  Q 531.19 778.75 536.76 796.77
  A 0.20 0.20 0.0 0 1 536.49 797.02
  Q 519.60 789.99 499.91 787.14
  Q 489.04 785.56 477.69 784.08
  Q 470.89 783.19 465.26 779.49
  A 2.96 2.95 88.0 0 1 464.49 778.77
  C 458.53 771.14 455.99 761.22 453.74 752.17
  C 451.36 742.63 447.38 733.70 442.87 726.63
  C 436.13 716.06 429.28 705.83 420.56 697.44
  Q 414.46 691.58 405.36 683.16
  C 400.83 678.97 397.60 673.47 398.63 667.30
  Q 399.06 664.69 402.13 661.10
  Q 406.23 656.31 411.60 648.85
  Q 420.49 636.51 422.98 622.24
  C 425.41 608.36 427.19 598.53 432.91 587.82
  C 438.59 577.18 449.35 567.92 460.26 560.04
  C 463.58 557.64 465.30 555.88 465.55 551.98
  A 2.33 2.28 37.1 0 0 465.40 550.97
  C 463.18 544.97 455.39 542.77 449.76 541.62
  Q 426.76 536.91 397.76 530.73
  Q 375.57 526.01 357.37 520.87
  Q 351.54 519.22 346.01 516.01
  C 343.75 514.70 342.52 513.53 341.44 510.99
  Q 338.37 503.74 334.41 496.53
  A 1.37 1.35 44.5 0 1 334.39 495.27
  C 339.21 485.63 341.16 476.01 344.77 461.26
  Q 346.27 455.15 348.38 450.70
  A 0.82 0.81 21.1 0 1 349.36 450.27
  C 359.59 453.37 371.51 456.07 381.68 459.24
  Q 425.43 472.87 465.35 495.16
  C 471.50 498.59 480.21 504.02 487.30 509.32
  C 498.53 517.72 506.05 522.80 514.00 530.76
  C 523.32 540.10 522.56 551.16 517.02 562.30
  C 511.01 574.37 502.92 584.36 493.73 594.49
  Q 493.60 594.62 464.51 626.26
  Q 452.67 639.13 444.18 653.94
  C 440.03 661.17 438.94 668.70 443.24 676.24
  Q 448.43 685.34 463.72 709.02
  Q 473.37 723.97 484.39 735.87
  C 498.96 751.60 517.94 757.90 539.28 756.38
  C 546.12 755.89 551.70 755.09 557.23 755.85
  Q 570.22 757.63 580.13 766.94
  Q 587.56 773.92 592.87 781.89
  A 0.21 0.20 80.9 0 1 592.65 782.20
  Q 583.57 779.78 574.84 779.73
  A 1.84 1.83 -15.2 0 1 573.26 778.83
  Q 568.73 771.23 562.12 764.97
  Q 555.09 758.32 545.55 757.91
  C 542.07 757.76 538.92 757.91 538.12 761.86
  C 537.07 767.05 540.19 768.21 544.93 768.98
  Q 550.70 769.91 555.57 774.76
  Q 562.21 781.35 566.30 790.68
  Z"
/>
</g>
<g fill="#1967aa">
<path d="
  M 338.12 0.00
  Q 429.58 4.45 512.42 42.87
  C 545.01 57.99 576.68 77.56 602.45 102.06
  Q 616.83 115.74 628.32 133.46
  C 639.07 150.03 646.54 169.19 647.80 188.81
  C 648.38 197.82 648.32 206.57 646.94 215.16
  C 645.29 225.46 643.81 232.48 633.87 235.60
  C 631.90 236.21 629.89 235.64 628.05 236.38
  A 1.06 1.04 -89.1 0 0 627.50 236.92
  Q 626.33 239.49 625.80 240.31
  C 620.64 248.28 616.49 254.74 610.05 260.51
  Q 605.80 264.33 601.52 262.42
  A 3.26 3.20 -2.5 0 1 600.04 261.09
  Q 597.36 256.46 597.00 250.26
  Q 596.85 247.68 595.78 245.57
  A 0.58 0.58 0.0 0 0 594.83 245.44
  Q 589.58 251.07 585.88 254.60
  C 582.53 257.80 575.35 260.93 573.75 253.93
  C 572.78 249.68 573.16 245.11 572.92 241.45
  A 0.34 0.34 0.0 0 0 572.35 241.21
  Q 566.95 246.01 561.52 249.17
  Q 559.19 250.53 556.22 249.92
  C 550.14 248.69 550.91 234.74 551.14 230.01
  Q 551.32 226.18 549.54 223.28
  A 0.75 0.75 0.0 0 0 548.22 223.37
  Q 547.52 224.97 546.47 226.26
  A 5.83 5.68 -16.1 0 0 545.53 227.91
  C 541.38 239.24 540.77 253.34 547.43 263.63
  A 0.67 0.66 61.6 0 0 548.25 263.88
  C 549.96 263.16 552.79 261.85 554.65 260.45
  Q 557.60 258.21 559.66 256.88
  A 3.30 3.11 17.7 0 1 560.39 256.53
  C 567.95 254.07 566.29 264.48 565.26 268.83
  Q 564.52 271.94 563.79 275.90
  A 0.70 0.69 83.0 0 0 564.76 276.66
  C 567.68 275.36 571.45 272.31 577.88 267.68
  Q 581.99 264.72 585.37 267.21
  A 3.33 3.21 88.6 0 1 586.10 267.93
  Q 587.96 270.47 586.18 273.74
  Q 582.64 280.26 580.93 284.96
  A 0.62 0.62 0.0 0 0 581.73 285.75
  Q 584.64 284.64 587.63 282.37
  Q 593.21 278.13 598.90 274.95
  A 1.22 1.19 -43.9 0 1 600.10 274.96
  C 601.96 276.06 604.71 278.92 603.81 281.05
  Q 601.01 287.68 598.44 294.78
  Q 595.56 302.76 592.90 306.51
  C 582.72 320.86 562.48 330.42 545.41 323.96
  Q 537.18 320.85 528.99 314.49
  Q 518.55 306.39 510.29 298.92
  C 504.23 293.45 494.85 285.78 489.87 281.65
  C 483.82 276.62 474.29 270.47 469.67 267.39
  Q 468.24 266.44 467.12 266.19
  A 2.04 1.83 -86.5 0 0 464.91 268.37
  Q 464.98 269.33 465.55 270.22
  Q 474.47 284.21 478.17 302.30
  C 479.23 307.46 478.84 315.88 483.01 321.19
  Q 497.30 339.38 514.26 357.69
  Q 519.59 363.44 524.77 368.20
  A 3.52 3.51 -28.8 0 0 527.79 369.07
  Q 558.42 363.39 587.97 355.65
  Q 593.93 354.08 607.25 349.99
  Q 625.75 344.30 638.59 338.57
  C 646.02 335.26 648.85 333.22 652.45 327.43
  Q 660.78 314.04 668.82 300.56
  C 676.64 287.44 686.26 273.45 700.24 266.29
  C 713.42 259.55 727.99 257.88 742.37 262.35
  C 758.73 267.45 773.99 281.18 776.13 298.86
  A 3.44 3.37 -44.4 0 1 776.11 299.76
  Q 775.44 303.90 771.22 305.72
  A 1.72 1.71 36.8 0 1 770.28 305.85
  Q 768.18 305.58 767.11 304.89
  C 754.41 296.84 738.45 294.77 724.21 300.01
  C 719.99 301.56 716.55 305.60 714.11 309.22
  C 712.94 310.95 710.77 312.29 709.69 314.36
  A 0.87 0.85 -1.6 0 1 709.33 314.73
  L 708.18 315.40
  A 0.59 0.58 70.7 0 0 707.89 316.01
  L 707.94 316.29
  A 0.44 0.44 0.0 0 0 708.50 316.64
  C 711.03 315.93 712.44 315.27 714.87 315.00
  Q 714.92 315.00 722.75 313.77
  C 732.84 312.18 744.13 312.33 754.20 315.34
  C 775.89 321.80 790.75 340.12 795.00 362.25
  L 795.00 368.87
  Q 794.26 374.62 788.89 374.94
  Q 785.70 375.13 783.42 373.06
  Q 777.47 367.67 773.90 364.87
  Q 752.64 348.24 726.22 352.85
  Q 716.82 354.49 709.46 359.64
  A 0.77 0.76 27.3 0 0 709.91 361.03
  C 722.80 360.96 735.98 363.98 746.07 372.31
  C 754.52 379.28 759.70 389.81 758.32 400.79
  Q 757.70 405.69 753.16 406.90
  Q 751.13 407.44 749.68 406.28
  Q 747.00 404.12 746.68 400.51
  C 748.01 376.78 721.01 372.06 703.22 372.33
  A 2.81 2.79 -75.2 0 0 700.84 373.72
  Q 697.40 379.62 691.67 384.35
  C 682.56 388.53 674.28 390.69 664.12 389.62
  C 660.57 389.24 655.45 387.85 651.57 388.13
  C 646.61 388.48 642.72 390.27 638.19 392.35
  Q 621.70 399.93 620.71 400.39
  Q 579.17 419.43 538.76 432.24
  Q 530.70 434.79 523.75 435.12
  C 517.40 435.42 510.77 431.97 505.63 428.36
  Q 497.43 422.62 486.40 412.00
  Q 480.15 405.98 448.92 374.42
  C 447.90 373.39 447.58 372.75 446.90 371.57
  A 0.38 0.38 0.0 0 0 446.24 371.56
  Q 441.56 379.15 435.57 385.09
  A 8.66 8.64 78.0 0 0 433.54 388.22
  C 429.89 397.96 424.26 406.19 415.11 411.61
  C 412.36 413.25 409.23 414.08 406.29 415.54
  A 3.29 3.27 -89.0 0 0 404.83 416.96
  Q 403.71 419.08 396.63 425.85
  Q 388.03 434.08 377.85 431.12
  C 376.04 430.59 375.44 429.99 374.21 428.60
  A 1.23 1.22 -38.3 0 0 372.57 428.41
  L 358.34 438.55
  A 0.68 0.68 0.0 0 0 358.56 439.76
  Q 386.07 447.13 412.89 456.89
  Q 442.09 467.53 473.52 485.48
  Q 488.59 494.09 510.49 511.48
  C 518.85 518.12 525.64 523.98 529.91 532.08
  C 535.41 542.50 533.46 555.58 528.38 566.40
  C 523.33 577.12 516.10 586.57 508.79 595.67
  Q 505.62 599.60 498.14 607.29
  Q 479.58 626.37 468.77 639.01
  Q 463.56 645.10 456.25 656.83
  C 452.46 662.91 451.64 667.42 455.19 673.32
  Q 468.17 694.94 482.38 714.90
  C 492.14 728.61 504.14 740.82 520.79 743.60
  Q 523.55 744.06 530.80 744.76
  A 13.75 13.38 -45.8 0 0 534.04 744.67
  Q 539.49 743.85 551.50 743.57
  C 574.21 743.03 590.63 756.99 602.54 774.93
  Q 607.58 782.54 607.25 790.05
  A 5.08 4.79 55.8 0 1 607.10 790.99
  C 605.39 797.58 600.37 796.13 594.70 794.09
  Q 587.31 791.43 579.17 789.88
  A 0.64 0.64 0.0 0 0 578.46 790.76
  Q 579.93 794.36 580.08 798.54
  Q 580.24 803.12 575.26 805.45
  A 2.16 2.14 -55.4 0 1 574.19 805.65
  Q 572.10 805.50 570.65 804.88
  Q 560.30 800.46 550.56 798.05
  A 1.26 1.26 0.0 0 0 549.11 799.80
  C 550.52 802.86 550.10 807.42 547.82 809.75
  C 545.14 812.48 541.66 811.89 537.88 810.39
  Q 517.14 802.16 499.86 799.42
  Q 497.62 799.07 475.52 795.73
  Q 453.49 792.40 446.97 771.28
  Q 445.72 767.23 443.09 757.39
  C 439.05 742.34 431.58 729.89 422.43 717.27
  C 416.02 708.43 408.33 700.40 399.70 693.33
  Q 393.93 688.60 390.03 682.74
  C 386.34 677.18 385.88 669.15 387.71 663.00
  C 389.71 656.24 395.16 650.66 401.55 643.32
  Q 404.61 639.81 407.41 633.70
  Q 410.50 626.97 412.14 616.17
  C 413.75 605.57 415.31 597.00 419.27 588.37
  Q 425.87 574.00 437.56 562.85
  C 440.35 560.19 443.83 557.85 447.65 554.94
  A 0.47 0.46 34.1 0 0 447.49 554.12
  Q 443.78 553.13 435.27 551.18
  Q 424.98 548.81 387.44 540.60
  Q 381.44 539.29 359.72 533.55
  C 356.44 532.69 353.62 531.34 350.50 530.39
  A 0.56 0.56 0.0 0 0 349.81 531.11
  Q 358.66 556.07 364.79 583.44
  Q 366.89 592.82 367.75 603.24
  Q 369.10 619.67 360.23 631.48
  Q 355.67 637.54 348.99 642.74
  Q 328.43 658.70 305.42 671.15
  Q 290.32 679.31 288.15 680.40
  Q 268.14 690.38 260.08 695.11
  C 249.64 701.23 241.90 706.05 234.64 712.90
  C 224.04 722.90 220.12 737.31 221.49 752.55
  Q 221.96 757.81 222.01 762.07
  A 1.97 1.97 0.0 0 0 223.97 764.01
  C 235.03 764.02 241.95 763.88 251.12 765.64
  C 271.32 769.50 283.44 787.59 291.02 805.24
  C 292.18 807.96 292.98 813.18 290.80 815.80
  Q 286.84 820.57 281.31 817.96
  Q 274.91 814.95 269.50 812.25
  Q 267.65 811.32 266.24 811.14
  A 1.28 1.28 0.0 0 0 264.89 812.87
  Q 266.66 817.39 265.22 821.49
  C 263.82 825.49 258.31 825.62 255.03 824.41
  Q 245.66 820.96 236.07 817.92
  A 0.82 0.82 0.0 0 0 235.00 818.63
  C 234.79 820.96 235.59 823.33 234.62 825.46
  Q 233.60 827.71 231.26 829.00
  L 228.37 829.00
  Q 223.18 826.98 218.11 824.64
  Q 212.16 821.89 199.50 820.80
  C 190.29 820.01 180.11 820.87 170.27 819.01
  C 158.26 816.74 151.57 807.17 150.88 795.18
  Q 150.27 784.76 153.77 773.98
  Q 159.08 757.62 164.44 740.82
  C 168.64 727.67 171.37 715.32 173.66 702.40
  C 175.65 691.12 180.92 679.30 192.38 675.66
  Q 193.59 675.28 202.44 673.15
  Q 208.20 671.77 216.76 667.99
  C 229.64 662.32 238.93 650.13 247.76 638.53
  C 253.18 631.42 258.78 625.23 264.53 620.01
  Q 274.45 611.00 290.90 605.53
  A 1.49 0.28 -12.4 0 0 291.05 605.47
  L 294.42 603.76
  A 0.63 0.62 -29.4 0 0 294.67 602.88
  Q 287.70 591.53 278.67 580.83
  Q 278.48 580.61 277.43 579.24
  A 0.66 0.66 0.0 0 0 276.31 579.35
  C 267.85 596.71 253.70 612.30 238.98 626.45
  Q 212.98 651.46 180.48 662.93
  Q 167.60 667.48 151.00 669.80
  C 149.32 670.03 147.38 669.65 146.06 670.33
  A 1.41 1.36 -3.4 0 0 145.40 671.05
  C 143.91 674.77 141.06 679.08 136.75 679.36
  C 131.33 679.71 127.95 675.68 124.65 672.18
  A 2.81 2.80 -16.9 0 0 123.03 671.32
  L 100.33 667.65
  A 0.85 0.83 34.3 0 0 99.77 667.75
  Q 93.87 671.17 92.62 671.85
  C 89.85 673.34 86.00 675.35 83.31 673.04
  C 79.38 669.66 77.96 664.71 76.56 659.55
  A 1.11 1.09 4.2 0 0 75.94 658.84
  Q 65.12 654.17 55.79 646.92
  A 2.79 2.79 0.0 0 0 53.21 646.47
  C 49.45 647.69 43.56 648.57 40.26 647.85
  C 33.28 646.32 34.74 635.25 36.55 629.96
  A 0.99 0.98 -54.6 0 0 36.40 629.06
  Q 28.76 619.09 23.53 609.26
  A 2.62 2.61 75.9 0 0 21.22 607.87
  C 16.69 607.85 9.47 606.08 8.93 600.81
  C 8.33 595.07 11.33 591.54 14.37 586.80
  A 3.07 3.07 0.0 0 0 14.81 584.63
  L 11.67 566.43
  A 1.59 1.54 13.0 0 0 11.00 565.40
  Q 4.48 561.01 0.00 554.82
  L 0.00 550.52
  C 1.06 546.65 6.72 544.59 9.87 543.11
  Q 12.16 542.03 12.01 539.51
  C 11.84 536.90 12.66 534.14 13.08 531.43
  Q 14.09 525.04 15.59 518.63
  A 0.80 0.79 29.3 0 0 15.37 517.87
  Q 9.56 512.13 7.84 506.03
  C 6.89 502.65 10.24 499.82 12.87 498.11
  A 1.20 1.07 17.3 0 1 13.20 497.96
  L 22.42 495.62
  A 1.90 1.89 6.4 0 0 23.64 494.65
  L 31.32 479.85
  A 1.38 1.29 -32.6 0 0 31.48 479.22
  Q 31.49 478.43 29.71 473.44
  Q 27.95 468.50 30.19 463.46
  A 2.03 2.02 85.1 0 1 30.93 462.58
  C 34.21 460.42 37.66 461.04 43.19 460.98
  A 1.93 1.92 18.6 0 0 44.69 460.24
  C 52.63 450.23 61.74 441.12 72.29 434.32
  Q 74.61 432.83 77.77 432.87
  Q 83.93 432.95 83.04 439.46
  Q 82.64 442.40 79.36 448.38
  C 75.79 454.88 69.59 463.95 65.69 471.56
  Q 55.05 492.31 50.56 514.49
  Q 48.28 525.75 48.07 538.99
  C 47.80 556.45 51.59 574.92 61.99 588.55
  Q 68.70 597.34 77.46 604.54
  A 1.29 1.29 0.0 0 0 79.27 604.37
  C 81.58 601.58 89.26 595.12 93.00 598.52
  Q 93.94 599.38 95.43 602.93
  Q 97.81 608.60 98.10 614.07
  A 1.51 1.51 0.0 0 0 99.25 615.47
  Q 105.89 617.08 112.82 617.93
  Q 116.24 618.35 119.26 617.80
  A 0.76 0.75 89.5 0 0 119.88 617.16
  Q 120.53 612.78 122.62 606.39
  C 123.78 602.82 127.16 598.04 131.38 600.68
  C 136.18 603.69 139.99 608.62 143.34 613.42
  A 1.69 1.68 -26.2 0 0 145.24 614.06
  Q 155.05 610.89 163.24 604.30
  A 1.44 1.42 -24.9 0 0 163.75 602.92
  Q 162.28 595.12 163.26 586.50
  Q 163.47 584.62 164.46 582.89
  A 1.21 1.19 -81.7 0 1 165.23 582.31
  C 170.35 581.03 176.89 584.58 181.26 587.57
  A 0.61 0.61 0.0 0 0 181.98 587.54
  Q 183.47 586.36 185.02 584.52
  Q 193.02 574.98 199.07 565.22
  A 2.58 2.57 -44.1 0 0 199.12 562.60
  Q 196.71 558.37 195.91 556.11
  C 194.98 553.45 193.80 548.02 196.45 545.98
  C 199.39 543.72 203.74 543.35 207.68 542.89
  C 209.74 542.65 209.74 541.26 210.16 539.24
  Q 213.48 523.18 216.40 509.20
  Q 217.41 504.34 216.34 498.03
  A 3.40 3.15 -66.0 0 0 216.02 497.09
  Q 212.15 489.75 210.56 480.35
  Q 209.56 474.41 210.09 469.60
  Q 210.49 465.95 211.54 458.81
  A 3.33 3.31 -58.8 0 0 210.96 456.41
  Q 206.48 450.17 197.93 437.85
  Q 196.40 435.64 194.45 429.84
  A 2.36 2.30 44.3 0 1 194.42 428.52
  C 196.07 422.69 201.80 423.02 206.78 422.98
  Q 208.66 422.97 216.76 422.97
  A 1.97 1.96 -86.5 0 0 218.71 421.24
  Q 220.70 404.40 224.11 384.05
  Q 224.70 380.48 225.91 376.66
  A 2.73 2.70 -55.5 0 0 225.46 374.17
  C 216.69 363.02 210.15 349.12 205.41 335.78
  Q 205.09 334.90 204.93 333.96
  C 204.60 332.11 202.87 331.81 201.26 332.48
  Q 189.33 337.45 174.02 342.81
  C 171.30 343.77 168.86 345.03 166.40 346.20
  A 2.57 2.56 -12.9 0 0 164.93 348.53
  C 164.98 384.68 164.21 406.30 166.78 434.25
  Q 167.07 437.41 169.16 449.03
  A 2.16 2.12 -69.0 0 0 169.56 449.95
  Q 171.05 451.91 172.69 452.88
  Q 179.15 456.66 190.47 462.88
  Q 196.22 466.04 203.50 474.11
  C 215.59 487.50 214.70 513.11 203.84 526.85
  Q 199.85 531.89 194.04 529.40
  C 189.79 527.58 191.50 522.09 190.66 518.53
  Q 188.60 509.67 180.77 505.28
  C 178.01 503.73 175.59 506.44 174.50 508.77
  C 170.66 516.92 171.67 527.43 174.79 535.57
  C 178.01 544.01 183.15 553.44 188.21 562.38
  C 191.50 568.19 189.54 572.33 183.02 573.55
  C 174.45 575.14 166.27 573.95 158.58 569.09
  Q 144.65 560.30 138.83 545.05
  C 138.00 542.89 138.01 540.59 136.57 538.36
  A 0.30 0.30 0.0 0 0 136.02 538.51
  L 135.76 544.83
  A 3.23 2.04 -50.7 0 1 135.71 545.24
  Q 134.61 550.71 134.97 553.76
  Q 136.83 569.48 137.05 573.74
  C 137.37 579.83 131.90 582.56 126.82 580.45
  C 117.10 576.42 109.49 566.30 105.81 557.00
  C 101.12 545.18 100.11 533.76 101.52 520.85
  Q 104.11 497.14 114.05 475.89
  C 115.99 471.73 117.33 468.51 119.14 463.94
  Q 120.64 460.14 119.64 455.13
  Q 113.68 425.30 103.32 371.72
  A 1.86 1.84 -80.4 0 0 102.46 370.49
  C 100.20 369.14 98.85 367.18 97.18 365.27
  Q 79.99 345.59 73.74 320.02
  Q 72.33 314.24 72.84 309.09
  C 73.42 303.22 77.69 297.62 84.20 298.36
  Q 86.47 298.62 90.85 301.54
  Q 98.49 306.63 105.57 311.47
  A 2.08 2.07 -49.3 0 0 108.14 311.27
  Q 116.64 303.37 125.68 297.54
  A 0.81 0.81 0.0 0 0 125.97 296.49
  C 117.07 278.89 105.09 263.53 91.21 249.61
  C 87.33 245.71 88.22 238.94 94.25 238.03
  Q 98.20 237.43 102.22 238.08
  Q 125.25 241.79 144.73 254.79
  Q 151.35 259.20 160.05 266.73
  Q 164.03 270.16 165.06 272.14
  C 166.24 274.40 167.39 274.38 169.54 273.26
  C 176.48 269.66 182.31 267.58 188.47 264.31
  A 0.49 0.49 0.0 0 0 188.71 263.72
  C 178.06 230.35 161.12 197.94 135.31 173.88
  Q 130.50 169.38 125.53 164.02
  C 123.81 162.15 122.27 159.39 123.15 156.79
  Q 124.61 152.46 129.44 151.96
  Q 133.96 151.50 139.64 152.64
  C 174.98 159.73 203.09 183.92 222.65 213.11
  Q 226.83 219.35 232.46 228.98
  A 0.54 0.54 0.0 0 0 233.28 229.11
  Q 247.64 216.62 265.21 211.01
  A 0.60 0.60 0.0 0 0 265.60 210.26
  C 261.19 196.00 254.82 182.03 246.02 170.38
  C 242.30 165.45 240.58 163.60 239.35 159.63
  A 1.88 1.85 -44.5 0 1 239.37 158.47
  Q 241.12 153.31 245.68 152.97
  Q 252.50 152.47 259.54 154.22
  Q 276.42 158.40 290.22 168.54
  C 295.63 172.51 302.04 177.91 306.96 183.65
  Q 314.84 192.83 317.69 197.06
  Q 321.67 202.97 324.67 207.23
  A 1.95 1.95 0.0 0 0 326.87 207.96
  Q 331.43 206.45 334.50 205.22
  C 339.97 203.02 345.54 198.06 348.13 192.90
  C 353.06 183.09 351.72 171.92 345.07 163.11
  C 338.52 154.42 330.41 150.66 320.06 146.41
  Q 311.30 142.82 296.54 138.52
  Q 267.06 129.93 245.75 125.52
  Q 228.22 121.90 204.29 120.42
  Q 199.77 120.14 191.90 117.83
  C 181.37 114.75 171.79 107.98 166.73 98.14
  Q 164.12 93.06 163.80 85.95
  Q 163.18 72.25 170.04 60.04
  C 175.37 50.54 182.45 42.10 191.14 35.35
  C 211.13 19.85 233.79 11.12 258.42 5.66
  Q 276.92 1.56 303.01 0.00
  L 338.12 0.00
  Z
  M 584.44 297.17
  Q 576.81 298.64 568.96 296.79
  Q 556.99 293.97 547.37 288.40
  Q 528.67 277.57 515.15 262.87
  Q 508.88 256.06 506.27 247.33
  C 501.53 231.49 510.57 214.92 524.30 207.19
  A 0.34 0.34 0.0 0 0 524.28 206.59
  Q 520.64 204.92 512.57 200.94
  C 507.87 198.63 507.25 192.48 512.66 190.62
  A 2.34 2.31 -50.1 0 1 513.70 190.52
  Q 517.74 191.11 521.48 192.98
  Q 535.90 200.22 546.41 205.04
  Q 568.80 215.31 590.43 221.46
  C 595.74 222.97 602.13 224.53 606.68 224.83
  Q 615.36 225.39 625.23 224.62
  Q 629.48 224.29 631.14 223.58
  A 1.41 1.39 -86.8 0 0 631.85 222.94
  Q 632.61 221.54 632.91 220.16
  Q 638.04 196.19 632.61 174.22
  C 626.70 150.35 610.55 127.33 592.38 110.36
  Q 570.72 90.13 543.22 74.04
  Q 484.73 39.82 419.42 24.62
  Q 374.31 14.13 328.79 13.18
  C 311.15 12.81 292.86 13.88 275.76 16.11
  Q 259.52 18.23 237.42 25.36
  Q 210.71 33.97 192.67 51.12
  Q 179.24 63.89 176.49 81.23
  C 174.68 92.65 182.92 101.24 193.17 104.36
  Q 206.63 108.46 219.97 103.47
  Q 237.11 97.06 245.80 94.83
  C 258.61 91.54 270.15 90.37 284.57 89.39
  Q 295.70 88.64 301.45 88.76
  Q 340.38 89.57 373.40 99.38
  Q 418.69 112.85 456.94 145.32
  Q 464.75 151.95 472.84 161.16
  Q 477.90 166.94 479.92 174.07
  C 480.85 177.37 480.83 182.06 477.58 183.90
  C 475.04 185.33 471.33 184.11 470.08 181.68
  C 466.21 174.19 461.88 167.68 455.57 161.34
  Q 446.04 151.74 434.12 143.62
  A 0.49 0.49 0.0 0 0 433.42 143.77
  C 428.62 151.75 425.73 158.85 425.92 168.30
  Q 426.14 179.11 434.13 186.94
  Q 436.98 189.74 443.08 192.73
  Q 448.35 195.30 452.92 197.12
  Q 458.39 199.30 459.78 204.99
  C 461.91 213.70 462.01 220.19 462.80 229.91
  Q 463.48 238.14 464.88 241.74
  C 468.36 250.60 475.01 257.27 483.08 262.95
  Q 496.04 272.06 506.32 280.72
  Q 526.39 297.64 535.05 304.24
  C 540.48 308.38 546.18 312.21 552.20 312.86
  Q 568.69 314.62 580.29 303.36
  C 582.15 301.55 583.20 299.67 584.71 297.60
  A 0.27 0.27 0.0 0 0 584.44 297.17
  Z
  M 237.99 111.33
  C 243.21 112.21 248.88 112.97 254.28 114.13
  Q 276.70 118.96 298.53 125.26
  A 0.30 0.30 0.0 0 0 298.90 124.88
  Q 295.69 113.98 297.59 102.69
  A 0.42 0.42 0.0 0 0 297.19 102.20
  Q 267.08 101.46 237.95 110.71
  A 0.32 0.32 0.0 0 0 237.99 111.33
  Z
  M 329.09 133.10
  Q 324.93 118.41 329.36 104.23
  A 0.48 0.48 0.0 0 0 328.94 103.61
  L 310.98 102.22
  A 1.27 1.27 0.0 0 0 309.63 103.30
  Q 307.81 115.94 312.16 127.82
  A 2.46 2.44 -2.1 0 0 313.80 129.33
  L 328.67 133.53
  A 0.35 0.34 89.5 0 0 329.09 133.10
  Z
  M 358.38 141.50
  C 356.99 131.50 357.93 119.68 362.60 110.28
  A 0.46 0.45 19.1 0 0 362.28 109.63
  L 342.54 105.82
  A 0.71 0.71 0.0 0 0 341.71 106.35
  Q 338.26 120.29 342.41 133.82
  Q 343.40 137.06 345.89 137.93
  Q 349.10 139.06 357.97 141.85
  A 0.32 0.32 0.0 0 0 358.38 141.50
  Z
  M 386.97 152.32
  Q 386.71 135.28 395.34 121.82
  A 0.47 0.47 0.0 0 0 395.12 121.13
  L 374.92 113.13
  A 0.53 0.53 0.0 0 0 374.23 113.45
  Q 368.69 128.75 371.63 145.57
  A 2.43 2.41 5.5 0 0 373.15 147.40
  L 385.71 152.14
  A 0.56 0.49 -10.4 0 1 385.93 152.27
  L 386.28 152.62
  A 0.41 0.41 0.0 0 0 386.97 152.32
  Z
  M 413.89 166.48
  Q 414.09 150.04 423.58 136.33
  A 0.51 0.50 30.4 0 0 423.38 135.59
  L 407.80 128.06
  A 1.37 1.37 0.0 0 0 406.03 128.60
  Q 398.40 141.69 399.69 157.66
  A 2.38 2.36 -77.4 0 0 400.86 159.52
  L 413.40 166.76
  A 0.33 0.33 0.0 0 0 413.89 166.48
  Z
  M 780.54 355.39
  Q 775.79 343.72 765.53 335.32
  C 753.73 325.65 740.36 322.81 725.08 324.84
  Q 709.36 326.93 702.08 329.07
  C 698.36 330.17 697.18 331.03 695.95 334.72
  Q 695.47 336.13 693.96 342.45
  C 692.36 349.13 683.92 348.00 683.39 341.16
  Q 683.10 337.51 684.14 334.90
  Q 687.48 326.49 694.14 316.43
  C 701.05 305.98 708.51 296.42 718.04 290.75
  C 729.92 283.69 744.51 283.28 757.33 287.87
  A 0.19 0.19 0.0 0 0 757.56 287.59
  Q 752.82 279.57 744.14 276.08
  C 729.43 270.15 713.29 269.88 700.55 279.53
  C 696.02 282.97 691.76 287.35 687.63 292.64
  Q 685.66 295.14 666.15 327.16
  C 661.62 334.58 657.14 341.70 650.07 346.49
  Q 646.77 348.73 638.56 351.81
  Q 599.53 366.46 560.66 375.27
  C 550.66 377.54 535.36 379.88 526.99 381.72
  C 520.50 383.15 518.18 380.37 513.87 375.64
  Q 495.53 355.50 478.09 334.16
  C 473.37 328.39 467.31 320.55 466.96 314.01
  C 466.27 301.26 462.43 291.62 456.76 279.96
  A 0.30 0.30 0.0 0 0 456.25 279.92
  Q 448.73 290.52 440.01 299.42
  C 437.93 301.54 435.66 303.03 432.55 305.30
  C 429.20 307.75 424.31 308.04 422.95 303.40
  Q 422.05 300.33 423.98 298.43
  Q 443.20 279.52 458.60 256.33
  A 2.17 2.15 -44.8 0 0 458.62 253.97
  C 453.72 246.41 450.99 239.09 449.71 229.52
  Q 448.29 218.86 447.51 209.15
  A 1.68 1.68 0.0 0 0 446.34 207.68
  C 433.71 203.65 425.13 197.25 418.23 185.66
  A 5.59 5.50 -85.1 0 0 417.12 184.32
  Q 414.67 182.16 411.37 180.13
  Q 386.63 164.92 358.80 155.24
  Q 355.93 154.24 353.64 153.01
  A 0.14 0.14 0.0 0 0 353.47 153.23
  Q 364.93 166.45 363.44 184.24
  C 361.91 202.39 349.04 214.04 331.70 218.31
  Q 317.29 221.86 310.74 222.07
  A 0.39 0.39 0.0 0 0 310.46 222.72
  Q 321.69 235.48 329.22 245.35
  C 334.39 252.11 339.84 258.10 345.59 262.92
  Q 353.75 269.77 365.99 274.26
  Q 381.58 279.98 392.76 288.23
  C 396.39 290.91 402.02 295.29 402.90 299.77
  C 403.57 303.20 401.45 306.81 397.78 306.97
  Q 395.28 307.07 393.78 305.45
  C 384.59 295.47 373.97 289.84 361.09 284.87
  Q 349.49 280.40 346.71 278.79
  C 336.60 272.95 328.73 264.86 321.10 255.66
  Q 313.44 246.42 307.20 238.54
  C 297.24 225.96 285.81 217.49 268.68 222.19
  Q 262.74 223.82 256.80 227.06
  Q 242.09 235.09 231.66 246.16
  Q 230.36 247.54 222.97 255.47
  C 208.80 270.69 187.15 278.11 169.89 286.39
  C 152.37 294.79 136.50 302.92 122.37 314.57
  Q 111.22 323.76 110.44 337.56
  Q 109.86 347.71 112.24 356.05
  C 113.89 361.86 115.77 367.76 117.02 374.34
  Q 129.75 441.28 131.60 450.42
  Q 132.56 455.20 133.04 460.50
  Q 133.35 463.99 131.77 466.77
  Q 118.56 490.10 114.38 516.39
  Q 112.23 529.91 114.49 542.81
  C 115.81 550.35 118.70 558.44 124.13 563.86
  A 0.31 0.31 0.0 0 0 124.66 563.62
  Q 122.59 537.30 132.76 512.46
  C 134.85 507.37 137.85 502.67 143.65 505.49
  C 146.38 506.81 147.33 509.43 147.21 512.25
  Q 146.83 521.24 146.79 524.13
  Q 146.53 544.28 161.47 556.66
  Q 166.37 560.72 172.49 561.42
  A 0.58 0.58 0.0 0 0 173.06 560.55
  C 165.37 547.20 159.10 535.12 159.94 519.34
  C 160.62 506.32 167.89 490.34 183.60 493.63
  C 191.17 495.22 196.95 502.90 199.21 509.81
  A 0.24 0.24 0.0 0 0 199.67 509.77
  C 201.27 499.19 200.27 489.78 193.74 480.90
  Q 190.76 476.86 183.25 472.29
  Q 174.93 467.22 166.52 462.69
  C 162.43 460.48 160.09 458.74 158.83 454.68
  Q 156.41 446.84 155.34 437.97
  C 153.64 423.77 152.87 409.09 152.85 393.31
  Q 152.80 358.71 152.71 348.22
  C 152.64 339.50 157.83 335.26 165.36 332.59
  Q 198.58 320.83 205.88 317.89
  Q 217.45 313.23 235.36 304.87
  Q 249.57 298.23 264.76 295.29
  C 269.75 294.32 286.46 293.73 285.62 303.00
  C 285.39 305.62 282.48 307.94 279.76 307.20
  Q 272.63 305.24 266.25 306.73
  Q 254.09 309.55 242.04 315.07
  Q 228.22 321.40 215.44 327.03
  A 0.86 0.85 69.2 0 0 214.97 328.08
  Q 216.50 332.79 218.67 337.41
  Q 226.31 353.66 235.86 367.90
  C 238.07 371.20 239.35 374.07 238.59 377.54
  C 234.73 394.90 232.50 413.38 230.26 428.25
  Q 228.65 438.94 226.48 445.74
  Q 223.41 455.36 222.11 461.39
  Q 218.17 479.74 227.14 496.34
  Q 233.23 507.62 241.73 517.91
  Q 249.84 527.73 264.42 544.67
  Q 278.69 561.24 291.61 578.13
  Q 299.45 588.36 304.25 596.24
  Q 307.08 600.87 307.13 606.57
  C 307.16 610.77 305.47 613.02 301.79 614.59
  C 297.86 616.27 292.03 617.62 287.70 619.58
  Q 273.24 626.13 263.82 637.81
  C 251.44 653.17 245.43 661.90 233.62 671.30
  C 224.52 678.55 213.61 682.20 202.51 684.96
  C 194.88 686.86 190.17 689.23 187.55 696.27
  Q 186.18 699.95 185.89 701.71
  Q 182.09 724.72 174.87 747.42
  Q 173.29 752.36 167.77 769.26
  C 164.99 777.79 162.57 787.41 163.48 796.25
  Q 164.38 804.94 172.54 806.87
  C 180.05 808.65 188.25 807.89 196.25 807.97
  Q 209.06 808.11 220.42 812.82
  Q 221.66 813.34 222.63 814.17
  A 0.30 0.30 0.0 0 0 223.12 813.87
  Q 220.37 803.42 213.15 795.90
  Q 209.31 791.89 206.63 790.85
  Q 200.68 788.53 198.56 787.71
  C 194.44 786.12 195.52 780.47 198.36 778.33
  C 200.36 776.82 203.29 777.31 205.51 778.03
  Q 221.14 783.05 228.61 797.65
  Q 230.36 801.07 231.95 804.94
  A 1.04 1.03 80.2 0 0 232.86 805.59
  Q 243.25 806.18 252.67 810.62
  A 0.26 0.25 5.8 0 0 253.03 810.33
  Q 251.21 802.53 246.47 796.37
  Q 239.36 787.13 226.01 788.04
  A 4.86 4.85 -5.0 0 1 220.86 783.72
  L 220.83 783.51
  A 4.97 4.96 -7.4 0 1 225.03 778.06
  C 241.14 775.66 252.80 783.12 260.11 797.17
  A 3.88 3.87 80.7 0 0 262.92 799.20
  Q 269.76 800.33 276.77 803.55
  A 0.27 0.27 0.0 0 0 277.12 803.19
  C 270.64 789.93 259.43 777.46 243.75 776.28
  C 235.44 775.66 229.41 776.11 222.57 774.71
  C 218.42 773.86 213.70 773.01 212.14 769.12
  Q 210.41 764.79 210.09 759.94
  C 209.24 746.78 209.69 734.18 214.64 722.03
  Q 217.43 715.18 223.80 708.35
  C 233.96 697.47 246.19 689.85 259.13 682.87
  Q 264.78 679.83 280.78 671.51
  Q 300.95 661.02 320.67 648.41
  Q 330.86 641.89 339.93 634.43
  Q 346.06 629.38 349.50 625.51
  C 357.30 616.73 356.54 605.87 354.56 594.89
  Q 349.02 564.25 337.69 534.31
  Q 327.53 507.48 312.77 483.03
  Q 304.66 469.60 292.57 460.75
  C 289.87 458.77 285.57 456.35 282.57 454.81
  Q 279.07 453.02 278.12 451.42
  C 276.50 448.71 277.63 443.77 281.30 443.25
  Q 283.92 442.88 286.86 444.15
  C 304.22 451.63 318.39 465.85 326.94 482.63
  A 0.34 0.34 0.0 0 0 327.57 482.56
  Q 332.93 461.27 334.32 456.06
  Q 337.69 443.48 346.62 434.12
  Q 356.02 424.27 371.48 414.74
  C 379.43 409.83 381.34 422.18 386.02 420.11
  Q 391.20 417.82 394.88 413.05
  A 0.45 0.44 29.8 0 0 394.69 412.36
  Q 390.92 410.85 389.27 407.31
  C 387.58 403.67 388.29 399.92 392.35 398.62
  A 2.66 2.66 0.0 0 1 394.03 398.62
  Q 395.22 399.00 399.31 401.13
  Q 404.91 404.04 410.07 400.88
  Q 414.37 398.25 421.89 390.04
  A 0.34 0.34 0.0 0 0 421.67 389.48
  Q 418.02 389.12 413.49 387.57
  C 409.44 386.19 406.72 382.65 408.88 378.46
  C 412.08 372.28 420.27 379.14 425.01 377.50
  C 431.80 375.13 436.88 365.75 439.77 358.94
  A 0.35 0.35 0.0 0 0 439.37 358.46
  Q 433.23 359.96 429.28 360.28
  Q 425.10 360.61 423.73 359.98
  C 417.94 357.33 420.41 349.51 426.04 348.74
  C 433.04 347.78 437.94 347.23 442.92 344.09
  A 2.50 2.47 -10.9 0 0 444.05 342.44
  L 446.40 330.28
  A 0.44 0.43 80.1 0 0 445.75 329.82
  C 441.71 332.29 429.00 338.23 427.42 329.57
  C 426.54 324.75 429.33 323.30 433.85 322.11
  C 439.14 320.72 443.67 318.60 447.17 314.42
  A 3.11 3.11 0.0 0 0 447.84 312.96
  Q 447.98 312.10 449.16 307.72
  Q 450.57 302.51 456.09 302.91
  A 1.79 1.75 -22.9 0 1 457.08 303.30
  C 459.88 305.56 460.30 309.46 459.98 313.01
  Q 458.66 327.33 456.11 341.56
  Q 454.66 349.63 451.63 356.98
  A 2.14 2.13 36.3 0 0 451.97 359.16
  C 462.83 372.08 475.67 385.24 491.07 400.52
  Q 496.81 406.22 505.78 413.81
  C 511.79 418.90 519.54 423.66 526.97 422.41
  Q 537.92 420.56 549.80 416.30
  Q 594.62 400.20 637.63 379.37
  Q 645.35 375.63 653.48 375.97
  C 656.51 376.10 661.21 377.36 663.40 377.82
  C 671.67 379.55 681.45 378.32 688.17 372.21
  C 691.72 368.99 693.62 363.62 695.49 360.01
  Q 699.78 351.73 707.85 347.12
  C 721.21 339.49 737.52 337.85 752.52 342.23
  Q 767.23 346.53 780.26 355.62
  A 0.19 0.19 0.0 0 0 780.54 355.39
  Z
  M 311.14 210.43
  Q 298.79 189.98 279.09 176.68
  Q 269.47 170.19 259.28 167.39
  A 0.20 0.20 0.0 0 0 259.07 167.71
  Q 262.46 171.94 265.88 178.36
  Q 273.41 192.45 276.91 207.89
  A 1.19 1.18 -6.6 0 0 278.08 208.81
  Q 286.97 208.67 296.20 212.21
  A 5.86 5.72 -33.5 0 0 298.24 212.60
  Q 305.01 212.69 310.91 211.01
  A 0.39 0.39 0.0 0 0 311.14 210.43
  Z
  M 147.07 168.07
  Q 149.31 169.86 150.80 171.39
  Q 155.73 176.46 164.12 186.89
  Q 178.80 205.15 188.81 226.94
  Q 195.13 240.69 200.93 256.29
  A 0.60 0.60 0.0 0 0 201.81 256.59
  Q 207.12 253.31 212.35 249.26
  C 216.15 246.32 219.70 241.83 222.43 238.63
  A 1.89 1.87 49.7 0 0 222.60 236.43
  Q 214.81 223.58 205.63 211.43
  C 190.47 191.36 170.23 176.19 147.41 167.46
  A 0.36 0.35 74.4 0 0 147.07 168.07
  Z
  M 569.86 228.92
  A 0.89 0.89 0.0 0 0 569.54 227.47
  L 561.54 224.40
  A 0.89 0.89 0.0 0 0 560.33 225.26
  L 560.75 236.14
  A 0.89 0.89 0.0 0 0 562.27 236.73
  L 569.86 228.92
  Z
  M 582.94 232.09
  A 0.60 0.60 0.0 0 0 582.18 232.70
  L 582.80 243.73
  A 0.60 0.60 0.0 0 0 583.84 244.10
  L 591.76 235.48
  A 0.60 0.60 0.0 0 0 591.48 234.50
  L 582.94 232.09
  Z
  M 614.68 237.16
  L 606.50 236.53
  A 0.61 0.60 0.4 0 0 605.85 237.16
  L 606.54 249.53
  A 0.13 0.12 -29.4 0 0 606.77 249.59
  L 615.09 238.03
  A 0.56 0.55 20.1 0 0 614.68 237.16
  Z
  M 112.28 253.27
  A 0.13 0.13 0.0 0 0 112.15 253.48
  C 122.08 264.22 130.24 276.74 137.24 289.25
  A 0.55 0.54 60.4 0 0 137.99 289.46
  L 154.41 279.98
  A 0.37 0.37 0.0 0 0 154.49 279.40
  Q 136.66 261.37 112.28 253.27
  Z
  M 98.93 347.86
  Q 96.55 334.93 100.36 323.75
  A 1.35 1.35 0.0 0 0 99.81 322.18
  L 86.86 313.88
  A 0.49 0.48 16.2 0 0 86.11 314.29
  C 86.23 326.01 91.75 338.64 98.47 348.06
  A 0.26 0.26 0.0 0 0 98.93 347.86
  Z
  M 215.53 440.32
  L 216.14 436.57
  A 0.38 0.37 -83.6 0 0 215.80 436.14
  L 212.60 435.89
  A 0.39 0.39 0.0 0 0 212.25 436.51
  L 215.05 440.43
  A 0.27 0.26 31.9 0 0 215.53 440.32
  Z
  M 68.02 449.69
  Q 60.37 456.32 54.27 463.01
  C 46.15 471.92 41.68 480.54 35.66 492.89
  Q 32.35 499.67 30.33 506.31
  Q 24.27 526.15 23.24 546.75
  C 21.92 573.36 29.36 603.02 46.87 623.29
  Q 58.27 636.49 74.52 645.17
  C 80.66 648.45 85.38 650.82 91.57 652.92
  C 130.69 666.22 173.54 658.55 207.81 636.32
  C 232.95 620.02 253.83 597.68 267.51 570.90
  A 1.76 1.76 0.0 0 0 267.69 569.97
  Q 267.55 568.29 266.41 566.85
  Q 247.37 542.87 226.03 517.99
  A 0.32 0.32 0.0 0 0 225.47 518.16
  Q 224.07 531.29 220.98 544.20
  C 217.53 558.57 209.13 572.31 200.04 584.44
  C 193.72 592.87 186.97 599.02 178.68 606.70
  C 166.40 618.07 150.37 625.22 134.27 628.27
  Q 116.71 631.60 97.79 627.27
  C 83.78 624.06 71.35 615.89 61.26 606.17
  C 38.88 584.61 33.54 556.29 36.81 526.11
  Q 40.27 494.18 56.89 467.14
  Q 62.24 458.43 68.20 449.86
  A 0.13 0.12 87.6 0 0 68.02 449.69
  Z
  M 566.30 790.68
  Q 562.21 781.35 555.57 774.76
  Q 550.70 769.91 544.93 768.98
  C 540.19 768.21 537.07 767.05 538.12 761.86
  C 538.92 757.91 542.07 757.76 545.55 757.91
  Q 555.09 758.32 562.12 764.97
  Q 568.73 771.23 573.26 778.83
  A 1.84 1.83 -15.2 0 0 574.84 779.73
  Q 583.57 779.78 592.65 782.20
  A 0.21 0.20 80.9 0 0 592.87 781.89
  Q 587.56 773.92 580.13 766.94
  Q 570.22 757.63 557.23 755.85
  C 551.70 755.09 546.12 755.89 539.28 756.38
  C 517.94 757.90 498.96 751.60 484.39 735.87
  Q 473.37 723.97 463.72 709.02
  Q 448.43 685.34 443.24 676.24
  C 438.94 668.70 440.03 661.17 444.18 653.94
  Q 452.67 639.13 464.51 626.26
  Q 493.60 594.62 493.73 594.49
  C 502.92 584.36 511.01 574.37 517.02 562.30
  C 522.56 551.16 523.32 540.10 514.00 530.76
  C 506.05 522.80 498.53 517.72 487.30 509.32
  C 480.21 504.02 471.50 498.59 465.35 495.16
  Q 425.43 472.87 381.68 459.24
  C 371.51 456.07 359.59 453.37 349.36 450.27
  A 0.82 0.81 21.1 0 0 348.38 450.70
  Q 346.27 455.15 344.77 461.26
  C 341.16 476.01 339.21 485.63 334.39 495.27
  A 1.37 1.35 44.5 0 0 334.41 496.53
  Q 338.37 503.74 341.44 510.99
  C 342.52 513.53 343.75 514.70 346.01 516.01
  Q 351.54 519.22 357.37 520.87
  Q 375.57 526.01 397.76 530.73
  Q 426.76 536.91 449.76 541.62
  C 455.39 542.77 463.18 544.97 465.40 550.97
  A 2.33 2.28 37.1 0 1 465.55 551.98
  C 465.30 555.88 463.58 557.64 460.26 560.04
  C 449.35 567.92 438.59 577.18 432.91 587.82
  C 427.19 598.53 425.41 608.36 422.98 622.24
  Q 420.49 636.51 411.60 648.85
  Q 406.23 656.31 402.13 661.10
  Q 399.06 664.69 398.63 667.30
  C 397.60 673.47 400.83 678.97 405.36 683.16
  Q 414.46 691.58 420.56 697.44
  C 429.28 705.83 436.13 716.06 442.87 726.63
  C 447.38 733.70 451.36 742.63 453.74 752.17
  C 455.99 761.22 458.53 771.14 464.49 778.77
  A 2.96 2.95 88.0 0 0 465.26 779.49
  Q 470.89 783.19 477.69 784.08
  Q 489.04 785.56 499.91 787.14
  Q 519.60 789.99 536.49 797.02
  A 0.20 0.20 0.0 0 0 536.76 796.77
  Q 531.19 778.75 513.54 774.05
  C 510.92 773.35 507.11 773.07 505.22 772.88
  C 497.12 772.03 498.73 761.75 505.35 761.63
  Q 514.12 761.45 524.15 765.51
  C 532.12 768.74 538.66 775.03 542.82 782.43
  Q 543.86 784.28 545.06 786.09
  A 1.08 1.06 74.9 0 0 545.86 786.56
  Q 555.97 787.35 566.00 791.00
  A 0.24 0.24 0.0 0 0 566.30 790.68
  Z"
/>
<path d="
  M 365.21 237.81
  L 361.64 241.70
  A 2.09 2.04 17.0 0 1 360.40 242.34
  Q 359.28 242.48 357.53 243.30
  C 354.98 244.49 352.33 243.89 350.72 241.72
  C 348.37 238.54 349.80 235.17 352.39 232.49
  C 364.34 220.08 372.89 203.13 378.98 187.05
  Q 380.75 182.37 385.33 182.98
  C 390.79 183.70 390.50 189.22 389.25 193.53
  A 3.04 2.98 -44.5 0 0 389.22 195.11
  Q 389.25 195.21 389.26 195.26
  A 2.75 2.68 -48.0 0 1 389.31 196.54
  Q 388.07 202.65 384.64 209.13
  Q 378.37 220.94 371.16 230.47
  A 0.45 0.44 37.4 0 1 370.53 230.55
  L 370.51 230.54
  A 0.21 0.21 0.0 0 1 370.48 230.24
  C 373.14 226.78 375.14 223.43 377.74 219.50
  Q 385.00 208.50 388.93 195.79
  A 0.34 0.34 0.0 0 0 388.66 195.35
  L 388.41 195.31
  A 0.07 0.07 0.0 0 0 388.33 195.36
  Q 382.09 211.91 375.53 221.52
  Q 370.38 229.06 369.62 230.60
  A 3.27 3.21 -12.4 0 1 369.02 231.52
  L 360.29 241.02
  A 0.16 0.16 0.0 0 0 360.38 241.28
  L 360.75 241.34
  A 0.21 0.18 -58.3 0 0 360.90 241.29
  L 364.86 237.48
  A 0.11 0.11 0.0 0 1 365.02 237.48
  L 365.20 237.65
  A 0.12 0.11 43.2 0 1 365.21 237.81
  Z"
/>
<path d="
  M 385.89 265.50
  C 381.12 265.64 375.35 261.28 379.63 256.15
  Q 395.30 237.38 400.75 227.22
  Q 406.44 216.61 410.89 206.17
  Q 411.69 204.28 413.83 202.71
  A 1.82 1.78 25.7 0 1 414.87 202.36
  C 421.61 202.18 421.04 209.91 419.23 214.25
  C 413.19 228.66 405.66 243.63 396.01 255.29
  Q 391.84 260.34 390.21 262.44
  Q 388.92 264.09 386.97 265.20
  A 2.41 2.34 28.7 0 1 385.89 265.50
  Z"
/>
<rect x="-0.29" y="-8.23" transform="translate(416.44,224.07) rotate(23.6)" width="0.58" height="16.46" rx="0.27"/>
<path d="
  M 431.69 262.88
  C 429.64 266.33 416.11 289.09 409.80 279.32
  C 408.22 276.87 409.39 274.46 411.12 272.17
  C 414.80 267.33 418.35 262.36 421.60 256.89
  C 424.85 251.41 427.51 245.92 430.00 240.37
  C 431.17 237.76 432.73 235.57 435.63 235.79
  C 447.24 236.65 433.74 259.43 431.69 262.88
  Z"
/>
<path d="
  M 357.39 310.35
  Q 374.88 318.57 395.27 319.68
  Q 398.54 319.86 400.06 321.50
  C 402.51 324.12 401.51 328.79 398.24 330.31
  Q 396.43 331.15 391.99 331.11
  C 378.26 330.99 364.20 327.17 352.15 321.50
  C 340.10 315.84 328.19 307.45 319.33 296.95
  Q 316.47 293.56 315.97 291.63
  C 315.05 288.14 318.01 284.39 321.59 284.61
  Q 323.82 284.73 326.04 287.13
  Q 339.91 302.13 357.39 310.35
  Z"
/>
<path d="
  M 395.20 350.04
  C 397.51 356.56 391.39 358.57 386.25 359.52
  C 373.75 361.83 360.93 361.98 348.57 358.53
  C 337.83 355.54 328.57 352.08 319.60 345.66
  Q 306.12 336.01 296.33 322.90
  C 294.92 321.01 293.81 318.35 294.72 315.98
  C 295.75 313.30 299.49 310.70 302.09 312.99
  Q 304.55 315.16 306.57 317.68
  Q 310.78 322.94 318.37 329.33
  Q 337.85 345.69 363.73 349.01
  C 372.34 350.11 381.09 348.87 389.75 347.49
  Q 392.79 347.01 394.68 349.16
  A 2.62 2.55 15.2 0 1 395.20 350.04
  Z"
/>
<path d="
  M 383.94 379.23
  C 386.68 383.49 382.29 386.35 378.85 387.32
  Q 362.64 391.90 345.67 391.08
  C 335.95 390.61 326.99 388.45 318.11 384.76
  Q 288.33 372.41 269.46 343.76
  Q 267.02 340.06 266.88 338.30
  C 266.52 333.60 271.28 331.02 275.28 332.72
  Q 276.50 333.24 278.36 336.18
  Q 293.57 360.23 320.34 372.40
  C 338.19 380.51 358.55 380.21 377.48 376.75
  Q 381.84 375.95 383.94 379.23
  Z"
/>
<path d="
  M 244.92 363.14
  C 244.77 356.76 252.10 353.96 255.40 360.04
  C 266.40 380.32 287.38 398.48 310.81 402.63
  Q 327.68 405.62 344.02 403.71
  C 348.04 403.24 350.96 403.56 351.64 407.86
  Q 352.34 412.26 347.93 413.71
  Q 342.62 415.45 337.26 415.93
  C 325.92 416.94 315.61 417.08 304.98 414.30
  Q 275.17 406.51 255.95 382.78
  Q 249.08 374.30 245.14 364.26
  A 3.25 3.24 -56.2 0 1 244.92 363.14
  Z"
/>
<path d="
  M 380.83 362.73
  Q 375.18 363.49 368.84 363.05
  A 0.14 0.14 0.0 0 1 368.83 362.77
  C 372.57 362.07 376.43 362.46 380.71 361.88
  C 385.00 361.30 388.61 359.90 392.41 359.58
  A 0.14 0.14 0.0 0 1 392.46 359.85
  Q 386.47 361.97 380.83 362.73
  Z"
/>
<path d="
  M 365.35 392.36
  C 358.16 393.37 353.57 393.97 348.04 393.07
  Q 347.76 393.03 347.69 392.81
  A 0.23 0.22 -8.4 0 1 347.91 392.52
  Q 356.74 392.65 365.22 391.45
  Q 373.70 390.24 382.14 387.66
  A 0.23 0.22 -7.8 0 1 382.43 387.88
  Q 382.43 388.11 382.17 388.23
  C 377.10 390.63 372.53 391.34 365.35 392.36
  Z"
/>
</g>
</svg>
