<?xml version="1.0" encoding="UTF-8" standalone="no"?>
<!DOCTYPE svg PUBLIC "-//W3C//DTD SVG 1.1//EN" "http://www.w3.org/Graphics/SVG/1.1/DTD/svg11.dtd">
<svg xmlns="http://www.w3.org/2000/svg" version="1.1" viewBox="0.00 0.00 832.00 864.00">
<g stroke-width="2.00" fill="none" stroke-linecap="butt">
<path stroke="#3e8ec2" vector-effect="non-scaling-stroke" d="
  M 617.24 230.02
  C 627.81 233.19 638.13 234.22 649.07 233.80
  Q 657.06 233.50 659.02 232.93
  Q 667.01 230.64 667.56 221.37
  Q 669.33 191.54 656.33 164.79
  Q 648.43 148.52 632.44 131.74
  C 610.66 108.87 583.94 91.25 556.25 76.52
  Q 524.12 59.42 496.21 48.56
  Q 468.91 37.94 437.06 30.17
  Q 397.67 20.56 358.49 18.34
  C 333.77 16.93 305.86 17.54 282.26 22.55
  C 264.19 26.39 248.39 32.74 233.24 43.23
  C 219.05 53.06 208.57 65.84 207.16 83.43
  C 206.43 92.54 208.50 100.69 215.99 106.24
  C 226.78 114.23 239.19 114.34 251.65 110.43
  Q 266.99 105.64 271.19 104.69
  C 281.09 102.44 293.49 100.39 305.70 99.91
  Q 332.38 98.87 356.57 101.98
  C 381.97 105.24 408.15 112.76 431.73 122.52
  Q 449.33 129.81 468.12 140.76
  Q 479.67 147.48 493.11 157.79
  C 518.28 177.11 544.27 195.42 571.78 210.59
  Q 594.85 223.31 617.24 230.02"
/>
<path stroke="#3e8ec2" vector-effect="non-scaling-stroke" d="
  M 315.17 134.33
  Q 314.00 123.48 314.54 117.26
  A 0.57 0.57 0.0 0 0 313.97 116.64
  L 298.61 116.64
  A 0.67 0.67 0.0 0 0 297.94 117.34
  Q 298.12 121.48 299.63 126.17
  C 300.92 130.21 304.77 131.50 308.67 132.84
  Q 312.73 134.23 314.61 134.79
  A 0.44 0.43 5.4 0 0 315.17 134.33"
/>
<path stroke="#3e8ec2" vector-effect="non-scaling-stroke" d="
  M 350.34 145.48
  Q 348.12 132.43 350.67 119.56
  A 0.71 0.71 0.0 0 0 350.02 118.72
  L 334.67 117.56
  A 0.69 0.69 0.0 0 0 333.93 118.15
  Q 332.55 127.78 334.39 136.63
  Q 335.31 141.09 339.77 142.68
  Q 344.03 144.19 349.64 146.08
  A 0.54 0.54 0.0 0 0 350.34 145.48"
/>
<path stroke="#3e8ec2" vector-effect="non-scaling-stroke" d="
  M 384.38 159.35
  A 0.38 0.38 0.0 0 0 384.83 158.90
  C 382.78 148.44 384.45 138.28 386.15 127.41
  A 1.53 1.53 0.0 0 0 385.04 125.70
  L 371.42 121.99
  A 0.85 0.85 0.0 0 0 370.37 122.59
  Q 366.43 137.62 371.01 152.52
  C 371.63 154.56 372.76 155.39 374.65 156.19
  Q 379.75 158.34 384.38 159.35"
/>
<path stroke="#3e8ec2" vector-effect="non-scaling-stroke" d="
  M 416.81 171.12
  C 416.47 159.73 417.31 149.35 421.77 139.13
  A 1.14 1.14 0.0 0 0 421.11 137.61
  L 406.36 132.28
  A 0.66 0.65 16.7 0 0 405.50 132.74
  Q 401.24 150.07 406.02 167.49
  A 1.41 1.39 2.6 0 0 406.89 168.43
  L 415.99 171.72
  A 0.62 0.61 8.8 0 0 416.81 171.12"
/>
<path stroke="#3e8ec2" vector-effect="non-scaling-stroke" d="
  M 448.70 182.45
  A 0.34 0.34 0.0 0 0 449.13 182.10
  Q 448.48 167.53 454.69 154.71
  A 0.91 0.91 0.0 0 0 454.28 153.50
  L 439.91 146.37
  A 0.65 0.65 0.0 0 0 439.06 146.63
  Q 438.19 148.17 437.53 150.26
  Q 433.25 163.89 436.16 178.14
  A 1.58 1.57 -88.5 0 0 437.29 179.34
  L 448.70 182.45"
/>
<path stroke="#3e8ec2" vector-effect="non-scaling-stroke" d="
  M 171.22 578.67
  C 156.34 560.59 150.97 536.53 162.28 515.04
  C 164.79 510.28 168.15 505.86 173.70 505.68
  Q 177.90 505.55 181.20 507.32
  C 192.96 513.64 203.21 521.49 207.90 534.05
  Q 210.52 541.07 211.58 547.91
  A 0.59 0.59 0.0 0 0 212.69 548.09
  Q 214.54 544.49 214.82 540.31
  C 215.80 525.37 210.14 510.29 198.43 500.33
  Q 191.79 494.67 185.40 491.09
  C 180.71 488.47 173.86 485.78 169.78 482.22
  C 164.24 477.40 158.01 469.23 157.00 461.74
  Q 154.18 440.87 155.28 419.25
  C 156.24 400.63 158.17 382.52 161.72 363.50
  Q 162.92 357.09 165.86 340.11
  Q 166.52 336.34 170.07 336.16
  Q 188.55 335.23 196.94 334.07
  Q 206.49 332.75 223.50 329.42
  Q 238.79 326.42 245.79 325.49
  Q 259.93 323.62 267.91 321.31
  Q 286.98 315.80 302.76 308.27
  C 306.29 306.59 311.07 305.55 313.82 308.50
  C 317.51 312.45 312.04 318.12 309.06 320.56
  C 303.41 325.18 298.60 328.30 291.84 331.35
  Q 275.89 338.56 258.87 342.87
  A 1.06 1.05 84.4 0 0 258.08 343.84
  Q 257.98 345.70 258.87 347.87
  C 265.28 363.43 275.96 377.50 289.76 386.85
  Q 295.14 390.49 295.55 390.84
  A 2.97 2.91 -86.7 0 1 296.16 391.54
  Q 298.66 395.45 294.96 397.23
  C 288.41 400.39 277.92 395.40 272.30 391.44
  C 262.82 384.77 254.33 376.81 248.50 367.06
  Q 245.30 361.71 243.59 357.81
  A 0.25 0.25 0.0 0 0 243.13 357.83
  C 239.25 369.70 241.41 379.33 249.02 389.58
  C 256.99 400.30 266.03 407.86 277.85 416.16
  C 281.13 418.47 282.87 422.81 278.40 425.21
  C 274.37 427.38 270.92 426.89 266.43 425.04
  Q 255.33 420.46 246.91 412.59
  Q 241.81 407.82 237.23 403.05
  A 0.57 0.57 0.0 0 0 236.25 403.40
  Q 235.26 417.32 243.59 427.59
  C 248.28 433.36 258.53 439.45 263.09 443.17
  Q 266.63 446.07 267.41 447.60
  C 269.40 451.51 267.33 454.59 263.33 455.53
  Q 258.78 456.60 254.04 454.67
  Q 245.86 451.34 237.83 445.79
  A 1.30 1.29 38.5 0 0 236.14 445.98
  Q 235.56 446.61 234.73 447.97
  Q 221.56 469.45 217.59 493.80
  C 217.35 495.30 217.42 497.34 218.35 498.42
  Q 227.72 509.39 229.93 523.05
  Q 230.32 525.44 230.71 537.45
  A 5.17 5.07 33.1 0 0 231.12 539.30
  Q 239.69 559.33 252.21 577.34
  Q 265.47 596.39 278.44 614.29
  Q 287.15 626.31 294.37 638.62
  C 297.19 643.42 301.22 650.47 294.37 653.34
  C 288.32 655.89 283.16 648.01 280.49 643.91
  A 1.05 1.05 0.0 0 0 279.12 643.55
  Q 277.56 644.38 266.88 649.13
  C 256.60 653.70 247.88 659.11 238.28 666.89
  C 228.71 674.63 215.97 682.52 205.69 687.51
  Q 193.26 693.55 179.25 694.96
  Q 169.68 695.91 169.59 695.92
  C 167.01 696.20 164.69 696.29 162.57 697.85
  C 160.14 699.65 159.23 704.34 159.20 707.50
  C 159.14 715.18 159.38 725.19 158.65 733.16
  C 157.10 750.22 153.77 768.41 148.16 785.39
  C 144.78 795.63 141.54 805.84 139.41 815.42
  Q 137.09 825.84 147.33 827.65
  Q 151.56 828.39 157.43 829.11
  Q 166.92 830.28 176.39 833.20
  C 183.55 835.41 190.82 839.84 196.62 842.74
  A 0.51 0.51 0.0 0 0 197.35 842.22
  C 195.74 828.87 184.13 818.28 172.08 814.01
  Q 167.63 812.43 166.95 811.28
  Q 165.24 808.38 165.70 804.96
  C 166.39 799.88 174.11 800.68 177.69 801.55
  Q 195.93 806.00 207.06 820.63
  C 208.31 822.27 209.82 825.10 211.40 827.26
  A 1.05 1.00 78.1 0 0 211.97 827.65
  L 231.60 833.00
  A 0.31 0.30 -10.2 0 0 231.93 832.53
  Q 226.64 825.27 218.91 819.61
  C 215.39 817.03 212.11 813.22 214.46 808.93
  C 216.69 804.88 223.73 808.01 226.81 809.46
  Q 237.40 814.46 246.59 823.12
  A 2.23 2.13 72.9 0 0 247.48 823.62
  L 256.66 826.12
  A 0.39 0.39 0.0 0 0 257.06 825.49
  Q 240.51 805.43 215.36 801.71
  C 203.93 800.02 190.67 798.34 185.47 786.04
  Q 181.67 777.06 181.82 766.26
  C 182.06 750.13 184.95 734.11 192.34 719.86
  Q 195.35 714.07 200.88 712.88
  Q 239.76 704.56 277.24 693.99
  C 293.94 689.28 309.65 684.26 325.04 676.79
  Q 332.29 673.27 339.84 667.36
  Q 344.48 663.73 346.22 659.00
  C 347.92 654.36 348.00 648.97 347.89 642.94
  Q 347.35 613.17 338.27 576.74
  Q 329.52 541.64 309.52 513.87
  Q 299.55 500.03 288.75 492.12
  Q 278.72 484.78 275.37 482.88
  Q 272.57 481.30 272.83 477.96
  Q 273.18 473.30 278.03 472.94
  C 286.07 472.34 294.89 476.45 301.39 480.93
  A 0.36 0.36 0.0 0 0 301.94 480.72
  C 303.23 475.40 303.69 469.37 303.71 463.63
  Q 303.74 458.12 304.71 456.71
  C 307.24 453.07 310.45 453.10 314.71 454.31
  C 323.15 456.71 330.34 458.67 338.28 458.94
  C 361.16 459.70 383.51 451.45 399.62 434.86
  Q 402.54 431.86 406.01 428.05
  A 2.88 2.87 33.6 0 1 409.35 427.38
  C 413.17 429.16 415.86 429.74 419.87 427.87
  Q 429.72 423.28 437.89 415.23
  A 0.82 0.82 0.0 0 0 437.62 413.89
  C 434.21 412.50 424.69 408.67 429.07 402.87
  Q 430.72 400.68 432.83 400.63
  Q 438.95 400.48 446.56 400.10
  C 449.75 399.95 451.47 396.96 453.12 394.36
  Q 456.97 388.26 460.46 383.46
  A 0.26 0.26 0.0 0 0 460.24 383.05
  C 455.90 383.27 450.85 383.22 447.57 380.44
  C 444.10 377.49 443.99 372.18 449.36 371.30
  C 456.29 370.15 464.70 371.37 470.05 363.83
  Q 475.72 355.85 479.17 346.52
  A 0.34 0.33 -2.1 0 0 478.71 346.10
  Q 474.39 348.06 469.77 348.25
  C 465.88 348.41 461.19 346.85 460.34 342.67
  C 459.54 338.76 463.36 336.55 466.92 334.90
  Q 471.25 332.89 477.12 327.91
  Q 481.52 324.18 481.79 319.45
  Q 482.26 311.27 479.51 303.01
  A 0.49 0.48 56.4 0 0 478.69 302.84
  Q 472.43 310.05 464.33 314.24
  C 459.52 316.73 453.01 316.11 453.36 309.50
  Q 453.51 306.66 454.50 305.24
  Q 462.36 293.95 470.51 280.52
  C 475.21 272.78 483.37 265.62 492.55 263.86
  A 0.78 0.77 84.6 0 0 493.17 263.10
  Q 493.28 247.05 497.58 231.63
  Q 499.20 225.83 501.48 223.15
  C 504.61 219.48 509.22 222.25 509.14 226.34
  Q 508.93 237.90 509.51 247.24
  Q 510.08 256.23 511.44 261.32
  C 515.25 275.56 527.23 285.12 537.91 294.26
  Q 543.37 298.94 548.31 304.07
  Q 560.06 316.28 568.50 325.01
  Q 573.20 329.88 577.75 332.94
  C 583.65 336.92 591.55 337.95 598.00 335.00
  Q 602.11 333.13 605.72 330.10
  A 0.59 0.58 29.9 0 0 605.44 329.08
  Q 603.41 328.70 599.81 328.39
  C 592.24 327.74 585.52 324.20 580.15 319.08
  Q 573.09 312.34 568.53 306.97
  Q 551.20 286.58 549.23 284.25
  Q 546.74 281.31 535.43 267.81
  C 520.78 250.34 527.68 230.19 535.65 211.66
  A 2.16 2.15 27.5 0 0 534.80 208.97
  Q 515.30 196.87 494.85 181.89
  Q 483.73 173.74 471.53 165.08
  A 0.41 0.41 0.0 0 0 470.90 165.29
  Q 467.52 175.66 468.13 184.85
  A 5.50 5.48 -55.5 0 0 468.37 186.16
  Q 468.72 187.28 471.15 196.32
  C 474.29 208.02 475.23 219.22 470.07 230.61
  Q 461.64 249.25 447.03 264.52
  Q 440.22 271.63 433.56 277.53
  C 428.45 282.05 412.06 295.88 409.34 285.13
  C 408.77 282.86 409.99 280.53 411.60 279.09
  Q 419.19 272.29 425.22 266.48
  Q 437.40 254.76 446.46 240.48
  C 453.16 229.92 459.61 218.00 454.81 205.59
  C 454.10 203.76 452.71 202.64 450.88 202.09
  Q 447.54 201.08 440.96 199.42
  A 0.48 0.47 8.8 0 0 440.37 199.84
  C 439.47 210.42 435.57 220.63 430.18 230.85
  C 425.75 239.25 419.08 246.70 411.42 252.14
  C 408.10 254.49 397.98 260.53 394.96 255.88
  C 393.19 253.16 394.25 248.96 396.68 246.92
  Q 416.58 230.29 420.69 204.49
  C 421.14 201.67 422.38 193.33 419.24 192.17
  Q 409.76 188.68 402.09 186.13
  A 0.46 0.46 0.0 0 0 401.48 186.61
  C 402.12 192.39 401.86 200.03 400.35 205.70
  Q 394.32 228.18 370.68 233.42
  Q 363.85 234.93 356.24 235.30
  C 352.31 235.49 349.83 234.02 347.62 231.36
  C 342.62 225.36 336.88 216.47 330.65 210.27
  Q 321.93 201.59 311.18 195.94
  A 0.38 0.38 0.0 0 0 310.67 196.45
  Q 318.78 211.76 318.45 228.09
  A 1.12 1.12 0.0 0 0 319.33 229.21
  C 334.77 232.77 347.29 245.84 353.27 260.23
  Q 355.69 266.05 356.12 272.00
  C 356.35 275.08 354.78 279.96 351.53 280.59
  Q 348.99 281.09 347.49 278.46
  C 342.71 270.08 337.11 260.92 329.96 254.03
  Q 323.93 248.22 318.35 245.89
  C 307.29 241.28 292.80 241.85 282.35 246.86
  Q 276.37 249.73 272.19 252.46
  Q 256.39 262.74 242.54 270.72
  Q 234.20 275.53 218.00 282.41
  Q 193.23 292.93 167.56 304.02
  C 158.55 307.91 148.47 311.41 138.94 315.19
  C 133.14 317.49 131.07 321.42 129.57 327.15
  Q 129.04 329.18 128.95 330.38
  C 127.18 351.98 128.25 371.61 130.10 395.39
  C 131.43 412.44 134.94 433.58 136.01 451.25
  Q 137.17 470.40 130.02 486.34
  Q 125.14 497.21 123.09 500.82
  C 113.67 517.34 107.05 535.66 107.55 554.48
  Q 107.70 559.98 109.33 564.95
  A 0.70 0.70 0.0 0 0 110.65 564.98
  C 113.17 558.23 125.84 512.86 139.69 521.99
  C 144.18 524.94 143.36 533.89 143.19 538.74
  C 142.81 549.72 146.28 561.98 154.43 569.64
  Q 161.68 576.46 171.03 578.96
  A 0.18 0.18 0.0 0 0 171.22 578.67"
/>
<path stroke="#3e8ec2" vector-effect="non-scaling-stroke" d="
  M 178.61 172.88
  A 0.16 0.15 74.8 0 0 178.47 173.13
  Q 194.65 193.63 206.84 216.91
  Q 217.71 237.68 222.66 260.60
  A 0.71 0.71 0.0 0 0 223.66 261.09
  Q 237.16 254.59 249.92 245.83
  A 0.83 0.82 58.7 0 0 250.18 244.74
  C 244.42 234.43 238.43 224.27 230.71 215.04
  Q 209.51 189.70 180.46 173.56
  Q 179.46 173.00 178.61 172.88"
/>
<path stroke="#8ab6d4" vector-effect="non-scaling-stroke" d="
  M 581.63 248.32
  A 0.61 0.60 77.2 0 0 582.53 248.89
  L 595.03 241.67
  A 0.56 0.56 0.0 0 0 595.00 240.69
  L 584.16 235.31
  A 1.13 1.12 -74.6 0 0 582.54 236.24
  L 581.63 248.32"
/>
<path stroke="#8ab6d4" vector-effect="non-scaling-stroke" d="
  M 609.03 259.48
  A 0.72 0.72 0.0 0 0 610.23 259.88
  L 620.68 250.14
  A 0.72 0.72 0.0 0 0 620.36 248.92
  L 607.66 245.76
  A 0.72 0.72 0.0 0 0 606.78 246.59
  L 609.03 259.48"
/>
<path stroke="#8ab6d4" vector-effect="non-scaling-stroke" d="
  M 645.64 252.75
  A 0.41 0.41 0.0 0 0 645.34 252.11
  L 632.47 251.13
  A 0.41 0.41 0.0 0 0 632.04 251.64
  L 635.55 265.82
  A 0.41 0.41 0.0 0 0 636.29 265.96
  L 645.64 252.75"
/>
<path stroke="#3e8ec2" vector-effect="non-scaling-stroke" d="
  M 138.79 273.03
  L 151.26 290.90
  A 1.11 1.10 -29.5 0 0 152.62 291.27
  L 161.94 287.07
  A 0.38 0.37 50.4 0 0 162.00 286.42
  C 154.60 281.21 147.16 276.24 139.24 272.50
  A 0.36 0.36 0.0 0 0 138.79 273.03"
/>
<path stroke="#3e8ec2" vector-effect="non-scaling-stroke" d="
  M 763.45 412.64
  Q 756.81 393.68 736.49 390.95
  Q 727.15 389.70 720.82 390.78
  C 716.33 391.55 712.14 391.09 709.94 387.36
  Q 708.59 385.05 709.18 383.18
  C 711.17 376.96 717.37 373.44 723.58 371.32
  Q 733.73 367.84 754.75 362.25
  Q 764.56 359.64 772.81 359.00
  Q 794.28 357.33 812.45 370.33
  A 0.18 0.18 0.0 0 0 812.72 370.11
  C 807.18 356.77 793.23 347.30 778.66 346.90
  Q 771.81 346.71 764.89 347.87
  C 752.05 350.01 738.84 353.98 725.98 357.50
  C 722.02 358.59 716.37 357.08 715.67 352.46
  Q 715.12 348.78 716.63 346.12
  Q 722.84 335.22 730.53 325.04
  Q 744.04 307.15 765.05 300.99
  C 769.44 299.70 775.16 299.30 778.77 298.68
  A 0.38 0.38 0.0 0 0 778.84 297.95
  C 767.39 293.59 753.24 293.16 741.72 298.21
  C 732.26 302.35 723.38 311.52 717.08 319.83
  Q 717.02 319.90 710.33 329.42
  C 705.27 336.62 701.04 344.08 695.96 350.42
  Q 676.39 374.82 647.22 385.64
  Q 621.81 395.08 593.25 403.50
  Q 569.31 410.55 550.62 414.12
  C 543.16 415.54 538.08 415.80 533.08 410.42
  Q 529.53 406.61 528.42 405.06
  Q 512.48 382.91 497.03 358.04
  A 0.38 0.38 0.0 0 0 496.38 358.05
  L 477.45 392.12
  A 0.80 0.79 40.8 0 0 477.52 393.00
  Q 484.44 401.86 493.23 411.27
  Q 507.32 426.36 518.76 436.97
  Q 527.48 445.06 536.30 451.17
  Q 542.84 455.69 551.31 457.64
  A 3.68 3.53 -38.1 0 0 552.31 457.74
  Q 560.84 457.54 568.63 454.34
  C 606.71 438.70 641.78 418.72 677.36 394.87
  Q 680.75 392.60 683.26 395.35
  Q 693.24 406.30 707.54 406.14
  C 714.50 406.06 720.88 405.19 728.50 404.75
  C 740.02 404.08 754.43 405.32 762.95 412.98
  A 0.31 0.31 0.0 0 0 763.45 412.64"
/>
<path stroke="#8ab6d4" vector-effect="non-scaling-stroke" d="
  M 584.85 305.07
  Q 589.91 310.86 596.64 313.94
  A 0.83 0.83 0.0 0 0 597.72 313.58
  Q 597.75 313.54 597.84 313.32
  A 0.13 0.11 66.3 0 0 597.86 313.25
  L 598.69 298.77
  A 0.69 0.69 0.0 0 0 597.72 298.10
  L 585.13 303.78
  A 0.82 0.82 0.0 0 0 584.85 305.07"
/>
<path stroke="#8ab6d4" vector-effect="non-scaling-stroke" d="
  M 604.62 315.95
  A 0.41 0.41 0.0 0 0 604.86 316.66
  L 615.67 317.48
  A 2.12 2.11 7.3 0 0 617.91 315.75
  L 619.75 305.65
  A 0.66 0.65 87.2 0 0 618.93 304.90
  Q 617.88 305.20 616.91 305.92
  Q 610.51 310.68 604.62 315.95"
/>
<path stroke="#3e8ec2" vector-effect="non-scaling-stroke" d="
  M 102.07 337.42
  Q 103.31 349.67 110.11 360.01
  A 0.52 0.52 0.0 0 0 111.06 359.77
  L 112.14 345.46
  A 3.76 3.75 19.8 0 0 110.56 342.11
  L 103.09 336.82
  A 0.65 0.65 0.0 0 0 102.07 337.42"
/>
<path stroke="#3e8ec2" vector-effect="non-scaling-stroke" d="
  M 61.57 481.62
  C 59.00 482.14 54.29 488.97 52.11 492.12
  C 40.04 509.60 30.99 528.42 27.41 549.19
  C 24.24 567.54 21.53 580.95 24.22 598.76
  Q 26.09 611.08 26.09 611.11
  Q 31.28 634.51 45.26 653.76
  Q 51.51 662.36 59.35 668.84
  A 0.48 0.48 0.0 0 0 60.14 668.49
  Q 60.29 665.13 61.85 662.08
  Q 66.45 653.04 72.81 646.28
  A 0.75 0.75 0.0 0 0 72.75 645.19
  Q 61.44 635.89 54.28 623.48
  C 46.06 609.25 40.71 593.66 39.81 576.49
  Q 38.98 560.83 41.02 547.29
  Q 45.69 516.19 60.11 487.26
  A 6.10 5.58 -26.5 0 0 60.44 486.40
  Q 60.95 484.56 61.99 482.14
  A 0.38 0.37 -84.1 0 0 61.57 481.62"
/>
<path stroke="#3e8ec2" vector-effect="non-scaling-stroke" d="
  M 595.69 810.63
  C 587.22 794.79 570.56 784.98 552.55 787.33
  C 537.29 789.32 520.40 786.64 508.17 777.78
  Q 497.70 770.19 488.57 757.92
  Q 482.71 750.04 481.81 748.67
  Q 469.85 730.55 452.62 705.13
  C 447.95 698.24 441.78 690.50 443.08 681.83
  C 443.71 677.72 446.66 673.21 449.44 669.94
  Q 453.51 665.17 456.77 662.02
  Q 474.82 644.61 493.86 626.12
  Q 504.33 615.95 514.11 603.88
  C 522.57 593.43 530.55 579.72 529.31 565.95
  C 528.42 556.07 518.99 548.66 511.26 543.29
  Q 494.11 531.37 472.18 520.36
  Q 423.64 495.99 370.27 483.23
  A 1.53 1.52 17.0 0 0 368.48 484.18
  C 365.30 492.70 361.40 504.64 356.64 513.75
  Q 350.27 525.94 344.06 535.32
  A 0.96 0.96 0.0 0 0 344.40 536.69
  Q 374.93 553.68 408.99 560.24
  Q 427.03 563.72 435.83 564.51
  Q 448.39 565.64 455.00 567.02
  Q 471.90 570.54 484.49 571.97
  Q 489.34 572.52 490.33 576.69
  C 492.26 584.85 471.46 584.78 466.75 584.62
  Q 463.58 584.52 462.35 585.87
  Q 458.42 590.24 452.12 597.84
  Q 444.48 607.05 440.88 618.39
  Q 440.00 621.19 438.70 629.82
  C 436.89 641.94 433.90 653.08 426.76 663.01
  Q 421.04 670.97 413.92 678.17
  Q 411.84 680.28 408.98 684.55
  A 2.89 2.86 -22.9 0 0 408.56 685.57
  C 407.24 692.49 412.81 698.89 416.99 704.25
  Q 421.65 710.24 440.72 731.01
  Q 453.24 744.64 463.00 763.23
  Q 473.20 782.67 475.45 805.54
  C 476.03 811.51 479.93 813.92 485.57 814.68
  Q 495.77 816.05 508.51 817.00
  Q 517.30 817.66 531.40 820.21
  C 539.92 821.76 547.47 824.27 557.07 826.83
  A 0.29 0.28 88.7 0 0 557.41 826.47
  C 553.27 813.36 542.87 808.20 530.13 806.40
  Q 522.19 805.27 515.26 804.91
  Q 512.18 804.75 511.11 803.86
  C 507.62 800.93 509.53 795.46 513.46 794.33
  Q 527.32 790.36 542.47 792.91
  C 552.24 794.56 559.92 800.58 567.20 807.38
  A 1.52 1.52 0.0 0 0 568.25 807.80
  C 577.52 807.80 586.62 808.35 595.40 810.99
  A 0.25 0.25 0.0 0 0 595.69 810.63"
/>
<path stroke="#3e8ec2" vector-effect="non-scaling-stroke" d="
  M 216.63 610.53
  C 222.18 621.55 231.67 629.90 242.76 635.76
  A 1.22 1.21 -52.8 0 0 244.18 635.56
  Q 252.30 627.58 258.27 619.14
  A 1.57 1.56 45.4 0 0 258.28 617.35
  L 234.32 583.01
  A 0.35 0.35 0.0 0 0 233.75 583.00
  Q 231.98 585.38 230.19 588.44
  Q 223.72 599.52 216.82 608.50
  A 1.93 1.92 -39.9 0 0 216.63 610.53"
/>
<path stroke="#3e8ec2" vector-effect="non-scaling-stroke" d="
  M 205.98 621.03
  Q 192.89 632.81 179.30 641.13
  A 2.24 2.23 68.4 0 0 178.28 643.49
  C 180.20 652.81 183.72 662.20 190.46 669.21
  A 1.27 1.27 0.0 0 0 191.93 669.48
  C 206.13 662.71 219.46 655.74 231.73 646.55
  A 0.60 0.60 0.0 0 0 231.66 645.54
  Q 228.53 643.86 225.32 640.92
  Q 215.54 631.96 207.03 621.12
  A 0.73 0.72 49.8 0 0 205.98 621.03"
/>
<path stroke="#3e8ec2" vector-effect="non-scaling-stroke" d="
  M 163.44 651.81
  C 153.65 657.41 143.09 660.02 132.09 662.09
  A 1.75 1.74 86.6 0 0 130.68 663.69
  Q 130.03 674.16 129.90 675.31
  C 129.17 682.05 130.42 686.39 136.01 689.81
  Q 138.45 691.30 142.23 690.85
  Q 144.12 690.62 146.89 688.32
  C 155.78 680.93 166.77 678.35 177.09 676.84
  A 0.40 0.40 0.0 0 0 177.35 676.21
  C 171.89 668.81 166.28 661.50 164.01 652.06
  A 0.39 0.39 0.0 0 0 163.44 651.81"
/>
<path stroke="#3e8ec2" vector-effect="non-scaling-stroke" d="
  M 121.75 692.24
  Q 115.97 678.18 118.20 663.64
  A 0.50 0.49 -83.5 0 0 117.75 663.07
  Q 100.36 661.71 84.67 652.87
  A 1.28 1.28 0.0 0 0 83.13 653.08
  Q 77.20 659.04 73.20 666.89
  Q 71.10 671.00 70.84 675.50
  A 1.64 1.62 16.3 0 0 71.68 677.02
  Q 91.27 687.84 113.98 692.07
  Q 117.28 692.68 121.31 692.86
  A 0.45 0.45 0.0 0 0 121.75 692.24"
/>
<path stroke="#3e8ec2" vector-effect="non-scaling-stroke" d="
  M 376.40 288.96
  C 374.77 285.62 371.39 286.19 369.39 288.65
  C 366.24 292.51 368.95 301.26 370.92 305.88
  C 378.83 324.47 396.78 336.76 415.99 340.91
  C 421.08 342.01 436.05 343.21 436.44 335.54
  C 436.59 332.47 432.89 330.08 430.33 329.43
  C 416.34 325.88 404.34 322.35 393.61 313.23
  C 386.61 307.29 380.88 298.09 376.40 288.96"
/>
<path stroke="#3e8ec2" vector-effect="non-scaling-stroke" d="
  M 343.04 320.94
  C 338.73 321.96 338.56 327.21 339.82 330.69
  Q 343.73 341.48 351.84 351.45
  C 358.91 360.14 368.45 365.94 378.12 370.35
  Q 386.77 374.30 397.19 375.80
  C 404.56 376.86 424.48 376.01 426.98 366.25
  C 428.11 361.86 423.73 359.58 419.99 359.85
  C 415.68 360.16 407.11 360.88 401.32 360.26
  C 379.98 357.95 363.93 345.85 351.50 328.74
  C 349.98 326.65 345.83 320.29 343.04 320.94"
/>
<path stroke="#3e8ec2" vector-effect="non-scaling-stroke" d="
  M 409.01 396.00
  C 408.91 394.05 406.48 389.60 403.85 390.38
  Q 383.66 396.35 363.83 388.96
  C 358.84 387.10 352.00 384.17 346.84 381.43
  Q 327.32 371.04 314.61 353.13
  C 313.60 351.71 312.27 350.58 310.56 351.06
  C 304.32 352.82 306.98 361.34 308.88 365.40
  Q 311.19 370.35 314.48 374.26
  C 331.49 394.49 357.39 407.49 383.73 407.42
  Q 393.71 407.39 401.37 403.90
  C 404.51 402.47 409.20 399.64 409.01 396.00"
/>
<path stroke="#3e8ec2" vector-effect="non-scaling-stroke" d="
  M 379.85 429.56
  Q 377.92 425.81 373.23 426.30
  C 352.67 428.47 330.49 423.57 313.23 411.50
  Q 311.96 410.61 308.69 410.54
  A 1.80 1.76 -59.7 0 0 307.67 410.82
  Q 304.51 412.85 304.68 416.82
  C 305.06 425.77 317.82 430.29 324.68 433.00
  Q 344.84 440.95 367.05 439.08
  Q 371.66 438.69 376.54 436.37
  Q 380.77 434.35 380.15 430.49
  A 2.90 2.88 27.4 0 0 379.85 429.56"
/>
</g>
<g fill="#67afdc">
<path d="
  M 649.07 233.80
  C 638.13 234.22 627.81 233.19 617.24 230.02
  Q 594.85 223.31 571.78 210.59
  C 544.27 195.42 518.28 177.11 493.11 157.79
  Q 479.67 147.48 468.12 140.76
  Q 449.33 129.81 431.73 122.52
  C 408.15 112.76 381.97 105.24 356.57 101.98
  Q 332.38 98.87 305.70 99.91
  C 293.49 100.39 281.09 102.44 271.19 104.69
  Q 266.99 105.64 251.65 110.43
  C 239.19 114.34 226.78 114.23 215.99 106.24
  C 208.50 100.69 206.43 92.54 207.16 83.43
  C 208.57 65.84 219.05 53.06 233.24 43.23
  C 248.39 32.74 264.19 26.39 282.26 22.55
  C 305.86 17.54 333.77 16.93 358.49 18.34
  Q 397.67 20.56 437.06 30.17
  Q 468.91 37.94 496.21 48.56
  Q 524.12 59.42 556.25 76.52
  C 583.94 91.25 610.66 108.87 632.44 131.74
  Q 648.43 148.52 656.33 164.79
  Q 669.33 191.54 667.56 221.37
  Q 667.01 230.64 659.02 232.93
  Q 657.06 233.50 649.07 233.80
  Z"
/>
<path d="
  M 315.17 134.33
  A 0.44 0.43 5.4 0 1 314.61 134.79
  Q 312.73 134.23 308.67 132.84
  C 304.77 131.50 300.92 130.21 299.63 126.17
  Q 298.12 121.48 297.94 117.34
  A 0.67 0.67 0.0 0 1 298.61 116.64
  L 313.97 116.64
  A 0.57 0.57 0.0 0 1 314.54 117.26
  Q 314.00 123.48 315.17 134.33
  Z"
/>
<path d="
  M 350.34 145.48
  A 0.54 0.54 0.0 0 1 349.64 146.08
  Q 344.03 144.19 339.77 142.68
  Q 335.31 141.09 334.39 136.63
  Q 332.55 127.78 333.93 118.15
  A 0.69 0.69 0.0 0 1 334.67 117.56
  L 350.02 118.72
  A 0.71 0.71 0.0 0 1 350.67 119.56
  Q 348.12 132.43 350.34 145.48
  Z"
/>
<path d="
  M 384.38 159.35
  Q 379.75 158.34 374.65 156.19
  C 372.76 155.39 371.63 154.56 371.01 152.52
  Q 366.43 137.62 370.37 122.59
  A 0.85 0.85 0.0 0 1 371.42 121.99
  L 385.04 125.70
  A 1.53 1.53 0.0 0 1 386.15 127.41
  C 384.45 138.28 382.78 148.44 384.83 158.90
  A 0.38 0.38 0.0 0 1 384.38 159.35
  Z"
/>
<path d="
  M 415.99 171.72
  L 406.89 168.43
  A 1.41 1.39 2.6 0 1 406.02 167.49
  Q 401.24 150.07 405.50 132.74
  A 0.66 0.65 16.7 0 1 406.36 132.28
  L 421.11 137.61
  A 1.14 1.14 0.0 0 1 421.77 139.13
  C 417.31 149.35 416.47 159.73 416.81 171.12
  A 0.62 0.61 8.8 0 1 415.99 171.72
  Z"
/>
<path d="
  M 448.70 182.45
  L 437.29 179.34
  A 1.58 1.57 -88.5 0 1 436.16 178.14
  Q 433.25 163.89 437.53 150.26
  Q 438.19 148.17 439.06 146.63
  A 0.65 0.65 0.0 0 1 439.91 146.37
  L 454.28 153.50
  A 0.91 0.91 0.0 0 1 454.69 154.71
  Q 448.48 167.53 449.13 182.10
  A 0.34 0.34 0.0 0 1 448.70 182.45
  Z"
/>
<path d="
  M 171.22 578.67
  A 0.18 0.18 0.0 0 1 171.03 578.96
  Q 161.68 576.46 154.43 569.64
  C 146.28 561.98 142.81 549.72 143.19 538.74
  C 143.36 533.89 144.18 524.94 139.69 521.99
  C 125.84 512.86 113.17 558.23 110.65 564.98
  A 0.70 0.70 0.0 0 1 109.33 564.95
  Q 107.70 559.98 107.55 554.48
  C 107.05 535.66 113.67 517.34 123.09 500.82
  Q 125.14 497.21 130.02 486.34
  Q 137.17 470.40 136.01 451.25
  C 134.94 433.58 131.43 412.44 130.10 395.39
  C 128.25 371.61 127.18 351.98 128.95 330.38
  Q 129.04 329.18 129.57 327.15
  C 131.07 321.42 133.14 317.49 138.94 315.19
  C 148.47 311.41 158.55 307.91 167.56 304.02
  Q 193.23 292.93 218.00 282.41
  Q 234.20 275.53 242.54 270.72
  Q 256.39 262.74 272.19 252.46
  Q 276.37 249.73 282.35 246.86
  C 292.80 241.85 307.29 241.28 318.35 245.89
  Q 323.93 248.22 329.96 254.03
  C 337.11 260.92 342.71 270.08 347.49 278.46
  Q 348.99 281.09 351.53 280.59
  C 354.78 279.96 356.35 275.08 356.12 272.00
  Q 355.69 266.05 353.27 260.23
  C 347.29 245.84 334.77 232.77 319.33 229.21
  A 1.12 1.12 0.0 0 1 318.45 228.09
  Q 318.78 211.76 310.67 196.45
  A 0.38 0.38 0.0 0 1 311.18 195.94
  Q 321.93 201.59 330.65 210.27
  C 336.88 216.47 342.62 225.36 347.62 231.36
  C 349.83 234.02 352.31 235.49 356.24 235.30
  Q 363.85 234.93 370.68 233.42
  Q 394.32 228.18 400.35 205.70
  C 401.86 200.03 402.12 192.39 401.48 186.61
  A 0.46 0.46 0.0 0 1 402.09 186.13
  Q 409.76 188.68 419.24 192.17
  C 422.38 193.33 421.14 201.67 420.69 204.49
  Q 416.58 230.29 396.68 246.92
  C 394.25 248.96 393.19 253.16 394.96 255.88
  C 397.98 260.53 408.10 254.49 411.42 252.14
  C 419.08 246.70 425.75 239.25 430.18 230.85
  C 435.57 220.63 439.47 210.42 440.37 199.84
  A 0.48 0.47 8.8 0 1 440.96 199.42
  Q 447.54 201.08 450.88 202.09
  C 452.71 202.64 454.10 203.76 454.81 205.59
  C 459.61 218.00 453.16 229.92 446.46 240.48
  Q 437.40 254.76 425.22 266.48
  Q 419.19 272.29 411.60 279.09
  C 409.99 280.53 408.77 282.86 409.34 285.13
  C 412.06 295.88 428.45 282.05 433.56 277.53
  Q 440.22 271.63 447.03 264.52
  Q 461.64 249.25 470.07 230.61
  C 475.23 219.22 474.29 208.02 471.15 196.32
  Q 468.72 187.28 468.37 186.16
  A 5.50 5.48 -55.5 0 1 468.13 184.85
  Q 467.52 175.66 470.90 165.29
  A 0.41 0.41 0.0 0 1 471.53 165.08
  Q 483.73 173.74 494.85 181.89
  Q 515.30 196.87 534.80 208.97
  A 2.16 2.15 27.5 0 1 535.65 211.66
  C 527.68 230.19 520.78 250.34 535.43 267.81
  Q 546.74 281.31 549.23 284.25
  Q 551.20 286.58 568.53 306.97
  Q 573.09 312.34 580.15 319.08
  C 585.52 324.20 592.24 327.74 599.81 328.39
  Q 603.41 328.70 605.44 329.08
  A 0.59 0.58 29.9 0 1 605.72 330.10
  Q 602.11 333.13 598.00 335.00
  C 591.55 337.95 583.65 336.92 577.75 332.94
  Q 573.20 329.88 568.50 325.01
  Q 560.06 316.28 548.31 304.07
  Q 543.37 298.94 537.91 294.26
  C 527.23 285.12 515.25 275.56 511.44 261.32
  Q 510.08 256.23 509.51 247.24
  Q 508.93 237.90 509.14 226.34
  C 509.22 222.25 504.61 219.48 501.48 223.15
  Q 499.20 225.83 497.58 231.63
  Q 493.28 247.05 493.17 263.10
  A 0.78 0.77 84.6 0 1 492.55 263.86
  C 483.37 265.62 475.21 272.78 470.51 280.52
  Q 462.36 293.95 454.50 305.24
  Q 453.51 306.66 453.36 309.50
  C 453.01 316.11 459.52 316.73 464.33 314.24
  Q 472.43 310.05 478.69 302.84
  A 0.49 0.48 56.4 0 1 479.51 303.01
  Q 482.26 311.27 481.79 319.45
  Q 481.52 324.18 477.12 327.91
  Q 471.25 332.89 466.92 334.90
  C 463.36 336.55 459.54 338.76 460.34 342.67
  C 461.19 346.85 465.88 348.41 469.77 348.25
  Q 474.39 348.06 478.71 346.10
  A 0.34 0.33 -2.1 0 1 479.17 346.52
  Q 475.72 355.85 470.05 363.83
  C 464.70 371.37 456.29 370.15 449.36 371.30
  C 443.99 372.18 444.10 377.49 447.57 380.44
  C 450.85 383.22 455.90 383.27 460.24 383.05
  A 0.26 0.26 0.0 0 1 460.46 383.46
  Q 456.97 388.26 453.12 394.36
  C 451.47 396.96 449.75 399.95 446.56 400.10
  Q 438.95 400.48 432.83 400.63
  Q 430.72 400.68 429.07 402.87
  C 424.69 408.67 434.21 412.50 437.62 413.89
  A 0.82 0.82 0.0 0 1 437.89 415.23
  Q 429.72 423.28 419.87 427.87
  C 415.86 429.74 413.17 429.16 409.35 427.38
  A 2.88 2.87 33.6 0 0 406.01 428.05
  Q 402.54 431.86 399.62 434.86
  C 383.51 451.45 361.16 459.70 338.28 458.94
  C 330.34 458.67 323.15 456.71 314.71 454.31
  C 310.45 453.10 307.24 453.07 304.71 456.71
  Q 303.74 458.12 303.71 463.63
  C 303.69 469.37 303.23 475.40 301.94 480.72
  A 0.36 0.36 0.0 0 1 301.39 480.93
  C 294.89 476.45 286.07 472.34 278.03 472.94
  Q 273.18 473.30 272.83 477.96
  Q 272.57 481.30 275.37 482.88
  Q 278.72 484.78 288.75 492.12
  Q 299.55 500.03 309.52 513.87
  Q 329.52 541.64 338.27 576.74
  Q 347.35 613.17 347.89 642.94
  C 348.00 648.97 347.92 654.36 346.22 659.00
  Q 344.48 663.73 339.84 667.36
  Q 332.29 673.27 325.04 676.79
  C 309.65 684.26 293.94 689.28 277.24 693.99
  Q 239.76 704.56 200.88 712.88
  Q 195.35 714.07 192.34 719.86
  C 184.95 734.11 182.06 750.13 181.82 766.26
  Q 181.67 777.06 185.47 786.04
  C 190.67 798.34 203.93 800.02 215.36 801.71
  Q 240.51 805.43 257.06 825.49
  A 0.39 0.39 0.0 0 1 256.66 826.12
  L 247.48 823.62
  A 2.23 2.13 72.9 0 1 246.59 823.12
  Q 237.40 814.46 226.81 809.46
  C 223.73 808.01 216.69 804.88 214.46 808.93
  C 212.11 813.22 215.39 817.03 218.91 819.61
  Q 226.64 825.27 231.93 832.53
  A 0.31 0.30 -10.2 0 1 231.60 833.00
  L 211.97 827.65
  A 1.05 1.00 78.1 0 1 211.40 827.26
  C 209.82 825.10 208.31 822.27 207.06 820.63
  Q 195.93 806.00 177.69 801.55
  C 174.11 800.68 166.39 799.88 165.70 804.96
  Q 165.24 808.38 166.95 811.28
  Q 167.63 812.43 172.08 814.01
  C 184.13 818.28 195.74 828.87 197.35 842.22
  A 0.51 0.51 0.0 0 1 196.62 842.74
  C 190.82 839.84 183.55 835.41 176.39 833.20
  Q 166.92 830.28 157.43 829.11
  Q 151.56 828.39 147.33 827.65
  Q 137.09 825.84 139.41 815.42
  C 141.54 805.84 144.78 795.63 148.16 785.39
  C 153.77 768.41 157.10 750.22 158.65 733.16
  C 159.38 725.19 159.14 715.18 159.20 707.50
  C 159.23 704.34 160.14 699.65 162.57 697.85
  C 164.69 696.29 167.01 696.20 169.59 695.92
  Q 169.68 695.91 179.25 694.96
  Q 193.26 693.55 205.69 687.51
  C 215.97 682.52 228.71 674.63 238.28 666.89
  C 247.88 659.11 256.60 653.70 266.88 649.13
  Q 277.56 644.38 279.12 643.55
  A 1.05 1.05 0.0 0 1 280.49 643.91
  C 283.16 648.01 288.32 655.89 294.37 653.34
  C 301.22 650.47 297.19 643.42 294.37 638.62
  Q 287.15 626.31 278.44 614.29
  Q 265.47 596.39 252.21 577.34
  Q 239.69 559.33 231.12 539.30
  A 5.17 5.07 33.1 0 1 230.71 537.45
  Q 230.32 525.44 229.93 523.05
  Q 227.72 509.39 218.35 498.42
  C 217.42 497.34 217.35 495.30 217.59 493.80
  Q 221.56 469.45 234.73 447.97
  Q 235.56 446.61 236.14 445.98
  A 1.30 1.29 38.5 0 1 237.83 445.79
  Q 245.86 451.34 254.04 454.67
  Q 258.78 456.60 263.33 455.53
  C 267.33 454.59 269.40 451.51 267.41 447.60
  Q 266.63 446.07 263.09 443.17
  C 258.53 439.45 248.28 433.36 243.59 427.59
  Q 235.26 417.32 236.25 403.40
  A 0.57 0.57 0.0 0 1 237.23 403.05
  Q 241.81 407.82 246.91 412.59
  Q 255.33 420.46 266.43 425.04
  C 270.92 426.89 274.37 427.38 278.40 425.21
  C 282.87 422.81 281.13 418.47 277.85 416.16
  C 266.03 407.86 256.99 400.30 249.02 389.58
  C 241.41 379.33 239.25 369.70 243.13 357.83
  A 0.25 0.25 0.0 0 1 243.59 357.81
  Q 245.30 361.71 248.50 367.06
  C 254.33 376.81 262.82 384.77 272.30 391.44
  C 277.92 395.40 288.41 400.39 294.96 397.23
  Q 298.66 395.45 296.16 391.54
  A 2.97 2.91 -86.7 0 0 295.55 390.84
  Q 295.14 390.49 289.76 386.85
  C 275.96 377.50 265.28 363.43 258.87 347.87
  Q 257.98 345.70 258.08 343.84
  A 1.06 1.05 84.4 0 1 258.87 342.87
  Q 275.89 338.56 291.84 331.35
  C 298.60 328.30 303.41 325.18 309.06 320.56
  C 312.04 318.12 317.51 312.45 313.82 308.50
  C 311.07 305.55 306.29 306.59 302.76 308.27
  Q 286.98 315.80 267.91 321.31
  Q 259.93 323.62 245.79 325.49
  Q 238.79 326.42 223.50 329.42
  Q 206.49 332.75 196.94 334.07
  Q 188.55 335.23 170.07 336.16
  Q 166.52 336.34 165.86 340.11
  Q 162.92 357.09 161.72 363.50
  C 158.17 382.52 156.24 400.63 155.28 419.25
  Q 154.18 440.87 157.00 461.74
  C 158.01 469.23 164.24 477.40 169.78 482.22
  C 173.86 485.78 180.71 488.47 185.40 491.09
  Q 191.79 494.67 198.43 500.33
  C 210.14 510.29 215.80 525.37 214.82 540.31
  Q 214.54 544.49 212.69 548.09
  A 0.59 0.59 0.0 0 1 211.58 547.91
  Q 210.52 541.07 207.90 534.05
  C 203.21 521.49 192.96 513.64 181.20 507.32
  Q 177.90 505.55 173.70 505.68
  C 168.15 505.86 164.79 510.28 162.28 515.04
  C 150.97 536.53 156.34 560.59 171.22 578.67
  Z
  M 376.40 288.96
  C 374.77 285.62 371.39 286.19 369.39 288.65
  C 366.24 292.51 368.95 301.26 370.92 305.88
  C 378.83 324.47 396.78 336.76 415.99 340.91
  C 421.08 342.01 436.05 343.21 436.44 335.54
  C 436.59 332.47 432.89 330.08 430.33 329.43
  C 416.34 325.88 404.34 322.35 393.61 313.23
  C 386.61 307.29 380.88 298.09 376.40 288.96
  Z
  M 343.04 320.94
  C 338.73 321.96 338.56 327.21 339.82 330.69
  Q 343.73 341.48 351.84 351.45
  C 358.91 360.14 368.45 365.94 378.12 370.35
  Q 386.77 374.30 397.19 375.80
  C 404.56 376.86 424.48 376.01 426.98 366.25
  C 428.11 361.86 423.73 359.58 419.99 359.85
  C 415.68 360.16 407.11 360.88 401.32 360.26
  C 379.98 357.95 363.93 345.85 351.50 328.74
  C 349.98 326.65 345.83 320.29 343.04 320.94
  Z
  M 409.01 396.00
  C 408.91 394.05 406.48 389.60 403.85 390.38
  Q 383.66 396.35 363.83 388.96
  C 358.84 387.10 352.00 384.17 346.84 381.43
  Q 327.32 371.04 314.61 353.13
  C 313.60 351.71 312.27 350.58 310.56 351.06
  C 304.32 352.82 306.98 361.34 308.88 365.40
  Q 311.19 370.35 314.48 374.26
  C 331.49 394.49 357.39 407.49 383.73 407.42
  Q 393.71 407.39 401.37 403.90
  C 404.51 402.47 409.20 399.64 409.01 396.00
  Z
  M 379.85 429.56
  Q 377.92 425.81 373.23 426.30
  C 352.67 428.47 330.49 423.57 313.23 411.50
  Q 311.96 410.61 308.69 410.54
  A 1.80 1.76 -59.7 0 0 307.67 410.82
  Q 304.51 412.85 304.68 416.82
  C 305.06 425.77 317.82 430.29 324.68 433.00
  Q 344.84 440.95 367.05 439.08
  Q 371.66 438.69 376.54 436.37
  Q 380.77 434.35 380.15 430.49
  A 2.90 2.88 27.4 0 0 379.85 429.56
  Z"
/>
<path d="
  M 178.61 172.88
  Q 179.46 173.00 180.46 173.56
  Q 209.51 189.70 230.71 215.04
  C 238.43 224.27 244.42 234.43 250.18 244.74
  A 0.83 0.82 58.7 0 1 249.92 245.83
  Q 237.16 254.59 223.66 261.09
  A 0.71 0.71 0.0 0 1 222.66 260.60
  Q 217.71 237.68 206.84 216.91
  Q 194.65 193.63 178.47 173.13
  A 0.16 0.15 74.8 0 1 178.61 172.88
  Z"
/>
<path d="
  M 138.79 273.03
  A 0.36 0.36 0.0 0 1 139.24 272.50
  C 147.16 276.24 154.60 281.21 162.00 286.42
  A 0.38 0.37 50.4 0 1 161.94 287.07
  L 152.62 291.27
  A 1.11 1.10 -29.5 0 1 151.26 290.90
  L 138.79 273.03
  Z"
/>
<path d="
  M 763.45 412.64
  A 0.31 0.31 0.0 0 1 762.95 412.98
  C 754.43 405.32 740.02 404.08 728.50 404.75
  C 720.88 405.19 714.50 406.06 707.54 406.14
  Q 693.24 406.30 683.26 395.35
  Q 680.75 392.60 677.36 394.87
  C 641.78 418.72 606.71 438.70 568.63 454.34
  Q 560.84 457.54 552.31 457.74
  A 3.68 3.53 -38.1 0 1 551.31 457.64
  Q 542.84 455.69 536.30 451.17
  Q 527.48 445.06 518.76 436.97
  Q 507.32 426.36 493.23 411.27
  Q 484.44 401.86 477.52 393.00
  A 0.80 0.79 40.8 0 1 477.45 392.12
  L 496.38 358.05
  A 0.38 0.38 0.0 0 1 497.03 358.04
  Q 512.48 382.91 528.42 405.06
  Q 529.53 406.61 533.08 410.42
  C 538.08 415.80 543.16 415.54 550.62 414.12
  Q 569.31 410.55 593.25 403.50
  Q 621.81 395.08 647.22 385.64
  Q 676.39 374.82 695.96 350.42
  C 701.04 344.08 705.27 336.62 710.33 329.42
  Q 717.02 319.90 717.08 319.83
  C 723.38 311.52 732.26 302.35 741.72 298.21
  C 753.24 293.16 767.39 293.59 778.84 297.95
  A 0.38 0.38 0.0 0 1 778.77 298.68
  C 775.16 299.30 769.44 299.70 765.05 300.99
  Q 744.04 307.15 730.53 325.04
  Q 722.84 335.22 716.63 346.12
  Q 715.12 348.78 715.67 352.46
  C 716.37 357.08 722.02 358.59 725.98 357.50
  C 738.84 353.98 752.05 350.01 764.89 347.87
  Q 771.81 346.71 778.66 346.90
  C 793.23 347.30 807.18 356.77 812.72 370.11
  A 0.18 0.18 0.0 0 1 812.45 370.33
  Q 794.28 357.33 772.81 359.00
  Q 764.56 359.64 754.75 362.25
  Q 733.73 367.84 723.58 371.32
  C 717.37 373.44 711.17 376.96 709.18 383.18
  Q 708.59 385.05 709.94 387.36
  C 712.14 391.09 716.33 391.55 720.82 390.78
  Q 727.15 389.70 736.49 390.95
  Q 756.81 393.68 763.45 412.64
  Z"
/>
<path d="
  M 102.07 337.42
  A 0.65 0.65 0.0 0 1 103.09 336.82
  L 110.56 342.11
  A 3.76 3.75 19.8 0 1 112.14 345.46
  L 111.06 359.77
  A 0.52 0.52 0.0 0 1 110.11 360.01
  Q 103.31 349.67 102.07 337.42
  Z"
/>
<path d="
  M 61.57 481.62
  A 0.38 0.37 -84.1 0 1 61.99 482.14
  Q 60.95 484.56 60.44 486.40
  A 6.10 5.58 -26.5 0 1 60.11 487.26
  Q 45.69 516.19 41.02 547.29
  Q 38.98 560.83 39.81 576.49
  C 40.71 593.66 46.06 609.25 54.28 623.48
  Q 61.44 635.89 72.75 645.19
  A 0.75 0.75 0.0 0 1 72.81 646.28
  Q 66.45 653.04 61.85 662.08
  Q 60.29 665.13 60.14 668.49
  A 0.48 0.48 0.0 0 1 59.35 668.84
  Q 51.51 662.36 45.26 653.76
  Q 31.28 634.51 26.09 611.11
  Q 26.09 611.08 24.22 598.76
  C 21.53 580.95 24.24 567.54 27.41 549.19
  C 30.99 528.42 40.04 509.60 52.11 492.12
  C 54.29 488.97 59.00 482.14 61.57 481.62
  Z"
/>
<path d="
  M 595.69 810.63
  A 0.25 0.25 0.0 0 1 595.40 810.99
  C 586.62 808.35 577.52 807.80 568.25 807.80
  A 1.52 1.52 0.0 0 1 567.20 807.38
  C 559.92 800.58 552.24 794.56 542.47 792.91
  Q 527.32 790.36 513.46 794.33
  C 509.53 795.46 507.62 800.93 511.11 803.86
  Q 512.18 804.75 515.26 804.91
  Q 522.19 805.27 530.13 806.40
  C 542.87 808.20 553.27 813.36 557.41 826.47
  A 0.29 0.28 88.7 0 1 557.07 826.83
  C 547.47 824.27 539.92 821.76 531.40 820.21
  Q 517.30 817.66 508.51 817.00
  Q 495.77 816.05 485.57 814.68
  C 479.93 813.92 476.03 811.51 475.45 805.54
  Q 473.20 782.67 463.00 763.23
  Q 453.24 744.64 440.72 731.01
  Q 421.65 710.24 416.99 704.25
  C 412.81 698.89 407.24 692.49 408.56 685.57
  A 2.89 2.86 -22.9 0 1 408.98 684.55
  Q 411.84 680.28 413.92 678.17
  Q 421.04 670.97 426.76 663.01
  C 433.90 653.08 436.89 641.94 438.70 629.82
  Q 440.00 621.19 440.88 618.39
  Q 444.48 607.05 452.12 597.84
  Q 458.42 590.24 462.35 585.87
  Q 463.58 584.52 466.75 584.62
  C 471.46 584.78 492.26 584.85 490.33 576.69
  Q 489.34 572.52 484.49 571.97
  Q 471.90 570.54 455.00 567.02
  Q 448.39 565.64 435.83 564.51
  Q 427.03 563.72 408.99 560.24
  Q 374.93 553.68 344.40 536.69
  A 0.96 0.96 0.0 0 1 344.06 535.32
  Q 350.27 525.94 356.64 513.75
  C 361.40 504.64 365.30 492.70 368.48 484.18
  A 1.53 1.52 17.0 0 1 370.27 483.23
  Q 423.64 495.99 472.18 520.36
  Q 494.11 531.37 511.26 543.29
  C 518.99 548.66 528.42 556.07 529.31 565.95
  C 530.55 579.72 522.57 593.43 514.11 603.88
  Q 504.33 615.95 493.86 626.12
  Q 474.82 644.61 456.77 662.02
  Q 453.51 665.17 449.44 669.94
  C 446.66 673.21 443.71 677.72 443.08 681.83
  C 441.78 690.50 447.95 698.24 452.62 705.13
  Q 469.85 730.55 481.81 748.67
  Q 482.71 750.04 488.57 757.92
  Q 497.70 770.19 508.17 777.78
  C 520.40 786.64 537.29 789.32 552.55 787.33
  C 570.56 784.98 587.22 794.79 595.69 810.63
  Z"
/>
<path d="
  M 216.63 610.53
  A 1.93 1.92 -39.9 0 1 216.82 608.50
  Q 223.72 599.52 230.19 588.44
  Q 231.98 585.38 233.75 583.00
  A 0.35 0.35 0.0 0 1 234.32 583.01
  L 258.28 617.35
  A 1.57 1.56 45.4 0 1 258.27 619.14
  Q 252.30 627.58 244.18 635.56
  A 1.22 1.21 -52.8 0 1 242.76 635.76
  C 231.67 629.90 222.18 621.55 216.63 610.53
  Z"
/>
<path d="
  M 207.03 621.12
  Q 215.54 631.96 225.32 640.92
  Q 228.53 643.86 231.66 645.54
  A 0.60 0.60 0.0 0 1 231.73 646.55
  C 219.46 655.74 206.13 662.71 191.93 669.48
  A 1.27 1.27 0.0 0 1 190.46 669.21
  C 183.72 662.20 180.20 652.81 178.28 643.49
  A 2.24 2.23 68.4 0 1 179.30 641.13
  Q 192.89 632.81 205.98 621.03
  A 0.73 0.72 49.8 0 1 207.03 621.12
  Z"
/>
<path d="
  M 163.44 651.81
  A 0.39 0.39 0.0 0 1 164.01 652.06
  C 166.28 661.50 171.89 668.81 177.35 676.21
  A 0.40 0.40 0.0 0 1 177.09 676.84
  C 166.77 678.35 155.78 680.93 146.89 688.32
  Q 144.12 690.62 142.23 690.85
  Q 138.45 691.30 136.01 689.81
  C 130.42 686.39 129.17 682.05 129.90 675.31
  Q 130.03 674.16 130.68 663.69
  A 1.75 1.74 86.6 0 1 132.09 662.09
  C 143.09 660.02 153.65 657.41 163.44 651.81
  Z"
/>
<path d="
  M 121.75 692.24
  A 0.45 0.45 0.0 0 1 121.31 692.86
  Q 117.28 692.68 113.98 692.07
  Q 91.27 687.84 71.68 677.02
  A 1.64 1.62 16.3 0 1 70.84 675.50
  Q 71.10 671.00 73.20 666.89
  Q 77.20 659.04 83.13 653.08
  A 1.28 1.28 0.0 0 1 84.67 652.87
  Q 100.36 661.71 117.75 663.07
  A 0.50 0.49 -83.5 0 1 118.20 663.64
  Q 115.97 678.18 121.75 692.24
  Z"
/>
</g>
<g fill="#146ca8">
<path d="
  M 348.37 0.00
  Q 386.70 1.56 424.23 9.09
  C 433.21 10.89 445.08 13.92 452.84 15.95
  Q 482.83 23.79 516.20 37.52
  Q 526.81 41.89 542.81 49.80
  Q 559.14 57.86 568.87 63.16
  Q 595.42 77.62 619.31 95.95
  Q 632.22 105.87 639.49 113.02
  Q 647.61 121.00 656.56 132.18
  C 677.29 158.08 689.09 190.94 685.53 224.02
  Q 685.01 228.86 683.82 232.51
  Q 679.11 246.95 664.57 250.10
  A 0.81 0.81 0.0 0 0 663.92 250.93
  Q 664.05 254.16 663.82 258.48
  Q 663.72 260.49 659.37 274.83
  C 658.02 279.28 654.81 283.98 649.44 281.31
  C 646.05 279.62 645.76 276.06 646.08 272.77
  A 0.47 0.47 0.0 0 0 645.37 272.33
  Q 644.09 273.11 643.46 273.99
  C 640.54 278.02 638.48 281.39 634.01 282.01
  A 2.61 2.53 48.5 0 1 632.96 281.93
  Q 628.25 280.51 626.87 275.36
  Q 625.49 270.19 623.85 263.56
  A 0.84 0.84 0.0 0 0 622.46 263.15
  Q 617.77 267.54 612.12 271.29
  Q 606.98 274.70 602.24 271.61
  A 2.46 2.46 0.0 0 1 601.60 270.97
  Q 599.18 267.43 598.47 263.34
  C 597.90 260.10 596.84 256.65 596.99 254.48
  A 0.26 0.25 79.7 0 0 596.63 254.23
  L 583.71 260.05
  A 1.37 1.37 0.0 0 0 582.92 261.47
  Q 584.65 274.65 588.18 287.87
  A 1.89 1.89 0.0 0 0 590.93 289.02
  C 596.04 286.14 606.14 281.15 609.21 289.98
  Q 610.35 293.25 608.97 296.19
  A 0.80 0.79 88.2 0 0 610.07 297.23
  Q 613.18 295.51 615.71 292.75
  A 4.60 4.54 -84.6 0 1 616.58 292.02
  C 620.58 289.46 622.81 287.75 626.89 290.41
  C 629.38 292.04 630.86 297.14 631.37 299.80
  Q 633.92 313.26 629.17 326.24
  C 624.26 339.64 612.35 349.34 598.80 353.04
  Q 593.73 354.42 586.50 354.24
  Q 576.27 353.98 568.01 348.74
  Q 558.10 342.47 550.55 333.79
  C 542.19 324.19 532.99 315.12 524.04 307.03
  Q 517.87 301.45 514.11 297.67
  C 507.68 291.19 504.28 288.07 501.73 284.70
  A 3.89 3.88 -30.7 0 0 497.04 283.51
  L 494.03 284.87
  A 2.08 2.08 0.0 0 0 492.98 287.61
  Q 497.06 296.73 498.48 306.50
  Q 499.03 310.26 498.97 321.36
  Q 498.97 322.64 498.55 324.27
  C 497.96 326.57 499.68 328.27 500.83 330.13
  Q 522.56 365.31 543.80 395.45
  Q 544.60 396.59 546.48 397.08
  A 1.10 1.09 36.4 0 0 547.36 396.95
  Q 548.27 396.37 549.64 396.13
  Q 556.92 394.84 565.81 392.57
  Q 583.12 388.14 600.22 382.93
  Q 614.24 378.66 636.54 371.25
  C 650.46 366.63 662.62 360.03 672.92 349.68
  Q 680.88 341.67 685.37 334.86
  Q 695.28 319.81 699.58 313.85
  Q 709.19 300.51 721.72 290.51
  Q 739.99 275.93 762.98 278.03
  C 778.27 279.43 793.80 284.27 805.37 294.64
  C 810.88 299.57 814.23 305.76 810.72 312.77
  A 1.94 1.91 -4.0 0 1 810.05 313.53
  C 806.26 316.02 801.07 315.59 796.46 314.84
  C 791.39 314.01 783.71 313.90 777.61 315.29
  Q 759.92 319.28 747.65 331.69
  A 2.26 2.25 -14.4 0 0 747.11 332.60
  Q 746.65 334.13 746.19 334.48
  A 0.31 0.30 -57.9 0 0 746.31 335.02
  Q 747.77 335.30 750.00 334.54
  Q 754.00 333.19 762.57 331.53
  C 766.22 330.82 770.08 331.05 773.24 330.63
  C 777.45 330.08 782.89 330.69 786.32 331.17
  Q 800.01 333.10 811.91 342.33
  Q 830.65 356.87 831.15 380.51
  Q 831.35 389.71 830.64 393.41
  C 829.59 398.84 827.89 403.39 821.21 403.03
  Q 817.63 402.83 815.92 399.84
  C 810.67 390.61 803.97 382.68 794.11 378.67
  C 781.36 373.49 769.21 375.06 755.50 378.24
  A 1.07 1.05 17.3 0 0 755.01 378.49
  Q 754.37 379.05 753.58 379.08
  A 0.46 0.46 0.0 0 0 753.41 379.96
  Q 772.47 388.11 779.73 406.71
  C 781.96 412.44 782.68 418.86 782.97 425.75
  Q 783.26 432.23 781.83 437.15
  C 780.31 442.39 778.66 447.10 772.80 447.07
  Q 769.26 447.06 767.78 444.72
  C 760.48 433.22 750.64 420.32 735.50 421.10
  Q 722.17 421.78 712.75 422.49
  Q 701.91 423.29 693.01 420.77
  Q 688.38 419.46 683.37 416.68
  C 680.33 415.00 677.03 417.41 674.22 418.97
  C 662.53 425.47 643.55 438.36 630.54 445.48
  Q 604.70 459.61 578.72 469.73
  Q 577.33 470.28 573.76 472.27
  A 5.87 5.82 -82.5 0 0 572.38 473.34
  C 566.14 479.87 558.73 486.17 549.81 489.06
  Q 543.50 491.10 538.86 487.22
  A 3.13 2.98 -88.6 0 1 538.27 486.57
  C 536.40 483.79 536.85 478.84 537.86 476.07
  A 2.40 2.40 0.0 0 0 536.87 473.20
  C 516.19 460.37 499.86 444.22 482.28 425.59
  Q 477.28 420.28 471.33 413.03
  Q 469.45 410.74 467.64 409.19
  A 0.78 0.78 0.0 0 0 466.50 409.32
  Q 461.23 416.42 455.91 422.55
  C 451.09 428.10 444.48 433.45 439.32 437.33
  Q 428.36 445.56 413.10 448.62
  Q 410.59 449.12 409.08 450.59
  Q 401.33 458.12 396.83 460.85
  Q 392.66 463.38 383.51 467.70
  A 0.70 0.69 29.8 0 0 383.87 469.02
  C 385.85 468.84 386.91 469.47 388.33 469.83
  Q 404.25 473.75 413.55 476.98
  C 443.69 487.42 474.54 500.21 501.47 516.08
  Q 513.27 523.04 522.38 529.68
  C 532.92 537.37 542.42 545.76 545.25 558.78
  Q 546.76 565.74 546.08 574.80
  C 545.11 587.82 538.04 601.23 530.19 611.46
  C 519.22 625.75 505.97 639.04 491.18 652.80
  C 481.04 662.24 471.38 671.25 463.52 681.22
  C 461.95 683.21 460.10 684.51 461.89 686.87
  Q 462.53 687.71 462.73 688.02
  Q 483.10 719.61 500.92 745.61
  Q 506.00 753.01 511.00 758.25
  Q 516.16 763.67 522.52 767.29
  C 527.81 770.31 534.61 770.91 540.75 770.98
  Q 546.78 771.05 565.41 770.95
  C 577.79 770.89 589.60 777.56 598.29 786.23
  Q 607.91 795.82 615.63 808.62
  C 618.97 814.16 622.58 821.33 620.54 826.98
  C 617.17 836.32 602.87 830.14 595.86 828.71
  Q 588.88 827.29 578.07 825.92
  A 0.96 0.95 -8.9 0 0 577.08 827.27
  Q 579.14 831.66 580.26 837.10
  C 581.64 843.82 580.29 849.56 573.23 851.07
  A 3.82 3.77 43.4 0 1 571.76 851.10
  Q 567.55 850.40 565.06 849.20
  C 545.73 839.85 524.55 835.94 503.24 833.86
  Q 486.83 832.26 479.49 830.99
  C 470.85 829.49 464.71 827.29 461.21 819.27
  Q 460.18 816.89 459.44 813.31
  C 457.50 803.92 456.29 794.65 453.65 786.70
  C 447.38 767.79 436.68 752.37 423.68 738.05
  Q 408.12 720.91 400.92 712.41
  Q 396.37 707.04 393.67 702.15
  Q 390.97 697.27 390.00 690.10
  C 389.49 686.32 390.80 681.08 392.45 678.21
  Q 396.43 671.30 403.28 664.27
  Q 416.75 650.44 420.60 632.33
  Q 421.27 629.16 422.85 619.27
  C 424.86 606.68 431.41 594.41 439.91 584.47
  A 0.79 0.78 -56.3 0 0 439.67 583.26
  C 436.97 581.87 434.77 582.18 431.99 581.79
  Q 407.45 578.36 393.59 574.89
  Q 374.44 570.10 355.72 561.86
  A 1.34 1.33 5.0 0 0 353.88 563.40
  Q 361.50 594.53 364.39 628.25
  Q 365.35 639.43 364.26 654.24
  Q 363.66 662.39 359.73 669.49
  C 356.99 674.45 350.71 680.36 346.34 683.34
  Q 337.63 689.28 326.01 694.47
  Q 311.14 701.10 292.53 706.99
  Q 272.54 713.33 227.43 724.42
  Q 224.27 725.20 211.39 727.72
  Q 208.14 728.35 206.90 729.48
  Q 205.10 731.12 204.29 733.56
  C 200.30 745.55 199.34 758.35 199.76 771.28
  Q 199.96 777.74 201.35 779.98
  Q 203.71 783.76 208.77 784.51
  C 219.80 786.15 228.84 787.31 237.60 790.92
  Q 248.52 795.42 258.24 802.80
  C 269.79 811.57 276.72 821.64 281.42 835.82
  C 282.26 838.36 282.68 843.16 280.30 844.83
  Q 275.20 848.41 269.00 846.26
  C 265.00 844.88 258.81 842.39 256.60 843.13
  A 0.46 0.45 60.5 0 0 256.40 843.86
  Q 256.98 844.51 256.99 844.89
  Q 257.17 850.99 254.34 853.93
  C 251.01 857.39 244.67 856.08 240.73 854.53
  C 233.03 851.50 224.87 848.22 216.63 846.82
  A 1.39 1.39 0.0 0 0 215.01 848.16
  C 214.94 850.83 215.13 853.73 214.34 856.24
  Q 212.38 862.54 205.54 864.00
  L 200.54 864.00
  Q 195.93 862.67 191.89 859.61
  Q 185.84 855.04 185.65 854.93
  Q 178.12 850.69 170.48 848.74
  Q 162.49 846.70 144.50 843.94
  C 140.98 843.40 138.47 842.36 134.91 841.12
  Q 128.94 839.02 125.54 833.20
  C 122.03 827.19 120.24 821.58 121.59 815.03
  C 122.72 809.54 124.08 803.99 126.01 798.27
  Q 135.28 770.79 138.43 754.73
  Q 142.69 732.99 141.98 710.89
  A 0.93 0.92 88.4 0 0 141.04 709.99
  Q 133.27 710.15 124.00 709.72
  C 106.98 708.91 90.29 704.11 75.05 696.92
  Q 68.09 693.64 64.10 691.67
  A 2.21 2.19 -36.3 0 0 62.75 691.47
  Q 55.83 692.66 48.90 691.19
  Q 43.89 690.12 42.42 685.60
  Q 42.01 684.37 42.07 677.32
  Q 42.08 676.64 42.53 674.94
  Q 42.97 673.25 41.44 671.86
  Q 33.88 665.05 27.93 653.78
  A 1.49 1.48 82.3 0 0 26.95 653.03
  C 24.78 652.51 22.88 653.53 20.61 652.31
  Q 15.44 649.53 12.69 644.55
  A 4.16 4.09 27.3 0 1 12.20 643.06
  Q 11.50 637.74 12.96 633.46
  Q 13.55 631.75 16.24 629.24
  A 0.99 0.98 -30.7 0 0 16.51 628.22
  Q 13.74 619.38 12.41 609.61
  Q 11.90 605.88 12.03 602.63
  A 2.45 2.45 0.0 0 0 10.03 600.13
  Q 1.91 598.61 0.00 589.73
  L 0.00 582.84
  Q 2.38 575.54 9.82 572.51
  A 1.92 1.91 80.9 0 0 11.01 570.86
  C 11.18 568.01 10.93 565.39 11.36 562.44
  Q 12.94 551.60 14.06 545.52
  Q 14.28 544.30 14.80 543.23
  A 3.15 3.14 -55.3 0 0 14.14 539.58
  C 11.75 537.30 9.92 535.87 9.14 532.73
  Q 9.03 532.28 8.85 528.78
  Q 8.43 520.64 16.30 517.64
  C 18.19 516.92 19.57 517.02 21.38 517.03
  A 2.67 2.67 0.0 0 0 23.83 515.49
  Q 30.07 501.97 37.81 490.39
  A 0.63 0.60 -43.7 0 0 37.84 489.75
  C 35.18 485.00 34.88 476.74 39.72 473.02
  C 43.43 470.16 47.48 468.91 51.85 470.87
  A 0.98 0.96 40.0 0 0 52.78 470.80
  C 53.44 470.36 54.11 468.69 55.00 467.58
  Q 60.83 460.34 68.91 453.26
  C 76.05 447.00 81.25 442.61 88.27 438.52
  Q 89.24 437.96 92.05 437.20
  C 95.89 436.17 99.59 437.80 101.89 440.73
  A 2.77 2.76 18.3 0 1 102.41 441.76
  Q 104.22 448.37 101.27 452.56
  Q 92.37 465.20 86.15 474.40
  C 70.97 496.84 60.02 522.61 57.08 549.45
  C 55.24 566.17 55.46 582.19 60.43 597.83
  C 64.33 610.07 71.61 620.83 80.14 630.62
  Q 82.45 633.27 86.32 635.60
  A 1.64 1.62 -31.7 0 0 87.32 635.83
  Q 88.29 635.73 94.69 632.75
  Q 99.49 630.52 105.87 633.32
  Q 106.74 633.70 109.08 637.57
  A 4.15 4.05 25.9 0 1 109.62 639.07
  Q 110.17 642.82 111.41 645.06
  A 1.32 1.30 -10.0 0 0 112.35 645.71
  Q 117.07 646.41 118.64 646.85
  C 121.47 647.63 123.29 646.34 126.04 645.65
  A 1.97 1.96 -82.6 0 0 127.26 644.71
  Q 130.62 638.63 137.09 635.31
  C 141.18 633.21 144.85 634.32 148.05 636.87
  Q 150.37 638.71 150.62 638.88
  A 1.41 1.40 49.1 0 0 151.97 638.98
  Q 157.99 636.26 163.88 632.36
  Q 166.02 630.93 166.50 628.22
  C 168.23 618.52 174.42 604.03 187.37 608.51
  A 0.43 0.32 -8.0 0 1 187.46 608.56
  L 191.21 610.60
  A 0.73 0.72 33.7 0 0 192.13 610.42
  C 192.54 609.91 192.93 608.88 193.61 608.14
  Q 203.59 597.30 207.60 591.35
  Q 216.29 578.42 218.94 573.96
  Q 221.16 570.24 222.63 566.70
  A 0.70 0.70 0.0 0 0 221.50 565.93
  Q 219.10 568.20 215.51 571.29
  C 211.35 574.87 205.12 575.66 201.32 571.06
  Q 200.05 569.52 200.10 566.16
  Q 200.18 561.27 199.74 556.67
  Q 197.56 533.82 177.52 522.32
  A 1.13 1.13 0.0 0 0 175.91 522.90
  Q 171.96 533.23 172.60 543.73
  C 173.08 551.66 176.95 559.28 181.70 565.32
  Q 186.69 571.67 192.55 578.94
  C 196.02 583.23 198.91 587.97 195.80 593.56
  C 193.61 597.49 189.04 598.19 184.75 597.73
  Q 179.61 597.18 175.73 596.54
  C 161.85 594.22 146.88 587.08 138.59 575.44
  Q 136.25 572.15 132.82 564.55
  A 4.59 4.51 -62.9 0 1 132.50 563.53
  Q 131.98 560.65 130.64 558.33
  A 0.48 0.48 0.0 0 0 129.81 558.32
  Q 128.64 560.20 127.96 562.69
  Q 124.67 574.82 127.85 587.45
  Q 128.62 590.49 130.79 597.22
  C 132.04 601.11 129.79 604.20 125.90 604.94
  C 119.79 606.11 117.09 602.62 112.10 598.35
  Q 109.30 595.95 107.00 593.29
  C 97.42 582.20 92.17 569.04 91.97 554.48
  C 91.85 545.32 91.89 537.97 94.10 529.12
  Q 98.60 511.03 106.88 496.59
  Q 113.25 485.49 114.08 483.85
  C 120.47 471.16 119.49 456.95 118.59 442.93
  Q 118.26 437.89 117.43 431.67
  Q 114.62 410.55 114.42 408.98
  C 113.51 401.91 113.26 394.05 111.84 387.06
  A 3.35 3.31 13.8 0 0 110.64 385.11
  C 102.06 378.26 95.18 371.32 90.65 361.15
  Q 83.58 345.30 82.92 327.62
  C 82.70 321.59 82.71 316.86 87.76 314.04
  Q 92.42 311.44 98.06 313.05
  Q 104.58 314.92 110.49 319.74
  Q 111.41 320.49 112.46 319.91
  C 114.14 318.99 113.82 317.57 114.56 316.26
  Q 118.81 308.65 122.51 305.48
  Q 126.38 302.16 131.90 298.79
  A 1.45 1.43 -26.8 0 0 132.49 297.02
  Q 130.59 292.34 127.21 287.33
  Q 119.22 275.46 107.86 262.75
  Q 105.61 260.23 104.49 255.27
  A 3.55 3.52 41.8 0 1 104.42 254.12
  C 105.38 244.98 114.54 244.89 121.61 246.63
  C 139.42 251.04 156.68 260.53 171.65 271.61
  Q 174.58 273.78 181.39 278.73
  A 1.77 1.76 -39.9 0 0 183.21 278.89
  Q 190.71 275.18 201.40 270.73
  Q 204.92 269.27 203.50 265.69
  A 2.30 2.00 -64.2 0 1 203.35 265.14
  Q 201.48 253.61 197.09 241.87
  Q 182.96 204.05 156.13 174.09
  Q 149.73 166.94 143.81 160.17
  C 141.61 157.66 140.13 154.10 141.36 150.79
  Q 143.58 144.81 150.70 144.78
  Q 156.48 144.75 160.60 145.91
  Q 185.89 153.00 207.80 169.47
  Q 229.64 185.89 246.22 205.53
  C 250.35 210.41 255.29 217.24 259.07 223.56
  Q 264.19 232.11 265.54 234.16
  A 2.47 2.46 -19.5 0 0 267.85 235.26
  C 269.23 235.12 270.62 234.65 271.97 234.00
  Q 280.25 230.03 282.40 229.41
  Q 288.66 227.59 298.43 225.81
  A 2.00 2.00 0.0 0 0 300.03 223.45
  C 299.25 219.51 298.64 215.73 297.30 212.30
  Q 293.02 201.31 285.98 191.76
  Q 283.44 188.31 279.77 183.48
  Q 275.99 178.50 278.69 172.78
  A 2.11 2.02 85.8 0 1 279.35 171.98
  C 283.60 168.85 288.15 169.64 293.18 170.50
  Q 296.13 171.01 298.03 171.54
  C 322.31 178.37 343.46 192.91 356.99 214.50
  Q 358.20 216.43 361.29 216.36
  Q 367.24 216.23 373.25 212.98
  Q 380.05 209.31 382.61 202.67
  Q 384.58 197.55 383.45 190.74
  Q 382.45 184.78 380.17 179.02
  A 2.95 2.95 0.0 0 0 378.52 177.37
  Q 362.59 171.02 339.85 161.94
  Q 313.85 151.57 287.32 144.62
  C 272.37 140.71 253.38 137.68 240.63 134.89
  Q 229.99 132.55 220.30 128.49
  C 208.45 123.52 195.79 113.88 191.47 101.42
  Q 188.48 92.79 188.72 85.76
  C 189.36 66.59 199.32 49.47 213.90 36.63
  Q 232.15 20.57 255.57 12.33
  Q 278.19 4.37 303.75 2.03
  Q 312.10 1.26 331.75 0.00
  L 348.37 0.00
  Z
  M 617.24 230.02
  C 627.81 233.19 638.13 234.22 649.07 233.80
  Q 657.06 233.50 659.02 232.93
  Q 667.01 230.64 667.56 221.37
  Q 669.33 191.54 656.33 164.79
  Q 648.43 148.52 632.44 131.74
  C 610.66 108.87 583.94 91.25 556.25 76.52
  Q 524.12 59.42 496.21 48.56
  Q 468.91 37.94 437.06 30.17
  Q 397.67 20.56 358.49 18.34
  C 333.77 16.93 305.86 17.54 282.26 22.55
  C 264.19 26.39 248.39 32.74 233.24 43.23
  C 219.05 53.06 208.57 65.84 207.16 83.43
  C 206.43 92.54 208.50 100.69 215.99 106.24
  C 226.78 114.23 239.19 114.34 251.65 110.43
  Q 266.99 105.64 271.19 104.69
  C 281.09 102.44 293.49 100.39 305.70 99.91
  Q 332.38 98.87 356.57 101.98
  C 381.97 105.24 408.15 112.76 431.73 122.52
  Q 449.33 129.81 468.12 140.76
  Q 479.67 147.48 493.11 157.79
  C 518.28 177.11 544.27 195.42 571.78 210.59
  Q 594.85 223.31 617.24 230.02
  Z
  M 315.17 134.33
  Q 314.00 123.48 314.54 117.26
  A 0.57 0.57 0.0 0 0 313.97 116.64
  L 298.61 116.64
  A 0.67 0.67 0.0 0 0 297.94 117.34
  Q 298.12 121.48 299.63 126.17
  C 300.92 130.21 304.77 131.50 308.67 132.84
  Q 312.73 134.23 314.61 134.79
  A 0.44 0.43 5.4 0 0 315.17 134.33
  Z
  M 350.34 145.48
  Q 348.12 132.43 350.67 119.56
  A 0.71 0.71 0.0 0 0 350.02 118.72
  L 334.67 117.56
  A 0.69 0.69 0.0 0 0 333.93 118.15
  Q 332.55 127.78 334.39 136.63
  Q 335.31 141.09 339.77 142.68
  Q 344.03 144.19 349.64 146.08
  A 0.54 0.54 0.0 0 0 350.34 145.48
  Z
  M 384.38 159.35
  A 0.38 0.38 0.0 0 0 384.83 158.90
  C 382.78 148.44 384.45 138.28 386.15 127.41
  A 1.53 1.53 0.0 0 0 385.04 125.70
  L 371.42 121.99
  A 0.85 0.85 0.0 0 0 370.37 122.59
  Q 366.43 137.62 371.01 152.52
  C 371.63 154.56 372.76 155.39 374.65 156.19
  Q 379.75 158.34 384.38 159.35
  Z
  M 416.81 171.12
  C 416.47 159.73 417.31 149.35 421.77 139.13
  A 1.14 1.14 0.0 0 0 421.11 137.61
  L 406.36 132.28
  A 0.66 0.65 16.7 0 0 405.50 132.74
  Q 401.24 150.07 406.02 167.49
  A 1.41 1.39 2.6 0 0 406.89 168.43
  L 415.99 171.72
  A 0.62 0.61 8.8 0 0 416.81 171.12
  Z
  M 448.70 182.45
  A 0.34 0.34 0.0 0 0 449.13 182.10
  Q 448.48 167.53 454.69 154.71
  A 0.91 0.91 0.0 0 0 454.28 153.50
  L 439.91 146.37
  A 0.65 0.65 0.0 0 0 439.06 146.63
  Q 438.19 148.17 437.53 150.26
  Q 433.25 163.89 436.16 178.14
  A 1.58 1.57 -88.5 0 0 437.29 179.34
  L 448.70 182.45
  Z
  M 171.22 578.67
  C 156.34 560.59 150.97 536.53 162.28 515.04
  C 164.79 510.28 168.15 505.86 173.70 505.68
  Q 177.90 505.55 181.20 507.32
  C 192.96 513.64 203.21 521.49 207.90 534.05
  Q 210.52 541.07 211.58 547.91
  A 0.59 0.59 0.0 0 0 212.69 548.09
  Q 214.54 544.49 214.82 540.31
  C 215.80 525.37 210.14 510.29 198.43 500.33
  Q 191.79 494.67 185.40 491.09
  C 180.71 488.47 173.86 485.78 169.78 482.22
  C 164.24 477.40 158.01 469.23 157.00 461.74
  Q 154.18 440.87 155.28 419.25
  C 156.24 400.63 158.17 382.52 161.72 363.50
  Q 162.92 357.09 165.86 340.11
  Q 166.52 336.34 170.07 336.16
  Q 188.55 335.23 196.94 334.07
  Q 206.49 332.75 223.50 329.42
  Q 238.79 326.42 245.79 325.49
  Q 259.93 323.62 267.91 321.31
  Q 286.98 315.80 302.76 308.27
  C 306.29 306.59 311.07 305.55 313.82 308.50
  C 317.51 312.45 312.04 318.12 309.06 320.56
  C 303.41 325.18 298.60 328.30 291.84 331.35
  Q 275.89 338.56 258.87 342.87
  A 1.06 1.05 84.4 0 0 258.08 343.84
  Q 257.98 345.70 258.87 347.87
  C 265.28 363.43 275.96 377.50 289.76 386.85
  Q 295.14 390.49 295.55 390.84
  A 2.97 2.91 -86.7 0 1 296.16 391.54
  Q 298.66 395.45 294.96 397.23
  C 288.41 400.39 277.92 395.40 272.30 391.44
  C 262.82 384.77 254.33 376.81 248.50 367.06
  Q 245.30 361.71 243.59 357.81
  A 0.25 0.25 0.0 0 0 243.13 357.83
  C 239.25 369.70 241.41 379.33 249.02 389.58
  C 256.99 400.30 266.03 407.86 277.85 416.16
  C 281.13 418.47 282.87 422.81 278.40 425.21
  C 274.37 427.38 270.92 426.89 266.43 425.04
  Q 255.33 420.46 246.91 412.59
  Q 241.81 407.82 237.23 403.05
  A 0.57 0.57 0.0 0 0 236.25 403.40
  Q 235.26 417.32 243.59 427.59
  C 248.28 433.36 258.53 439.45 263.09 443.17
  Q 266.63 446.07 267.41 447.60
  C 269.40 451.51 267.33 454.59 263.33 455.53
  Q 258.78 456.60 254.04 454.67
  Q 245.86 451.34 237.83 445.79
  A 1.30 1.29 38.5 0 0 236.14 445.98
  Q 235.56 446.61 234.73 447.97
  Q 221.56 469.45 217.59 493.80
  C 217.35 495.30 217.42 497.34 218.35 498.42
  Q 227.72 509.39 229.93 523.05
  Q 230.32 525.44 230.71 537.45
  A 5.17 5.07 33.1 0 0 231.12 539.30
  Q 239.69 559.33 252.21 577.34
  Q 265.47 596.39 278.44 614.29
  Q 287.15 626.31 294.37 638.62
  C 297.19 643.42 301.22 650.47 294.37 653.34
  C 288.32 655.89 283.16 648.01 280.49 643.91
  A 1.05 1.05 0.0 0 0 279.12 643.55
  Q 277.56 644.38 266.88 649.13
  C 256.60 653.70 247.88 659.11 238.28 666.89
  C 228.71 674.63 215.97 682.52 205.69 687.51
  Q 193.26 693.55 179.25 694.96
  Q 169.68 695.91 169.59 695.92
  C 167.01 696.20 164.69 696.29 162.57 697.85
  C 160.14 699.65 159.23 704.34 159.20 707.50
  C 159.14 715.18 159.38 725.19 158.65 733.16
  C 157.10 750.22 153.77 768.41 148.16 785.39
  C 144.78 795.63 141.54 805.84 139.41 815.42
  Q 137.09 825.84 147.33 827.65
  Q 151.56 828.39 157.43 829.11
  Q 166.92 830.28 176.39 833.20
  C 183.55 835.41 190.82 839.84 196.62 842.74
  A 0.51 0.51 0.0 0 0 197.35 842.22
  C 195.74 828.87 184.13 818.28 172.08 814.01
  Q 167.63 812.43 166.95 811.28
  Q 165.24 808.38 165.70 804.96
  C 166.39 799.88 174.11 800.68 177.69 801.55
  Q 195.93 806.00 207.06 820.63
  C 208.31 822.27 209.82 825.10 211.40 827.26
  A 1.05 1.00 78.1 0 0 211.97 827.65
  L 231.60 833.00
  A 0.31 0.30 -10.2 0 0 231.93 832.53
  Q 226.64 825.27 218.91 819.61
  C 215.39 817.03 212.11 813.22 214.46 808.93
  C 216.69 804.88 223.73 808.01 226.81 809.46
  Q 237.40 814.46 246.59 823.12
  A 2.23 2.13 72.9 0 0 247.48 823.62
  L 256.66 826.12
  A 0.39 0.39 0.0 0 0 257.06 825.49
  Q 240.51 805.43 215.36 801.71
  C 203.93 800.02 190.67 798.34 185.47 786.04
  Q 181.67 777.06 181.82 766.26
  C 182.06 750.13 184.95 734.11 192.34 719.86
  Q 195.35 714.07 200.88 712.88
  Q 239.76 704.56 277.24 693.99
  C 293.94 689.28 309.65 684.26 325.04 676.79
  Q 332.29 673.27 339.84 667.36
  Q 344.48 663.73 346.22 659.00
  C 347.92 654.36 348.00 648.97 347.89 642.94
  Q 347.35 613.17 338.27 576.74
  Q 329.52 541.64 309.52 513.87
  Q 299.55 500.03 288.75 492.12
  Q 278.72 484.78 275.37 482.88
  Q 272.57 481.30 272.83 477.96
  Q 273.18 473.30 278.03 472.94
  C 286.07 472.34 294.89 476.45 301.39 480.93
  A 0.36 0.36 0.0 0 0 301.94 480.72
  C 303.23 475.40 303.69 469.37 303.71 463.63
  Q 303.74 458.12 304.71 456.71
  C 307.24 453.07 310.45 453.10 314.71 454.31
  C 323.15 456.71 330.34 458.67 338.28 458.94
  C 361.16 459.70 383.51 451.45 399.62 434.86
  Q 402.54 431.86 406.01 428.05
  A 2.88 2.87 33.6 0 1 409.35 427.38
  C 413.17 429.16 415.86 429.74 419.87 427.87
  Q 429.72 423.28 437.89 415.23
  A 0.82 0.82 0.0 0 0 437.62 413.89
  C 434.21 412.50 424.69 408.67 429.07 402.87
  Q 430.72 400.68 432.83 400.63
  Q 438.95 400.48 446.56 400.10
  C 449.75 399.95 451.47 396.96 453.12 394.36
  Q 456.97 388.26 460.46 383.46
  A 0.26 0.26 0.0 0 0 460.24 383.05
  C 455.90 383.27 450.85 383.22 447.57 380.44
  C 444.10 377.49 443.99 372.18 449.36 371.30
  C 456.29 370.15 464.70 371.37 470.05 363.83
  Q 475.72 355.85 479.17 346.52
  A 0.34 0.33 -2.1 0 0 478.71 346.10
  Q 474.39 348.06 469.77 348.25
  C 465.88 348.41 461.19 346.85 460.34 342.67
  C 459.54 338.76 463.36 336.55 466.92 334.90
  Q 471.25 332.89 477.12 327.91
  Q 481.52 324.18 481.79 319.45
  Q 482.26 311.27 479.51 303.01
  A 0.49 0.48 56.4 0 0 478.69 302.84
  Q 472.43 310.05 464.33 314.24
  C 459.52 316.73 453.01 316.11 453.36 309.50
  Q 453.51 306.66 454.50 305.24
  Q 462.36 293.95 470.51 280.52
  C 475.21 272.78 483.37 265.62 492.55 263.86
  A 0.78 0.77 84.6 0 0 493.17 263.10
  Q 493.28 247.05 497.58 231.63
  Q 499.20 225.83 501.48 223.15
  C 504.61 219.48 509.22 222.25 509.14 226.34
  Q 508.93 237.90 509.51 247.24
  Q 510.08 256.23 511.44 261.32
  C 515.25 275.56 527.23 285.12 537.91 294.26
  Q 543.37 298.94 548.31 304.07
  Q 560.06 316.28 568.50 325.01
  Q 573.20 329.88 577.75 332.94
  C 583.65 336.92 591.55 337.95 598.00 335.00
  Q 602.11 333.13 605.72 330.10
  A 0.59 0.58 29.9 0 0 605.44 329.08
  Q 603.41 328.70 599.81 328.39
  C 592.24 327.74 585.52 324.20 580.15 319.08
  Q 573.09 312.34 568.53 306.97
  Q 551.20 286.58 549.23 284.25
  Q 546.74 281.31 535.43 267.81
  C 520.78 250.34 527.68 230.19 535.65 211.66
  A 2.16 2.15 27.5 0 0 534.80 208.97
  Q 515.30 196.87 494.85 181.89
  Q 483.73 173.74 471.53 165.08
  A 0.41 0.41 0.0 0 0 470.90 165.29
  Q 467.52 175.66 468.13 184.85
  A 5.50 5.48 -55.5 0 0 468.37 186.16
  Q 468.72 187.28 471.15 196.32
  C 474.29 208.02 475.23 219.22 470.07 230.61
  Q 461.64 249.25 447.03 264.52
  Q 440.22 271.63 433.56 277.53
  C 428.45 282.05 412.06 295.88 409.34 285.13
  C 408.77 282.86 409.99 280.53 411.60 279.09
  Q 419.19 272.29 425.22 266.48
  Q 437.40 254.76 446.46 240.48
  C 453.16 229.92 459.61 218.00 454.81 205.59
  C 454.10 203.76 452.71 202.64 450.88 202.09
  Q 447.54 201.08 440.96 199.42
  A 0.48 0.47 8.8 0 0 440.37 199.84
  C 439.47 210.42 435.57 220.63 430.18 230.85
  C 425.75 239.25 419.08 246.70 411.42 252.14
  C 408.10 254.49 397.98 260.53 394.96 255.88
  C 393.19 253.16 394.25 248.96 396.68 246.92
  Q 416.58 230.29 420.69 204.49
  C 421.14 201.67 422.38 193.33 419.24 192.17
  Q 409.76 188.68 402.09 186.13
  A 0.46 0.46 0.0 0 0 401.48 186.61
  C 402.12 192.39 401.86 200.03 400.35 205.70
  Q 394.32 228.18 370.68 233.42
  Q 363.85 234.93 356.24 235.30
  C 352.31 235.49 349.83 234.02 347.62 231.36
  C 342.62 225.36 336.88 216.47 330.65 210.27
  Q 321.93 201.59 311.18 195.94
  A 0.38 0.38 0.0 0 0 310.67 196.45
  Q 318.78 211.76 318.45 228.09
  A 1.12 1.12 0.0 0 0 319.33 229.21
  C 334.77 232.77 347.29 245.84 353.27 260.23
  Q 355.69 266.05 356.12 272.00
  C 356.35 275.08 354.78 279.96 351.53 280.59
  Q 348.99 281.09 347.49 278.46
  C 342.71 270.08 337.11 260.92 329.96 254.03
  Q 323.93 248.22 318.35 245.89
  C 307.29 241.28 292.80 241.85 282.35 246.86
  Q 276.37 249.73 272.19 252.46
  Q 256.39 262.74 242.54 270.72
  Q 234.20 275.53 218.00 282.41
  Q 193.23 292.93 167.56 304.02
  C 158.55 307.91 148.47 311.41 138.94 315.19
  C 133.14 317.49 131.07 321.42 129.57 327.15
  Q 129.04 329.18 128.95 330.38
  C 127.18 351.98 128.25 371.61 130.10 395.39
  C 131.43 412.44 134.94 433.58 136.01 451.25
  Q 137.17 470.40 130.02 486.34
  Q 125.14 497.21 123.09 500.82
  C 113.67 517.34 107.05 535.66 107.55 554.48
  Q 107.70 559.98 109.33 564.95
  A 0.70 0.70 0.0 0 0 110.65 564.98
  C 113.17 558.23 125.84 512.86 139.69 521.99
  C 144.18 524.94 143.36 533.89 143.19 538.74
  C 142.81 549.72 146.28 561.98 154.43 569.64
  Q 161.68 576.46 171.03 578.96
  A 0.18 0.18 0.0 0 0 171.22 578.67
  Z
  M 178.61 172.88
  A 0.16 0.15 74.8 0 0 178.47 173.13
  Q 194.65 193.63 206.84 216.91
  Q 217.71 237.68 222.66 260.60
  A 0.71 0.71 0.0 0 0 223.66 261.09
  Q 237.16 254.59 249.92 245.83
  A 0.83 0.82 58.7 0 0 250.18 244.74
  C 244.42 234.43 238.43 224.27 230.71 215.04
  Q 209.51 189.70 180.46 173.56
  Q 179.46 173.00 178.61 172.88
  Z
  M 581.63 248.32
  A 0.61 0.60 77.2 0 0 582.53 248.89
  L 595.03 241.67
  A 0.56 0.56 0.0 0 0 595.00 240.69
  L 584.16 235.31
  A 1.13 1.12 -74.6 0 0 582.54 236.24
  L 581.63 248.32
  Z
  M 609.03 259.48
  A 0.72 0.72 0.0 0 0 610.23 259.88
  L 620.68 250.14
  A 0.72 0.72 0.0 0 0 620.36 248.92
  L 607.66 245.76
  A 0.72 0.72 0.0 0 0 606.78 246.59
  L 609.03 259.48
  Z
  M 645.64 252.75
  A 0.41 0.41 0.0 0 0 645.34 252.11
  L 632.47 251.13
  A 0.41 0.41 0.0 0 0 632.04 251.64
  L 635.55 265.82
  A 0.41 0.41 0.0 0 0 636.29 265.96
  L 645.64 252.75
  Z
  M 138.79 273.03
  L 151.26 290.90
  A 1.11 1.10 -29.5 0 0 152.62 291.27
  L 161.94 287.07
  A 0.38 0.37 50.4 0 0 162.00 286.42
  C 154.60 281.21 147.16 276.24 139.24 272.50
  A 0.36 0.36 0.0 0 0 138.79 273.03
  Z
  M 763.45 412.64
  Q 756.81 393.68 736.49 390.95
  Q 727.15 389.70 720.82 390.78
  C 716.33 391.55 712.14 391.09 709.94 387.36
  Q 708.59 385.05 709.18 383.18
  C 711.17 376.96 717.37 373.44 723.58 371.32
  Q 733.73 367.84 754.75 362.25
  Q 764.56 359.64 772.81 359.00
  Q 794.28 357.33 812.45 370.33
  A 0.18 0.18 0.0 0 0 812.72 370.11
  C 807.18 356.77 793.23 347.30 778.66 346.90
  Q 771.81 346.71 764.89 347.87
  C 752.05 350.01 738.84 353.98 725.98 357.50
  C 722.02 358.59 716.37 357.08 715.67 352.46
  Q 715.12 348.78 716.63 346.12
  Q 722.84 335.22 730.53 325.04
  Q 744.04 307.15 765.05 300.99
  C 769.44 299.70 775.16 299.30 778.77 298.68
  A 0.38 0.38 0.0 0 0 778.84 297.95
  C 767.39 293.59 753.24 293.16 741.72 298.21
  C 732.26 302.35 723.38 311.52 717.08 319.83
  Q 717.02 319.90 710.33 329.42
  C 705.27 336.62 701.04 344.08 695.96 350.42
  Q 676.39 374.82 647.22 385.64
  Q 621.81 395.08 593.25 403.50
  Q 569.31 410.55 550.62 414.12
  C 543.16 415.54 538.08 415.80 533.08 410.42
  Q 529.53 406.61 528.42 405.06
  Q 512.48 382.91 497.03 358.04
  A 0.38 0.38 0.0 0 0 496.38 358.05
  L 477.45 392.12
  A 0.80 0.79 40.8 0 0 477.52 393.00
  Q 484.44 401.86 493.23 411.27
  Q 507.32 426.36 518.76 436.97
  Q 527.48 445.06 536.30 451.17
  Q 542.84 455.69 551.31 457.64
  A 3.68 3.53 -38.1 0 0 552.31 457.74
  Q 560.84 457.54 568.63 454.34
  C 606.71 438.70 641.78 418.72 677.36 394.87
  Q 680.75 392.60 683.26 395.35
  Q 693.24 406.30 707.54 406.14
  C 714.50 406.06 720.88 405.19 728.50 404.75
  C 740.02 404.08 754.43 405.32 762.95 412.98
  A 0.31 0.31 0.0 0 0 763.45 412.64
  Z
  M 584.85 305.07
  Q 589.91 310.86 596.64 313.94
  A 0.83 0.83 0.0 0 0 597.72 313.58
  Q 597.75 313.54 597.84 313.32
  A 0.13 0.11 66.3 0 0 597.86 313.25
  L 598.69 298.77
  A 0.69 0.69 0.0 0 0 597.72 298.10
  L 585.13 303.78
  A 0.82 0.82 0.0 0 0 584.85 305.07
  Z
  M 604.62 315.95
  A 0.41 0.41 0.0 0 0 604.86 316.66
  L 615.67 317.48
  A 2.12 2.11 7.3 0 0 617.91 315.75
  L 619.75 305.65
  A 0.66 0.65 87.2 0 0 618.93 304.90
  Q 617.88 305.20 616.91 305.92
  Q 610.51 310.68 604.62 315.95
  Z
  M 102.07 337.42
  Q 103.31 349.67 110.11 360.01
  A 0.52 0.52 0.0 0 0 111.06 359.77
  L 112.14 345.46
  A 3.76 3.75 19.8 0 0 110.56 342.11
  L 103.09 336.82
  A 0.65 0.65 0.0 0 0 102.07 337.42
  Z
  M 201.66 482.40
  Q 208.23 463.65 210.59 458.86
  Q 219.27 441.22 220.84 438.57
  Q 223.17 434.60 224.60 432.82
  A 1.15 1.15 0.0 0 0 224.76 431.62
  C 223.13 427.93 220.51 422.64 219.83 418.12
  Q 218.01 405.94 219.59 397.05
  Q 220.28 393.21 223.89 386.26
  C 224.66 384.77 225.03 383.20 224.65 381.58
  Q 221.63 368.69 224.39 355.96
  C 224.87 353.73 226.02 351.49 226.04 349.25
  A 1.28 1.28 0.0 0 0 224.80 347.96
  Q 223.88 347.92 222.62 348.12
  Q 205.59 350.84 191.38 352.68
  Q 190.05 352.85 188.02 353.01
  Q 184.87 353.25 181.91 354.46
  A 1.02 1.00 -6.1 0 0 181.29 355.21
  Q 177.08 376.68 174.50 396.75
  Q 172.47 412.57 172.09 421.75
  Q 171.81 428.72 172.08 449.25
  C 172.17 456.32 173.09 464.64 179.48 468.57
  Q 189.74 474.87 194.11 477.69
  C 196.63 479.32 198.63 481.29 201.00 482.65
  A 0.46 0.45 -65.5 0 0 201.66 482.40
  Z
  M 61.57 481.62
  C 59.00 482.14 54.29 488.97 52.11 492.12
  C 40.04 509.60 30.99 528.42 27.41 549.19
  C 24.24 567.54 21.53 580.95 24.22 598.76
  Q 26.09 611.08 26.09 611.11
  Q 31.28 634.51 45.26 653.76
  Q 51.51 662.36 59.35 668.84
  A 0.48 0.48 0.0 0 0 60.14 668.49
  Q 60.29 665.13 61.85 662.08
  Q 66.45 653.04 72.81 646.28
  A 0.75 0.75 0.0 0 0 72.75 645.19
  Q 61.44 635.89 54.28 623.48
  C 46.06 609.25 40.71 593.66 39.81 576.49
  Q 38.98 560.83 41.02 547.29
  Q 45.69 516.19 60.11 487.26
  A 6.10 5.58 -26.5 0 0 60.44 486.40
  Q 60.95 484.56 61.99 482.14
  A 0.38 0.37 -84.1 0 0 61.57 481.62
  Z
  M 595.69 810.63
  C 587.22 794.79 570.56 784.98 552.55 787.33
  C 537.29 789.32 520.40 786.64 508.17 777.78
  Q 497.70 770.19 488.57 757.92
  Q 482.71 750.04 481.81 748.67
  Q 469.85 730.55 452.62 705.13
  C 447.95 698.24 441.78 690.50 443.08 681.83
  C 443.71 677.72 446.66 673.21 449.44 669.94
  Q 453.51 665.17 456.77 662.02
  Q 474.82 644.61 493.86 626.12
  Q 504.33 615.95 514.11 603.88
  C 522.57 593.43 530.55 579.72 529.31 565.95
  C 528.42 556.07 518.99 548.66 511.26 543.29
  Q 494.11 531.37 472.18 520.36
  Q 423.64 495.99 370.27 483.23
  A 1.53 1.52 17.0 0 0 368.48 484.18
  C 365.30 492.70 361.40 504.64 356.64 513.75
  Q 350.27 525.94 344.06 535.32
  A 0.96 0.96 0.0 0 0 344.40 536.69
  Q 374.93 553.68 408.99 560.24
  Q 427.03 563.72 435.83 564.51
  Q 448.39 565.64 455.00 567.02
  Q 471.90 570.54 484.49 571.97
  Q 489.34 572.52 490.33 576.69
  C 492.26 584.85 471.46 584.78 466.75 584.62
  Q 463.58 584.52 462.35 585.87
  Q 458.42 590.24 452.12 597.84
  Q 444.48 607.05 440.88 618.39
  Q 440.00 621.19 438.70 629.82
  C 436.89 641.94 433.90 653.08 426.76 663.01
  Q 421.04 670.97 413.92 678.17
  Q 411.84 680.28 408.98 684.55
  A 2.89 2.86 -22.9 0 0 408.56 685.57
  C 407.24 692.49 412.81 698.89 416.99 704.25
  Q 421.65 710.24 440.72 731.01
  Q 453.24 744.64 463.00 763.23
  Q 473.20 782.67 475.45 805.54
  C 476.03 811.51 479.93 813.92 485.57 814.68
  Q 495.77 816.05 508.51 817.00
  Q 517.30 817.66 531.40 820.21
  C 539.92 821.76 547.47 824.27 557.07 826.83
  A 0.29 0.28 88.7 0 0 557.41 826.47
  C 553.27 813.36 542.87 808.20 530.13 806.40
  Q 522.19 805.27 515.26 804.91
  Q 512.18 804.75 511.11 803.86
  C 507.62 800.93 509.53 795.46 513.46 794.33
  Q 527.32 790.36 542.47 792.91
  C 552.24 794.56 559.92 800.58 567.20 807.38
  A 1.52 1.52 0.0 0 0 568.25 807.80
  C 577.52 807.80 586.62 808.35 595.40 810.99
  A 0.25 0.25 0.0 0 0 595.69 810.63
  Z
  M 216.63 610.53
  C 222.18 621.55 231.67 629.90 242.76 635.76
  A 1.22 1.21 -52.8 0 0 244.18 635.56
  Q 252.30 627.58 258.27 619.14
  A 1.57 1.56 45.4 0 0 258.28 617.35
  L 234.32 583.01
  A 0.35 0.35 0.0 0 0 233.75 583.00
  Q 231.98 585.38 230.19 588.44
  Q 223.72 599.52 216.82 608.50
  A 1.93 1.92 -39.9 0 0 216.63 610.53
  Z
  M 205.98 621.03
  Q 192.89 632.81 179.30 641.13
  A 2.24 2.23 68.4 0 0 178.28 643.49
  C 180.20 652.81 183.72 662.20 190.46 669.21
  A 1.27 1.27 0.0 0 0 191.93 669.48
  C 206.13 662.71 219.46 655.74 231.73 646.55
  A 0.60 0.60 0.0 0 0 231.66 645.54
  Q 228.53 643.86 225.32 640.92
  Q 215.54 631.96 207.03 621.12
  A 0.73 0.72 49.8 0 0 205.98 621.03
  Z
  M 163.44 651.81
  C 153.65 657.41 143.09 660.02 132.09 662.09
  A 1.75 1.74 86.6 0 0 130.68 663.69
  Q 130.03 674.16 129.90 675.31
  C 129.17 682.05 130.42 686.39 136.01 689.81
  Q 138.45 691.30 142.23 690.85
  Q 144.12 690.62 146.89 688.32
  C 155.78 680.93 166.77 678.35 177.09 676.84
  A 0.40 0.40 0.0 0 0 177.35 676.21
  C 171.89 668.81 166.28 661.50 164.01 652.06
  A 0.39 0.39 0.0 0 0 163.44 651.81
  Z
  M 121.75 692.24
  Q 115.97 678.18 118.20 663.64
  A 0.50 0.49 -83.5 0 0 117.75 663.07
  Q 100.36 661.71 84.67 652.87
  A 1.28 1.28 0.0 0 0 83.13 653.08
  Q 77.20 659.04 73.20 666.89
  Q 71.10 671.00 70.84 675.50
  A 1.64 1.62 16.3 0 0 71.68 677.02
  Q 91.27 687.84 113.98 692.07
  Q 117.28 692.68 121.31 692.86
  A 0.45 0.45 0.0 0 0 121.75 692.24
  Z"
/>
<path d="
  M 369.39 288.65
  C 371.39 286.19 374.77 285.62 376.40 288.96
  C 380.88 298.09 386.61 307.29 393.61 313.23
  C 404.34 322.35 416.34 325.88 430.33 329.43
  C 432.89 330.08 436.59 332.47 436.44 335.54
  C 436.05 343.21 421.08 342.01 415.99 340.91
  C 396.78 336.76 378.83 324.47 370.92 305.88
  C 368.95 301.26 366.24 292.51 369.39 288.65
  Z"
/>
<path d="
  M 343.04 320.94
  C 345.83 320.29 349.98 326.65 351.50 328.74
  C 363.93 345.85 379.98 357.95 401.32 360.26
  C 407.11 360.88 415.68 360.16 419.99 359.85
  C 423.73 359.58 428.11 361.86 426.98 366.25
  C 424.48 376.01 404.56 376.86 397.19 375.80
  Q 386.77 374.30 378.12 370.35
  C 368.45 365.94 358.91 360.14 351.84 351.45
  Q 343.73 341.48 339.82 330.69
  C 338.56 327.21 338.73 321.96 343.04 320.94
  Z"
/>
<path d="
  M 409.01 396.00
  C 409.20 399.64 404.51 402.47 401.37 403.90
  Q 393.71 407.39 383.73 407.42
  C 357.39 407.49 331.49 394.49 314.48 374.26
  Q 311.19 370.35 308.88 365.40
  C 306.98 361.34 304.32 352.82 310.56 351.06
  C 312.27 350.58 313.60 351.71 314.61 353.13
  Q 327.32 371.04 346.84 381.43
  C 352.00 384.17 358.84 387.10 363.83 388.96
  Q 383.66 396.35 403.85 390.38
  C 406.48 389.60 408.91 394.05 409.01 396.00
  Z"
/>
<path d="
  M 380.15 430.49
  Q 380.77 434.35 376.54 436.37
  Q 371.66 438.69 367.05 439.08
  Q 344.84 440.95 324.68 433.00
  C 317.82 430.29 305.06 425.77 304.68 416.82
  Q 304.51 412.85 307.67 410.82
  A 1.80 1.76 -59.7 0 1 308.69 410.54
  Q 311.96 410.61 313.23 411.50
  C 330.49 423.57 352.67 428.47 373.23 426.30
  Q 377.92 425.81 379.85 429.56
  A 2.90 2.88 27.4 0 1 380.15 430.49
  Z"
/>
</g>
<g fill="#ffffff">
<path d="
  M 581.63 248.32
  L 582.54 236.24
  A 1.13 1.12 -74.6 0 1 584.16 235.31
  L 595.00 240.69
  A 0.56 0.56 0.0 0 1 595.03 241.67
  L 582.53 248.89
  A 0.61 0.60 77.2 0 1 581.63 248.32
  Z"
/>
<path d="
  M 609.03 259.48
  L 606.78 246.59
  A 0.72 0.72 0.0 0 1 607.66 245.76
  L 620.36 248.92
  A 0.72 0.72 0.0 0 1 620.68 250.14
  L 610.23 259.88
  A 0.72 0.72 0.0 0 1 609.03 259.48
  Z"
/>
<path d="
  M 645.64 252.75
  L 636.29 265.96
  A 0.41 0.41 0.0 0 1 635.55 265.82
  L 632.04 251.64
  A 0.41 0.41 0.0 0 1 632.47 251.13
  L 645.34 252.11
  A 0.41 0.41 0.0 0 1 645.64 252.75
  Z"
/>
<path d="
  M 584.85 305.07
  A 0.82 0.82 0.0 0 1 585.13 303.78
  L 597.72 298.10
  A 0.69 0.69 0.0 0 1 598.69 298.77
  L 597.86 313.25
  A 0.13 0.11 66.3 0 1 597.84 313.32
  Q 597.75 313.54 597.72 313.58
  A 0.83 0.83 0.0 0 1 596.64 313.94
  Q 589.91 310.86 584.85 305.07
  Z"
/>
<path d="
  M 604.62 315.95
  Q 610.51 310.68 616.91 305.92
  Q 617.88 305.20 618.93 304.90
  A 0.66 0.65 87.2 0 1 619.75 305.65
  L 617.91 315.75
  A 2.12 2.11 7.3 0 1 615.67 317.48
  L 604.86 316.66
  A 0.41 0.41 0.0 0 1 604.62 315.95
  Z"
/>
</g>
</svg>
