<?xml version="1.0" encoding="UTF-8" standalone="no"?>
<!DOCTYPE svg PUBLIC "-//W3C//DTD SVG 1.1//EN" "http://www.w3.org/Graphics/SVG/1.1/DTD/svg11.dtd">
<svg xmlns="http://www.w3.org/2000/svg" version="1.1" viewBox="0.00 0.00 466.00 601.00">
<g fill="var(--art-stroke)">
<path d="
  M 116.69 601.00
  L 114.08 601.00
  Q 111.81 599.53 109.03 596.46
  C 106.68 593.87 102.92 591.25 98.87 589.91
  C 91.56 587.49 85.14 584.67 81.18 577.66
  A 1.22 1.22 0.0 0 0 79.26 577.39
  C 74.60 581.97 70.60 586.53 64.47 588.64
  A 2.08 1.97 -46.6 0 1 63.39 588.70
  C 58.45 587.61 58.04 582.62 59.31 578.55
  Q 61.58 571.27 64.37 563.86
  Q 64.69 563.00 66.94 554.48
  Q 68.46 548.71 73.85 540.83
  A 8.26 7.99 76.0 0 0 74.47 539.76
  Q 76.61 535.25 78.09 529.07
  Q 83.86 504.93 87.65 488.39
  Q 87.92 487.22 89.61 481.81
  C 92.78 471.68 106.30 472.85 114.49 472.96
  Q 117.87 473.00 120.31 471.43
  A 1.23 1.22 -42.2 0 0 120.41 469.44
  C 116.67 466.48 112.16 461.59 111.65 456.73
  C 110.86 449.21 116.02 443.15 118.79 436.29
  Q 122.46 427.18 125.89 420.92
  A 1.80 1.79 58.9 0 0 126.11 420.02
  Q 126.05 416.82 123.25 416.96
  Q 113.36 417.47 105.08 416.31
  C 84.54 413.42 60.34 402.80 45.82 389.26
  Q 40.17 383.99 33.44 377.09
  A 4.60 4.42 81.7 0 0 32.46 376.33
  C 28.44 374.08 25.70 372.71 22.09 368.17
  A 0.67 0.67 0.0 0 1 22.17 367.25
  L 24.33 365.33
  A 1.01 1.00 53.7 0 0 24.52 364.07
  L 20.29 357.11
  A 4.40 4.30 -89.3 0 0 19.00 355.76
  C 16.00 353.76 7.97 348.92 9.92 345.15
  Q 10.68 343.68 13.05 342.99
  A 1.04 1.03 72.6 0 0 13.73 341.67
  L 11.69 335.62
  A 8.74 8.63 -76.0 0 0 9.87 332.55
  C 6.65 329.04 4.48 326.99 2.97 322.75
  A 1.91 1.89 -45.9 0 1 2.96 321.48
  Q 3.71 319.28 4.57 318.90
  Q 7.72 317.49 6.94 314.52
  C 6.34 312.25 6.16 309.57 5.75 307.42
  A 2.90 2.85 -67.7 0 0 5.32 306.37
  C 2.97 302.77 0.76 299.38 0.24 295.23
  Q 0.05 293.63 1.64 290.80
  A 1.13 1.12 10.3 0 1 2.46 290.24
  Q 4.26 289.98 5.04 289.51
  A 1.67 1.67 0.0 0 0 5.83 288.29
  Q 6.75 280.97 4.42 275.37
  Q 3.75 273.76 4.09 267.91
  A 1.76 1.75 -25.8 0 1 4.41 267.00
  Q 5.71 265.12 8.09 265.66
  A 1.24 1.24 0.0 0 0 9.56 264.77
  L 11.60 257.13
  A 2.52 2.51 47.0 0 0 11.64 255.96
  L 10.44 249.88
  A 1.05 1.02 44.1 0 1 10.43 249.56
  C 10.89 246.51 11.43 241.70 15.05 242.04
  Q 16.03 242.14 16.63 241.97
  A 2.36 2.35 -82.8 0 0 18.03 240.88
  Q 20.51 236.54 23.60 231.23
  C 25.76 227.50 25.44 223.17 29.87 221.37
  Q 32.93 220.13 33.66 219.43
  C 38.07 215.22 46.72 206.97 51.19 208.24
  C 56.44 209.73 54.50 213.98 53.13 217.51
  Q 52.46 219.23 51.48 221.18
  Q 45.56 232.94 44.61 235.37
  Q 38.60 250.68 36.70 265.57
  Q 35.72 273.24 36.07 285.38
  C 36.79 310.46 47.46 335.07 68.61 349.36
  Q 91.61 364.89 120.00 366.32
  Q 120.93 366.36 122.19 366.93
  A 0.43 0.43 0.0 0 0 122.66 366.23
  Q 120.11 363.88 117.09 360.44
  C 110.51 352.94 105.99 341.68 105.97 331.17
  C 105.96 326.80 105.66 323.08 106.64 320.95
  A 0.75 0.75 0.0 0 0 106.48 320.10
  C 104.34 318.03 102.03 314.48 102.02 311.52
  Q 102.00 308.98 101.99 308.90
  A 0.86 0.85 7.0 0 0 101.41 308.17
  Q 98.26 307.13 94.26 303.23
  Q 84.03 293.25 83.81 278.99
  Q 83.69 271.06 84.43 263.98
  Q 86.41 245.14 89.08 227.77
  Q 89.37 225.87 90.07 223.40
  A 2.23 2.23 0.0 0 0 89.23 220.99
  Q 84.65 217.70 81.80 215.44
  C 70.54 206.48 63.30 193.34 59.10 179.39
  Q 55.98 169.02 54.72 162.51
  C 53.85 157.98 50.75 153.63 50.33 149.18
  Q 49.87 144.24 49.37 141.50
  C 48.91 139.01 49.30 136.30 48.83 134.12
  A 2.60 2.58 -71.3 0 0 48.13 132.69
  L 41.33 125.71
  A 0.97 0.96 57.7 0 0 40.33 125.48
  C 38.95 125.98 36.65 127.17 34.76 127.52
  Q 25.41 129.27 20.99 120.82
  Q 19.73 118.43 19.89 113.73
  C 20.11 107.03 25.14 103.56 31.18 102.25
  A 2.64 2.63 -87.9 0 0 33.15 100.41
  Q 35.05 93.84 40.96 90.19
  Q 42.13 89.47 47.00 87.68
  A 1.13 0.86 -66.6 0 0 47.25 87.54
  L 53.38 82.74
  A 1.50 1.45 21.7 0 1 54.11 82.44
  Q 58.25 81.97 64.24 77.80
  Q 67.98 75.20 73.01 75.60
  C 75.15 75.78 77.42 77.37 79.48 78.14
  A 0.30 0.30 0.0 0 0 79.85 77.72
  Q 77.67 73.54 75.57 67.93
  Q 74.57 65.26 75.45 63.74
  C 76.86 61.27 82.82 59.05 85.20 57.93
  Q 89.37 55.96 91.49 59.79
  Q 92.96 62.45 93.72 65.16
  A 1.02 1.02 0.0 0 0 95.13 65.80
  Q 114.63 56.79 135.09 46.35
  C 140.51 43.58 147.78 40.46 152.77 37.98
  C 168.47 30.18 187.78 20.50 205.67 12.01
  Q 214.62 7.76 223.45 3.20
  C 228.56 0.55 233.29 -0.23 239.32 0.55
  Q 248.80 1.79 260.01 3.47
  C 262.91 3.90 267.84 4.73 268.91 7.86
  A 1.51 1.49 44.7 0 1 268.92 8.74
  Q 267.99 11.71 265.96 14.71
  Q 254.23 32.01 252.13 35.12
  C 249.69 38.73 244.46 41.16 240.20 42.95
  Q 185.18 66.14 112.01 97.79
  Q 109.38 98.93 107.67 99.33
  A 0.41 0.41 0.0 0 0 107.42 99.96
  Q 110.05 103.97 110.16 109.20
  A 2.69 2.69 0.0 0 1 108.76 111.61
  Q 103.70 114.37 99.82 115.85
  Q 97.77 116.64 95.98 116.03
  A 0.54 0.54 0.0 0 0 95.29 116.38
  L 93.46 121.93
  A 4.22 4.20 42.8 0 0 93.58 124.85
  L 99.47 138.89
  A 2.12 2.07 31.7 0 1 99.62 139.49
  Q 100.27 145.56 100.71 146.53
  Q 105.82 157.73 107.36 160.75
  Q 107.53 161.09 107.90 162.63
  Q 108.11 163.49 108.67 163.90
  A 1.01 1.01 0.0 0 0 109.66 164.02
  Q 117.71 160.67 126.83 161.08
  A 1.52 1.51 67.0 0 1 127.79 161.47
  Q 128.64 162.22 129.70 162.02
  A 0.69 0.69 0.0 0 0 130.26 161.32
  Q 130.13 157.37 129.58 154.26
  Q 128.84 150.13 128.94 147.23
  C 129.60 128.12 135.69 110.75 148.83 96.87
  Q 161.16 83.85 179.40 77.78
  Q 201.43 70.45 224.93 77.52
  C 255.38 86.69 275.99 113.74 275.59 145.51
  Q 275.26 171.81 257.91 192.64
  Q 256.97 193.76 247.53 202.90
  A 0.86 0.86 0.0 0 0 247.34 203.85
  Q 248.27 205.97 249.26 206.68
  Q 256.49 211.83 258.26 213.74
  Q 267.38 223.58 272.87 235.82
  A 3.71 3.70 -2.6 0 0 275.07 237.82
  Q 286.34 241.65 293.46 251.64
  A 1.02 1.02 0.0 0 0 295.30 250.86
  Q 294.06 244.21 291.66 238.83
  Q 285.57 225.15 275.29 214.77
  C 273.45 212.91 272.07 210.87 273.20 208.52
  Q 274.00 206.88 276.13 206.89
  C 297.03 206.89 313.35 223.16 320.95 241.34
  A 0.63 0.63 0.0 0 0 321.96 241.56
  Q 333.34 231.25 333.20 216.95
  A 5.92 5.88 -67.2 0 0 331.59 212.97
  C 322.05 202.93 310.73 197.16 297.40 189.88
  Q 293.25 187.61 288.19 181.77
  Q 283.36 176.20 282.22 168.49
  C 281.27 162.04 283.75 154.53 287.77 149.91
  C 298.52 137.59 319.84 139.17 334.32 142.89
  Q 385.28 155.97 421.85 194.14
  C 441.79 214.95 464.10 247.99 456.25 278.28
  Q 453.98 287.01 450.36 296.34
  A 5.06 5.05 -0.4 0 1 447.56 299.18
  L 445.14 300.17
  A 4.93 4.86 10.3 0 0 443.42 301.34
  C 441.40 303.47 439.22 308.61 435.77 310.05
  Q 434.78 310.45 433.20 309.66
  C 430.19 308.17 433.57 302.36 434.80 299.90
  A 0.47 0.47 0.0 0 0 434.57 299.25
  L 434.31 299.13
  A 0.20 0.19 24.4 0 0 434.06 299.22
  Q 432.15 302.76 431.23 304.20
  Q 429.63 306.71 426.64 305.84
  A 1.74 1.73 -77.7 0 1 425.41 303.91
  L 426.43 297.42
  A 0.51 0.50 22.8 0 0 426.23 296.95
  L 425.20 296.20
  A 0.61 0.61 0.0 0 0 424.27 296.48
  C 423.38 298.95 419.62 304.28 416.46 302.78
  A 2.73 2.72 -67.9 0 1 415.05 299.42
  Q 415.46 298.21 417.09 294.37
  A 1.04 1.04 0.0 0 0 415.92 292.94
  Q 415.54 293.02 414.90 293.67
  Q 411.75 296.85 409.86 297.80
  A 1.72 1.72 0.0 0 1 407.71 297.31
  C 406.14 295.26 406.79 292.35 407.71 290.32
  A 1.47 1.47 0.0 0 0 407.24 288.54
  L 406.19 287.78
  A 0.77 0.77 0.0 0 0 405.04 288.08
  Q 404.30 289.66 402.80 291.69
  Q 401.27 293.74 399.49 291.74
  C 397.76 289.81 398.84 287.69 399.05 285.69
  A 3.92 3.90 -68.0 0 0 397.56 282.17
  L 392.39 278.14
  A 0.67 0.67 0.0 0 0 391.44 278.27
  Q 390.07 280.13 389.88 282.99
  A 0.90 0.90 0.0 0 0 391.00 283.93
  C 391.90 283.71 392.63 283.01 393.66 283.24
  Q 395.69 283.69 395.89 285.64
  Q 396.65 293.11 393.43 299.37
  A 0.59 0.59 0.0 0 0 394.05 300.22
  C 396.86 299.75 397.91 296.41 401.17 298.55
  A 1.39 1.37 -79.3 0 1 401.78 299.46
  Q 402.64 304.26 400.93 308.09
  A 0.44 0.44 0.0 0 0 401.54 308.66
  Q 404.42 307.08 406.61 308.84
  A 1.57 1.54 21.8 0 1 407.18 310.14
  L 406.66 317.73
  A 0.24 0.24 0.0 0 0 407.04 317.94
  C 408.80 316.74 413.25 316.06 413.95 318.94
  C 415.12 323.75 410.14 330.29 406.81 333.66
  Q 402.43 338.11 397.22 339.47
  C 388.80 341.66 382.22 335.28 378.10 328.46
  C 370.10 315.23 362.25 304.56 352.82 292.30
  A 0.93 0.92 -39.5 0 0 351.47 292.18
  L 348.72 294.62
  A 1.94 1.94 0.0 0 0 348.23 296.83
  C 350.71 302.70 351.41 307.43 350.65 313.78
  Q 349.47 323.65 345.66 333.38
  Q 344.50 336.35 345.52 338.82
  Q 346.57 341.37 350.33 348.54
  Q 354.07 355.67 361.51 357.16
  Q 375.52 359.97 389.31 358.62
  C 397.42 357.82 403.88 354.67 410.65 349.38
  C 420.83 341.41 429.06 335.05 442.02 337.75
  Q 455.58 340.58 461.57 350.89
  A 1.50 1.50 0.0 0 1 461.76 351.79
  C 461.49 354.11 458.53 355.06 456.50 354.59
  Q 456.24 354.53 449.39 353.42
  A 10.88 10.74 47.4 0 0 446.94 353.30
  C 441.27 353.70 436.77 354.04 432.54 356.15
  A 0.32 0.32 0.0 0 0 432.68 356.76
  C 436.89 356.88 441.70 356.96 445.94 358.59
  C 455.84 362.41 464.24 370.24 465.07 381.24
  Q 465.26 383.72 463.16 385.53
  A 0.80 0.79 37.0 0 1 462.30 385.65
  Q 459.27 384.31 458.96 384.05
  Q 450.54 376.96 439.56 375.14
  A 0.35 0.35 0.0 0 0 439.21 375.67
  Q 446.69 387.41 442.70 401.26
  A 2.64 2.55 -22.2 0 1 442.40 401.94
  Q 441.24 403.86 439.90 404.57
  A 2.22 2.22 0.0 0 1 436.79 403.40
  Q 434.54 397.49 432.92 394.12
  C 429.92 387.87 420.05 377.24 412.28 384.35
  A 0.88 0.87 -34.8 0 0 412.09 385.39
  Q 415.65 392.32 421.46 399.25
  A 2.66 2.48 49.8 0 1 421.28 402.88
  C 418.86 404.93 412.15 402.94 408.81 401.94
  C 402.05 399.92 396.77 396.18 393.50 390.25
  Q 392.58 388.57 391.01 384.87
  A 1.68 1.68 0.0 0 0 389.38 383.85
  Q 379.21 384.41 369.75 385.36
  C 360.22 386.31 349.19 386.66 339.83 384.36
  C 330.92 382.16 326.76 376.46 322.14 369.04
  A 1.02 1.02 0.0 0 0 320.80 368.67
  Q 317.36 370.48 314.53 370.80
  C 312.96 370.98 310.85 370.06 309.06 370.22
  A 2.93 2.84 26.7 0 0 307.94 370.57
  Q 303.15 373.18 297.44 373.02
  A 1.51 1.39 -54.6 0 0 296.78 373.16
  L 293.20 374.91
  A 0.32 0.32 0.0 0 0 293.34 375.52
  C 301.75 375.52 308.77 376.93 315.73 382.31
  C 320.54 386.02 323.04 392.34 324.37 398.16
  C 324.88 400.37 325.62 405.00 323.00 406.05
  Q 321.49 406.65 320.36 405.66
  C 315.68 401.55 309.95 396.40 304.60 394.95
  Q 302.20 394.29 296.67 393.07
  A 0.41 0.41 0.0 0 0 296.28 393.75
  C 299.59 397.31 304.11 400.88 306.54 404.71
  Q 313.04 414.91 307.88 427.06
  A 1.20 1.20 0.0 0 0 308.36 428.55
  C 314.29 432.17 318.85 437.03 324.07 442.66
  Q 329.51 448.53 332.38 455.60
  C 337.78 468.93 325.96 480.62 316.44 488.19
  Q 307.33 495.43 282.90 513.15
  Q 276.15 518.05 270.54 523.87
  A 0.87 0.87 0.0 0 0 270.67 525.19
  Q 283.60 534.13 293.33 541.16
  Q 300.35 546.23 306.40 548.05
  Q 318.08 551.57 319.30 551.95
  Q 332.69 556.18 341.12 568.26
  C 343.00 570.96 345.87 577.06 344.60 580.45
  C 343.54 583.28 340.33 582.35 338.29 581.19
  Q 337.06 580.49 333.29 577.99
  A 0.58 0.58 0.0 0 0 332.42 578.63
  Q 333.60 582.83 332.84 587.96
  C 332.40 590.93 329.44 591.60 327.12 589.89
  Q 319.23 584.12 312.82 580.64
  A 0.76 0.75 -80.6 0 0 311.72 581.43
  Q 312.59 586.77 310.69 591.39
  C 309.69 593.80 307.14 595.44 305.22 592.76
  Q 299.75 585.13 291.06 580.68
  C 282.31 576.19 273.94 573.10 268.01 566.51
  Q 266.40 564.72 262.04 558.28
  C 259.55 554.60 254.82 550.51 250.86 547.90
  Q 239.97 540.68 236.12 537.98
  C 226.14 530.98 227.71 522.52 236.16 515.40
  C 245.39 507.62 251.82 502.96 256.82 494.07
  C 259.66 489.04 262.87 480.71 266.79 475.83
  Q 272.17 469.13 280.19 464.35
  A 1.04 1.04 0.0 0 0 280.02 462.48
  Q 263.96 456.43 246.07 447.43
  Q 240.05 444.40 235.61 442.41
  A 0.55 0.54 81.4 0 0 234.98 443.27
  C 236.01 444.47 235.75 445.49 236.04 446.74
  Q 239.33 460.71 240.18 473.76
  C 241.09 487.64 230.97 498.72 220.40 505.94
  C 211.24 512.20 202.14 512.41 191.81 511.76
  Q 175.58 510.73 144.94 507.10
  Q 133.18 505.71 122.48 505.67
  Q 116.85 505.65 114.47 510.77
  Q 107.86 525.01 104.06 542.05
  C 102.88 547.31 101.10 553.67 106.86 556.63
  Q 108.61 557.53 119.57 563.54
  C 128.74 568.56 136.26 578.00 138.52 588.73
  Q 139.42 592.99 138.95 595.11
  A 1.38 1.38 0.0 0 1 138.47 595.90
  Q 136.27 597.71 134.26 595.72
  Q 126.82 588.38 117.75 585.54
  A 0.75 0.74 -3.8 0 0 116.85 586.56
  Q 120.39 594.14 116.69 601.00
  Z
  M 100.57 81.10
  Q 100.51 82.58 101.98 84.52
  L 104.48 91.79
  A 1.05 1.05 0.0 0 0 105.89 92.41
  L 244.76 32.94
  A 1.10 1.07 -84.6 0 0 245.24 32.53
  L 259.35 11.12
  A 0.28 0.27 -69.6 0 0 259.16 10.70
  Q 246.87 8.90 234.01 7.38
  Q 232.07 7.15 230.11 8.12
  Q 163.95 40.79 97.97 72.62
  A 0.71 0.71 0.0 0 0 97.61 73.53
  L 100.57 81.10
  Z
  M 87.0715 65.3150
  A 1.11 1.11 0.0 0 0 85.6254 64.7042
  L 82.4011 66.0135
  A 1.11 1.11 0.0 0 0 81.7903 67.4595
  L 98.1485 107.7450
  A 1.11 1.11 0.0 0 0 99.5946 108.3558
  L 102.8189 107.0465
  A 1.11 1.11 0.0 0 0 103.4297 105.6005
  L 87.0715 65.3150
  Z
  M 248.76 192.84
  Q 242.57 197.31 234.99 197.93
  Q 209.31 200.01 191.24 184.79
  Q 182.77 177.65 178.57 168.89
  C 170.94 152.95 173.04 134.52 183.16 120.55
  C 194.33 105.12 215.01 99.39 233.93 102.33
  C 244.11 103.91 252.74 106.49 260.47 113.31
  A 0.21 0.21 0.0 0 0 260.79 113.04
  Q 247.48 91.59 223.52 84.48
  C 187.84 73.89 150.93 90.91 138.76 126.63
  A 0.32 0.32 0.0 0 0 139.22 127.02
  C 145.65 123.47 153.70 124.03 159.52 128.54
  C 174.88 140.45 165.81 170.16 144.43 166.55
  C 141.75 166.10 140.84 165.60 138.09 164.31
  A 0.32 0.32 0.0 0 0 137.66 164.73
  Q 140.63 171.48 145.02 178.21
  Q 146.99 181.25 148.97 182.28
  Q 174.99 195.77 202.59 201.13
  Q 218.54 204.23 232.67 202.43
  Q 241.94 201.24 248.92 193.01
  A 0.12 0.12 0.0 0 0 248.76 192.84
  Z
  M 73.09 92.76
  L 78.72 91.42
  A 0.82 0.82 0.0 0 0 79.32 90.42
  Q 78.11 85.61 74.44 83.03
  A 5.17 5.15 -34.1 0 0 70.30 82.24
  L 67.90 82.82
  A 1.25 1.25 0.0 0 0 67.16 84.73
  L 72.36 92.48
  A 0.68 0.67 65.5 0 0 73.09 92.76
  Z
  M 63.25 108.37
  Q 62.97 106.03 62.65 103.52
  C 62.25 100.43 64.28 98.69 66.15 96.28
  A 0.89 0.88 53.7 0 0 66.28 95.40
  Q 64.91 91.82 61.55 89.04
  A 3.88 3.86 49.1 0 0 57.07 88.71
  L 54.91 90.02
  A 1.85 1.85 0.0 0 0 54.72 93.06
  C 59.14 96.54 60.60 103.02 62.41 108.56
  A 0.43 0.43 0.0 0 0 63.25 108.37
  Z
  M 39.47 101.19
  A 0.99 0.99 0.0 0 0 39.99 102.39
  C 42.97 103.80 44.67 105.04 45.75 108.45
  C 46.95 112.24 48.69 115.52 53.54 113.81
  A 3.00 2.91 -9.1 0 0 55.53 111.15
  Q 55.82 102.64 49.26 96.89
  C 45.18 93.32 40.83 97.03 39.47 101.19
  Z
  M 45.76 120.79
  Q 49.73 126.14 54.91 129.69
  C 59.28 132.69 63.68 133.05 68.83 131.83
  C 78.36 129.59 87.00 125.33 89.14 115.17
  C 90.61 108.19 91.90 96.12 80.80 98.04
  C 78.03 98.51 68.41 100.27 69.11 104.42
  C 70.11 110.40 78.47 108.99 82.50 108.28
  Q 83.44 108.12 84.53 109.30
  C 86.72 111.66 83.53 114.31 81.38 114.99
  Q 78.71 115.84 75.52 115.61
  A 1.53 1.53 0.0 0 0 74.13 116.28
  Q 72.10 119.32 69.62 123.26
  A 2.20 2.05 -58.2 0 1 66.75 124.04
  C 63.56 122.10 66.60 117.47 68.16 114.37
  A 0.53 0.53 0.0 0 0 67.56 113.61
  L 61.18 115.25
  A 0.75 0.71 11.4 0 0 60.83 115.47
  C 60.07 116.33 59.42 117.86 58.43 118.52
  Q 54.74 120.99 51.18 120.62
  Q 46.23 120.10 46.11 120.11
  A 0.43 0.43 0.0 0 0 45.76 120.79
  Z
  M 227.17 191.97
  C 254.73 193.06 271.17 168.29 268.90 142.84
  C 267.73 129.72 259.95 117.83 248.06 112.50
  Q 241.43 109.52 230.60 108.33
  C 207.82 105.81 186.30 116.69 181.04 140.11
  C 177.42 156.29 184.61 172.32 197.89 182.18
  C 206.37 188.48 216.69 191.56 227.17 191.97
  Z
  M 38.4272 113.7183
  A 5.55 5.55 0.0 0 0 32.1588 108.9947
  L 31.0893 109.1450
  A 5.55 5.55 0.0 0 0 26.3658 115.4134
  L 26.5328 116.6017
  A 5.55 5.55 0.0 0 0 32.8012 121.3253
  L 33.8707 121.1750
  A 5.55 5.55 0.0 0 0 38.5942 114.9066
  L 38.4272 113.7183
  Z
  M 55.78 138.03
  L 57.24 151.25
  A 2.39 2.37 3.9 0 0 59.04 153.30
  Q 61.99 154.01 66.01 153.91
  Q 81.49 153.50 93.42 143.91
  A 1.30 1.29 -31.2 0 0 93.80 142.39
  L 88.58 130.19
  A 0.26 0.26 0.0 0 0 88.18 130.09
  C 81.77 135.18 73.74 137.78 65.55 138.94
  Q 61.02 139.59 56.28 137.65
  A 0.37 0.36 -81.9 0 0 55.78 138.03
  Z
  M 148.8574 130.8037
  A 15.18 12.75 -86.8 0 0 135.2799 145.2483
  A 15.18 12.75 -86.8 0 0 147.1626 161.1163
  A 15.18 12.75 -86.8 0 0 160.7401 146.6717
  A 15.18 12.75 -86.8 0 0 148.8574 130.8037
  Z
  M 306.51 173.16
  L 299.01 171.90
  A 2.20 2.19 -79.3 0 1 297.23 169.28
  L 297.23 169.24
  A 2.42 2.41 -83.1 0 1 299.76 167.25
  Q 313.70 168.11 325.59 174.18
  Q 348.55 185.90 363.95 205.04
  Q 368.21 210.33 379.62 226.71
  A 2.27 2.26 45.8 0 1 379.59 229.36
  L 379.11 230.02
  A 1.74 1.74 0.0 0 1 376.30 230.03
  L 367.43 218.01
  A 2.83 2.81 -26.9 0 0 364.32 217.00
  Q 358.09 218.96 356.57 226.11
  A 2.38 2.36 -57.0 0 0 356.96 227.99
  Q 362.28 235.41 368.71 242.24
  Q 373.86 247.72 382.30 249.17
  A 1.67 1.56 10.3 0 1 383.68 251.02
  C 383.48 252.02 382.36 252.87 381.41 253.00
  C 373.52 254.09 368.62 249.77 363.08 244.83
  A 0.67 0.65 41.3 0 0 362.15 244.88
  C 352.92 255.24 349.02 268.47 354.19 281.73
  Q 356.19 286.87 362.38 294.65
  C 369.94 304.17 377.58 314.95 383.70 325.55
  Q 385.94 329.42 388.55 331.47
  A 8.42 8.39 -25.5 0 0 393.62 333.26
  L 396.90 333.30
  A 1.51 1.51 0.0 0 0 397.84 330.59
  Q 395.62 328.88 391.75 323.02
  Q 379.96 305.17 377.65 286.56
  C 376.81 279.82 377.11 274.08 382.76 269.85
  A 0.68 0.68 0.0 0 0 382.75 268.76
  L 375.91 263.77
  A 2.84 2.84 0.0 0 0 372.58 263.76
  C 368.58 266.62 367.76 271.60 366.45 276.24
  A 1.59 1.53 24.3 0 1 364.10 277.08
  Q 363.05 276.41 363.03 275.05
  C 362.93 266.75 369.21 253.85 379.65 260.10
  Q 384.31 262.89 388.33 266.68
  C 394.11 272.13 400.98 278.11 407.97 282.23
  Q 421.41 290.15 438.63 294.14
  Q 441.37 294.77 443.38 294.42
  A 2.47 2.45 3.7 0 0 445.30 292.75
  Q 447.18 286.90 448.25 283.86
  C 455.26 264.12 449.59 244.97 439.16 227.39
  Q 429.97 211.91 417.64 199.25
  Q 383.08 163.78 336.75 150.38
  Q 322.95 146.39 310.25 147.23
  C 300.05 147.90 289.44 152.07 288.77 163.52
  C 288.19 173.41 293.43 180.55 302.01 185.13
  A 0.56 0.56 0.0 0 0 302.83 184.73
  Q 303.80 179.19 306.89 173.97
  A 0.54 0.54 0.0 0 0 306.51 173.16
  Z
  M 61.06 161.00
  Q 64.27 176.35 69.71 189.39
  A 3.19 3.17 -8.1 0 0 72.29 191.32
  C 86.74 192.95 98.94 184.58 103.89 171.05
  A 1.52 1.48 44.2 0 0 103.86 169.91
  L 95.73 150.91
  A 0.48 0.48 0.0 0 0 95.01 150.71
  Q 80.45 161.40 61.57 160.41
  A 0.50 0.49 -4.5 0 0 61.06 161.00
  Z
  M 138.20 181.06
  L 133.27 169.55
  A 2.09 2.08 82.5 0 0 131.66 168.31
  Q 123.86 167.12 114.14 168.50
  A 1.19 1.19 0.0 0 0 113.23 170.18
  C 115.19 174.42 118.24 175.73 123.41 178.01
  A 2.30 0.86 33.4 0 1 123.69 178.16
  L 130.49 182.16
  A 1.25 1.23 -31.9 0 0 131.25 182.33
  L 137.88 181.59
  A 0.39 0.38 -14.0 0 0 138.20 181.06
  Z
  M 73.57 196.33
  C 75.21 199.11 77.38 201.67 79.55 204.52
  Q 80.94 206.34 83.28 205.86
  Q 105.32 201.31 110.38 179.12
  A 2.29 2.29 0.0 0 0 109.99 177.24
  L 107.94 174.46
  A 0.64 0.64 0.0 0 0 106.83 174.60
  C 102.24 186.18 90.82 195.55 78.00 195.66
  Q 73.88 195.69 73.84 195.70
  A 0.43 0.43 0.0 0 0 73.57 196.33
  Z
  M 313.62 174.71
  A 1.94 1.93 32.1 0 0 311.38 175.22
  Q 307.82 179.38 306.90 186.33
  A 1.98 1.97 -69.5 0 0 307.76 188.23
  L 311.63 190.78
  A 1.03 1.03 0.0 0 0 313.22 190.00
  Q 313.76 183.32 318.65 178.10
  A 0.82 0.82 0.0 0 0 318.38 176.79
  L 313.62 174.71
  Z
  M 324.87 179.57
  A 1.40 1.40 0.0 0 0 323.31 179.77
  Q 317.71 184.68 317.31 192.28
  A 2.57 2.56 19.6 0 0 318.36 194.48
  L 321.64 196.87
  A 0.93 0.92 21.2 0 0 323.11 196.23
  Q 323.76 190.26 330.56 183.87
  A 0.96 0.95 -53.3 0 0 330.34 182.32
  L 324.87 179.57
  Z
  M 85.98 210.08
  Q 87.27 211.48 90.03 213.54
  Q 107.62 226.66 121.91 233.46
  Q 126.62 235.70 130.67 235.94
  A 1.71 1.70 -72.0 0 0 132.21 235.15
  Q 133.86 232.58 135.07 228.10
  Q 139.09 213.16 134.33 197.42
  C 131.61 188.41 123.33 185.33 114.85 180.89
  A 0.48 0.48 0.0 0 0 114.16 181.20
  Q 108.67 204.03 86.12 209.63
  A 0.28 0.27 -27.9 0 0 85.98 210.08
  Z
  M 333.07 203.38
  C 334.17 198.09 336.76 193.67 341.48 191.29
  A 0.65 0.65 0.0 0 0 341.57 190.19
  L 336.24 186.30
  A 1.44 1.43 44.4 0 0 334.54 186.31
  Q 327.91 191.26 326.77 198.76
  A 2.81 2.80 -67.7 0 0 327.89 201.44
  L 331.42 204.02
  A 1.05 1.05 0.0 0 0 333.07 203.38
  Z
  M 137.05 187.57
  A 0.30 0.30 0.0 0 0 136.85 188.01
  C 143.82 200.42 144.82 215.96 141.26 229.53
  C 139.45 236.42 136.00 242.37 128.46 243.73
  C 125.53 244.26 122.79 242.01 120.06 240.17
  A 0.86 0.86 0.0 0 0 118.78 240.58
  C 117.99 242.66 118.69 244.03 119.75 246.21
  Q 122.16 251.16 126.76 251.87
  C 133.34 252.88 139.71 248.30 143.82 243.04
  C 152.67 231.72 154.33 216.86 151.54 203.13
  Q 150.34 197.22 149.69 195.45
  C 147.88 190.49 142.68 186.43 137.05 187.57
  Z
  M 233.95 208.85
  C 207.08 212.23 179.63 203.56 155.26 192.03
  A 0.08 0.07 -85.0 0 0 155.16 192.12
  L 157.21 199.19
  A 0.76 0.75 -86.5 0 0 157.61 199.65
  Q 178.96 209.43 200.22 213.55
  C 210.14 215.47 227.30 218.48 234.24 209.37
  A 0.32 0.32 0.0 0 0 233.95 208.85
  Z
  M 343.10 212.33
  Q 345.32 204.88 352.83 201.39
  A 0.97 0.97 0.0 0 0 353.06 199.78
  L 347.09 194.63
  A 1.94 1.94 0.0 0 0 345.05 194.31
  C 339.29 196.77 337.81 201.38 336.87 207.03
  A 2.88 2.88 0.0 0 0 337.83 209.69
  L 341.44 212.81
  A 1.03 1.03 0.0 0 0 343.10 212.33
  Z
  M 352.97 223.88
  Q 354.70 216.03 362.44 212.83
  A 0.76 0.74 60.7 0 0 362.75 211.69
  L 357.95 205.19
  A 1.86 1.85 60.6 0 0 355.76 204.57
  Q 347.87 207.74 346.26 216.68
  A 0.30 0.29 -61.1 0 0 346.33 216.94
  L 352.59 223.98
  A 0.22 0.22 0.0 0 0 352.97 223.88
  Z
  M 203.97 227.77
  L 204.54 221.80
  A 0.74 0.72 7.5 0 0 203.92 221.01
  Q 180.62 217.25 159.17 207.29
  A 0.45 0.45 0.0 0 0 158.54 207.76
  C 161.43 227.60 152.48 254.84 129.51 258.38
  A 1.54 1.52 88.6 0 0 128.23 259.74
  L 125.38 289.52
  A 0.90 0.90 0.0 0 0 126.13 290.49
  Q 129.64 291.06 134.52 291.83
  C 140.63 292.79 144.86 293.09 147.51 298.13
  A 1.46 1.44 82.9 0 0 148.41 298.84
  Q 151.18 299.57 153.62 299.89
  Q 172.61 302.43 190.52 303.44
  A 1.14 1.13 11.6 0 0 191.64 302.71
  Q 194.70 294.67 195.68 285.32
  A 0.62 0.62 0.0 0 0 195.10 284.63
  Q 182.55 283.83 172.66 282.38
  C 167.78 281.67 163.58 279.62 162.04 274.98
  Q 161.34 272.85 162.11 267.86
  Q 165.48 246.10 166.77 236.56
  Q 167.79 229.02 173.08 226.80
  Q 176.25 225.47 185.02 226.43
  Q 191.19 227.11 203.34 228.29
  A 0.58 0.57 -84.0 0 0 203.97 227.77
  Z
  M 241.12 255.69
  Q 247.33 245.74 247.99 233.62
  C 248.42 225.68 248.41 215.37 242.26 209.39
  A 1.10 1.10 0.0 0 0 240.39 210.27
  C 240.72 214.05 241.82 218.20 242.00 222.56
  Q 242.68 239.40 240.71 255.54
  A 0.22 0.22 0.0 0 0 241.12 255.69
  Z
  M 284.54 215.26
  C 293.03 226.19 299.34 236.40 301.60 249.85
  A 0.68 0.67 82.2 0 0 302.33 250.41
  Q 308.83 249.79 314.16 246.49
  A 1.88 1.88 0.0 0 0 314.95 244.29
  Q 312.08 235.98 306.14 229.38
  C 300.93 223.58 292.63 215.36 284.80 214.79
  A 0.30 0.29 -16.4 0 0 284.54 215.26
  Z
  M 196.68 303.08
  Q 209.07 303.14 220.44 301.00
  A 2.62 2.61 8.0 0 0 222.29 299.61
  C 228.60 286.88 231.91 272.70 234.44 258.76
  C 236.79 245.77 237.01 230.89 236.18 218.44
  A 0.78 0.77 -16.8 0 0 235.02 217.82
  C 227.52 222.16 218.00 222.64 209.47 221.74
  A 0.64 0.63 -84.8 0 0 208.77 222.33
  L 208.38 228.08
  A 0.71 0.71 0.0 0 0 209.02 228.84
  Q 212.29 229.22 220.74 229.96
  C 228.93 230.68 234.36 232.06 235.76 239.76
  Q 236.06 241.44 234.86 247.73
  Q 230.30 271.55 229.23 277.00
  Q 227.33 286.72 216.94 286.00
  Q 203.46 285.06 200.40 285.03
  A 0.64 0.63 2.4 0 0 199.76 285.61
  Q 198.94 293.71 196.15 302.35
  A 0.56 0.56 0.0 0 0 196.68 303.08
  Z
  M 252.74 217.63
  A 0.15 0.15 0.0 0 0 252.49 217.76
  Q 257.41 242.84 243.32 262.85
  A 1.06 1.05 41.9 0 0 243.40 264.16
  L 246.49 267.64
  A 0.64 0.64 0.0 0 0 247.51 267.56
  C 252.73 259.63 257.09 256.89 266.82 255.68
  A 0.58 0.58 0.0 0 0 267.24 254.81
  Q 263.46 248.67 259.53 244.15
  C 254.55 238.44 260.36 236.01 265.24 236.41
  A 0.33 0.33 0.0 0 0 265.56 235.93
  Q 260.21 225.52 252.74 217.63
  Z
  M 32.48 230.87
  Q 35.23 230.76 37.70 231.90
  A 0.71 0.70 -64.0 0 0 38.62 231.58
  L 45.09 218.72
  A 0.27 0.27 0.0 0 0 44.70 218.38
  Q 37.60 223.52 32.28 230.50
  A 0.23 0.23 0.0 0 0 32.48 230.87
  Z
  M 336.92 333.85
  Q 334.91 334.13 331.20 332.73
  A 2.85 2.84 16.8 0 1 329.44 329.46
  L 329.47 329.34
  A 2.09 2.09 0.0 0 1 332.32 327.86
  Q 340.14 331.16 342.71 322.70
  A 0.78 0.77 -80.3 0 0 342.01 321.70
  C 339.81 321.57 336.05 321.49 335.37 319.55
  A 1.92 1.91 -17.6 0 1 336.66 317.08
  C 339.71 316.22 341.13 316.73 342.79 313.48
  Q 345.64 307.91 343.47 301.46
  A 0.65 0.64 -36.2 0 0 342.34 301.29
  L 335.97 310.03
  A 0.95 0.94 -42.4 0 1 334.40 309.96
  L 332.88 307.45
  A 2.65 2.65 0.0 0 1 333.03 304.47
  Q 340.25 294.96 348.59 286.34
  A 1.23 1.23 0.0 0 0 348.86 285.07
  C 342.57 268.19 347.04 253.74 358.31 240.37
  A 0.95 0.94 -44.2 0 0 358.33 239.18
  Q 350.25 228.85 340.29 219.41
  A 0.36 0.36 0.0 0 0 339.68 219.64
  C 338.75 228.74 335.28 237.10 328.56 243.52
  C 321.94 249.82 313.84 254.67 304.94 256.50
  C 299.59 257.60 293.91 258.82 289.11 261.34
  A 0.48 0.48 0.0 0 0 289.03 262.13
  Q 292.11 264.73 294.92 267.77
  C 298.92 272.08 301.90 278.97 299.09 284.48
  A 0.75 0.75 0.0 0 1 297.90 284.66
  Q 297.50 284.26 297.31 283.64
  Q 293.31 270.70 281.84 264.81
  C 275.29 261.45 269.40 266.53 264.10 270.41
  A 0.33 0.33 0.0 0 0 264.27 271.01
  C 274.75 271.92 282.00 281.38 279.33 291.77
  A 1.68 1.67 -62.9 0 1 276.63 292.65
  Q 276.36 292.42 276.13 291.19
  C 274.90 284.58 274.31 279.95 267.22 276.83
  C 259.95 273.63 255.92 277.90 250.67 282.67
  C 233.12 298.66 216.73 316.14 204.00 335.53
  Q 201.15 339.87 203.96 344.58
  Q 211.01 356.36 222.38 367.12
  C 229.83 374.17 234.69 377.99 243.37 384.26
  C 250.44 389.36 254.87 394.82 260.00 402.12
  C 261.69 404.52 264.09 406.68 266.30 408.74
  C 273.85 415.78 274.47 425.33 272.10 434.82
  A 0.28 0.28 0.0 0 0 272.58 435.07
  Q 279.14 427.40 278.69 417.46
  Q 278.59 415.36 277.09 409.54
  Q 276.49 407.23 275.71 401.53
  A 0.84 0.83 73.7 0 1 276.18 400.66
  Q 277.87 399.84 279.75 400.51
  C 289.04 403.83 298.31 408.03 300.56 418.46
  Q 301.04 420.68 301.54 422.88
  A 0.37 0.37 0.0 0 0 302.24 422.95
  Q 302.97 421.27 303.12 419.23
  C 303.96 407.63 296.20 401.39 288.54 394.21
  Q 287.17 392.93 286.60 391.03
  A 1.81 1.81 0.0 0 1 287.92 388.76
  Q 302.76 385.24 315.92 393.23
  A 0.30 0.29 -3.0 0 0 316.31 392.80
  C 312.46 387.75 306.74 383.04 300.02 382.24
  C 291.30 381.20 284.15 381.99 274.57 382.83
  C 271.81 383.07 266.09 383.07 264.21 380.78
  Q 260.19 375.88 253.57 367.73
  Q 247.18 359.86 239.30 346.90
  Q 235.05 339.92 228.27 337.38
  A 2.02 2.00 28.5 0 1 227.34 334.31
  C 229.30 331.66 235.00 334.87 237.01 336.53
  A 1.33 1.33 0.0 0 0 238.54 336.65
  L 290.06 305.39
  A 2.02 2.01 67.9 0 1 293.06 306.66
  L 293.18 307.03
  A 3.86 3.85 -24.0 0 1 291.48 311.44
  L 269.06 325.04
  A 1.38 1.38 0.0 0 0 268.43 326.51
  C 271.41 339.91 281.99 351.71 296.49 351.46
  C 298.33 351.43 301.02 351.10 301.69 352.79
  A 2.05 1.97 73.4 0 1 300.27 355.55
  C 282.55 358.94 268.15 345.55 264.37 329.23
  A 0.66 0.66 0.0 0 0 263.38 328.81
  L 255.30 333.71
  A 1.07 1.07 0.0 0 0 254.81 334.86
  Q 255.66 338.76 257.60 342.42
  Q 266.88 359.93 287.27 360.24
  A 1.48 1.47 -72.3 0 1 288.46 362.55
  L 288.42 362.61
  A 4.80 4.79 17.4 0 1 284.43 364.69
  C 267.74 364.56 254.75 352.95 250.51 337.39
  A 0.62 0.62 0.0 0 0 249.59 337.02
  L 243.21 340.89
  A 0.83 0.83 0.0 0 0 242.94 342.04
  Q 247.24 348.69 251.82 355.67
  Q 258.43 365.73 269.78 369.54
  A 1.42 1.42 0.0 0 1 270.21 372.00
  Q 268.92 373.02 266.33 372.58
  A 0.67 0.67 0.0 0 0 265.78 373.75
  L 269.21 376.72
  A 1.79 1.77 57.3 0 0 270.86 377.09
  Q 284.99 373.12 297.96 365.96
  Q 301.64 363.94 304.54 360.86
  A 1.06 1.05 -52.0 0 1 305.87 360.69
  C 308.80 362.54 311.47 364.64 314.07 364.62
  Q 318.34 364.59 321.36 360.57
  A 0.44 0.43 -67.2 0 0 321.08 359.88
  Q 314.46 358.93 316.15 352.71
  A 1.23 1.22 25.5 0 1 318.05 352.04
  C 319.19 352.87 320.50 354.39 322.00 354.79
  C 326.72 356.07 329.60 352.39 331.36 348.60
  A 0.40 0.40 0.0 0 0 331.13 348.06
  L 324.70 345.65
  A 2.77 2.77 0.0 0 1 323.05 342.17
  L 323.16 341.85
  A 2.20 2.19 -63.8 0 1 326.31 340.77
  Q 329.58 342.71 332.84 342.70
  A 3.12 3.11 -76.7 0 0 335.60 340.99
  L 338.25 335.72
  A 1.30 1.29 -80.5 0 0 336.92 333.85
  Z
  M 107.74 258.26
  A 0.30 0.30 0.0 0 0 108.08 257.99
  L 110.24 235.43
  A 0.30 0.30 0.0 0 0 110.11 235.15
  L 95.91 225.81
  A 0.30 0.30 0.0 0 0 95.45 226.02
  L 91.76 255.46
  A 0.30 0.30 0.0 0 0 92.01 255.80
  L 107.74 258.26
  Z
  M 168.86 252.95
  Q 166.56 267.75 166.19 269.76
  Q 165.22 275.00 170.09 276.59
  A 0.46 0.46 0.0 0 0 170.68 276.08
  L 170.39 274.25
  A 7.24 7.12 45.3 0 1 170.38 272.07
  Q 170.73 269.69 173.23 253.62
  Q 175.72 237.56 176.11 235.18
  A 7.24 7.12 -27.6 0 1 176.78 233.11
  L 177.61 231.45
  A 0.46 0.46 0.0 0 0 177.20 230.79
  Q 172.08 230.83 171.41 236.12
  Q 171.16 238.14 168.86 252.95
  Z
  M 31.68 231.93
  A 0.64 0.64 0.0 0 0 30.61 231.80
  Q 27.99 234.98 25.71 239.24
  C 5.94 276.19 7.12 319.51 26.91 356.55
  Q 31.30 364.76 39.91 374.24
  C 48.71 383.92 57.60 391.24 69.60 397.44
  C 87.24 406.56 105.74 411.52 125.26 410.72
  A 2.23 2.22 7.2 0 0 127.29 409.15
  Q 129.69 401.25 134.24 395.80
  A 3.03 2.98 -14.7 0 0 134.74 394.96
  L 140.03 381.87
  A 0.91 0.91 0.0 0 0 139.78 380.83
  L 130.26 372.59
  A 0.59 0.59 0.0 0 0 129.28 373.05
  Q 129.69 386.31 124.88 398.36
  Q 123.50 401.79 121.46 403.70
  A 2.18 1.83 -38.7 0 1 118.37 403.63
  Q 118.20 403.38 118.36 402.54
  Q 118.52 401.65 118.63 401.43
  Q 125.12 388.66 124.80 374.06
  A 0.64 0.63 -88.5 0 0 124.21 373.43
  L 111.64 372.58
  A 1.08 1.07 -84.7 0 0 110.50 373.53
  Q 108.94 387.25 102.99 399.62
  A 4.19 4.18 9.8 0 1 99.67 401.96
  L 99.54 401.98
  A 1.34 1.34 0.0 0 1 98.19 400.07
  Q 104.94 385.95 106.23 372.28
  A 0.84 0.84 0.0 0 0 105.55 371.38
  L 93.09 369.05
  A 0.83 0.82 -78.1 0 0 92.13 369.68
  Q 89.11 383.00 79.55 394.44
  A 2.53 2.53 0.0 0 1 76.39 395.04
  L 76.36 395.03
  A 1.75 1.74 -56.0 0 1 75.85 392.39
  Q 85.03 381.25 87.99 368.49
  A 1.50 1.50 0.0 0 0 87.13 366.78
  L 75.05 361.50
  A 0.46 0.45 22.3 0 0 74.44 361.75
  C 71.15 370.13 67.18 376.85 59.63 381.84
  Q 57.45 383.28 55.32 383.22
  A 1.43 1.28 -82.3 0 1 54.15 381.49
  Q 54.46 380.04 55.87 379.10
  Q 66.50 371.97 70.62 359.92
  A 1.13 1.13 0.0 0 0 70.22 358.64
  L 59.75 351.01
  A 0.99 0.98 35.3 0 0 58.36 351.24
  Q 51.75 360.80 41.20 366.30
  A 3.60 3.59 -39.3 0 1 37.28 365.91
  L 37.20 365.85
  A 1.58 1.58 0.0 0 1 37.50 363.21
  Q 48.69 357.65 55.12 348.36
  A 1.28 1.28 0.0 0 0 55.02 346.78
  L 45.89 336.51
  A 0.66 0.65 -42.9 0 0 44.95 336.48
  Q 38.20 342.97 28.36 346.03
  A 2.33 2.32 68.5 0 1 25.57 344.81
  L 25.53 344.73
  A 1.87 1.86 67.2 0 1 26.57 342.17
  Q 35.94 338.74 42.13 333.22
  A 1.49 1.47 56.3 0 0 42.47 331.47
  L 35.88 317.92
  A 0.55 0.55 0.0 0 0 35.10 317.69
  C 30.82 320.31 23.86 323.57 18.80 323.25
  A 2.22 2.20 88.8 0 1 16.74 321.26
  L 16.73 321.18
  A 1.86 1.85 -5.7 0 1 18.40 319.15
  Q 26.54 318.40 33.35 313.68
  A 1.31 1.30 65.8 0 0 33.87 312.30
  L 30.40 297.81
  A 0.64 0.64 0.0 0 0 29.61 297.34
  Q 23.93 298.83 15.58 299.01
  A 2.30 2.30 0.0 0 1 13.28 297.24
  L 13.26 297.16
  A 1.62 1.62 0.0 0 1 14.67 295.23
  L 28.35 293.72
  A 1.25 1.24 -4.2 0 0 29.46 292.44
  L 28.91 276.14
  A 0.62 0.61 0.0 0 0 28.31 275.55
  C 25.94 275.49 20.87 275.73 17.71 274.67
  A 1.51 1.51 0.0 0 1 16.68 273.04
  L 16.86 271.60
  A 1.26 1.25 -79.1 0 1 18.42 270.54
  Q 22.65 271.61 28.58 271.38
  A 0.94 0.94 0.0 0 0 29.48 270.56
  L 31.28 256.24
  A 0.61 0.61 0.0 0 0 30.91 255.60
  L 23.83 252.50
  A 1.86 1.86 0.0 0 1 22.76 250.37
  L 22.85 250.00
  A 1.82 1.81 -71.6 0 1 25.34 248.75
  L 31.31 251.36
  A 0.97 0.97 0.0 0 0 32.62 250.75
  L 36.78 236.74
  A 1.01 1.00 21.8 0 0 36.27 235.56
  L 32.88 233.85
  A 1.12 1.12 0.0 0 1 32.36 233.33
  L 31.68 231.93
  Z
  M 175.01 272.66
  A 4.61 4.61 0.0 0 0 179.25 277.97
  L 219.48 280.70
  A 4.61 4.61 0.0 0 0 224.32 276.95
  L 230.88 241.82
  A 4.61 4.61 0.0 0 0 226.78 236.39
  L 185.69 232.45
  A 4.61 4.61 0.0 0 0 180.70 236.33
  L 175.01 272.66
  Z
  M 267.86 243.50
  A 0.06 0.06 0.0 0 0 267.85 243.58
  L 275.44 255.85
  A 3.26 3.26 0.0 0 0 278.02 257.39
  Q 283.04 257.68 286.71 255.18
  A 0.51 0.50 -35.8 0 0 286.83 254.46
  Q 280.09 245.46 269.27 243.42
  Q 268.25 243.23 267.86 243.50
  Z
  M 114.41 251.26
  L 111.99 286.91
  A 0.94 0.93 -83.9 0 0 112.77 287.89
  L 120.95 289.17
  A 0.42 0.41 7.1 0 0 121.43 288.80
  L 124.32 258.65
  A 0.95 0.95 0.0 0 0 123.66 257.66
  Q 117.55 255.76 115.02 251.12
  A 0.33 0.32 -57.5 0 0 114.41 251.26
  Z
  M 107.98 263.78
  A 0.74 0.74 0.0 0 0 107.36 262.98
  L 91.85 260.55
  A 0.74 0.74 0.0 0 0 91.00 261.21
  L 90.09 270.66
  A 0.74 0.74 0.0 0 0 90.73 271.47
  L 106.29 273.42
  A 0.74 0.74 0.0 0 0 107.12 272.76
  L 107.98 263.78
  Z
  M 265.2355 262.1973
  A 2.95 0.68 -23.0 0 0 262.2543 262.7241
  A 2.95 0.68 -23.0 0 0 259.8045 264.5027
  A 2.95 0.68 -23.0 0 0 262.7857 263.9759
  A 2.95 0.68 -23.0 0 0 265.2355 262.1973
  Z
  M 232.34 291.82
  C 233.49 291.55 238.89 285.63 243.09 281.36
  Q 243.75 280.68 245.02 276.57
  A 1.01 1.00 35.8 0 0 244.87 275.68
  L 239.94 269.01
  A 1.12 1.12 0.0 0 0 237.94 269.92
  Q 238.26 271.38 237.50 273.55
  Q 237.35 273.97 236.73 276.49
  Q 234.77 284.33 231.97 291.38
  A 0.33 0.33 0.0 0 0 232.34 291.82
  Z
  M 252.42 273.03
  L 256.84 270.33
  A 0.11 0.11 0.0 0 0 256.88 270.18
  L 256.86 270.15
  A 2.51 1.10 -31.4 0 0 254.15 270.52
  L 253.82 270.72
  A 2.51 1.10 -31.4 0 0 252.26 272.97
  L 252.27 272.99
  A 0.11 0.11 0.0 0 0 252.42 273.03
  Z
  M 90.24 276.72
  Q 89.53 291.63 101.42 300.78
  A 0.71 0.71 0.0 0 0 102.54 300.42
  L 105.53 290.07
  A 0.49 0.41 -39.7 0 0 105.56 289.91
  L 106.48 279.10
  A 0.59 0.59 0.0 0 0 105.96 278.46
  L 90.49 276.51
  A 0.23 0.22 -84.0 0 0 90.24 276.72
  Z
  M 387.38 299.11
  L 389.29 293.91
  A 0.10 0.10 0.0 0 0 389.23 293.78
  L 389.20 293.77
  A 2.70 2.28 -69.8 0 0 386.12 295.51
  L 386.01 295.83
  A 2.70 2.28 -69.8 0 0 387.21 299.15
  L 387.25 299.17
  A 0.10 0.10 0.0 0 0 387.38 299.11
  Z
  M 122.7021 297.0027
  A 0.95 0.95 0.0 0 0 121.9644 295.8798
  L 111.7414 293.7627
  A 0.95 0.95 0.0 0 0 110.6184 294.5003
  L 109.4179 300.2973
  A 0.95 0.95 0.0 0 0 110.1556 301.4202
  L 120.3786 303.5373
  A 0.95 0.95 0.0 0 0 121.5016 302.7997
  L 122.7021 297.0027
  Z
  M 126.61 297.80
  L 126.05 303.70
  A 1.21 1.20 -83.6 0 0 127.09 305.01
  L 138.99 306.50
  A 2.17 2.17 0.0 0 0 141.43 304.28
  L 141.34 301.80
  A 3.56 3.55 2.7 0 0 138.23 298.39
  L 127.55 297.05
  A 0.84 0.83 6.3 0 0 126.61 297.80
  Z
  M 181.20 317.99
  L 182.31 308.43
  A 0.22 0.22 0.0 0 0 182.11 308.19
  L 150.05 304.48
  A 2.12 0.92 6.6 0 0 147.84 305.15
  L 146.89 313.31
  A 2.12 0.92 6.6 0 0 148.89 314.47
  L 180.96 318.18
  A 0.22 0.22 0.0 0 0 181.20 317.99
  Z
  M 109.31 304.83
  A 0.95 0.94 7.4 0 0 108.09 305.77
  L 108.33 312.68
  A 1.70 1.69 -83.0 0 0 109.55 314.24
  L 119.89 317.30
  A 0.65 0.65 0.0 0 0 120.72 316.72
  L 121.27 308.89
  A 0.66 0.66 0.0 0 0 120.80 308.22
  L 109.31 304.83
  Z
  M 217.00 306.93
  L 207.60 307.97
  A 1.14 1.14 0.0 0 0 206.60 308.89
  L 205.20 316.40
  A 0.50 0.50 0.0 0 0 205.65 316.99
  Q 209.83 317.34 211.69 315.00
  Q 216.62 308.79 217.40 307.55
  A 0.41 0.41 0.0 0 0 217.00 306.93
  Z
  M 392.21 311.95
  A 0.59 0.59 0.0 0 0 393.28 311.94
  L 395.15 307.85
  A 0.59 0.59 0.0 0 0 394.47 307.03
  L 390.99 307.91
  A 0.59 0.59 0.0 0 0 390.60 308.74
  L 392.21 311.95
  Z
  M 201.09 307.95
  L 187.82 308.39
  A 0.73 0.73 0.0 0 0 187.13 308.98
  L 185.54 317.53
  A 0.72 0.72 0.0 0 0 186.27 318.39
  L 198.22 317.98
  A 1.88 1.87 -82.5 0 0 199.96 316.64
  L 202.14 309.29
  A 1.05 1.05 0.0 0 0 201.09 307.95
  Z
  M 139.64 311.01
  L 126.43 308.94
  A 1.15 1.14 -83.1 0 0 125.12 309.97
  L 124.43 317.10
  A 1.36 1.36 0.0 0 0 125.46 318.55
  Q 131.14 319.96 137.70 319.40
  A 2.68 2.67 -88.1 0 0 140.11 317.14
  L 140.82 312.63
  A 1.42 1.42 0.0 0 0 139.64 311.01
  Z
  M 400.85 316.23
  L 397.53 318.68
  A 1.14 1.13 -19.0 0 0 397.07 319.61
  Q 397.07 320.90 398.40 321.63
  A 0.66 0.66 0.0 0 0 399.27 321.40
  Q 400.84 318.89 401.26 316.48
  A 0.26 0.26 0.0 0 0 400.85 316.23
  Z
  M 204.28 323.54
  Q 174.95 325.04 145.89 319.18
  A 0.41 0.41 0.0 0 0 145.40 319.51
  C 144.07 326.93 134.48 325.99 128.87 325.48
  A 0.97 0.96 -76.3 0 0 127.88 326.09
  Q 124.05 335.87 130.98 343.00
  Q 140.37 352.66 150.93 363.07
  Q 151.64 363.76 153.00 365.64
  A 0.68 0.67 49.9 0 0 154.02 365.73
  C 164.16 355.78 176.87 352.02 190.55 356.93
  A 0.30 0.30 0.0 0 0 190.91 356.51
  C 183.95 343.18 171.78 331.31 156.23 329.77
  C 154.82 329.63 154.06 328.81 153.86 327.69
  A 2.00 1.87 77.9 0 1 155.23 325.41
  C 161.65 323.82 170.62 327.44 176.29 331.22
  Q 183.82 336.24 189.88 344.30
  A 0.70 0.70 0.0 0 0 190.86 344.44
  L 196.03 340.63
  A 0.86 0.85 -17.6 0 0 196.38 339.96
  C 196.57 334.69 201.23 328.61 204.57 324.07
  A 0.34 0.33 16.9 0 0 204.28 323.54
  Z
  M 112.58 322.45
  C 111.00 335.61 113.36 348.14 122.85 357.90
  Q 127.75 362.94 140.17 373.31
  C 141.02 374.03 142.14 375.23 143.02 376.12
  A 0.91 0.90 58.0 0 0 143.95 376.34
  Q 146.21 375.58 147.18 375.68
  A 1.67 1.67 0.0 0 1 148.51 378.08
  C 144.63 385.92 142.38 389.59 141.04 395.97
  A 3.34 3.33 -60.0 0 0 141.81 398.86
  L 144.11 401.45
  A 1.09 1.08 -59.1 0 0 145.97 400.98
  Q 147.53 394.48 150.97 385.24
  Q 152.50 381.15 152.81 377.24
  C 153.34 370.54 150.09 367.70 144.99 362.70
  Q 134.38 352.28 130.61 348.35
  C 124.04 341.49 120.09 335.21 123.99 325.34
  A 0.82 0.82 0.0 0 0 123.38 324.24
  L 112.81 322.27
  A 0.20 0.19 -82.1 0 0 112.58 322.45
  Z
  M 405.7875 324.0259
  A 2.27 0.61 -53.9 0 0 403.9571 325.5006
  A 2.27 0.61 -53.9 0 0 403.1125 327.6941
  A 2.27 0.61 -53.9 0 0 404.9429 326.2194
  A 2.27 0.61 -53.9 0 0 405.7875 324.0259
  Z
  M 449.58 346.70
  C 439.69 341.59 429.94 342.77 421.29 349.33
  C 415.28 353.89 409.43 358.76 403.16 361.65
  C 392.65 366.51 379.03 366.03 367.19 364.82
  Q 361.75 364.27 357.15 362.55
  C 348.92 359.48 345.12 352.52 341.44 344.95
  A 0.47 0.47 0.0 0 0 340.60 344.96
  Q 335.71 355.44 327.55 363.17
  A 1.61 1.60 -35.1 0 0 327.22 365.05
  C 330.73 372.13 335.52 377.44 343.79 378.70
  C 356.51 380.63 370.50 379.10 383.49 378.17
  Q 387.96 377.86 392.08 378.41
  A 4.12 4.10 82.2 0 1 395.31 380.87
  C 398.49 388.34 402.86 393.75 410.97 396.09
  A 0.33 0.33 0.0 0 0 411.33 395.59
  C 408.43 391.26 403.68 382.07 405.53 377.29
  A 0.80 0.80 0.0 0 1 406.64 376.87
  C 407.78 377.45 408.52 378.45 409.81 378.45
  C 413.20 378.44 418.17 374.84 421.53 372.53
  C 430.91 366.07 445.38 369.06 455.05 373.54
  A 0.28 0.27 -7.2 0 0 455.38 373.12
  Q 446.05 361.94 431.52 363.28
  Q 424.73 363.91 417.17 365.55
  A 2.05 2.04 67.2 0 1 415.04 364.68
  C 412.49 360.83 418.32 359.46 420.65 358.63
  A 5.09 5.03 9.4 0 0 422.88 357.05
  Q 430.28 347.90 443.03 347.44
  Q 446.40 347.31 449.49 347.12
  A 0.22 0.22 0.0 0 0 449.58 346.70
  Z
  M 195.46 349.78
  Q 198.87 359.38 199.52 364.92
  Q 200.33 371.77 201.01 375.98
  Q 201.37 378.15 200.42 386.09
  A 0.88 0.86 -67.7 0 0 200.74 386.88
  Q 201.60 387.58 203.58 388.79
  Q 212.81 394.44 220.04 405.30
  C 225.48 413.47 228.80 423.06 232.22 432.84
  A 0.60 0.60 0.0 0 0 233.24 433.04
  C 238.99 426.43 243.23 418.99 245.97 410.25
  Q 247.32 405.91 249.30 398.45
  A 2.32 2.30 -62.3 0 0 248.58 396.11
  L 240.07 388.75
  A 0.70 0.69 33.2 0 0 238.99 388.97
  Q 235.16 397.02 228.78 403.00
  A 1.70 1.69 51.0 0 1 226.23 402.73
  L 226.18 402.65
  A 2.50 2.50 0.0 0 1 226.33 399.59
  Q 232.10 392.85 235.41 386.53
  A 0.99 0.98 -58.2 0 0 235.12 385.27
  L 227.10 379.42
  A 0.52 0.51 30.3 0 0 226.33 379.62
  C 224.74 383.10 220.08 393.35 215.92 392.08
  A 1.88 1.72 -61.4 0 1 215.20 389.19
  Q 219.94 383.23 222.63 377.34
  A 1.33 1.31 36.7 0 0 222.41 375.91
  L 216.14 368.85
  A 0.69 0.69 0.0 0 0 214.97 369.09
  C 213.32 373.99 208.91 382.50 203.43 383.32
  A 0.54 0.53 -5.4 0 1 202.82 382.82
  Q 202.69 380.59 203.19 379.94
  Q 208.38 373.16 211.37 366.26
  A 2.34 2.33 36.1 0 0 210.98 363.80
  Q 204.16 356.02 199.55 347.75
  A 0.54 0.53 62.2 0 0 198.85 347.53
  L 195.77 349.02
  A 0.62 0.62 0.0 0 0 195.46 349.78
  Z
  M 188.41 400.35
  A 0.39 0.38 -79.8 0 0 188.07 399.85
  Q 182.01 399.42 175.74 398.22
  C 171.43 397.40 167.93 395.39 167.33 390.99
  Q 166.22 382.80 168.96 374.31
  C 171.46 366.59 179.42 367.17 186.29 368.16
  Q 191.98 368.99 193.90 369.46
  A 0.41 0.41 0.0 0 0 194.40 368.96
  L 193.18 363.87
  A 2.54 2.50 6.9 0 0 191.85 362.20
  Q 178.99 355.77 166.10 362.13
  Q 159.22 365.52 156.08 369.14
  A 0.92 0.92 0.0 0 0 155.88 369.99
  C 158.99 381.50 150.88 393.53 149.12 403.94
  A 1.49 1.46 -70.2 0 0 149.82 405.46
  Q 164.48 414.04 180.51 412.53
  A 3.89 3.88 -75.8 0 0 183.39 410.81
  Q 186.71 405.83 188.41 400.35
  Z
  M 194.65 373.99
  Q 189.00 372.44 181.53 371.97
  C 176.56 371.65 173.50 372.51 172.37 377.63
  C 171.43 381.89 169.88 390.25 172.63 392.36
  Q 174.10 393.49 177.18 394.11
  Q 182.83 395.25 190.02 395.77
  A 1.97 1.95 -75.9 0 0 191.95 394.60
  C 194.53 388.72 194.94 382.23 195.50 375.20
  A 1.15 1.15 0.0 0 0 194.65 373.99
  Z
  M 437.02 388.90
  A 0.34 0.34 0.0 0 0 437.64 388.65
  C 436.67 383.41 433.44 379.24 430.18 374.96
  A 0.88 0.87 -30.2 0 0 429.15 374.69
  L 424.91 376.51
  A 0.29 0.29 0.0 0 0 424.87 377.03
  Q 432.23 381.51 437.02 388.90
  Z
  M 131.02 585.29
  Q 126.68 574.76 116.21 568.49
  Q 111.92 565.92 108.26 564.47
  C 105.74 563.47 100.70 560.14 99.23 558.32
  Q 95.74 553.98 96.90 547.16
  Q 100.55 525.78 109.21 507.45
  Q 113.40 498.59 123.50 498.92
  Q 134.70 499.29 144.76 500.45
  C 169.31 503.29 182.84 505.24 201.73 505.45
  Q 209.89 505.54 215.71 501.71
  Q 224.56 495.89 230.69 487.16
  Q 234.12 482.27 233.79 475.00
  Q 232.43 445.60 221.80 419.97
  C 217.09 408.62 210.05 397.88 199.07 392.16
  A 0.51 0.51 0.0 0 0 198.39 392.37
  L 195.33 397.99
  A 15.75 15.64 -21.6 0 0 194.26 400.44
  Q 191.37 408.90 187.11 415.75
  A 2.24 2.12 -30.2 0 0 186.77 416.91
  Q 186.72 422.33 183.98 426.51
  Q 181.87 429.71 181.55 430.36
  A 1.42 1.41 -46.5 0 0 181.58 431.66
  Q 186.15 440.12 187.07 441.43
  Q 194.83 452.43 201.26 463.71
  A 2.25 2.24 53.0 0 1 200.88 466.43
  L 200.82 466.49
  A 1.51 1.51 0.0 0 1 198.49 466.27
  L 177.92 435.63
  A 0.58 0.58 0.0 0 0 177.18 435.44
  Q 173.01 437.57 171.85 441.66
  C 170.90 445.00 170.20 447.21 172.44 449.80
  Q 174.38 452.04 184.05 462.69
  C 186.19 465.05 187.28 468.20 189.03 471.07
  C 191.10 474.47 194.29 477.03 198.09 480.88
  Q 199.63 482.44 198.83 484.52
  A 1.40 1.40 0.0 0 1 197.10 485.36
  C 194.32 484.46 191.90 481.84 189.70 479.85
  A 0.51 0.51 0.0 0 0 188.86 480.14
  C 188.55 481.85 188.78 483.75 188.38 485.46
  Q 185.90 496.01 175.42 496.51
  C 157.04 497.40 140.91 487.40 128.56 474.30
  A 2.05 2.05 0.0 0 0 125.80 474.10
  C 122.35 476.82 119.94 479.22 116.43 479.41
  Q 114.91 479.50 104.76 479.49
  C 97.71 479.49 95.77 481.03 94.18 487.70
  C 90.27 504.14 86.68 520.95 82.47 536.73
  C 81.59 540.02 80.31 543.04 78.42 545.44
  C 75.81 548.76 73.99 551.13 73.02 555.34
  Q 70.49 566.39 65.34 578.56
  Q 64.78 579.89 64.39 581.73
  A 0.43 0.43 0.0 0 0 65.07 582.17
  Q 75.87 574.36 81.05 562.63
  Q 81.91 560.68 83.79 560.00
  A 1.20 1.20 0.0 0 1 85.33 560.74
  C 86.44 563.90 84.37 568.11 84.05 570.02
  C 83.55 572.95 89.46 578.50 91.61 580.17
  C 94.96 582.79 99.78 583.61 104.18 585.56
  Q 108.60 587.51 112.18 590.96
  A 0.22 0.22 0.0 0 0 112.55 590.74
  C 109.56 581.11 103.44 575.38 95.55 568.32
  A 2.72 2.71 -54.8 0 1 94.98 565.00
  L 95.00 564.97
  A 1.96 1.96 0.0 0 1 97.83 564.31
  Q 106.49 570.35 111.37 577.00
  A 5.38 5.35 -13.6 0 0 114.88 579.13
  Q 123.33 580.41 130.59 585.63
  A 0.29 0.28 -83.2 0 0 131.02 585.29
  Z
  M 137.15 401.31
  A 0.20 0.20 0.0 0 0 136.84 401.36
  C 134.01 406.32 131.36 411.72 130.99 417.44
  A 2.03 2.02 24.0 0 0 131.61 419.05
  C 142.23 429.14 157.32 433.82 171.74 432.57
  A 4.53 4.51 15.4 0 0 175.01 430.72
  Q 179.33 424.81 180.67 417.74
  A 0.44 0.44 0.0 0 0 180.21 417.22
  C 164.17 418.42 148.77 412.40 137.15 401.31
  Z
  M 284.71 419.16
  Q 285.00 435.48 269.87 443.85
  Q 267.48 445.18 266.74 445.26
  A 1.72 1.64 53.2 0 1 265.85 445.11
  Q 263.05 443.79 264.07 441.24
  C 267.25 433.37 270.73 420.60 263.38 413.97
  Q 257.88 409.00 254.66 404.34
  A 0.37 0.37 0.0 0 0 253.99 404.47
  Q 249.95 422.36 238.58 435.78
  A 0.58 0.58 0.0 0 0 238.72 436.65
  C 256.63 447.14 278.05 454.90 294.94 463.12
  Q 296.60 463.93 297.25 464.95
  A 2.06 1.96 -32.7 0 1 296.58 467.69
  Q 295.66 468.29 294.11 467.86
  C 290.95 467.00 289.64 464.88 286.18 467.18
  C 277.83 472.76 271.85 477.01 268.13 484.64
  C 262.52 496.12 259.74 502.90 251.98 509.73
  Q 246.94 514.16 240.68 519.17
  C 235.85 523.04 232.20 528.72 239.13 532.94
  Q 249.78 539.43 257.99 545.53
  C 263.83 549.88 267.40 555.28 270.79 560.56
  C 272.18 562.72 274.83 565.50 276.57 566.49
  Q 282.86 570.06 293.87 575.39
  Q 300.56 578.64 305.24 583.91
  A 0.31 0.31 0.0 0 0 305.78 583.70
  Q 305.55 575.37 293.49 564.77
  A 1.81 1.80 38.7 0 1 293.22 562.35
  L 293.50 561.97
  A 2.43 2.42 -54.5 0 1 296.84 561.41
  Q 302.74 565.52 306.88 570.48
  A 6.93 6.90 -8.8 0 0 309.60 572.46
  Q 318.09 575.86 325.45 580.91
  A 0.33 0.33 0.0 0 0 325.95 580.52
  C 322.30 571.25 313.93 566.46 305.03 561.59
  A 2.58 2.58 0.0 0 1 303.69 559.15
  L 303.72 558.62
  A 1.79 1.79 0.0 0 1 306.08 557.05
  Q 314.88 560.02 320.56 563.94
  Q 327.64 568.83 336.10 573.16
  A 0.28 0.28 0.0 0 0 336.46 572.76
  C 331.37 564.58 324.19 559.79 315.02 557.21
  C 308.67 555.42 304.10 554.29 299.47 552.08
  Q 294.13 549.52 292.47 548.29
  Q 278.56 538.03 265.60 529.20
  C 260.34 525.61 263.87 521.70 266.99 518.73
  Q 273.74 512.33 281.55 506.55
  Q 297.07 495.08 312.41 483.43
  Q 318.03 479.16 322.69 473.49
  C 326.64 468.69 328.30 463.79 326.40 458.06
  Q 325.17 454.33 323.80 452.42
  Q 316.10 441.69 305.25 433.44
  A 0.71 0.70 -56.4 0 0 304.22 433.65
  C 303.20 435.44 300.24 439.59 297.70 437.41
  Q 296.85 436.68 296.80 434.37
  Q 296.75 432.18 296.21 427.63
  A 2.47 2.46 -75.6 0 0 295.21 425.93
  L 285.43 418.79
  A 0.45 0.45 0.0 0 0 284.71 419.16
  Z
  M 293.93 416.73
  Q 290.57 409.95 283.18 407.21
  A 0.47 0.46 -0.2 0 0 282.58 407.81
  Q 282.98 408.79 282.94 409.32
  A 1.69 1.67 19.1 0 0 283.70 410.86
  L 293.42 417.19
  A 0.36 0.35 -86.8 0 0 293.93 416.73
  Z
  M 166.23 437.88
  Q 145.92 437.15 130.53 424.77
  A 0.36 0.36 0.0 0 0 129.98 424.91
  L 121.98 443.22
  A 3.17 3.16 40.3 0 0 122.23 446.21
  Q 125.65 451.45 129.55 455.41
  Q 143.12 469.18 157.73 477.19
  C 163.33 480.27 183.98 487.48 183.62 474.96
  C 183.49 470.28 180.03 462.50 174.25 462.88
  Q 166.58 463.39 158.66 466.49
  A 1.93 1.92 -31.5 0 1 156.52 465.98
  L 156.23 465.65
  A 1.34 1.33 56.9 0 1 156.67 463.54
  Q 164.02 460.21 171.74 459.62
  A 0.98 0.98 0.0 0 0 172.40 457.99
  L 171.17 456.61
  A 4.17 4.14 -20.3 0 0 168.10 455.21
  Q 162.08 455.13 155.08 457.99
  A 1.49 1.49 0.0 0 1 153.24 457.38
  L 153.02 457.03
  A 1.61 1.60 -27.3 0 1 153.76 454.73
  Q 159.87 452.12 166.06 451.64
  A 0.76 0.76 0.0 0 0 166.65 450.49
  L 164.66 447.22
  A 1.82 1.80 -14.1 0 0 163.18 446.35
  Q 157.78 446.16 152.97 447.72
  A 1.56 1.48 -17.0 0 1 151.00 446.74
  Q 150.75 445.88 151.62 445.10
  C 154.39 442.61 160.90 442.51 164.07 442.71
  A 1.07 1.07 0.0 0 0 165.12 442.07
  L 166.66 438.56
  A 0.49 0.49 0.0 0 0 166.23 437.88
  Z
  M 126.28 466.65
  L 126.53 464.62
  A 0.41 0.41 0.0 0 1 127.22 464.38
  Q 131.33 468.33 137.13 474.33
  C 146.75 484.30 160.36 490.86 174.74 490.86
  Q 181.36 490.85 183.19 485.03
  A 0.51 0.50 85.9 0 0 182.49 484.42
  C 174.29 488.39 161.82 484.20 154.22 479.76
  Q 139.74 471.30 124.94 456.07
  Q 121.55 452.59 119.59 449.12
  A 0.42 0.42 0.0 0 0 118.85 449.12
  C 116.74 452.97 115.95 456.98 119.28 460.51
  Q 121.11 462.45 125.70 466.85
  A 0.34 0.34 0.0 0 0 126.28 466.65
  Z"
/>
<path d="
  M 331.44 259.80
  Q 322.73 267.70 311.05 270.92
  Q 309.01 271.49 307.34 271.10
  A 2.37 2.36 14.7 0 1 305.60 268.14
  Q 305.89 267.15 307.27 266.81
  Q 319.47 263.75 328.00 256.01
  Q 336.53 248.26 340.74 236.42
  Q 341.22 235.08 342.23 234.88
  A 2.37 2.36 80.8 0 1 345.01 236.90
  Q 345.24 238.60 344.48 240.58
  Q 340.15 251.90 331.44 259.80
  Z"
/>
<rect x="-4.21" y="-4.86" transform="translate(190.60,242.68) rotate(6.3)" width="8.42" height="9.72" rx="3.78"/>
<rect x="-4.11" y="-4.56" transform="translate(203.06,244.07) rotate(11.5)" width="8.22" height="9.12" rx="3.49"/>
<path d="
  M 213.46 247.02
  L 213.37 244.28
  A 2.73 2.73 0.0 0 1 216.44 241.48
  L 222.63 242.26
  A 2.73 2.73 0.0 0 1 224.99 245.39
  L 224.57 248.06
  A 2.73 2.73 0.0 0 1 221.53 250.35
  L 215.85 249.64
  A 2.73 2.73 0.0 0 1 213.46 247.02
  Z"
/>
<rect x="-1.85" y="-10.48" transform="translate(202.26,265.02) rotate(25.4)" width="3.70" height="20.96" rx="1.69"/>
<path d="
  M 188.51 262.93
  A 0.33 0.32 -33.8 0 0 188.40 263.46
  L 193.27 268.31
  A 1.84 1.84 0.0 0 1 193.03 271.12
  L 192.94 271.19
  A 2.33 2.33 0.0 0 1 189.77 270.75
  Q 185.98 266.07 183.80 264.43
  C 181.79 262.92 182.33 261.02 184.45 260.17
  Q 189.98 257.95 193.39 256.77
  A 1.77 1.77 0.0 0 1 195.65 257.92
  L 195.75 258.21
  A 1.60 1.59 68.6 0 1 194.88 260.20
  L 188.51 262.93
  Z"
/>
<path d="
  M 216.36 265.76
  A 0.43 0.42 46.4 0 0 216.37 265.04
  L 211.60 261.84
  A 1.66 1.66 0.0 0 1 211.36 259.28
  L 211.52 259.12
  A 2.17 2.17 0.0 0 1 214.48 258.91
  Q 219.54 263.03 221.18 264.52
  C 223.19 266.35 222.00 268.02 219.62 268.86
  Q 216.62 269.92 213.70 271.91
  A 2.32 2.32 0.0 0 1 210.69 271.57
  L 210.51 271.39
  A 1.46 1.46 0.0 0 1 210.80 269.13
  L 216.36 265.76
  Z"
/>
<path d="
  M 325.09 281.39
  Q 318.26 285.44 311.49 287.04
  A 2.13 2.02 -16.4 0 1 309.03 285.79
  Q 308.10 283.19 311.14 282.17
  Q 317.85 279.92 322.56 277.13
  Q 327.26 274.34 332.45 269.52
  Q 334.81 267.34 336.64 269.41
  A 2.13 2.02 -45.0 0 1 336.57 272.17
  Q 331.92 277.34 325.09 281.39
  Z"
/>
<path d="
  M 327.66 301.02
  A 0.83 0.83 0.0 0 1 326.49 301.11
  L 325.79 300.51
  A 6.71 2.83 -49.3 0 1 328.02 293.58
  L 332.43 288.45
  A 6.71 2.83 -49.3 0 1 338.95 285.21
  L 339.65 285.81
  A 0.83 0.83 0.0 0 1 339.73 286.98
  L 327.66 301.02
  Z"
/>
<path d="
  M 309.26 303.67
  C 312.03 306.05 315.48 307.70 318.87 308.72
  C 320.44 309.19 321.73 310.21 320.87 311.81
  A 2.72 2.67 -69.6 0 1 317.93 313.19
  Q 311.13 311.71 306.08 307.37
  Q 301.04 303.02 298.57 296.52
  A 2.72 2.67 -28.9 0 1 299.50 293.40
  C 300.95 292.31 302.15 293.44 302.85 294.92
  C 304.36 298.12 306.50 301.30 309.26 303.67
  Z"
/>
<path d="
  M 252.43 312.29
  Q 242.79 319.25 236.18 327.05
  A 1.47 1.37 46.9 0 1 233.98 326.90
  C 231.13 323.18 247.06 311.08 250.01 308.95
  C 252.97 306.81 269.46 295.48 272.10 299.35
  A 1.47 1.37 61.3 0 1 271.55 301.49
  Q 262.07 305.32 252.43 312.29
  Z"
/>
<path d="
  M 303.00 327.15
  Q 297.06 324.13 293.11 318.40
  A 2.72 2.68 -42.7 0 1 293.27 315.15
  C 294.42 313.74 295.86 314.55 296.89 315.83
  C 299.12 318.58 301.96 321.15 305.21 322.80
  C 308.46 324.45 312.21 325.24 315.74 325.42
  C 317.38 325.50 318.88 326.18 318.42 327.94
  A 2.72 2.68 -83.4 0 1 315.89 329.98
  Q 308.93 330.17 303.00 327.15
  Z"
/>
<path d="
  M 294.05 335.86
  C 298.93 338.52 304.37 339.12 309.78 339.35
  A 1.99 1.85 -3.1 0 1 311.64 340.90
  Q 312.07 343.50 309.03 343.74
  Q 299.71 344.47 291.73 340.12
  Q 283.75 335.76 279.32 327.54
  Q 277.87 324.85 280.29 323.80
  A 1.99 1.85 60.3 0 1 282.60 324.52
  C 285.72 328.95 289.18 333.20 294.05 335.86
  Z"
/>
<path d="
  M 247.76 376.23
  L 247.74 376.37
  A 1.24 1.24 0.0 0 1 245.78 377.19
  Q 242.19 374.54 230.59 364.92
  Q 224.61 359.96 220.22 354.57
  A 2.81 2.81 0.0 0 1 219.79 351.76
  L 219.85 351.61
  A 1.13 1.13 0.0 0 1 221.69 351.23
  C 226.17 355.68 228.83 358.45 232.98 361.78
  Q 238.68 366.37 246.49 372.91
  A 3.66 3.65 24.2 0 1 247.76 376.23
  Z"
/>
<path d="
  M 216.46 467.94
  Q 215.95 467.36 215.85 466.57
  Q 212.68 441.63 199.42 418.29
  A 1.91 1.91 0.0 0 1 200.36 415.57
  L 200.60 415.47
  A 2.41 2.40 64.9 0 1 203.62 416.57
  Q 216.64 441.03 218.83 462.47
  Q 219.13 465.35 218.61 467.42
  A 1.25 1.25 0.0 0 1 216.46 467.94
  Z"
/>
</g>
<g fill="var(--art-astronaut-primary)">
<path d="
  M 101.98 84.52
  Q 168.50 55.69 233.87 24.75
  Q 235.72 23.87 234.92 22.08
  A 1.54 1.54 0.0 0 0 232.89 21.31
  L 100.57 81.10
  L 97.61 73.53
  A 0.71 0.71 0.0 0 1 97.97 72.62
  Q 163.95 40.79 230.11 8.12
  Q 232.07 7.15 234.01 7.38
  Q 246.87 8.90 259.16 10.70
  A 0.28 0.27 -69.6 0 1 259.35 11.12
  L 245.24 32.53
  A 1.10 1.07 -84.6 0 1 244.76 32.94
  L 105.89 92.41
  A 1.05 1.05 0.0 0 1 104.48 91.79
  L 101.98 84.52
  Z"
/>
<path d="
  M 248.92 193.01
  Q 241.94 201.24 232.67 202.43
  Q 218.54 204.23 202.59 201.13
  Q 174.99 195.77 148.97 182.28
  Q 146.99 181.25 145.02 178.21
  Q 140.63 171.48 137.66 164.73
  A 0.32 0.32 0.0 0 1 138.09 164.31
  C 140.84 165.60 141.75 166.10 144.43 166.55
  C 165.81 170.16 174.88 140.45 159.52 128.54
  C 153.70 124.03 145.65 123.47 139.22 127.02
  A 0.32 0.32 0.0 0 1 138.76 126.63
  C 150.93 90.91 187.84 73.89 223.52 84.48
  Q 247.48 91.59 260.79 113.04
  A 0.21 0.21 0.0 0 1 260.47 113.31
  C 252.74 106.49 244.11 103.91 233.93 102.33
  C 215.01 99.39 194.33 105.12 183.16 120.55
  C 173.04 134.52 170.94 152.95 178.57 168.89
  Q 182.77 177.65 191.24 184.79
  Q 209.31 200.01 234.99 197.93
  Q 242.57 197.31 248.76 192.84
  A 0.12 0.12 0.0 0 1 248.92 193.01
  Z"
/>
<path d="
  M 73.09 92.76
  A 0.68 0.67 65.5 0 1 72.36 92.48
  L 67.16 84.73
  A 1.25 1.25 0.0 0 1 67.90 82.82
  L 70.30 82.24
  A 5.17 5.15 -34.1 0 1 74.44 83.03
  Q 78.11 85.61 79.32 90.42
  A 0.82 0.82 0.0 0 1 78.72 91.42
  L 73.09 92.76
  Z"
/>
<path d="
  M 63.25 108.37
  A 0.43 0.43 0.0 0 1 62.41 108.56
  C 60.60 103.02 59.14 96.54 54.72 93.06
  A 1.85 1.85 0.0 0 1 54.91 90.02
  L 57.07 88.71
  A 3.88 3.86 49.1 0 1 61.55 89.04
  Q 64.91 91.82 66.28 95.40
  A 0.89 0.88 53.7 0 1 66.15 96.28
  C 64.28 98.69 62.25 100.43 62.65 103.52
  Q 62.97 106.03 63.25 108.37
  Z"
/>
<path d="
  M 39.47 101.19
  C 40.83 97.03 45.18 93.32 49.26 96.89
  Q 55.82 102.64 55.53 111.15
  A 3.00 2.91 -9.1 0 1 53.54 113.81
  C 48.69 115.52 46.95 112.24 45.75 108.45
  C 44.67 105.04 42.97 103.80 39.99 102.39
  A 0.99 0.99 0.0 0 1 39.47 101.19
  Z"
/>
<path d="
  M 46.11 120.11
  Q 46.23 120.10 51.18 120.62
  Q 54.74 120.99 58.43 118.52
  C 59.42 117.86 60.07 116.33 60.83 115.47
  A 0.75 0.71 11.4 0 1 61.18 115.25
  L 67.56 113.61
  A 0.53 0.53 0.0 0 1 68.16 114.37
  C 66.60 117.47 63.56 122.10 66.75 124.04
  A 2.20 2.05 -58.2 0 0 69.62 123.26
  Q 72.10 119.32 74.13 116.28
  A 1.53 1.53 0.0 0 1 75.52 115.61
  Q 78.71 115.84 81.38 114.99
  C 83.53 114.31 86.72 111.66 84.53 109.30
  Q 83.44 108.12 82.50 108.28
  C 78.47 108.99 70.11 110.40 69.11 104.42
  C 68.41 100.27 78.03 98.51 80.80 98.04
  C 91.90 96.12 90.61 108.19 89.14 115.17
  C 87.00 125.33 78.36 129.59 68.83 131.83
  C 63.68 133.05 59.28 132.69 54.91 129.69
  Q 49.73 126.14 45.76 120.79
  A 0.43 0.43 0.0 0 1 46.11 120.11
  Z"
/>
<path d="
  M 56.28 137.65
  Q 61.02 139.59 65.55 138.94
  C 73.74 137.78 81.77 135.18 88.18 130.09
  A 0.26 0.26 0.0 0 1 88.58 130.19
  L 93.80 142.39
  A 1.30 1.29 -31.2 0 1 93.42 143.91
  Q 81.49 153.50 66.01 153.91
  Q 61.99 154.01 59.04 153.30
  A 2.39 2.37 3.9 0 1 57.24 151.25
  L 55.78 138.03
  A 0.37 0.36 -81.9 0 1 56.28 137.65
  Z"
/>
<path d="
  M 61.57 160.41
  Q 80.45 161.40 95.01 150.71
  A 0.48 0.48 0.0 0 1 95.73 150.91
  L 103.86 169.91
  A 1.52 1.48 44.2 0 1 103.89 171.05
  C 98.94 184.58 86.74 192.95 72.29 191.32
  A 3.19 3.17 -8.1 0 1 69.71 189.39
  Q 64.27 176.35 61.06 161.00
  A 0.50 0.49 -4.5 0 1 61.57 160.41
  Z"
/>
<path d="
  M 73.84 195.70
  Q 73.88 195.69 78.00 195.66
  C 90.82 195.55 102.24 186.18 106.83 174.60
  A 0.64 0.64 0.0 0 1 107.94 174.46
  L 109.99 177.24
  A 2.29 2.29 0.0 0 1 110.38 179.12
  Q 105.32 201.31 83.28 205.86
  Q 80.94 206.34 79.55 204.52
  C 77.38 201.67 75.21 199.11 73.57 196.33
  A 0.43 0.43 0.0 0 1 73.84 195.70
  Z"
/>
<path d="
  M 85.98 210.08
  A 0.28 0.27 -27.9 0 1 86.12 209.63
  Q 108.67 204.03 114.16 181.20
  A 0.48 0.48 0.0 0 1 114.85 180.89
  C 123.33 185.33 131.61 188.41 134.33 197.42
  Q 139.09 213.16 135.07 228.10
  Q 133.86 232.58 132.21 235.15
  A 1.71 1.70 -72.0 0 1 130.67 235.94
  Q 126.62 235.70 121.91 233.46
  Q 107.62 226.66 90.03 213.54
  Q 87.27 211.48 85.98 210.08
  Z"
/>
<path d="
  M 234.24 209.37
  C 227.30 218.48 210.14 215.47 200.22 213.55
  Q 178.96 209.43 157.61 199.65
  A 0.76 0.75 -86.5 0 1 157.21 199.19
  L 155.16 192.12
  A 0.08 0.07 -85.0 0 1 155.26 192.03
  C 179.63 203.56 207.08 212.23 233.95 208.85
  A 0.32 0.32 0.0 0 1 234.24 209.37
  Z"
/>
<path d="
  M 203.97 227.77
  A 0.58 0.57 -84.0 0 1 203.34 228.29
  Q 191.19 227.11 185.02 226.43
  Q 176.25 225.47 173.08 226.80
  Q 167.79 229.02 166.77 236.56
  Q 165.48 246.10 162.11 267.86
  Q 161.34 272.85 162.04 274.98
  C 163.58 279.62 167.78 281.67 172.66 282.38
  Q 182.55 283.83 195.10 284.63
  A 0.62 0.62 0.0 0 1 195.68 285.32
  Q 194.70 294.67 191.64 302.71
  A 1.14 1.13 11.6 0 1 190.52 303.44
  Q 172.61 302.43 153.62 299.89
  Q 151.18 299.57 148.41 298.84
  A 1.46 1.44 82.9 0 1 147.51 298.13
  C 144.86 293.09 140.63 292.79 134.52 291.83
  Q 129.64 291.06 126.13 290.49
  A 0.90 0.90 0.0 0 1 125.38 289.52
  L 128.23 259.74
  A 1.54 1.52 88.6 0 1 129.51 258.38
  C 152.48 254.84 161.43 227.60 158.54 207.76
  A 0.45 0.45 0.0 0 1 159.17 207.29
  Q 180.62 217.25 203.92 221.01
  A 0.74 0.72 7.5 0 1 204.54 221.80
  L 203.97 227.77
  Z"
/>
<path d="
  M 196.15 302.35
  Q 198.94 293.71 199.76 285.61
  A 0.64 0.63 2.4 0 1 200.40 285.03
  Q 203.46 285.06 216.94 286.00
  Q 227.33 286.72 229.23 277.00
  Q 230.30 271.55 234.86 247.73
  Q 236.06 241.44 235.76 239.76
  C 234.36 232.06 228.93 230.68 220.74 229.96
  Q 212.29 229.22 209.02 228.84
  A 0.71 0.71 0.0 0 1 208.38 228.08
  L 208.77 222.33
  A 0.64 0.63 -84.8 0 1 209.47 221.74
  C 218.00 222.64 227.52 222.16 235.02 217.82
  A 0.78 0.77 -16.8 0 1 236.18 218.44
  C 237.01 230.89 236.79 245.77 234.44 258.76
  C 231.91 272.70 228.60 286.88 222.29 299.61
  A 2.62 2.61 8.0 0 1 220.44 301.00
  Q 209.07 303.14 196.68 303.08
  A 0.56 0.56 0.0 0 1 196.15 302.35
  Z"
/>
<path d="
  M 252.74 217.63
  Q 260.21 225.52 265.56 235.93
  A 0.33 0.33 0.0 0 1 265.24 236.41
  C 260.36 236.01 254.55 238.44 259.53 244.15
  Q 263.46 248.67 267.24 254.81
  A 0.58 0.58 0.0 0 1 266.82 255.68
  C 257.09 256.89 252.73 259.63 247.51 267.56
  A 0.64 0.64 0.0 0 1 246.49 267.64
  L 243.40 264.16
  A 1.06 1.05 41.9 0 1 243.32 262.85
  Q 257.41 242.84 252.49 217.76
  A 0.15 0.15 0.0 0 1 252.74 217.63
  Z"
/>
<path d="
  M 175.01 272.66
  L 180.70 236.33
  A 4.61 4.61 0.0 0 1 185.69 232.45
  L 226.78 236.39
  A 4.61 4.61 0.0 0 1 230.88 241.82
  L 224.32 276.95
  A 4.61 4.61 0.0 0 1 219.48 280.70
  L 179.25 277.97
  A 4.61 4.61 0.0 0 1 175.01 272.66
  Z
  M 194.9031 242.0685
  A 3.78 3.78 0.0 0 0 191.5607 237.8965
  L 190.7059 237.8022
  A 3.78 3.78 0.0 0 0 186.5339 241.1445
  L 186.2969 243.2915
  A 3.78 3.78 0.0 0 0 189.6393 247.4635
  L 190.4941 247.5578
  A 3.78 3.78 0.0 0 0 194.6661 244.2155
  L 194.9031 242.0685
  Z
  M 207.3008 243.8409
  A 3.49 3.49 0.0 0 0 204.5767 239.7252
  L 203.3616 239.4779
  A 3.49 3.49 0.0 0 0 199.2458 242.2021
  L 198.8192 244.2991
  A 3.49 3.49 0.0 0 0 201.5433 248.4148
  L 202.7584 248.6621
  A 3.49 3.49 0.0 0 0 206.8742 245.9379
  L 207.3008 243.8409
  Z
  M 213.46 247.02
  A 2.73 2.73 0.0 0 0 215.85 249.64
  L 221.53 250.35
  A 2.73 2.73 0.0 0 0 224.57 248.06
  L 224.99 245.39
  A 2.73 2.73 0.0 0 0 222.63 242.26
  L 216.44 241.48
  A 2.73 2.73 0.0 0 0 213.37 244.28
  L 213.46 247.02
  Z
  M 207.7015 257.8732
  A 1.69 1.69 0.0 0 0 206.8998 255.6217
  L 206.6107 255.4844
  A 1.69 1.69 0.0 0 0 204.3592 256.2862
  L 196.8185 272.1668
  A 1.69 1.69 0.0 0 0 197.6202 274.4183
  L 197.9093 274.5556
  A 1.69 1.69 0.0 0 0 200.1608 273.7538
  L 207.7015 257.8732
  Z
  M 188.51 262.93
  L 194.88 260.20
  A 1.60 1.59 68.6 0 0 195.75 258.21
  L 195.65 257.92
  A 1.77 1.77 0.0 0 0 193.39 256.77
  Q 189.98 257.95 184.45 260.17
  C 182.33 261.02 181.79 262.92 183.80 264.43
  Q 185.98 266.07 189.77 270.75
  A 2.33 2.33 0.0 0 0 192.94 271.19
  L 193.03 271.12
  A 1.84 1.84 0.0 0 0 193.27 268.31
  L 188.40 263.46
  A 0.33 0.32 -33.8 0 1 188.51 262.93
  Z
  M 216.36 265.76
  L 210.80 269.13
  A 1.46 1.46 0.0 0 0 210.51 271.39
  L 210.69 271.57
  A 2.32 2.32 0.0 0 0 213.70 271.91
  Q 216.62 269.92 219.62 268.86
  C 222.00 268.02 223.19 266.35 221.18 264.52
  Q 219.54 263.03 214.48 258.91
  A 2.17 2.17 0.0 0 0 211.52 259.12
  L 211.36 259.28
  A 1.66 1.66 0.0 0 0 211.60 261.84
  L 216.37 265.04
  A 0.43 0.42 46.4 0 1 216.36 265.76
  Z"
/>
<path d="
  M 114.41 251.26
  A 0.33 0.32 -57.5 0 1 115.02 251.12
  Q 117.55 255.76 123.66 257.66
  A 0.95 0.95 0.0 0 1 124.32 258.65
  L 121.43 288.80
  A 0.42 0.41 7.1 0 1 120.95 289.17
  L 112.77 287.89
  A 0.94 0.93 -83.9 0 1 111.99 286.91
  L 114.41 251.26
  Z"
/>
<ellipse cx="0.00" cy="0.00" transform="translate(262.52,263.35) rotate(-23.0)" rx="2.95" ry="0.68"/>
<path d="
  M 252.42 273.03
  A 0.11 0.11 0.0 0 1 252.27 272.99
  L 252.26 272.97
  A 2.51 1.10 -31.4 0 1 253.82 270.72
  L 254.15 270.52
  A 2.51 1.10 -31.4 0 1 256.86 270.15
  L 256.88 270.18
  A 0.11 0.11 0.0 0 1 256.84 270.33
  L 252.42 273.03
  Z"
/>
<path d="
  M 204.28 323.54
  A 0.34 0.33 16.9 0 1 204.57 324.07
  C 201.23 328.61 196.57 334.69 196.38 339.96
  A 0.86 0.85 -17.6 0 1 196.03 340.63
  L 190.86 344.44
  A 0.70 0.70 0.0 0 1 189.88 344.30
  Q 183.82 336.24 176.29 331.22
  C 170.62 327.44 161.65 323.82 155.23 325.41
  A 2.00 1.87 77.9 0 0 153.86 327.69
  C 154.06 328.81 154.82 329.63 156.23 329.77
  C 171.78 331.31 183.95 343.18 190.91 356.51
  A 0.30 0.30 0.0 0 1 190.55 356.93
  C 176.87 352.02 164.16 355.78 154.02 365.73
  A 0.68 0.67 49.9 0 1 153.00 365.64
  Q 151.64 363.76 150.93 363.07
  Q 140.37 352.66 130.98 343.00
  Q 124.05 335.87 127.88 326.09
  A 0.97 0.96 -76.3 0 1 128.87 325.48
  C 134.48 325.99 144.07 326.93 145.40 319.51
  A 0.41 0.41 0.0 0 1 145.89 319.18
  Q 174.95 325.04 204.28 323.54
  Z"
/>
<path d="
  M 112.58 322.45
  A 0.20 0.19 -82.1 0 1 112.81 322.27
  L 123.38 324.24
  A 0.82 0.82 0.0 0 1 123.99 325.34
  C 120.09 335.21 124.04 341.49 130.61 348.35
  Q 134.38 352.28 144.99 362.70
  C 150.09 367.70 153.34 370.54 152.81 377.24
  Q 152.50 381.15 150.97 385.24
  Q 147.53 394.48 145.97 400.98
  A 1.09 1.08 -59.1 0 1 144.11 401.45
  L 141.81 398.86
  A 3.34 3.33 -60.0 0 1 141.04 395.97
  C 142.38 389.59 144.63 385.92 148.51 378.08
  A 1.67 1.67 0.0 0 0 147.18 375.68
  Q 146.21 375.58 143.95 376.34
  A 0.91 0.90 58.0 0 1 143.02 376.12
  C 142.14 375.23 141.02 374.03 140.17 373.31
  Q 127.75 362.94 122.85 357.90
  C 113.36 348.14 111.00 335.61 112.58 322.45
  Z"
/>
<path d="
  M 188.41 400.35
  Q 186.71 405.83 183.39 410.81
  A 3.89 3.88 -75.8 0 1 180.51 412.53
  Q 164.48 414.04 149.82 405.46
  A 1.49 1.46 -70.2 0 1 149.12 403.94
  C 150.88 393.53 158.99 381.50 155.88 369.99
  A 0.92 0.92 0.0 0 1 156.08 369.14
  Q 159.22 365.52 166.10 362.13
  Q 178.99 355.77 191.85 362.20
  A 2.54 2.50 6.9 0 1 193.18 363.87
  L 194.40 368.96
  A 0.41 0.41 0.0 0 1 193.90 369.46
  Q 191.98 368.99 186.29 368.16
  C 179.42 367.17 171.46 366.59 168.96 374.31
  Q 166.22 382.80 167.33 390.99
  C 167.93 395.39 171.43 397.40 175.74 398.22
  Q 182.01 399.42 188.07 399.85
  A 0.39 0.38 -79.8 0 1 188.41 400.35
  Z"
/>
<path d="
  M 194.65 373.99
  A 1.15 1.15 0.0 0 1 195.50 375.20
  C 194.94 382.23 194.53 388.72 191.95 394.60
  A 1.97 1.95 -75.9 0 1 190.02 395.77
  Q 182.83 395.25 177.18 394.11
  Q 174.10 393.49 172.63 392.36
  C 169.88 390.25 171.43 381.89 172.37 377.63
  C 173.50 372.51 176.56 371.65 181.53 371.97
  Q 189.00 372.44 194.65 373.99
  Z"
/>
<path d="
  M 137.15 401.31
  C 148.77 412.40 164.17 418.42 180.21 417.22
  A 0.44 0.44 0.0 0 1 180.67 417.74
  Q 179.33 424.81 175.01 430.72
  A 4.53 4.51 15.4 0 1 171.74 432.57
  C 157.32 433.82 142.23 429.14 131.61 419.05
  A 2.03 2.02 24.0 0 1 130.99 417.44
  C 131.36 411.72 134.01 406.32 136.84 401.36
  A 0.20 0.20 0.0 0 1 137.15 401.31
  Z"
/>
</g>
<g fill="var(--art-astronaut-secondary)">
<path d="
  M 101.98 84.52
  Q 100.51 82.58 100.57 81.10
  L 232.89 21.31
  A 1.54 1.54 0.0 0 1 234.92 22.08
  Q 235.72 23.87 233.87 24.75
  Q 168.50 55.69 101.98 84.52
  Z"
/>
<rect x="-2.85" y="-22.85" transform="translate(92.61,86.53) rotate(-22.1)" width="5.70" height="45.70" rx="1.11"/>
<rect x="-6.09" y="-6.15" transform="translate(32.48,115.16) rotate(-8.0)" width="12.18" height="12.30" rx="5.55"/>
<path d="
  M 148.8574 130.8037
  A 15.18 12.75 -86.8 0 1 160.7401 146.6717
  A 15.18 12.75 -86.8 0 1 147.1626 161.1163
  A 15.18 12.75 -86.8 0 1 135.2799 145.2483
  A 15.18 12.75 -86.8 0 1 148.8574 130.8037
  Z"
/>
<path d="
  M 138.20 181.06
  A 0.39 0.38 -14.0 0 1 137.88 181.59
  L 131.25 182.33
  A 1.25 1.23 -31.9 0 1 130.49 182.16
  L 123.69 178.16
  A 2.30 0.86 33.4 0 0 123.41 178.01
  C 118.24 175.73 115.19 174.42 113.23 170.18
  A 1.19 1.19 0.0 0 1 114.14 168.50
  Q 123.86 167.12 131.66 168.31
  A 2.09 2.08 82.5 0 1 133.27 169.55
  L 138.20 181.06
  Z"
/>
<path d="
  M 137.05 187.57
  C 142.68 186.43 147.88 190.49 149.69 195.45
  Q 150.34 197.22 151.54 203.13
  C 154.33 216.86 152.67 231.72 143.82 243.04
  C 139.71 248.30 133.34 252.88 126.76 251.87
  Q 122.16 251.16 119.75 246.21
  C 118.69 244.03 117.99 242.66 118.78 240.58
  A 0.86 0.86 0.0 0 1 120.06 240.17
  C 122.79 242.01 125.53 244.26 128.46 243.73
  C 136.00 242.37 139.45 236.42 141.26 229.53
  C 144.82 215.96 143.82 200.42 136.85 188.01
  A 0.30 0.30 0.0 0 1 137.05 187.57
  Z"
/>
<path d="
  M 241.12 255.69
  A 0.22 0.22 0.0 0 1 240.71 255.54
  Q 242.68 239.40 242.00 222.56
  C 241.82 218.20 240.72 214.05 240.39 210.27
  A 1.10 1.10 0.0 0 1 242.26 209.39
  C 248.41 215.37 248.42 225.68 247.99 233.62
  Q 247.33 245.74 241.12 255.69
  Z"
/>
<path d="
  M 107.74 258.26
  L 92.01 255.80
  A 0.30 0.30 0.0 0 1 91.76 255.46
  L 95.45 226.02
  A 0.30 0.30 0.0 0 1 95.91 225.81
  L 110.11 235.15
  A 0.30 0.30 0.0 0 1 110.24 235.43
  L 108.08 257.99
  A 0.30 0.30 0.0 0 1 107.74 258.26
  Z"
/>
<path d="
  M 173.23 253.62
  Q 170.73 269.69 170.38 272.07
  A 7.24 7.12 45.3 0 0 170.39 274.25
  L 170.68 276.08
  A 0.46 0.46 0.0 0 1 170.09 276.59
  Q 165.22 275.00 166.19 269.76
  Q 166.56 267.75 168.86 252.95
  Q 171.16 238.14 171.41 236.12
  Q 172.08 230.83 177.20 230.79
  A 0.46 0.46 0.0 0 1 177.61 231.45
  L 176.78 233.11
  A 7.24 7.12 -27.6 0 0 176.11 235.18
  Q 175.72 237.56 173.23 253.62
  Z"
/>

<path d="
  M 107.98 263.78
  L 107.12 272.76
  A 0.74 0.74 0.0 0 1 106.29 273.42
  L 90.73 271.47
  A 0.74 0.74 0.0 0 1 90.09 270.66
  L 91.00 261.21
  A 0.74 0.74 0.0 0 1 91.85 260.55
  L 107.36 262.98
  A 0.74 0.74 0.0 0 1 107.98 263.78
  Z"
/>
<path d="
  M 90.24 276.72
  A 0.23 0.22 -84.0 0 1 90.49 276.51
  L 105.96 278.46
  A 0.59 0.59 0.0 0 1 106.48 279.10
  L 105.56 289.91
  A 0.49 0.41 -39.7 0 1 105.53 290.07
  L 102.54 300.42
  A 0.71 0.71 0.0 0 1 101.42 300.78
  Q 89.53 291.63 90.24 276.72
  Z"
/>
<rect x="-6.17" y="-3.91" transform="translate(116.06,298.65) rotate(11.7)" width="12.34" height="7.82" rx="0.95"/>
<path d="
  M 127.55 297.05
  L 138.23 298.39
  A 3.56 3.55 2.7 0 1 141.34 301.80
  L 141.43 304.28
  A 2.17 2.17 0.0 0 1 138.99 306.50
  L 127.09 305.01
  A 1.21 1.20 -83.6 0 1 126.05 303.70
  L 126.61 297.80
  A 0.84 0.83 6.3 0 1 127.55 297.05
  Z"
/>
<path d="
  M 181.20 317.99
  A 0.22 0.22 0.0 0 1 180.96 318.18
  L 148.89 314.47
  A 2.12 0.92 6.6 0 1 146.89 313.31
  L 147.84 305.15
  A 2.12 0.92 6.6 0 1 150.05 304.48
  L 182.11 308.19
  A 0.22 0.22 0.0 0 1 182.31 308.43
  L 181.20 317.99
  Z"
/>
<path d="
  M 109.31 304.83
  L 120.80 308.22
  A 0.66 0.66 0.0 0 1 121.27 308.89
  L 120.72 316.72
  A 0.65 0.65 0.0 0 1 119.89 317.30
  L 109.55 314.24
  A 1.70 1.69 -83.0 0 1 108.33 312.68
  L 108.09 305.77
  A 0.95 0.94 7.4 0 1 109.31 304.83
  Z"
/>
<path d="
  M 217.00 306.93
  A 0.41 0.41 0.0 0 1 217.40 307.55
  Q 216.62 308.79 211.69 315.00
  Q 209.83 317.34 205.65 316.99
  A 0.50 0.50 0.0 0 1 205.20 316.40
  L 206.60 308.89
  A 1.14 1.14 0.0 0 1 207.60 307.97
  L 217.00 306.93
  Z"
/>
<path d="
  M 201.09 307.95
  A 1.05 1.05 0.0 0 1 202.14 309.29
  L 199.96 316.64
  A 1.88 1.87 -82.5 0 1 198.22 317.98
  L 186.27 318.39
  A 0.72 0.72 0.0 0 1 185.54 317.53
  L 187.13 308.98
  A 0.73 0.73 0.0 0 1 187.82 308.39
  L 201.09 307.95
  Z"
/>
<path d="
  M 139.64 311.01
  A 1.42 1.42 0.0 0 1 140.82 312.63
  L 140.11 317.14
  A 2.68 2.67 -88.1 0 1 137.70 319.40
  Q 131.14 319.96 125.46 318.55
  A 1.36 1.36 0.0 0 1 124.43 317.10
  L 125.12 309.97
  A 1.15 1.14 -83.1 0 1 126.43 308.94
  L 139.64 311.01
  Z"
/>
<path d="
  M 437.02 388.90
  Q 432.23 381.51 424.87 377.03
  A 0.29 0.29 0.0 0 1 424.91 376.51
  L 429.15 374.69
  A 0.88 0.87 -30.2 0 1 430.18 374.96
  C 433.44 379.24 436.67 383.41 437.64 388.65
  A 0.34 0.34 0.0 0 1 437.02 388.90
  Z"
/>
<path d="
  M 166.23 437.88
  A 0.49 0.49 0.0 0 1 166.66 438.56
  L 165.12 442.07
  A 1.07 1.07 0.0 0 1 164.07 442.71
  C 160.90 442.51 154.39 442.61 151.62 445.10
  Q 150.75 445.88 151.00 446.74
  A 1.56 1.48 -17.0 0 0 152.97 447.72
  Q 157.78 446.16 163.18 446.35
  A 1.82 1.80 -14.1 0 1 164.66 447.22
  L 166.65 450.49
  A 0.76 0.76 0.0 0 1 166.06 451.64
  Q 159.87 452.12 153.76 454.73
  A 1.61 1.60 -27.3 0 0 153.02 457.03
  L 153.24 457.38
  A 1.49 1.49 0.0 0 0 155.08 457.99
  Q 162.08 455.13 168.10 455.21
  A 4.17 4.14 -20.3 0 1 171.17 456.61
  L 172.40 457.99
  A 0.98 0.98 0.0 0 1 171.74 459.62
  Q 164.02 460.21 156.67 463.54
  A 1.34 1.33 56.9 0 0 156.23 465.65
  L 156.52 465.98
  A 1.93 1.92 -31.5 0 0 158.66 466.49
  Q 166.58 463.39 174.25 462.88
  C 180.03 462.50 183.49 470.28 183.62 474.96
  C 183.98 487.48 163.33 480.27 157.73 477.19
  Q 143.12 469.18 129.55 455.41
  Q 125.65 451.45 122.23 446.21
  A 3.17 3.16 40.3 0 1 121.98 443.22
  L 129.98 424.91
  A 0.36 0.36 0.0 0 1 130.53 424.77
  Q 145.92 437.15 166.23 437.88
  Z"
/>
<path d="
  M 126.28 466.65
  A 0.34 0.34 0.0 0 1 125.70 466.85
  Q 121.11 462.45 119.28 460.51
  C 115.95 456.98 116.74 452.97 118.85 449.12
  A 0.42 0.42 0.0 0 1 119.59 449.12
  Q 121.55 452.59 124.94 456.07
  Q 139.74 471.30 154.22 479.76
  C 161.82 484.20 174.29 488.39 182.49 484.42
  A 0.51 0.50 85.9 0 1 183.19 485.03
  Q 181.36 490.85 174.74 490.86
  C 160.36 490.86 146.75 484.30 137.13 474.33
  Q 131.33 468.33 127.22 464.38
  A 0.41 0.41 0.0 0 0 126.53 464.62
  L 126.28 466.65
  Z"
/>
</g>
<g fill="var(--art-astronaut-accent)">
<path d="
  M 268.90 142.84
  C 271.17 168.29 254.73 193.06 227.17 191.97
  C 216.69 191.56 206.37 188.48 197.89 182.18
  C 184.61 172.32 177.42 156.29 181.04 140.11
  C 186.30 116.69 207.82 105.81 230.60 108.33
  Q 241.43 109.52 248.06 112.50
  C 259.95 117.83 267.73 129.72 268.90 142.84
  Z"
/>
</g>
<g fill="var(--art-alien-primary)">
<path d="
  M 387.38 299.11
  A 0.10 0.10 0.0 0 1 387.25 299.17
  L 387.21 299.15
  A 2.70 2.28 -69.8 0 1 386.01 295.83
  L 386.12 295.51
  A 2.70 2.28 -69.8 0 1 389.20 293.77
  L 389.23 293.78
  A 0.10 0.10 0.0 0 1 389.29 293.91
  L 387.38 299.11
  Z"
/>
<path d="
  M 392.21 311.95
  L 390.60 308.74
  A 0.59 0.59 0.0 0 1 390.99 307.91
  L 394.47 307.03
  A 0.59 0.59 0.0 0 1 395.15 307.85
  L 393.28 311.94
  A 0.59 0.59 0.0 0 1 392.21 311.95
  Z"
/>
<path d="
  M 401.26 316.48
  Q 400.84 318.89 399.27 321.40
  A 0.66 0.66 0.0 0 1 398.40 321.63
  Q 397.07 320.90 397.07 319.61
  A 1.14 1.13 -19.0 0 1 397.53 318.68
  L 400.85 316.23
  A 0.26 0.26 0.0 0 1 401.26 316.48
  Z"
/>
<ellipse cx="0.00" cy="0.00" transform="translate(404.45,325.86) rotate(-53.9)" rx="2.27" ry="0.61" />
</g>
<g fill="var(--art-alien-secondary)">
  <path d="
  M 306.89 173.97
  Q 303.80 179.19 302.83 184.73
  A 0.56 0.56 0.0 0 1 302.01 185.13
  C 293.43 180.55 288.19 173.41 288.77 163.52
  C 289.44 152.07 300.05 147.90 310.25 147.23
  Q 322.95 146.39 336.75 150.38
  Q 383.08 163.78 417.64 199.25
  Q 429.97 211.91 439.16 227.39
  C 449.59 244.97 455.26 264.12 448.25 283.86
  Q 447.18 286.90 445.30 292.75
  A 2.47 2.45 3.7 0 1 443.38 294.42
  Q 441.37 294.77 438.63 294.14
  Q 421.41 290.15 407.97 282.23
  C 400.98 278.11 394.11 272.13 388.33 266.68
  Q 384.31 262.89 379.65 260.10
  C 369.21 253.85 362.93 266.75 363.03 275.05
  Q 363.05 276.41 364.10 277.08
  A 1.59 1.53 24.3 0 0 366.45 276.24
  C 367.76 271.60 368.58 266.62 372.58 263.76
  A 2.84 2.84 0.0 0 1 375.91 263.77
  L 382.75 268.76
  A 0.68 0.68 0.0 0 1 382.76 269.85
  C 377.11 274.08 376.81 279.82 377.65 286.56
  Q 379.96 305.17 391.75 323.02
  Q 395.62 328.88 397.84 330.59
  A 1.51 1.51 0.0 0 1 396.90 333.30
  L 393.62 333.26
  A 8.42 8.39 -25.5 0 1 388.55 331.47
  Q 385.94 329.42 383.70 325.55
  C 377.58 314.95 369.94 304.17 362.38 294.65
  Q 356.19 286.87 354.19 281.73
  C 349.02 268.47 352.92 255.24 362.15 244.88
  A 0.67 0.65 41.3 0 1 363.08 244.83
  C 368.62 249.77 373.52 254.09 381.41 253.00
  C 382.36 252.87 383.48 252.02 383.68 251.02
  A 1.67 1.56 10.3 0 0 382.30 249.17
  Q 373.86 247.72 368.71 242.24
  Q 362.28 235.41 356.96 227.99
  A 2.38 2.36 -57.0 0 1 356.57 226.11
  Q 358.09 218.96 364.32 217.00
  A 2.83 2.81 -26.9 0 1 367.43 218.01
  L 376.30 230.03
  A 1.74 1.74 0.0 0 0 379.11 230.02
  L 379.59 229.36
  A 2.27 2.26 45.8 0 0 379.62 226.71
  Q 368.21 210.33 363.95 205.04
  Q 348.55 185.90 325.59 174.18
  Q 313.70 168.11 299.76 167.25
  A 2.42 2.41 -83.1 0 0 297.23 169.24
  L 297.23 169.28
  A 2.20 2.19 -79.3 0 0 299.01 171.90
  L 306.51 173.16
  A 0.54 0.54 0.0 0 1 306.89 173.97
  Z"
/>
<path d="
  M 313.62 174.71
  L 318.38 176.79
  A 0.82 0.82 0.0 0 1 318.65 178.10
  Q 313.76 183.32 313.22 190.00
  A 1.03 1.03 0.0 0 1 311.63 190.78
  L 307.76 188.23
  A 1.98 1.97 -69.5 0 1 306.90 186.33
  Q 307.82 179.38 311.38 175.22
  A 1.94 1.93 32.1 0 1 313.62 174.71
  Z"
/>
<path d="
  M 324.87 179.57
  L 330.34 182.32
  A 0.96 0.95 -53.3 0 1 330.56 183.87
  Q 323.76 190.26 323.11 196.23
  A 0.93 0.92 21.2 0 1 321.64 196.87
  L 318.36 194.48
  A 2.57 2.56 19.6 0 1 317.31 192.28
  Q 317.71 184.68 323.31 179.77
  A 1.40 1.40 0.0 0 1 324.87 179.57
  Z"
/>
<path d="
  M 333.07 203.38
  A 1.05 1.05 0.0 0 1 331.42 204.02
  L 327.89 201.44
  A 2.81 2.80 -67.7 0 1 326.77 198.76
  Q 327.91 191.26 334.54 186.31
  A 1.44 1.43 44.4 0 1 336.24 186.30
  L 341.57 190.19
  A 0.65 0.65 0.0 0 1 341.48 191.29
  C 336.76 193.67 334.17 198.09 333.07 203.38
  Z"
/>
<path d="
  M 343.10 212.33
  A 1.03 1.03 0.0 0 1 341.44 212.81
  L 337.83 209.69
  A 2.88 2.88 0.0 0 1 336.87 207.03
  C 337.81 201.38 339.29 196.77 345.05 194.31
  A 1.94 1.94 0.0 0 1 347.09 194.63
  L 353.06 199.78
  A 0.97 0.97 0.0 0 1 352.83 201.39
  Q 345.32 204.88 343.10 212.33
  Z"
/>
<path d="
  M 352.97 223.88
  A 0.22 0.22 0.0 0 1 352.59 223.98
  L 346.33 216.94
  A 0.30 0.29 -61.1 0 1 346.26 216.68
  Q 347.87 207.74 355.76 204.57
  A 1.86 1.85 60.6 0 1 357.95 205.19
  L 362.75 211.69
  A 0.76 0.74 60.7 0 1 362.44 212.83
  Q 354.70 216.03 352.97 223.88
  Z"
/>
<path d="
  M 284.80 214.79
  C 292.63 215.36 300.93 223.58 306.14 229.38
  Q 312.08 235.98 314.95 244.29
  A 1.88 1.88 0.0 0 1 314.16 246.49
  Q 308.83 249.79 302.33 250.41
  A 0.68 0.67 82.2 0 1 301.60 249.85
  C 299.34 236.40 293.03 226.19 284.54 215.26
  A 0.30 0.29 -16.4 0 1 284.80 214.79
  Z"
/>
<path d="
  M 437.02 388.90
  Q 432.23 381.51 424.87 377.03
  A 0.29 0.29 0.0 0 1 424.91 376.51
  L 429.15 374.69
  A 0.88 0.87 -30.2 0 1 430.18 374.96
  C 433.44 379.24 436.67 383.41 437.64 388.65
  A 0.34 0.34 0.0 0 1 437.02 388.90
  Z"
/>
<path d="
  M 267.86 243.50
  Q 268.25 243.23 269.27 243.42
  Q 280.09 245.46 286.83 254.46
  A 0.51 0.50 -35.8 0 1 286.71 255.18
  Q 283.04 257.68 278.02 257.39
  A 3.26 3.26 0.0 0 1 275.44 255.85
  L 267.85 243.58
  A 0.06 0.06 0.0 0 1 267.86 243.50
  Z"
/>
<path d="
  M 336.92 333.85
  A 1.30 1.29 -80.5 0 1 338.25 335.72
  L 335.60 340.99
  A 3.12 3.11 -76.7 0 1 332.84 342.70
  Q 329.58 342.71 326.31 340.77
  A 2.20 2.19 -63.8 0 0 323.16 341.85
  L 323.05 342.17
  A 2.77 2.77 0.0 0 0 324.70 345.65
  L 331.13 348.06
  A 0.40 0.40 0.0 0 1 331.36 348.60
  C 329.60 352.39 326.72 356.07 322.00 354.79
  C 320.50 354.39 319.19 352.87 318.05 352.04
  A 1.23 1.22 25.5 0 0 316.15 352.71
  Q 314.46 358.93 321.08 359.88
  A 0.44 0.43 -67.2 0 1 321.36 360.57
  Q 318.34 364.59 314.07 364.62
  C 311.47 364.64 308.80 362.54 305.87 360.69
  A 1.06 1.05 -52.0 0 0 304.54 360.86
  Q 301.64 363.94 297.96 365.96
  Q 284.99 373.12 270.86 377.09
  A 1.79 1.77 57.3 0 1 269.21 376.72
  L 265.78 373.75
  A 0.67 0.67 0.0 0 1 266.33 372.58
  Q 268.92 373.02 270.21 372.00
  A 1.42 1.42 0.0 0 0 269.78 369.54
  Q 258.43 365.73 251.82 355.67
  Q 247.24 348.69 242.94 342.04
  A 0.83 0.83 0.0 0 1 243.21 340.89
  L 249.59 337.02
  A 0.62 0.62 0.0 0 1 250.51 337.39
  C 254.75 352.95 267.74 364.56 284.43 364.69
  A 4.80 4.79 17.4 0 0 288.42 362.61
  L 288.46 362.55
  A 1.48 1.47 -72.3 0 0 287.27 360.24
  Q 266.88 359.93 257.60 342.42
  Q 255.66 338.76 254.81 334.86
  A 1.07 1.07 0.0 0 1 255.30 333.71
  L 263.38 328.81
  A 0.66 0.66 0.0 0 1 264.37 329.23
  C 268.15 345.55 282.55 358.94 300.27 355.55
  A 2.05 1.97 73.4 0 0 301.69 352.79
  C 301.02 351.10 298.33 351.43 296.49 351.46
  C 281.99 351.71 271.41 339.91 268.43 326.51
  A 1.38 1.38 0.0 0 1 269.06 325.04
  L 291.48 311.44
  A 3.86 3.85 -24.0 0 0 293.18 307.03
  L 293.06 306.66
  A 2.02 2.01 67.9 0 0 290.06 305.39
  L 238.54 336.65
  A 1.33 1.33 0.0 0 1 237.01 336.53
  C 235.00 334.87 229.30 331.66 227.34 334.31
  A 2.02 2.00 28.5 0 0 228.27 337.38
  Q 235.05 339.92 239.30 346.90
  Q 247.18 359.86 253.57 367.73
  Q 260.19 375.88 264.21 380.78
  C 266.09 383.07 271.81 383.07 274.57 382.83
  C 284.15 381.99 291.30 381.20 300.02 382.24
  C 306.74 383.04 312.46 387.75 316.31 392.80
  A 0.30 0.29 -3.0 0 1 315.92 393.23
  Q 302.76 385.24 287.92 388.76
  A 1.81 1.81 0.0 0 0 286.60 391.03
  Q 287.17 392.93 288.54 394.21
  C 296.20 401.39 303.96 407.63 303.12 419.23
  Q 302.97 421.27 302.24 422.95
  A 0.37 0.37 0.0 0 1 301.54 422.88
  Q 301.04 420.68 300.56 418.46
  C 298.31 408.03 289.04 403.83 279.75 400.51
  Q 277.87 399.84 276.18 400.66
  A 0.84 0.83 73.7 0 0 275.71 401.53
  Q 276.49 407.23 277.09 409.54
  Q 278.59 415.36 278.69 417.46
  Q 279.14 427.40 272.58 435.07
  A 0.28 0.28 0.0 0 1 272.10 434.82
  C 274.47 425.33 273.85 415.78 266.30 408.74
  C 264.09 406.68 261.69 404.52 260.00 402.12
  C 254.87 394.82 250.44 389.36 243.37 384.26
  C 234.69 377.99 229.83 374.17 222.38 367.12
  Q 211.01 356.36 203.96 344.58
  Q 201.15 339.87 204.00 335.53
  C 216.73 316.14 233.12 298.66 250.67 282.67
  C 255.92 277.90 259.95 273.63 267.22 276.83
  C 274.31 279.95 274.90 284.58 276.13 291.19
  Q 276.36 292.42 276.63 292.65
  A 1.68 1.67 -62.9 0 0 279.33 291.77
  C 282.00 281.38 274.75 271.92 264.27 271.01
  A 0.33 0.33 0.0 0 1 264.10 270.41
  C 269.40 266.53 275.29 261.45 281.84 264.81
  Q 293.31 270.70 297.31 283.64
  Q 297.50 284.26 297.90 284.66
  A 0.75 0.75 0.0 0 0 299.09 284.48
  C 301.90 278.97 298.92 272.08 294.92 267.77
  Q 292.11 264.73 289.03 262.13
  A 0.48 0.48 0.0 0 1 289.11 261.34
  C 293.91 258.82 299.59 257.60 304.94 256.50
  C 313.84 254.67 321.94 249.82 328.56 243.52
  C 335.28 237.10 338.75 228.74 339.68 219.64
  A 0.36 0.36 0.0 0 1 340.29 219.41
  Q 350.25 228.85 358.33 239.18
  A 0.95 0.94 -44.2 0 1 358.31 240.37
  C 347.04 253.74 342.57 268.19 348.86 285.07
  A 1.23 1.23 0.0 0 1 348.59 286.34
  Q 340.25 294.96 333.03 304.47
  A 2.65 2.65 0.0 0 0 332.88 307.45
  L 334.40 309.96
  A 0.95 0.94 -42.4 0 0 335.97 310.03
  L 342.34 301.29
  A 0.65 0.64 -36.2 0 1 343.47 301.46
  Q 345.64 307.91 342.79 313.48
  C 341.13 316.73 339.71 316.22 336.66 317.08
  A 1.92 1.91 -17.6 0 0 335.37 319.55
  C 336.05 321.49 339.81 321.57 342.01 321.70
  A 0.78 0.77 -80.3 0 1 342.71 322.70
  Q 340.14 331.16 332.32 327.86
  A 2.09 2.09 0.0 0 0 329.47 329.34
  L 329.44 329.46
  A 2.85 2.84 16.8 0 0 331.20 332.73
  Q 334.91 334.13 336.92 333.85
  Z
  M 328.00 256.01
  Q 319.47 263.75 307.27 266.81
  Q 305.89 267.15 305.60 268.14
  A 2.37 2.36 14.7 0 0 307.34 271.10
  Q 309.01 271.49 311.05 270.92
  Q 322.73 267.70 331.44 259.80
  Q 340.15 251.90 344.48 240.58
  Q 345.24 238.60 345.01 236.90
  A 2.37 2.36 80.8 0 0 342.23 234.88
  Q 341.22 235.08 340.74 236.42
  Q 336.53 248.26 328.00 256.01
  Z
  M 322.56 277.13
  Q 317.85 279.92 311.14 282.17
  Q 308.10 283.19 309.03 285.79
  A 2.13 2.02 -16.4 0 0 311.49 287.04
  Q 318.26 285.44 325.09 281.39
  Q 331.92 277.34 336.57 272.17
  A 2.13 2.02 -45.0 0 0 336.64 269.41
  Q 334.81 267.34 332.45 269.52
  Q 327.26 274.34 322.56 277.13
  Z
  M 327.66 301.02
  L 339.73 286.98
  A 0.83 0.83 0.0 0 0 339.65 285.81
  L 338.95 285.21
  A 6.71 2.83 -49.3 0 0 332.43 288.45
  L 328.02 293.58
  A 6.71 2.83 -49.3 0 0 325.79 300.51
  L 326.49 301.11
  A 0.83 0.83 0.0 0 0 327.66 301.02
  Z
  M 306.08 307.37
  Q 311.13 311.71 317.93 313.19
  A 2.72 2.67 -69.6 0 0 320.87 311.81
  C 321.73 310.21 320.44 309.19 318.87 308.72
  C 315.48 307.70 312.03 306.05 309.26 303.67
  C 306.50 301.30 304.36 298.12 302.85 294.92
  C 302.15 293.44 300.95 292.31 299.50 293.40
  A 2.72 2.67 -28.9 0 0 298.57 296.52
  Q 301.04 303.02 306.08 307.37
  Z
  M 250.01 308.95
  C 247.06 311.08 231.13 323.18 233.98 326.90
  A 1.47 1.37 46.9 0 0 236.18 327.05
  Q 242.79 319.25 252.43 312.29
  Q 262.07 305.32 271.55 301.49
  A 1.47 1.37 61.3 0 0 272.10 299.35
  C 269.46 295.48 252.97 306.81 250.01 308.95
  Z
  M 303.00 327.15
  Q 308.93 330.17 315.89 329.98
  A 2.72 2.68 -83.4 0 0 318.42 327.94
  C 318.88 326.18 317.38 325.50 315.74 325.42
  C 312.21 325.24 308.46 324.45 305.21 322.80
  C 301.96 321.15 299.12 318.58 296.89 315.83
  C 295.86 314.55 294.42 313.74 293.27 315.15
  A 2.72 2.68 -42.7 0 0 293.11 318.40
  Q 297.06 324.13 303.00 327.15
  Z
  M 291.73 340.12
  Q 299.71 344.47 309.03 343.74
  Q 312.07 343.50 311.64 340.90
  A 1.99 1.85 -3.1 0 0 309.78 339.35
  C 304.37 339.12 298.93 338.52 294.05 335.86
  C 289.18 333.20 285.72 328.95 282.60 324.52
  A 1.99 1.85 60.3 0 0 280.29 323.80
  Q 277.87 324.85 279.32 327.54
  Q 283.75 335.76 291.73 340.12
  Z
  M 247.76 376.23
  A 3.66 3.65 24.2 0 0 246.49 372.91
  Q 238.68 366.37 232.98 361.78
  C 228.83 358.45 226.17 355.68 221.69 351.23
  A 1.13 1.13 0.0 0 0 219.85 351.61
  L 219.79 351.76
  A 2.81 2.81 0.0 0 0 220.22 354.57
  Q 224.61 359.96 230.59 364.92
  Q 242.19 374.54 245.78 377.19
  A 1.24 1.24 0.0 0 0 247.74 376.37
  L 247.76 376.23
  Z"
/>
<path d="
  M 32.28 230.50
  Q 37.60 223.52 44.70 218.38
  A 0.27 0.27 0.0 0 1 45.09 218.72
  L 38.62 231.58
  A 0.71 0.70 -64.0 0 1 37.70 231.90
  Q 35.23 230.76 32.48 230.87
  A 0.23 0.23 0.0 0 1 32.28 230.50
  Z"
/>
<path d="
  M 31.68 231.93
  L 32.36 233.33
  A 1.12 1.12 0.0 0 0 32.88 233.85
  L 36.27 235.56
  A 1.01 1.00 21.8 0 1 36.78 236.74
  L 32.62 250.75
  A 0.97 0.97 0.0 0 1 31.31 251.36
  L 25.34 248.75
  A 1.82 1.81 -71.6 0 0 22.85 250.00
  L 22.76 250.37
  A 1.86 1.86 0.0 0 0 23.83 252.50
  L 30.91 255.60
  A 0.61 0.61 0.0 0 1 31.28 256.24
  L 29.48 270.56
  A 0.94 0.94 0.0 0 1 28.58 271.38
  Q 22.65 271.61 18.42 270.54
  A 1.26 1.25 -79.1 0 0 16.86 271.60
  L 16.68 273.04
  A 1.51 1.51 0.0 0 0 17.71 274.67
  C 20.87 275.73 25.94 275.49 28.31 275.55
  A 0.62 0.61 0.0 0 1 28.91 276.14
  L 29.46 292.44
  A 1.25 1.24 -4.2 0 1 28.35 293.72
  L 14.67 295.23
  A 1.62 1.62 0.0 0 0 13.26 297.16
  L 13.28 297.24
  A 2.30 2.30 0.0 0 0 15.58 299.01
  Q 23.93 298.83 29.61 297.34
  A 0.64 0.64 0.0 0 1 30.40 297.81
  L 33.87 312.30
  A 1.31 1.30 65.8 0 1 33.35 313.68
  Q 26.54 318.40 18.40 319.15
  A 1.86 1.85 -5.7 0 0 16.73 321.18
  L 16.74 321.26
  A 2.22 2.20 88.8 0 0 18.80 323.25
  C 23.86 323.57 30.82 320.31 35.10 317.69
  A 0.55 0.55 0.0 0 1 35.88 317.92
  L 42.47 331.47
  A 1.49 1.47 56.3 0 1 42.13 333.22
  Q 35.94 338.74 26.57 342.17
  A 1.87 1.86 67.2 0 0 25.53 344.73
  L 25.57 344.81
  A 2.33 2.32 68.5 0 0 28.36 346.03
  Q 38.20 342.97 44.95 336.48
  A 0.66 0.65 -42.9 0 1 45.89 336.51
  L 55.02 346.78
  A 1.28 1.28 0.0 0 1 55.12 348.36
  Q 48.69 357.65 37.50 363.21
  A 1.58 1.58 0.0 0 0 37.20 365.85
  L 37.28 365.91
  A 3.60 3.59 -39.3 0 0 41.20 366.30
  Q 51.75 360.80 58.36 351.24
  A 0.99 0.98 35.3 0 1 59.75 351.01
  L 70.22 358.64
  A 1.13 1.13 0.0 0 1 70.62 359.92
  Q 66.50 371.97 55.87 379.10
  Q 54.46 380.04 54.15 381.49
  A 1.43 1.28 -82.3 0 0 55.32 383.22
  Q 57.45 383.28 59.63 381.84
  C 67.18 376.85 71.15 370.13 74.44 361.75
  A 0.46 0.45 22.3 0 1 75.05 361.50
  L 87.13 366.78
  A 1.50 1.50 0.0 0 1 87.99 368.49
  Q 85.03 381.25 75.85 392.39
  A 1.75 1.74 -56.0 0 0 76.36 395.03
  L 76.39 395.04
  A 2.53 2.53 0.0 0 0 79.55 394.44
  Q 89.11 383.00 92.13 369.68
  A 0.83 0.82 -78.1 0 1 93.09 369.05
  L 105.55 371.38
  A 0.84 0.84 0.0 0 1 106.23 372.28
  Q 104.94 385.95 98.19 400.07
  A 1.34 1.34 0.0 0 0 99.54 401.98
  L 99.67 401.96
  A 4.19 4.18 9.8 0 0 102.99 399.62
  Q 108.94 387.25 110.50 373.53
  A 1.08 1.07 -84.7 0 1 111.64 372.58
  L 124.21 373.43
  A 0.64 0.63 -88.5 0 1 124.80 374.06
  Q 125.12 388.66 118.63 401.43
  Q 118.52 401.65 118.36 402.54
  Q 118.20 403.38 118.37 403.63
  A 2.18 1.83 -38.7 0 0 121.46 403.70
  Q 123.50 401.79 124.88 398.36
  Q 129.69 386.31 129.28 373.05
  A 0.59 0.59 0.0 0 1 130.26 372.59
  L 139.78 380.83
  A 0.91 0.91 0.0 0 1 140.03 381.87
  L 134.74 394.96
  A 3.03 2.98 -14.7 0 1 134.24 395.80
  Q 129.69 401.25 127.29 409.15
  A 2.23 2.22 7.2 0 1 125.26 410.72
  C 105.74 411.52 87.24 406.56 69.60 397.44
  C 57.60 391.24 48.71 383.92 39.91 374.24
  Q 31.30 364.76 26.91 356.55
  C 7.12 319.51 5.94 276.19 25.71 239.24
  Q 27.99 234.98 30.61 231.80
  A 0.64 0.64 0.0 0 1 31.68 231.93
  Z"
/>
<path d="
  M 449.49 347.12
  Q 446.40 347.31 443.03 347.44
  Q 430.28 347.90 422.88 357.05
  A 5.09 5.03 9.4 0 1 420.65 358.63
  C 418.32 359.46 412.49 360.83 415.04 364.68
  A 2.05 2.04 67.2 0 0 417.17 365.55
  Q 424.73 363.91 431.52 363.28
  Q 446.05 361.94 455.38 373.12
  A 0.28 0.27 -7.2 0 1 455.05 373.54
  C 445.38 369.06 430.91 366.07 421.53 372.53
  C 418.17 374.84 413.20 378.44 409.81 378.45
  C 408.52 378.45 407.78 377.45 406.64 376.87
  A 0.80 0.80 0.0 0 0 405.53 377.29
  C 403.68 382.07 408.43 391.26 411.33 395.59
  A 0.33 0.33 0.0 0 1 410.97 396.09
  C 402.86 393.75 398.49 388.34 395.31 380.87
  A 4.12 4.10 82.2 0 0 392.08 378.41
  Q 387.96 377.86 383.49 378.17
  C 370.50 379.10 356.51 380.63 343.79 378.70
  C 335.52 377.44 330.73 372.13 327.22 365.05
  A 1.61 1.60 -35.1 0 1 327.55 363.17
  Q 335.71 355.44 340.60 344.96
  A 0.47 0.47 0.0 0 1 341.44 344.95
  C 345.12 352.52 348.92 359.48 357.15 362.55
  Q 361.75 364.27 367.19 364.82
  C 379.03 366.03 392.65 366.51 403.16 361.65
  C 409.43 358.76 415.28 353.89 421.29 349.33
  C 429.94 342.77 439.69 341.59 449.58 346.70
  A 0.22 0.22 0.0 0 1 449.49 347.12
  Z"
/>
<path d="
  M 195.46 349.78
  A 0.62 0.62 0.0 0 1 195.77 349.02
  L 198.85 347.53
  A 0.54 0.53 62.2 0 1 199.55 347.75
  Q 204.16 356.02 210.98 363.80
  A 2.34 2.33 36.1 0 1 211.37 366.26
  Q 208.38 373.16 203.19 379.94
  Q 202.69 380.59 202.82 382.82
  A 0.54 0.53 -5.4 0 0 203.43 383.32
  C 208.91 382.50 213.32 373.99 214.97 369.09
  A 0.69 0.69 0.0 0 1 216.14 368.85
  L 222.41 375.91
  A 1.33 1.31 36.7 0 1 222.63 377.34
  Q 219.94 383.23 215.20 389.19
  A 1.88 1.72 -61.4 0 0 215.92 392.08
  C 220.08 393.35 224.74 383.10 226.33 379.62
  A 0.52 0.51 30.3 0 1 227.10 379.42
  L 235.12 385.27
  A 0.99 0.98 -58.2 0 1 235.41 386.53
  Q 232.10 392.85 226.33 399.59
  A 2.50 2.50 0.0 0 0 226.18 402.65
  L 226.23 402.73
  A 1.70 1.69 51.0 0 0 228.78 403.00
  Q 235.16 397.02 238.99 388.97
  A 0.70 0.69 33.2 0 1 240.07 388.75
  L 248.58 396.11
  A 2.32 2.30 -62.3 0 1 249.30 398.45
  Q 247.32 405.91 245.97 410.25
  C 243.23 418.99 238.99 426.43 233.24 433.04
  A 0.60 0.60 0.0 0 1 232.22 432.84
  C 228.80 423.06 225.48 413.47 220.04 405.30
  Q 212.81 394.44 203.58 388.79
  Q 201.60 387.58 200.74 386.88
  A 0.88 0.86 -67.7 0 1 200.42 386.09
  Q 201.37 378.15 201.01 375.98
  Q 200.33 371.77 199.52 364.92
  Q 198.87 359.38 195.46 349.78
  Z"
/>
<path d="
  M 130.59 585.63
  Q 123.33 580.41 114.88 579.13
  A 5.38 5.35 -13.6 0 1 111.37 577.00
  Q 106.49 570.35 97.83 564.31
  A 1.96 1.96 0.0 0 0 95.00 564.97
  L 94.98 565.00
  A 2.72 2.71 -54.8 0 0 95.55 568.32
  C 103.44 575.38 109.56 581.11 112.55 590.74
  A 0.22 0.22 0.0 0 1 112.18 590.96
  Q 108.60 587.51 104.18 585.56
  C 99.78 583.61 94.96 582.79 91.61 580.17
  C 89.46 578.50 83.55 572.95 84.05 570.02
  C 84.37 568.11 86.44 563.90 85.33 560.74
  A 1.20 1.20 0.0 0 0 83.79 560.00
  Q 81.91 560.68 81.05 562.63
  Q 75.87 574.36 65.07 582.17
  A 0.43 0.43 0.0 0 1 64.39 581.73
  Q 64.78 579.89 65.34 578.56
  Q 70.49 566.39 73.02 555.34
  C 73.99 551.13 75.81 548.76 78.42 545.44
  C 80.31 543.04 81.59 540.02 82.47 536.73
  C 86.68 520.95 90.27 504.14 94.18 487.70
  C 95.77 481.03 97.71 479.49 104.76 479.49
  Q 114.91 479.50 116.43 479.41
  C 119.94 479.22 122.35 476.82 125.80 474.10
  A 2.05 2.05 0.0 0 1 128.56 474.30
  C 140.91 487.40 157.04 497.40 175.42 496.51
  Q 185.90 496.01 188.38 485.46
  C 188.78 483.75 188.55 481.85 188.86 480.14
  A 0.51 0.51 0.0 0 1 189.70 479.85
  C 191.90 481.84 194.32 484.46 197.10 485.36
  A 1.40 1.40 0.0 0 0 198.83 484.52
  Q 199.63 482.44 198.09 480.88
  C 194.29 477.03 191.10 474.47 189.03 471.07
  C 187.28 468.20 186.19 465.05 184.05 462.69
  Q 174.38 452.04 172.44 449.80
  C 170.20 447.21 170.90 445.00 171.85 441.66
  Q 173.01 437.57 177.18 435.44
  A 0.58 0.58 0.0 0 1 177.92 435.63
  L 198.49 466.27
  A 1.51 1.51 0.0 0 0 200.82 466.49
  L 200.88 466.43
  A 2.25 2.24 53.0 0 0 201.26 463.71
  Q 194.83 452.43 187.07 441.43
  Q 186.15 440.12 181.58 431.66
  A 1.42 1.41 -46.5 0 1 181.55 430.36
  Q 181.87 429.71 183.98 426.51
  Q 186.72 422.33 186.77 416.91
  A 2.24 2.12 -30.2 0 1 187.11 415.75
  Q 191.37 408.90 194.26 400.44
  A 15.75 15.64 -21.6 0 1 195.33 397.99
  L 198.39 392.37
  A 0.51 0.51 0.0 0 1 199.07 392.16
  C 210.05 397.88 217.09 408.62 221.80 419.97
  Q 232.43 445.60 233.79 475.00
  Q 234.12 482.27 230.69 487.16
  Q 224.56 495.89 215.71 501.71
  Q 209.89 505.54 201.73 505.45
  C 182.84 505.24 169.31 503.29 144.76 500.45
  Q 134.70 499.29 123.50 498.92
  Q 113.40 498.59 109.21 507.45
  Q 100.55 525.78 96.90 547.16
  Q 95.74 553.98 99.23 558.32
  C 100.70 560.14 105.74 563.47 108.26 564.47
  Q 111.92 565.92 116.21 568.49
  Q 126.68 574.76 131.02 585.29
  A 0.29 0.28 -83.2 0 1 130.59 585.63
  Z
  M 216.46 467.94
  A 1.25 1.25 0.0 0 0 218.61 467.42
  Q 219.13 465.35 218.83 462.47
  Q 216.64 441.03 203.62 416.57
  A 2.41 2.40 64.9 0 0 200.60 415.47
  L 200.36 415.57
  A 1.91 1.91 0.0 0 0 199.42 418.29
  Q 212.68 441.63 215.85 466.57
  Q 215.95 467.36 216.46 467.94
  Z"
/>
<path d="
  M 284.71 419.16
  A 0.45 0.45 0.0 0 1 285.43 418.79
  L 295.21 425.93
  A 2.47 2.46 -75.6 0 1 296.21 427.63
  Q 296.75 432.18 296.80 434.37
  Q 296.85 436.68 297.70 437.41
  C 300.24 439.59 303.20 435.44 304.22 433.65
  A 0.71 0.70 -56.4 0 1 305.25 433.44
  Q 316.10 441.69 323.80 452.42
  Q 325.17 454.33 326.40 458.06
  C 328.30 463.79 326.64 468.69 322.69 473.49
  Q 318.03 479.16 312.41 483.43
  Q 297.07 495.08 281.55 506.55
  Q 273.74 512.33 266.99 518.73
  C 263.87 521.70 260.34 525.61 265.60 529.20
  Q 278.56 538.03 292.47 548.29
  Q 294.13 549.52 299.47 552.08
  C 304.10 554.29 308.67 555.42 315.02 557.21
  C 324.19 559.79 331.37 564.58 336.46 572.76
  A 0.28 0.28 0.0 0 1 336.10 573.16
  Q 327.64 568.83 320.56 563.94
  Q 314.88 560.02 306.08 557.05
  A 1.79 1.79 0.0 0 0 303.72 558.62
  L 303.69 559.15
  A 2.58 2.58 0.0 0 0 305.03 561.59
  C 313.93 566.46 322.30 571.25 325.95 580.52
  A 0.33 0.33 0.0 0 1 325.45 580.91
  Q 318.09 575.86 309.60 572.46
  A 6.93 6.90 -8.8 0 1 306.88 570.48
  Q 302.74 565.52 296.84 561.41
  A 2.43 2.42 -54.5 0 0 293.50 561.97
  L 293.22 562.35
  A 1.81 1.80 38.7 0 0 293.49 564.77
  Q 305.55 575.37 305.78 583.70
  A 0.31 0.31 0.0 0 1 305.24 583.91
  Q 300.56 578.64 293.87 575.39
  Q 282.86 570.06 276.57 566.49
  C 274.83 565.50 272.18 562.72 270.79 560.56
  C 267.40 555.28 263.83 549.88 257.99 545.53
  Q 249.78 539.43 239.13 532.94
  C 232.20 528.72 235.85 523.04 240.68 519.17
  Q 246.94 514.16 251.98 509.73
  C 259.74 502.90 262.52 496.12 268.13 484.64
  C 271.85 477.01 277.83 472.76 286.18 467.18
  C 289.64 464.88 290.95 467.00 294.11 467.86
  Q 295.66 468.29 296.58 467.69
  A 2.06 1.96 -32.7 0 0 297.25 464.95
  Q 296.60 463.93 294.94 463.12
  C 278.05 454.90 256.63 447.14 238.72 436.65
  A 0.58 0.58 0.0 0 1 238.58 435.78
  Q 249.95 422.36 253.99 404.47
  A 0.37 0.37 0.0 0 1 254.66 404.34
  Q 257.88 409.00 263.38 413.97
  C 270.73 420.60 267.25 433.37 264.07 441.24
  Q 263.05 443.79 265.85 445.11
  A 1.72 1.64 53.2 0 0 266.74 445.26
  Q 267.48 445.18 269.87 443.85
  Q 285.00 435.48 284.71 419.16
  Z"
/>
</g>
<g fill="var(--art-text)">
<rect x="-2.23" y="-11.61" transform="translate(268.42,71.79) rotate(33.0)" width="4.46" height="23.22" rx="1.80" />
<rect x="-19.80" y="-2.21" transform="translate(295.38,85.98) rotate(-40.9)" width="39.60" height="4.42" rx="1.95" />
<rect x="-15.50" y="-2.16" transform="translate(305.53,113.64) rotate(-22.8)" width="31.00" height="4.32" rx="2.12" />
</g>
</svg>
