<?xml version="1.0" encoding="UTF-8" standalone="no"?>
<!DOCTYPE svg PUBLIC "-//W3C//DTD SVG 1.1//EN" "http://www.w3.org/Graphics/SVG/1.1/DTD/svg11.dtd">
<svg xmlns="http://www.w3.org/2000/svg" version="1.1" viewBox="0.00 0.00 645.00 415.00">
<g stroke-width="2.00" fill="none" stroke-linecap="butt">
<path stroke="#846e63" vector-effect="non-scaling-stroke" d="
  M 359.72 140.24
  L 352.73 142.45
  A 1.41 1.40 88.9 0 0 351.79 143.43
  Q 349.70 151.62 352.23 160.77
  A 2.96 2.95 -4.0 0 0 354.71 162.92
  L 362.23 163.86"
/>
<path stroke="#86acca" vector-effect="non-scaling-stroke" d="
  M 250.32 41.35
  C 231.39 15.25 200.90 4.31 169.01 8.50
  C 134.64 13.01 106.70 34.50 98.55 68.79
  A 0.28 0.28 0.0 0 0 99.00 69.07
  Q 107.03 62.33 117.26 65.07
  C 127.11 67.71 133.40 77.28 134.07 87.21
  Q 134.70 96.38 130.73 104.51
  C 125.08 116.11 113.12 122.39 101.11 115.36
  A 0.32 0.31 -2.3 0 0 100.69 115.81
  L 105.47 122.55
  A 3.86 3.84 77.3 0 0 107.92 124.11
  Q 113.99 125.20 119.89 128.15
  C 123.70 130.05 127.40 133.61 131.55 135.78
  Q 145.12 142.88 163.38 147.91
  C 181.33 152.86 197.98 154.58 215.29 152.04
  A 11.84 11.66 28.2 0 0 218.36 151.14
  L 224.76 148.26
  A 0.31 0.30 29.1 0 0 224.59 147.68
  Q 205.08 150.10 187.54 142.83
  C 169.20 135.24 157.52 121.44 154.15 102.06
  C 150.86 83.11 157.21 60.67 171.93 47.86
  C 184.96 36.53 203.62 32.62 220.38 33.65
  C 231.25 34.32 240.78 36.06 250.04 41.65
  A 0.21 0.21 0.0 0 0 250.32 41.35"
/>
<path stroke="#846e63" vector-effect="non-scaling-stroke" d="
  M 164.35 71.46
  C 155.56 95.56 162.28 121.17 185.55 133.70
  Q 203.00 143.11 224.00 141.17
  C 235.34 140.12 244.43 134.61 252.01 126.29
  C 265.53 111.47 268.42 82.14 260.57 64.28
  C 255.54 52.83 244.43 44.66 231.98 42.18
  C 205.27 36.87 174.55 43.49 164.35 71.46"
/>
<path stroke="#3685bf" vector-effect="non-scaling-stroke" d="
  M 96.48 90.58
  C 96.18 97.71 98.04 105.71 104.27 109.60
  C 111.52 114.13 119.29 110.24 123.61 103.78
  Q 127.00 98.70 127.29 91.85
  Q 127.57 85.00 124.60 79.66
  C 120.83 72.87 113.41 68.35 105.81 72.27
  C 99.28 75.63 96.77 83.45 96.48 90.58"
/>
<path stroke="#2475af" vector-effect="non-scaling-stroke" d="
  M 86.64 106.87
  C 89.49 112.90 89.34 119.63 87.84 126.09
  A 0.36 0.36 0.0 0 0 88.23 126.53
  L 97.90 125.52
  A 0.54 0.54 0.0 0 0 98.29 124.68
  Q 92.77 116.60 90.30 107.37
  A 1.68 1.68 0.0 0 0 88.77 106.12
  L 87.21 106.04
  A 0.59 0.58 -10.8 0 0 86.64 106.87"
/>
<path stroke="#3685bf" vector-effect="non-scaling-stroke" d="
  M 42.44 220.62
  A 1.17 1.14 -59.6 0 0 42.17 219.54
  C 23.80 199.83 37.05 170.52 51.36 153.34
  Q 61.78 140.84 69.54 135.21
  C 73.11 132.63 75.42 131.34 79.38 129.99
  A 2.08 2.07 -1.5 0 0 80.70 128.61
  C 82.74 121.55 84.38 113.49 79.91 107.15
  A 1.30 1.30 0.0 0 0 78.97 106.62
  Q 70.20 106.01 65.93 107.65
  Q 54.67 111.98 50.60 123.81
  Q 48.67 129.41 20.34 215.33
  C 17.71 223.31 18.61 233.07 26.88 236.71
  C 33.38 239.57 38.76 233.59 40.43 227.93
  Q 41.38 224.68 42.44 220.62"
/>
<path stroke="#3685bf" vector-effect="non-scaling-stroke" d="
  M 99.22 130.90
  C 100.49 131.67 102.29 131.98 103.85 132.83
  C 123.55 143.42 127.62 165.82 119.92 185.65
  Q 117.35 192.25 112.72 197.39
  A 0.77 0.77 0.0 0 0 112.82 198.52
  L 117.03 201.74
  A 1.55 1.55 0.0 0 0 118.88 201.78
  Q 119.85 201.10 121.13 199.40
  C 136.57 178.74 140.75 144.48 112.07 132.09
  Q 108.99 130.77 99.35 130.45
  A 0.24 0.24 0.0 0 0 99.22 130.90"
/>
<path stroke="#86acca" vector-effect="non-scaling-stroke" d="
  M 98.45 189.65
  L 106.37 193.70
  A 1.42 1.41 -56.9 0 0 108.10 193.33
  C 120.96 177.48 121.24 151.27 102.87 139.39
  C 91.18 131.83 77.38 136.17 67.97 145.41
  Q 56.10 157.05 47.52 170.77
  Q 42.24 179.22 40.48 189.50
  C 37.17 208.90 49.11 218.13 63.93 226.47
  A 0.29 0.29 0.0 0 0 64.36 226.25
  Q 65.31 218.29 69.23 211.03
  C 72.93 204.19 78.01 196.93 84.15 192.12
  A 0.55 0.54 35.0 0 0 83.98 191.18
  L 75.13 188.21
  A 3.24 3.24 0.0 0 1 73.17 183.88
  L 73.25 183.70
  A 3.92 3.92 0.0 0 1 77.70 181.55
  Q 84.04 183.05 90.07 186.66
  A 1.30 1.30 0.0 0 0 91.79 186.29
  L 101.80 171.91
  A 2.64 2.64 0.0 0 1 105.40 171.21
  L 105.52 171.29
  A 3.08 3.08 0.0 0 1 106.51 175.44
  L 98.34 189.29
  A 0.26 0.26 0.0 0 0 98.45 189.65"
/>
<path stroke="#3685bf" vector-effect="non-scaling-stroke" d="
  M 346.89 164.22
  Q 344.28 159.92 344.21 152.51
  Q 344.15 146.01 344.59 144.41
  A 0.85 0.85 0.0 0 0 343.68 143.34
  L 338.39 143.89
  A 2.69 2.67 6.3 0 0 336.13 145.69
  Q 333.17 154.26 337.54 164.54
  A 3.79 3.78 75.4 0 0 341.43 166.83
  L 345.82 166.38
  A 1.43 1.43 0.0 0 0 346.89 164.22"
/>
<path stroke="#3685bf" vector-effect="non-scaling-stroke" d="
  M 213.83 158.16
  Q 198.37 160.55 185.82 158.86
  Q 160.74 155.50 137.39 145.51
  A 0.55 0.55 0.0 0 0 136.64 146.13
  L 137.48 149.97
  A 2.44 2.43 7.1 0 0 138.78 151.63
  Q 166.66 165.39 198.09 164.98
  Q 204.23 164.90 206.74 163.62
  Q 210.59 161.67 214.02 158.56
  A 0.23 0.23 0.0 0 0 213.83 158.16"
/>
<path stroke="#3685bf" vector-effect="non-scaling-stroke" d="
  M 330.05 163.08
  Q 327.71 156.22 328.84 149.65
  A 1.15 1.15 0.0 0 0 327.71 148.31
  L 327.16 148.31
  A 2.92 2.91 7.1 0 0 324.33 150.50
  Q 322.97 155.84 324.69 162.94
  A 3.33 3.32 83.1 0 0 327.92 165.48
  L 328.33 165.48
  A 1.82 1.81 -9.4 0 0 330.05 163.08"
/>
<path stroke="#3685bf" vector-effect="non-scaling-stroke" d="
  M 249.75 161.90
  L 250.77 169.98
  A 0.20 0.20 0.0 0 0 250.99 170.15
  L 314.67 162.11
  A 3.31 1.00 -7.2 0 0 317.83 160.70
  L 317.01 154.21
  A 3.31 1.00 -7.2 0 0 313.60 153.64
  L 249.92 161.68
  A 0.20 0.20 0.0 0 0 249.75 161.90"
/>
<path stroke="#86acca" vector-effect="non-scaling-stroke" d="
  M 224.27 179.87
  A 0.28 0.28 0.0 0 0 224.77 180.04
  L 235.96 164.71
  A 1.02 1.01 36.0 0 0 235.73 163.29
  L 227.46 157.26
  A 0.84 0.83 -44.3 0 0 226.49 157.25
  L 223.15 159.62
  A 0.95 0.93 -23.9 0 0 222.77 160.57
  Q 224.49 169.45 224.27 179.87"
/>
<path stroke="#86acca" vector-effect="non-scaling-stroke" d="
  M 128.37 201.40
  C 134.04 201.90 138.00 204.83 142.01 208.70
  A 0.39 0.39 0.0 0 0 142.67 208.49
  Q 144.95 195.67 147.83 181.08
  C 148.78 176.30 150.66 172.34 156.03 173.18
  Q 177.78 176.57 196.07 177.49
  Q 200.94 177.73 202.30 178.62
  C 205.48 180.72 204.82 185.51 204.39 188.63
  Q 204.21 190.00 201.04 211.15
  A 0.38 0.37 67.5 0 0 201.71 211.43
  L 206.27 205.19
  A 0.93 0.89 -27.8 0 0 206.43 204.71
  C 206.63 194.32 207.35 182.76 206.56 171.78
  A 0.82 0.81 -3.9 0 0 205.69 171.03
  C 183.62 172.45 160.28 169.13 140.43 159.26
  A 0.36 0.35 12.0 0 0 139.91 159.59
  C 140.51 173.60 136.79 189.43 128.19 201.01
  A 0.24 0.24 0.0 0 0 128.37 201.40"
/>
<path stroke="#3685bf" vector-effect="non-scaling-stroke" d="
  M 243.36 164.19
  Q 240.41 168.04 236.11 174.36
  Q 228.38 185.70 202.55 220.06
  C 198.91 224.90 188.79 224.69 182.90 224.09
  A 0.74 0.74 0.0 0 0 182.09 224.81
  L 181.94 230.51
  A 0.78 0.77 4.0 0 0 182.63 231.30
  C 189.52 232.06 198.78 231.89 204.24 226.74
  Q 210.08 221.21 215.15 214.14
  Q 231.03 191.99 244.43 174.12
  A 1.36 1.36 0.0 0 0 244.69 173.18
  L 243.76 164.31
  A 0.23 0.22 61.2 0 0 243.36 164.19"
/>
<path stroke="#3685bf" vector-effect="non-scaling-stroke" d="
  M 217.20 190.67
  A 0.34 0.34 0.0 0 0 217.27 190.47
  L 217.27 165.52
  A 0.34 0.34 0.0 0 0 216.73 165.24
  L 213.67 167.41
  A 0.34 0.34 0.0 0 0 213.53 167.68
  L 212.80 195.65
  A 0.34 0.34 0.0 0 0 213.41 195.86
  L 217.20 190.67"
/>
<path stroke="#3685bf" vector-effect="non-scaling-stroke" d="
  M 296.42 181.09
  A 0.80 0.80 0.0 0 0 297.33 180.42
  L 298.54 172.19
  A 0.80 0.80 0.0 0 0 297.75 171.27
  L 290.04 171.27
  A 0.80 0.80 0.0 0 0 289.24 171.99
  L 288.48 179.14
  A 0.80 0.80 0.0 0 0 289.16 180.01
  L 296.42 181.09"
/>
<path stroke="#86acca" vector-effect="non-scaling-stroke" d="
  M 148.06 214.85
  A 0.40 0.40 0.0 0 0 148.44 215.32
  L 179.75 216.13
  A 1.25 1.25 0.0 0 1 180.41 216.34
  L 182.82 217.92
  A 0.63 0.58 -23.5 0 0 183.14 218.03
  L 192.91 218.42
  A 0.88 0.87 5.8 0 0 193.82 217.68
  L 198.63 185.24
  A 1.31 1.30 11.7 0 0 197.67 183.79
  Q 196.64 183.52 194.75 183.43
  Q 175.23 182.54 156.03 179.40
  A 1.40 1.38 9.7 0 0 154.43 180.52
  L 148.06 214.85"
/>
<path stroke="#86acca" vector-effect="non-scaling-stroke" d="
  M 237.41 226.49
  C 234.94 218.76 233.95 212.37 236.36 204.41
  C 238.37 197.80 242.27 191.17 248.85 189.18
  C 251.44 188.39 252.02 187.56 252.46 185.01
  A 0.74 0.74 0.0 0 0 252.04 184.21
  Q 249.89 183.18 248.40 180.67
  A 0.47 0.47 0.0 0 0 247.62 180.63
  L 221.12 216.97
  A 0.49 0.48 -52.1 0 0 221.20 217.63
  Q 228.75 223.81 236.90 226.98
  A 0.39 0.39 0.0 0 0 237.41 226.49"
/>
<path stroke="#3685bf" vector-effect="non-scaling-stroke" d="
  M 265.94 195.01
  Q 263.57 196.37 261.99 195.02
  C 259.84 193.18 260.87 190.30 262.04 188.03
  A 0.61 0.61 0.0 0 0 261.19 187.22
  C 258.67 188.70 256.81 190.18 255.85 193.03
  C 252.09 204.17 250.94 215.58 257.70 225.01
  Q 259.94 228.13 264.42 229.82
  A 0.68 0.68 0.0 0 0 265.33 229.31
  L 267.88 215.52
  A 0.61 0.61 0.0 0 0 267.56 214.86
  C 264.67 213.29 260.82 211.60 261.15 207.72
  A 1.13 1.13 0.0 0 1 262.97 206.93
  Q 266.33 209.57 269.45 210.17
  A 0.63 0.62 15.2 0 0 270.16 209.77
  Q 271.14 207.03 270.06 204.97
  Q 268.22 201.48 268.60 198.34"
/>
<path stroke="#86acca" vector-effect="non-scaling-stroke" d="
  M 268.60 198.34
  C 269.31 196.36 270.32 192.83 272.61 192.43
  A 0.95 0.95 0.0 0 1 273.72 193.30
  Q 274.09 198.43 274.20 199.02
  C 275.40 205.73 282.07 207.24 284.19 199.95
  Q 286.28 192.71 282.96 186.80
  C 280.97 183.26 277.89 181.59 274.01 182.78
  C 268.37 184.51 267.28 190.00 265.94 195.01"
/>
<path stroke="#afd7f0" vector-effect="non-scaling-stroke" d="
  M 268.60 198.34
  Q 266.85 196.91 265.94 195.01"
/>
<path stroke="#86acca" vector-effect="non-scaling-stroke" d="
  M 291.66 194.82
  A 1.09 1.09 0.0 0 0 292.55 195.79
  L 306.16 198.31
  A 1.30 1.29 -73.1 0 0 307.59 197.54
  Q 308.37 195.74 307.92 193.59
  C 306.84 188.34 295.51 187.63 291.01 187.07
  A 0.13 0.13 0.0 0 0 290.86 187.21
  L 291.66 194.82"
/>
<path stroke="#3685bf" vector-effect="non-scaling-stroke" d="
  M 90.65 240.59
  A 0.45 0.45 0.0 0 0 91.16 240.23
  Q 94.97 219.37 110.14 204.82
  A 0.32 0.32 0.0 0 0 110.12 204.34
  C 106.85 201.61 94.21 192.83 90.07 195.57
  C 87.10 197.52 85.05 200.19 83.07 202.31
  Q 73.47 212.54 70.56 227.32
  C 69.58 232.29 70.81 234.48 75.47 236.30
  Q 82.84 239.19 90.65 240.59"
/>
<path stroke="#86acca" vector-effect="non-scaling-stroke" d="
  M 252.24 229.01
  Q 243.45 215.09 248.03 197.71
  A 0.27 0.27 0.0 0 0 247.58 197.44
  C 239.99 204.41 241.15 220.32 245.93 228.54
  A 2.40 2.40 0.0 0 0 247.75 229.72
  L 251.55 230.12
  A 0.73 0.73 0.0 0 0 252.24 229.01"
/>
<path stroke="#86acca" vector-effect="non-scaling-stroke" d="
  M 290.27 202.24
  Q 288.97 207.42 284.97 209.81
  A 0.34 0.34 0.0 0 0 285.08 210.44
  L 302.01 213.58
  A 3.14 3.13 -84.0 0 0 305.71 210.58
  L 305.76 208.63
  A 3.89 3.89 0.0 0 0 302.82 204.76
  L 291.05 201.77
  A 0.65 0.64 -75.6 0 0 290.27 202.24"
/>
<path stroke="#86acca" vector-effect="non-scaling-stroke" d="
  M 137.88 214.69
  C 134.79 211.02 131.68 208.45 126.45 208.12
  C 123.21 207.91 115.95 207.85 113.78 210.04
  Q 102.60 221.35 98.28 236.82
  Q 96.93 241.69 101.02 245.16
  C 105.26 248.76 111.36 253.94 114.78 253.41
  Q 116.33 253.17 118.00 251.75
  A 1.59 1.55 82.9 0 0 118.38 251.25
  L 119.63 248.56
  A 2.28 2.28 0.0 0 1 122.12 247.28
  L 124.77 247.77
  A 2.77 2.75 34.0 0 0 126.72 247.40
  Q 130.77 244.91 130.93 240.87
  C 131.01 238.79 131.70 237.10 133.81 237.43
  A 1.69 1.68 -18.6 0 1 134.74 237.89
  Q 136.86 239.95 137.59 240.42
  C 141.65 243.05 145.32 240.08 144.35 235.63
  C 142.83 228.65 138.48 224.24 132.86 218.90
  C 131.55 217.65 130.50 214.42 133.10 213.50
  Q 133.97 213.19 135.36 214.03
  Q 137.38 215.26 137.65 215.24
  A 0.34 0.33 67.8 0 0 137.88 214.69"
/>
<path stroke="#86acca" vector-effect="non-scaling-stroke" d="
  M 277.95 218.21
  A 5.92 5.90 -76.7 0 0 280.62 222.55
  Q 286.60 226.41 294.20 227.20
  A 6.39 6.39 0.0 0 0 300.32 224.14
  L 300.64 223.60
  A 2.78 2.78 0.0 0 0 298.49 219.40
  C 293.86 219.00 281.89 217.07 279.63 213.94
  A 1.13 1.13 0.0 0 0 277.59 214.73
  L 277.95 218.21"
/>
<path stroke="#3685bf" vector-effect="non-scaling-stroke" d="
  M 145.81 222.41
  L 150.40 231.37
  A 0.34 0.31 5.2 0 0 150.52 231.50
  Q 152.03 232.31 153.39 232.43
  Q 157.47 232.78 175.09 233.63
  A 0.58 0.58 0.0 0 0 175.70 233.09
  L 176.26 223.03
  A 0.67 0.67 0.0 0 0 175.61 222.32
  L 146.34 221.56
  A 0.58 0.58 0.0 0 0 145.81 222.41"
/>
<path stroke="#2475af" vector-effect="non-scaling-stroke" d="
  M 48.35 224.50
  A 0.80 0.80 0.0 0 0 47.07 225.00
  C 45.81 231.91 43.54 237.56 37.36 241.40
  A 0.67 0.67 0.0 0 0 37.72 242.64
  L 49.02 242.64
  A 1.09 1.09 0.0 0 0 50.11 241.52
  Q 49.90 234.18 51.32 228.28
  A 1.99 1.99 0.0 0 0 50.59 226.22
  L 48.35 224.50"
/>
<path stroke="#3685bf" vector-effect="non-scaling-stroke" d="
  M 272.76 224.92
  L 271.72 230.56
  A 1.45 1.45 0.0 0 0 272.49 232.12
  Q 275.56 233.66 279.53 234.01
  Q 281.27 234.16 282.11 231.91
  A 1.14 1.14 0.0 0 0 281.39 230.43
  Q 276.71 228.94 273.48 224.75
  A 0.40 0.40 0.0 0 0 272.76 224.92"
/>
<path stroke="#86acca" vector-effect="non-scaling-stroke" d="
  M 61.18 243.79
  L 64.15 234.76
  A 0.54 0.53 22.7 0 0 63.88 234.11
  L 58.44 231.33
  A 0.38 0.38 0.0 0 0 57.90 231.56
  Q 56.31 236.72 56.66 242.42
  A 0.94 0.94 0.0 0 0 57.30 243.25
  L 60.30 244.23
  A 0.70 0.70 0.0 0 0 61.18 243.79"
/>
<path stroke="#86acca" vector-effect="non-scaling-stroke" d="
  M 147.12 246.43
  L 152.82 246.75
  A 0.86 0.85 -77.3 0 0 153.67 246.21
  Q 154.20 244.87 155.10 244.27
  A 2.14 2.12 26.2 0 1 156.11 243.93
  Q 160.35 243.59 173.00 244.44
  C 176.55 244.68 178.65 244.71 180.40 247.34
  A 1.08 1.05 -11.9 0 0 181.14 247.81
  Q 189.85 249.08 198.25 245.71
  A 0.54 0.53 89.1 0 0 198.56 245.38
  L 201.79 235.58
  A 0.09 0.08 -87.9 0 0 201.69 235.47
  Q 192.35 238.31 182.19 237.50
  A 1.09 1.09 0.0 0 0 181.19 238.00
  Q 180.28 239.47 179.02 239.99
  A 1.82 1.80 35.2 0 1 178.25 240.12
  L 152.16 238.65
  A 1.02 1.02 0.0 0 0 151.11 239.44
  Q 150.06 244.04 146.96 245.74
  A 0.37 0.37 0.0 0 0 147.12 246.43"
/>
<path stroke="#3685bf" vector-effect="non-scaling-stroke" d="
  M 68.28 242.13
  L 67.62 248.27
  A 2.69 2.68 15.5 0 0 69.16 250.98
  C 75.31 253.85 85.76 256.57 91.32 252.20
  A 1.87 1.83 83.0 0 0 91.90 251.44
  L 93.15 248.33
  A 0.88 0.87 11.5 0 0 92.35 247.13
  Q 86.61 247.03 70.33 240.86
  A 1.52 1.52 0.0 0 0 68.28 242.13"
/>
<path stroke="#2475af" vector-effect="non-scaling-stroke" d="
  M 28.94 246.15
  A 0.43 0.43 0.0 0 0 28.41 246.26
  Q 17.63 259.08 10.95 273.11
  Q 6.22 283.03 7.29 292.75
  C 8.39 302.79 16.23 311.24 26.30 312.40
  C 48.91 315.00 65.60 296.12 76.29 279.07
  A 0.49 0.48 21.3 0 0 75.96 278.33
  L 72.86 277.75
  A 1.22 1.22 0.0 0 0 71.64 278.25
  C 61.86 292.19 42.33 312.98 23.38 305.62
  Q 14.33 302.11 13.29 292.22
  C 12.12 281.09 19.25 268.32 25.65 259.40
  Q 32.46 249.88 33.34 248.79
  A 0.29 0.29 0.0 0 0 33.24 248.35
  L 28.94 246.15"
/>
<path stroke="#86acca" vector-effect="non-scaling-stroke" d="
  M 62.97 278.99
  L 66.20 274.55
  A 0.65 0.65 0.0 0 0 66.07 273.64
  C 60.57 269.52 61.24 260.90 62.73 255.27
  A 3.54 3.54 0.0 0 0 60.92 251.21
  L 57.88 249.66
  A 1.67 1.66 -76.5 0 0 55.46 251.15
  Q 55.45 259.32 57.17 266.64
  C 58.08 270.51 60.99 276.28 62.34 278.94
  A 0.37 0.37 0.0 0 0 62.97 278.99"
/>
<path stroke="#3685bf" vector-effect="non-scaling-stroke" d="
  M 171.02 269.52
  A 0.83 0.83 0.0 0 0 171.88 268.84
  L 175.08 251.57
  A 0.83 0.83 0.0 0 0 174.31 250.59
  L 159.71 249.77
  A 0.83 0.83 0.0 0 0 158.85 250.45
  L 155.65 267.72
  A 0.83 0.83 0.0 0 0 156.42 268.70
  L 171.02 269.52"
/>
<path stroke="#3685bf" vector-effect="non-scaling-stroke" d="
  M 117.79 259.62
  Q 134.10 263.65 149.58 264.56
  A 0.82 0.81 -82.3 0 0 150.43 263.90
  L 152.23 254.15
  A 0.75 0.74 -80.7 0 0 151.61 253.27
  L 133.86 250.64
  A 1.01 0.99 -65.7 0 0 132.95 250.99
  Q 129.96 254.64 124.99 254.43
  A 1.89 1.88 -58.7 0 0 123.98 254.68
  C 123.10 255.18 122.20 256.51 121.35 257.06
  Q 119.55 258.24 117.74 259.03
  A 0.31 0.31 0.0 0 0 117.79 259.62"
/>
<path stroke="#3685bf" vector-effect="non-scaling-stroke" d="
  M 179.14 265.23
  Q 188.42 265.28 197.01 261.04
  A 0.42 0.41 83.1 0 0 197.24 260.74
  L 198.81 252.28
  A 0.19 0.19 0.0 0 0 198.56 252.07
  Q 190.46 254.87 181.25 254.03
  A 0.70 0.69 7.6 0 0 180.50 254.60
  L 178.64 264.62
  A 0.52 0.52 0.0 0 0 179.14 265.23"
/>
<path stroke="#3685bf" vector-effect="non-scaling-stroke" d="
  M 98.47 253.27
  L 95.74 257.02
  A 2.18 2.09 -23.3 0 0 95.34 257.97
  L 93.37 271.31
  A 1.73 1.73 0.0 0 0 95.95 273.07
  L 98.51 271.59
  A 3.59 3.58 -8.3 0 0 100.20 269.33
  L 103.25 256.75
  A 0.92 0.92 0.0 0 0 102.90 255.80
  L 99.25 253.14
  A 0.56 0.55 -54.0 0 0 98.47 253.27"
/>
<path stroke="#3685bf" vector-effect="non-scaling-stroke" d="
  M 88.43 259.72
  C 81.86 261.23 75.53 259.87 69.41 257.79
  A 0.66 0.65 16.1 0 0 68.57 258.25
  C 68.14 260.00 67.83 265.58 69.50 267.26
  C 72.60 270.38 80.03 271.40 84.27 271.71
  Q 87.07 271.92 87.34 270.65
  C 88.06 267.17 88.80 262.65 89.01 260.23
  A 0.48 0.48 0.0 0 0 88.43 259.72"
/>
<path stroke="#86acca" vector-effect="non-scaling-stroke" d="
  M 140.21 297.64
  Q 159.44 293.43 173.61 280.27
  A 2.91 2.91 0.0 0 1 178.07 280.89
  L 178.08 280.92
  A 4.01 4.00 54.4 0 1 177.23 286.08
  Q 165.36 295.95 154.74 299.49
  A 0.41 0.41 0.0 0 0 154.62 300.21
  L 170.13 312.10
  A 0.39 0.39 0.0 0 0 170.63 312.08
  Q 183.02 300.22 193.99 291.00
  Q 202.35 283.98 211.28 279.85
  A 0.51 0.51 0.0 0 0 211.43 279.03
  L 199.48 267.09
  A 0.70 0.69 54.6 0 0 198.69 266.95
  Q 189.33 271.41 178.58 271.22
  A 0.89 0.88 11.7 0 0 177.75 271.76
  C 176.82 274.01 175.86 275.08 173.06 275.14
  Q 164.63 275.32 153.77 274.47
  Q 150.05 274.18 148.98 271.16
  A 0.82 0.82 0.0 0 0 148.26 270.63
  Q 127.77 269.56 108.85 263.21
  A 0.61 0.60 14.2 0 0 108.06 263.67
  C 106.84 270.40 106.43 277.55 98.06 279.11
  Q 92.85 280.08 85.92 279.31
  A 1.42 1.40 -67.8 0 0 84.64 279.86
  L 69.70 299.33
  A 0.86 0.81 -23.5 0 0 69.53 299.73
  L 68.38 307.50
  A 0.69 0.69 0.0 0 0 68.96 308.28
  L 77.36 309.53
  A 0.86 0.85 11.3 0 0 78.31 308.90
  Q 79.81 303.18 82.05 292.65
  Q 82.54 290.37 84.14 288.82
  A 1.81 1.79 21.3 0 1 85.32 288.31
  Q 87.59 288.22 89.25 288.41
  C 100.87 289.68 111.75 291.38 122.31 295.18
  Q 126.12 296.55 125.67 300.89
  Q 124.59 311.47 122.65 317.48
  A 1.04 1.04 0.0 0 0 124.02 318.77
  L 124.25 318.69
  A 4.57 4.54 88.5 0 0 126.93 315.85
  Q 131.07 303.04 134.10 292.88
  C 134.58 291.27 136.08 287.22 138.00 286.75
  A 1.92 1.63 72.3 0 1 140.00 288.00
  Q 141.39 291.66 139.83 297.23
  A 0.33 0.33 0.0 0 0 140.21 297.64"
/>
<path stroke="#3685bf" vector-effect="non-scaling-stroke" d="
  M 230.03 319.83
  A 0.51 0.50 85.9 0 0 230.45 319.34
  Q 230.62 313.98 230.02 307.00
  C 229.34 299.02 223.41 290.99 217.12 285.09
  A 1.21 1.21 0.0 0 0 215.83 284.86
  C 211.43 286.71 204.75 289.72 202.37 294.00
  A 2.50 2.47 -45.1 0 0 202.36 296.39
  Q 205.59 302.27 207.69 308.01
  C 209.01 311.62 209.16 315.66 209.65 319.30
  A 2.14 2.14 0.0 0 0 211.72 321.15
  Q 220.65 321.38 230.03 319.83"
/>
<path stroke="#3685bf" vector-effect="non-scaling-stroke" d="
  M 119.53 301.09
  A 0.70 0.70 0.0 0 0 119.03 300.37
  Q 103.26 295.45 87.95 294.88
  A 0.35 0.34 -84.3 0 0 87.60 295.17
  Q 84.97 309.04 79.54 324.54
  Q 78.63 327.12 80.39 327.96
  Q 89.49 332.28 99.24 333.58
  Q 103.21 334.10 105.83 333.86
  A 5.36 5.33 -72.7 0 0 109.42 331.96
  C 111.66 329.27 113.83 325.62 114.95 322.43
  Q 118.75 311.66 119.53 301.09"
/>
<path stroke="#86acca" vector-effect="non-scaling-stroke" d="
  M 195.95 298.55
  L 174.69 316.24
  A 0.57 0.56 -26.3 0 0 174.50 316.79
  L 175.61 321.87
  A 0.76 0.75 -6.2 0 0 176.35 322.46
  Q 189.09 322.47 202.16 320.66
  A 1.31 1.30 85.1 0 0 203.28 319.32
  Q 202.90 308.38 196.31 298.60
  A 0.24 0.24 0.0 0 0 195.95 298.55"
/>
<path stroke="#86acca" vector-effect="non-scaling-stroke" d="
  M 75.45 316.17
  Q 71.66 315.82 67.93 314.08
  A 0.62 0.61 -59.0 0 0 67.18 314.27
  L 54.20 332.07
  A 0.69 0.69 0.0 0 0 54.33 333.01
  C 66.18 342.55 83.14 351.27 98.10 352.59
  C 102.73 352.99 104.77 353.68 107.64 349.90
  Q 118.34 335.79 122.69 325.92
  A 0.74 0.73 12.6 0 0 122.03 324.89
  L 121.76 324.88
  A 2.01 1.98 13.1 0 0 119.90 326.02
  Q 117.02 332.12 113.76 336.26
  C 110.26 340.70 105.18 340.14 99.03 339.40
  Q 88.41 338.12 79.65 334.13
  C 75.23 332.12 71.21 329.36 73.51 324.01
  Q 73.95 322.99 75.90 316.84
  A 0.52 0.52 0.0 0 0 75.45 316.17"
/>
<path stroke="#86acca" vector-effect="non-scaling-stroke" d="
  M 229.68 325.73
  Q 217.38 328.22 205.98 326.90
  A 8.40 8.21 43.5 0 0 203.87 326.93
  Q 191.42 328.67 177.33 329.11
  A 0.95 0.94 2.4 0 0 176.41 329.95
  L 175.26 340.77
  A 0.38 0.37 7.0 0 0 175.59 341.18
  Q 201.25 344.77 227.36 340.60
  A 1.67 1.67 0.0 0 0 228.76 339.13
  L 230.14 326.15
  A 0.39 0.38 -2.3 0 0 229.68 325.73"
/>
<path stroke="#3685bf" vector-effect="non-scaling-stroke" d="
  M 100.20 359.06
  C 82.15 357.06 65.27 349.31 50.92 338.35
  A 0.58 0.58 0.0 0 0 50.09 338.47
  Q 46.15 343.91 42.84 351.56
  Q 36.43 366.42 32.16 380.74
  A 1.82 1.82 0.0 0 0 33.08 382.88
  L 42.90 387.89
  A 0.81 0.81 0.0 0 0 44.04 387.44
  C 46.54 380.14 46.71 371.82 42.14 365.37
  A 0.56 0.56 0.0 0 1 42.89 364.57
  Q 46.27 366.59 48.00 369.73
  C 51.00 375.21 50.22 382.99 48.62 388.88
  A 1.03 1.03 0.0 0 0 49.25 390.12
  Q 53.66 391.75 59.95 392.84
  Q 83.09 396.88 106.67 393.33
  A 0.84 0.83 85.0 0 0 107.38 392.48
  C 106.95 379.63 87.91 376.28 78.50 376.54
  Q 72.56 376.71 67.33 379.56
  Q 66.38 380.07 64.74 379.47
  C 61.89 378.43 63.90 375.29 65.62 374.32
  C 73.92 369.71 81.89 370.11 91.07 371.30
  A 0.44 0.43 21.7 0 0 91.47 371.13
  L 100.39 359.50
  A 0.27 0.27 0.0 0 0 100.20 359.06"
/>
<path stroke="#3685bf" vector-effect="non-scaling-stroke" d="
  M 226.92 346.88
  Q 200.34 351.21 174.18 347.45
  A 0.71 0.70 9.3 0 0 173.38 348.02
  L 170.63 362.89
  A 0.44 0.44 0.0 0 0 171.12 363.41
  C 179.60 362.21 186.36 368.95 188.59 376.70
  Q 189.98 381.54 190.12 386.45
  A 1.09 1.09 0.0 0 0 191.12 387.50
  C 209.34 389.07 228.82 389.31 247.30 386.91
  A 1.13 1.12 -7.8 0 0 248.27 385.64
  Q 247.00 376.41 238.38 372.56
  Q 223.28 365.82 206.57 371.85
  A 1.75 1.75 0.0 0 1 204.25 369.88
  L 204.46 368.74
  A 3.70 3.69 84.5 0 1 206.75 365.96
  Q 215.41 362.54 223.99 362.84
  A 0.74 0.73 -83.2 0 0 224.74 362.24
  L 227.48 347.46
  A 0.49 0.49 0.0 0 0 226.92 346.88"
/>
<path stroke="#3685bf" vector-effect="non-scaling-stroke" d="
  M 170.77 364.30
  A 0.55 0.55 0.0 0 0 169.99 364.66
  Q 167.68 374.36 167.17 383.64
  A 0.68 0.68 0.0 0 0 167.77 384.35
  L 184.21 386.10
  A 0.61 0.61 0.0 0 0 184.88 385.52
  C 185.23 378.30 181.92 369.18 174.84 366.19
  Q 172.95 365.39 170.77 364.30"
/>
<path stroke="#3685bf" vector-effect="non-scaling-stroke" d="
  M 106.40 398.77
  C 81.81 403.10 54.37 400.71 32.16 388.95
  A 1.70 1.70 0.0 0 0 29.67 390.36
  L 29.51 393.11
  A 3.96 3.96 0.0 0 0 31.66 396.85
  L 41.80 402.02
  A 0.68 0.68 0.0 0 0 42.77 401.57
  C 43.45 398.71 45.47 397.82 47.83 400.03
  C 50.03 402.09 55.74 405.62 58.40 405.95
  Q 81.55 408.83 105.47 405.80
  A 2.97 2.97 0.0 0 0 108.06 403.02
  L 108.21 400.38
  A 1.55 1.54 86.6 0 0 106.40 398.77"
/>
<path stroke="#3685bf" vector-effect="non-scaling-stroke" d="
  M 183.25 399.79
  C 184.47 396.17 187.37 396.50 190.69 397.77
  Q 198.68 400.83 202.26 401.08
  Q 223.59 402.59 246.33 399.93
  A 2.13 2.12 89.7 0 0 248.19 398.04
  L 248.68 393.47
  A 1.24 1.23 -0.6 0 0 247.30 392.12
  Q 215.55 396.20 182.36 392.08
  Q 173.05 390.92 168.16 390.61
  A 1.71 1.71 0.0 0 0 166.38 392.68
  L 166.96 395.31
  A 3.59 3.58 -0.7 0 0 169.81 398.08
  L 182.24 400.38
  A 0.90 0.89 14.7 0 0 183.25 399.79"
/>
<path stroke="#fdc094" vector-effect="non-scaling-stroke" d="
  M 236.56 66.72
  Q 240.93 70.76 242.80 72.10
  C 248.48 76.18 253.22 70.75 250.84 65.03
  Q 249.29 61.30 245.14 57.45
  Q 240.98 53.61 237.14 52.35
  C 231.25 50.43 226.20 55.58 230.72 60.93
  Q 232.20 62.69 236.56 66.72"
/>
<path stroke="#fd902e" vector-effect="non-scaling-stroke" d="
  M 445.95 128.40
  C 449.02 122.38 452.01 116.92 450.16 110.08
  A 0.67 0.67 0.0 0 0 449.01 109.82
  C 434.94 126.05 413.95 136.77 393.85 142.58
  Q 375.09 148.00 367.10 150.33
  A 0.39 0.39 0.0 0 0 366.94 150.99
  Q 367.13 151.17 367.58 151.22
  C 374.06 151.83 382.51 151.73 389.00 152.59
  Q 401.99 154.32 414.10 156.87
  C 419.85 158.09 427.95 160.94 431.96 163.28
  C 440.09 168.00 446.91 172.88 454.11 174.75
  C 458.07 175.78 463.92 177.10 467.53 176.33
  A 0.56 0.56 0.0 0 0 467.75 175.34
  C 462.07 171.01 457.53 166.75 453.45 161.17
  Q 450.60 157.27 447.74 153.63
  A 0.56 0.55 70.3 0 1 448.16 152.73
  Q 453.97 152.60 459.58 153.76
  Q 472.57 156.46 483.41 159.97
  C 497.81 164.63 511.90 171.91 526.86 173.86
  C 532.43 174.59 540.66 174.35 545.30 171.00
  A 0.47 0.46 37.5 0 0 545.19 170.19
  C 539.35 167.98 533.17 165.69 529.02 161.25
  Q 524.14 156.01 521.79 148.41
  A 0.64 0.64 0.0 0 1 522.28 147.59
  C 529.19 146.20 536.19 147.06 544.08 147.34
  Q 559.86 147.90 575.52 142.98
  Q 584.10 140.29 589.84 134.01
  A 0.57 0.57 0.0 0 0 589.51 133.06
  Q 588.02 132.83 586.00 133.00
  C 574.98 133.97 566.44 130.92 556.50 127.16
  C 548.60 124.16 540.48 123.76 532.25 124.27
  Q 530.29 124.40 528.30 123.93
  A 0.60 0.60 0.0 0 1 527.96 122.97
  C 531.75 118.21 532.79 109.75 534.33 101.28
  C 535.86 92.81 539.28 86.01 542.38 80.05
  A 0.81 0.81 0.0 0 0 541.66 78.87
  C 530.37 78.93 523.29 83.49 515.00 91.67
  Q 506.43 100.13 505.52 101.03
  Q 495.08 111.47 481.99 117.23
  Q 465.63 124.43 446.94 129.61
  A 0.85 0.85 0.0 0 1 445.95 128.40"
/>
<path stroke="#3685bf" vector-effect="non-scaling-stroke" d="
  M 107.89 77.08
  A 0.38 0.38 0.0 0 0 107.60 77.76
  Q 112.77 81.73 113.71 88.54
  C 114.55 94.69 112.47 99.59 109.28 104.82
  A 1.25 1.25 0.0 0 0 110.16 106.71
  Q 111.03 106.84 111.91 106.09
  C 119.90 99.21 121.75 79.12 107.89 77.08"
/>
<path stroke="#86acca" vector-effect="non-scaling-stroke" d="
  M 181.1081 193.5970
  A 2.04 2.04 0.0 0 0 180.1974 190.8595
  L 179.3748 190.4476
  A 2.04 2.04 0.0 0 0 176.6373 191.3583
  L 168.1119 208.3830
  A 2.04 2.04 0.0 0 0 169.0226 211.1205
  L 169.8452 211.5324
  A 2.04 2.04 0.0 0 0 172.5827 210.6217
  L 181.1081 193.5970"
/>
<path stroke="#86acca" vector-effect="non-scaling-stroke" d="
  M 164.24 191.92
  Q 160.12 193.90 157.21 195.86
  C 152.20 199.24 158.54 203.67 161.96 206.54
  A 2.42 2.41 -48.0 0 0 165.26 206.36
  L 165.46 206.15
  A 2.23 2.23 0.0 0 0 165.16 202.80
  Q 163.96 201.93 162.37 201.09
  A 1.80 1.63 23.8 0 1 161.46 199.05
  C 162.05 197.33 164.60 196.68 166.95 195.63
  A 1.60 1.60 0.0 0 0 167.61 193.26
  L 167.23 192.71
  A 2.39 2.38 59.8 0 0 164.24 191.92"
/>
<path stroke="#86acca" vector-effect="non-scaling-stroke" d="
  M 186.12 203.20
  Q 184.33 204.53 182.39 205.16
  A 2.12 1.79 -20.1 0 0 180.95 207.68
  Q 181.58 209.16 183.45 209.82
  A 0.87 0.86 28.7 0 0 184.41 209.54
  Q 186.79 206.53 191.60 204.41
  A 2.44 2.44 0.0 0 0 192.64 200.80
  Q 192.37 200.38 189.35 198.05
  A 0.40 0.35 6.9 0 1 189.24 197.93
  L 186.64 194.39
  A 1.28 1.23 74.3 0 0 185.77 193.88
  C 182.89 193.53 181.19 197.33 183.38 199.40
  Q 186.36 202.20 186.38 202.23
  A 0.81 0.79 -30.7 0 1 186.12 203.20"
/>
<path stroke="#3685bf" vector-effect="non-scaling-stroke" d="
  M 77.4746 244.9030
  A 3.80 3.67 -102.7 0 0 74.7298 249.4168
  A 3.80 3.67 -102.7 0 0 79.1454 252.3170
  A 3.80 3.67 -102.7 0 0 81.8902 247.8032
  A 3.80 3.67 -102.7 0 0 77.4746 244.9030"
/>
</g>
<g fill="#fffefb">
<path d="
  M 250.32 41.35
  A 0.21 0.21 0.0 0 1 250.04 41.65
  C 240.78 36.06 231.25 34.32 220.38 33.65
  C 203.62 32.62 184.96 36.53 171.93 47.86
  C 157.21 60.67 150.86 83.11 154.15 102.06
  C 157.52 121.44 169.20 135.24 187.54 142.83
  Q 205.08 150.10 224.59 147.68
  A 0.31 0.30 29.1 0 1 224.76 148.26
  L 218.36 151.14
  A 11.84 11.66 28.2 0 1 215.29 152.04
  C 197.98 154.58 181.33 152.86 163.38 147.91
  Q 145.12 142.88 131.55 135.78
  C 127.40 133.61 123.70 130.05 119.89 128.15
  Q 113.99 125.20 107.92 124.11
  A 3.86 3.84 77.3 0 1 105.47 122.55
  L 100.69 115.81
  A 0.32 0.31 -2.3 0 1 101.11 115.36
  C 113.12 122.39 125.08 116.11 130.73 104.51
  Q 134.70 96.38 134.07 87.21
  C 133.40 77.28 127.11 67.71 117.26 65.07
  Q 107.03 62.33 99.00 69.07
  A 0.28 0.28 0.0 0 1 98.55 68.79
  C 106.70 34.50 134.64 13.01 169.01 8.50
  C 200.90 4.31 231.39 15.25 250.32 41.35
  Z"
/>
<path d="
  M 245.14 57.45
  Q 249.29 61.30 250.84 65.03
  C 253.22 70.75 248.48 76.18 242.80 72.10
  Q 240.93 70.76 236.56 66.72
  Q 232.20 62.69 230.72 60.93
  C 226.20 55.58 231.25 50.43 237.14 52.35
  Q 240.98 53.61 245.14 57.45
  Z"
/>
<path d="
  M 98.45 189.65
  A 0.26 0.26 0.0 0 1 98.34 189.29
  L 106.51 175.44
  A 3.08 3.08 0.0 0 0 105.52 171.29
  L 105.40 171.21
  A 2.64 2.64 0.0 0 0 101.80 171.91
  L 91.79 186.29
  A 1.30 1.30 0.0 0 1 90.07 186.66
  Q 84.04 183.05 77.70 181.55
  A 3.92 3.92 0.0 0 0 73.25 183.70
  L 73.17 183.88
  A 3.24 3.24 0.0 0 0 75.13 188.21
  L 83.98 191.18
  A 0.55 0.54 35.0 0 1 84.15 192.12
  C 78.01 196.93 72.93 204.19 69.23 211.03
  Q 65.31 218.29 64.36 226.25
  A 0.29 0.29 0.0 0 1 63.93 226.47
  C 49.11 218.13 37.17 208.90 40.48 189.50
  Q 42.24 179.22 47.52 170.77
  Q 56.10 157.05 67.97 145.41
  C 77.38 136.17 91.18 131.83 102.87 139.39
  C 121.24 151.27 120.96 177.48 108.10 193.33
  A 1.42 1.41 -56.9 0 1 106.37 193.70
  L 98.45 189.65
  Z"
/>
<path d="
  M 224.27 179.87
  Q 224.49 169.45 222.77 160.57
  A 0.95 0.93 -23.9 0 1 223.15 159.62
  L 226.49 157.25
  A 0.84 0.83 -44.3 0 1 227.46 157.26
  L 235.73 163.29
  A 1.02 1.01 36.0 0 1 235.96 164.71
  L 224.77 180.04
  A 0.28 0.28 0.0 0 1 224.27 179.87
  Z"
/>
<path d="
  M 128.37 201.40
  A 0.24 0.24 0.0 0 1 128.19 201.01
  C 136.79 189.43 140.51 173.60 139.91 159.59
  A 0.36 0.35 12.0 0 1 140.43 159.26
  C 160.28 169.13 183.62 172.45 205.69 171.03
  A 0.82 0.81 -3.9 0 1 206.56 171.78
  C 207.35 182.76 206.63 194.32 206.43 204.71
  A 0.93 0.89 -27.8 0 1 206.27 205.19
  L 201.71 211.43
  A 0.38 0.37 67.5 0 1 201.04 211.15
  Q 204.21 190.00 204.39 188.63
  C 204.82 185.51 205.48 180.72 202.30 178.62
  Q 200.94 177.73 196.07 177.49
  Q 177.78 176.57 156.03 173.18
  C 150.66 172.34 148.78 176.30 147.83 181.08
  Q 144.95 195.67 142.67 208.49
  A 0.39 0.39 0.0 0 1 142.01 208.70
  C 138.00 204.83 134.04 201.90 128.37 201.40
  Z"
/>
<path d="
  M 148.06 214.85
  L 154.43 180.52
  A 1.40 1.38 9.7 0 1 156.03 179.40
  Q 175.23 182.54 194.75 183.43
  Q 196.64 183.52 197.67 183.79
  A 1.31 1.30 11.7 0 1 198.63 185.24
  L 193.82 217.68
  A 0.88 0.87 5.8 0 1 192.91 218.42
  L 183.14 218.03
  A 0.63 0.58 -23.5 0 1 182.82 217.92
  L 180.41 216.34
  A 1.25 1.25 0.0 0 0 179.75 216.13
  L 148.44 215.32
  A 0.40 0.40 0.0 0 1 148.06 214.85
  Z
  M 181.1081 193.5970
  A 2.04 2.04 0.0 0 0 180.1974 190.8595
  L 179.3748 190.4476
  A 2.04 2.04 0.0 0 0 176.6373 191.3583
  L 168.1119 208.3830
  A 2.04 2.04 0.0 0 0 169.0226 211.1205
  L 169.8452 211.5324
  A 2.04 2.04 0.0 0 0 172.5827 210.6217
  L 181.1081 193.5970
  Z
  M 164.24 191.92
  Q 160.12 193.90 157.21 195.86
  C 152.20 199.24 158.54 203.67 161.96 206.54
  A 2.42 2.41 -48.0 0 0 165.26 206.36
  L 165.46 206.15
  A 2.23 2.23 0.0 0 0 165.16 202.80
  Q 163.96 201.93 162.37 201.09
  A 1.80 1.63 23.8 0 1 161.46 199.05
  C 162.05 197.33 164.60 196.68 166.95 195.63
  A 1.60 1.60 0.0 0 0 167.61 193.26
  L 167.23 192.71
  A 2.39 2.38 59.8 0 0 164.24 191.92
  Z
  M 186.12 203.20
  Q 184.33 204.53 182.39 205.16
  A 2.12 1.79 -20.1 0 0 180.95 207.68
  Q 181.58 209.16 183.45 209.82
  A 0.87 0.86 28.7 0 0 184.41 209.54
  Q 186.79 206.53 191.60 204.41
  A 2.44 2.44 0.0 0 0 192.64 200.80
  Q 192.37 200.38 189.35 198.05
  A 0.40 0.35 6.9 0 1 189.24 197.93
  L 186.64 194.39
  A 1.28 1.23 74.3 0 0 185.77 193.88
  C 182.89 193.53 181.19 197.33 183.38 199.40
  Q 186.36 202.20 186.38 202.23
  A 0.81 0.79 -30.7 0 1 186.12 203.20
  Z"
/>
<path d="
  M 236.90 226.98
  Q 228.75 223.81 221.20 217.63
  A 0.49 0.48 -52.1 0 1 221.12 216.97
  L 247.62 180.63
  A 0.47 0.47 0.0 0 1 248.40 180.67
  Q 249.89 183.18 252.04 184.21
  A 0.74 0.74 0.0 0 1 252.46 185.01
  C 252.02 187.56 251.44 188.39 248.85 189.18
  C 242.27 191.17 238.37 197.80 236.36 204.41
  C 233.95 212.37 234.94 218.76 237.41 226.49
  A 0.39 0.39 0.0 0 1 236.90 226.98
  Z"
/>
<path d="
  M 268.60 198.34
  Q 266.85 196.91 265.94 195.01
  C 267.28 190.00 268.37 184.51 274.01 182.78
  C 277.89 181.59 280.97 183.26 282.96 186.80
  Q 286.28 192.71 284.19 199.95
  C 282.07 207.24 275.40 205.73 274.20 199.02
  Q 274.09 198.43 273.72 193.30
  A 0.95 0.95 0.0 0 0 272.61 192.43
  C 270.32 192.83 269.31 196.36 268.60 198.34
  Z"
/>
<path d="
  M 291.01 187.07
  C 295.51 187.63 306.84 188.34 307.92 193.59
  Q 308.37 195.74 307.59 197.54
  A 1.30 1.29 -73.1 0 1 306.16 198.31
  L 292.55 195.79
  A 1.09 1.09 0.0 0 1 291.66 194.82
  L 290.86 187.21
  A 0.13 0.13 0.0 0 1 291.01 187.07
  Z"
/>
<path d="
  M 252.24 229.01
  A 0.73 0.73 0.0 0 1 251.55 230.12
  L 247.75 229.72
  A 2.40 2.40 0.0 0 1 245.93 228.54
  C 241.15 220.32 239.99 204.41 247.58 197.44
  A 0.27 0.27 0.0 0 1 248.03 197.71
  Q 243.45 215.09 252.24 229.01
  Z"
/>
<path d="
  M 291.05 201.77
  L 302.82 204.76
  A 3.89 3.89 0.0 0 1 305.76 208.63
  L 305.71 210.58
  A 3.14 3.13 -84.0 0 1 302.01 213.58
  L 285.08 210.44
  A 0.34 0.34 0.0 0 1 284.97 209.81
  Q 288.97 207.42 290.27 202.24
  A 0.65 0.64 -75.6 0 1 291.05 201.77
  Z"
/>
<path d="
  M 137.65 215.24
  Q 137.38 215.26 135.36 214.03
  Q 133.97 213.19 133.10 213.50
  C 130.50 214.42 131.55 217.65 132.86 218.90
  C 138.48 224.24 142.83 228.65 144.35 235.63
  C 145.32 240.08 141.65 243.05 137.59 240.42
  Q 136.86 239.95 134.74 237.89
  A 1.69 1.68 -18.6 0 0 133.81 237.43
  C 131.70 237.10 131.01 238.79 130.93 240.87
  Q 130.77 244.91 126.72 247.40
  A 2.77 2.75 34.0 0 1 124.77 247.77
  L 122.12 247.28
  A 2.28 2.28 0.0 0 0 119.63 248.56
  L 118.38 251.25
  A 1.59 1.55 82.9 0 1 118.00 251.75
  Q 116.33 253.17 114.78 253.41
  C 111.36 253.94 105.26 248.76 101.02 245.16
  Q 96.93 241.69 98.28 236.82
  Q 102.60 221.35 113.78 210.04
  C 115.95 207.85 123.21 207.91 126.45 208.12
  C 131.68 208.45 134.79 211.02 137.88 214.69
  A 0.34 0.33 67.8 0 1 137.65 215.24
  Z"
/>
<path d="
  M 279.63 213.94
  C 281.89 217.07 293.86 219.00 298.49 219.40
  A 2.78 2.78 0.0 0 1 300.64 223.60
  L 300.32 224.14
  A 6.39 6.39 0.0 0 1 294.20 227.20
  Q 286.60 226.41 280.62 222.55
  A 5.92 5.90 -76.7 0 1 277.95 218.21
  L 277.59 214.73
  A 1.13 1.13 0.0 0 1 279.63 213.94
  Z"
/>
<path d="
  M 60.30 244.23
  L 57.30 243.25
  A 0.94 0.94 0.0 0 1 56.66 242.42
  Q 56.31 236.72 57.90 231.56
  A 0.38 0.38 0.0 0 1 58.44 231.33
  L 63.88 234.11
  A 0.54 0.53 22.7 0 1 64.15 234.76
  L 61.18 243.79
  A 0.70 0.70 0.0 0 1 60.30 244.23
  Z"
/>
<path d="
  M 146.96 245.74
  Q 150.06 244.04 151.11 239.44
  A 1.02 1.02 0.0 0 1 152.16 238.65
  L 178.25 240.12
  A 1.82 1.80 35.2 0 0 179.02 239.99
  Q 180.28 239.47 181.19 238.00
  A 1.09 1.09 0.0 0 1 182.19 237.50
  Q 192.35 238.31 201.69 235.47
  A 0.09 0.08 -87.9 0 1 201.79 235.58
  L 198.56 245.38
  A 0.54 0.53 89.1 0 1 198.25 245.71
  Q 189.85 249.08 181.14 247.81
  A 1.08 1.05 -11.9 0 1 180.40 247.34
  C 178.65 244.71 176.55 244.68 173.00 244.44
  Q 160.35 243.59 156.11 243.93
  A 2.14 2.12 26.2 0 0 155.10 244.27
  Q 154.20 244.87 153.67 246.21
  A 0.86 0.85 -77.3 0 1 152.82 246.75
  L 147.12 246.43
  A 0.37 0.37 0.0 0 1 146.96 245.74
  Z"
/>
<path d="
  M 62.97 278.99
  A 0.37 0.37 0.0 0 1 62.34 278.94
  C 60.99 276.28 58.08 270.51 57.17 266.64
  Q 55.45 259.32 55.46 251.15
  A 1.67 1.66 -76.5 0 1 57.88 249.66
  L 60.92 251.21
  A 3.54 3.54 0.0 0 1 62.73 255.27
  C 61.24 260.90 60.57 269.52 66.07 273.64
  A 0.65 0.65 0.0 0 1 66.20 274.55
  L 62.97 278.99
  Z"
/>
<path d="
  M 140.21 297.64
  A 0.33 0.33 0.0 0 1 139.83 297.23
  Q 141.39 291.66 140.00 288.00
  A 1.92 1.63 72.3 0 0 138.00 286.75
  C 136.08 287.22 134.58 291.27 134.10 292.88
  Q 131.07 303.04 126.93 315.85
  A 4.57 4.54 88.5 0 1 124.25 318.69
  L 124.02 318.77
  A 1.04 1.04 0.0 0 1 122.65 317.48
  Q 124.59 311.47 125.67 300.89
  Q 126.12 296.55 122.31 295.18
  C 111.75 291.38 100.87 289.68 89.25 288.41
  Q 87.59 288.22 85.32 288.31
  A 1.81 1.79 21.3 0 0 84.14 288.82
  Q 82.54 290.37 82.05 292.65
  Q 79.81 303.18 78.31 308.90
  A 0.86 0.85 11.3 0 1 77.36 309.53
  L 68.96 308.28
  A 0.69 0.69 0.0 0 1 68.38 307.50
  L 69.53 299.73
  A 0.86 0.81 -23.5 0 1 69.70 299.33
  L 84.64 279.86
  A 1.42 1.40 -67.8 0 1 85.92 279.31
  Q 92.85 280.08 98.06 279.11
  C 106.43 277.55 106.84 270.40 108.06 263.67
  A 0.61 0.60 14.2 0 1 108.85 263.21
  Q 127.77 269.56 148.26 270.63
  A 0.82 0.82 0.0 0 1 148.98 271.16
  Q 150.05 274.18 153.77 274.47
  Q 164.63 275.32 173.06 275.14
  C 175.86 275.08 176.82 274.01 177.75 271.76
  A 0.89 0.88 11.7 0 1 178.58 271.22
  Q 189.33 271.41 198.69 266.95
  A 0.70 0.69 54.6 0 1 199.48 267.09
  L 211.43 279.03
  A 0.51 0.51 0.0 0 1 211.28 279.85
  Q 202.35 283.98 193.99 291.00
  Q 183.02 300.22 170.63 312.08
  A 0.39 0.39 0.0 0 1 170.13 312.10
  L 154.62 300.21
  A 0.41 0.41 0.0 0 1 154.74 299.49
  Q 165.36 295.95 177.23 286.08
  A 4.01 4.00 54.4 0 0 178.08 280.92
  L 178.07 280.89
  A 2.91 2.91 0.0 0 0 173.61 280.27
  Q 159.44 293.43 140.21 297.64
  Z"
/>
<path d="
  M 195.95 298.55
  A 0.24 0.24 0.0 0 1 196.31 298.60
  Q 202.90 308.38 203.28 319.32
  A 1.31 1.30 85.1 0 1 202.16 320.66
  Q 189.09 322.47 176.35 322.46
  A 0.76 0.75 -6.2 0 1 175.61 321.87
  L 174.50 316.79
  A 0.57 0.56 -26.3 0 1 174.69 316.24
  L 195.95 298.55
  Z"
/>
<path d="
  M 75.90 316.84
  Q 73.95 322.99 73.51 324.01
  C 71.21 329.36 75.23 332.12 79.65 334.13
  Q 88.41 338.12 99.03 339.40
  C 105.18 340.14 110.26 340.70 113.76 336.26
  Q 117.02 332.12 119.90 326.02
  A 2.01 1.98 13.1 0 1 121.76 324.88
  L 122.03 324.89
  A 0.74 0.73 12.6 0 1 122.69 325.92
  Q 118.34 335.79 107.64 349.90
  C 104.77 353.68 102.73 352.99 98.10 352.59
  C 83.14 351.27 66.18 342.55 54.33 333.01
  A 0.69 0.69 0.0 0 1 54.20 332.07
  L 67.18 314.27
  A 0.62 0.61 -59.0 0 1 67.93 314.08
  Q 71.66 315.82 75.45 316.17
  A 0.52 0.52 0.0 0 1 75.90 316.84
  Z"
/>
<path d="
  M 229.68 325.73
  A 0.39 0.38 -2.3 0 1 230.14 326.15
  L 228.76 339.13
  A 1.67 1.67 0.0 0 1 227.36 340.60
  Q 201.25 344.77 175.59 341.18
  A 0.38 0.37 7.0 0 1 175.26 340.77
  L 176.41 329.95
  A 0.95 0.94 2.4 0 1 177.33 329.11
  Q 191.42 328.67 203.87 326.93
  A 8.40 8.21 43.5 0 1 205.98 326.90
  Q 217.38 328.22 229.68 325.73
  Z"
/>
</g>
<g fill="#0c5a99">
<path d="
  M 187.24 0.00
  Q 197.53 1.24 201.30 1.96
  C 225.10 6.48 244.54 19.89 258.09 39.16
  C 268.99 54.66 273.29 74.27 272.01 93.27
  C 271.01 108.20 265.76 123.06 255.22 133.65
  Q 245.66 143.24 233.71 151.82
  A 0.96 0.96 0.0 0 0 233.62 153.30
  L 238.03 157.45
  A 2.24 2.23 52.7 0 0 240.59 157.80
  Q 240.76 157.71 243.03 155.61
  C 246.23 152.66 248.27 154.93 251.70 154.53
  Q 281.39 151.05 315.17 147.36
  C 318.17 147.03 319.01 146.70 320.53 144.51
  Q 321.87 142.57 323.79 142.24
  Q 327.64 141.58 330.06 140.58
  A 5.28 4.85 -69.2 0 0 330.72 140.25
  Q 334.57 137.98 336.63 137.62
  Q 341.82 136.72 352.51 135.69
  Q 357.77 135.18 359.72 140.24
  L 352.73 142.45
  A 1.41 1.40 88.9 0 0 351.79 143.43
  Q 349.70 151.62 352.23 160.77
  A 2.96 2.95 -4.0 0 0 354.71 162.92
  L 362.23 163.86
  Q 362.32 170.35 356.98 171.22
  Q 348.00 172.68 339.39 173.78
  A 2.95 2.94 -27.5 0 1 337.05 173.05
  Q 333.69 170.03 328.58 171.88
  Q 327.64 172.22 324.29 171.65
  A 1.26 1.24 -10.1 0 1 323.44 171.07
  Q 321.96 168.61 317.50 168.99
  Q 313.11 169.35 307.35 170.27
  A 2.60 2.59 87.9 0 0 305.18 172.62
  L 304.87 176.46
  A 1.79 1.68 -32.8 0 1 304.72 177.06
  C 303.84 179.12 303.19 181.79 305.66 182.85
  Q 312.03 185.57 314.42 191.74
  C 315.80 195.29 314.37 198.76 312.76 202.80
  A 5.84 5.79 -33.1 0 0 312.34 204.75
  C 312.10 209.76 312.78 214.50 309.08 218.69
  A 3.19 3.13 -16.0 0 0 308.44 219.82
  C 306.71 225.46 305.72 230.14 300.35 232.81
  A 1.67 1.58 30.3 0 1 299.62 232.98
  L 290.24 232.98
  A 1.68 1.68 0.0 0 0 288.84 233.73
  C 285.57 238.60 282.54 242.25 276.07 240.39
  Q 270.08 238.67 266.05 236.74
  C 264.98 236.23 262.15 236.19 260.65 236.38
  Q 235.85 239.65 217.37 223.09
  A 0.75 0.75 0.0 0 0 216.27 223.20
  L 209.65 232.28
  A 1.79 1.72 70.4 0 0 209.37 232.90
  Q 207.61 240.10 205.26 246.04
  Q 204.97 246.77 205.13 250.76
  Q 205.30 254.80 203.99 258.74
  C 203.39 260.56 203.91 261.76 205.37 263.10
  Q 215.81 272.73 224.93 283.06
  C 231.60 290.62 236.63 298.50 236.98 309.08
  Q 237.47 324.25 236.39 332.90
  Q 234.51 347.95 230.97 362.51
  A 1.08 1.08 0.0 0 0 231.71 363.80
  C 235.93 365.07 238.97 365.57 242.40 367.31
  Q 254.91 373.65 254.95 388.49
  Q 254.95 388.84 255.05 396.07
  A 0.94 0.94 0.0 0 0 256.04 397.00
  C 263.30 396.64 272.43 397.67 278.61 402.02
  A 1.14 1.14 0.0 0 1 278.95 403.50
  C 277.50 406.11 272.56 407.72 269.54 408.22
  Q 244.41 412.38 226.25 412.78
  Q 220.70 412.91 200.25 413.35
  Q 198.86 413.38 198.25 413.39
  Q 195.91 413.39 192.28 413.71
  Q 188.86 414.01 186.28 414.01
  Q 146.51 413.94 79.50 414.05
  Q 74.30 414.05 65.84 413.41
  Q 57.69 412.79 49.69 409.65
  A 4.09 4.00 52.0 0 0 47.82 409.40
  C 42.31 409.94 36.90 407.15 32.24 404.58
  C 27.29 401.85 23.67 400.17 22.87 394.48
  A 2.46 2.42 44.6 0 1 22.86 393.82
  Q 23.34 389.37 23.87 387.18
  C 28.28 369.19 34.39 350.44 43.97 335.47
  Q 49.93 326.16 58.66 314.82
  Q 60.15 312.88 60.76 311.65
  Q 61.99 309.16 62.22 307.84
  A 0.55 0.55 0.0 0 0 61.26 307.39
  Q 60.46 308.35 54.74 311.93
  Q 44.38 318.43 32.01 319.08
  C 22.43 319.59 12.56 315.76 6.89 307.86
  C -2.91 294.18 0.41 278.20 8.11 264.64
  Q 13.67 254.85 21.70 244.38
  A 1.71 1.71 0.0 0 0 21.48 242.06
  C 11.07 232.82 10.32 223.28 14.62 210.37
  Q 27.45 171.82 40.21 132.74
  Q 42.79 124.84 45.32 118.56
  C 49.44 108.32 59.23 99.81 70.75 99.92
  Q 83.27 100.03 89.01 99.98
  A 0.56 0.55 -6.0 0 0 89.55 99.32
  Q 89.53 99.22 89.26 98.73
  Q 89.04 98.33 89.04 97.97
  C 88.97 92.15 88.63 82.90 89.70 75.97
  C 92.92 55.07 102.38 35.76 118.62 22.30
  Q 136.84 7.19 160.11 2.34
  C 164.90 1.34 170.68 0.80 176.00 0.00
  L 187.24 0.00
  Z
  M 250.32 41.35
  C 231.39 15.25 200.90 4.31 169.01 8.50
  C 134.64 13.01 106.70 34.50 98.55 68.79
  A 0.28 0.28 0.0 0 0 99.00 69.07
  Q 107.03 62.33 117.26 65.07
  C 127.11 67.71 133.40 77.28 134.07 87.21
  Q 134.70 96.38 130.73 104.51
  C 125.08 116.11 113.12 122.39 101.11 115.36
  A 0.32 0.31 -2.3 0 0 100.69 115.81
  L 105.47 122.55
  A 3.86 3.84 77.3 0 0 107.92 124.11
  Q 113.99 125.20 119.89 128.15
  C 123.70 130.05 127.40 133.61 131.55 135.78
  Q 145.12 142.88 163.38 147.91
  C 181.33 152.86 197.98 154.58 215.29 152.04
  A 11.84 11.66 28.2 0 0 218.36 151.14
  L 224.76 148.26
  A 0.31 0.30 29.1 0 0 224.59 147.68
  Q 205.08 150.10 187.54 142.83
  C 169.20 135.24 157.52 121.44 154.15 102.06
  C 150.86 83.11 157.21 60.67 171.93 47.86
  C 184.96 36.53 203.62 32.62 220.38 33.65
  C 231.25 34.32 240.78 36.06 250.04 41.65
  A 0.21 0.21 0.0 0 0 250.32 41.35
  Z
  M 164.35 71.46
  C 155.56 95.56 162.28 121.17 185.55 133.70
  Q 203.00 143.11 224.00 141.17
  C 235.34 140.12 244.43 134.61 252.01 126.29
  C 265.53 111.47 268.42 82.14 260.57 64.28
  C 255.54 52.83 244.43 44.66 231.98 42.18
  C 205.27 36.87 174.55 43.49 164.35 71.46
  Z
  M 96.48 90.58
  C 96.18 97.71 98.04 105.71 104.27 109.60
  C 111.52 114.13 119.29 110.24 123.61 103.78
  Q 127.00 98.70 127.29 91.85
  Q 127.57 85.00 124.60 79.66
  C 120.83 72.87 113.41 68.35 105.81 72.27
  C 99.28 75.63 96.77 83.45 96.48 90.58
  Z
  M 86.64 106.87
  C 89.49 112.90 89.34 119.63 87.84 126.09
  A 0.36 0.36 0.0 0 0 88.23 126.53
  L 97.90 125.52
  A 0.54 0.54 0.0 0 0 98.29 124.68
  Q 92.77 116.60 90.30 107.37
  A 1.68 1.68 0.0 0 0 88.77 106.12
  L 87.21 106.04
  A 0.59 0.58 -10.8 0 0 86.64 106.87
  Z
  M 42.44 220.62
  A 1.17 1.14 -59.6 0 0 42.17 219.54
  C 23.80 199.83 37.05 170.52 51.36 153.34
  Q 61.78 140.84 69.54 135.21
  C 73.11 132.63 75.42 131.34 79.38 129.99
  A 2.08 2.07 -1.5 0 0 80.70 128.61
  C 82.74 121.55 84.38 113.49 79.91 107.15
  A 1.30 1.30 0.0 0 0 78.97 106.62
  Q 70.20 106.01 65.93 107.65
  Q 54.67 111.98 50.60 123.81
  Q 48.67 129.41 20.34 215.33
  C 17.71 223.31 18.61 233.07 26.88 236.71
  C 33.38 239.57 38.76 233.59 40.43 227.93
  Q 41.38 224.68 42.44 220.62
  Z
  M 99.22 130.90
  C 100.49 131.67 102.29 131.98 103.85 132.83
  C 123.55 143.42 127.62 165.82 119.92 185.65
  Q 117.35 192.25 112.72 197.39
  A 0.77 0.77 0.0 0 0 112.82 198.52
  L 117.03 201.74
  A 1.55 1.55 0.0 0 0 118.88 201.78
  Q 119.85 201.10 121.13 199.40
  C 136.57 178.74 140.75 144.48 112.07 132.09
  Q 108.99 130.77 99.35 130.45
  A 0.24 0.24 0.0 0 0 99.22 130.90
  Z
  M 98.45 189.65
  L 106.37 193.70
  A 1.42 1.41 -56.9 0 0 108.10 193.33
  C 120.96 177.48 121.24 151.27 102.87 139.39
  C 91.18 131.83 77.38 136.17 67.97 145.41
  Q 56.10 157.05 47.52 170.77
  Q 42.24 179.22 40.48 189.50
  C 37.17 208.90 49.11 218.13 63.93 226.47
  A 0.29 0.29 0.0 0 0 64.36 226.25
  Q 65.31 218.29 69.23 211.03
  C 72.93 204.19 78.01 196.93 84.15 192.12
  A 0.55 0.54 35.0 0 0 83.98 191.18
  L 75.13 188.21
  A 3.24 3.24 0.0 0 1 73.17 183.88
  L 73.25 183.70
  A 3.92 3.92 0.0 0 1 77.70 181.55
  Q 84.04 183.05 90.07 186.66
  A 1.30 1.30 0.0 0 0 91.79 186.29
  L 101.80 171.91
  A 2.64 2.64 0.0 0 1 105.40 171.21
  L 105.52 171.29
  A 3.08 3.08 0.0 0 1 106.51 175.44
  L 98.34 189.29
  A 0.26 0.26 0.0 0 0 98.45 189.65
  Z
  M 346.89 164.22
  Q 344.28 159.92 344.21 152.51
  Q 344.15 146.01 344.59 144.41
  A 0.85 0.85 0.0 0 0 343.68 143.34
  L 338.39 143.89
  A 2.69 2.67 6.3 0 0 336.13 145.69
  Q 333.17 154.26 337.54 164.54
  A 3.79 3.78 75.4 0 0 341.43 166.83
  L 345.82 166.38
  A 1.43 1.43 0.0 0 0 346.89 164.22
  Z
  M 213.83 158.16
  Q 198.37 160.55 185.82 158.86
  Q 160.74 155.50 137.39 145.51
  A 0.55 0.55 0.0 0 0 136.64 146.13
  L 137.48 149.97
  A 2.44 2.43 7.1 0 0 138.78 151.63
  Q 166.66 165.39 198.09 164.98
  Q 204.23 164.90 206.74 163.62
  Q 210.59 161.67 214.02 158.56
  A 0.23 0.23 0.0 0 0 213.83 158.16
  Z
  M 330.05 163.08
  Q 327.71 156.22 328.84 149.65
  A 1.15 1.15 0.0 0 0 327.71 148.31
  L 327.16 148.31
  A 2.92 2.91 7.1 0 0 324.33 150.50
  Q 322.97 155.84 324.69 162.94
  A 3.33 3.32 83.1 0 0 327.92 165.48
  L 328.33 165.48
  A 1.82 1.81 -9.4 0 0 330.05 163.08
  Z
  M 249.75 161.90
  L 250.77 169.98
  A 0.20 0.20 0.0 0 0 250.99 170.15
  L 314.67 162.11
  A 3.31 1.00 -7.2 0 0 317.83 160.70
  L 317.01 154.21
  A 3.31 1.00 -7.2 0 0 313.60 153.64
  L 249.92 161.68
  A 0.20 0.20 0.0 0 0 249.75 161.90
  Z
  M 224.27 179.87
  A 0.28 0.28 0.0 0 0 224.77 180.04
  L 235.96 164.71
  A 1.02 1.01 36.0 0 0 235.73 163.29
  L 227.46 157.26
  A 0.84 0.83 -44.3 0 0 226.49 157.25
  L 223.15 159.62
  A 0.95 0.93 -23.9 0 0 222.77 160.57
  Q 224.49 169.45 224.27 179.87
  Z
  M 128.37 201.40
  C 134.04 201.90 138.00 204.83 142.01 208.70
  A 0.39 0.39 0.0 0 0 142.67 208.49
  Q 144.95 195.67 147.83 181.08
  C 148.78 176.30 150.66 172.34 156.03 173.18
  Q 177.78 176.57 196.07 177.49
  Q 200.94 177.73 202.30 178.62
  C 205.48 180.72 204.82 185.51 204.39 188.63
  Q 204.21 190.00 201.04 211.15
  A 0.38 0.37 67.5 0 0 201.71 211.43
  L 206.27 205.19
  A 0.93 0.89 -27.8 0 0 206.43 204.71
  C 206.63 194.32 207.35 182.76 206.56 171.78
  A 0.82 0.81 -3.9 0 0 205.69 171.03
  C 183.62 172.45 160.28 169.13 140.43 159.26
  A 0.36 0.35 12.0 0 0 139.91 159.59
  C 140.51 173.60 136.79 189.43 128.19 201.01
  A 0.24 0.24 0.0 0 0 128.37 201.40
  Z
  M 243.36 164.19
  Q 240.41 168.04 236.11 174.36
  Q 228.38 185.70 202.55 220.06
  C 198.91 224.90 188.79 224.69 182.90 224.09
  A 0.74 0.74 0.0 0 0 182.09 224.81
  L 181.94 230.51
  A 0.78 0.77 4.0 0 0 182.63 231.30
  C 189.52 232.06 198.78 231.89 204.24 226.74
  Q 210.08 221.21 215.15 214.14
  Q 231.03 191.99 244.43 174.12
  A 1.36 1.36 0.0 0 0 244.69 173.18
  L 243.76 164.31
  A 0.23 0.22 61.2 0 0 243.36 164.19
  Z
  M 217.20 190.67
  A 0.34 0.34 0.0 0 0 217.27 190.47
  L 217.27 165.52
  A 0.34 0.34 0.0 0 0 216.73 165.24
  L 213.67 167.41
  A 0.34 0.34 0.0 0 0 213.53 167.68
  L 212.80 195.65
  A 0.34 0.34 0.0 0 0 213.41 195.86
  L 217.20 190.67
  Z
  M 296.42 181.09
  A 0.80 0.80 0.0 0 0 297.33 180.42
  L 298.54 172.19
  A 0.80 0.80 0.0 0 0 297.75 171.27
  L 290.04 171.27
  A 0.80 0.80 0.0 0 0 289.24 171.99
  L 288.48 179.14
  A 0.80 0.80 0.0 0 0 289.16 180.01
  L 296.42 181.09
  Z
  M 281.97 176.14
  Q 282.07 175.14 282.97 173.79
  A 0.72 0.72 0.0 0 0 282.30 172.67
  L 255.93 175.43
  A 0.81 0.81 0.0 0 0 255.24 176.47
  Q 257.05 182.53 264.07 180.65
  A 2.71 2.63 -72.4 0 0 265.11 180.09
  C 270.03 175.82 273.48 176.10 280.38 175.99
  A 0.67 0.66 -24.9 0 1 280.85 176.16
  L 281.18 176.45
  A 0.48 0.47 -66.1 0 0 281.97 176.14
  Z
  M 148.06 214.85
  A 0.40 0.40 0.0 0 0 148.44 215.32
  L 179.75 216.13
  A 1.25 1.25 0.0 0 1 180.41 216.34
  L 182.82 217.92
  A 0.63 0.58 -23.5 0 0 183.14 218.03
  L 192.91 218.42
  A 0.88 0.87 5.8 0 0 193.82 217.68
  L 198.63 185.24
  A 1.31 1.30 11.7 0 0 197.67 183.79
  Q 196.64 183.52 194.75 183.43
  Q 175.23 182.54 156.03 179.40
  A 1.40 1.38 9.7 0 0 154.43 180.52
  L 148.06 214.85
  Z
  M 237.41 226.49
  C 234.94 218.76 233.95 212.37 236.36 204.41
  C 238.37 197.80 242.27 191.17 248.85 189.18
  C 251.44 188.39 252.02 187.56 252.46 185.01
  A 0.74 0.74 0.0 0 0 252.04 184.21
  Q 249.89 183.18 248.40 180.67
  A 0.47 0.47 0.0 0 0 247.62 180.63
  L 221.12 216.97
  A 0.49 0.48 -52.1 0 0 221.20 217.63
  Q 228.75 223.81 236.90 226.98
  A 0.39 0.39 0.0 0 0 237.41 226.49
  Z
  M 265.94 195.01
  Q 263.57 196.37 261.99 195.02
  C 259.84 193.18 260.87 190.30 262.04 188.03
  A 0.61 0.61 0.0 0 0 261.19 187.22
  C 258.67 188.70 256.81 190.18 255.85 193.03
  C 252.09 204.17 250.94 215.58 257.70 225.01
  Q 259.94 228.13 264.42 229.82
  A 0.68 0.68 0.0 0 0 265.33 229.31
  L 267.88 215.52
  A 0.61 0.61 0.0 0 0 267.56 214.86
  C 264.67 213.29 260.82 211.60 261.15 207.72
  A 1.13 1.13 0.0 0 1 262.97 206.93
  Q 266.33 209.57 269.45 210.17
  A 0.63 0.62 15.2 0 0 270.16 209.77
  Q 271.14 207.03 270.06 204.97
  Q 268.22 201.48 268.60 198.34
  C 269.31 196.36 270.32 192.83 272.61 192.43
  A 0.95 0.95 0.0 0 1 273.72 193.30
  Q 274.09 198.43 274.20 199.02
  C 275.40 205.73 282.07 207.24 284.19 199.95
  Q 286.28 192.71 282.96 186.80
  C 280.97 183.26 277.89 181.59 274.01 182.78
  C 268.37 184.51 267.28 190.00 265.94 195.01
  Z
  M 291.66 194.82
  A 1.09 1.09 0.0 0 0 292.55 195.79
  L 306.16 198.31
  A 1.30 1.29 -73.1 0 0 307.59 197.54
  Q 308.37 195.74 307.92 193.59
  C 306.84 188.34 295.51 187.63 291.01 187.07
  A 0.13 0.13 0.0 0 0 290.86 187.21
  L 291.66 194.82
  Z
  M 90.65 240.59
  A 0.45 0.45 0.0 0 0 91.16 240.23
  Q 94.97 219.37 110.14 204.82
  A 0.32 0.32 0.0 0 0 110.12 204.34
  C 106.85 201.61 94.21 192.83 90.07 195.57
  C 87.10 197.52 85.05 200.19 83.07 202.31
  Q 73.47 212.54 70.56 227.32
  C 69.58 232.29 70.81 234.48 75.47 236.30
  Q 82.84 239.19 90.65 240.59
  Z
  M 252.24 229.01
  Q 243.45 215.09 248.03 197.71
  A 0.27 0.27 0.0 0 0 247.58 197.44
  C 239.99 204.41 241.15 220.32 245.93 228.54
  A 2.40 2.40 0.0 0 0 247.75 229.72
  L 251.55 230.12
  A 0.73 0.73 0.0 0 0 252.24 229.01
  Z
  M 290.27 202.24
  Q 288.97 207.42 284.97 209.81
  A 0.34 0.34 0.0 0 0 285.08 210.44
  L 302.01 213.58
  A 3.14 3.13 -84.0 0 0 305.71 210.58
  L 305.76 208.63
  A 3.89 3.89 0.0 0 0 302.82 204.76
  L 291.05 201.77
  A 0.65 0.64 -75.6 0 0 290.27 202.24
  Z
  M 137.88 214.69
  C 134.79 211.02 131.68 208.45 126.45 208.12
  C 123.21 207.91 115.95 207.85 113.78 210.04
  Q 102.60 221.35 98.28 236.82
  Q 96.93 241.69 101.02 245.16
  C 105.26 248.76 111.36 253.94 114.78 253.41
  Q 116.33 253.17 118.00 251.75
  A 1.59 1.55 82.9 0 0 118.38 251.25
  L 119.63 248.56
  A 2.28 2.28 0.0 0 1 122.12 247.28
  L 124.77 247.77
  A 2.77 2.75 34.0 0 0 126.72 247.40
  Q 130.77 244.91 130.93 240.87
  C 131.01 238.79 131.70 237.10 133.81 237.43
  A 1.69 1.68 -18.6 0 1 134.74 237.89
  Q 136.86 239.95 137.59 240.42
  C 141.65 243.05 145.32 240.08 144.35 235.63
  C 142.83 228.65 138.48 224.24 132.86 218.90
  C 131.55 217.65 130.50 214.42 133.10 213.50
  Q 133.97 213.19 135.36 214.03
  Q 137.38 215.26 137.65 215.24
  A 0.34 0.33 67.8 0 0 137.88 214.69
  Z
  M 277.95 218.21
  A 5.92 5.90 -76.7 0 0 280.62 222.55
  Q 286.60 226.41 294.20 227.20
  A 6.39 6.39 0.0 0 0 300.32 224.14
  L 300.64 223.60
  A 2.78 2.78 0.0 0 0 298.49 219.40
  C 293.86 219.00 281.89 217.07 279.63 213.94
  A 1.13 1.13 0.0 0 0 277.59 214.73
  L 277.95 218.21
  Z
  M 145.81 222.41
  L 150.40 231.37
  A 0.34 0.31 5.2 0 0 150.52 231.50
  Q 152.03 232.31 153.39 232.43
  Q 157.47 232.78 175.09 233.63
  A 0.58 0.58 0.0 0 0 175.70 233.09
  L 176.26 223.03
  A 0.67 0.67 0.0 0 0 175.61 222.32
  L 146.34 221.56
  A 0.58 0.58 0.0 0 0 145.81 222.41
  Z
  M 48.35 224.50
  A 0.80 0.80 0.0 0 0 47.07 225.00
  C 45.81 231.91 43.54 237.56 37.36 241.40
  A 0.67 0.67 0.0 0 0 37.72 242.64
  L 49.02 242.64
  A 1.09 1.09 0.0 0 0 50.11 241.52
  Q 49.90 234.18 51.32 228.28
  A 1.99 1.99 0.0 0 0 50.59 226.22
  L 48.35 224.50
  Z
  M 272.76 224.92
  L 271.72 230.56
  A 1.45 1.45 0.0 0 0 272.49 232.12
  Q 275.56 233.66 279.53 234.01
  Q 281.27 234.16 282.11 231.91
  A 1.14 1.14 0.0 0 0 281.39 230.43
  Q 276.71 228.94 273.48 224.75
  A 0.40 0.40 0.0 0 0 272.76 224.92
  Z
  M 61.18 243.79
  L 64.15 234.76
  A 0.54 0.53 22.7 0 0 63.88 234.11
  L 58.44 231.33
  A 0.38 0.38 0.0 0 0 57.90 231.56
  Q 56.31 236.72 56.66 242.42
  A 0.94 0.94 0.0 0 0 57.30 243.25
  L 60.30 244.23
  A 0.70 0.70 0.0 0 0 61.18 243.79
  Z
  M 147.12 246.43
  L 152.82 246.75
  A 0.86 0.85 -77.3 0 0 153.67 246.21
  Q 154.20 244.87 155.10 244.27
  A 2.14 2.12 26.2 0 1 156.11 243.93
  Q 160.35 243.59 173.00 244.44
  C 176.55 244.68 178.65 244.71 180.40 247.34
  A 1.08 1.05 -11.9 0 0 181.14 247.81
  Q 189.85 249.08 198.25 245.71
  A 0.54 0.53 89.1 0 0 198.56 245.38
  L 201.79 235.58
  A 0.09 0.08 -87.9 0 0 201.69 235.47
  Q 192.35 238.31 182.19 237.50
  A 1.09 1.09 0.0 0 0 181.19 238.00
  Q 180.28 239.47 179.02 239.99
  A 1.82 1.80 35.2 0 1 178.25 240.12
  L 152.16 238.65
  A 1.02 1.02 0.0 0 0 151.11 239.44
  Q 150.06 244.04 146.96 245.74
  A 0.37 0.37 0.0 0 0 147.12 246.43
  Z
  M 68.28 242.13
  L 67.62 248.27
  A 2.69 2.68 15.5 0 0 69.16 250.98
  C 75.31 253.85 85.76 256.57 91.32 252.20
  A 1.87 1.83 83.0 0 0 91.90 251.44
  L 93.15 248.33
  A 0.88 0.87 11.5 0 0 92.35 247.13
  Q 86.61 247.03 70.33 240.86
  A 1.52 1.52 0.0 0 0 68.28 242.13
  Z
  M 28.94 246.15
  A 0.43 0.43 0.0 0 0 28.41 246.26
  Q 17.63 259.08 10.95 273.11
  Q 6.22 283.03 7.29 292.75
  C 8.39 302.79 16.23 311.24 26.30 312.40
  C 48.91 315.00 65.60 296.12 76.29 279.07
  A 0.49 0.48 21.3 0 0 75.96 278.33
  L 72.86 277.75
  A 1.22 1.22 0.0 0 0 71.64 278.25
  C 61.86 292.19 42.33 312.98 23.38 305.62
  Q 14.33 302.11 13.29 292.22
  C 12.12 281.09 19.25 268.32 25.65 259.40
  Q 32.46 249.88 33.34 248.79
  A 0.29 0.29 0.0 0 0 33.24 248.35
  L 28.94 246.15
  Z
  M 49.53 248.98
  L 44.03 248.94
  A 2.67 2.65 -55.5 0 0 42.97 249.14
  Q 41.36 249.75 39.19 252.42
  Q 28.89 265.07 23.04 276.92
  C 20.30 282.47 16.98 293.80 22.95 298.34
  C 33.58 306.42 51.24 293.06 58.40 285.10
  A 1.44 1.44 0.0 0 0 58.52 283.33
  C 53.24 275.63 49.88 266.58 49.98 257.36
  Q 50.05 250.46 49.97 249.39
  A 0.44 0.44 0.0 0 0 49.53 248.98
  Z
  M 62.97 278.99
  L 66.20 274.55
  A 0.65 0.65 0.0 0 0 66.07 273.64
  C 60.57 269.52 61.24 260.90 62.73 255.27
  A 3.54 3.54 0.0 0 0 60.92 251.21
  L 57.88 249.66
  A 1.67 1.66 -76.5 0 0 55.46 251.15
  Q 55.45 259.32 57.17 266.64
  C 58.08 270.51 60.99 276.28 62.34 278.94
  A 0.37 0.37 0.0 0 0 62.97 278.99
  Z
  M 171.02 269.52
  A 0.83 0.83 0.0 0 0 171.88 268.84
  L 175.08 251.57
  A 0.83 0.83 0.0 0 0 174.31 250.59
  L 159.71 249.77
  A 0.83 0.83 0.0 0 0 158.85 250.45
  L 155.65 267.72
  A 0.83 0.83 0.0 0 0 156.42 268.70
  L 171.02 269.52
  Z
  M 117.79 259.62
  Q 134.10 263.65 149.58 264.56
  A 0.82 0.81 -82.3 0 0 150.43 263.90
  L 152.23 254.15
  A 0.75 0.74 -80.7 0 0 151.61 253.27
  L 133.86 250.64
  A 1.01 0.99 -65.7 0 0 132.95 250.99
  Q 129.96 254.64 124.99 254.43
  A 1.89 1.88 -58.7 0 0 123.98 254.68
  C 123.10 255.18 122.20 256.51 121.35 257.06
  Q 119.55 258.24 117.74 259.03
  A 0.31 0.31 0.0 0 0 117.79 259.62
  Z
  M 179.14 265.23
  Q 188.42 265.28 197.01 261.04
  A 0.42 0.41 83.1 0 0 197.24 260.74
  L 198.81 252.28
  A 0.19 0.19 0.0 0 0 198.56 252.07
  Q 190.46 254.87 181.25 254.03
  A 0.70 0.69 7.6 0 0 180.50 254.60
  L 178.64 264.62
  A 0.52 0.52 0.0 0 0 179.14 265.23
  Z
  M 98.47 253.27
  L 95.74 257.02
  A 2.18 2.09 -23.3 0 0 95.34 257.97
  L 93.37 271.31
  A 1.73 1.73 0.0 0 0 95.95 273.07
  L 98.51 271.59
  A 3.59 3.58 -8.3 0 0 100.20 269.33
  L 103.25 256.75
  A 0.92 0.92 0.0 0 0 102.90 255.80
  L 99.25 253.14
  A 0.56 0.55 -54.0 0 0 98.47 253.27
  Z
  M 88.43 259.72
  C 81.86 261.23 75.53 259.87 69.41 257.79
  A 0.66 0.65 16.1 0 0 68.57 258.25
  C 68.14 260.00 67.83 265.58 69.50 267.26
  C 72.60 270.38 80.03 271.40 84.27 271.71
  Q 87.07 271.92 87.34 270.65
  C 88.06 267.17 88.80 262.65 89.01 260.23
  A 0.48 0.48 0.0 0 0 88.43 259.72
  Z
  M 140.21 297.64
  Q 159.44 293.43 173.61 280.27
  A 2.91 2.91 0.0 0 1 178.07 280.89
  L 178.08 280.92
  A 4.01 4.00 54.4 0 1 177.23 286.08
  Q 165.36 295.95 154.74 299.49
  A 0.41 0.41 0.0 0 0 154.62 300.21
  L 170.13 312.10
  A 0.39 0.39 0.0 0 0 170.63 312.08
  Q 183.02 300.22 193.99 291.00
  Q 202.35 283.98 211.28 279.85
  A 0.51 0.51 0.0 0 0 211.43 279.03
  L 199.48 267.09
  A 0.70 0.69 54.6 0 0 198.69 266.95
  Q 189.33 271.41 178.58 271.22
  A 0.89 0.88 11.7 0 0 177.75 271.76
  C 176.82 274.01 175.86 275.08 173.06 275.14
  Q 164.63 275.32 153.77 274.47
  Q 150.05 274.18 148.98 271.16
  A 0.82 0.82 0.0 0 0 148.26 270.63
  Q 127.77 269.56 108.85 263.21
  A 0.61 0.60 14.2 0 0 108.06 263.67
  C 106.84 270.40 106.43 277.55 98.06 279.11
  Q 92.85 280.08 85.92 279.31
  A 1.42 1.40 -67.8 0 0 84.64 279.86
  L 69.70 299.33
  A 0.86 0.81 -23.5 0 0 69.53 299.73
  L 68.38 307.50
  A 0.69 0.69 0.0 0 0 68.96 308.28
  L 77.36 309.53
  A 0.86 0.85 11.3 0 0 78.31 308.90
  Q 79.81 303.18 82.05 292.65
  Q 82.54 290.37 84.14 288.82
  A 1.81 1.79 21.3 0 1 85.32 288.31
  Q 87.59 288.22 89.25 288.41
  C 100.87 289.68 111.75 291.38 122.31 295.18
  Q 126.12 296.55 125.67 300.89
  Q 124.59 311.47 122.65 317.48
  A 1.04 1.04 0.0 0 0 124.02 318.77
  L 124.25 318.69
  A 4.57 4.54 88.5 0 0 126.93 315.85
  Q 131.07 303.04 134.10 292.88
  C 134.58 291.27 136.08 287.22 138.00 286.75
  A 1.92 1.63 72.3 0 1 140.00 288.00
  Q 141.39 291.66 139.83 297.23
  A 0.33 0.33 0.0 0 0 140.21 297.64
  Z
  M 230.03 319.83
  A 0.51 0.50 85.9 0 0 230.45 319.34
  Q 230.62 313.98 230.02 307.00
  C 229.34 299.02 223.41 290.99 217.12 285.09
  A 1.21 1.21 0.0 0 0 215.83 284.86
  C 211.43 286.71 204.75 289.72 202.37 294.00
  A 2.50 2.47 -45.1 0 0 202.36 296.39
  Q 205.59 302.27 207.69 308.01
  C 209.01 311.62 209.16 315.66 209.65 319.30
  A 2.14 2.14 0.0 0 0 211.72 321.15
  Q 220.65 321.38 230.03 319.83
  Z
  M 119.53 301.09
  A 0.70 0.70 0.0 0 0 119.03 300.37
  Q 103.26 295.45 87.95 294.88
  A 0.35 0.34 -84.3 0 0 87.60 295.17
  Q 84.97 309.04 79.54 324.54
  Q 78.63 327.12 80.39 327.96
  Q 89.49 332.28 99.24 333.58
  Q 103.21 334.10 105.83 333.86
  A 5.36 5.33 -72.7 0 0 109.42 331.96
  C 111.66 329.27 113.83 325.62 114.95 322.43
  Q 118.75 311.66 119.53 301.09
  Z
  M 195.95 298.55
  L 174.69 316.24
  A 0.57 0.56 -26.3 0 0 174.50 316.79
  L 175.61 321.87
  A 0.76 0.75 -6.2 0 0 176.35 322.46
  Q 189.09 322.47 202.16 320.66
  A 1.31 1.30 85.1 0 0 203.28 319.32
  Q 202.90 308.38 196.31 298.60
  A 0.24 0.24 0.0 0 0 195.95 298.55
  Z
  M 159.91 392.78
  Q 160.01 384.94 161.30 376.00
  Q 162.33 368.82 167.54 344.46
  C 168.40 340.46 168.74 336.15 169.41 332.85
  C 172.81 316.16 157.16 312.25 147.94 303.58
  A 2.30 2.28 -29.4 0 0 145.90 303.02
  L 139.11 304.51
  A 2.86 2.84 1.3 0 0 136.96 306.55
  Q 132.75 322.11 126.37 334.41
  C 119.07 348.50 108.12 360.50 98.01 372.70
  A 0.59 0.58 29.1 0 0 98.28 373.63
  Q 111.84 377.98 114.00 392.29
  A 0.84 0.84 0.0 0 0 114.83 393.00
  L 159.68 393.00
  A 0.23 0.22 -0.0 0 0 159.91 392.78
  Z
  M 75.45 316.17
  Q 71.66 315.82 67.93 314.08
  A 0.62 0.61 -59.0 0 0 67.18 314.27
  L 54.20 332.07
  A 0.69 0.69 0.0 0 0 54.33 333.01
  C 66.18 342.55 83.14 351.27 98.10 352.59
  C 102.73 352.99 104.77 353.68 107.64 349.90
  Q 118.34 335.79 122.69 325.92
  A 0.74 0.73 12.6 0 0 122.03 324.89
  L 121.76 324.88
  A 2.01 1.98 13.1 0 0 119.90 326.02
  Q 117.02 332.12 113.76 336.26
  C 110.26 340.70 105.18 340.14 99.03 339.40
  Q 88.41 338.12 79.65 334.13
  C 75.23 332.12 71.21 329.36 73.51 324.01
  Q 73.95 322.99 75.90 316.84
  A 0.52 0.52 0.0 0 0 75.45 316.17
  Z
  M 229.68 325.73
  Q 217.38 328.22 205.98 326.90
  A 8.40 8.21 43.5 0 0 203.87 326.93
  Q 191.42 328.67 177.33 329.11
  A 0.95 0.94 2.4 0 0 176.41 329.95
  L 175.26 340.77
  A 0.38 0.37 7.0 0 0 175.59 341.18
  Q 201.25 344.77 227.36 340.60
  A 1.67 1.67 0.0 0 0 228.76 339.13
  L 230.14 326.15
  A 0.39 0.38 -2.3 0 0 229.68 325.73
  Z
  M 100.20 359.06
  C 82.15 357.06 65.27 349.31 50.92 338.35
  A 0.58 0.58 0.0 0 0 50.09 338.47
  Q 46.15 343.91 42.84 351.56
  Q 36.43 366.42 32.16 380.74
  A 1.82 1.82 0.0 0 0 33.08 382.88
  L 42.90 387.89
  A 0.81 0.81 0.0 0 0 44.04 387.44
  C 46.54 380.14 46.71 371.82 42.14 365.37
  A 0.56 0.56 0.0 0 1 42.89 364.57
  Q 46.27 366.59 48.00 369.73
  C 51.00 375.21 50.22 382.99 48.62 388.88
  A 1.03 1.03 0.0 0 0 49.25 390.12
  Q 53.66 391.75 59.95 392.84
  Q 83.09 396.88 106.67 393.33
  A 0.84 0.83 85.0 0 0 107.38 392.48
  C 106.95 379.63 87.91 376.28 78.50 376.54
  Q 72.56 376.71 67.33 379.56
  Q 66.38 380.07 64.74 379.47
  C 61.89 378.43 63.90 375.29 65.62 374.32
  C 73.92 369.71 81.89 370.11 91.07 371.30
  A 0.44 0.43 21.7 0 0 91.47 371.13
  L 100.39 359.50
  A 0.27 0.27 0.0 0 0 100.20 359.06
  Z
  M 226.92 346.88
  Q 200.34 351.21 174.18 347.45
  A 0.71 0.70 9.3 0 0 173.38 348.02
  L 170.63 362.89
  A 0.44 0.44 0.0 0 0 171.12 363.41
  C 179.60 362.21 186.36 368.95 188.59 376.70
  Q 189.98 381.54 190.12 386.45
  A 1.09 1.09 0.0 0 0 191.12 387.50
  C 209.34 389.07 228.82 389.31 247.30 386.91
  A 1.13 1.12 -7.8 0 0 248.27 385.64
  Q 247.00 376.41 238.38 372.56
  Q 223.28 365.82 206.57 371.85
  A 1.75 1.75 0.0 0 1 204.25 369.88
  L 204.46 368.74
  A 3.70 3.69 84.5 0 1 206.75 365.96
  Q 215.41 362.54 223.99 362.84
  A 0.74 0.73 -83.2 0 0 224.74 362.24
  L 227.48 347.46
  A 0.49 0.49 0.0 0 0 226.92 346.88
  Z
  M 170.77 364.30
  A 0.55 0.55 0.0 0 0 169.99 364.66
  Q 167.68 374.36 167.17 383.64
  A 0.68 0.68 0.0 0 0 167.77 384.35
  L 184.21 386.10
  A 0.61 0.61 0.0 0 0 184.88 385.52
  C 185.23 378.30 181.92 369.18 174.84 366.19
  Q 172.95 365.39 170.77 364.30
  Z
  M 106.40 398.77
  C 81.81 403.10 54.37 400.71 32.16 388.95
  A 1.70 1.70 0.0 0 0 29.67 390.36
  L 29.51 393.11
  A 3.96 3.96 0.0 0 0 31.66 396.85
  L 41.80 402.02
  A 0.68 0.68 0.0 0 0 42.77 401.57
  C 43.45 398.71 45.47 397.82 47.83 400.03
  C 50.03 402.09 55.74 405.62 58.40 405.95
  Q 81.55 408.83 105.47 405.80
  A 2.97 2.97 0.0 0 0 108.06 403.02
  L 108.21 400.38
  A 1.55 1.54 86.6 0 0 106.40 398.77
  Z
  M 183.25 399.79
  C 184.47 396.17 187.37 396.50 190.69 397.77
  Q 198.68 400.83 202.26 401.08
  Q 223.59 402.59 246.33 399.93
  A 2.13 2.12 89.7 0 0 248.19 398.04
  L 248.68 393.47
  A 1.24 1.23 -0.6 0 0 247.30 392.12
  Q 215.55 396.20 182.36 392.08
  Q 173.05 390.92 168.16 390.61
  A 1.71 1.71 0.0 0 0 166.38 392.68
  L 166.96 395.31
  A 3.59 3.58 -0.7 0 0 169.81 398.08
  L 182.24 400.38
  A 0.90 0.89 14.7 0 0 183.25 399.79
  Z"
/>
<path d="
  M 107.89 77.08
  C 121.75 79.12 119.90 99.21 111.91 106.09
  Q 111.03 106.84 110.16 106.71
  A 1.25 1.25 0.0 0 1 109.28 104.82
  C 112.47 99.59 114.55 94.69 113.71 88.54
  Q 112.77 81.73 107.60 77.76
  A 0.38 0.38 0.0 0 1 107.89 77.08
  Z"
/>
<rect x="-2.50" y="-11.56" transform="translate(174.61,200.99) rotate(26.6)" width="5.00" height="23.12" rx="2.04"/>
<path d="
  M 164.24 191.92
  A 2.39 2.38 59.8 0 1 167.23 192.71
  L 167.61 193.26
  A 1.60 1.60 0.0 0 1 166.95 195.63
  C 164.60 196.68 162.05 197.33 161.46 199.05
  A 1.80 1.63 23.8 0 0 162.37 201.09
  Q 163.96 201.93 165.16 202.80
  A 2.23 2.23 0.0 0 1 165.46 206.15
  L 165.26 206.36
  A 2.42 2.41 -48.0 0 1 161.96 206.54
  C 158.54 203.67 152.20 199.24 157.21 195.86
  Q 160.12 193.90 164.24 191.92
  Z"
/>
<path d="
  M 186.38 202.23
  Q 186.36 202.20 183.38 199.40
  C 181.19 197.33 182.89 193.53 185.77 193.88
  A 1.28 1.23 74.3 0 1 186.64 194.39
  L 189.24 197.93
  A 0.40 0.35 6.9 0 0 189.35 198.05
  Q 192.37 200.38 192.64 200.80
  A 2.44 2.44 0.0 0 1 191.60 204.41
  Q 186.79 206.53 184.41 209.54
  A 0.87 0.86 28.7 0 1 183.45 209.82
  Q 181.58 209.16 180.95 207.68
  A 2.12 1.79 -20.1 0 1 182.39 205.16
  Q 184.33 204.53 186.12 203.20
  A 0.81 0.79 -30.7 0 0 186.38 202.23
  Z"
/>
<ellipse cx="0.00" cy="0.00" transform="translate(78.31,248.61) rotate(-102.7)" rx="3.80" ry="3.67"/>
</g>
<g fill="#fb822d">
<path d="
  M 185.55 133.70
  C 162.28 121.17 155.56 95.56 164.35 71.46
  C 174.55 43.49 205.27 36.87 231.98 42.18
  C 244.43 44.66 255.54 52.83 260.57 64.28
  C 268.42 82.14 265.53 111.47 252.01 126.29
  C 244.43 134.61 235.34 140.12 224.00 141.17
  Q 203.00 143.11 185.55 133.70
  Z
  M 236.56 66.72
  Q 240.93 70.76 242.80 72.10
  C 248.48 76.18 253.22 70.75 250.84 65.03
  Q 249.29 61.30 245.14 57.45
  Q 240.98 53.61 237.14 52.35
  C 231.25 50.43 226.20 55.58 230.72 60.93
  Q 232.20 62.69 236.56 66.72
  Z"
/>
<path d="
  M 362.23 163.86
  L 354.71 162.92
  A 2.96 2.95 -4.0 0 1 352.23 160.77
  Q 349.70 151.62 351.79 143.43
  A 1.41 1.40 88.9 0 1 352.73 142.45
  L 359.72 140.24
  Q 375.63 134.94 388.98 129.25
  C 397.48 125.62 407.64 120.44 414.86 114.77
  C 425.21 106.64 431.77 97.81 441.56 85.57
  Q 449.20 76.03 459.27 70.00
  Q 467.88 64.85 478.31 63.92
  A 1.29 1.29 0.0 0 1 479.44 66.01
  Q 477.30 68.74 474.06 72.79
  C 471.09 76.50 465.16 86.94 469.71 91.29
  C 474.84 96.19 483.37 91.89 488.49 88.23
  C 492.93 85.05 497.62 80.76 501.86 75.62
  C 511.31 64.16 521.19 55.44 536.20 53.57
  C 546.15 52.33 556.87 54.74 566.55 56.44
  Q 582.07 59.15 594.45 49.48
  Q 596.19 48.13 597.83 47.85
  A 1.07 1.07 0.0 0 1 599.08 48.95
  Q 598.32 67.98 583.00 78.74
  Q 581.75 79.62 575.25 83.57
  C 572.04 85.52 568.41 88.65 566.54 90.88
  Q 562.50 95.72 564.44 101.65
  C 566.08 106.67 571.73 110.18 577.08 108.31
  C 579.95 107.30 582.73 105.75 584.57 103.29
  Q 585.55 101.97 586.41 101.08
  A 4.12 4.12 0.0 0 1 589.86 99.85
  C 602.31 101.37 610.63 108.82 619.29 117.70
  Q 628.77 127.43 642.74 126.63
  A 1.80 1.80 0.0 0 1 644.43 129.26
  C 643.58 130.87 641.98 133.23 640.94 134.39
  Q 626.51 150.60 605.94 156.80
  C 598.25 159.12 587.62 160.39 580.50 161.25
  Q 575.12 161.89 572.26 165.36
  A 3.15 3.15 0.0 0 0 572.02 169.03
  C 575.82 175.09 582.29 176.77 589.13 177.62
  Q 592.89 178.09 596.76 177.33
  Q 598.24 177.04 599.60 178.83
  A 0.68 0.67 -44.7 0 1 599.59 179.65
  Q 592.25 188.92 579.96 195.67
  Q 555.56 209.08 530.81 201.05
  C 518.34 197.00 507.08 188.69 493.97 186.34
  C 490.28 185.68 481.51 185.86 484.63 192.37
  C 486.56 196.39 493.20 199.87 496.37 201.84
  Q 496.67 202.03 496.90 202.49
  A 1.58 1.57 -16.1 0 1 495.64 204.76
  C 485.99 205.70 475.29 205.31 465.88 202.21
  Q 453.15 198.01 443.88 192.33
  Q 427.13 182.07 423.87 180.15
  Q 406.15 169.71 385.19 166.39
  Q 379.36 165.46 364.49 164.11
  Q 363.59 164.02 362.23 163.86
  Z
  M 445.95 128.40
  C 449.02 122.38 452.01 116.92 450.16 110.08
  A 0.67 0.67 0.0 0 0 449.01 109.82
  C 434.94 126.05 413.95 136.77 393.85 142.58
  Q 375.09 148.00 367.10 150.33
  A 0.39 0.39 0.0 0 0 366.94 150.99
  Q 367.13 151.17 367.58 151.22
  C 374.06 151.83 382.51 151.73 389.00 152.59
  Q 401.99 154.32 414.10 156.87
  C 419.85 158.09 427.95 160.94 431.96 163.28
  C 440.09 168.00 446.91 172.88 454.11 174.75
  C 458.07 175.78 463.92 177.10 467.53 176.33
  A 0.56 0.56 0.0 0 0 467.75 175.34
  C 462.07 171.01 457.53 166.75 453.45 161.17
  Q 450.60 157.27 447.74 153.63
  A 0.56 0.55 70.3 0 1 448.16 152.73
  Q 453.97 152.60 459.58 153.76
  Q 472.57 156.46 483.41 159.97
  C 497.81 164.63 511.90 171.91 526.86 173.86
  C 532.43 174.59 540.66 174.35 545.30 171.00
  A 0.47 0.46 37.5 0 0 545.19 170.19
  C 539.35 167.98 533.17 165.69 529.02 161.25
  Q 524.14 156.01 521.79 148.41
  A 0.64 0.64 0.0 0 1 522.28 147.59
  C 529.19 146.20 536.19 147.06 544.08 147.34
  Q 559.86 147.90 575.52 142.98
  Q 584.10 140.29 589.84 134.01
  A 0.57 0.57 0.0 0 0 589.51 133.06
  Q 588.02 132.83 586.00 133.00
  C 574.98 133.97 566.44 130.92 556.50 127.16
  C 548.60 124.16 540.48 123.76 532.25 124.27
  Q 530.29 124.40 528.30 123.93
  A 0.60 0.60 0.0 0 1 527.96 122.97
  C 531.75 118.21 532.79 109.75 534.33 101.28
  C 535.86 92.81 539.28 86.01 542.38 80.05
  A 0.81 0.81 0.0 0 0 541.66 78.87
  C 530.37 78.93 523.29 83.49 515.00 91.67
  Q 506.43 100.13 505.52 101.03
  Q 495.08 111.47 481.99 117.23
  Q 465.63 124.43 446.94 129.61
  A 0.85 0.85 0.0 0 1 445.95 128.40
  Z"
/>
</g>
<g fill="#5fafe4">
<path d="
  M 127.29 91.85
  Q 127.00 98.70 123.61 103.78
  C 119.29 110.24 111.52 114.13 104.27 109.60
  C 98.04 105.71 96.18 97.71 96.48 90.58
  C 96.77 83.45 99.28 75.63 105.81 72.27
  C 113.41 68.35 120.83 72.87 124.60 79.66
  Q 127.57 85.00 127.29 91.85
  Z
  M 107.89 77.08
  A 0.38 0.38 0.0 0 0 107.60 77.76
  Q 112.77 81.73 113.71 88.54
  C 114.55 94.69 112.47 99.59 109.28 104.82
  A 1.25 1.25 0.0 0 0 110.16 106.71
  Q 111.03 106.84 111.91 106.09
  C 119.90 99.21 121.75 79.12 107.89 77.08
  Z"
/>
<path d="
  M 42.44 220.62
  Q 41.38 224.68 40.43 227.93
  C 38.76 233.59 33.38 239.57 26.88 236.71
  C 18.61 233.07 17.71 223.31 20.34 215.33
  Q 48.67 129.41 50.60 123.81
  Q 54.67 111.98 65.93 107.65
  Q 70.20 106.01 78.97 106.62
  A 1.30 1.30 0.0 0 1 79.91 107.15
  C 84.38 113.49 82.74 121.55 80.70 128.61
  A 2.08 2.07 -1.5 0 1 79.38 129.99
  C 75.42 131.34 73.11 132.63 69.54 135.21
  Q 61.78 140.84 51.36 153.34
  C 37.05 170.52 23.80 199.83 42.17 219.54
  A 1.17 1.14 -59.6 0 1 42.44 220.62
  Z"
/>
<path d="
  M 99.35 130.45
  Q 108.99 130.77 112.07 132.09
  C 140.75 144.48 136.57 178.74 121.13 199.40
  Q 119.85 201.10 118.88 201.78
  A 1.55 1.55 0.0 0 1 117.03 201.74
  L 112.82 198.52
  A 0.77 0.77 0.0 0 1 112.72 197.39
  Q 117.35 192.25 119.92 185.65
  C 127.62 165.82 123.55 143.42 103.85 132.83
  C 102.29 131.98 100.49 131.67 99.22 130.90
  A 0.24 0.24 0.0 0 1 99.35 130.45
  Z"
/>
<path d="
  M 346.89 164.22
  A 1.43 1.43 0.0 0 1 345.82 166.38
  L 341.43 166.83
  A 3.79 3.78 75.4 0 1 337.54 164.54
  Q 333.17 154.26 336.13 145.69
  A 2.69 2.67 6.3 0 1 338.39 143.89
  L 343.68 143.34
  A 0.85 0.85 0.0 0 1 344.59 144.41
  Q 344.15 146.01 344.21 152.51
  Q 344.28 159.92 346.89 164.22
  Z"
/>
<path d="
  M 214.02 158.56
  Q 210.59 161.67 206.74 163.62
  Q 204.23 164.90 198.09 164.98
  Q 166.66 165.39 138.78 151.63
  A 2.44 2.43 7.1 0 1 137.48 149.97
  L 136.64 146.13
  A 0.55 0.55 0.0 0 1 137.39 145.51
  Q 160.74 155.50 185.82 158.86
  Q 198.37 160.55 213.83 158.16
  A 0.23 0.23 0.0 0 1 214.02 158.56
  Z"
/>
<path d="
  M 330.05 163.08
  A 1.82 1.81 -9.4 0 1 328.33 165.48
  L 327.92 165.48
  A 3.33 3.32 83.1 0 1 324.69 162.94
  Q 322.97 155.84 324.33 150.50
  A 2.92 2.91 7.1 0 1 327.16 148.31
  L 327.71 148.31
  A 1.15 1.15 0.0 0 1 328.84 149.65
  Q 327.71 156.22 330.05 163.08
  Z"
/>
<path d="
  M 249.75 161.90
  A 0.20 0.20 0.0 0 1 249.92 161.68
  L 313.60 153.64
  A 3.31 1.00 -7.2 0 1 317.01 154.21
  L 317.83 160.70
  A 3.31 1.00 -7.2 0 1 314.67 162.11
  L 250.99 170.15
  A 0.20 0.20 0.0 0 1 250.77 169.98
  L 249.75 161.90
  Z"
/>
<path d="
  M 243.36 164.19
  A 0.23 0.22 61.2 0 1 243.76 164.31
  L 244.69 173.18
  A 1.36 1.36 0.0 0 1 244.43 174.12
  Q 231.03 191.99 215.15 214.14
  Q 210.08 221.21 204.24 226.74
  C 198.78 231.89 189.52 232.06 182.63 231.30
  A 0.78 0.77 4.0 0 1 181.94 230.51
  L 182.09 224.81
  A 0.74 0.74 0.0 0 1 182.90 224.09
  C 188.79 224.69 198.91 224.90 202.55 220.06
  Q 228.38 185.70 236.11 174.36
  Q 240.41 168.04 243.36 164.19
  Z"
/>
<path d="
  M 217.20 190.67
  L 213.41 195.86
  A 0.34 0.34 0.0 0 1 212.80 195.65
  L 213.53 167.68
  A 0.34 0.34 0.0 0 1 213.67 167.41
  L 216.73 165.24
  A 0.34 0.34 0.0 0 1 217.27 165.52
  L 217.27 190.47
  A 0.34 0.34 0.0 0 1 217.20 190.67
  Z"
/>
<path d="
  M 296.42 181.09
  L 289.16 180.01
  A 0.80 0.80 0.0 0 1 288.48 179.14
  L 289.24 171.99
  A 0.80 0.80 0.0 0 1 290.04 171.27
  L 297.75 171.27
  A 0.80 0.80 0.0 0 1 298.54 172.19
  L 297.33 180.42
  A 0.80 0.80 0.0 0 1 296.42 181.09
  Z"
/>
<path d="
  M 265.94 195.01
  Q 266.85 196.91 268.60 198.34
  Q 268.22 201.48 270.06 204.97
  Q 271.14 207.03 270.16 209.77
  A 0.63 0.62 15.2 0 1 269.45 210.17
  Q 266.33 209.57 262.97 206.93
  A 1.13 1.13 0.0 0 0 261.15 207.72
  C 260.82 211.60 264.67 213.29 267.56 214.86
  A 0.61 0.61 0.0 0 1 267.88 215.52
  L 265.33 229.31
  A 0.68 0.68 0.0 0 1 264.42 229.82
  Q 259.94 228.13 257.70 225.01
  C 250.94 215.58 252.09 204.17 255.85 193.03
  C 256.81 190.18 258.67 188.70 261.19 187.22
  A 0.61 0.61 0.0 0 1 262.04 188.03
  C 260.87 190.30 259.84 193.18 261.99 195.02
  Q 263.57 196.37 265.94 195.01
  Z"
/>
<path d="
  M 90.65 240.59
  Q 82.84 239.19 75.47 236.30
  C 70.81 234.48 69.58 232.29 70.56 227.32
  Q 73.47 212.54 83.07 202.31
  C 85.05 200.19 87.10 197.52 90.07 195.57
  C 94.21 192.83 106.85 201.61 110.12 204.34
  A 0.32 0.32 0.0 0 1 110.14 204.82
  Q 94.97 219.37 91.16 240.23
  A 0.45 0.45 0.0 0 1 90.65 240.59
  Z"
/>
<path d="
  M 145.81 222.41
  A 0.58 0.58 0.0 0 1 146.34 221.56
  L 175.61 222.32
  A 0.67 0.67 0.0 0 1 176.26 223.03
  L 175.70 233.09
  A 0.58 0.58 0.0 0 1 175.09 233.63
  Q 157.47 232.78 153.39 232.43
  Q 152.03 232.31 150.52 231.50
  A 0.34 0.31 5.2 0 1 150.40 231.37
  L 145.81 222.41
  Z"
/>
<path d="
  M 272.76 224.92
  A 0.40 0.40 0.0 0 1 273.48 224.75
  Q 276.71 228.94 281.39 230.43
  A 1.14 1.14 0.0 0 1 282.11 231.91
  Q 281.27 234.16 279.53 234.01
  Q 275.56 233.66 272.49 232.12
  A 1.45 1.45 0.0 0 1 271.72 230.56
  L 272.76 224.92
  Z"
/>
<path d="
  M 68.28 242.13
  A 1.52 1.52 0.0 0 1 70.33 240.86
  Q 86.61 247.03 92.35 247.13
  A 0.88 0.87 11.5 0 1 93.15 248.33
  L 91.90 251.44
  A 1.87 1.83 83.0 0 1 91.32 252.20
  C 85.76 256.57 75.31 253.85 69.16 250.98
  A 2.69 2.68 15.5 0 1 67.62 248.27
  L 68.28 242.13
  Z
  M 77.4746 244.9030
  A 3.80 3.67 -102.7 0 0 74.7298 249.4168
  A 3.80 3.67 -102.7 0 0 79.1454 252.3170
  A 3.80 3.67 -102.7 0 0 81.8902 247.8032
  A 3.80 3.67 -102.7 0 0 77.4746 244.9030
  Z"
/>
<path d="
  M 171.02 269.52
  L 156.42 268.70
  A 0.83 0.83 0.0 0 1 155.65 267.72
  L 158.85 250.45
  A 0.83 0.83 0.0 0 1 159.71 249.77
  L 174.31 250.59
  A 0.83 0.83 0.0 0 1 175.08 251.57
  L 171.88 268.84
  A 0.83 0.83 0.0 0 1 171.02 269.52
  Z"
/>
<path d="
  M 117.79 259.62
  A 0.31 0.31 0.0 0 1 117.74 259.03
  Q 119.55 258.24 121.35 257.06
  C 122.20 256.51 123.10 255.18 123.98 254.68
  A 1.89 1.88 -58.7 0 1 124.99 254.43
  Q 129.96 254.64 132.95 250.99
  A 1.01 0.99 -65.7 0 1 133.86 250.64
  L 151.61 253.27
  A 0.75 0.74 -80.7 0 1 152.23 254.15
  L 150.43 263.90
  A 0.82 0.81 -82.3 0 1 149.58 264.56
  Q 134.10 263.65 117.79 259.62
  Z"
/>
<path d="
  M 179.14 265.23
  A 0.52 0.52 0.0 0 1 178.64 264.62
  L 180.50 254.60
  A 0.70 0.69 7.6 0 1 181.25 254.03
  Q 190.46 254.87 198.56 252.07
  A 0.19 0.19 0.0 0 1 198.81 252.28
  L 197.24 260.74
  A 0.42 0.41 83.1 0 1 197.01 261.04
  Q 188.42 265.28 179.14 265.23
  Z"
/>
<path d="
  M 99.25 253.14
  L 102.90 255.80
  A 0.92 0.92 0.0 0 1 103.25 256.75
  L 100.20 269.33
  A 3.59 3.58 -8.3 0 1 98.51 271.59
  L 95.95 273.07
  A 1.73 1.73 0.0 0 1 93.37 271.31
  L 95.34 257.97
  A 2.18 2.09 -23.3 0 1 95.74 257.02
  L 98.47 253.27
  A 0.56 0.55 -54.0 0 1 99.25 253.14
  Z"
/>
<path d="
  M 88.43 259.72
  A 0.48 0.48 0.0 0 1 89.01 260.23
  C 88.80 262.65 88.06 267.17 87.34 270.65
  Q 87.07 271.92 84.27 271.71
  C 80.03 271.40 72.60 270.38 69.50 267.26
  C 67.83 265.58 68.14 260.00 68.57 258.25
  A 0.66 0.65 16.1 0 1 69.41 257.79
  C 75.53 259.87 81.86 261.23 88.43 259.72
  Z"
/>
<path d="
  M 230.03 319.83
  Q 220.65 321.38 211.72 321.15
  A 2.14 2.14 0.0 0 1 209.65 319.30
  C 209.16 315.66 209.01 311.62 207.69 308.01
  Q 205.59 302.27 202.36 296.39
  A 2.50 2.47 -45.1 0 1 202.37 294.00
  C 204.75 289.72 211.43 286.71 215.83 284.86
  A 1.21 1.21 0.0 0 1 217.12 285.09
  C 223.41 290.99 229.34 299.02 230.02 307.00
  Q 230.62 313.98 230.45 319.34
  A 0.51 0.50 85.9 0 1 230.03 319.83
  Z"
/>
<path d="
  M 119.53 301.09
  Q 118.75 311.66 114.95 322.43
  C 113.83 325.62 111.66 329.27 109.42 331.96
  A 5.36 5.33 -72.7 0 1 105.83 333.86
  Q 103.21 334.10 99.24 333.58
  Q 89.49 332.28 80.39 327.96
  Q 78.63 327.12 79.54 324.54
  Q 84.97 309.04 87.60 295.17
  A 0.35 0.34 -84.3 0 1 87.95 294.88
  Q 103.26 295.45 119.03 300.37
  A 0.70 0.70 0.0 0 1 119.53 301.09
  Z"
/>
<path d="
  M 100.39 359.50
  L 91.47 371.13
  A 0.44 0.43 21.7 0 1 91.07 371.30
  C 81.89 370.11 73.92 369.71 65.62 374.32
  C 63.90 375.29 61.89 378.43 64.74 379.47
  Q 66.38 380.07 67.33 379.56
  Q 72.56 376.71 78.50 376.54
  C 87.91 376.28 106.95 379.63 107.38 392.48
  A 0.84 0.83 85.0 0 1 106.67 393.33
  Q 83.09 396.88 59.95 392.84
  Q 53.66 391.75 49.25 390.12
  A 1.03 1.03 0.0 0 1 48.62 388.88
  C 50.22 382.99 51.00 375.21 48.00 369.73
  Q 46.27 366.59 42.89 364.57
  A 0.56 0.56 0.0 0 0 42.14 365.37
  C 46.71 371.82 46.54 380.14 44.04 387.44
  A 0.81 0.81 0.0 0 1 42.90 387.89
  L 33.08 382.88
  A 1.82 1.82 0.0 0 1 32.16 380.74
  Q 36.43 366.42 42.84 351.56
  Q 46.15 343.91 50.09 338.47
  A 0.58 0.58 0.0 0 1 50.92 338.35
  C 65.27 349.31 82.15 357.06 100.20 359.06
  A 0.27 0.27 0.0 0 1 100.39 359.50
  Z"
/>
<path d="
  M 227.48 347.46
  L 224.74 362.24
  A 0.74 0.73 -83.2 0 1 223.99 362.84
  Q 215.41 362.54 206.75 365.96
  A 3.70 3.69 84.5 0 0 204.46 368.74
  L 204.25 369.88
  A 1.75 1.75 0.0 0 0 206.57 371.85
  Q 223.28 365.82 238.38 372.56
  Q 247.00 376.41 248.27 385.64
  A 1.13 1.12 -7.8 0 1 247.30 386.91
  C 228.82 389.31 209.34 389.07 191.12 387.50
  A 1.09 1.09 0.0 0 1 190.12 386.45
  Q 189.98 381.54 188.59 376.70
  C 186.36 368.95 179.60 362.21 171.12 363.41
  A 0.44 0.44 0.0 0 1 170.63 362.89
  L 173.38 348.02
  A 0.71 0.70 9.3 0 1 174.18 347.45
  Q 200.34 351.21 226.92 346.88
  A 0.49 0.49 0.0 0 1 227.48 347.46
  Z"
/>
<path d="
  M 170.77 364.30
  Q 172.95 365.39 174.84 366.19
  C 181.92 369.18 185.23 378.30 184.88 385.52
  A 0.61 0.61 0.0 0 1 184.21 386.10
  L 167.77 384.35
  A 0.68 0.68 0.0 0 1 167.17 383.64
  Q 167.68 374.36 169.99 364.66
  A 0.55 0.55 0.0 0 1 170.77 364.30
  Z"
/>
<path d="
  M 106.40 398.77
  A 1.55 1.54 86.6 0 1 108.21 400.38
  L 108.06 403.02
  A 2.97 2.97 0.0 0 1 105.47 405.80
  Q 81.55 408.83 58.40 405.95
  C 55.74 405.62 50.03 402.09 47.83 400.03
  C 45.47 397.82 43.45 398.71 42.77 401.57
  A 0.68 0.68 0.0 0 1 41.80 402.02
  L 31.66 396.85
  A 3.96 3.96 0.0 0 1 29.51 393.11
  L 29.67 390.36
  A 1.70 1.70 0.0 0 1 32.16 388.95
  C 54.37 400.71 81.81 403.10 106.40 398.77
  Z"
/>
<path d="
  M 182.24 400.38
  L 169.81 398.08
  A 3.59 3.58 -0.7 0 1 166.96 395.31
  L 166.38 392.68
  A 1.71 1.71 0.0 0 1 168.16 390.61
  Q 173.05 390.92 182.36 392.08
  Q 215.55 396.20 247.30 392.12
  A 1.24 1.23 -0.6 0 1 248.68 393.47
  L 248.19 398.04
  A 2.13 2.12 89.7 0 1 246.33 399.93
  Q 223.59 402.59 202.26 401.08
  Q 198.68 400.83 190.69 397.77
  C 187.37 396.50 184.47 396.17 183.25 399.79
  A 0.90 0.89 14.7 0 1 182.24 400.38
  Z"
/>
</g>
<path fill="#ff9e2e" d="
  M 445.95 128.40
  A 0.85 0.85 0.0 0 0 446.94 129.61
  Q 465.63 124.43 481.99 117.23
  Q 495.08 111.47 505.52 101.03
  Q 506.43 100.13 515.00 91.67
  C 523.29 83.49 530.37 78.93 541.66 78.87
  A 0.81 0.81 0.0 0 1 542.38 80.05
  C 539.28 86.01 535.86 92.81 534.33 101.28
  C 532.79 109.75 531.75 118.21 527.96 122.97
  A 0.60 0.60 0.0 0 0 528.30 123.93
  Q 530.29 124.40 532.25 124.27
  C 540.48 123.76 548.60 124.16 556.50 127.16
  C 566.44 130.92 574.98 133.97 586.00 133.00
  Q 588.02 132.83 589.51 133.06
  A 0.57 0.57 0.0 0 1 589.84 134.01
  Q 584.10 140.29 575.52 142.98
  Q 559.86 147.90 544.08 147.34
  C 536.19 147.06 529.19 146.20 522.28 147.59
  A 0.64 0.64 0.0 0 0 521.79 148.41
  Q 524.14 156.01 529.02 161.25
  C 533.17 165.69 539.35 167.98 545.19 170.19
  A 0.47 0.46 37.5 0 1 545.30 171.00
  C 540.66 174.35 532.43 174.59 526.86 173.86
  C 511.90 171.91 497.81 164.63 483.41 159.97
  Q 472.57 156.46 459.58 153.76
  Q 453.97 152.60 448.16 152.73
  A 0.56 0.55 70.3 0 0 447.74 153.63
  Q 450.60 157.27 453.45 161.17
  C 457.53 166.75 462.07 171.01 467.75 175.34
  A 0.56 0.56 0.0 0 1 467.53 176.33
  C 463.92 177.10 458.07 175.78 454.11 174.75
  C 446.91 172.88 440.09 168.00 431.96 163.28
  C 427.95 160.94 419.85 158.09 414.10 156.87
  Q 401.99 154.32 389.00 152.59
  C 382.51 151.73 374.06 151.83 367.58 151.22
  Q 367.13 151.17 366.94 150.99
  A 0.39 0.39 0.0 0 1 367.10 150.33
  Q 375.09 148.00 393.85 142.58
  C 413.95 136.77 434.94 126.05 449.01 109.82
  A 0.67 0.67 0.0 0 1 450.16 110.08
  C 452.01 116.92 449.02 122.38 445.95 128.40
  Z"
/>
<g fill="#3b90c4">
<path d="
  M 86.64 106.87
  A 0.59 0.58 -10.8 0 1 87.21 106.04
  L 88.77 106.12
  A 1.68 1.68 0.0 0 1 90.30 107.37
  Q 92.77 116.60 98.29 124.68
  A 0.54 0.54 0.0 0 1 97.90 125.52
  L 88.23 126.53
  A 0.36 0.36 0.0 0 1 87.84 126.09
  C 89.34 119.63 89.49 112.90 86.64 106.87
  Z"
/>
<path d="
  M 48.35 224.50
  L 50.59 226.22
  A 1.99 1.99 0.0 0 1 51.32 228.28
  Q 49.90 234.18 50.11 241.52
  A 1.09 1.09 0.0 0 1 49.02 242.64
  L 37.72 242.64
  A 0.67 0.67 0.0 0 1 37.36 241.40
  C 43.54 237.56 45.81 231.91 47.07 225.00
  A 0.80 0.80 0.0 0 1 48.35 224.50
  Z"
/>
<path d="
  M 33.34 248.79
  Q 32.46 249.88 25.65 259.40
  C 19.25 268.32 12.12 281.09 13.29 292.22
  Q 14.33 302.11 23.38 305.62
  C 42.33 312.98 61.86 292.19 71.64 278.25
  A 1.22 1.22 0.0 0 1 72.86 277.75
  L 75.96 278.33
  A 0.49 0.48 21.3 0 1 76.29 279.07
  C 65.60 296.12 48.91 315.00 26.30 312.40
  C 16.23 311.24 8.39 302.79 7.29 292.75
  Q 6.22 283.03 10.95 273.11
  Q 17.63 259.08 28.41 246.26
  A 0.43 0.43 0.0 0 1 28.94 246.15
  L 33.24 248.35
  A 0.29 0.29 0.0 0 1 33.34 248.79
  Z"
/>
</g>
</svg>
