<?xml version="1.0" encoding="UTF-8" standalone="no"?>
<!DOCTYPE svg PUBLIC "-//W3C//DTD SVG 1.1//EN" "http://www.w3.org/Graphics/SVG/1.1/DTD/svg11.dtd">
<svg xmlns="http://www.w3.org/2000/svg" version="1.1" viewBox="0.00 0.00 473.00 453.00">
<g fill="var(--art-stroke)">
<path d="
  M 168.50 0.00
  Q 186.08 1.30 201.80 7.44
  C 226.09 16.93 245.76 36.27 254.55 60.94
  C 264.12 87.81 262.73 119.50 242.05 140.65
  A 0.50 0.50 0.0 0 0 242.17 141.44
  C 249.98 145.81 248.95 152.89 249.04 160.52
  A 0.51 0.50 89.4 0 0 249.54 161.02
  L 267.21 160.97
  A 0.91 0.90 -59.5 0 0 267.66 160.85
  Q 268.35 160.43 269.33 160.39
  Q 282.54 159.78 295.70 160.02
  A 2.63 2.54 33.2 0 0 296.75 159.82
  Q 297.57 159.47 298.03 159.44
  Q 306.35 158.94 322.47 158.96
  Q 323.21 158.96 327.52 158.57
  C 330.95 158.26 334.94 158.47 336.88 156.64
  Q 343.14 150.75 350.17 142.42
  Q 353.01 139.05 356.36 136.78
  C 358.56 135.29 361.15 137.13 362.03 139.09
  Q 362.82 140.83 362.96 145.77
  Q 363.10 150.97 363.01 155.77
  A 1.16 1.16 0.0 0 0 364.16 156.95
  Q 370.35 156.99 376.15 157.03
  C 383.05 157.09 391.95 154.40 398.61 157.08
  A 1.95 1.94 -81.9 0 1 399.82 158.71
  Q 400.76 168.97 400.04 175.37
  A 4.11 4.10 -8.7 0 1 397.60 178.68
  Q 395.07 179.78 391.76 179.82
  Q 374.40 179.99 357.02 180.81
  Q 346.51 181.31 336.38 181.02
  A 1.74 1.73 9.1 0 0 334.66 182.26
  Q 333.06 187.78 327.26 187.94
  Q 323.61 188.05 313.77 188.00
  A 0.67 0.67 0.0 0 0 313.17 188.97
  L 313.76 190.16
  A 1.48 1.45 -61.5 0 1 313.93 190.76
  C 315.17 207.71 307.17 221.03 291.15 226.33
  Q 289.30 226.94 284.78 228.45
  A 2.39 2.34 -82.2 0 0 283.52 229.43
  Q 274.77 243.06 259.78 250.57
  C 254.84 253.05 248.29 254.94 243.26 258.24
  C 238.72 261.20 234.72 264.54 230.44 266.00
  A 1.92 1.91 -47.0 0 1 229.39 266.04
  C 224.02 264.72 222.17 261.22 219.18 257.03
  A 2.63 2.62 -13.6 0 0 217.42 255.96
  C 210.96 255.00 204.98 252.35 201.11 247.23
  A 0.61 0.61 0.0 0 0 200.01 247.66
  Q 200.17 249.27 199.41 250.05
  A 1.43 1.41 -21.0 0 0 199.01 250.93
  C 198.82 253.54 199.03 254.12 201.28 255.15
  C 204.66 256.70 205.86 258.85 206.43 262.61
  Q 207.00 266.33 207.78 271.30
  C 208.14 273.54 207.56 275.17 205.63 276.23
  A 0.34 0.34 0.0 0 0 205.59 276.80
  Q 225.35 290.86 240.97 305.51
  C 249.02 313.06 254.65 322.07 256.13 333.39
  Q 257.37 342.87 256.83 349.29
  Q 255.98 359.30 256.00 359.90
  Q 256.15 364.10 255.31 370.56
  Q 254.90 373.74 254.91 383.50
  A 19.15 18.42 -41.5 0 1 254.67 386.49
  Q 253.70 392.62 254.05 398.39
  A 0.53 0.53 0.0 0 0 254.47 398.87
  C 273.55 402.94 286.89 413.87 286.07 434.68
  A 1.80 1.79 -84.0 0 0 287.55 436.52
  C 292.52 437.39 296.41 437.78 299.27 440.74
  A 2.04 2.03 42.7 0 1 299.38 443.43
  C 296.61 446.82 290.12 447.61 284.93 448.34
  Q 266.75 450.89 248.84 451.06
  C 245.26 451.09 241.76 452.00 237.89 451.99
  Q 102.94 451.99 85.65 452.01
  Q 68.72 452.02 61.84 451.68
  Q 49.93 451.09 38.06 450.35
  Q 24.12 449.49 11.34 447.32
  Q 4.92 446.23 0.00 442.69
  L 0.00 440.35
  C 3.53 436.10 10.96 436.02 16.19 435.51
  A 0.73 0.72 73.2 0 0 16.76 434.44
  Q 14.48 430.18 11.41 426.06
  Q 7.26 420.47 5.82 417.85
  C 2.38 411.58 -0.11 405.75 2.53 398.67
  C 9.70 379.43 20.81 362.22 32.65 345.65
  Q 35.13 342.19 38.14 339.33
  A 1.51 1.50 50.7 0 0 38.33 337.38
  C 33.98 331.12 34.91 327.21 36.58 319.26
  Q 40.22 301.89 45.86 283.37
  A 1.09 1.08 -81.9 0 0 44.81 281.97
  Q 40.45 282.04 37.39 281.88
  C 19.16 280.89 9.90 268.45 11.65 250.88
  Q 12.68 240.57 13.66 232.98
  Q 23.93 153.66 24.45 148.82
  Q 25.83 136.00 28.19 131.36
  C 34.83 118.32 49.73 112.86 63.71 114.08
  A 1.25 1.24 81.0 0 0 64.96 112.35
  Q 63.54 109.00 63.21 105.27
  C 62.58 98.10 62.41 90.40 65.13 83.88
  C 66.68 80.19 68.93 76.29 69.81 71.87
  C 74.56 47.79 91.29 24.89 111.75 12.96
  Q 130.91 1.78 155.65 0.00
  L 168.50 0.00
  Z
  M 79.54 68.10
  Q 88.79 64.75 96.51 67.44
  C 111.25 72.58 115.69 87.62 114.30 102.10
  C 112.62 119.48 99.53 131.07 81.69 126.87
  A 0.32 0.31 81.1 0 0 81.35 127.34
  Q 88.12 138.78 98.99 146.00
  C 115.77 157.14 136.98 162.81 157.50 163.91
  Q 162.06 164.15 164.81 163.46
  A 2.15 2.09 -71.4 0 0 165.72 162.99
  Q 166.88 161.97 167.69 159.85
  A 0.58 0.57 -71.0 0 0 167.33 159.09
  C 141.96 150.91 124.00 134.53 121.66 106.53
  Q 119.01 74.79 140.10 52.56
  C 156.93 34.82 181.93 30.53 205.33 32.64
  C 216.74 33.66 225.48 37.54 235.03 43.48
  A 0.34 0.34 0.0 0 0 235.48 42.99
  Q 220.13 23.01 196.64 14.41
  C 169.93 4.63 139.44 6.96 115.05 21.05
  C 97.87 30.96 85.31 49.05 79.00 67.57
  A 0.42 0.42 0.0 0 0 79.54 68.10
  Z
  M 169.57 72.84
  Q 167.93 78.69 166.67 84.71
  Q 166.11 87.36 166.72 88.57
  Q 170.08 95.28 171.12 97.12
  Q 172.17 98.95 171.10 100.62
  Q 166.06 108.54 165.52 109.28
  Q 164.36 110.87 162.93 110.49
  A 0.99 0.98 14.8 0 1 162.22 109.28
  L 165.28 98.23
  A 0.99 0.99 0.0 0 0 165.18 97.47
  L 160.50 89.37
  A 2.59 2.58 -54.3 0 1 160.21 87.58
  Q 162.12 78.26 162.96 70.51
  Q 163.15 68.76 162.86 67.29
  A 1.84 1.72 22.2 0 0 162.49 66.49
  Q 157.03 59.66 151.09 54.56
  A 1.09 1.08 43.9 0 0 149.66 54.58
  Q 128.60 74.07 129.55 101.16
  Q 130.08 116.54 137.49 128.44
  C 145.03 140.54 157.18 147.76 170.91 151.86
  A 0.92 0.90 -69.5 0 0 171.99 151.36
  Q 176.29 141.70 187.25 140.98
  Q 190.22 140.79 215.25 140.24
  Q 219.21 140.16 230.85 139.50
  A 4.78 4.78 0.0 0 0 234.00 138.08
  Q 254.93 116.82 252.25 86.72
  Q 250.35 65.39 234.06 52.71
  Q 220.43 42.11 203.24 40.61
  C 188.29 39.31 171.06 41.52 157.78 49.10
  A 0.40 0.40 0.0 0 0 157.68 49.71
  L 171.74 65.68
  A 2.36 2.29 -5.6 0 0 172.43 66.23
  L 181.22 70.97
  A 1.38 1.36 44.0 0 0 182.56 70.96
  L 186.54 68.66
  A 2.30 2.28 44.8 0 1 188.83 68.66
  L 195.08 72.27
  A 2.38 2.35 -33.3 0 0 196.52 72.56
  C 200.33 72.09 203.47 71.09 206.20 71.62
  A 1.04 1.03 -54.4 0 1 206.51 73.53
  L 198.20 78.33
  A 3.76 3.74 -44.9 0 1 194.47 78.33
  L 188.73 75.02
  A 2.07 2.06 44.8 0 0 186.66 75.02
  L 181.94 77.74
  A 2.80 2.80 0.0 0 1 179.14 77.74
  L 170.21 72.58
  A 0.44 0.44 0.0 0 0 169.57 72.84
  Z
  M 70.60 96.96
  C 70.27 107.86 74.71 119.96 87.68 120.36
  C 100.65 120.75 105.83 108.95 106.16 98.05
  C 106.50 87.16 102.05 75.06 89.09 74.66
  C 76.12 74.26 70.94 86.06 70.60 96.96
  Z
  M 56.62 122.30
  Q 58.67 123.29 61.60 125.13
  C 69.26 129.93 72.23 138.89 71.33 147.86
  A 0.32 0.32 0.0 0 0 71.75 148.19
  L 83.00 144.41
  A 0.32 0.32 0.0 0 0 83.15 143.90
  Q 77.94 137.57 71.76 128.55
  Q 66.29 120.56 56.68 121.90
  A 0.21 0.21 0.0 0 0 56.62 122.30
  Z
  M 32.22 161.33
  L 51.84 166.75
  A 1.90 1.88 -63.3 0 0 53.84 166.08
  Q 57.85 160.86 64.19 156.17
  A 2.81 2.79 76.0 0 0 65.29 154.33
  C 65.99 149.39 66.64 142.95 65.10 138.36
  C 62.07 129.30 52.13 124.59 43.39 127.99
  Q 35.55 131.05 33.83 141.12
  Q 32.47 149.14 31.28 159.94
  A 1.30 1.29 -79.3 0 0 32.22 161.33
  Z
  M 174.80 165.83
  L 183.64 165.53
  A 0.88 0.86 -88.9 0 0 184.48 164.71
  C 184.74 160.26 184.43 155.57 190.50 155.42
  Q 206.47 155.03 223.33 154.43
  C 230.95 154.16 235.36 154.00 235.78 162.43
  A 1.41 1.41 0.0 0 0 237.24 163.77
  L 239.88 163.68
  A 1.27 1.27 0.0 0 0 241.11 162.40
  Q 241.11 156.91 240.87 152.72
  C 240.50 145.93 231.89 147.55 226.37 147.82
  Q 224.02 147.94 191.25 148.76
  C 184.89 148.92 181.15 149.87 178.58 155.37
  Q 176.32 160.21 174.32 165.15
  A 0.50 0.50 0.0 0 0 174.80 165.83
  Z
  M 354.84 151.41
  A 0.32 0.32 0.0 0 0 354.30 151.19
  L 345.05 160.45
  A 0.98 0.98 0.0 0 0 345.77 162.12
  L 353.87 161.85
  A 1.33 1.33 0.0 0 0 355.15 160.48
  L 354.84 151.41
  Z
  M 80.66 154.54
  C 90.07 155.87 99.22 161.15 102.21 170.55
  A 1.58 1.58 0.0 0 0 103.77 171.66
  L 110.46 171.43
  A 0.88 0.88 0.0 0 0 111.28 170.31
  Q 109.12 162.59 102.33 157.94
  Q 98.03 154.99 97.95 154.93
  C 92.41 151.09 86.80 150.53 80.52 153.69
  A 0.45 0.45 0.0 0 0 80.66 154.54
  Z
  M 227.7806 162.0497
  A 1.13 1.13 0.0 0 0 226.6175 160.9538
  L 193.1323 161.9476
  A 1.13 1.13 0.0 0 0 192.0363 163.1106
  L 192.0594 163.8903
  A 1.13 1.13 0.0 0 0 193.2225 164.9862
  L 226.7077 163.9924
  A 1.13 1.13 0.0 0 0 227.8037 162.8294
  L 227.7806 162.0497
  Z
  M 91.34 256.05
  A 0.42 0.42 0.0 0 0 91.68 255.43
  Q 86.67 246.17 86.43 235.75
  Q 86.17 224.41 90.05 214.22
  A 0.40 0.40 0.0 0 0 89.72 213.68
  C 81.35 212.84 77.23 214.73 70.18 218.87
  Q 69.00 219.56 67.87 218.74
  C 65.75 217.22 67.57 213.89 68.90 212.42
  C 73.87 206.94 80.67 205.55 87.91 205.85
  A 0.66 0.66 0.0 0 0 88.59 205.22
  Q 88.90 197.85 89.64 187.03
  Q 89.94 182.61 90.50 179.29
  C 91.00 176.33 91.85 175.41 94.23 173.63
  A 0.72 0.71 61.1 0 0 94.46 172.81
  Q 92.00 166.58 85.50 164.17
  C 66.93 157.29 55.76 173.65 50.84 188.72
  C 47.03 200.40 44.99 212.43 45.63 224.71
  C 46.27 237.03 51.21 247.51 63.36 252.18
  Q 76.62 257.29 91.34 256.05
  Z
  M 392.6327 164.4450
  A 0.83 0.83 0.0 0 0 391.7799 163.6385
  L 364.3506 164.4047
  A 0.83 0.83 0.0 0 0 363.5441 165.2575
  L 363.7273 171.8150
  A 0.83 0.83 0.0 0 0 364.5801 172.6215
  L 392.0094 171.8553
  A 0.83 0.83 0.0 0 0 392.8159 171.0025
  L 392.6327 164.4450
  Z
  M 117.36 164.66
  L 119.30 170.43
  A 1.40 1.38 -8.7 0 0 120.61 171.38
  C 127.36 171.38 138.91 169.91 144.81 175.65
  Q 145.84 176.66 147.28 178.61
  A 1.09 1.08 53.6 0 0 148.78 178.84
  L 157.41 172.73
  A 0.40 0.40 0.0 0 0 157.20 172.00
  Q 136.80 171.07 117.93 164.11
  A 0.44 0.44 0.0 0 0 117.36 164.66
  Z
  M 325.51 165.98
  L 249.74 168.52
  A 0.84 0.84 0.0 0 0 248.93 169.39
  L 249.66 191.36
  A 0.82 0.82 0.0 0 0 250.63 192.14
  L 256.61 191.02
  A 1.07 1.07 0.0 0 0 257.46 189.76
  C 255.94 182.11 261.07 174.31 269.46 176.60
  Q 271.93 177.27 272.08 177.30
  A 0.81 0.78 -65.9 0 0 272.86 176.99
  C 276.73 171.72 282.87 170.18 288.63 173.96
  Q 289.34 174.43 289.89 174.75
  A 0.93 0.93 0.0 0 0 290.93 174.69
  Q 298.74 168.90 306.10 174.58
  C 307.47 175.63 308.55 177.34 309.77 179.05
  A 2.25 2.23 71.0 0 0 311.66 179.98
  L 325.28 179.52
  A 1.10 1.10 0.0 0 0 326.35 178.38
  L 325.95 166.39
  A 0.43 0.42 87.3 0 0 325.51 165.98
  Z
  M 48.84 173.27
  A 0.34 0.34 0.0 0 0 48.62 172.80
  L 30.73 167.86
  A 0.34 0.34 0.0 0 0 30.30 168.15
  L 28.41 182.64
  A 0.34 0.34 0.0 0 0 28.65 183.01
  L 42.21 186.76
  A 0.34 0.34 0.0 0 0 42.61 186.58
  L 48.84 173.27
  Z
  M 355.7880 168.7997
  A 1.10 1.10 0.0 0 0 354.6671 167.7210
  L 334.9308 168.1000
  A 1.10 1.10 0.0 0 0 333.8521 169.2209
  L 333.9120 172.3403
  A 1.10 1.10 0.0 0 0 335.0329 173.4190
  L 354.7692 173.0400
  A 1.10 1.10 0.0 0 0 355.8479 171.9191
  L 355.7880 168.7997
  Z
  M 240.96 171.50
  Q 184.37 173.66 172.25 173.89
  Q 168.26 173.96 166.97 174.96
  C 160.04 180.32 154.42 185.01 147.58 188.83
  C 144.54 190.53 140.50 190.66 140.89 185.88
  Q 141.39 179.80 134.53 179.38
  Q 124.60 178.77 103.07 179.77
  C 99.56 179.94 97.86 181.23 97.65 184.73
  Q 97.34 189.88 96.33 205.86
  A 0.67 0.66 -0.8 0 0 97.06 206.56
  Q 113.95 204.89 131.68 205.59
  C 133.64 205.67 135.07 206.18 136.77 206.96
  A 1.28 1.27 37.1 0 0 138.11 206.78
  C 146.66 199.66 153.62 196.53 164.76 196.86
  Q 204.00 198.03 206.74 198.06
  Q 210.38 198.11 210.48 201.53
  Q 210.64 206.63 210.76 208.27
  A 1.26 1.25 82.7 0 0 212.24 209.42
  L 230.55 206.01
  A 1.25 1.24 86.2 0 0 231.56 204.85
  Q 231.84 199.30 234.10 197.92
  Q 237.92 195.58 240.43 194.70
  A 2.02 2.01 -10.6 0 0 241.78 192.73
  L 241.59 187.05
  A 0.81 0.80 -1.8 0 0 240.75 186.27
  L 183.15 188.20
  A 3.87 3.86 -3.0 0 1 179.17 184.62
  L 179.11 183.90
  A 3.37 3.37 0.0 0 1 182.36 180.28
  L 240.97 178.31
  A 0.34 0.34 0.0 0 0 241.30 177.96
  L 241.09 171.63
  A 0.14 0.13 87.6 0 0 240.96 171.50
  Z
  M 271.49 223.59
  Q 271.32 222.69 271.60 222.13
  A 1.32 1.30 10.4 0 1 272.61 221.44
  C 280.18 220.62 286.48 219.99 292.36 217.36
  C 306.02 211.25 308.54 195.60 303.76 182.80
  A 5.57 5.55 78.8 0 0 298.36 179.18
  L 298.00 179.19
  A 2.75 2.75 0.0 0 0 295.61 183.09
  Q 299.13 190.67 298.63 200.63
  A 3.27 3.26 89.9 0 1 295.55 203.73
  L 295.24 203.74
  A 3.16 3.15 -3.2 0 1 291.92 200.78
  C 291.54 194.50 290.82 187.21 287.20 181.84
  A 5.29 5.27 -17.8 0 0 282.63 179.50
  L 281.50 179.54
  A 2.77 2.77 0.0 0 0 279.20 183.70
  Q 283.68 191.44 282.32 203.82
  A 3.57 3.55 3.7 0 1 278.70 206.99
  L 278.49 206.99
  A 3.14 3.14 0.0 0 1 275.43 203.58
  Q 276.17 195.19 273.75 188.82
  C 272.47 185.44 269.16 181.68 265.39 184.36
  C 264.00 185.34 263.83 187.53 264.07 188.99
  Q 265.99 200.56 266.22 202.49
  C 266.68 206.18 262.99 207.56 261.20 204.22
  Q 260.16 202.28 259.61 199.64
  A 1.43 1.43 0.0 0 0 257.08 199.06
  Q 253.04 204.25 253.51 210.99
  C 254.17 220.31 262.09 225.05 270.79 224.49
  A 0.77 0.76 -7.4 0 0 271.49 223.59
  Z
  M 44.46 248.04
  C 34.86 231.53 36.02 212.02 41.01 193.91
  A 0.94 0.94 0.0 0 0 40.35 192.75
  L 28.21 189.40
  A 0.61 0.61 0.0 0 0 27.44 189.91
  L 20.80 240.85
  A 1.73 1.73 0.0 0 0 21.71 242.61
  Q 31.67 247.91 44.13 248.59
  A 0.37 0.36 76.5 0 0 44.46 248.04
  Z
  M 273.35 230.17
  C 254.97 233.73 242.27 219.19 247.57 201.40
  A 0.35 0.35 0.0 0 0 247.12 200.97
  L 240.96 203.04
  A 1.51 1.49 -7.5 0 0 239.93 204.37
  Q 239.28 214.54 244.31 223.74
  C 248.91 232.17 258.74 235.49 267.66 235.41
  A 3.57 3.56 -65.8 0 0 269.99 234.52
  L 273.83 231.14
  A 0.56 0.56 0.0 0 0 273.35 230.17
  Z
  M 166.17 250.69
  A 0.62 0.62 0.0 0 0 166.62 251.75
  Q 173.02 251.71 176.56 246.56
  Q 180.14 241.36 176.14 237.50
  C 174.15 235.57 169.30 234.67 168.54 232.36
  A 2.34 2.31 -21.2 0 1 169.82 229.51
  C 172.79 228.20 177.00 229.85 179.94 230.95
  A 0.93 0.91 25.8 0 0 181.03 230.58
  Q 184.05 225.83 180.35 222.32
  C 178.48 220.54 175.63 220.18 173.24 219.42
  A 3.13 2.82 12.4 0 1 171.05 216.36
  C 171.28 214.09 173.06 213.66 175.16 213.95
  Q 178.10 214.37 184.00 214.68
  C 188.12 214.89 194.15 214.07 193.41 208.38
  Q 193.06 205.70 190.50 205.69
  Q 177.79 205.67 166.73 204.90
  C 159.89 204.42 153.68 204.97 148.54 208.50
  Q 145.58 210.54 141.27 213.60
  C 136.72 216.84 134.86 220.78 134.25 226.00
  C 133.46 232.76 133.92 241.51 137.74 246.61
  A 2.80 2.79 -7.9 0 0 139.00 247.56
  Q 147.27 250.65 155.31 247.92
  C 157.46 247.18 160.77 244.78 162.66 243.68
  Q 165.33 242.13 167.72 243.96
  Q 169.10 245.02 169.13 246.49
  C 169.20 249.12 167.50 249.32 166.17 250.69
  Z
  M 193.50 220.40
  C 202.71 221.00 202.69 213.36 203.01 206.75
  A 0.96 0.96 0.0 0 0 202.17 205.75
  L 201.22 205.62
  A 0.63 0.63 0.0 0 0 200.51 206.31
  C 201.16 212.30 199.84 217.90 193.44 219.85
  A 0.28 0.28 0.0 0 0 193.50 220.40
  Z
  M 129.40 213.07
  L 99.83 214.07
  A 3.19 3.17 -76.7 0 0 97.14 215.74
  C 91.70 225.82 92.49 239.76 96.65 249.89
  C 98.40 254.15 99.94 257.39 104.92 257.16
  C 114.02 256.74 122.84 254.20 131.57 251.66
  A 0.58 0.58 0.0 0 0 131.87 250.76
  C 124.62 241.02 124.84 224.38 129.91 213.85
  A 0.55 0.54 -78.3 0 0 129.40 213.07
  Z
  M 218.49 215.98
  L 214.09 216.80
  A 1.72 1.71 -10.1 0 0 212.71 218.77
  Q 215.94 238.09 227.08 254.66
  Q 227.99 256.01 229.58 256.97
  A 0.98 0.97 -46.9 0 0 230.66 256.93
  L 245.34 246.53
  A 0.94 0.93 57.0 0 0 245.60 245.28
  C 239.62 235.35 234.00 225.41 232.07 214.61
  A 1.37 1.36 79.6 0 0 230.47 213.50
  L 226.99 214.15
  A 1.55 1.55 0.0 0 0 225.72 215.81
  Q 226.96 230.38 235.47 243.85
  A 3.31 3.31 0.0 0 1 234.63 248.28
  L 234.46 248.40
  A 2.90 2.89 -33.6 0 1 230.27 247.56
  Q 221.36 232.80 220.03 217.15
  A 1.30 1.30 0.0 0 0 218.49 215.98
  Z
  M 213.90 246.15
  Q 209.03 235.41 207.41 224.85
  A 0.46 0.46 0.0 0 0 206.69 224.55
  C 203.92 226.55 203.79 230.84 202.87 235.63
  A 1.45 1.40 37.3 0 0 203.02 236.59
  Q 206.75 243.40 213.42 246.62
  A 0.36 0.36 0.0 0 0 213.90 246.15
  Z
  M 191.32 227.32
  A 0.76 0.75 0.9 0 0 190.47 228.14
  Q 190.98 233.34 185.90 236.59
  A 0.85 0.85 0.0 0 0 185.54 237.50
  C 187.56 245.76 183.23 251.39 176.68 255.90
  C 171.18 259.67 164.94 260.11 158.64 256.35
  A 1.55 1.54 -37.2 0 0 157.45 256.19
  Q 148.41 258.71 139.37 256.26
  A 0.92 0.92 0.0 0 0 138.50 256.49
  Q 135.60 259.42 131.22 260.22
  Q 123.56 261.63 115.53 262.49
  A 1.02 1.02 0.0 0 0 115.40 264.49
  Q 124.01 266.61 132.41 267.11
  A 1.48 1.47 22.1 0 0 133.63 266.60
  C 135.82 264.03 137.89 263.41 141.44 263.45
  Q 152.21 263.59 162.99 263.22
  Q 165.59 263.13 167.73 264.27
  Q 169.69 265.32 169.75 265.34
  A 3.58 3.55 49.2 0 0 171.17 265.45
  L 181.74 264.19
  A 0.60 0.60 0.0 0 0 182.25 263.74
  Q 183.51 258.70 188.75 256.37
  A 2.69 2.67 84.3 0 0 190.28 254.49
  L 196.01 228.67
  A 0.68 0.67 10.2 0 0 195.44 227.86
  L 191.32 227.32
  Z
  M 247.10 235.96
  Q 249.31 239.13 252.06 241.83
  C 253.70 243.45 254.38 244.45 256.79 243.31
  Q 259.28 242.13 261.33 240.75
  A 0.32 0.32 0.0 0 0 261.19 240.16
  C 257.02 239.61 253.47 238.19 247.50 235.48
  A 0.32 0.32 0.0 0 0 247.10 235.96
  Z
  M 19.83 248.89
  Q 18.70 256.86 20.57 262.46
  C 23.76 272.00 34.09 274.54 43.05 274.15
  A 0.51 0.50 -7.7 0 0 43.52 273.54
  Q 41.57 264.60 43.31 254.66
  A 0.90 0.89 -84.8 0 0 42.44 253.61
  C 35.11 253.49 27.73 251.41 20.64 248.43
  A 0.59 0.58 15.0 0 0 19.83 248.89
  Z
  M 51.65 255.16
  L 49.59 254.80
  A 0.27 0.27 0.0 0 0 49.27 255.02
  L 49.24 255.20
  A 10.83 1.30 -80.1 0 0 48.66 266.09
  L 48.70 266.10
  A 10.83 1.30 -80.1 0 0 51.84 255.65
  L 51.87 255.48
  A 0.27 0.27 0.0 0 0 51.65 255.16
  Z
  M 62.68 270.31
  L 63.78 261.84
  A 0.89 0.89 0.0 0 0 63.13 260.87
  L 58.84 259.68
  A 0.65 0.64 13.6 0 0 58.04 260.16
  L 56.80 265.72
  A 2.74 2.74 0.0 0 0 57.80 268.47
  L 61.04 270.98
  A 1.02 1.02 0.0 0 0 62.68 270.31
  Z
  M 200.48 269.93
  C 200.45 267.52 199.71 263.20 197.45 261.81
  A 1.45 1.44 -46.7 0 0 195.86 261.86
  L 194.61 262.75
  A 0.81 0.81 0.0 0 0 194.60 264.07
  Q 197.67 266.28 199.98 270.08
  A 0.27 0.27 0.0 0 0 200.48 269.93
  Z
  M 90.83 265.00
  L 70.37 263.00
  A 0.95 0.95 0.0 0 0 69.33 263.85
  L 68.69 270.37
  A 9.56 4.98 5.6 0 0 77.72 276.26
  L 81.04 276.58
  A 9.56 4.98 5.6 0 0 91.04 272.56
  L 91.68 266.04
  A 0.95 0.95 0.0 0 0 90.83 265.00
  Z
  M 98.46 264.71
  A 1.23 1.22 87.0 0 0 97.51 265.77
  Q 96.12 278.24 94.52 289.99
  Q 94.16 292.67 94.84 295.12
  A 2.14 2.14 0.0 0 0 96.61 296.66
  C 98.99 296.97 102.88 296.18 103.53 293.28
  Q 106.52 279.92 108.53 268.44
  A 2.90 2.88 -74.8 0 0 106.71 265.25
  Q 102.70 263.72 98.46 264.71
  Z
  M 190.49 268.92
  A 0.72 0.72 0.0 0 0 189.43 269.33
  C 188.32 272.99 186.47 283.15 189.32 286.19
  C 191.42 288.42 195.31 287.77 196.23 284.72
  C 197.97 279.01 195.82 272.18 190.49 268.92
  Z
  M 181.96 270.53
  L 172.53 272.05
  A 0.18 0.18 0.0 0 0 172.37 272.22
  L 171.29 282.67
  A 0.84 0.84 0.0 0 0 172.28 283.59
  L 179.33 282.28
  A 1.98 1.98 0.0 0 0 180.93 280.55
  L 182.00 270.57
  A 0.03 0.03 0.0 0 0 181.96 270.53
  Z
  M 165.46 273.04
  A 1.87 1.87 0.0 0 0 163.51 270.93
  Q 149.17 271.67 142.54 271.56
  Q 138.51 271.49 138.26 275.51
  Q 137.84 282.34 137.78 284.67
  C 137.65 289.33 139.64 289.06 144.00 288.95
  Q 155.57 288.65 161.61 287.82
  A 2.58 2.58 0.0 0 0 163.82 285.59
  L 165.46 273.04
  Z
  M 113.36 273.64
  L 112.45 281.22
  A 1.98 1.98 0.0 0 0 114.17 283.42
  L 126.70 284.94
  A 3.42 3.11 6.9 0 0 130.47 282.26
  L 131.12 276.92
  A 3.42 3.11 6.9 0 0 128.10 273.42
  L 115.57 271.91
  A 1.98 1.98 0.0 0 0 113.36 273.64
  Z
  M 142.76 319.99
  Q 153.81 315.10 163.56 305.51
  Q 169.02 300.15 171.91 297.78
  A 2.00 1.99 -71.7 0 1 172.70 297.38
  Q 174.88 296.80 176.06 298.43
  C 177.15 299.94 176.45 301.41 175.32 302.81
  Q 165.02 315.65 150.88 323.89
  A 0.44 0.44 0.0 0 0 150.91 324.67
  L 167.10 332.25
  A 0.82 0.82 0.0 0 0 168.20 331.82
  Q 175.03 315.45 189.49 305.81
  Q 201.89 297.53 215.82 294.86
  A 0.35 0.35 0.0 0 0 215.97 294.24
  L 204.63 285.44
  A 0.45 0.45 0.0 0 0 203.91 285.72
  C 203.12 289.87 200.13 293.08 196.12 294.36
  Q 187.38 297.14 181.97 289.52
  A 1.02 1.02 0.0 0 0 180.95 289.11
  L 170.88 290.99
  A 2.00 1.98 -72.5 0 0 169.80 291.56
  Q 166.55 294.87 161.23 295.46
  Q 153.77 296.28 139.75 296.61
  C 135.99 296.70 134.43 295.22 131.97 292.88
  A 2.97 2.95 65.2 0 0 129.76 292.06
  Q 122.49 292.45 115.27 290.98
  Q 112.91 290.50 111.25 290.24
  A 0.52 0.51 7.9 0 0 110.65 290.69
  C 109.70 299.00 107.05 303.59 98.01 303.69
  C 88.36 303.79 78.97 301.97 69.15 299.16
  C 61.22 296.88 58.40 291.45 59.84 283.88
  Q 60.70 279.35 60.96 278.52
  A 0.72 0.72 0.0 0 0 60.53 277.63
  L 56.63 276.16
  A 0.85 0.84 -72.0 0 0 55.52 276.73
  L 49.14 299.83
  A 0.74 0.74 0.0 0 0 49.65 300.73
  Q 63.15 304.53 76.99 306.51
  C 81.83 307.20 87.88 309.08 88.08 314.81
  A 1.08 0.94 -40.9 0 1 88.04 315.09
  L 86.58 319.78
  A 0.65 0.65 0.0 0 0 87.08 320.61
  C 100.61 323.17 112.20 326.24 123.37 334.40
  A 0.55 0.55 0.0 0 0 124.15 334.28
  Q 133.32 321.22 141.16 308.42
  Q 142.55 306.15 144.24 304.89
  A 2.32 2.31 -45.5 0 1 146.97 304.86
  Q 149.00 306.32 147.87 308.96
  Q 145.86 313.66 142.24 319.39
  A 0.42 0.41 4.2 0 0 142.76 319.99
  Z
  M 88.12 295.66
  L 89.75 283.14
  A 0.59 0.59 0.0 0 0 89.12 282.48
  Q 78.34 283.45 67.69 279.77
  A 0.54 0.54 0.0 0 0 66.98 280.19
  C 66.22 284.47 65.12 290.52 70.58 292.23
  Q 78.30 294.64 87.69 295.98
  A 0.37 0.37 0.0 0 0 88.12 295.66
  Z
  M 227.26 303.48
  L 223.43 300.50
  A 2.36 2.36 0.0 0 0 221.43 300.08
  Q 209.70 302.96 205.92 304.41
  C 192.02 309.77 179.28 320.27 174.10 335.02
  A 1.12 1.12 0.0 0 0 174.69 336.42
  L 185.76 341.61
  A 3.16 3.10 -36.9 0 0 187.63 341.86
  Q 192.60 341.00 200.13 338.58
  C 204.40 337.21 206.30 342.29 202.78 344.37
  Q 199.22 346.46 190.68 348.17
  A 0.76 0.75 -11.2 0 0 190.09 349.05
  L 190.64 352.01
  A 1.31 1.31 0.0 0 0 191.49 353.00
  C 193.31 353.63 200.03 355.81 198.33 359.39
  C 197.17 361.83 193.36 361.37 191.51 360.27
  A 0.63 0.63 0.0 0 0 190.57 360.73
  L 189.76 367.00
  A 1.58 1.57 -81.0 0 0 191.03 368.76
  Q 219.74 374.03 247.24 366.62
  A 1.09 1.09 0.0 0 0 248.04 365.70
  L 249.25 356.43
  A 0.61 0.60 80.3 0 0 248.38 355.81
  Q 238.30 361.00 226.02 360.10
  Q 219.88 359.65 218.93 353.52
  C 217.23 342.50 217.15 331.94 208.89 322.92
  C 206.93 320.78 204.08 318.67 204.13 315.98
  Q 204.18 313.26 206.90 311.66
  Q 214.51 307.19 227.07 304.33
  A 0.48 0.48 0.0 0 0 227.26 303.48
  Z
  M 47.05 307.72
  Q 44.86 314.82 42.70 325.23
  Q 41.52 330.90 45.84 332.97
  Q 51.91 335.88 61.50 336.69
  C 67.17 337.17 74.45 334.30 76.74 328.74
  Q 79.54 321.91 81.14 315.36
  A 1.68 1.67 -77.6 0 0 79.85 313.33
  L 48.28 306.98
  A 1.07 1.07 0.0 0 0 47.05 307.72
  Z
  M 249.64 339.34
  A 1.22 1.22 0.0 0 0 247.83 338.24
  Q 240.10 342.47 233.28 341.98
  A 3.42 3.41 85.0 0 1 230.20 339.39
  L 230.18 339.32
  A 2.17 2.16 83.0 0 1 232.27 336.64
  C 236.61 336.62 245.09 335.06 247.77 331.45
  A 1.62 1.61 63.8 0 0 248.08 330.53
  Q 248.12 329.10 247.57 327.45
  Q 244.60 318.51 237.91 312.19
  C 233.52 308.05 228.75 309.94 223.65 311.31
  Q 216.98 313.09 211.57 316.34
  A 0.74 0.74 0.0 0 0 211.46 317.52
  Q 218.64 323.91 221.65 333.32
  Q 223.41 338.79 223.57 340.75
  Q 224.19 348.61 224.91 352.19
  A 2.37 2.36 -4.0 0 0 227.09 354.08
  Q 238.56 354.76 247.73 349.36
  A 3.56 3.55 -14.8 0 0 249.48 346.37
  L 249.64 339.34
  Z
  M 118.04 344.84
  L 120.35 339.90
  A 0.40 0.39 -58.0 0 0 120.25 339.43
  Q 116.05 335.86 111.12 333.59
  Q 99.31 328.15 85.71 325.32
  A 0.67 0.66 -71.9 0 0 84.97 325.70
  C 82.82 330.51 81.23 335.77 78.32 338.12
  Q 69.37 345.35 57.27 343.16
  Q 55.46 342.84 48.29 340.54
  A 0.78 0.77 -68.5 0 0 47.35 340.95
  L 46.69 342.36
  A 3.60 3.59 84.8 0 1 45.52 343.77
  Q 42.13 346.21 41.29 347.01
  C 36.01 352.09 38.60 358.90 42.62 363.65
  C 52.52 375.34 66.95 382.62 81.98 384.80
  Q 85.65 385.33 89.08 384.04
  A 0.71 0.71 0.0 0 0 88.98 382.68
  Q 79.98 380.74 72.28 376.77
  C 67.56 374.34 63.42 370.12 67.42 365.10
  Q 76.62 353.53 81.56 341.32
  C 83.23 337.20 84.96 334.23 89.49 334.64
  Q 104.79 336.06 117.73 344.93
  A 0.22 0.21 -60.3 0 0 118.04 344.84
  Z
  M 90.95 433.92
  Q 95.97 434.11 103.25 434.08
  Q 141.51 433.92 166.50 434.03
  Q 172.55 434.06 174.13 434.36
  Q 177.40 435.00 180.47 434.97
  A 0.52 0.52 0.0 0 0 180.99 434.45
  Q 181.06 427.67 181.00 398.63
  C 180.98 389.63 181.88 381.03 182.07 371.88
  Q 182.16 367.37 182.77 362.66
  Q 183.08 360.27 183.04 358.35
  C 182.90 352.73 183.94 349.86 178.11 347.01
  Q 155.55 335.97 139.80 327.89
  A 1.90 1.89 30.7 0 0 137.37 328.50
  C 129.99 339.32 123.35 351.64 117.40 362.40
  Q 108.39 378.72 94.25 389.27
  Q 86.72 394.88 76.26 402.22
  A 0.80 0.79 -33.2 0 0 76.03 403.28
  Q 76.73 404.45 77.38 404.91
  Q 91.65 414.88 91.00 432.63
  Q 90.99 432.86 90.78 433.04
  Q 90.57 433.23 90.54 433.28
  A 0.46 0.46 0.0 0 0 90.95 433.92
  Z
  M 99.12 375.65
  A 1.21 1.21 0.0 0 0 98.61 373.47
  Q 93.13 372.59 87.91 370.61
  C 85.37 369.65 80.77 367.89 81.22 364.63
  Q 81.40 363.36 83.16 363.39
  Q 84.04 363.40 85.62 364.13
  C 89.22 365.77 103.09 370.81 105.83 367.26
  Q 111.20 360.30 114.52 351.98
  A 2.14 2.12 -64.9 0 0 113.57 349.33
  Q 102.38 343.15 90.14 341.06
  A 2.29 2.28 -73.5 0 0 87.66 342.41
  C 84.95 348.70 81.94 355.27 77.67 361.02
  Q 74.62 365.11 72.76 367.99
  A 1.74 1.74 0.0 0 0 73.32 370.42
  Q 81.33 375.30 92.88 377.81
  A 5.74 5.71 33.3 0 0 97.37 376.89
  L 99.12 375.65
  Z
  M 67.20 405.54
  C 65.46 403.49 56.91 403.35 54.80 403.21
  C 47.68 402.73 42.14 404.47 36.15 408.24
  C 35.21 408.83 33.31 409.48 32.19 409.21
  A 2.17 2.02 20.6 0 1 30.71 406.23
  C 32.71 402.59 39.22 400.81 43.57 399.24
  A 0.64 0.63 -37.0 0 0 43.73 398.13
  Q 36.83 393.18 40.91 385.60
  Q 43.74 380.34 47.03 376.83
  A 0.77 0.76 39.2 0 0 46.91 375.68
  Q 37.43 368.97 33.03 358.64
  A 0.55 0.55 0.0 0 0 32.06 358.55
  Q 22.56 373.11 15.13 385.88
  C 10.74 393.45 21.41 412.44 25.90 418.83
  Q 31.61 426.95 39.03 428.73
  Q 56.02 432.80 77.52 429.84
  Q 78.44 429.71 81.46 428.46
  A 1.60 1.57 87.1 0 0 82.39 427.41
  C 83.65 422.87 81.11 417.49 77.70 414.71
  C 72.61 410.56 61.02 412.24 55.21 413.44
  C 51.42 414.23 45.91 417.04 43.15 418.03
  A 2.75 2.74 -22.6 0 1 39.76 416.64
  L 39.71 416.54
  A 2.66 2.65 -28.0 0 1 40.77 413.09
  Q 51.83 406.66 61.26 406.32
  Q 66.84 406.12 66.99 406.10
  A 0.34 0.34 0.0 0 0 67.20 405.54
  Z
  M 248.17 374.33
  A 1.21 1.21 0.0 0 0 246.67 373.00
  Q 234.66 376.09 223.12 377.11
  A 0.96 0.96 0.0 0 0 222.24 378.10
  L 222.59 388.31
  A 1.20 1.20 0.0 0 0 223.84 389.47
  Q 235.00 388.94 245.61 385.32
  A 2.00 2.00 0.0 0 0 246.95 383.68
  L 248.17 374.33
  Z
  M 246.50 403.84
  Q 239.87 405.78 231.02 409.00
  C 226.60 410.60 221.37 411.75 218.10 407.93
  C 216.32 405.86 216.29 403.09 216.33 400.00
  Q 216.47 389.19 217.04 377.83
  A 0.36 0.36 0.0 0 0 216.67 377.45
  Q 203.17 377.57 189.56 374.51
  A 0.51 0.51 0.0 0 0 188.94 375.00
  L 187.84 424.00
  A 1.39 1.38 -81.8 0 0 188.87 425.38
  Q 195.25 427.08 201.24 428.01
  Q 236.60 433.51 270.12 428.69
  Q 274.21 428.10 277.10 427.05
  A 1.42 1.41 -17.3 0 0 277.99 425.36
  C 275.33 415.37 265.90 406.32 254.86 408.15
  Q 245.14 409.76 235.30 419.45
  A 2.39 2.39 0.0 0 1 232.15 419.64
  L 231.60 419.22
  A 2.70 2.69 40.6 0 1 231.29 415.23
  Q 238.38 407.78 246.81 404.44
  A 0.28 0.27 -20.6 0 0 246.97 404.10
  L 246.96 404.08
  A 0.38 0.37 72.1 0 0 246.50 403.84
  Z
  M 80.02 389.88
  C 71.55 389.00 62.11 386.07 54.53 381.27
  A 2.44 2.43 -49.6 0 0 51.62 381.51
  Q 48.18 384.56 46.37 389.17
  A 3.03 3.03 0.0 0 0 47.16 392.52
  C 52.28 397.19 62.23 398.05 68.53 397.47
  C 71.99 397.16 78.07 392.39 80.22 390.54
  A 0.38 0.37 -62.1 0 0 80.02 389.88
  Z
  M 245.85 391.19
  Q 234.81 395.10 223.46 395.72
  A 1.12 1.12 0.0 0 0 222.40 396.88
  L 222.62 403.42
  A 1.09 1.09 0.0 0 0 224.06 404.42
  L 245.52 397.23
  A 1.96 1.95 84.5 0 0 246.83 395.63
  L 247.26 392.33
  A 1.07 1.06 83.9 0 0 245.85 391.19
  Z
  M 9.15 399.13
  C 6.92 406.99 11.46 414.04 15.83 420.67
  A 0.62 0.61 -52.6 0 0 16.93 420.52
  C 17.62 418.46 17.57 416.71 16.43 414.56
  Q 12.47 407.07 9.65 399.11
  A 0.26 0.26 0.0 0 0 9.15 399.13
  Z
  M 21.06 426.75
  A 4.55 4.55 0.0 0 0 22.27 429.94
  Q 30.02 438.28 38.38 440.21
  Q 57.84 444.70 81.25 440.06
  A 1.53 1.52 88.2 0 0 82.47 438.75
  L 82.92 435.35
  A 0.76 0.75 -2.7 0 0 82.00 434.52
  Q 61.90 439.15 41.89 435.61
  Q 29.62 433.44 22.71 423.93
  A 0.89 0.88 27.8 0 0 21.11 424.42
  L 21.06 426.75
  Z
  M 203.88 440.57
  Q 203.69 438.52 204.71 437.37
  A 1.64 1.60 -70.0 0 1 205.85 436.82
  Q 209.91 436.59 213.66 437.65
  A 1.70 1.70 0.0 0 1 214.59 438.30
  Q 215.34 439.34 215.43 440.42
  A 1.10 1.09 1.4 0 0 216.37 441.40
  Q 237.56 444.13 258.12 442.39
  Q 267.89 441.56 276.45 439.41
  A 2.02 2.00 86.8 0 0 277.95 437.72
  L 278.40 434.30
  A 1.13 1.13 0.0 0 0 277.07 433.05
  Q 253.50 437.65 228.02 436.50
  Q 221.69 436.21 209.30 434.94
  Q 197.64 433.75 189.38 431.58
  A 1.34 1.34 0.0 0 0 187.70 432.96
  L 187.83 435.05
  A 3.08 3.07 8.0 0 0 189.88 437.77
  Q 196.51 440.10 203.50 440.93
  A 0.34 0.34 0.0 0 0 203.88 440.57
  Z"
/>
<ellipse cx="0.00" cy="0.00" transform="translate(78.27,270.56) rotate(-177.0)" rx="4.08" ry="3.35"/>
<circle cx="67.16" cy="325.04" r="4.09"/>
</g>
<g fill="var(--art-astronaut-primary)">
<path d="
  M 79.54 68.10
  A 0.42 0.42 0.0 0 1 79.00 67.57
  C 85.31 49.05 97.87 30.96 115.05 21.05
  C 139.44 6.96 169.93 4.63 196.64 14.41
  Q 220.13 23.01 235.48 42.99
  A 0.34 0.34 0.0 0 1 235.03 43.48
  C 225.48 37.54 216.74 33.66 205.33 32.64
  C 181.93 30.53 156.93 34.82 140.10 52.56
  Q 119.01 74.79 121.66 106.53
  C 124.00 134.53 141.96 150.91 167.33 159.09
  A 0.58 0.57 -71.0 0 1 167.69 159.85
  Q 166.88 161.97 165.72 162.99
  A 2.15 2.09 -71.4 0 1 164.81 163.46
  Q 162.06 164.15 157.50 163.91
  C 136.98 162.81 115.77 157.14 98.99 146.00
  Q 88.12 138.78 81.35 127.34
  A 0.32 0.31 81.1 0 1 81.69 126.87
  C 99.53 131.07 112.62 119.48 114.30 102.10
  C 115.69 87.62 111.25 72.58 96.51 67.44
  Q 88.79 64.75 79.54 68.10
  Z"
/>
<rect x="-17.88" y="-1.52" transform="translate(209.92,162.97) rotate(-1.7)" width="35.76" height="3.04" rx="1.13"/>
<path d="
  M 91.34 256.05
  Q 76.62 257.29 63.36 252.18
  C 51.21 247.51 46.27 237.03 45.63 224.71
  C 44.99 212.43 47.03 200.40 50.84 188.72
  C 55.76 173.65 66.93 157.29 85.50 164.17
  Q 92.00 166.58 94.46 172.81
  A 0.72 0.71 61.1 0 1 94.23 173.63
  C 91.85 175.41 91.00 176.33 90.50 179.29
  Q 89.94 182.61 89.64 187.03
  Q 88.90 197.85 88.59 205.22
  A 0.66 0.66 0.0 0 1 87.91 205.85
  C 80.67 205.55 73.87 206.94 68.90 212.42
  C 67.57 213.89 65.75 217.22 67.87 218.74
  Q 69.00 219.56 70.18 218.87
  C 77.23 214.73 81.35 212.84 89.72 213.68
  A 0.40 0.40 0.0 0 1 90.05 214.22
  Q 86.17 224.41 86.43 235.75
  Q 86.67 246.17 91.68 255.43
  A 0.42 0.42 0.0 0 1 91.34 256.05
  Z"
/>
<path d="
  M 270.79 224.49
  C 262.09 225.05 254.17 220.31 253.51 210.99
  Q 253.04 204.25 257.08 199.06
  A 1.43 1.43 0.0 0 1 259.61 199.64
  Q 260.16 202.28 261.20 204.22
  C 262.99 207.56 266.68 206.18 266.22 202.49
  Q 265.99 200.56 264.07 188.99
  C 263.83 187.53 264.00 185.34 265.39 184.36
  C 269.16 181.68 272.47 185.44 273.75 188.82
  Q 276.17 195.19 275.43 203.58
  A 3.14 3.14 0.0 0 0 278.49 206.99
  L 278.70 206.99
  A 3.57 3.55 3.7 0 0 282.32 203.82
  Q 283.68 191.44 279.20 183.70
  A 2.77 2.77 0.0 0 1 281.50 179.54
  L 282.63 179.50
  A 5.29 5.27 -17.8 0 1 287.20 181.84
  C 290.82 187.21 291.54 194.50 291.92 200.78
  A 3.16 3.15 -3.2 0 0 295.24 203.74
  L 295.55 203.73
  A 3.27 3.26 89.9 0 0 298.63 200.63
  Q 299.13 190.67 295.61 183.09
  A 2.75 2.75 0.0 0 1 298.00 179.19
  L 298.36 179.18
  A 5.57 5.55 78.8 0 1 303.76 182.80
  C 308.54 195.60 306.02 211.25 292.36 217.36
  C 286.48 219.99 280.18 220.62 272.61 221.44
  A 1.32 1.30 10.4 0 0 271.60 222.13
  Q 271.32 222.69 271.49 223.59
  A 0.77 0.76 -7.4 0 1 270.79 224.49
  Z"
/>
<path d="
  M 273.35 230.17
  A 0.56 0.56 0.0 0 1 273.83 231.14
  L 269.99 234.52
  A 3.57 3.56 -65.8 0 1 267.66 235.41
  C 258.74 235.49 248.91 232.17 244.31 223.74
  Q 239.28 214.54 239.93 204.37
  A 1.51 1.49 -7.5 0 1 240.96 203.04
  L 247.12 200.97
  A 0.35 0.35 0.0 0 1 247.57 201.40
  C 242.27 219.19 254.97 233.73 273.35 230.17
  Z"
/>
<path d="
  M 166.17 250.69
  C 167.50 249.32 169.20 249.12 169.13 246.49
  Q 169.10 245.02 167.72 243.96
  Q 165.33 242.13 162.66 243.68
  C 160.77 244.78 157.46 247.18 155.31 247.92
  Q 147.27 250.65 139.00 247.56
  A 2.80 2.79 -7.9 0 1 137.74 246.61
  C 133.92 241.51 133.46 232.76 134.25 226.00
  C 134.86 220.78 136.72 216.84 141.27 213.60
  Q 145.58 210.54 148.54 208.50
  C 153.68 204.97 159.89 204.42 166.73 204.90
  Q 177.79 205.67 190.50 205.69
  Q 193.06 205.70 193.41 208.38
  C 194.15 214.07 188.12 214.89 184.00 214.68
  Q 178.10 214.37 175.16 213.95
  C 173.06 213.66 171.28 214.09 171.05 216.36
  A 3.13 2.82 12.4 0 0 173.24 219.42
  C 175.63 220.18 178.48 220.54 180.35 222.32
  Q 184.05 225.83 181.03 230.58
  A 0.93 0.91 25.8 0 1 179.94 230.95
  C 177.00 229.85 172.79 228.20 169.82 229.51
  A 2.34 2.31 -21.2 0 0 168.54 232.36
  C 169.30 234.67 174.15 235.57 176.14 237.50
  Q 180.14 241.36 176.56 246.56
  Q 173.02 251.71 166.62 251.75
  A 0.62 0.62 0.0 0 1 166.17 250.69
  Z"
/>
<path d="
  M 193.50 220.40
  A 0.28 0.28 0.0 0 1 193.44 219.85
  C 199.84 217.90 201.16 212.30 200.51 206.31
  A 0.63 0.63 0.0 0 1 201.22 205.62
  L 202.17 205.75
  A 0.96 0.96 0.0 0 1 203.01 206.75
  C 202.69 213.36 202.71 221.00 193.50 220.40
  Z"
/>
<path d="
  M 213.90 246.15
  A 0.36 0.36 0.0 0 1 213.42 246.62
  Q 206.75 243.40 203.02 236.59
  A 1.45 1.40 37.3 0 1 202.87 235.63
  C 203.79 230.84 203.92 226.55 206.69 224.55
  A 0.46 0.46 0.0 0 1 207.41 224.85
  Q 209.03 235.41 213.90 246.15
  Z"
/>
<path d="
  M 196.01 228.67
  L 190.28 254.49
  A 2.69 2.67 84.3 0 1 188.75 256.37
  Q 183.51 258.70 182.25 263.74
  A 0.60 0.60 0.0 0 1 181.74 264.19
  L 171.17 265.45
  A 3.58 3.55 49.2 0 1 169.75 265.34
  Q 169.69 265.32 167.73 264.27
  Q 165.59 263.13 162.99 263.22
  Q 152.21 263.59 141.44 263.45
  C 137.89 263.41 135.82 264.03 133.63 266.60
  A 1.48 1.47 22.1 0 1 132.41 267.11
  Q 124.01 266.61 115.40 264.49
  A 1.02 1.02 0.0 0 1 115.53 262.49
  Q 123.56 261.63 131.22 260.22
  Q 135.60 259.42 138.50 256.49
  A 0.92 0.92 0.0 0 1 139.37 256.26
  Q 148.41 258.71 157.45 256.19
  A 1.55 1.54 -37.2 0 1 158.64 256.35
  C 164.94 260.11 171.18 259.67 176.68 255.90
  C 183.23 251.39 187.56 245.76 185.54 237.50
  A 0.85 0.85 0.0 0 1 185.90 236.59
  Q 190.98 233.34 190.47 228.14
  A 0.76 0.75 0.9 0 1 191.32 227.32
  L 195.44 227.86
  A 0.68 0.67 10.2 0 1 196.01 228.67
  Z"
/>
<path d="
  M 142.76 319.99
  A 0.42 0.41 4.2 0 1 142.24 319.39
  Q 145.86 313.66 147.87 308.96
  Q 149.00 306.32 146.97 304.86
  A 2.32 2.31 -45.5 0 0 144.24 304.89
  Q 142.55 306.15 141.16 308.42
  Q 133.32 321.22 124.15 334.28
  A 0.55 0.55 0.0 0 1 123.37 334.40
  C 112.20 326.24 100.61 323.17 87.08 320.61
  A 0.65 0.65 0.0 0 1 86.58 319.78
  L 88.04 315.09
  A 1.08 0.94 -40.9 0 0 88.08 314.81
  C 87.88 309.08 81.83 307.20 76.99 306.51
  Q 63.15 304.53 49.65 300.73
  A 0.74 0.74 0.0 0 1 49.14 299.83
  L 55.52 276.73
  A 0.85 0.84 -72.0 0 1 56.63 276.16
  L 60.53 277.63
  A 0.72 0.72 0.0 0 1 60.96 278.52
  Q 60.70 279.35 59.84 283.88
  C 58.40 291.45 61.22 296.88 69.15 299.16
  C 78.97 301.97 88.36 303.79 98.01 303.69
  C 107.05 303.59 109.70 299.00 110.65 290.69
  A 0.52 0.51 7.9 0 1 111.25 290.24
  Q 112.91 290.50 115.27 290.98
  Q 122.49 292.45 129.76 292.06
  A 2.97 2.95 65.2 0 1 131.97 292.88
  C 134.43 295.22 135.99 296.70 139.75 296.61
  Q 153.77 296.28 161.23 295.46
  Q 166.55 294.87 169.80 291.56
  A 2.00 1.98 -72.5 0 1 170.88 290.99
  L 180.95 289.11
  A 1.02 1.02 0.0 0 1 181.97 289.52
  Q 187.38 297.14 196.12 294.36
  C 200.13 293.08 203.12 289.87 203.91 285.72
  A 0.45 0.45 0.0 0 1 204.63 285.44
  L 215.97 294.24
  A 0.35 0.35 0.0 0 1 215.82 294.86
  Q 201.89 297.53 189.49 305.81
  Q 175.03 315.45 168.20 331.82
  A 0.82 0.82 0.0 0 1 167.10 332.25
  L 150.91 324.67
  A 0.44 0.44 0.0 0 1 150.88 323.89
  Q 165.02 315.65 175.32 302.81
  C 176.45 301.41 177.15 299.94 176.06 298.43
  Q 174.88 296.80 172.70 297.38
  A 2.00 1.99 -71.7 0 0 171.91 297.78
  Q 169.02 300.15 163.56 305.51
  Q 153.81 315.10 142.76 319.99
  Z"
/>
<path d="
  M 227.26 303.48
  A 0.48 0.48 0.0 0 1 227.07 304.33
  Q 214.51 307.19 206.90 311.66
  Q 204.18 313.26 204.13 315.98
  C 204.08 318.67 206.93 320.78 208.89 322.92
  C 217.15 331.94 217.23 342.50 218.93 353.52
  Q 219.88 359.65 226.02 360.10
  Q 238.30 361.00 248.38 355.81
  A 0.61 0.60 80.3 0 1 249.25 356.43
  L 248.04 365.70
  A 1.09 1.09 0.0 0 1 247.24 366.62
  Q 219.74 374.03 191.03 368.76
  A 1.58 1.57 -81.0 0 1 189.76 367.00
  L 190.57 360.73
  A 0.63 0.63 0.0 0 1 191.51 360.27
  C 193.36 361.37 197.17 361.83 198.33 359.39
  C 200.03 355.81 193.31 353.63 191.49 353.00
  A 1.31 1.31 0.0 0 1 190.64 352.01
  L 190.09 349.05
  A 0.76 0.75 -11.2 0 1 190.68 348.17
  Q 199.22 346.46 202.78 344.37
  C 206.30 342.29 204.40 337.21 200.13 338.58
  Q 192.60 341.00 187.63 341.86
  A 3.16 3.10 -36.9 0 1 185.76 341.61
  L 174.69 336.42
  A 1.12 1.12 0.0 0 1 174.10 335.02
  C 179.28 320.27 192.02 309.77 205.92 304.41
  Q 209.70 302.96 221.43 300.08
  A 2.36 2.36 0.0 0 1 223.43 300.50
  L 227.26 303.48
  Z"
/>
<path d="
  M 117.73 344.93
  Q 104.79 336.06 89.49 334.64
  C 84.96 334.23 83.23 337.20 81.56 341.32
  Q 76.62 353.53 67.42 365.10
  C 63.42 370.12 67.56 374.34 72.28 376.77
  Q 79.98 380.74 88.98 382.68
  A 0.71 0.71 0.0 0 1 89.08 384.04
  Q 85.65 385.33 81.98 384.80
  C 66.95 382.62 52.52 375.34 42.62 363.65
  C 38.60 358.90 36.01 352.09 41.29 347.01
  Q 42.13 346.21 45.52 343.77
  A 3.60 3.59 84.8 0 0 46.69 342.36
  L 47.35 340.95
  A 0.78 0.77 -68.5 0 1 48.29 340.54
  Q 55.46 342.84 57.27 343.16
  Q 69.37 345.35 78.32 338.12
  C 81.23 335.77 82.82 330.51 84.97 325.70
  A 0.67 0.66 -71.9 0 1 85.71 325.32
  Q 99.31 328.15 111.12 333.59
  Q 116.05 335.86 120.25 339.43
  A 0.40 0.39 -58.0 0 1 120.35 339.90
  L 118.04 344.84
  A 0.22 0.21 -60.3 0 1 117.73 344.93
  Z"
/>
</g>
<g fill="var(--art-astronaut-secondary)">
<path d="
  M 89.09 74.66
  C 102.05 75.06 106.50 87.16 106.16 98.05
  C 105.83 108.95 100.65 120.75 87.68 120.36
  C 74.71 119.96 70.27 107.86 70.60 96.96
  C 70.94 86.06 76.12 74.26 89.09 74.66
  Z"
/>
<path d="
  M 56.62 122.30
  A 0.21 0.21 0.0 0 1 56.68 121.90
  Q 66.29 120.56 71.76 128.55
  Q 77.94 137.57 83.15 143.90
  A 0.32 0.32 0.0 0 1 83.00 144.41
  L 71.75 148.19
  A 0.32 0.32 0.0 0 1 71.33 147.86
  C 72.23 138.89 69.26 129.93 61.60 125.13
  Q 58.67 123.29 56.62 122.30
  Z"
/>
<path d="
  M 32.22 161.33
  A 1.30 1.29 -79.3 0 1 31.28 159.94
  Q 32.47 149.14 33.83 141.12
  Q 35.55 131.05 43.39 127.99
  C 52.13 124.59 62.07 129.30 65.10 138.36
  C 66.64 142.95 65.99 149.39 65.29 154.33
  A 2.81 2.79 76.0 0 1 64.19 156.17
  Q 57.85 160.86 53.84 166.08
  A 1.90 1.88 -63.3 0 1 51.84 166.75
  L 32.22 161.33
  Z"
/>
<path d="
  M 174.80 165.83
  A 0.50 0.50 0.0 0 1 174.32 165.15
  Q 176.32 160.21 178.58 155.37
  C 181.15 149.87 184.89 148.92 191.25 148.76
  Q 224.02 147.94 226.37 147.82
  C 231.89 147.55 240.50 145.93 240.87 152.72
  Q 241.11 156.91 241.11 162.40
  A 1.27 1.27 0.0 0 1 239.88 163.68
  L 237.24 163.77
  A 1.41 1.41 0.0 0 1 235.78 162.43
  C 235.36 154.00 230.95 154.16 223.33 154.43
  Q 206.47 155.03 190.50 155.42
  C 184.43 155.57 184.74 160.26 184.48 164.71
  A 0.88 0.86 -88.9 0 1 183.64 165.53
  L 174.80 165.83
  Z"
/>
<path d="
  M 80.66 154.54
  A 0.45 0.45 0.0 0 1 80.52 153.69
  C 86.80 150.53 92.41 151.09 97.95 154.93
  Q 98.03 154.99 102.33 157.94
  Q 109.12 162.59 111.28 170.31
  A 0.88 0.88 0.0 0 1 110.46 171.43
  L 103.77 171.66
  A 1.58 1.58 0.0 0 1 102.21 170.55
  C 99.22 161.15 90.07 155.87 80.66 154.54
  Z"
/>
<rect x="-14.55" y="-4.11" transform="translate(378.18,168.13) rotate(-1.6)" width="29.10" height="8.22" rx="0.83"/>
<path d="
  M 117.36 164.66
  A 0.44 0.44 0.0 0 1 117.93 164.11
  Q 136.80 171.07 157.20 172.00
  A 0.40 0.40 0.0 0 1 157.41 172.73
  L 148.78 178.84
  A 1.09 1.08 53.6 0 1 147.28 178.61
  Q 145.84 176.66 144.81 175.65
  C 138.91 169.91 127.36 171.38 120.61 171.38
  A 1.40 1.38 -8.7 0 1 119.30 170.43
  L 117.36 164.66
  Z"
/>
<path d="
  M 325.51 165.98
  A 0.43 0.42 87.3 0 1 325.95 166.39
  L 326.35 178.38
  A 1.10 1.10 0.0 0 1 325.28 179.52
  L 311.66 179.98
  A 2.25 2.23 71.0 0 1 309.77 179.05
  C 308.55 177.34 307.47 175.63 306.10 174.58
  Q 298.74 168.90 290.93 174.69
  A 0.93 0.93 0.0 0 1 289.89 174.75
  Q 289.34 174.43 288.63 173.96
  C 282.87 170.18 276.73 171.72 272.86 176.99
  A 0.81 0.78 -65.9 0 1 272.08 177.30
  Q 271.93 177.27 269.46 176.60
  C 261.07 174.31 255.94 182.11 257.46 189.76
  A 1.07 1.07 0.0 0 1 256.61 191.02
  L 250.63 192.14
  A 0.82 0.82 0.0 0 1 249.66 191.36
  L 248.93 169.39
  A 0.84 0.84 0.0 0 1 249.74 168.52
  L 325.51 165.98
  Z"
/>
<path d="
  M 48.84 173.27
  L 42.61 186.58
  A 0.34 0.34 0.0 0 1 42.21 186.76
  L 28.65 183.01
  A 0.34 0.34 0.0 0 1 28.41 182.64
  L 30.30 168.15
  A 0.34 0.34 0.0 0 1 30.73 167.86
  L 48.62 172.80
  A 0.34 0.34 0.0 0 1 48.84 173.27
  Z"
/>
<rect x="-10.97" y="-2.66" transform="translate(344.85,170.57) rotate(-1.1)" width="21.94" height="5.32" rx="1.10"/>
<path d="
  M 240.96 171.50
  A 0.14 0.13 87.6 0 1 241.09 171.63
  L 241.30 177.96
  A 0.34 0.34 0.0 0 1 240.97 178.31
  L 182.36 180.28
  A 3.37 3.37 0.0 0 0 179.11 183.90
  L 179.17 184.62
  A 3.87 3.86 -3.0 0 0 183.15 188.20
  L 240.75 186.27
  A 0.81 0.80 -1.8 0 1 241.59 187.05
  L 241.78 192.73
  A 2.02 2.01 -10.6 0 1 240.43 194.70
  Q 237.92 195.58 234.10 197.92
  Q 231.84 199.30 231.56 204.85
  A 1.25 1.24 86.2 0 1 230.55 206.01
  L 212.24 209.42
  A 1.26 1.25 82.7 0 1 210.76 208.27
  Q 210.64 206.63 210.48 201.53
  Q 210.38 198.11 206.74 198.06
  Q 204.00 198.03 164.76 196.86
  C 153.62 196.53 146.66 199.66 138.11 206.78
  A 1.28 1.27 37.1 0 1 136.77 206.96
  C 135.07 206.18 133.64 205.67 131.68 205.59
  Q 113.95 204.89 97.06 206.56
  A 0.67 0.66 -0.8 0 1 96.33 205.86
  Q 97.34 189.88 97.65 184.73
  C 97.86 181.23 99.56 179.94 103.07 179.77
  Q 124.60 178.77 134.53 179.38
  Q 141.39 179.80 140.89 185.88
  C 140.50 190.66 144.54 190.53 147.58 188.83
  C 154.42 185.01 160.04 180.32 166.97 174.96
  Q 168.26 173.96 172.25 173.89
  Q 184.37 173.66 240.96 171.50
  Z"
/>
<path d="
  M 44.13 248.59
  Q 31.67 247.91 21.71 242.61
  A 1.73 1.73 0.0 0 1 20.80 240.85
  L 27.44 189.91
  A 0.61 0.61 0.0 0 1 28.21 189.40
  L 40.35 192.75
  A 0.94 0.94 0.0 0 1 41.01 193.91
  C 36.02 212.02 34.86 231.53 44.46 248.04
  A 0.37 0.36 76.5 0 1 44.13 248.59
  Z"
/>
<path d="
  M 129.40 213.07
  A 0.55 0.54 -78.3 0 1 129.91 213.85
  C 124.84 224.38 124.62 241.02 131.87 250.76
  A 0.58 0.58 0.0 0 1 131.57 251.66
  C 122.84 254.20 114.02 256.74 104.92 257.16
  C 99.94 257.39 98.40 254.15 96.65 249.89
  C 92.49 239.76 91.70 225.82 97.14 215.74
  A 3.19 3.17 -76.7 0 1 99.83 214.07
  L 129.40 213.07
  Z"
/>
<path d="
  M 220.03 217.15
  Q 221.36 232.80 230.27 247.56
  A 2.90 2.89 -33.6 0 0 234.46 248.40
  L 234.63 248.28
  A 3.31 3.31 0.0 0 0 235.47 243.85
  Q 226.96 230.38 225.72 215.81
  A 1.55 1.55 0.0 0 1 226.99 214.15
  L 230.47 213.50
  A 1.37 1.36 79.6 0 1 232.07 214.61
  C 234.00 225.41 239.62 235.35 245.60 245.28
  A 0.94 0.93 57.0 0 1 245.34 246.53
  L 230.66 256.93
  A 0.98 0.97 -46.9 0 1 229.58 256.97
  Q 227.99 256.01 227.08 254.66
  Q 215.94 238.09 212.71 218.77
  A 1.72 1.71 -10.1 0 1 214.09 216.80
  L 218.49 215.98
  A 1.30 1.30 0.0 0 1 220.03 217.15
  Z"
/>
<path d="
  M 247.50 235.48
  C 253.47 238.19 257.02 239.61 261.19 240.16
  A 0.32 0.32 0.0 0 1 261.33 240.75
  Q 259.28 242.13 256.79 243.31
  C 254.38 244.45 253.70 243.45 252.06 241.83
  Q 249.31 239.13 247.10 235.96
  A 0.32 0.32 0.0 0 1 247.50 235.48
  Z"
/>
<path d="
  M 20.64 248.43
  C 27.73 251.41 35.11 253.49 42.44 253.61
  A 0.90 0.89 -84.8 0 1 43.31 254.66
  Q 41.57 264.60 43.52 273.54
  A 0.51 0.50 -7.7 0 1 43.05 274.15
  C 34.09 274.54 23.76 272.00 20.57 262.46
  Q 18.70 256.86 19.83 248.89
  A 0.59 0.58 15.0 0 1 20.64 248.43
  Z"
/>
<path d="
  M 51.65 255.16
  A 0.27 0.27 0.0 0 1 51.87 255.48
  L 51.84 255.65
  A 10.83 1.30 -80.1 0 1 48.70 266.10
  L 48.66 266.09
  A 10.83 1.30 -80.1 0 1 49.24 255.20
  L 49.27 255.02
  A 0.27 0.27 0.0 0 1 49.59 254.80
  L 51.65 255.16
  Z"
/>
<path d="
  M 62.68 270.31
  A 1.02 1.02 0.0 0 1 61.04 270.98
  L 57.80 268.47
  A 2.74 2.74 0.0 0 1 56.80 265.72
  L 58.04 260.16
  A 0.65 0.64 13.6 0 1 58.84 259.68
  L 63.13 260.87
  A 0.89 0.89 0.0 0 1 63.78 261.84
  L 62.68 270.31
  Z"
/>
<path d="
  M 200.48 269.93
  A 0.27 0.27 0.0 0 1 199.98 270.08
  Q 197.67 266.28 194.60 264.07
  A 0.81 0.81 0.0 0 1 194.61 262.75
  L 195.86 261.86
  A 1.45 1.44 -46.7 0 1 197.45 261.81
  C 199.71 263.20 200.45 267.52 200.48 269.93
  Z"
/>
<path d="
  M 90.83 265.00
  A 0.95 0.95 0.0 0 1 91.68 266.04
  L 91.04 272.56
  A 9.56 4.98 5.6 0 1 81.04 276.58
  L 77.72 276.26
  A 9.56 4.98 5.6 0 1 68.69 270.37
  L 69.33 263.85
  A 0.95 0.95 0.0 0 1 70.37 263.00
  L 90.83 265.00
  Z
  M 74.1956 270.3465
  A 4.08 3.35 -177.0 0 0 78.0947 273.9054
  A 4.08 3.35 -177.0 0 0 82.3444 270.7735
  A 4.08 3.35 -177.0 0 0 78.4453 267.2146
  A 4.08 3.35 -177.0 0 0 74.1956 270.3465
  Z"
/>
<path d="
  M 98.46 264.71
  Q 102.70 263.72 106.71 265.25
  A 2.90 2.88 -74.8 0 1 108.53 268.44
  Q 106.52 279.92 103.53 293.28
  C 102.88 296.18 98.99 296.97 96.61 296.66
  A 2.14 2.14 0.0 0 1 94.84 295.12
  Q 94.16 292.67 94.52 289.99
  Q 96.12 278.24 97.51 265.77
  A 1.23 1.22 87.0 0 1 98.46 264.71
  Z"
/>
<path d="
  M 190.49 268.92
  C 195.82 272.18 197.97 279.01 196.23 284.72
  C 195.31 287.77 191.42 288.42 189.32 286.19
  C 186.47 283.15 188.32 272.99 189.43 269.33
  A 0.72 0.72 0.0 0 1 190.49 268.92
  Z"
/>
<path d="
  M 182.00 270.57
  L 180.93 280.55
  A 1.98 1.98 0.0 0 1 179.33 282.28
  L 172.28 283.59
  A 0.84 0.84 0.0 0 1 171.29 282.67
  L 172.37 272.22
  A 0.18 0.18 0.0 0 1 172.53 272.05
  L 181.96 270.53
  A 0.03 0.03 0.0 0 1 182.00 270.57
  Z"
/>
<path d="
  M 165.46 273.04
  L 163.82 285.59
  A 2.58 2.58 0.0 0 1 161.61 287.82
  Q 155.57 288.65 144.00 288.95
  C 139.64 289.06 137.65 289.33 137.78 284.67
  Q 137.84 282.34 138.26 275.51
  Q 138.51 271.49 142.54 271.56
  Q 149.17 271.67 163.51 270.93
  A 1.87 1.87 0.0 0 1 165.46 273.04
  Z"
/>
<path d="
  M 113.36 273.64
  A 1.98 1.98 0.0 0 1 115.57 271.91
  L 128.10 273.42
  A 3.42 3.11 6.9 0 1 131.12 276.92
  L 130.47 282.26
  A 3.42 3.11 6.9 0 1 126.70 284.94
  L 114.17 283.42
  A 1.98 1.98 0.0 0 1 112.45 281.22
  L 113.36 273.64
  Z"
/>
<path d="
  M 88.12 295.66
  A 0.37 0.37 0.0 0 1 87.69 295.98
  Q 78.30 294.64 70.58 292.23
  C 65.12 290.52 66.22 284.47 66.98 280.19
  A 0.54 0.54 0.0 0 1 67.69 279.77
  Q 78.34 283.45 89.12 282.48
  A 0.59 0.59 0.0 0 1 89.75 283.14
  L 88.12 295.66
  Z"
/>
<path d="
  M 47.05 307.72
  A 1.07 1.07 0.0 0 1 48.28 306.98
  L 79.85 313.33
  A 1.68 1.67 -77.6 0 1 81.14 315.36
  Q 79.54 321.91 76.74 328.74
  C 74.45 334.30 67.17 337.17 61.50 336.69
  Q 51.91 335.88 45.84 332.97
  Q 41.52 330.90 42.70 325.23
  Q 44.86 314.82 47.05 307.72
  Z
  M 71.25 325.04
  A 4.09 4.09 0.0 0 0 67.16 320.95
  A 4.09 4.09 0.0 0 0 63.07 325.04
  A 4.09 4.09 0.0 0 0 67.16 329.13
  A 4.09 4.09 0.0 0 0 71.25 325.04
  Z"
/>
<path d="
  M 249.64 339.34
  L 249.48 346.37
  A 3.56 3.55 -14.8 0 1 247.73 349.36
  Q 238.56 354.76 227.09 354.08
  A 2.37 2.36 -4.0 0 1 224.91 352.19
  Q 224.19 348.61 223.57 340.75
  Q 223.41 338.79 221.65 333.32
  Q 218.64 323.91 211.46 317.52
  A 0.74 0.74 0.0 0 1 211.57 316.34
  Q 216.98 313.09 223.65 311.31
  C 228.75 309.94 233.52 308.05 237.91 312.19
  Q 244.60 318.51 247.57 327.45
  Q 248.12 329.10 248.08 330.53
  A 1.62 1.61 63.8 0 1 247.77 331.45
  C 245.09 335.06 236.61 336.62 232.27 336.64
  A 2.17 2.16 83.0 0 0 230.18 339.32
  L 230.20 339.39
  A 3.42 3.41 85.0 0 0 233.28 341.98
  Q 240.10 342.47 247.83 338.24
  A 1.22 1.22 0.0 0 1 249.64 339.34
  Z"
/>
<path d="
  M 99.12 375.65
  L 97.37 376.89
  A 5.74 5.71 33.3 0 1 92.88 377.81
  Q 81.33 375.30 73.32 370.42
  A 1.74 1.74 0.0 0 1 72.76 367.99
  Q 74.62 365.11 77.67 361.02
  C 81.94 355.27 84.95 348.70 87.66 342.41
  A 2.29 2.28 -73.5 0 1 90.14 341.06
  Q 102.38 343.15 113.57 349.33
  A 2.14 2.12 -64.9 0 1 114.52 351.98
  Q 111.20 360.30 105.83 367.26
  C 103.09 370.81 89.22 365.77 85.62 364.13
  Q 84.04 363.40 83.16 363.39
  Q 81.40 363.36 81.22 364.63
  C 80.77 367.89 85.37 369.65 87.91 370.61
  Q 93.13 372.59 98.61 373.47
  A 1.21 1.21 0.0 0 1 99.12 375.65
  Z"
/>
<path d="
  M 66.99 406.10
  Q 66.84 406.12 61.26 406.32
  Q 51.83 406.66 40.77 413.09
  A 2.66 2.65 -28.0 0 0 39.71 416.54
  L 39.76 416.64
  A 2.75 2.74 -22.6 0 0 43.15 418.03
  C 45.91 417.04 51.42 414.23 55.21 413.44
  C 61.02 412.24 72.61 410.56 77.70 414.71
  C 81.11 417.49 83.65 422.87 82.39 427.41
  A 1.60 1.57 87.1 0 1 81.46 428.46
  Q 78.44 429.71 77.52 429.84
  Q 56.02 432.80 39.03 428.73
  Q 31.61 426.95 25.90 418.83
  C 21.41 412.44 10.74 393.45 15.13 385.88
  Q 22.56 373.11 32.06 358.55
  A 0.55 0.55 0.0 0 1 33.03 358.64
  Q 37.43 368.97 46.91 375.68
  A 0.77 0.76 39.2 0 1 47.03 376.83
  Q 43.74 380.34 40.91 385.60
  Q 36.83 393.18 43.73 398.13
  A 0.64 0.63 -37.0 0 1 43.57 399.24
  C 39.22 400.81 32.71 402.59 30.71 406.23
  A 2.17 2.02 20.6 0 0 32.19 409.21
  C 33.31 409.48 35.21 408.83 36.15 408.24
  C 42.14 404.47 47.68 402.73 54.80 403.21
  C 56.91 403.35 65.46 403.49 67.20 405.54
  A 0.34 0.34 0.0 0 1 66.99 406.10
  Z"
/>
<path d="
  M 248.17 374.33
  L 246.95 383.68
  A 2.00 2.00 0.0 0 1 245.61 385.32
  Q 235.00 388.94 223.84 389.47
  A 1.20 1.20 0.0 0 1 222.59 388.31
  L 222.24 378.10
  A 0.96 0.96 0.0 0 1 223.12 377.11
  Q 234.66 376.09 246.67 373.00
  A 1.21 1.21 0.0 0 1 248.17 374.33
  Z"
/>
<path d="
  M 246.50 403.84
  A 0.38 0.37 72.1 0 1 246.96 404.08
  L 246.97 404.10
  A 0.28 0.27 -20.6 0 1 246.81 404.44
  Q 238.38 407.78 231.29 415.23
  A 2.70 2.69 40.6 0 0 231.60 419.22
  L 232.15 419.64
  A 2.39 2.39 0.0 0 0 235.30 419.45
  Q 245.14 409.76 254.86 408.15
  C 265.90 406.32 275.33 415.37 277.99 425.36
  A 1.42 1.41 -17.3 0 1 277.10 427.05
  Q 274.21 428.10 270.12 428.69
  Q 236.60 433.51 201.24 428.01
  Q 195.25 427.08 188.87 425.38
  A 1.39 1.38 -81.8 0 1 187.84 424.00
  L 188.94 375.00
  A 0.51 0.51 0.0 0 1 189.56 374.51
  Q 203.17 377.57 216.67 377.45
  A 0.36 0.36 0.0 0 1 217.04 377.83
  Q 216.47 389.19 216.33 400.00
  C 216.29 403.09 216.32 405.86 218.10 407.93
  C 221.37 411.75 226.60 410.60 231.02 409.00
  Q 239.87 405.78 246.50 403.84
  Z"
/>
<path d="
  M 80.02 389.88
  A 0.38 0.37 -62.1 0 1 80.22 390.54
  C 78.07 392.39 71.99 397.16 68.53 397.47
  C 62.23 398.05 52.28 397.19 47.16 392.52
  A 3.03 3.03 0.0 0 1 46.37 389.17
  Q 48.18 384.56 51.62 381.51
  A 2.44 2.43 -49.6 0 1 54.53 381.27
  C 62.11 386.07 71.55 389.00 80.02 389.88
  Z"
/>
<path d="
  M 245.85 391.19
  A 1.07 1.06 83.9 0 1 247.26 392.33
  L 246.83 395.63
  A 1.96 1.95 84.5 0 1 245.52 397.23
  L 224.06 404.42
  A 1.09 1.09 0.0 0 1 222.62 403.42
  L 222.40 396.88
  A 1.12 1.12 0.0 0 1 223.46 395.72
  Q 234.81 395.10 245.85 391.19
  Z"
/>
<path d="
  M 9.15 399.13
  A 0.26 0.26 0.0 0 1 9.65 399.11
  Q 12.47 407.07 16.43 414.56
  C 17.57 416.71 17.62 418.46 16.93 420.52
  A 0.62 0.61 -52.6 0 1 15.83 420.67
  C 11.46 414.04 6.92 406.99 9.15 399.13
  Z"
/>
<path d="
  M 21.06 426.75
  L 21.11 424.42
  A 0.89 0.88 27.8 0 1 22.71 423.93
  Q 29.62 433.44 41.89 435.61
  Q 61.90 439.15 82.00 434.52
  A 0.76 0.75 -2.7 0 1 82.92 435.35
  L 82.47 438.75
  A 1.53 1.52 88.2 0 1 81.25 440.06
  Q 57.84 444.70 38.38 440.21
  Q 30.02 438.28 22.27 429.94
  A 4.55 4.55 0.0 0 1 21.06 426.75
  Z"
/>
<path d="
  M 203.88 440.57
  A 0.34 0.34 0.0 0 1 203.50 440.93
  Q 196.51 440.10 189.88 437.77
  A 3.08 3.07 8.0 0 1 187.83 435.05
  L 187.70 432.96
  A 1.34 1.34 0.0 0 1 189.38 431.58
  Q 197.64 433.75 209.30 434.94
  Q 221.69 436.21 228.02 436.50
  Q 253.50 437.65 277.07 433.05
  A 1.13 1.13 0.0 0 1 278.40 434.30
  L 277.95 437.72
  A 2.02 2.00 86.8 0 1 276.45 439.41
  Q 267.89 441.56 258.12 442.39
  Q 237.56 444.13 216.37 441.40
  A 1.10 1.09 1.4 0 1 215.43 440.42
  Q 215.34 439.34 214.59 438.30
  A 1.70 1.70 0.0 0 0 213.66 437.65
  Q 209.91 436.59 205.85 436.82
  A 1.64 1.60 -70.0 0 0 204.71 437.37
  Q 203.69 438.52 203.88 440.57
  Z"
/>
</g>
<g fill="var(--art-astronaut-accent)">
<path d="
  M 169.57 72.84
  A 0.44 0.44 0.0 0 1 170.21 72.58
  L 179.14 77.74
  A 2.80 2.80 0.0 0 0 181.94 77.74
  L 186.66 75.02
  A 2.07 2.06 44.8 0 1 188.73 75.02
  L 194.47 78.33
  A 3.76 3.74 -44.9 0 0 198.20 78.33
  L 206.51 73.53
  A 1.04 1.03 -54.4 0 0 206.20 71.62
  C 203.47 71.09 200.33 72.09 196.52 72.56
  A 2.38 2.35 -33.3 0 1 195.08 72.27
  L 188.83 68.66
  A 2.30 2.28 44.8 0 0 186.54 68.66
  L 182.56 70.96
  A 1.38 1.36 44.0 0 1 181.22 70.97
  L 172.43 66.23
  A 2.36 2.29 -5.6 0 1 171.74 65.68
  L 157.68 49.71
  A 0.40 0.40 0.0 0 1 157.78 49.10
  C 171.06 41.52 188.29 39.31 203.24 40.61
  Q 220.43 42.11 234.06 52.71
  Q 250.35 65.39 252.25 86.72
  Q 254.93 116.82 234.00 138.08
  A 4.78 4.78 0.0 0 1 230.85 139.50
  Q 219.21 140.16 215.25 140.24
  Q 190.22 140.79 187.25 140.98
  Q 176.29 141.70 171.99 151.36
  A 0.92 0.90 -69.5 0 1 170.91 151.86
  C 157.18 147.76 145.03 140.54 137.49 128.44
  Q 130.08 116.54 129.55 101.16
  Q 128.60 74.07 149.66 54.58
  A 1.09 1.08 43.9 0 1 151.09 54.56
  Q 157.03 59.66 162.49 66.49
  A 1.84 1.72 22.2 0 1 162.86 67.29
  Q 163.15 68.76 162.96 70.51
  Q 162.12 78.26 160.21 87.58
  A 2.59 2.58 -54.3 0 0 160.50 89.37
  L 165.18 97.47
  A 0.99 0.99 0.0 0 1 165.28 98.23
  L 162.22 109.28
  A 0.99 0.98 14.8 0 0 162.93 110.49
  Q 164.36 110.87 165.52 109.28
  Q 166.06 108.54 171.10 100.62
  Q 172.17 98.95 171.12 97.12
  Q 170.08 95.28 166.72 88.57
  Q 166.11 87.36 166.67 84.71
  Q 167.93 78.69 169.57 72.84
  Z"
/>
</g>
<g fill="var(--art-fire-primary)">
<path d="
  M 473.00 159.16
  L 473.00 161.67
  Q 471.69 163.87 468.43 165.17
  Q 448.19 173.22 446.84 173.76
  A 1.25 1.25 0.0 0 0 446.28 175.63
  Q 449.54 180.34 453.15 187.60
  Q 460.15 201.64 462.68 207.30
  Q 463.55 209.27 461.22 209.98
  Q 459.82 210.41 456.40 209.36
  Q 448.13 206.81 430.97 200.75
  A 0.68 0.67 -63.6 0 0 430.19 201.02
  Q 429.55 202.01 429.25 204.25
  C 428.11 212.74 427.38 220.18 425.71 226.68
  A 1.48 1.45 -8.5 0 1 425.04 227.57
  Q 422.40 229.16 420.35 226.80
  Q 417.01 222.96 408.50 209.51
  Q 407.97 208.67 407.01 207.54
  A 1.42 1.41 52.7 0 0 405.12 207.28
  Q 395.51 213.76 382.42 222.19
  Q 380.15 223.65 378.80 222.53
  C 377.15 221.16 377.98 218.49 378.56 216.79
  Q 382.68 204.79 387.48 191.32
  A 4.87 4.87 0.0 0 1 393.37 188.26
  L 393.89 188.40
  A 4.20 4.20 0.0 0 1 396.81 193.57
  L 395.44 198.54
  A 0.40 0.40 0.0 0 0 395.91 199.04
  Q 397.43 198.69 398.42 197.90
  C 401.83 195.15 406.18 191.02 409.89 192.00
  A 2.07 2.05 -10.1 0 1 411.04 192.79
  L 417.95 202.54
  A 0.58 0.58 0.0 0 0 419.00 202.19
  Q 418.79 195.19 420.44 186.52
  Q 420.91 184.09 424.20 184.06
  A 0.66 0.63 56.0 0 1 424.47 184.12
  L 441.01 191.87
  A 0.66 0.66 0.0 0 0 441.93 191.10
  Q 441.66 190.06 440.75 188.75
  C 437.73 184.41 433.41 179.34 430.52 173.71
  C 428.67 170.09 433.05 168.09 435.98 166.98
  Q 445.81 163.25 451.51 160.86
  A 0.52 0.52 0.0 0 0 451.59 159.94
  Q 442.78 154.32 432.62 148.71
  C 428.49 146.43 429.80 142.73 432.15 139.35
  Q 432.78 138.44 437.84 130.57
  Q 438.67 129.28 438.83 128.28
  A 0.57 0.57 0.0 0 0 438.05 127.67
  Q 430.85 130.71 425.56 133.32
  C 421.60 135.27 418.89 136.27 416.07 132.72
  C 414.31 130.50 415.06 124.32 414.98 120.75
  A 0.32 0.32 0.0 0 0 414.36 120.65
  C 412.76 125.22 409.99 136.97 403.80 133.07
  Q 397.66 129.20 391.96 124.76
  A 0.63 0.63 0.0 0 0 390.99 125.49
  Q 394.29 133.73 395.18 136.26
  C 396.66 140.48 396.92 143.08 392.47 145.30
  C 389.95 146.56 386.84 144.27 386.10 141.91
  Q 377.98 116.34 375.46 107.27
  C 374.79 104.86 376.83 102.02 379.35 103.59
  Q 382.30 105.45 390.93 111.27
  C 395.17 114.13 398.77 117.07 402.81 119.02
  A 0.97 0.97 0.0 0 0 404.11 118.55
  Q 408.96 107.88 412.70 97.37
  C 413.79 94.31 415.52 91.39 418.94 93.67
  A 2.10 2.08 12.0 0 1 419.82 95.01
  L 424.34 119.24
  A 0.96 0.95 -13.4 0 0 425.55 119.98
  Q 436.42 116.82 450.68 111.92
  Q 453.06 111.11 457.21 109.97
  C 459.60 109.32 461.52 109.63 462.03 111.98
  A 1.59 1.57 57.1 0 1 461.76 113.27
  C 455.04 122.55 449.53 132.78 444.17 142.40
  A 0.91 0.91 0.0 0 0 444.53 143.64
  L 473.00 159.16
  Z"
/></g>
</svg>
