<?xml version="1.0" encoding="UTF-8" standalone="no"?>
<!DOCTYPE svg PUBLIC "-//W3C//DTD SVG 1.1//EN" "http://www.w3.org/Graphics/SVG/1.1/DTD/svg11.dtd">
<svg xmlns="http://www.w3.org/2000/svg" version="1.1" viewBox="0.00 0.00 984.00 832.00">
<g fill="var(--art-stroke)">
<path d="
  M 296.55 370.36
  Q 296.85 370.23 297.49 370.18
  Q 303.38 369.67 314.21 369.91
  C 327.41 370.21 341.19 376.03 349.30 386.29
  C 361.75 402.03 360.22 422.46 356.02 441.36
  Q 351.39 462.13 342.72 485.27
  Q 342.04 487.08 341.10 488.74
  A 0.84 0.84 0.0 0 0 341.79 489.99
  Q 347.80 490.23 354.76 493.09
  Q 374.35 501.16 376.04 523.54
  Q 376.62 531.27 373.81 539.05
  C 372.33 543.13 369.62 545.36 365.46 547.30
  Q 346.79 556.00 332.00 559.97
  Q 320.37 563.09 302.84 565.88
  Q 288.18 568.21 277.62 568.03
  C 267.17 567.85 255.77 568.02 246.55 562.22
  C 241.96 559.32 241.33 553.87 241.90 548.75
  Q 245.18 519.65 249.16 501.63
  Q 252.63 485.90 260.15 463.04
  A 1.82 0.25 -54.7 0 1 260.61 462.16
  Q 260.78 461.89 260.97 461.29
  A 1.03 1.03 0.0 0 0 259.30 460.21
  L 259.00 460.49
  A 1.67 1.67 0.0 0 1 258.24 460.87
  Q 234.57 465.68 210.94 464.60
  Q 198.51 464.03 195.20 463.51
  Q 188.22 462.42 182.71 463.05
  A 0.90 0.90 0.0 0 0 182.00 463.57
  Q 177.47 473.61 171.49 484.33
  C 162.41 500.61 152.85 516.00 140.68 529.43
  Q 135.46 535.20 121.03 548.04
  Q 110.04 557.82 96.88 565.49
  A 0.96 0.95 -28.3 0 0 96.50 566.74
  Q 99.67 573.02 101.09 579.63
  C 102.51 586.21 103.99 593.21 103.93 599.87
  Q 103.84 610.98 100.39 620.90
  C 96.93 630.88 85.88 638.39 76.11 641.15
  Q 68.41 643.33 60.22 640.52
  C 45.18 635.36 35.56 625.36 26.58 612.41
  Q 20.80 604.07 16.44 596.30
  Q 7.12 579.69 2.02 559.73
  Q -0.16 551.18 0.70 543.42
  Q 1.24 538.58 5.81 533.78
  Q 10.55 528.79 20.59 520.34
  C 26.58 515.31 33.38 508.07 39.10 500.90
  Q 53.66 482.61 65.33 468.32
  C 69.85 462.77 71.20 457.22 73.32 449.16
  Q 78.66 428.88 85.76 401.78
  A 0.93 0.92 -75.0 0 0 85.11 400.64
  Q 75.38 397.94 65.17 392.07
  Q 48.97 382.76 45.39 363.88
  C 44.52 359.32 45.37 353.36 46.57 348.45
  Q 57.46 303.87 66.36 270.14
  Q 70.27 255.30 76.16 236.98
  Q 79.98 225.10 84.18 219.17
  C 92.03 208.08 105.07 199.55 119.00 199.10
  Q 127.14 198.83 136.23 199.14
  Q 139.13 199.24 142.48 200.01
  A 1.34 1.34 0.0 0 0 144.00 198.14
  L 143.44 196.91
  A 2.08 1.75 33.0 0 1 143.28 196.38
  Q 137.67 156.96 155.38 124.99
  C 170.44 97.80 195.42 77.96 225.45 68.23
  Q 234.41 65.33 244.51 64.34
  Q 257.06 63.11 269.01 63.69
  Q 280.72 64.27 293.18 67.46
  Q 324.70 75.54 348.83 101.15
  Q 370.92 124.60 376.05 156.10
  Q 377.72 166.36 377.24 180.38
  Q 376.81 193.01 373.43 204.30
  Q 367.30 224.84 354.79 240.98
  C 350.28 246.80 345.73 250.08 339.65 254.92
  Q 334.36 259.13 334.02 259.47
  Q 333.48 260.03 330.89 261.87
  Q 329.13 263.13 327.62 264.92
  A 0.09 0.07 52.0 0 0 327.62 265.02
  L 328.20 265.82
  A 0.20 0.20 0.0 0 0 328.51 265.85
  L 332.24 262.32
  A 0.93 0.86 10.3 0 1 332.49 262.16
  Q 334.69 261.14 336.85 258.61
  A 2.26 2.19 9.0 0 1 337.70 258.01
  C 339.49 257.31 340.88 255.54 342.66 254.21
  Q 358.54 242.31 365.45 236.71
  C 368.52 234.23 369.20 228.66 370.39 225.84
  Q 373.54 218.39 380.74 214.04
  A 2.04 1.98 -3.6 0 0 381.54 213.16
  C 383.80 208.36 386.10 203.91 389.92 200.89
  Q 391.14 199.94 394.67 197.60
  A 2.14 2.12 88.1 0 0 395.34 196.88
  Q 396.30 195.15 398.94 190.45
  Q 405.13 179.42 417.48 177.01
  C 422.95 175.94 428.56 179.32 432.92 182.61
  A 2.10 2.10 0.0 0 0 435.45 182.60
  Q 468.55 157.48 498.09 136.79
  A 0.75 0.75 0.0 0 0 498.28 135.76
  Q 497.98 135.31 497.50 134.60
  C 493.84 129.17 494.21 122.05 497.19 117.18
  Q 500.73 111.41 508.35 106.56
  C 510.08 105.46 511.55 101.87 512.46 100.03
  Q 534.65 55.07 552.64 11.68
  C 553.96 8.50 555.44 5.97 559.99 4.94
  A 2.44 2.40 -45.6 0 1 561.01 4.92
  C 565.25 5.73 569.34 9.37 567.47 13.99
  Q 565.69 18.39 564.77 20.28
  Q 559.36 31.42 537.31 78.77
  Q 531.10 92.10 526.33 99.78
  A 0.68 0.66 53.9 0 0 526.25 100.32
  L 526.50 101.31
  A 0.30 0.30 0.0 0 0 527.05 101.38
  Q 532.07 92.47 537.26 85.59
  C 546.91 72.81 556.49 58.63 564.96 48.19
  Q 587.35 20.60 590.93 16.42
  Q 599.51 6.42 603.43 3.19
  Q 608.83 -1.23 614.87 1.97
  C 617.77 3.51 618.72 5.77 620.41 8.22
  A 7.71 7.59 89.0 0 0 622.44 10.21
  C 626.79 13.14 631.71 16.17 634.59 20.43
  A 2.23 2.23 0.0 0 1 634.95 21.46
  Q 635.19 24.30 636.33 25.16
  C 643.04 30.20 652.26 38.33 653.43 46.47
  A 1.32 1.27 18.8 0 0 653.83 47.24
  Q 663.53 56.22 669.96 67.29
  Q 671.51 69.96 672.44 72.88
  A 2.85 2.84 -73.7 0 0 672.98 73.87
  C 676.71 78.29 679.12 81.37 681.16 87.38
  Q 681.37 88.00 684.43 98.47
  A 2.43 2.41 18.2 0 0 684.85 99.29
  Q 691.15 107.31 691.18 115.97
  C 691.21 124.48 679.32 128.73 672.36 130.83
  Q 621.93 146.06 571.45 155.15
  Q 562.58 156.75 555.28 157.05
  A 2.11 2.06 22.8 0 0 553.99 157.56
  C 552.26 159.05 550.60 162.14 549.23 163.40
  C 540.58 171.30 525.76 177.50 518.31 164.99
  A 0.17 0.17 0.0 0 0 518.06 164.93
  L 459.45 207.13
  A 0.83 0.83 0.0 0 0 459.16 208.07
  Q 462.11 216.64 461.77 223.92
  C 460.92 242.02 452.04 256.68 439.08 269.63
  A 3.57 3.54 73.8 0 0 438.10 271.43
  Q 437.01 276.51 435.56 282.35
  C 430.17 304.08 416.39 322.59 398.45 335.52
  Q 389.99 341.62 378.53 345.46
  Q 368.49 348.83 356.62 349.04
  Q 333.46 349.46 312.50 342.94
  A 1.16 1.15 19.3 0 0 311.08 343.62
  C 307.37 353.11 303.56 362.26 296.00 369.51
  A 0.52 0.51 -78.1 0 0 296.55 370.36
  Z
  M 628.92 120.15
  A 0.35 0.34 19.2 0 1 628.63 119.56
  Q 631.32 116.98 635.03 115.02
  Q 652.51 105.82 671.13 99.05
  A 0.92 0.92 0.0 0 0 671.71 97.97
  Q 670.10 91.51 666.93 85.54
  A 1.27 1.25 62.2 0 0 665.25 85.01
  C 643.37 96.26 617.76 107.31 598.24 115.47
  Q 592.99 117.67 587.69 118.86
  A 0.54 0.54 0.0 0 1 587.19 117.95
  Q 587.91 117.23 588.93 116.45
  Q 595.42 111.50 607.58 104.59
  Q 640.95 85.61 646.01 82.75
  Q 654.12 78.17 659.77 74.40
  A 0.92 0.92 0.0 0 0 660.05 73.17
  Q 654.90 64.49 648.14 57.76
  A 0.88 0.88 0.0 0 0 646.99 57.68
  Q 643.59 60.28 641.53 61.55
  Q 617.21 76.57 593.92 91.53
  Q 590.31 93.85 585.65 96.53
  C 580.44 99.53 577.27 101.83 574.32 102.24
  A 0.66 0.66 0.0 0 1 573.78 101.11
  Q 591.32 84.72 611.95 69.66
  C 621.83 62.45 633.29 53.36 641.38 47.11
  A 0.74 0.73 53.1 0 0 641.52 46.08
  Q 636.93 39.87 630.60 34.38
  A 0.81 0.81 0.0 0 0 629.57 34.35
  Q 622.95 39.55 594.14 62.14
  Q 590.60 64.91 586.76 66.92
  A 0.97 0.97 0.0 0 1 585.49 65.54
  Q 587.00 63.19 589.64 60.14
  Q 606.40 40.72 621.80 24.58
  A 1.26 1.25 38.6 0 0 621.58 22.67
  L 609.55 14.64
  A 1.20 1.19 -52.3 0 0 608.00 14.84
  Q 602.47 21.06 592.51 33.51
  Q 558.34 76.22 534.90 107.35
  C 533.64 109.03 532.02 110.80 533.38 112.42
  C 541.74 122.45 549.56 132.65 553.87 144.98
  A 0.90 0.90 0.0 0 0 554.78 145.57
  C 575.37 143.87 594.47 139.44 616.54 134.02
  Q 624.05 132.17 654.43 124.41
  Q 667.27 121.13 678.22 116.57
  A 1.92 1.91 -18.6 0 0 679.34 114.32
  L 678.31 110.31
  A 1.96 1.95 74.9 0 0 675.88 108.91
  Q 653.89 115.16 637.03 118.77
  Q 633.16 119.60 628.92 120.15
  Z
  M 154.36 165.71
  C 159.59 158.13 165.52 154.08 174.99 154.56
  C 186.79 155.17 195.52 166.16 197.94 177.30
  Q 200.27 188.07 198.00 198.70
  C 195.94 208.35 190.21 217.91 180.58 220.89
  Q 169.64 224.26 160.57 216.84
  A 0.26 0.26 0.0 0 0 160.18 217.15
  Q 163.93 225.24 168.73 232.45
  Q 169.79 234.05 172.91 235.60
  Q 196.27 247.25 205.76 251.45
  C 226.72 260.72 249.15 266.69 272.00 268.04
  Q 288.62 269.03 304.57 264.35
  Q 307.02 263.63 319.69 258.13
  A 0.39 0.38 68.6 0 0 319.90 257.64
  L 319.89 257.62
  A 0.31 0.30 -19.0 0 0 319.51 257.44
  C 296.76 264.14 273.68 258.78 253.59 246.60
  C 233.12 234.19 220.50 214.13 218.95 190.49
  C 216.07 146.69 246.78 113.81 289.23 108.28
  Q 317.93 104.55 342.51 116.74
  C 344.38 117.67 346.23 119.29 347.87 120.48
  A 0.21 0.21 0.0 0 0 348.17 120.19
  C 327.09 91.19 296.08 76.11 259.84 76.17
  C 226.22 76.23 196.46 90.55 175.38 116.59
  Q 157.80 138.32 154.06 165.59
  A 0.17 0.16 66.3 0 0 154.36 165.71
  Z
  M 505.90 127.60
  A 1.67 1.65 10.9 0 0 506.86 129.00
  Q 512.53 131.61 516.27 137.00
  Q 523.29 147.11 527.85 158.43
  Q 528.75 160.65 530.60 160.60
  C 537.17 160.43 546.21 154.53 542.37 146.59
  Q 536.72 134.95 527.68 124.59
  Q 523.04 119.28 519.36 116.88
  C 515.22 114.17 509.84 118.09 507.54 121.56
  Q 505.70 124.33 505.90 127.60
  Z
  M 275.46 123.71
  C 254.15 130.61 237.09 146.99 232.05 169.26
  Q 225.30 199.11 244.18 222.17
  Q 252.54 232.39 264.93 238.83
  Q 297.26 255.63 331.94 242.96
  Q 342.23 239.20 348.62 229.83
  Q 365.13 205.60 365.39 176.06
  Q 365.50 162.97 362.54 152.68
  C 359.10 140.72 348.49 133.54 338.25 128.04
  C 319.56 118.01 295.23 117.32 275.46 123.71
  Z
  M 508.27 144.42
  A 0.94 0.94 0.0 0 0 506.93 144.17
  L 445.33 188.52
  A 0.94 0.94 0.0 0 0 445.26 189.99
  L 453.21 196.97
  A 0.94 0.94 0.0 0 0 454.39 197.02
  L 513.26 153.77
  A 0.94 0.94 0.0 0 0 513.49 152.51
  L 508.27 144.42
  Z
  M 172.2926 165.4890
  A 22.68 14.12 -92.9 0 0 159.3381 188.8544
  A 22.68 14.12 -92.9 0 0 174.5874 210.7910
  A 22.68 14.12 -92.9 0 0 187.5419 187.4256
  A 22.68 14.12 -92.9 0 0 172.2926 165.4890
  Z
  M 408.57 196.64
  L 417.23 198.81
  A 1.28 1.27 -56.2 0 0 418.31 198.59
  L 425.90 192.86
  A 1.22 1.21 39.0 0 0 425.68 190.79
  L 421.39 188.77
  A 5.51 5.48 45.5 0 0 416.84 188.72
  Q 411.56 191.06 408.30 195.93
  A 0.47 0.46 -66.0 0 0 408.57 196.64
  Z
  M 426.62 206.04
  C 428.98 208.16 435.83 216.64 433.73 220.20
  C 432.34 222.57 428.90 222.94 427.50 220.70
  Q 420.48 209.55 407.68 206.39
  Q 398.06 204.01 393.49 212.51
  A 0.32 0.31 24.8 0 0 393.66 212.96
  C 402.83 216.37 412.99 224.81 415.70 234.78
  A 1.64 1.61 49.6 0 1 415.63 235.79
  C 414.45 238.70 411.34 239.95 409.22 237.45
  C 405.38 232.89 400.76 227.06 395.32 223.95
  C 387.62 219.55 380.76 224.99 379.04 232.59
  A 1.68 1.68 0.0 0 0 379.96 234.48
  C 385.72 237.24 387.96 240.58 387.80 247.21
  Q 387.68 252.36 387.71 256.39
  A 3.75 3.72 34.5 0 0 387.95 257.65
  Q 392.41 269.03 404.25 269.85
  Q 420.96 271.00 433.00 259.51
  C 442.31 250.62 449.53 237.54 450.69 224.66
  C 451.43 216.41 449.41 209.84 444.46 203.52
  Q 441.74 200.05 437.28 198.80
  A 2.23 2.19 34.4 0 0 435.38 199.14
  L 426.64 205.56
  A 0.32 0.31 48.2 0 0 426.62 206.04
  Z
  M 125.69 211.35
  C 130.35 214.87 134.14 218.83 136.61 223.89
  C 137.65 226.01 137.75 227.64 138.14 230.52
  A 0.51 0.50 82.9 0 0 138.69 230.95
  L 152.78 229.44
  A 0.29 0.29 0.0 0 0 153.01 229.02
  Q 149.33 222.01 147.02 213.90
  A 2.67 2.64 87.4 0 0 144.98 212.02
  Q 136.05 210.27 125.88 210.75
  A 0.34 0.33 -27.5 0 0 125.69 211.35
  Z
  M 71.47 299.22
  Q 82.73 268.78 107.04 248.07
  Q 118.09 238.66 130.92 233.79
  A 1.54 1.54 0.0 0 0 131.87 232.01
  C 130.38 225.64 127.35 219.45 121.26 216.61
  Q 117.51 214.87 113.46 213.83
  Q 108.47 212.56 103.42 215.90
  C 95.08 221.39 91.18 227.90 88.18 237.45
  Q 78.36 268.70 70.98 299.21
  A 0.17 0.17 0.0 0 0 71.09 299.41
  L 71.10 299.41
  A 0.31 0.30 -71.5 0 0 71.47 299.22
  Z
  M 118.53 364.13
  Q 121.39 334.09 146.21 317.50
  A 0.47 0.47 0.0 0 0 146.12 316.67
  Q 134.02 311.80 119.42 308.12
  C 116.00 307.26 115.73 303.88 118.09 301.72
  Q 120.98 299.08 125.79 299.43
  C 134.48 300.05 141.29 303.27 149.56 307.52
  A 1.42 1.41 -59.8 0 0 151.39 307.03
  Q 164.02 287.74 166.50 284.29
  A 3.52 2.85 -63.5 0 1 169.73 282.82
  Q 171.54 283.24 173.02 285.16
  A 1.66 1.65 27.3 0 1 173.36 286.22
  Q 173.20 289.87 172.43 291.69
  Q 167.92 302.31 160.20 311.60
  A 0.31 0.31 0.0 0 0 160.27 312.06
  L 172.35 319.54
  A 0.43 0.43 0.0 0 0 172.98 319.31
  C 175.92 310.08 178.27 301.69 179.35 291.58
  C 180.91 276.92 177.97 260.66 168.22 249.30
  C 160.58 240.39 150.04 239.94 139.44 243.44
  C 113.44 252.03 92.26 274.86 82.54 300.29
  Q 78.31 311.36 79.03 323.75
  Q 79.65 334.43 86.88 342.12
  Q 100.21 356.32 117.86 364.51
  A 0.47 0.47 0.0 0 0 118.53 364.13
  Z
  M 243.79 342.62
  Q 248.00 346.48 249.86 351.53
  A 0.60 0.60 0.0 0 0 250.77 351.81
  C 262.10 343.71 274.79 333.75 285.50 325.82
  Q 308.15 309.06 351.09 276.94
  C 360.28 270.07 368.76 263.03 376.74 257.23
  A 1.93 1.92 -16.6 0 0 377.53 255.78
  Q 377.84 250.74 377.60 246.92
  A 2.62 2.62 0.0 0 0 375.68 244.55
  Q 374.81 244.31 373.79 245.04
  Q 352.55 260.32 314.34 288.84
  Q 284.94 310.79 243.84 341.64
  A 0.64 0.64 0.0 0 0 243.79 342.62
  Z
  M 181.80 326.23
  A 0.24 0.24 0.0 0 0 182.05 326.53
  L 193.99 326.00
  A 1.67 1.65 -80.7 0 0 195.46 324.93
  Q 201.22 309.94 203.00 294.17
  C 204.16 283.83 203.41 274.57 200.68 264.85
  A 3.63 3.61 -85.4 0 0 198.74 262.56
  L 184.47 255.84
  A 0.36 0.36 0.0 0 0 183.99 256.32
  Q 188.12 265.11 188.88 275.36
  Q 190.50 297.13 183.80 319.39
  Q 181.99 325.42 181.80 326.23
  Z
  M 211.96 268.46
  Q 214.16 279.78 213.26 291.53
  Q 211.95 308.58 205.21 327.18
  A 0.62 0.62 0.0 0 0 205.68 328.01
  L 212.17 329.17
  A 1.02 1.02 0.0 0 0 213.34 328.41
  L 219.85 302.45
  A 1.20 1.10 -28.5 0 1 219.95 302.16
  Q 223.75 294.38 231.96 295.52
  Q 254.85 298.69 274.59 303.49
  A 3.72 3.71 33.1 0 0 277.70 302.84
  L 291.26 292.60
  A 1.48 1.47 70.0 0 0 291.84 291.35
  L 291.34 280.26
  A 0.22 0.21 86.2 0 0 291.11 280.05
  Q 284.90 280.54 275.43 280.56
  Q 267.82 280.58 259.68 279.57
  Q 234.87 276.51 212.49 268.01
  A 0.40 0.40 0.0 0 0 211.96 268.46
  Z
  M 425.08 276.96
  C 410.81 283.40 392.57 282.37 382.09 269.38
  A 1.18 1.18 0.0 0 0 380.45 269.18
  L 371.34 276.06
  A 1.36 1.35 -24.0 0 0 370.82 277.40
  C 373.86 293.66 394.32 301.58 408.78 301.81
  Q 411.43 301.85 414.72 300.86
  A 3.04 3.03 -72.8 0 0 415.72 300.33
  Q 416.30 299.86 417.73 297.22
  Q 422.86 287.73 425.50 277.32
  A 0.31 0.31 0.0 0 0 425.08 276.96
  Z
  M 314.02 273.75
  A 0.50 0.50 0.0 0 0 313.33 273.23
  L 300.79 278.26
  A 0.50 0.50 0.0 0 0 300.48 278.74
  L 300.74 284.61
  A 0.50 0.50 0.0 0 0 301.53 284.99
  L 313.56 276.33
  A 0.50 0.50 0.0 0 0 313.76 275.98
  L 314.02 273.75
  Z
  M 360.57 283.98
  L 318.69 314.75
  A 1.31 1.31 0.0 0 0 318.18 315.55
  L 314.98 331.23
  A 0.58 0.58 0.0 0 0 315.41 331.91
  Q 332.59 336.15 349.47 337.58
  C 371.88 339.49 392.51 329.98 406.67 313.04
  A 0.43 0.43 0.0 0 0 406.32 312.33
  C 395.68 312.79 383.94 307.81 375.39 301.87
  C 369.11 297.52 363.77 291.45 361.59 284.32
  A 0.67 0.66 63.2 0 0 360.57 283.98
  Z
  M 234.34 335.44
  A 0.33 0.33 0.0 0 0 234.65 335.39
  L 265.41 312.15
  A 0.33 0.33 0.0 0 0 265.27 311.57
  L 230.74 305.35
  A 0.33 0.33 0.0 0 0 230.37 305.59
  L 223.10 331.01
  A 0.33 0.33 0.0 0 0 223.31 331.42
  L 234.34 335.44
  Z
  M 68.08 311.35
  Q 65.23 320.64 63.23 329.13
  Q 61.47 336.59 60.37 340.19
  C 55.65 355.51 53.20 369.38 67.62 379.82
  Q 76.62 386.34 87.77 389.06
  A 1.53 1.52 37.1 0 0 88.87 388.91
  Q 89.91 388.31 90.11 386.50
  A 0.66 0.64 14.7 0 0 89.70 385.82
  C 85.21 384.04 85.13 379.37 86.20 375.45
  Q 87.43 370.99 90.15 363.91
  A 2.43 2.43 0.0 0 0 89.38 361.12
  C 83.10 356.26 77.25 351.37 73.68 344.82
  C 68.01 334.42 65.80 323.29 68.67 311.39
  A 0.23 0.23 0.0 0 0 68.51 311.12
  L 68.50 311.12
  A 0.35 0.34 -73.5 0 0 68.08 311.35
  Z
  M 150.15 380.39
  C 150.75 362.22 162.03 347.62 175.42 335.57
  A 0.09 0.09 0.0 0 0 175.41 335.43
  L 156.84 323.05
  A 1.69 1.69 0.0 0 0 155.00 323.02
  C 142.03 331.06 131.24 343.40 129.29 359.01
  Q 128.91 362.03 128.96 369.23
  C 128.97 371.29 129.69 372.50 131.44 373.35
  Q 139.97 377.52 149.85 380.60
  A 0.23 0.23 0.0 0 0 150.15 380.39
  Z
  M 306.40 324.37
  A 0.22 0.22 0.0 0 0 306.05 324.15
  L 292.84 334.13
  A 1.97 1.97 0.0 0 0 292.13 335.17
  C 288.85 346.93 282.71 359.47 277.03 370.57
  A 0.22 0.22 0.0 0 0 277.34 370.86
  Q 289.00 363.97 295.76 352.98
  Q 298.44 348.61 301.71 338.94
  Q 306.17 325.71 306.40 324.37
  Z
  M 216.12 395.27
  C 219.13 394.15 220.88 392.67 222.63 389.80
  C 227.00 382.65 225.69 374.42 222.19 366.39
  C 220.35 362.18 221.23 357.13 227.12 358.73
  A 2.42 2.41 71.7 0 1 227.99 359.17
  Q 228.94 359.93 230.69 363.05
  Q 233.54 368.13 234.38 373.71
  A 0.48 0.48 0.0 0 0 234.91 374.11
  L 237.98 373.78
  A 3.67 3.66 9.0 0 0 240.95 371.63
  Q 245.30 361.95 238.98 353.15
  Q 233.62 345.69 224.62 343.17
  Q 214.50 340.32 209.26 339.63
  Q 186.89 336.67 172.07 353.94
  C 166.80 360.08 159.98 371.51 161.69 379.83
  Q 162.70 384.76 167.46 385.04
  Q 170.97 385.25 176.67 384.80
  Q 181.27 384.44 182.82 385.06
  C 189.75 387.85 188.79 396.25 188.80 403.68
  A 2.02 1.94 -58.7 0 0 188.99 404.53
  C 191.21 409.05 198.13 405.93 200.68 403.33
  C 207.60 396.31 207.76 386.40 202.15 378.33
  C 200.24 375.59 202.30 371.41 205.93 371.97
  C 208.32 372.35 209.79 374.64 210.89 376.39
  Q 216.00 384.52 215.50 394.82
  A 0.46 0.46 0.0 0 0 216.12 395.27
  Z
  M 279.37 344.58
  Q 279.04 344.48 278.71 344.72
  C 266.71 353.53 260.67 358.40 254.78 361.81
  A 1.27 1.27 0.0 0 0 254.16 363.03
  Q 254.76 369.16 251.86 374.76
  A 0.61 0.60 -79.5 0 0 252.46 375.64
  L 264.44 374.36
  A 2.50 2.49 -85.8 0 0 266.60 372.49
  C 267.82 367.59 269.18 364.07 271.74 359.55
  Q 276.84 350.54 279.57 345.05
  A 0.34 0.34 0.0 0 0 279.37 344.58
  Z
  M 97.37 375.92
  A 0.46 0.46 0.0 0 0 97.65 376.51
  L 112.50 381.92
  A 5.20 5.20 0.0 0 0 117.31 381.26
  L 117.50 381.13
  A 2.00 1.99 -47.8 0 0 117.34 377.77
  L 100.57 368.16
  A 0.30 0.30 0.0 0 0 100.14 368.32
  L 97.37 375.92
  Z
  M 204.70 453.19
  C 214.31 452.79 224.70 453.47 233.77 452.70
  Q 244.35 451.80 255.98 449.21
  A 0.58 0.58 0.0 0 0 256.42 448.48
  C 254.16 440.21 252.99 427.23 257.96 420.03
  C 260.45 416.42 264.77 418.16 265.27 422.27
  Q 265.93 427.60 267.24 445.08
  A 0.46 0.46 0.0 0 0 268.11 445.25
  Q 271.51 438.24 276.37 431.37
  C 278.33 428.59 287.82 416.71 292.06 419.97
  Q 294.35 421.73 293.16 425.15
  A 2.16 2.15 -16.4 0 1 292.81 425.79
  C 289.77 429.68 286.91 432.72 284.86 435.80
  Q 276.93 447.74 271.07 461.91
  A 0.24 0.23 -87.5 0 0 271.36 462.23
  Q 305.02 450.69 339.38 456.80
  A 0.52 0.51 -75.8 0 0 339.96 456.45
  Q 345.58 439.48 347.35 423.04
  Q 348.08 416.27 346.72 407.76
  C 344.14 391.69 329.35 382.11 313.94 381.33
  Q 296.68 380.47 278.84 383.78
  A 1.04 1.03 4.4 0 0 278.05 384.45
  Q 275.90 390.43 273.12 397.30
  Q 270.42 403.97 263.59 406.26
  Q 256.44 408.65 249.51 408.39
  A 1.62 1.60 17.7 0 0 248.09 409.11
  Q 246.64 411.31 243.90 411.89
  Q 233.48 414.11 223.25 412.33
  Q 218.78 411.55 215.54 407.78
  A 1.39 1.39 0.0 0 0 214.42 407.29
  L 211.05 407.44
  A 1.37 1.35 17.8 0 0 210.06 407.94
  Q 204.76 414.45 196.75 416.44
  C 191.26 417.80 186.64 416.50 182.37 413.38
  A 0.86 0.85 -42.8 0 0 181.40 413.35
  Q 152.37 432.02 148.89 434.48
  Q 143.07 438.60 139.67 438.86
  Q 133.89 439.29 130.03 435.99
  C 121.35 428.56 118.60 416.32 127.63 407.88
  Q 130.15 405.53 130.98 404.96
  Q 140.15 398.75 149.81 392.47
  A 0.40 0.40 0.0 0 0 149.68 391.74
  Q 138.67 389.32 128.70 384.53
  A 0.28 0.28 0.0 0 0 128.30 384.73
  C 126.87 392.67 119.48 395.34 112.32 393.68
  Q 107.88 392.65 101.48 390.23
  A 0.52 0.51 17.3 0 0 100.80 390.58
  Q 93.09 420.34 82.74 459.04
  C 80.92 465.83 78.80 469.81 74.47 475.22
  Q 72.58 477.58 61.87 490.37
  Q 60.28 492.27 59.97 493.84
  A 1.62 1.60 -47.6 0 0 60.00 494.61
  C 64.36 508.77 72.61 521.71 85.05 529.97
  Q 96.87 537.83 109.53 542.05
  A 0.81 0.81 0.0 0 0 110.33 541.88
  L 124.70 528.79
  A 0.37 0.37 0.0 0 0 124.47 528.15
  Q 112.85 527.52 101.36 520.43
  Q 93.02 515.29 89.57 511.62
  C 87.05 508.94 87.17 507.32 88.88 504.13
  Q 92.78 496.89 100.18 484.13
  C 103.39 478.58 106.03 472.82 108.41 468.70
  C 110.37 465.30 113.07 465.04 117.00 466.29
  Q 123.47 468.33 126.82 469.18
  Q 142.85 473.22 159.82 472.09
  Q 162.27 471.92 164.22 471.48
  A 1.62 1.61 -84.2 0 0 165.32 470.58
  Q 170.99 458.06 176.86 443.16
  Q 177.43 441.73 179.82 439.74
  A 1.67 1.66 -67.4 0 1 180.71 439.37
  C 186.57 438.74 187.25 444.57 185.61 448.63
  A 0.36 0.36 0.0 0 0 186.05 449.10
  Q 202.04 443.82 217.00 434.61
  C 219.26 433.21 221.94 432.17 223.92 434.29
  C 226.74 437.32 221.36 442.41 218.92 443.92
  Q 211.68 448.40 204.56 452.73
  A 0.25 0.25 0.0 0 0 204.70 453.19
  Z
  M 252.61 399.72
  Q 255.61 399.25 258.02 398.50
  C 263.24 396.88 267.48 388.98 268.90 384.26
  A 0.57 0.57 0.0 0 0 268.29 383.53
  L 255.79 384.86
  A 1.32 1.32 0.0 0 0 254.64 385.93
  L 252.23 399.33
  A 0.34 0.33 -89.4 0 0 252.61 399.72
  Z
  M 225.66 402.94
  C 229.46 403.87 239.17 403.80 241.83 400.04
  Q 245.29 395.14 246.53 385.87
  A 0.71 0.70 -80.7 0 0 245.98 385.09
  Q 240.56 383.92 235.78 384.93
  A 0.81 0.80 88.5 0 0 235.14 385.61
  Q 233.63 395.82 225.50 402.18
  A 0.43 0.43 0.0 0 0 225.66 402.94
  Z
  M 139.15 427.42
  Q 139.75 427.19 141.19 426.18
  Q 164.21 410.06 176.17 402.19
  C 178.95 400.36 178.92 399.10 178.70 396.23
  A 0.66 0.65 -8.6 0 0 177.89 395.64
  Q 171.36 397.28 164.85 396.38
  A 2.89 2.87 -57.0 0 0 162.90 396.80
  Q 145.92 407.70 141.57 410.82
  Q 138.04 413.35 134.95 416.67
  C 132.48 419.32 134.08 423.92 135.97 426.49
  A 2.75 2.74 61.2 0 0 139.15 427.42
  Z
  M 256.22 534.92
  Q 256.94 534.92 257.88 534.67
  Q 290.89 525.78 327.77 519.09
  Q 340.40 516.80 352.63 517.59
  C 356.45 517.83 360.07 518.73 363.57 519.42
  A 0.50 0.49 -87.1 0 0 364.16 518.88
  C 363.47 512.57 357.02 505.89 351.68 503.60
  Q 342.30 499.59 330.22 499.17
  Q 311.82 498.54 292.54 505.02
  Q 290.65 505.65 289.31 505.39
  A 1.24 1.24 0.0 0 1 288.49 503.52
  Q 290.27 500.65 293.49 498.45
  C 303.83 491.36 315.05 489.72 327.65 489.10
  A 1.69 1.69 0.0 0 0 329.10 488.12
  Q 333.40 478.76 336.87 467.20
  A 0.53 0.53 0.0 0 0 336.39 466.52
  Q 326.71 466.10 324.00 465.99
  Q 295.59 464.74 269.13 474.72
  A 2.94 2.92 88.6 0 0 267.36 476.59
  Q 258.53 505.04 255.68 534.32
  A 0.55 0.54 -87.1 0 0 256.22 534.92
  Z
  M 159.57 480.91
  C 156.77 480.79 153.50 481.26 150.77 481.16
  Q 133.28 480.51 115.74 474.53
  A 1.07 1.06 21.7 0 0 114.43 475.09
  Q 108.29 488.52 100.42 501.18
  Q 98.93 503.58 96.97 505.99
  A 1.03 1.03 0.0 0 0 97.05 507.38
  Q 110.46 520.48 129.47 520.57
  Q 132.45 520.58 133.64 519.40
  Q 139.08 513.99 146.31 503.29
  Q 153.10 493.25 159.81 481.35
  A 0.30 0.29 -74.2 0 0 159.57 480.91
  Z
  M 90.70 585.62
  L 87.09 571.57
  A 1.22 1.21 -13.1 0 0 85.67 570.69
  C 75.78 572.74 66.91 567.65 59.33 561.70
  C 56.94 559.82 57.72 556.03 61.33 556.00
  A 1.74 1.70 -31.7 0 1 62.14 556.18
  C 72.39 561.09 81.35 562.43 91.46 555.91
  Q 95.45 553.34 100.79 549.32
  A 0.48 0.48 0.0 0 0 100.63 548.47
  C 78.22 542.17 61.09 525.19 53.46 503.59
  Q 53.32 503.20 52.91 502.78
  A 0.74 0.73 41.3 0 0 51.78 502.85
  Q 43.98 513.60 33.78 523.53
  Q 26.38 530.73 20.82 535.16
  A 2.60 2.57 69.1 0 0 19.85 537.36
  Q 20.72 549.78 25.71 561.06
  Q 32.56 576.53 39.77 589.46
  C 45.85 600.38 51.94 609.35 62.29 616.55
  C 68.11 620.60 76.44 622.94 82.82 623.36
  C 86.90 623.64 89.56 618.25 90.54 615.05
  Q 92.87 607.49 91.95 598.72
  C 91.78 597.17 91.90 595.51 90.39 594.64
  Q 87.95 593.22 83.50 592.28
  Q 76.03 590.70 65.06 591.20
  Q 61.53 591.36 60.30 588.60
  A 2.38 2.12 -26.9 0 1 61.41 585.77
  Q 63.34 584.71 65.13 584.41
  Q 77.95 582.25 90.27 586.03
  A 0.34 0.34 0.0 0 0 90.70 585.62
  Z
  M 360.73 535.51
  A 1.58 1.58 0.0 0 0 363.00 534.38
  L 363.97 528.96
  A 2.28 2.26 15.3 0 0 362.51 526.43
  Q 359.65 525.39 357.74 525.27
  Q 343.17 524.41 331.18 526.19
  C 306.19 529.91 281.36 536.10 255.93 543.26
  A 3.30 3.30 0.0 0 0 253.53 546.59
  L 253.74 551.13
  A 2.06 2.05 -10.9 0 0 256.47 552.98
  Q 272.50 547.38 282.69 544.96
  Q 298.08 541.32 325.02 537.32
  Q 339.55 535.17 352.75 534.30
  Q 357.69 533.98 360.73 535.51
  Z
  M 74.30 629.34
  C 67.69 627.32 61.42 624.62 55.73 620.03
  C 40.73 607.91 32.14 590.41 24.06 573.52
  Q 17.07 558.89 13.97 543.08
  A 0.53 0.53 0.0 0 0 13.09 542.79
  C 10.36 545.31 11.57 551.03 12.35 554.43
  C 17.16 575.21 27.71 595.53 40.11 612.00
  C 47.37 621.66 61.01 633.83 74.28 630.23
  A 0.46 0.46 0.0 0 0 74.30 629.34
  Z"
/>
<path d="
  M 984.00 579.88
  L 984.00 591.86
  Q 981.68 616.43 966.45 636.44
  Q 958.01 647.52 947.86 654.86
  Q 928.10 669.13 904.34 674.29
  Q 894.71 676.38 884.38 677.95
  A 2.63 2.60 -78.2 0 0 882.55 679.16
  Q 881.49 680.89 879.71 682.71
  Q 864.92 697.85 861.54 700.79
  Q 860.51 701.68 859.81 701.80
  A 0.76 0.76 0.0 0 0 859.40 703.09
  Q 860.57 704.22 865.72 706.77
  Q 872.99 710.36 884.98 715.80
  Q 893.34 719.59 895.08 721.91
  Q 898.82 726.88 897.99 733.28
  Q 897.10 740.06 894.62 750.64
  C 892.19 761.00 890.53 770.74 889.39 780.24
  Q 888.84 784.77 889.53 788.53
  A 5.56 5.32 28.2 0 0 889.97 789.88
  C 892.09 794.27 895.19 799.11 895.93 803.64
  Q 896.63 807.94 895.61 812.00
  A 3.39 3.31 69.5 0 1 895.16 813.02
  C 891.82 818.04 884.28 819.61 878.49 820.24
  Q 874.81 820.64 859.55 821.63
  Q 847.48 822.42 832.66 828.66
  C 828.66 830.34 826.33 831.04 822.45 831.09
  C 816.67 831.17 815.55 827.24 816.11 822.19
  C 816.25 820.97 817.12 820.59 817.02 819.19
  A 0.50 0.50 0.0 0 0 816.51 818.72
  L 812.52 818.79
  A 2.30 2.25 35.4 0 0 811.82 818.90
  C 807.48 820.23 801.12 824.44 794.66 822.61
  C 791.12 821.61 791.70 816.63 792.11 813.85
  A 3.73 3.53 -29.4 0 1 792.43 812.81
  C 798.28 800.67 807.81 789.85 820.95 785.44
  Q 829.76 782.48 839.16 781.85
  A 1.67 1.67 0.0 0 0 840.64 780.68
  Q 846.21 762.98 850.06 745.52
  A 1.23 1.23 0.0 0 0 849.20 744.08
  Q 845.16 742.90 841.68 741.31
  C 827.56 734.84 813.58 727.75 804.99 715.56
  Q 801.22 710.21 801.87 702.23
  Q 802.63 692.80 805.44 683.20
  Q 806.13 680.85 807.08 678.97
  A 0.56 0.56 0.0 0 0 806.28 678.25
  L 777.38 696.90
  A 0.58 0.57 51.6 0 0 777.28 697.79
  C 779.23 699.77 781.62 701.25 783.35 703.18
  Q 790.31 710.90 791.26 712.21
  Q 797.25 720.46 801.66 725.14
  C 806.83 730.61 809.34 734.63 807.42 741.47
  Q 806.16 745.96 804.34 750.10
  Q 800.39 759.07 791.35 775.60
  Q 787.03 783.49 785.90 790.67
  Q 785.30 794.52 785.04 798.74
  C 784.20 812.59 771.17 813.74 760.43 813.89
  Q 752.05 814.01 746.14 814.55
  Q 740.79 815.03 733.55 817.20
  C 725.81 819.53 720.05 821.31 713.22 822.03
  Q 707.25 822.67 707.05 816.54
  Q 706.93 812.87 707.97 810.99
  A 0.47 0.47 0.0 0 0 707.61 810.30
  Q 704.45 809.99 703.43 810.39
  C 698.10 812.44 688.70 814.05 688.06 806.04
  C 687.70 801.55 696.98 792.05 701.17 788.09
  C 708.90 780.79 718.19 776.91 728.55 776.19
  Q 732.66 775.90 737.49 775.04
  A 3.46 3.45 12.3 0 0 739.73 773.61
  Q 750.09 758.69 757.89 742.31
  A 1.27 1.26 -58.2 0 0 757.54 740.78
  C 746.63 732.16 735.87 723.31 726.86 712.40
  C 723.41 708.22 720.19 703.55 719.83 698.25
  C 719.33 690.98 723.83 682.60 727.77 676.77
  Q 736.52 663.84 747.06 653.26
  A 2.54 2.51 -19.1 0 0 747.78 651.80
  Q 749.23 640.82 754.84 630.39
  A 0.28 0.28 0.0 0 0 754.53 629.98
  Q 742.92 632.67 733.13 639.51
  Q 731.85 640.40 726.98 641.71
  A 1.94 1.92 51.6 0 1 725.58 641.54
  Q 721.22 639.22 720.90 634.56
  Q 720.79 632.87 722.76 628.46
  Q 728.76 615.08 741.53 606.20
  A 0.67 0.66 31.6 0 0 741.24 605.00
  Q 739.53 604.75 737.77 605.08
  Q 732.26 606.12 726.09 606.64
  Q 713.24 607.72 698.81 608.21
  A 1.53 1.52 24.4 0 0 697.92 608.54
  L 691.66 613.40
  A 4.62 4.58 -76.2 0 1 690.78 613.94
  Q 683.80 617.21 675.02 617.16
  Q 666.12 617.10 665.25 617.08
  C 653.77 616.79 645.50 620.96 636.76 627.74
  C 631.43 631.87 627.85 625.71 628.14 621.12
  Q 628.34 617.85 630.07 614.06
  Q 634.89 603.54 644.55 597.07
  A 0.52 0.52 0.0 0 0 644.18 596.12
  Q 632.37 597.85 622.22 600.67
  A 3.84 3.84 0.0 0 1 620.60 600.76
  Q 613.71 599.63 614.48 592.42
  A 2.81 2.68 62.1 0 1 614.73 591.53
  Q 623.07 574.19 642.49 572.67
  A 0.72 0.72 0.0 0 0 642.61 571.26
  Q 633.26 568.90 623.43 568.13
  Q 618.79 567.76 617.78 567.20
  A 3.18 3.01 82.1 0 1 616.98 566.56
  C 608.77 557.48 628.42 549.96 633.86 548.13
  Q 643.80 544.79 653.55 546.77
  C 668.29 549.76 679.83 557.83 691.80 566.58
  A 7.03 6.65 72.0 0 0 693.36 567.43
  Q 696.97 568.83 701.26 568.98
  C 713.79 569.44 727.06 567.58 740.06 565.55
  Q 741.94 565.26 742.83 563.31
  Q 744.60 559.44 752.26 542.49
  Q 753.19 540.44 754.05 535.76
  A 6.36 5.95 -43.1 0 0 754.15 534.28
  Q 753.85 527.99 754.75 523.56
  C 755.20 521.37 754.74 519.19 755.76 517.43
  C 756.47 516.21 755.36 513.75 756.74 512.72
  A 0.33 0.33 0.0 0 0 756.52 512.12
  Q 756.16 512.14 755.64 512.90
  Q 750.18 520.90 744.18 527.16
  Q 741.47 530.00 733.91 535.38
  C 721.29 544.37 703.47 547.67 689.06 545.40
  Q 683.08 544.46 676.97 540.31
  Q 671.28 536.44 669.97 529.26
  C 669.31 525.64 671.50 522.25 674.12 518.83
  A 3.38 3.36 72.6 0 0 674.67 517.77
  Q 675.08 516.45 675.15 513.50
  Q 675.29 507.23 681.43 506.90
  Q 683.41 506.80 684.95 508.40
  C 687.30 510.85 688.74 512.63 691.36 513.80
  A 0.44 0.43 14.1 0 0 691.97 513.44
  Q 692.15 511.20 691.99 507.48
  C 691.77 502.57 697.96 501.55 701.25 503.06
  Q 706.04 505.26 708.56 510.06
  A 0.25 0.25 0.0 0 0 709.03 509.94
  L 708.61 500.70
  A 1.99 1.95 64.4 0 1 709.07 499.35
  Q 713.85 493.71 720.57 497.87
  A 0.90 0.90 0.0 0 0 721.85 497.51
  Q 723.69 493.70 722.86 487.10
  A 2.16 2.14 7.8 0 0 721.56 485.40
  L 715.65 482.92
  A 1.57 1.52 -34.7 0 0 714.98 482.81
  Q 712.90 482.98 711.52 483.65
  A 3.45 3.44 -6.5 0 0 709.66 485.98
  Q 709.39 487.12 708.69 491.41
  Q 708.23 494.20 705.41 494.85
  Q 699.34 496.26 696.29 491.82
  Q 694.28 488.88 693.72 487.40
  A 0.87 0.85 -11.6 0 0 692.87 486.85
  L 690.58 486.95
  A 0.65 0.65 0.0 0 0 689.96 487.67
  C 690.46 492.15 689.82 497.52 685.24 499.44
  Q 681.99 500.80 679.24 498.59
  C 677.34 497.06 677.10 494.08 676.88 491.57
  A 0.76 0.76 0.0 0 0 675.79 490.96
  C 673.93 491.87 672.06 494.96 669.96 497.59
  Q 668.62 499.27 664.19 500.81
  A 2.24 2.17 43.3 0 1 662.83 500.83
  C 653.20 497.87 652.92 489.10 651.43 480.88
  A 3.80 3.59 26.7 0 0 651.01 479.72
  C 647.38 473.47 644.10 467.25 643.91 460.26
  Q 643.75 454.44 644.97 448.23
  Q 648.65 429.54 658.67 413.42
  Q 669.64 395.77 685.21 381.96
  C 707.26 362.41 733.29 348.50 761.08 340.14
  Q 779.16 334.70 799.76 333.76
  C 804.16 333.56 807.95 333.07 812.50 333.15
  Q 826.34 333.38 839.55 334.99
  Q 861.66 337.69 881.38 347.87
  C 896.35 355.59 915.82 369.99 916.55 388.45
  C 917.16 403.74 906.44 411.51 893.79 417.30
  Q 883.57 421.98 874.26 424.73
  C 856.15 430.10 843.32 433.45 829.18 442.42
  C 822.46 446.69 816.79 454.13 816.84 462.26
  C 816.87 466.67 817.97 471.56 820.70 474.98
  C 822.06 476.68 827.86 478.33 828.97 478.79
  Q 831.34 479.76 832.98 477.44
  C 836.34 472.67 839.64 468.28 843.99 464.45
  C 853.14 456.42 864.58 449.75 876.52 447.30
  Q 880.65 446.45 882.96 447.45
  C 885.65 448.61 888.54 452.65 887.60 455.84
  Q 887.16 457.34 885.54 460.57
  Q 877.73 476.18 864.17 497.19
  Q 863.86 497.66 863.78 498.26
  A 0.72 0.72 0.0 0 0 864.85 498.97
  Q 873.72 493.93 885.09 492.99
  C 892.49 492.38 897.60 494.79 897.64 502.44
  A 5.10 4.86 -39.5 0 1 897.50 503.61
  Q 896.14 508.96 890.61 517.12
  Q 884.36 526.33 872.13 539.64
  Q 871.45 540.39 871.33 541.23
  A 0.90 0.89 -8.5 0 0 872.59 542.16
  C 880.57 538.54 889.03 534.80 897.72 534.84
  C 904.86 534.87 907.70 541.41 905.33 547.44
  Q 904.19 550.34 901.79 553.55
  C 895.51 561.97 888.06 569.82 880.07 576.30
  C 878.78 577.34 877.27 577.19 878.09 579.65
  Q 879.43 583.67 880.87 592.36
  C 881.21 594.40 882.40 596.08 883.92 597.49
  Q 890.31 603.43 894.56 609.47
  A 0.93 0.92 63.6 0 0 895.59 609.82
  C 913.66 604.17 923.08 588.85 923.68 570.24
  C 923.83 565.40 922.62 559.63 921.34 553.31
  Q 918.65 540.09 908.73 508.54
  Q 906.98 502.97 905.02 492.05
  Q 901.58 472.91 908.59 455.06
  C 914.35 440.39 927.68 427.88 941.53 421.02
  C 950.66 416.49 961.86 413.04 971.42 415.86
  C 978.35 417.90 980.42 423.83 974.45 428.88
  C 962.34 439.09 951.73 451.08 948.86 466.52
  C 946.92 476.92 950.21 489.81 954.67 499.34
  Q 957.46 505.28 967.08 524.79
  Q 974.85 540.54 978.10 550.83
  Q 982.57 564.96 984.00 579.88
  Z
  M 897.64 399.66
  C 910.31 391.22 900.55 376.88 892.24 370.29
  Q 867.03 350.29 835.23 346.35
  Q 813.26 343.63 793.76 345.46
  C 771.99 347.50 750.70 354.62 730.68 364.43
  Q 697.98 380.46 675.08 408.82
  C 663.34 423.35 655.09 444.24 657.36 463.46
  C 658.53 473.39 673.13 475.46 680.52 474.73
  Q 693.97 473.42 707.12 467.85
  C 720.99 461.99 735.15 450.58 747.10 439.69
  C 759.52 428.38 774.05 417.82 787.42 411.41
  Q 824.69 393.56 868.02 399.28
  Q 871.37 399.72 884.35 402.09
  Q 891.93 403.48 897.64 399.66
  Z
  M 870.81 412.83
  Q 863.34 410.09 855.39 409.72
  A 0.29 0.29 0.0 0 0 855.09 410.00
  L 854.75 417.70
  A 0.11 0.11 0.0 0 0 854.89 417.81
  L 870.76 413.73
  A 0.47 0.47 0.0 0 0 870.81 412.83
  Z
  M 840.58 422.95
  L 844.85 421.23
  A 2.10 2.09 77.9 0 0 846.16 419.20
  L 845.79 411.00
  A 1.11 1.11 0.0 0 0 844.63 409.94
  L 840.13 410.14
  A 1.18 1.18 0.0 0 0 839.01 411.37
  L 839.51 422.26
  A 0.78 0.78 0.0 0 0 840.58 422.95
  Z
  M 817.66 430.57
  A 0.79 0.79 0.0 0 0 818.78 431.24
  L 828.72 426.50
  A 1.01 1.00 -10.5 0 0 829.29 425.68
  Q 829.81 419.79 828.64 412.93
  A 0.53 0.52 82.4 0 0 828.07 412.49
  L 818.65 413.50
  A 1.86 1.85 -4.3 0 0 816.98 415.43
  L 817.66 430.57
  Z
  M 799.49 439.90
  Q 802.72 438.89 807.06 435.86
  C 808.23 435.04 809.70 434.32 809.69 432.55
  Q 809.67 425.71 807.94 417.17
  A 0.86 0.86 0.0 0 0 806.77 416.54
  L 797.34 420.32
  A 1.47 1.46 72.8 0 0 796.46 422.01
  Q 798.28 429.84 798.86 439.47
  A 0.49 0.48 -10.4 0 0 799.49 439.90
  Z
  M 784.48 450.57
  L 791.90 444.97
  A 4.01 4.00 67.4 0 0 793.45 441.18
  Q 792.31 433.42 786.82 426.76
  A 1.13 1.13 0.0 0 0 785.33 426.53
  L 775.57 432.82
  A 0.89 0.89 0.0 0 0 775.46 434.23
  Q 782.61 440.68 784.26 450.48
  A 0.14 0.14 0.0 0 0 784.48 450.57
  Z
  M 959.78 427.36
  Q 945.99 430.34 933.78 439.84
  A 1.10 1.10 0.0 0 0 933.71 441.52
  Q 937.37 444.88 942.69 446.59
  A 1.15 1.14 -65.3 0 0 944.01 446.10
  Q 950.27 435.81 960.10 428.05
  A 0.39 0.39 0.0 0 0 959.78 427.36
  Z
  M 728.98 473.12
  Q 731.26 474.66 732.31 477.98
  Q 736.89 492.54 730.73 504.85
  C 723.97 518.35 706.56 526.65 691.57 525.68
  Q 687.00 525.38 685.20 524.30
  A 2.03 2.03 0.0 0 0 682.31 525.17
  L 681.35 527.21
  A 2.90 2.90 0.0 0 0 682.41 530.88
  C 693.83 538.26 708.99 534.95 720.53 529.60
  Q 726.65 526.76 730.21 523.71
  C 741.97 513.62 751.07 499.54 754.24 484.08
  C 755.26 479.09 754.85 474.28 754.60 469.19
  A 2.93 2.40 55.3 0 1 754.65 468.57
  L 755.45 464.61
  A 1.01 1.00 -61.9 0 1 757.15 464.09
  Q 763.51 470.48 764.99 480.35
  A 1.58 1.58 0.0 0 0 766.62 481.69
  Q 768.49 481.62 769.78 480.02
  C 774.58 474.05 778.73 465.00 777.79 457.45
  Q 777.38 454.16 774.50 448.45
  Q 771.78 443.07 766.13 440.10
  A 1.46 1.46 0.0 0 0 764.50 440.29
  Q 758.24 445.78 748.69 454.68
  Q 738.23 464.44 726.92 470.79
  A 0.76 0.76 0.0 0 0 726.60 471.77
  Q 726.89 472.40 728.39 472.84
  A 2.41 2.15 -16.3 0 1 728.98 473.12
  Z
  M 777.71 581.79
  Q 786.51 590.88 797.67 584.46
  Q 807.26 578.94 813.98 574.21
  Q 817.03 572.06 820.35 568.59
  Q 822.71 566.12 820.52 563.73
  Q 814.95 557.65 810.46 551.08
  Q 802.08 538.83 799.03 533.81
  Q 795.24 527.56 794.24 523.81
  Q 791.71 514.32 794.31 503.27
  C 796.62 493.46 803.34 486.07 811.13 480.10
  A 0.92 0.91 -34.9 0 0 811.35 478.89
  Q 801.99 464.15 810.13 448.82
  A 0.19 0.18 89.7 0 0 809.88 448.57
  Q 801.95 453.08 795.72 459.60
  Q 792.94 462.51 786.88 473.23
  Q 781.91 482.02 778.40 487.14
  C 775.64 491.18 772.90 492.38 768.61 494.51
  A 0.78 0.76 75.8 0 0 768.19 495.23
  L 768.53 502.70
  A 1.23 1.21 19.6 0 0 768.96 503.58
  Q 776.57 510.09 786.57 513.35
  A 1.08 1.07 -54.5 0 1 786.88 515.23
  C 781.30 519.46 774.02 517.90 767.78 515.20
  A 0.87 0.87 0.0 0 0 766.57 515.90
  L 765.30 527.13
  A 2.21 2.21 0.0 0 0 766.67 529.43
  Q 778.49 534.19 790.75 532.20
  Q 791.79 532.03 792.14 532.29
  A 1.74 1.53 -44.5 0 1 791.95 534.88
  C 786.28 539.29 779.58 540.36 772.36 540.42
  Q 768.08 540.45 765.51 539.07
  A 0.74 0.74 0.0 0 0 764.42 539.80
  L 765.21 547.17
  A 2.84 2.84 0.0 0 0 767.11 549.56
  Q 778.81 553.62 791.50 552.09
  Q 798.52 551.25 802.13 551.05
  A 1.87 1.63 -2.3 0 1 804.10 552.63
  Q 804.11 553.19 803.19 554.23
  C 799.95 557.90 788.65 561.32 784.31 561.61
  Q 775.70 562.19 767.69 558.96
  A 0.38 0.38 0.0 0 0 767.18 559.43
  Q 768.55 563.45 770.18 567.39
  C 773.50 575.45 787.79 572.56 793.96 570.68
  Q 804.97 567.32 809.33 565.66
  A 1.61 1.58 -47.4 0 1 810.30 565.61
  L 813.22 566.34
  A 0.55 0.55 0.0 0 1 813.62 567.01
  Q 813.22 568.52 812.03 569.28
  C 807.08 572.41 799.36 577.25 793.41 578.99
  Q 786.18 581.10 778.08 580.93
  A 0.51 0.51 0.0 0 0 777.71 581.79
  Z
  M 939.62 457.20
  Q 930.96 455.14 926.06 449.04
  A 1.00 1.00 0.0 0 0 924.46 449.09
  Q 915.74 461.42 915.45 474.75
  A 1.90 1.89 -77.9 0 0 916.60 476.54
  Q 926.47 480.78 936.68 478.04
  A 1.12 1.08 3.8 0 0 937.39 477.44
  Q 938.05 476.00 938.02 474.25
  Q 937.87 465.17 939.86 457.60
  A 0.33 0.32 -77.0 0 0 939.62 457.20
  Z
  M 871.36 460.94
  C 861.40 463.15 850.75 473.57 844.42 481.72
  Q 842.97 483.59 842.94 483.63
  Q 842.41 484.48 843.67 485.85
  Q 846.01 488.37 851.00 493.87
  A 0.82 0.81 -50.2 0 0 852.29 493.75
  L 872.02 461.87
  A 0.62 0.62 0.0 0 0 871.36 460.94
  Z
  M 661.93 485.72
  Q 661.60 486.10 661.81 486.99
  Q 662.10 488.30 662.76 490.40
  A 0.40 0.40 0.0 0 0 663.38 490.60
  Q 663.84 490.25 665.24 488.69
  Q 666.64 487.12 666.94 486.63
  A 0.40 0.40 0.0 0 0 666.67 486.04
  Q 664.51 485.61 663.18 485.46
  Q 662.27 485.35 661.93 485.72
  Z
  M 915.07 489.42
  Q 917.17 500.16 921.47 512.64
  Q 921.99 514.16 922.09 514.50
  C 922.95 517.47 926.30 518.16 929.05 518.40
  Q 940.14 519.36 947.76 511.86
  A 1.44 1.43 53.3 0 0 948.01 510.15
  C 944.21 503.22 940.90 496.39 939.56 488.92
  A 0.49 0.49 0.0 0 0 938.90 488.55
  Q 927.66 492.74 915.67 488.89
  A 0.47 0.46 3.4 0 0 915.07 489.42
  Z
  M 856.06 535.33
  A 0.14 0.14 0.0 0 0 856.14 535.16
  C 854.21 529.57 852.62 523.22 850.10 517.60
  C 845.17 506.59 829.38 480.99 813.77 492.81
  C 806.04 498.67 800.89 509.21 803.87 518.89
  Q 805.90 525.50 810.58 531.69
  C 815.89 538.69 821.75 545.38 826.42 552.78
  C 830.44 559.15 835.02 564.73 832.32 571.69
  Q 831.00 575.12 824.03 580.27
  Q 814.06 587.64 805.11 592.09
  C 795.24 596.99 785.35 599.26 775.01 594.65
  C 761.76 588.75 746.80 587.89 733.88 594.91
  A 0.33 0.32 -62.5 0 0 734.07 595.52
  Q 749.79 593.60 763.40 601.04
  Q 764.68 601.74 766.62 603.99
  A 0.96 0.96 0.0 0 1 766.72 605.08
  C 764.55 608.87 759.65 609.25 755.97 610.71
  Q 744.08 615.41 735.91 624.51
  A 0.33 0.33 0.0 0 0 736.29 625.03
  C 744.91 621.15 755.09 617.78 764.25 617.94
  C 766.46 617.98 768.81 618.20 769.96 620.35
  C 771.33 622.91 770.29 625.45 768.36 627.72
  C 763.13 633.87 758.52 643.23 757.93 651.80
  A 0.43 0.43 0.0 0 0 758.39 652.26
  Q 758.90 652.23 759.23 651.71
  C 766.86 639.92 774.68 633.15 788.06 628.63
  Q 791.92 627.33 793.65 625.87
  Q 796.97 623.07 797.73 621.20
  C 799.23 617.53 801.07 611.23 804.79 611.36
  Q 812.27 611.63 818.85 608.87
  Q 837.13 601.20 854.40 589.15
  C 860.65 584.79 864.77 579.21 863.07 571.14
  Q 862.38 567.82 861.73 566.02
  Q 855.05 547.41 847.65 528.58
  Q 847.27 527.62 847.41 525.29
  A 0.42 0.42 0.0 0 1 847.99 524.93
  C 852.70 526.89 853.96 531.66 855.78 535.23
  A 0.22 0.21 -24.7 0 0 856.06 535.33
  Z
  M 886.78 503.65
  A 0.50 0.49 -87.1 0 0 886.21 503.01
  Q 874.82 505.39 863.34 513.91
  A 1.72 1.72 0.0 0 0 862.76 515.93
  L 867.50 527.75
  A 0.56 0.56 0.0 0 0 868.40 527.94
  Q 870.33 526.09 872.52 523.28
  Q 881.03 512.38 885.55 506.29
  Q 886.25 505.35 886.78 503.65
  Z
  M 927.61 532.16
  Q 931.04 543.97 932.27 551.80
  Q 932.59 553.88 934.64 553.89
  C 945.22 553.94 954.75 553.19 963.07 546.21
  A 2.51 2.50 -32.9 0 0 963.72 543.22
  L 953.51 521.81
  A 0.91 0.90 -34.2 0 0 952.07 521.54
  Q 942.07 530.93 928.30 531.22
  A 0.73 0.73 0.0 0 0 927.61 532.16
  Z
  M 896.10 544.75
  Q 891.59 545.59 890.23 546.19
  Q 879.25 551.06 874.66 552.81
  A 0.99 0.98 -13.5 0 0 874.03 553.83
  L 875.03 563.10
  A 0.95 0.95 0.0 0 0 876.53 563.77
  Q 886.76 556.43 895.42 547.20
  Q 896.20 546.38 896.54 545.24
  A 0.39 0.39 0.0 0 0 896.10 544.75
  Z
  M 967.96 556.46
  Q 962.43 560.15 960.08 561.53
  C 952.83 565.79 943.64 565.43 934.82 565.00
  A 0.56 0.55 89.5 0 0 934.24 565.60
  Q 934.75 574.90 933.38 581.68
  A 0.92 0.92 0.0 0 0 933.88 582.68
  C 940.97 586.13 951.45 589.91 959.20 588.64
  C 962.06 588.17 972.97 585.20 972.70 581.07
  Q 971.93 569.25 968.55 556.68
  A 0.39 0.39 0.0 0 0 967.96 556.46
  Z
  M 629.44 588.20
  C 638.72 586.55 646.19 585.42 655.03 589.24
  C 658.08 590.55 663.20 592.52 663.52 596.27
  A 2.70 2.55 -11.5 0 1 661.64 598.95
  Q 649.19 602.88 642.20 612.73
  A 0.45 0.44 1.6 0 0 642.80 613.36
  Q 651.93 607.69 663.01 607.55
  C 674.39 607.39 681.47 608.55 688.74 602.34
  A 7.22 7.21 79.8 0 0 690.83 599.33
  L 693.31 592.51
  A 1.20 1.20 0.0 0 1 695.42 592.22
  L 698.58 596.59
  A 2.14 2.08 -4.1 0 0 699.34 597.23
  Q 700.13 597.57 702.50 597.60
  Q 709.50 597.69 716.64 596.87
  A 3.94 3.93 -71.7 0 0 719.10 595.63
  C 723.49 590.87 728.38 586.72 734.14 584.65
  Q 748.82 579.36 764.27 581.31
  A 0.39 0.39 0.0 0 0 764.64 580.69
  C 760.05 574.36 757.91 566.82 756.21 559.61
  A 0.48 0.48 0.0 0 0 755.29 559.56
  Q 753.83 563.75 751.24 570.30
  C 750.52 572.10 749.48 573.29 747.80 573.81
  Q 742.43 575.48 734.86 576.59
  Q 723.38 578.28 710.50 578.95
  Q 702.56 579.36 695.13 578.41
  Q 689.81 577.73 684.97 574.08
  Q 679.15 569.68 673.70 565.83
  Q 655.57 553.00 634.10 558.81
  A 0.33 0.33 0.0 0 0 633.91 559.31
  Q 633.98 559.42 634.30 559.46
  Q 652.94 561.79 665.84 575.20
  Q 667.66 577.09 668.84 579.89
  A 1.79 1.78 72.5 0 1 667.57 582.33
  Q 666.88 582.48 666.73 582.45
  Q 661.15 581.23 652.51 580.28
  C 645.39 579.50 634.99 584.00 629.25 587.72
  A 0.26 0.26 0.0 0 0 629.44 588.20
  Z
  M 806.56 809.43
  Q 811.48 808.38 820.07 805.81
  Q 822.59 805.06 829.39 801.17
  C 834.47 798.26 844.52 796.03 850.12 799.92
  A 0.81 0.81 0.0 0 1 849.87 801.37
  C 839.48 804.10 830.85 810.34 825.84 819.77
  A 0.50 0.49 4.5 0 0 826.44 820.47
  C 834.65 817.66 845.40 811.34 855.26 810.78
  Q 862.90 810.35 876.75 809.82
  Q 878.72 809.74 882.64 808.67
  C 885.03 808.01 885.69 806.69 884.57 804.41
  Q 881.45 798.05 880.95 797.06
  C 877.96 791.08 878.48 783.89 879.30 777.26
  C 880.70 765.97 882.57 752.73 885.90 740.93
  Q 886.89 737.41 887.23 732.24
  Q 887.48 728.44 884.06 726.91
  Q 871.69 721.38 858.46 714.80
  C 852.90 712.02 841.59 706.32 848.41 698.18
  C 853.63 691.95 859.37 686.34 866.50 679.61
  C 871.17 675.21 875.91 669.93 879.25 665.04
  Q 890.59 648.42 889.27 628.29
  Q 888.55 617.34 881.82 609.60
  A 7.95 7.72 -0.8 0 0 880.74 608.58
  C 877.97 606.46 872.09 602.16 871.13 598.90
  Q 870.08 595.29 869.86 590.97
  Q 869.84 590.59 869.42 589.53
  A 0.30 0.29 -35.7 0 0 868.92 589.45
  Q 862.36 597.17 853.39 602.64
  Q 835.68 613.43 815.25 619.39
  C 813.61 619.86 811.21 619.96 810.03 620.25
  A 3.87 3.86 9.4 0 0 807.71 621.91
  L 803.05 629.20
  A 2.68 2.67 51.3 0 0 802.79 631.57
  Q 807.04 643.20 816.00 652.00
  A 1.27 1.27 0.0 0 0 818.04 651.62
  Q 824.78 636.70 834.68 624.97
  Q 838.78 620.10 843.97 616.85
  A 5.78 5.76 27.6 0 1 846.76 615.98
  L 849.07 615.88
  A 1.28 1.28 0.0 0 1 849.92 618.16
  Q 845.60 621.58 840.80 628.82
  Q 822.43 656.54 814.95 687.50
  Q 813.36 694.07 812.54 701.48
  Q 811.77 708.41 816.62 713.09
  Q 820.06 716.42 823.30 718.45
  Q 839.60 728.67 858.37 735.85
  Q 863.16 737.69 862.18 742.68
  Q 859.22 757.76 853.18 778.92
  C 851.37 785.26 849.18 788.74 842.65 790.42
  C 836.12 792.10 829.70 793.07 824.05 795.45
  Q 813.54 799.86 806.21 808.86
  A 0.35 0.35 0.0 0 0 806.56 809.43
  Z
  M 971.49 596.59
  Q 970.80 596.58 970.52 596.73
  C 962.92 600.81 954.55 603.57 945.79 601.15
  Q 937.15 598.77 930.28 593.14
  A 0.67 0.66 -60.6 0 0 929.23 593.44
  Q 927.25 598.99 923.42 603.50
  A 1.03 1.03 0.0 0 0 923.40 604.80
  Q 928.34 611.01 933.62 615.78
  C 938.83 620.49 950.46 626.58 958.32 625.05
  Q 960.14 624.70 961.48 623.00
  C 967.23 615.73 970.27 605.92 971.92 597.11
  A 0.44 0.44 0.0 0 0 971.49 596.59
  Z
  M 949.25 636.92
  Q 943.18 635.78 937.05 632.98
  C 927.57 628.64 922.19 620.98 916.68 612.21
  A 1.18 1.18 0.0 0 0 914.94 611.92
  Q 909.66 616.16 903.05 618.70
  A 0.76 0.76 0.0 0 0 902.60 619.65
  C 905.75 628.84 909.86 637.90 915.81 645.42
  C 919.50 650.07 926.47 654.71 932.21 650.97
  Q 941.71 644.79 949.46 637.67
  A 0.44 0.43 -60.9 0 0 949.25 636.92
  Z
  M 719.32 812.19
  Q 719.95 812.23 720.50 812.01
  C 731.25 807.80 741.67 803.81 752.75 803.53
  Q 764.68 803.24 768.18 802.91
  Q 770.87 802.66 772.86 801.71
  A 1.90 1.86 -84.3 0 0 773.60 801.09
  C 775.20 798.85 775.09 792.92 775.26 791.25
  C 776.19 782.36 778.87 775.15 783.40 766.65
  Q 789.79 754.66 794.26 745.76
  C 796.09 742.12 798.09 737.29 795.02 733.96
  Q 789.43 727.90 776.85 712.55
  Q 775.09 710.41 769.68 706.72
  Q 764.93 703.47 763.98 701.65
  C 759.73 693.50 768.34 689.11 774.16 685.41
  Q 792.16 673.97 809.03 662.32
  A 1.01 1.01 0.0 0 0 809.20 660.82
  Q 800.42 650.97 794.58 639.85
  A 1.66 1.65 67.6 0 0 792.63 639.03
  Q 779.64 642.97 772.35 650.37
  C 768.74 654.03 766.61 658.58 762.87 661.85
  C 760.31 664.09 757.75 665.71 754.99 663.03
  A 0.95 0.95 0.0 0 0 753.64 663.06
  C 746.56 670.40 739.88 678.05 734.62 687.61
  Q 731.83 692.70 731.60 694.85
  C 730.45 705.63 758.09 726.61 766.15 732.64
  Q 768.64 734.50 769.73 738.56
  C 770.70 742.15 767.93 747.66 766.22 750.98
  Q 759.12 764.78 752.30 775.29
  C 748.77 780.73 745.05 784.78 738.44 785.67
  Q 731.57 786.60 729.47 786.77
  C 718.99 787.66 711.20 791.30 704.04 799.40
  A 0.44 0.43 -72.3 0 0 704.41 800.12
  L 715.03 798.98
  A 4.68 4.67 -62.6 0 0 716.85 798.40
  C 725.28 793.63 732.68 790.34 742.10 792.40
  Q 742.43 792.47 742.95 792.79
  A 0.65 0.65 0.0 0 1 742.89 793.93
  C 739.44 795.60 734.29 797.23 730.78 799.59
  Q 723.76 804.31 719.09 811.76
  A 0.29 0.28 17.5 0 0 719.32 812.19
  Z
  M 899.97 639.37
  Q 898.96 650.97 894.02 663.05
  A 0.60 0.60 0.0 0 0 894.73 663.86
  L 911.87 659.46
  A 0.81 0.80 60.2 0 0 912.23 658.11
  C 906.96 652.88 903.69 646.29 900.82 639.24
  A 0.44 0.44 0.0 0 0 899.97 639.37
  Z"
/>
</g>
<g fill="var(--art-astronaut-primary)">
<path d="
  M 154.36 165.71
  A 0.17 0.16 66.3 0 1 154.06 165.59
  Q 157.80 138.32 175.38 116.59
  C 196.46 90.55 226.22 76.23 259.84 76.17
  C 296.08 76.11 327.09 91.19 348.17 120.19
  A 0.21 0.21 0.0 0 1 347.87 120.48
  C 346.23 119.29 344.38 117.67 342.51 116.74
  Q 317.93 104.55 289.23 108.28
  C 246.78 113.81 216.07 146.69 218.95 190.49
  C 220.50 214.13 233.12 234.19 253.59 246.60
  C 273.68 258.78 296.76 264.14 319.51 257.44
  A 0.31 0.30 -19.0 0 1 319.89 257.62
  L 319.90 257.64
  A 0.39 0.38 68.6 0 1 319.69 258.13
  Q 307.02 263.63 304.57 264.35
  Q 288.62 269.03 272.00 268.04
  C 249.15 266.69 226.72 260.72 205.76 251.45
  Q 196.27 247.25 172.91 235.60
  Q 169.79 234.05 168.73 232.45
  Q 163.93 225.24 160.18 217.15
  A 0.26 0.26 0.0 0 1 160.57 216.84
  Q 169.64 224.26 180.58 220.89
  C 190.21 217.91 195.94 208.35 198.00 198.70
  Q 200.27 188.07 197.94 177.30
  C 195.52 166.16 186.79 155.17 174.99 154.56
  C 165.52 154.08 159.59 158.13 154.36 165.71
  Z"
/>
<path d="
  M 408.57 196.64
  A 0.47 0.46 -66.0 0 1 408.30 195.93
  Q 411.56 191.06 416.84 188.72
  A 5.51 5.48 45.5 0 1 421.39 188.77
  L 425.68 190.79
  A 1.22 1.21 39.0 0 1 425.90 192.86
  L 418.31 198.59
  A 1.28 1.27 -56.2 0 1 417.23 198.81
  L 408.57 196.64
  Z"
/>
<path d="
  M 426.62 206.04
  A 0.32 0.31 48.2 0 1 426.64 205.56
  L 435.38 199.14
  A 2.23 2.19 34.4 0 1 437.28 198.80
  Q 441.74 200.05 444.46 203.52
  C 449.41 209.84 451.43 216.41 450.69 224.66
  C 449.53 237.54 442.31 250.62 433.00 259.51
  Q 420.96 271.00 404.25 269.85
  Q 392.41 269.03 387.95 257.65
  A 3.75 3.72 34.5 0 1 387.71 256.39
  Q 387.68 252.36 387.80 247.21
  C 387.96 240.58 385.72 237.24 379.96 234.48
  A 1.68 1.68 0.0 0 1 379.04 232.59
  C 380.76 224.99 387.62 219.55 395.32 223.95
  C 400.76 227.06 405.38 232.89 409.22 237.45
  C 411.34 239.95 414.45 238.70 415.63 235.79
  A 1.64 1.61 49.6 0 0 415.70 234.78
  C 412.99 224.81 402.83 216.37 393.66 212.96
  A 0.32 0.31 24.8 0 1 393.49 212.51
  Q 398.06 204.01 407.68 206.39
  Q 420.48 209.55 427.50 220.70
  C 428.90 222.94 432.34 222.57 433.73 220.20
  C 435.83 216.64 428.98 208.16 426.62 206.04
  Z"
/>
<path d="
  M 117.86 364.51
  Q 100.21 356.32 86.88 342.12
  Q 79.65 334.43 79.03 323.75
  Q 78.31 311.36 82.54 300.29
  C 92.26 274.86 113.44 252.03 139.44 243.44
  C 150.04 239.94 160.58 240.39 168.22 249.30
  C 177.97 260.66 180.91 276.92 179.35 291.58
  C 178.27 301.69 175.92 310.08 172.98 319.31
  A 0.43 0.43 0.0 0 1 172.35 319.54
  L 160.27 312.06
  A 0.31 0.31 0.0 0 1 160.20 311.60
  Q 167.92 302.31 172.43 291.69
  Q 173.20 289.87 173.36 286.22
  A 1.66 1.65 27.3 0 0 173.02 285.16
  Q 171.54 283.24 169.73 282.82
  A 3.52 2.85 -63.5 0 0 166.50 284.29
  Q 164.02 287.74 151.39 307.03
  A 1.42 1.41 -59.8 0 1 149.56 307.52
  C 141.29 303.27 134.48 300.05 125.79 299.43
  Q 120.98 299.08 118.09 301.72
  C 115.73 303.88 116.00 307.26 119.42 308.12
  Q 134.02 311.80 146.12 316.67
  A 0.47 0.47 0.0 0 1 146.21 317.50
  Q 121.39 334.09 118.53 364.13
  A 0.47 0.47 0.0 0 1 117.86 364.51
  Z"
/>
<path d="
  M 212.49 268.01
  Q 234.87 276.51 259.68 279.57
  Q 267.82 280.58 275.43 280.56
  Q 284.90 280.54 291.11 280.05
  A 0.22 0.21 86.2 0 1 291.34 280.26
  L 291.84 291.35
  A 1.48 1.47 70.0 0 1 291.26 292.60
  L 277.70 302.84
  A 3.72 3.71 33.1 0 1 274.59 303.49
  Q 254.85 298.69 231.96 295.52
  Q 223.75 294.38 219.95 302.16
  A 1.20 1.10 -28.5 0 0 219.85 302.45
  L 213.34 328.41
  A 1.02 1.02 0.0 0 1 212.17 329.17
  L 205.68 328.01
  A 0.62 0.62 0.0 0 1 205.21 327.18
  Q 211.95 308.58 213.26 291.53
  Q 214.16 279.78 211.96 268.46
  A 0.40 0.40 0.0 0 1 212.49 268.01
  Z"
/>
<path d="
  M 425.08 276.96
  A 0.31 0.31 0.0 0 1 425.50 277.32
  Q 422.86 287.73 417.73 297.22
  Q 416.30 299.86 415.72 300.33
  A 3.04 3.03 -72.8 0 1 414.72 300.86
  Q 411.43 301.85 408.78 301.81
  C 394.32 301.58 373.86 293.66 370.82 277.40
  A 1.36 1.35 -24.0 0 1 371.34 276.06
  L 380.45 269.18
  A 1.18 1.18 0.0 0 1 382.09 269.38
  C 392.57 282.37 410.81 283.40 425.08 276.96
  Z"
/>
<path d="
  M 360.57 283.98
  A 0.67 0.66 63.2 0 1 361.59 284.32
  C 363.77 291.45 369.11 297.52 375.39 301.87
  C 383.94 307.81 395.68 312.79 406.32 312.33
  A 0.43 0.43 0.0 0 1 406.67 313.04
  C 392.51 329.98 371.88 339.49 349.47 337.58
  Q 332.59 336.15 315.41 331.91
  A 0.58 0.58 0.0 0 1 314.98 331.23
  L 318.18 315.55
  A 1.31 1.31 0.0 0 1 318.69 314.75
  L 360.57 283.98
  Z"
/>
<path d="
  M 234.34 335.44
  L 223.31 331.42
  A 0.33 0.33 0.0 0 1 223.10 331.01
  L 230.37 305.59
  A 0.33 0.33 0.0 0 1 230.74 305.35
  L 265.27 311.57
  A 0.33 0.33 0.0 0 1 265.41 312.15
  L 234.65 335.39
  A 0.33 0.33 0.0 0 1 234.34 335.44
  Z"
/>
<path d="
  M 216.12 395.27
  A 0.46 0.46 0.0 0 1 215.50 394.82
  Q 216.00 384.52 210.89 376.39
  C 209.79 374.64 208.32 372.35 205.93 371.97
  C 202.30 371.41 200.24 375.59 202.15 378.33
  C 207.76 386.40 207.60 396.31 200.68 403.33
  C 198.13 405.93 191.21 409.05 188.99 404.53
  A 2.02 1.94 -58.7 0 1 188.80 403.68
  C 188.79 396.25 189.75 387.85 182.82 385.06
  Q 181.27 384.44 176.67 384.80
  Q 170.97 385.25 167.46 385.04
  Q 162.70 384.76 161.69 379.83
  C 159.98 371.51 166.80 360.08 172.07 353.94
  Q 186.89 336.67 209.26 339.63
  Q 214.50 340.32 224.62 343.17
  Q 233.62 345.69 238.98 353.15
  Q 245.30 361.95 240.95 371.63
  A 3.67 3.66 9.0 0 1 237.98 373.78
  L 234.91 374.11
  A 0.48 0.48 0.0 0 1 234.38 373.71
  Q 233.54 368.13 230.69 363.05
  Q 228.94 359.93 227.99 359.17
  A 2.42 2.41 71.7 0 0 227.12 358.73
  C 221.23 357.13 220.35 362.18 222.19 366.39
  C 225.69 374.42 227.00 382.65 222.63 389.80
  C 220.88 392.67 219.13 394.15 216.12 395.27
  Z"
/>
<path d="
  M 279.37 344.58
  A 0.34 0.34 0.0 0 1 279.57 345.05
  Q 276.84 350.54 271.74 359.55
  C 269.18 364.07 267.82 367.59 266.60 372.49
  A 2.50 2.49 -85.8 0 1 264.44 374.36
  L 252.46 375.64
  A 0.61 0.60 -79.5 0 1 251.86 374.76
  Q 254.76 369.16 254.16 363.03
  A 1.27 1.27 0.0 0 1 254.78 361.81
  C 260.67 358.40 266.71 353.53 278.71 344.72
  Q 279.04 344.48 279.37 344.58
  Z"
/>
<path d="
  M 204.56 452.73
  Q 211.68 448.40 218.92 443.92
  C 221.36 442.41 226.74 437.32 223.92 434.29
  C 221.94 432.17 219.26 433.21 217.00 434.61
  Q 202.04 443.82 186.05 449.10
  A 0.36 0.36 0.0 0 1 185.61 448.63
  C 187.25 444.57 186.57 438.74 180.71 439.37
  A 1.67 1.66 -67.4 0 0 179.82 439.74
  Q 177.43 441.73 176.86 443.16
  Q 170.99 458.06 165.32 470.58
  A 1.62 1.61 -84.2 0 1 164.22 471.48
  Q 162.27 471.92 159.82 472.09
  Q 142.85 473.22 126.82 469.18
  Q 123.47 468.33 117.00 466.29
  C 113.07 465.04 110.37 465.30 108.41 468.70
  C 106.03 472.82 103.39 478.58 100.18 484.13
  Q 92.78 496.89 88.88 504.13
  C 87.17 507.32 87.05 508.94 89.57 511.62
  Q 93.02 515.29 101.36 520.43
  Q 112.85 527.52 124.47 528.15
  A 0.37 0.37 0.0 0 1 124.70 528.79
  L 110.33 541.88
  A 0.81 0.81 0.0 0 1 109.53 542.05
  Q 96.87 537.83 85.05 529.97
  C 72.61 521.71 64.36 508.77 60.00 494.61
  A 1.62 1.60 -47.6 0 1 59.97 493.84
  Q 60.28 492.27 61.87 490.37
  Q 72.58 477.58 74.47 475.22
  C 78.80 469.81 80.92 465.83 82.74 459.04
  Q 93.09 420.34 100.80 390.58
  A 0.52 0.51 17.3 0 1 101.48 390.23
  Q 107.88 392.65 112.32 393.68
  C 119.48 395.34 126.87 392.67 128.30 384.73
  A 0.28 0.28 0.0 0 1 128.70 384.53
  Q 138.67 389.32 149.68 391.74
  A 0.40 0.40 0.0 0 1 149.81 392.47
  Q 140.15 398.75 130.98 404.96
  Q 130.15 405.53 127.63 407.88
  C 118.60 416.32 121.35 428.56 130.03 435.99
  Q 133.89 439.29 139.67 438.86
  Q 143.07 438.60 148.89 434.48
  Q 152.37 432.02 181.40 413.35
  A 0.86 0.85 -42.8 0 1 182.37 413.38
  C 186.64 416.50 191.26 417.80 196.75 416.44
  Q 204.76 414.45 210.06 407.94
  A 1.37 1.35 17.8 0 1 211.05 407.44
  L 214.42 407.29
  A 1.39 1.39 0.0 0 1 215.54 407.78
  Q 218.78 411.55 223.25 412.33
  Q 233.48 414.11 243.90 411.89
  Q 246.64 411.31 248.09 409.11
  A 1.62 1.60 17.7 0 1 249.51 408.39
  Q 256.44 408.65 263.59 406.26
  Q 270.42 403.97 273.12 397.30
  Q 275.90 390.43 278.05 384.45
  A 1.04 1.03 4.4 0 1 278.84 383.78
  Q 296.68 380.47 313.94 381.33
  C 329.35 382.11 344.14 391.69 346.72 407.76
  Q 348.08 416.27 347.35 423.04
  Q 345.58 439.48 339.96 456.45
  A 0.52 0.51 -75.8 0 1 339.38 456.80
  Q 305.02 450.69 271.36 462.23
  A 0.24 0.23 -87.5 0 1 271.07 461.91
  Q 276.93 447.74 284.86 435.80
  C 286.91 432.72 289.77 429.68 292.81 425.79
  A 2.16 2.15 -16.4 0 0 293.16 425.15
  Q 294.35 421.73 292.06 419.97
  C 287.82 416.71 278.33 428.59 276.37 431.37
  Q 271.51 438.24 268.11 445.25
  A 0.46 0.46 0.0 0 1 267.24 445.08
  Q 265.93 427.60 265.27 422.27
  C 264.77 418.16 260.45 416.42 257.96 420.03
  C 252.99 427.23 254.16 440.21 256.42 448.48
  A 0.58 0.58 0.0 0 1 255.98 449.21
  Q 244.35 451.80 233.77 452.70
  C 224.70 453.47 214.31 452.79 204.70 453.19
  A 0.25 0.25 0.0 0 1 204.56 452.73
  Z"
/>
</g>
<g fill="var(--art-astronaut-secondary)">
<path d="
  M 628.92 120.15
  Q 633.16 119.60 637.03 118.77
  Q 653.89 115.16 675.88 108.91
  A 1.96 1.95 74.9 0 1 678.31 110.31
  L 679.34 114.32
  A 1.92 1.91 -18.6 0 1 678.22 116.57
  Q 667.27 121.13 654.43 124.41
  Q 624.05 132.17 616.54 134.02
  C 594.47 139.44 575.37 143.87 554.78 145.57
  A 0.90 0.90 0.0 0 1 553.87 144.98
  C 549.56 132.65 541.74 122.45 533.38 112.42
  C 532.02 110.80 533.64 109.03 534.90 107.35
  Q 558.34 76.22 592.51 33.51
  Q 602.47 21.06 608.00 14.84
  A 1.20 1.19 -52.3 0 1 609.55 14.64
  L 621.58 22.67
  A 1.26 1.25 38.6 0 1 621.80 24.58
  Q 606.40 40.72 589.64 60.14
  Q 587.00 63.19 585.49 65.54
  A 0.97 0.97 0.0 0 0 586.76 66.92
  Q 590.60 64.91 594.14 62.14
  Q 622.95 39.55 629.57 34.35
  A 0.81 0.81 0.0 0 1 630.60 34.38
  Q 636.93 39.87 641.52 46.08
  A 0.74 0.73 53.1 0 1 641.38 47.11
  C 633.29 53.36 621.83 62.45 611.95 69.66
  Q 591.32 84.72 573.78 101.11
  A 0.66 0.66 0.0 0 0 574.32 102.24
  C 577.27 101.83 580.44 99.53 585.65 96.53
  Q 590.31 93.85 593.92 91.53
  Q 617.21 76.57 641.53 61.55
  Q 643.59 60.28 646.99 57.68
  A 0.88 0.88 0.0 0 1 648.14 57.76
  Q 654.90 64.49 660.05 73.17
  A 0.92 0.92 0.0 0 1 659.77 74.40
  Q 654.12 78.17 646.01 82.75
  Q 640.95 85.61 607.58 104.59
  Q 595.42 111.50 588.93 116.45
  Q 587.91 117.23 587.19 117.95
  A 0.54 0.54 0.0 0 0 587.69 118.86
  Q 592.99 117.67 598.24 115.47
  C 617.76 107.31 643.37 96.26 665.25 85.01
  A 1.27 1.25 62.2 0 1 666.93 85.54
  Q 670.10 91.51 671.71 97.97
  A 0.92 0.92 0.0 0 1 671.13 99.05
  Q 652.51 105.82 635.03 115.02
  Q 631.32 116.98 628.63 119.56
  A 0.35 0.34 19.2 0 0 628.92 120.15
  Z"
/>
<path d="
  M 505.90 127.60
  Q 505.70 124.33 507.54 121.56
  C 509.84 118.09 515.22 114.17 519.36 116.88
  Q 523.04 119.28 527.68 124.59
  Q 536.72 134.95 542.37 146.59
  C 546.21 154.53 537.17 160.43 530.60 160.60
  Q 528.75 160.65 527.85 158.43
  Q 523.29 147.11 516.27 137.00
  Q 512.53 131.61 506.86 129.00
  A 1.67 1.65 10.9 0 1 505.90 127.60
  Z"
/>
<path d="
  M 508.27 144.42
  L 513.49 152.51
  A 0.94 0.94 0.0 0 1 513.26 153.77
  L 454.39 197.02
  A 0.94 0.94 0.0 0 1 453.21 196.97
  L 445.26 189.99
  A 0.94 0.94 0.0 0 1 445.33 188.52
  L 506.93 144.17
  A 0.94 0.94 0.0 0 1 508.27 144.42
  Z"
/>
<ellipse cx="0.00" cy="0.00" transform="translate(173.44,188.14) rotate(-92.9)" rx="22.68" ry="14.12"/>
<path d="
  M 125.88 210.75
  Q 136.05 210.27 144.98 212.02
  A 2.67 2.64 87.4 0 1 147.02 213.90
  Q 149.33 222.01 153.01 229.02
  A 0.29 0.29 0.0 0 1 152.78 229.44
  L 138.69 230.95
  A 0.51 0.50 82.9 0 1 138.14 230.52
  C 137.75 227.64 137.65 226.01 136.61 223.89
  C 134.14 218.83 130.35 214.87 125.69 211.35
  A 0.34 0.33 -27.5 0 1 125.88 210.75
  Z"
/>
<path d="
  M 71.47 299.22
  A 0.31 0.30 -71.5 0 1 71.10 299.41
  L 71.09 299.41
  A 0.17 0.17 0.0 0 1 70.98 299.21
  Q 78.36 268.70 88.18 237.45
  C 91.18 227.90 95.08 221.39 103.42 215.90
  Q 108.47 212.56 113.46 213.83
  Q 117.51 214.87 121.26 216.61
  C 127.35 219.45 130.38 225.64 131.87 232.01
  A 1.54 1.54 0.0 0 1 130.92 233.79
  Q 118.09 238.66 107.04 248.07
  Q 82.73 268.78 71.47 299.22
  Z"
/>
<path d="
  M 243.84 341.64
  Q 284.94 310.79 314.34 288.84
  Q 352.55 260.32 373.79 245.04
  Q 374.81 244.31 375.68 244.55
  A 2.62 2.62 0.0 0 1 377.60 246.92
  Q 377.84 250.74 377.53 255.78
  A 1.93 1.92 -16.6 0 1 376.74 257.23
  C 368.76 263.03 360.28 270.07 351.09 276.94
  Q 308.15 309.06 285.50 325.82
  C 274.79 333.75 262.10 343.71 250.77 351.81
  A 0.60 0.60 0.0 0 1 249.86 351.53
  Q 248.00 346.48 243.79 342.62
  A 0.64 0.64 0.0 0 1 243.84 341.64
  Z"
/>
<path d="
  M 181.80 326.23
  Q 181.99 325.42 183.80 319.39
  Q 190.50 297.13 188.88 275.36
  Q 188.12 265.11 183.99 256.32
  A 0.36 0.36 0.0 0 1 184.47 255.84
  L 198.74 262.56
  A 3.63 3.61 -85.4 0 1 200.68 264.85
  C 203.41 274.57 204.16 283.83 203.00 294.17
  Q 201.22 309.94 195.46 324.93
  A 1.67 1.65 -80.7 0 1 193.99 326.00
  L 182.05 326.53
  A 0.24 0.24 0.0 0 1 181.80 326.23
  Z"
/>
<path d="
  M 314.02 273.75
  L 313.76 275.98
  A 0.50 0.50 0.0 0 1 313.56 276.33
  L 301.53 284.99
  A 0.50 0.50 0.0 0 1 300.74 284.61
  L 300.48 278.74
  A 0.50 0.50 0.0 0 1 300.79 278.26
  L 313.33 273.23
  A 0.50 0.50 0.0 0 1 314.02 273.75
  Z"
/>
<path d="
  M 68.08 311.35
  A 0.35 0.34 -73.5 0 1 68.50 311.12
  L 68.51 311.12
  A 0.23 0.23 0.0 0 1 68.67 311.39
  C 65.80 323.29 68.01 334.42 73.68 344.82
  C 77.25 351.37 83.10 356.26 89.38 361.12
  A 2.43 2.43 0.0 0 1 90.15 363.91
  Q 87.43 370.99 86.20 375.45
  C 85.13 379.37 85.21 384.04 89.70 385.82
  A 0.66 0.64 14.7 0 1 90.11 386.50
  Q 89.91 388.31 88.87 388.91
  A 1.53 1.52 37.1 0 1 87.77 389.06
  Q 76.62 386.34 67.62 379.82
  C 53.20 369.38 55.65 355.51 60.37 340.19
  Q 61.47 336.59 63.23 329.13
  Q 65.23 320.64 68.08 311.35
  Z"
/>
<path d="
  M 150.15 380.39
  A 0.23 0.23 0.0 0 1 149.85 380.60
  Q 139.97 377.52 131.44 373.35
  C 129.69 372.50 128.97 371.29 128.96 369.23
  Q 128.91 362.03 129.29 359.01
  C 131.24 343.40 142.03 331.06 155.00 323.02
  A 1.69 1.69 0.0 0 1 156.84 323.05
  L 175.41 335.43
  A 0.09 0.09 0.0 0 1 175.42 335.57
  C 162.03 347.62 150.75 362.22 150.15 380.39
  Z"
/>
<path d="
  M 306.40 324.37
  Q 306.17 325.71 301.71 338.94
  Q 298.44 348.61 295.76 352.98
  Q 289.00 363.97 277.34 370.86
  A 0.22 0.22 0.0 0 1 277.03 370.57
  C 282.71 359.47 288.85 346.93 292.13 335.17
  A 1.97 1.97 0.0 0 1 292.84 334.13
  L 306.05 324.15
  A 0.22 0.22 0.0 0 1 306.40 324.37
  Z"
/>
<path d="
  M 97.37 375.92
  L 100.14 368.32
  A 0.30 0.30 0.0 0 1 100.57 368.16
  L 117.34 377.77
  A 2.00 1.99 -47.8 0 1 117.50 381.13
  L 117.31 381.26
  A 5.20 5.20 0.0 0 1 112.50 381.92
  L 97.65 376.51
  A 0.46 0.46 0.0 0 1 97.37 375.92
  Z"
/>
<path d="
  M 252.61 399.72
  A 0.34 0.33 -89.4 0 1 252.23 399.33
  L 254.64 385.93
  A 1.32 1.32 0.0 0 1 255.79 384.86
  L 268.29 383.53
  A 0.57 0.57 0.0 0 1 268.90 384.26
  C 267.48 388.98 263.24 396.88 258.02 398.50
  Q 255.61 399.25 252.61 399.72
  Z"
/>
<path d="
  M 225.66 402.94
  A 0.43 0.43 0.0 0 1 225.50 402.18
  Q 233.63 395.82 235.14 385.61
  A 0.81 0.80 88.5 0 1 235.78 384.93
  Q 240.56 383.92 245.98 385.09
  A 0.71 0.70 -80.7 0 1 246.53 385.87
  Q 245.29 395.14 241.83 400.04
  C 239.17 403.80 229.46 403.87 225.66 402.94
  Z"
/>
<path d="
  M 139.15 427.42
  A 2.75 2.74 61.2 0 1 135.97 426.49
  C 134.08 423.92 132.48 419.32 134.95 416.67
  Q 138.04 413.35 141.57 410.82
  Q 145.92 407.70 162.90 396.80
  A 2.89 2.87 -57.0 0 1 164.85 396.38
  Q 171.36 397.28 177.89 395.64
  A 0.66 0.65 -8.6 0 1 178.70 396.23
  C 178.92 399.10 178.95 400.36 176.17 402.19
  Q 164.21 410.06 141.19 426.18
  Q 139.75 427.19 139.15 427.42
  Z"
/>
<path d="
  M 256.22 534.92
  A 0.55 0.54 -87.1 0 1 255.68 534.32
  Q 258.53 505.04 267.36 476.59
  A 2.94 2.92 88.6 0 1 269.13 474.72
  Q 295.59 464.74 324.00 465.99
  Q 326.71 466.10 336.39 466.52
  A 0.53 0.53 0.0 0 1 336.87 467.20
  Q 333.40 478.76 329.10 488.12
  A 1.69 1.69 0.0 0 1 327.65 489.10
  C 315.05 489.72 303.83 491.36 293.49 498.45
  Q 290.27 500.65 288.49 503.52
  A 1.24 1.24 0.0 0 0 289.31 505.39
  Q 290.65 505.65 292.54 505.02
  Q 311.82 498.54 330.22 499.17
  Q 342.30 499.59 351.68 503.60
  C 357.02 505.89 363.47 512.57 364.16 518.88
  A 0.50 0.49 -87.1 0 1 363.57 519.42
  C 360.07 518.73 356.45 517.83 352.63 517.59
  Q 340.40 516.80 327.77 519.09
  Q 290.89 525.78 257.88 534.67
  Q 256.94 534.92 256.22 534.92
  Z"
/>
<path d="
  M 159.57 480.91
  A 0.30 0.29 -74.2 0 1 159.81 481.35
  Q 153.10 493.25 146.31 503.29
  Q 139.08 513.99 133.64 519.40
  Q 132.45 520.58 129.47 520.57
  Q 110.46 520.48 97.05 507.38
  A 1.03 1.03 0.0 0 1 96.97 505.99
  Q 98.93 503.58 100.42 501.18
  Q 108.29 488.52 114.43 475.09
  A 1.07 1.06 21.7 0 1 115.74 474.53
  Q 133.28 480.51 150.77 481.16
  C 153.50 481.26 156.77 480.79 159.57 480.91
  Z"
/>
<path d="
  M 90.70 585.62
  A 0.34 0.34 0.0 0 1 90.27 586.03
  Q 77.95 582.25 65.13 584.41
  Q 63.34 584.71 61.41 585.77
  A 2.38 2.12 -26.9 0 0 60.30 588.60
  Q 61.53 591.36 65.06 591.20
  Q 76.03 590.70 83.50 592.28
  Q 87.95 593.22 90.39 594.64
  C 91.90 595.51 91.78 597.17 91.95 598.72
  Q 92.87 607.49 90.54 615.05
  C 89.56 618.25 86.90 623.64 82.82 623.36
  C 76.44 622.94 68.11 620.60 62.29 616.55
  C 51.94 609.35 45.85 600.38 39.77 589.46
  Q 32.56 576.53 25.71 561.06
  Q 20.72 549.78 19.85 537.36
  A 2.60 2.57 69.1 0 1 20.82 535.16
  Q 26.38 530.73 33.78 523.53
  Q 43.98 513.60 51.78 502.85
  A 0.74 0.73 41.3 0 1 52.91 502.78
  Q 53.32 503.20 53.46 503.59
  C 61.09 525.19 78.22 542.17 100.63 548.47
  A 0.48 0.48 0.0 0 1 100.79 549.32
  Q 95.45 553.34 91.46 555.91
  C 81.35 562.43 72.39 561.09 62.14 556.18
  A 1.74 1.70 -31.7 0 0 61.33 556.00
  C 57.72 556.03 56.94 559.82 59.33 561.70
  C 66.91 567.65 75.78 572.74 85.67 570.69
  A 1.22 1.21 -13.1 0 1 87.09 571.57
  L 90.70 585.62
  Z"
/>
<path d="
  M 360.73 535.51
  Q 357.69 533.98 352.75 534.30
  Q 339.55 535.17 325.02 537.32
  Q 298.08 541.32 282.69 544.96
  Q 272.50 547.38 256.47 552.98
  A 2.06 2.05 -10.9 0 1 253.74 551.13
  L 253.53 546.59
  A 3.30 3.30 0.0 0 1 255.93 543.26
  C 281.36 536.10 306.19 529.91 331.18 526.19
  Q 343.17 524.41 357.74 525.27
  Q 359.65 525.39 362.51 526.43
  A 2.28 2.26 15.3 0 1 363.97 528.96
  L 363.00 534.38
  A 1.58 1.58 0.0 0 1 360.73 535.51
  Z"
/>
<path d="
  M 74.30 629.34
  A 0.46 0.46 0.0 0 1 74.28 630.23
  C 61.01 633.83 47.37 621.66 40.11 612.00
  C 27.71 595.53 17.16 575.21 12.35 554.43
  C 11.57 551.03 10.36 545.31 13.09 542.79
  A 0.53 0.53 0.0 0 1 13.97 543.08
  Q 17.07 558.89 24.06 573.52
  C 32.14 590.41 40.73 607.91 55.73 620.03
  C 61.42 624.62 67.69 627.32 74.30 629.34
  Z"
/>
</g>
<g fill="var(--art-astronaut-accent)">
<path d="
  M 232.05 169.26
  C 237.09 146.99 254.15 130.61 275.46 123.71
  C 295.23 117.32 319.56 118.01 338.25 128.04
  C 348.49 133.54 359.10 140.72 362.54 152.68
  Q 365.50 162.97 365.39 176.06
  Q 365.13 205.60 348.62 229.83
  Q 342.23 239.20 331.94 242.96
  Q 297.26 255.63 264.93 238.83
  Q 252.54 232.39 244.18 222.17
  Q 225.30 199.11 232.05 169.26
  Z"
/>
</g>
<g fill="var(--art-alien-secondary)">
<path d="
  M 892.24 370.29
  C 900.55 376.88 910.31 391.22 897.64 399.66
  Q 891.93 403.48 884.35 402.09
  Q 871.37 399.72 868.02 399.28
  Q 824.69 393.56 787.42 411.41
  C 774.05 417.82 759.52 428.38 747.10 439.69
  C 735.15 450.58 720.99 461.99 707.12 467.85
  Q 693.97 473.42 680.52 474.73
  C 673.13 475.46 658.53 473.39 657.36 463.46
  C 655.09 444.24 663.34 423.35 675.08 408.82
  Q 697.98 380.46 730.68 364.43
  C 750.70 354.62 771.99 347.50 793.76 345.46
  Q 813.26 343.63 835.23 346.35
  Q 867.03 350.29 892.24 370.29
  Z"
/>
<path d="
  M 870.81 412.83
  A 0.47 0.47 0.0 0 1 870.76 413.73
  L 854.89 417.81
  A 0.11 0.11 0.0 0 1 854.75 417.70
  L 855.09 410.00
  A 0.29 0.29 0.0 0 1 855.39 409.72
  Q 863.34 410.09 870.81 412.83
  Z"
/>
<path d="
  M 840.58 422.95
  A 0.78 0.78 0.0 0 1 839.51 422.26
  L 839.01 411.37
  A 1.18 1.18 0.0 0 1 840.13 410.14
  L 844.63 409.94
  A 1.11 1.11 0.0 0 1 845.79 411.00
  L 846.16 419.20
  A 2.10 2.09 77.9 0 1 844.85 421.23
  L 840.58 422.95
  Z"
/>
<path d="
  M 817.66 430.57
  L 816.98 415.43
  A 1.86 1.85 -4.3 0 1 818.65 413.50
  L 828.07 412.49
  A 0.53 0.52 82.4 0 1 828.64 412.93
  Q 829.81 419.79 829.29 425.68
  A 1.01 1.00 -10.5 0 1 828.72 426.50
  L 818.78 431.24
  A 0.79 0.79 0.0 0 1 817.66 430.57
  Z"
/>
<path d="
  M 799.49 439.90
  A 0.49 0.48 -10.4 0 1 798.86 439.47
  Q 798.28 429.84 796.46 422.01
  A 1.47 1.46 72.8 0 1 797.34 420.32
  L 806.77 416.54
  A 0.86 0.86 0.0 0 1 807.94 417.17
  Q 809.67 425.71 809.69 432.55
  C 809.70 434.32 808.23 435.04 807.06 435.86
  Q 802.72 438.89 799.49 439.90
  Z"
/>
<path d="
  M 784.48 450.57
  A 0.14 0.14 0.0 0 1 784.26 450.48
  Q 782.61 440.68 775.46 434.23
  A 0.89 0.89 0.0 0 1 775.57 432.82
  L 785.33 426.53
  A 1.13 1.13 0.0 0 1 786.82 426.76
  Q 792.31 433.42 793.45 441.18
  A 4.01 4.00 67.4 0 1 791.90 444.97
  L 784.48 450.57
  Z"
/>
<path d="
  M 959.78 427.36
  A 0.39 0.39 0.0 0 1 960.10 428.05
  Q 950.27 435.81 944.01 446.10
  A 1.15 1.14 -65.3 0 1 942.69 446.59
  Q 937.37 444.88 933.71 441.52
  A 1.10 1.10 0.0 0 1 933.78 439.84
  Q 945.99 430.34 959.78 427.36
  Z"
/>
<path d="
  M 728.39 472.84
  Q 726.89 472.40 726.60 471.77
  A 0.76 0.76 0.0 0 1 726.92 470.79
  Q 738.23 464.44 748.69 454.68
  Q 758.24 445.78 764.50 440.29
  A 1.46 1.46 0.0 0 1 766.13 440.10
  Q 771.78 443.07 774.50 448.45
  Q 777.38 454.16 777.79 457.45
  C 778.73 465.00 774.58 474.05 769.78 480.02
  Q 768.49 481.62 766.62 481.69
  A 1.58 1.58 0.0 0 1 764.99 480.35
  Q 763.51 470.48 757.15 464.09
  A 1.01 1.00 -61.9 0 0 755.45 464.61
  L 754.65 468.57
  A 2.93 2.40 55.3 0 0 754.60 469.19
  C 754.85 474.28 755.26 479.09 754.24 484.08
  C 751.07 499.54 741.97 513.62 730.21 523.71
  Q 726.65 526.76 720.53 529.60
  C 708.99 534.95 693.83 538.26 682.41 530.88
  A 2.90 2.90 0.0 0 1 681.35 527.21
  L 682.31 525.17
  A 2.03 2.03 0.0 0 1 685.20 524.30
  Q 687.00 525.38 691.57 525.68
  C 706.56 526.65 723.97 518.35 730.73 504.85
  Q 736.89 492.54 732.31 477.98
  Q 731.26 474.66 728.98 473.12
  A 2.41 2.15 -16.3 0 0 728.39 472.84
  Z"
/>
<path d="
  M 777.71 581.79
  A 0.51 0.51 0.0 0 1 778.08 580.93
  Q 786.18 581.10 793.41 578.99
  C 799.36 577.25 807.08 572.41 812.03 569.28
  Q 813.22 568.52 813.62 567.01
  A 0.55 0.55 0.0 0 0 813.22 566.34
  L 810.30 565.61
  A 1.61 1.58 -47.4 0 0 809.33 565.66
  Q 804.97 567.32 793.96 570.68
  C 787.79 572.56 773.50 575.45 770.18 567.39
  Q 768.55 563.45 767.18 559.43
  A 0.38 0.38 0.0 0 1 767.69 558.96
  Q 775.70 562.19 784.31 561.61
  C 788.65 561.32 799.95 557.90 803.19 554.23
  Q 804.11 553.19 804.10 552.63
  A 1.87 1.63 -2.3 0 0 802.13 551.05
  Q 798.52 551.25 791.50 552.09
  Q 778.81 553.62 767.11 549.56
  A 2.84 2.84 0.0 0 1 765.21 547.17
  L 764.42 539.80
  A 0.74 0.74 0.0 0 1 765.51 539.07
  Q 768.08 540.45 772.36 540.42
  C 779.58 540.36 786.28 539.29 791.95 534.88
  A 1.74 1.53 -44.5 0 0 792.14 532.29
  Q 791.79 532.03 790.75 532.20
  Q 778.49 534.19 766.67 529.43
  A 2.21 2.21 0.0 0 1 765.30 527.13
  L 766.57 515.90
  A 0.87 0.87 0.0 0 1 767.78 515.20
  C 774.02 517.90 781.30 519.46 786.88 515.23
  A 1.08 1.07 -54.5 0 0 786.57 513.35
  Q 776.57 510.09 768.96 503.58
  A 1.23 1.21 19.6 0 1 768.53 502.70
  L 768.19 495.23
  A 0.78 0.76 75.8 0 1 768.61 494.51
  C 772.90 492.38 775.64 491.18 778.40 487.14
  Q 781.91 482.02 786.88 473.23
  Q 792.94 462.51 795.72 459.60
  Q 801.95 453.08 809.88 448.57
  A 0.19 0.18 89.7 0 1 810.13 448.82
  Q 801.99 464.15 811.35 478.89
  A 0.92 0.91 -34.9 0 1 811.13 480.10
  C 803.34 486.07 796.62 493.46 794.31 503.27
  Q 791.71 514.32 794.24 523.81
  Q 795.24 527.56 799.03 533.81
  Q 802.08 538.83 810.46 551.08
  Q 814.95 557.65 820.52 563.73
  Q 822.71 566.12 820.35 568.59
  Q 817.03 572.06 813.98 574.21
  Q 807.26 578.94 797.67 584.46
  Q 786.51 590.88 777.71 581.79
  Z"
/>
<path d="
  M 939.62 457.20
  A 0.33 0.32 -77.0 0 1 939.86 457.60
  Q 937.87 465.17 938.02 474.25
  Q 938.05 476.00 937.39 477.44
  A 1.12 1.08 3.8 0 1 936.68 478.04
  Q 926.47 480.78 916.60 476.54
  A 1.90 1.89 -77.9 0 1 915.45 474.75
  Q 915.74 461.42 924.46 449.09
  A 1.00 1.00 0.0 0 1 926.06 449.04
  Q 930.96 455.14 939.62 457.20
  Z"
/>
<path d="
  M 871.36 460.94
  A 0.62 0.62 0.0 0 1 872.02 461.87
  L 852.29 493.75
  A 0.82 0.81 -50.2 0 1 851.00 493.87
  Q 846.01 488.37 843.67 485.85
  Q 842.41 484.48 842.94 483.63
  Q 842.97 483.59 844.42 481.72
  C 850.75 473.57 861.40 463.15 871.36 460.94
  Z"
/>
<path d="
  M 665.24 488.69
  Q 663.84 490.25 663.38 490.60
  A 0.40 0.40 0.0 0 1 662.76 490.40
  Q 662.10 488.30 661.81 486.99
  Q 661.60 486.10 661.93 485.72
  Q 662.27 485.35 663.18 485.46
  Q 664.51 485.61 666.67 486.04
  A 0.40 0.40 0.0 0 1 666.94 486.63
  Q 666.64 487.12 665.24 488.69
  Z"
/>
<path d="
  M 915.67 488.89
  Q 927.66 492.74 938.90 488.55
  A 0.49 0.49 0.0 0 1 939.56 488.92
  C 940.90 496.39 944.21 503.22 948.01 510.15
  A 1.44 1.43 53.3 0 1 947.76 511.86
  Q 940.14 519.36 929.05 518.40
  C 926.30 518.16 922.95 517.47 922.09 514.50
  Q 921.99 514.16 921.47 512.64
  Q 917.17 500.16 915.07 489.42
  A 0.47 0.46 3.4 0 1 915.67 488.89
  Z"
/>
<path d="
  M 855.78 535.23
  C 853.96 531.66 852.70 526.89 847.99 524.93
  A 0.42 0.42 0.0 0 0 847.41 525.29
  Q 847.27 527.62 847.65 528.58
  Q 855.05 547.41 861.73 566.02
  Q 862.38 567.82 863.07 571.14
  C 864.77 579.21 860.65 584.79 854.40 589.15
  Q 837.13 601.20 818.85 608.87
  Q 812.27 611.63 804.79 611.36
  C 801.07 611.23 799.23 617.53 797.73 621.20
  Q 796.97 623.07 793.65 625.87
  Q 791.92 627.33 788.06 628.63
  C 774.68 633.15 766.86 639.92 759.23 651.71
  Q 758.90 652.23 758.39 652.26
  A 0.43 0.43 0.0 0 1 757.93 651.80
  C 758.52 643.23 763.13 633.87 768.36 627.72
  C 770.29 625.45 771.33 622.91 769.96 620.35
  C 768.81 618.20 766.46 617.98 764.25 617.94
  C 755.09 617.78 744.91 621.15 736.29 625.03
  A 0.33 0.33 0.0 0 1 735.91 624.51
  Q 744.08 615.41 755.97 610.71
  C 759.65 609.25 764.55 608.87 766.72 605.08
  A 0.96 0.96 0.0 0 0 766.62 603.99
  Q 764.68 601.74 763.40 601.04
  Q 749.79 593.60 734.07 595.52
  A 0.33 0.32 -62.5 0 1 733.88 594.91
  C 746.80 587.89 761.76 588.75 775.01 594.65
  C 785.35 599.26 795.24 596.99 805.11 592.09
  Q 814.06 587.64 824.03 580.27
  Q 831.00 575.12 832.32 571.69
  C 835.02 564.73 830.44 559.15 826.42 552.78
  C 821.75 545.38 815.89 538.69 810.58 531.69
  Q 805.90 525.50 803.87 518.89
  C 800.89 509.21 806.04 498.67 813.77 492.81
  C 829.38 480.99 845.17 506.59 850.10 517.60
  C 852.62 523.22 854.21 529.57 856.14 535.16
  A 0.14 0.14 0.0 0 1 856.06 535.33
  A 0.22 0.21 -24.7 0 1 855.78 535.23
  Z"
/>
<path d="
  M 886.78 503.65
  Q 886.25 505.35 885.55 506.29
  Q 881.03 512.38 872.52 523.28
  Q 870.33 526.09 868.40 527.94
  A 0.56 0.56 0.0 0 1 867.50 527.75
  L 862.76 515.93
  A 1.72 1.72 0.0 0 1 863.34 513.91
  Q 874.82 505.39 886.21 503.01
  A 0.50 0.49 -87.1 0 1 886.78 503.65
  Z"
/>
<path d="
  M 927.61 532.16
  A 0.73 0.73 0.0 0 1 928.30 531.22
  Q 942.07 530.93 952.07 521.54
  A 0.91 0.90 -34.2 0 1 953.51 521.81
  L 963.72 543.22
  A 2.51 2.50 -32.9 0 1 963.07 546.21
  C 954.75 553.19 945.22 553.94 934.64 553.89
  Q 932.59 553.88 932.27 551.80
  Q 931.04 543.97 927.61 532.16
  Z"
/>
<path d="
  M 896.54 545.24
  Q 896.20 546.38 895.42 547.20
  Q 886.76 556.43 876.53 563.77
  A 0.95 0.95 0.0 0 1 875.03 563.10
  L 874.03 553.83
  A 0.99 0.98 -13.5 0 1 874.66 552.81
  Q 879.25 551.06 890.23 546.19
  Q 891.59 545.59 896.10 544.75
  A 0.39 0.39 0.0 0 1 896.54 545.24
  Z"
/>
<path d="
  M 967.96 556.46
  A 0.39 0.39 0.0 0 1 968.55 556.68
  Q 971.93 569.25 972.70 581.07
  C 972.97 585.20 962.06 588.17 959.20 588.64
  C 951.45 589.91 940.97 586.13 933.88 582.68
  A 0.92 0.92 0.0 0 1 933.38 581.68
  Q 934.75 574.90 934.24 565.60
  A 0.56 0.55 89.5 0 1 934.82 565.00
  C 943.64 565.43 952.83 565.79 960.08 561.53
  Q 962.43 560.15 967.96 556.46
  Z"
/>
<path d="
  M 629.44 588.20
  A 0.26 0.26 0.0 0 1 629.25 587.72
  C 634.99 584.00 645.39 579.50 652.51 580.28
  Q 661.15 581.23 666.73 582.45
  Q 666.88 582.48 667.57 582.33
  A 1.79 1.78 72.5 0 0 668.84 579.89
  Q 667.66 577.09 665.84 575.20
  Q 652.94 561.79 634.30 559.46
  Q 633.98 559.42 633.91 559.31
  A 0.33 0.33 0.0 0 1 634.10 558.81
  Q 655.57 553.00 673.70 565.83
  Q 679.15 569.68 684.97 574.08
  Q 689.81 577.73 695.13 578.41
  Q 702.56 579.36 710.50 578.95
  Q 723.38 578.28 734.86 576.59
  Q 742.43 575.48 747.80 573.81
  C 749.48 573.29 750.52 572.10 751.24 570.30
  Q 753.83 563.75 755.29 559.56
  A 0.48 0.48 0.0 0 1 756.21 559.61
  C 757.91 566.82 760.05 574.36 764.64 580.69
  A 0.39 0.39 0.0 0 1 764.27 581.31
  Q 748.82 579.36 734.14 584.65
  C 728.38 586.72 723.49 590.87 719.10 595.63
  A 3.94 3.93 -71.7 0 1 716.64 596.87
  Q 709.50 597.69 702.50 597.60
  Q 700.13 597.57 699.34 597.23
  A 2.14 2.08 -4.1 0 1 698.58 596.59
  L 695.42 592.22
  A 1.20 1.20 0.0 0 0 693.31 592.51
  L 690.83 599.33
  A 7.22 7.21 79.8 0 1 688.74 602.34
  C 681.47 608.55 674.39 607.39 663.01 607.55
  Q 651.93 607.69 642.80 613.36
  A 0.45 0.44 1.6 0 1 642.20 612.73
  Q 649.19 602.88 661.64 598.95
  A 2.70 2.55 -11.5 0 0 663.52 596.27
  C 663.20 592.52 658.08 590.55 655.03 589.24
  C 646.19 585.42 638.72 586.55 629.44 588.20
  Z"
/>
<path d="
  M 806.56 809.43
  A 0.35 0.35 0.0 0 1 806.21 808.86
  Q 813.54 799.86 824.05 795.45
  C 829.70 793.07 836.12 792.10 842.65 790.42
  C 849.18 788.74 851.37 785.26 853.18 778.92
  Q 859.22 757.76 862.18 742.68
  Q 863.16 737.69 858.37 735.85
  Q 839.60 728.67 823.30 718.45
  Q 820.06 716.42 816.62 713.09
  Q 811.77 708.41 812.54 701.48
  Q 813.36 694.07 814.95 687.50
  Q 822.43 656.54 840.80 628.82
  Q 845.60 621.58 849.92 618.16
  A 1.28 1.28 0.0 0 0 849.07 615.88
  L 846.76 615.98
  A 5.78 5.76 27.6 0 0 843.97 616.85
  Q 838.78 620.10 834.68 624.97
  Q 824.78 636.70 818.04 651.62
  A 1.27 1.27 0.0 0 1 816.00 652.00
  Q 807.04 643.20 802.79 631.57
  A 2.68 2.67 51.3 0 1 803.05 629.20
  L 807.71 621.91
  A 3.87 3.86 9.4 0 1 810.03 620.25
  C 811.21 619.96 813.61 619.86 815.25 619.39
  Q 835.68 613.43 853.39 602.64
  Q 862.36 597.17 868.92 589.45
  A 0.30 0.29 -35.7 0 1 869.42 589.53
  Q 869.84 590.59 869.86 590.97
  Q 870.08 595.29 871.13 598.90
  C 872.09 602.16 877.97 606.46 880.74 608.58
  A 7.95 7.72 -0.8 0 1 881.82 609.60
  Q 888.55 617.34 889.27 628.29
  Q 890.59 648.42 879.25 665.04
  C 875.91 669.93 871.17 675.21 866.50 679.61
  C 859.37 686.34 853.63 691.95 848.41 698.18
  C 841.59 706.32 852.90 712.02 858.46 714.80
  Q 871.69 721.38 884.06 726.91
  Q 887.48 728.44 887.23 732.24
  Q 886.89 737.41 885.90 740.93
  C 882.57 752.73 880.70 765.97 879.30 777.26
  C 878.48 783.89 877.96 791.08 880.95 797.06
  Q 881.45 798.05 884.57 804.41
  C 885.69 806.69 885.03 808.01 882.64 808.67
  Q 878.72 809.74 876.75 809.82
  Q 862.90 810.35 855.26 810.78
  C 845.40 811.34 834.65 817.66 826.44 820.47
  A 0.50 0.49 4.5 0 1 825.84 819.77
  C 830.85 810.34 839.48 804.10 849.87 801.37
  A 0.81 0.81 0.0 0 0 850.12 799.92
  C 844.52 796.03 834.47 798.26 829.39 801.17
  Q 822.59 805.06 820.07 805.81
  Q 811.48 808.38 806.56 809.43
  Z"
/>
<path d="
  M 971.49 596.59
  A 0.44 0.44 0.0 0 1 971.92 597.11
  C 970.27 605.92 967.23 615.73 961.48 623.00
  Q 960.14 624.70 958.32 625.05
  C 950.46 626.58 938.83 620.49 933.62 615.78
  Q 928.34 611.01 923.40 604.80
  A 1.03 1.03 0.0 0 1 923.42 603.50
  Q 927.25 598.99 929.23 593.44
  A 0.67 0.66 -60.6 0 1 930.28 593.14
  Q 937.15 598.77 945.79 601.15
  C 954.55 603.57 962.92 600.81 970.52 596.73
  Q 970.80 596.58 971.49 596.59
  Z"
/>
<path d="
  M 949.25 636.92
  A 0.44 0.43 -60.9 0 1 949.46 637.67
  Q 941.71 644.79 932.21 650.97
  C 926.47 654.71 919.50 650.07 915.81 645.42
  C 909.86 637.90 905.75 628.84 902.60 619.65
  A 0.76 0.76 0.0 0 1 903.05 618.70
  Q 909.66 616.16 914.94 611.92
  A 1.18 1.18 0.0 0 1 916.68 612.21
  C 922.19 620.98 927.57 628.64 937.05 632.98
  Q 943.18 635.78 949.25 636.92
  Z"
/>
<path d="
  M 719.32 812.19
  A 0.29 0.28 17.5 0 1 719.09 811.76
  Q 723.76 804.31 730.78 799.59
  C 734.29 797.23 739.44 795.60 742.89 793.93
  A 0.65 0.65 0.0 0 0 742.95 792.79
  Q 742.43 792.47 742.10 792.40
  C 732.68 790.34 725.28 793.63 716.85 798.40
  A 4.68 4.67 -62.6 0 1 715.03 798.98
  L 704.41 800.12
  A 0.44 0.43 -72.3 0 1 704.04 799.40
  C 711.20 791.30 718.99 787.66 729.47 786.77
  Q 731.57 786.60 738.44 785.67
  C 745.05 784.78 748.77 780.73 752.30 775.29
  Q 759.12 764.78 766.22 750.98
  C 767.93 747.66 770.70 742.15 769.73 738.56
  Q 768.64 734.50 766.15 732.64
  C 758.09 726.61 730.45 705.63 731.60 694.85
  Q 731.83 692.70 734.62 687.61
  C 739.88 678.05 746.56 670.40 753.64 663.06
  A 0.95 0.95 0.0 0 1 754.99 663.03
  C 757.75 665.71 760.31 664.09 762.87 661.85
  C 766.61 658.58 768.74 654.03 772.35 650.37
  Q 779.64 642.97 792.63 639.03
  A 1.66 1.65 67.6 0 1 794.58 639.85
  Q 800.42 650.97 809.20 660.82
  A 1.01 1.01 0.0 0 1 809.03 662.32
  Q 792.16 673.97 774.16 685.41
  C 768.34 689.11 759.73 693.50 763.98 701.65
  Q 764.93 703.47 769.68 706.72
  Q 775.09 710.41 776.85 712.55
  Q 789.43 727.90 795.02 733.96
  C 798.09 737.29 796.09 742.12 794.26 745.76
  Q 789.79 754.66 783.40 766.65
  C 778.87 775.15 776.19 782.36 775.26 791.25
  C 775.09 792.92 775.20 798.85 773.60 801.09
  A 1.90 1.86 -84.3 0 1 772.86 801.71
  Q 770.87 802.66 768.18 802.91
  Q 764.68 803.24 752.75 803.53
  C 741.67 803.81 731.25 807.80 720.50 812.01
  Q 719.95 812.23 719.32 812.19
  Z"
/>
<path d="
  M 899.97 639.37
  A 0.44 0.44 0.0 0 1 900.82 639.24
  C 903.69 646.29 906.96 652.88 912.23 658.11
  A 0.81 0.80 60.2 0 1 911.87 659.46
  L 894.73 663.86
  A 0.60 0.60 0.0 0 1 894.02 663.05
  Q 898.96 650.97 899.97 639.37
  Z"
/>
</g>
<g fill="var(--art-text)">
<path d="
  M 659.04 170.72
  C 659.08 175.84 654.03 176.55 649.99 176.70
  Q 643.98 176.92 639.50 176.80
  Q 621.43 176.32 601.00 175.89
  C 597.12 175.81 591.84 176.01 591.80 171.26
  C 591.76 166.51 597.05 166.63 600.93 166.48
  Q 621.34 165.72 639.40 164.95
  Q 643.88 164.76 649.89 164.88
  C 653.94 164.96 659.00 165.60 659.04 170.72
  Z"
/>
<path d="
  M 160.92 663.61
  Q 160.82 663.93 159.99 665.00
  Q 151.51 676.04 138.27 686.51
  Q 116.44 703.77 88.78 710.26
  Q 82.93 711.63 78.11 710.74
  A 2.56 2.55 88.2 0 1 76.10 708.85
  Q 75.02 704.50 79.37 702.90
  C 84.82 700.90 92.99 699.07 98.91 696.55
  Q 118.42 688.23 134.33 676.42
  C 140.47 671.86 148.50 664.47 154.22 659.99
  Q 157.25 657.61 159.84 660.09
  A 3.71 3.02 33.8 0 1 160.92 663.61
  Z"
/>
<path d="
  M 146.85 712.70
  Q 146.34 714.30 142.44 718.20
  C 128.43 732.20 107.87 738.60 88.42 739.56
  Q 78.06 740.07 65.01 739.47
  Q 52.59 738.90 51.68 738.83
  C 48.42 738.59 40.01 737.87 43.66 732.87
  Q 44.89 731.19 47.76 731.16
  Q 70.01 730.93 76.00 730.85
  Q 81.17 730.78 96.97 729.41
  Q 108.84 728.38 122.34 722.10
  C 128.72 719.13 135.25 714.36 140.86 711.01
  C 142.75 709.88 145.42 708.95 146.77 711.70
  A 1.36 1.34 -50.1 0 1 146.85 712.70
  Z"
/>
</g>
</svg>
