<?xml version="1.0" encoding="UTF-8" standalone="no"?>
<!DOCTYPE svg PUBLIC "-//W3C//DTD SVG 1.1//EN" "http://www.w3.org/Graphics/SVG/1.1/DTD/svg11.dtd">
<svg xmlns="http://www.w3.org/2000/svg" version="1.1" viewBox="0.00 0.00 907.00 855.00">
<g stroke-width="2.00" fill="none" stroke-linecap="butt">
<path stroke="#4f7490" vector-effect="non-scaling-stroke" d="
  M 345.41 143.74
  A 0.47 0.46 -13.3 0 0 345.88 142.98
  C 303.71 96.79 251.83 61.90 192.81 39.88
  Q 140.34 20.30 84.65 14.62
  C 65.66 12.68 47.95 12.50 29.97 14.10
  A 0.60 0.60 0.0 0 0 29.76 15.23
  Q 40.96 20.72 50.99 28.02
  C 73.88 44.69 94.20 66.04 107.42 91.06
  Q 122.88 120.33 117.10 153.29
  Q 115.45 162.66 111.28 171.50
  A 0.43 0.43 0.0 0 0 111.86 172.07
  C 136.84 159.69 165.31 148.18 191.85 141.56
  Q 268.11 122.52 345.41 143.74"
/>
<path stroke="#4f7490" vector-effect="non-scaling-stroke" d="
  M 804.00 299.39
  Q 805.68 295.70 806.32 290.81
  C 809.80 264.38 803.75 237.21 791.30 213.18
  Q 780.88 193.08 768.04 178.46
  Q 754.88 163.46 746.06 155.67
  C 691.70 107.64 619.34 77.20 546.25 78.22
  Q 527.03 78.49 509.48 83.71
  Q 490.87 89.24 475.82 103.79
  C 468.31 111.06 462.75 120.86 464.36 131.63
  Q 465.07 136.36 469.44 140.43
  A 3.57 3.56 -15.1 0 0 470.85 141.24
  Q 473.84 142.17 476.82 142.14
  Q 493.68 141.96 504.23 142.49
  Q 526.34 143.58 551.48 149.01
  Q 585.35 156.31 617.09 174.18
  Q 625.53 178.93 632.95 184.81
  C 647.04 195.96 661.19 208.86 673.19 223.05
  C 682.13 233.63 696.61 253.06 710.19 265.75
  Q 739.75 293.37 779.49 300.25
  C 786.62 301.49 795.72 302.31 802.50 300.62
  A 2.26 2.23 5.2 0 0 804.00 299.39"
/>
<path stroke="#4f7490" vector-effect="non-scaling-stroke" d="
  M 876.67 112.67
  Q 827.88 120.13 785.43 145.70
  Q 777.50 150.48 767.44 157.05
  A 0.64 0.64 0.0 0 0 767.33 158.03
  C 781.73 173.11 794.11 191.13 803.78 208.95
  Q 805.82 212.71 807.27 216.33
  A 0.51 0.50 43.6 0 0 808.22 216.31
  Q 822.11 174.30 849.70 140.18
  C 857.77 130.20 866.83 121.51 877.04 113.54
  A 0.49 0.49 0.0 0 0 876.67 112.67"
/>
<path stroke="#4f7490" vector-effect="non-scaling-stroke" d="
  M 253.18 519.32
  A 0.42 0.42 0.0 0 0 253.95 519.56
  Q 261.35 509.08 257.93 497.42
  C 256.40 492.24 252.34 487.34 249.00 482.00
  C 244.46 474.73 243.99 467.71 247.08 459.61
  Q 250.80 449.87 258.68 443.17
  Q 268.48 434.82 276.19 429.95
  Q 279.38 427.94 308.44 409.20
  Q 327.72 396.77 342.98 380.99
  C 344.91 379.01 349.74 378.91 351.75 378.84
  Q 390.40 377.49 423.26 372.56
  Q 433.60 371.01 442.37 368.11
  Q 448.13 366.20 470.45 357.77
  A 1.82 1.77 38.8 0 1 471.38 357.68
  Q 472.60 357.89 473.76 359.00
  A 2.10 1.60 -50.8 0 1 473.68 361.47
  Q 472.78 362.70 470.95 363.94
  Q 464.99 367.98 452.52 375.77
  Q 439.08 384.17 439.34 400.44
  Q 439.50 410.00 439.72 415.69
  A 0.92 0.91 -5.5 0 1 438.93 416.64
  C 435.25 417.16 434.22 414.93 432.55 411.72
  Q 428.56 404.06 427.09 395.51
  A 0.58 0.58 0.0 0 0 426.15 395.16
  C 419.83 400.50 415.79 406.25 413.01 414.06
  C 410.21 421.94 408.32 426.98 403.30 434.82
  C 394.23 448.97 380.47 462.36 366.72 475.71
  C 357.89 484.28 352.15 493.93 346.62 505.50
  Q 341.03 517.20 338.08 530.25
  Q 336.89 535.53 334.18 556.19
  Q 331.30 578.15 328.42 599.99
  Q 324.08 632.89 315.49 663.64
  A 1.60 1.60 0.0 0 1 313.69 664.80
  C 304.96 663.38 295.99 662.09 287.87 664.68
  C 281.32 666.76 276.17 670.95 267.98 676.69
  Q 255.42 685.51 239.45 688.40
  C 228.99 690.30 213.51 685.41 206.69 696.22
  C 201.67 704.17 199.35 713.96 196.64 721.67
  Q 186.30 751.09 164.22 773.96
  C 155.23 783.27 147.43 790.66 137.19 796.56
  A 0.47 0.47 0.0 0 0 137.40 797.44
  Q 151.31 798.08 163.95 791.64
  Q 172.19 787.43 181.51 781.03
  C 183.78 779.47 187.49 779.49 187.85 782.87
  Q 188.07 784.88 187.36 786.09
  C 183.74 792.24 181.09 800.08 177.32 806.24
  Q 169.57 818.91 156.90 828.38
  Q 154.07 830.49 153.38 830.62
  A 0.54 0.54 0.0 0 0 152.98 831.35
  L 153.02 831.44
  A 0.52 0.51 -18.8 0 0 153.64 831.74
  C 172.89 826.31 188.71 812.59 198.27 795.29
  Q 199.88 792.39 203.00 793.57
  C 207.33 795.20 202.24 803.72 201.51 806.47
  C 198.61 817.38 194.52 828.09 188.79 837.61
  A 0.34 0.34 0.0 0 0 189.23 838.09
  Q 191.18 837.14 193.32 835.31
  C 201.82 828.01 209.53 818.45 213.68 808.28
  C 218.61 796.18 219.57 785.32 220.91 769.38
  Q 222.78 747.06 231.12 724.36
  Q 232.85 719.68 234.40 717.64
  C 236.81 714.50 241.80 713.29 245.37 712.85
  Q 259.33 711.11 271.43 710.61
  Q 302.14 709.35 313.85 708.87
  C 319.94 708.62 325.71 707.99 331.00 706.50
  C 343.18 703.09 354.06 692.34 357.58 680.52
  C 358.52 677.36 358.68 675.61 359.15 672.05
  C 359.57 668.79 360.66 667.09 362.96 664.95
  C 369.95 658.47 376.36 652.04 381.58 644.34
  C 396.33 622.55 406.82 596.73 412.63 570.89
  C 416.71 552.76 418.53 533.60 415.67 515.33
  Q 412.91 497.68 400.94 484.97
  Q 398.94 482.85 398.74 482.06
  C 398.15 479.70 400.40 477.69 402.73 478.53
  C 413.23 482.30 420.80 491.22 424.68 501.34
  A 0.44 0.44 0.0 0 0 425.53 501.27
  Q 426.72 495.27 427.31 488.48
  Q 428.67 472.66 419.19 458.33
  Q 417.87 456.33 419.07 455.08
  A 2.83 2.49 34.1 0 1 422.22 454.68
  Q 424.71 455.94 427.17 458.92
  C 441.94 476.89 436.48 498.08 429.88 518.96
  A 12.38 12.12 54.4 0 0 429.31 522.66
  L 429.31 531.15
  A 0.45 0.45 0.0 0 0 430.06 531.49
  Q 433.99 528.00 437.74 523.15
  C 441.64 518.09 444.39 511.77 447.75 505.29
  C 450.85 499.31 453.92 495.51 458.15 490.90
  Q 467.04 481.22 476.65 471.59
  A 0.47 0.46 23.7 0 0 476.34 470.80
  C 464.53 470.15 452.42 462.66 444.76 453.99
  C 441.82 450.67 433.28 438.09 439.31 434.58
  A 2.02 1.96 -60.5 0 1 440.23 434.31
  Q 441.92 434.23 443.03 435.73
  Q 446.44 440.34 449.60 443.86
  Q 462.48 458.23 480.95 459.93
  C 486.86 460.47 495.25 459.56 500.15 459.42
  A 0.76 0.76 0.0 0 1 500.88 460.45
  Q 500.66 461.02 500.87 461.30
  Q 501.06 461.55 501.70 461.48
  C 514.24 460.17 528.47 452.91 537.44 445.10
  Q 546.16 437.50 551.90 432.11
  A 11.66 11.41 -5.1 0 0 553.56 430.17
  Q 569.77 406.07 574.89 377.72
  Q 578.07 360.09 569.69 344.35
  Q 568.97 343.00 569.28 341.82
  A 2.69 2.19 13.9 0 1 572.39 340.35
  Q 574.70 340.90 576.64 342.93
  C 584.73 351.37 587.71 363.30 587.00 374.50
  Q 585.49 398.19 574.00 418.99
  Q 566.63 432.33 561.09 438.87
  C 554.93 446.17 552.05 449.91 546.12 454.81
  A 0.69 0.69 0.0 0 0 546.46 456.02
  C 554.82 457.20 564.89 455.66 571.10 449.39
  A 1.03 1.03 0.0 0 0 570.74 447.70
  Q 569.25 447.14 565.85 443.64
  Q 564.09 441.82 564.68 440.55
  Q 565.53 438.72 567.30 438.82
  Q 576.87 439.36 579.01 439.53
  C 586.50 440.12 593.64 432.84 597.45 427.11
  A 0.36 0.36 0.0 0 0 597.14 426.55
  Q 591.26 426.73 585.71 425.06
  C 583.79 424.48 577.08 421.43 579.77 418.42
  Q 580.99 417.04 582.27 416.98
  Q 591.61 416.52 593.81 416.27
  C 607.23 414.78 614.51 405.79 619.39 393.88
  A 0.46 0.45 89.3 0 0 618.79 393.29
  C 613.16 395.79 600.02 399.92 594.57 395.71
  C 591.26 393.16 596.13 389.89 598.38 389.12
  Q 608.60 385.63 611.70 384.45
  C 624.10 379.72 631.46 370.32 630.96 356.41
  A 0.74 0.72 -60.9 0 0 630.86 356.04
  L 628.04 351.16
  A 0.78 0.77 57.3 0 0 626.92 350.91
  C 621.37 354.85 609.81 362.39 602.80 360.57
  A 2.01 1.95 11.4 0 1 601.31 358.39
  Q 601.45 357.45 602.29 356.50
  A 2.08 1.94 2.1 0 1 602.73 356.12
  Q 614.10 348.78 621.73 341.72
  Q 624.27 339.36 632.34 331.25
  C 638.46 325.10 642.62 322.44 650.79 316.26
  A 2.44 2.43 -29.4 0 0 651.59 313.42
  Q 647.33 302.52 647.87 292.16
  A 0.55 0.55 0.0 0 0 646.90 291.77
  Q 633.67 307.07 631.12 309.86
  C 622.34 319.45 614.34 327.41 603.80 332.77
  Q 601.82 333.78 599.70 333.49
  A 1.38 1.37 75.3 0 1 598.81 332.97
  Q 597.79 331.64 598.17 330.02
  A 2.29 2.21 -19.5 0 1 598.63 329.10
  Q 599.60 327.96 601.16 326.67
  Q 612.29 317.55 619.82 307.58
  Q 627.32 297.66 631.64 291.55
  Q 635.78 285.70 638.86 282.88
  Q 644.63 277.59 647.13 275.16
  C 650.29 272.08 656.14 263.81 654.62 258.77
  Q 653.90 256.39 652.34 254.65
  Q 644.58 245.99 638.32 237.20
  C 631.24 227.26 625.28 214.13 632.92 202.51
  A 1.22 1.22 0.0 0 0 632.70 200.92
  Q 622.50 191.94 610.39 184.98
  A 0.60 0.60 0.0 0 0 609.50 185.45
  L 607.61 208.37
  A 1.18 1.17 -68.3 0 0 608.04 209.38
  C 614.58 214.75 619.48 219.07 623.89 225.86
  C 634.33 241.92 630.16 255.07 621.03 271.01
  C 614.34 282.68 605.57 292.84 594.53 300.77
  Q 589.63 304.29 584.68 305.03
  A 0.60 0.60 0.0 0 1 584.01 304.55
  Q 583.62 302.60 584.65 301.85
  Q 588.51 298.99 590.08 297.10
  C 601.10 283.75 611.41 270.30 616.71 254.27
  C 620.28 243.45 616.25 233.14 608.39 225.75
  A 0.47 0.47 0.0 0 0 607.60 226.01
  Q 606.65 230.92 605.86 234.34
  C 602.93 246.95 595.50 258.93 585.31 266.72
  C 574.38 275.08 558.63 279.00 544.60 280.57
  A 0.68 0.68 0.0 0 0 544.21 281.74
  C 548.83 286.07 558.86 296.89 554.48 303.84
  C 552.78 306.52 549.13 307.34 547.43 304.06
  C 543.24 295.94 538.99 290.56 531.23 285.71
  Q 519.98 278.69 506.46 275.99
  C 500.80 274.87 496.40 275.36 489.59 276.40
  Q 476.48 278.39 465.47 283.71
  A 0.62 0.61 -48.8 0 0 465.54 284.85
  Q 479.32 289.35 491.44 297.56
  C 498.99 302.68 502.08 308.16 507.69 316.75
  C 509.91 320.15 519.23 335.78 510.98 336.65
  C 507.61 337.00 504.76 333.38 502.99 330.75
  Q 500.18 326.56 495.08 318.16
  C 488.90 307.98 479.09 303.91 468.03 298.97
  C 456.34 293.76 443.97 288.88 431.56 285.32
  C 418.11 281.46 404.97 276.88 391.46 270.56
  C 376.22 263.43 369.13 252.14 365.60 235.37
  Q 363.05 223.25 363.20 209.56
  C 363.37 193.96 367.67 180.68 375.93 167.69
  Q 381.37 159.12 383.13 154.11
  Q 386.86 143.48 383.51 132.54
  A 0.66 0.66 0.0 0 0 382.24 132.56
  Q 379.68 141.86 373.37 149.38
  Q 365.51 158.73 364.43 160.17
  Q 358.49 168.09 355.65 177.93
  C 348.37 203.11 346.63 228.46 348.15 254.61
  C 349.01 269.41 353.18 284.43 365.84 292.26
  Q 373.88 297.24 383.28 301.24
  Q 406.08 310.95 427.94 318.79
  Q 431.37 320.03 433.86 322.28
  A 0.80 0.79 -43.0 0 1 433.81 323.50
  Q 432.73 324.35 430.61 325.07
  Q 408.34 332.68 382.54 339.24
  Q 350.81 347.31 339.42 349.88
  C 328.97 352.23 319.49 356.08 311.06 363.29
  Q 297.36 375.01 285.70 387.45
  Q 249.11 426.47 248.80 426.80
  Q 240.26 435.89 231.76 443.02
  Q 220.73 452.29 205.34 457.82
  C 189.52 463.51 170.93 467.97 157.89 479.93
  Q 144.84 491.89 145.34 510.25
  Q 145.40 512.30 145.29 515.46
  A 0.50 0.50 0.0 0 0 146.12 515.85
  Q 146.45 515.57 146.70 514.97
  Q 149.18 509.03 152.14 504.63
  Q 165.58 484.70 188.10 476.11
  C 192.61 474.39 203.52 468.86 206.23 475.70
  C 207.00 477.64 206.56 479.90 205.37 481.39
  C 192.80 497.12 178.59 516.66 190.12 537.48
  A 0.49 0.49 0.0 0 0 191.04 537.23
  C 190.16 516.76 200.64 497.50 218.55 487.70
  Q 220.62 486.57 223.84 485.16
  C 228.28 483.22 233.39 486.24 237.40 488.51
  C 246.79 493.82 254.22 504.78 253.32 515.84
  Q 253.16 517.90 253.18 519.32"
/>
<path stroke="#4f7490" vector-effect="non-scaling-stroke" d="
  M 204.42 311.77
  A 0.32 0.31 -10.0 0 0 204.88 312.09
  Q 205.19 311.93 205.49 311.50
  Q 226.80 280.91 250.75 251.33
  Q 272.69 224.24 294.93 202.21
  Q 319.48 177.90 343.71 157.57
  A 0.52 0.52 0.0 0 0 343.50 156.66
  Q 332.73 153.89 321.30 151.47
  C 286.13 144.01 249.80 143.09 213.68 150.14
  Q 188.44 155.07 166.19 163.18
  Q 141.70 172.10 116.44 184.26
  A 0.33 0.33 0.0 0 0 116.55 184.88
  Q 136.27 187.12 154.76 195.01
  C 175.91 204.02 192.27 222.44 199.60 244.54
  Q 203.72 256.93 204.85 267.39
  Q 207.28 289.86 204.42 311.77"
/>
<path stroke="#4f7490" vector-effect="non-scaling-stroke" d="
  M 504.50 154.66
  A 0.25 0.25 0.0 0 0 504.64 154.99
  Q 523.52 162.17 541.31 172.25
  A 0.30 0.29 -75.3 0 0 541.75 171.99
  L 541.75 159.92
  A 0.45 0.45 0.0 0 0 541.40 159.48
  Q 530.83 157.16 519.26 155.65
  C 514.21 155.00 510.11 155.13 505.28 154.27
  Q 504.70 154.17 504.50 154.66"
/>
<path stroke="#4f7490" vector-effect="non-scaling-stroke" d="
  M 568.50 186.94
  A 0.36 0.36 0.0 0 0 569.03 186.58
  Q 567.86 176.73 572.52 168.19
  A 0.66 0.66 0.0 0 0 572.11 167.24
  L 553.25 162.21
  A 0.82 0.81 11.6 0 0 552.23 162.88
  Q 551.43 168.28 551.84 173.90
  Q 552.15 178.07 556.10 180.09
  Q 557.53 180.82 568.50 186.94"
/>
<path stroke="#4f7490" vector-effect="non-scaling-stroke" d="
  M 596.75 204.34
  Q 596.27 190.51 599.63 179.93
  A 0.98 0.98 0.0 0 0 599.10 178.74
  L 583.25 171.52
  A 0.87 0.87 0.0 0 0 582.06 172.06
  C 580.25 177.95 578.64 183.39 579.74 189.49
  C 580.43 193.27 581.12 194.80 584.50 196.94
  Q 590.89 200.99 596.16 204.67
  A 0.38 0.38 0.0 0 0 596.75 204.34"
/>
<path stroke="#4f7490" vector-effect="non-scaling-stroke" d="
  M 218.46 314.49
  Q 232.47 309.59 247.25 309.22
  C 268.72 308.69 290.47 318.36 306.07 332.96
  Q 311.61 338.15 317.56 344.25
  A 1.41 1.39 56.9 0 0 319.06 344.58
  C 336.07 337.94 356.04 334.51 373.88 329.33
  Q 387.22 325.46 399.96 321.19
  A 0.56 0.56 0.0 0 0 399.96 320.12
  C 386.51 315.66 372.55 310.53 360.75 303.01
  C 345.19 293.10 338.68 277.50 336.98 259.04
  C 334.35 230.54 337.37 201.54 344.75 174.02
  A 0.42 0.41 9.1 0 0 344.37 173.50
  Q 343.99 173.48 343.70 173.73
  Q 292.40 216.99 250.89 270.63
  Q 237.43 288.01 217.98 313.84
  A 0.42 0.42 0.0 0 0 218.46 314.49"
/>
<path stroke="#4f7490" vector-effect="non-scaling-stroke" d="
  M 435.10 204.14
  Q 435.13 204.63 435.36 204.91
  C 451.11 224.12 463.08 247.27 462.35 272.16
  A 0.30 0.29 -10.3 0 0 462.76 272.44
  C 472.51 268.34 482.91 266.66 492.99 265.12
  A 1.00 0.99 -14.5 0 0 493.77 263.80
  C 484.12 237.31 460.50 216.00 435.64 203.79
  A 0.37 0.37 0.0 0 0 435.10 204.14"
/>
<path stroke="#4f7490" vector-effect="non-scaling-stroke" d="
  M 641.19 210.24
  C 640.31 218.44 644.55 226.63 649.63 232.89
  Q 660.64 246.46 664.13 250.86
  C 667.47 255.08 666.56 260.08 665.41 265.44
  C 661.62 283.05 653.77 300.83 664.46 318.19
  Q 667.18 322.60 670.89 327.12
  C 683.02 341.90 694.83 355.76 702.87 372.89
  C 707.52 382.77 712.25 395.64 723.18 398.09
  C 732.96 400.29 741.68 396.78 749.81 391.58
  A 0.56 0.55 36.2 0 0 749.65 390.58
  C 741.14 388.30 733.07 384.12 726.50 377.53
  Q 715.13 366.14 707.20 352.62
  C 698.85 338.37 695.88 320.16 695.38 304.26
  Q 695.20 298.57 697.63 292.42
  Q 700.33 285.59 707.68 283.95
  A 1.51 1.51 0.0 0 0 708.33 281.33
  Q 698.17 272.69 687.47 260.38
  Q 686.61 259.38 659.62 226.98
  Q 651.81 217.61 642.22 209.81
  A 0.64 0.64 0.0 0 0 641.19 210.24"
/>
<path stroke="#4f7490" vector-effect="non-scaling-stroke" d="
  M 526.90 222.37
  A 0.47 0.46 -86.3 0 0 526.22 222.97
  C 533.53 236.33 538.46 252.98 537.14 268.25
  A 0.49 0.48 -0.0 0 0 537.67 268.77
  Q 549.27 267.67 558.61 265.25
  A 1.20 1.20 0.0 0 0 559.45 263.71
  C 554.35 248.64 543.77 235.61 531.61 225.86
  Q 531.06 225.42 526.90 222.37"
/>
<path stroke="#93a2aa" vector-effect="non-scaling-stroke" d="
  M 749.57 323.86
  C 752.94 322.53 755.58 312.32 756.61 308.29
  A 0.62 0.61 -77.6 0 0 756.13 307.53
  L 753.52 307.01
  A 1.06 1.05 21.2 0 0 752.42 307.49
  Q 750.80 310.10 749.10 312.60
  C 747.25 315.31 748.47 320.46 749.03 323.56
  A 0.40 0.40 0.0 0 0 749.57 323.86"
/>
<path stroke="#93a2aa" vector-effect="non-scaling-stroke" d="
  M 770.34 330.95
  C 775.00 327.64 777.91 319.24 779.06 313.80
  A 0.63 0.62 9.5 0 0 778.53 313.06
  L 771.28 312.14
  A 0.52 0.51 5.8 0 0 770.70 312.61
  Q 770.20 319.57 769.69 326.49
  Q 769.51 328.86 769.84 330.74
  A 0.32 0.32 0.0 0 0 770.34 330.95"
/>
<path stroke="#93a2aa" vector-effect="non-scaling-stroke" d="
  M 791.15 314.96
  Q 790.31 324.92 791.04 335.30
  A 0.55 0.55 0.0 0 0 792.03 335.60
  C 796.38 329.96 798.32 321.85 798.73 314.84
  A 0.57 0.57 0.0 0 0 798.16 314.24
  L 791.94 314.24
  A 0.79 0.79 0.0 0 0 791.15 314.96"
/>
<path stroke="#93a2aa" vector-effect="non-scaling-stroke" d="
  M 738.17 352.96
  Q 736.85 353.28 735.50 354.25
  Q 730.94 357.52 727.57 360.85
  A 1.21 1.19 51.0 0 0 727.42 362.37
  Q 730.11 366.40 734.41 368.86
  A 0.73 0.73 0.0 0 0 735.46 368.46
  Q 737.85 361.31 738.48 353.23
  A 0.25 0.25 0.0 0 0 738.17 352.96"
/>
<path stroke="#93a2aa" vector-effect="non-scaling-stroke" d="
  M 746.05 378.71
  Q 750.96 380.61 755.12 380.75
  A 1.37 1.35 -76.6 0 0 756.40 379.95
  Q 759.39 373.40 760.03 365.23
  A 0.46 0.46 0.0 0 0 759.36 364.79
  Q 750.67 369.27 745.78 377.99
  A 0.51 0.51 0.0 0 0 746.05 378.71"
/>
<path stroke="#4f7490" vector-effect="non-scaling-stroke" d="
  M 96.90 439.47
  Q 102.29 402.95 124.26 372.55
  A 0.51 0.51 0.0 0 0 123.63 371.79
  Q 116.29 375.17 108.77 380.04
  Q 82.14 397.30 63.55 423.14
  A 0.54 0.54 0.0 0 0 64.09 423.99
  Q 69.07 423.04 73.52 423.78
  A 2.03 2.02 89.8 0 1 75.17 425.42
  C 75.93 429.68 74.81 432.86 72.65 436.87
  Q 66.94 447.44 62.54 459.56
  A 0.66 0.65 -72.7 0 0 62.99 460.42
  L 71.83 462.78
  A 1.63 1.62 -75.8 0 0 73.83 461.58
  Q 77.68 445.36 84.10 431.12
  Q 85.10 428.91 86.94 427.30
  A 1.15 1.13 40.3 0 1 88.29 427.20
  Q 91.27 429.06 91.75 430.17
  Q 93.62 434.55 96.08 439.60
  A 0.43 0.43 0.0 0 0 96.90 439.47"
/>
<path stroke="#4f7490" vector-effect="non-scaling-stroke" d="
  M 861.45 499.56
  C 863.90 481.25 857.71 463.29 842.01 452.72
  Q 834.84 447.90 834.40 447.58
  Q 830.88 445.06 832.63 441.06
  A 3.18 3.17 -78.9 0 1 835.46 439.15
  Q 838.58 439.07 852.56 438.63
  C 863.37 438.29 877.82 440.31 886.68 447.05
  A 0.42 0.42 0.0 0 0 887.29 446.50
  C 882.14 438.17 874.91 432.87 865.16 430.43
  C 851.51 427.01 837.35 428.06 824.04 432.51
  A 1.71 1.66 45.8 0 1 822.90 432.48
  C 817.02 430.24 817.72 425.92 819.94 420.60
  C 827.07 403.57 840.33 393.56 858.04 388.19
  A 0.43 0.43 0.0 0 0 857.97 387.35
  C 841.92 385.39 827.45 388.35 817.10 401.37
  Q 815.69 403.14 810.37 410.86
  Q 798.70 427.79 778.93 434.67
  Q 768.76 438.20 754.61 440.89
  Q 717.03 448.03 680.82 451.43
  C 677.27 451.77 675.18 452.34 673.46 449.29
  Q 654.18 415.22 638.03 382.67
  A 0.42 0.42 0.0 0 0 637.29 382.65
  L 632.36 391.38
  A 1.70 1.52 -27.7 0 0 632.18 391.86
  Q 629.13 406.43 618.87 417.71
  A 0.92 0.91 -39.0 0 0 618.75 418.79
  Q 619.77 420.52 621.12 422.38
  Q 635.78 442.58 649.72 460.28
  Q 654.91 466.85 660.65 473.10
  Q 664.95 477.78 669.04 480.45
  C 673.80 483.55 678.94 481.73 684.63 480.34
  Q 693.69 478.12 721.12 470.11
  Q 729.74 467.59 774.29 453.63
  A 2.59 2.47 -51.1 0 1 775.06 453.53
  L 779.86 453.70
  A 1.63 1.61 -23.4 0 1 780.86 454.09
  Q 782.71 455.68 783.25 458.29
  Q 785.01 466.80 786.37 471.89
  Q 790.80 488.58 806.34 495.80
  A 0.31 0.31 0.0 0 0 806.73 495.35
  C 799.82 484.40 800.09 471.90 801.27 459.32
  A 2.92 2.91 -6.1 0 1 803.31 456.81
  Q 805.27 456.20 807.49 456.16
  C 813.93 456.05 819.80 455.96 824.51 457.00
  Q 837.95 459.99 847.49 470.65
  C 853.87 477.78 858.36 490.09 860.71 499.60
  A 0.38 0.38 0.0 0 0 861.45 499.56"
/>
<path stroke="#4f7490" vector-effect="non-scaling-stroke" d="
  M 388.47 434.38
  L 392.09 428.12
  A 0.42 0.42 0.0 0 0 391.83 427.51
  Q 386.99 426.24 382.38 426.42
  A 0.55 0.55 0.0 0 0 381.96 427.29
  L 387.14 434.45
  A 0.79 0.79 0.0 0 0 388.47 434.38"
/>
<path stroke="#4f7490" vector-effect="non-scaling-stroke" d="
  M 364.22 458.81
  L 357.50 459.12
  A 0.65 0.65 0.0 0 0 356.94 460.07
  L 359.01 464.18
  A 1.20 1.20 0.0 0 0 360.98 464.44
  L 364.85 460.13
  A 0.79 0.79 0.0 0 0 364.22 458.81"
/>
<path stroke="#4f7490" vector-effect="non-scaling-stroke" d="
  M 70.40 472.66
  Q 64.40 472.72 59.96 471.19
  A 1.38 1.37 -74.7 0 0 58.16 472.22
  L 53.36 496.57
  A 1.17 1.16 12.6 0 0 54.22 497.92
  Q 60.34 499.41 67.42 499.23
  A 0.60 0.60 0.0 0 0 68.00 498.65
  Q 68.45 487.04 71.07 473.47
  A 0.68 0.68 0.0 0 0 70.40 472.66"
/>
<path stroke="#4f7490" vector-effect="non-scaling-stroke" d="
  M 340.13 491.49
  A 0.94 0.94 0.0 0 0 339.23 490.14
  L 332.84 490.48
  A 0.94 0.94 0.0 0 0 332.09 491.91
  L 335.59 497.65
  A 0.94 0.94 0.0 0 0 337.24 497.56
  L 340.13 491.49"
/>
<path stroke="#4f7490" vector-effect="non-scaling-stroke" d="
  M 493.33 794.65
  A 0.45 0.44 -20.6 0 0 494.13 795.01
  Q 500.83 785.28 503.45 773.32
  Q 503.81 771.69 505.01 770.98
  A 2.64 2.52 -35.7 0 1 508.27 771.44
  Q 509.93 773.33 511.27 776.31
  Q 519.14 793.92 518.90 814.16
  A 0.42 0.42 0.0 0 0 519.70 814.36
  C 526.89 800.31 526.59 782.59 522.07 767.94
  C 518.60 756.71 514.20 747.66 510.08 738.29
  C 507.18 731.68 503.98 726.40 500.77 721.48
  Q 499.96 720.24 500.28 719.01
  A 1.82 1.80 -69.0 0 1 502.85 717.85
  C 509.46 721.26 515.41 729.26 519.20 735.55
  A 4.62 4.38 -86.9 0 0 520.16 736.68
  Q 524.79 740.64 526.83 742.44
  Q 539.47 753.65 548.21 767.80
  Q 553.34 776.11 555.30 785.13
  A 0.26 0.26 0.0 0 0 555.79 785.18
  Q 557.21 782.17 557.65 778.71
  Q 559.82 761.73 550.23 748.09
  C 540.97 734.93 531.24 724.38 519.34 711.93
  Q 516.38 708.83 492.29 684.20
  C 489.45 681.30 484.31 676.06 483.78 672.75
  Q 482.95 667.58 487.86 665.82
  C 517.83 655.11 546.78 643.66 572.79 628.27
  C 588.10 619.21 603.40 608.05 614.98 593.79
  C 621.71 585.52 622.39 574.54 615.93 565.94
  Q 612.63 561.56 608.24 557.83
  C 602.16 552.67 595.67 547.98 588.57 543.61
  Q 572.83 533.93 543.65 520.33
  Q 512.58 505.84 487.13 499.76
  Q 481.34 498.38 470.88 496.68
  A 1.86 1.84 -54.0 0 0 469.72 496.87
  Q 468.68 497.44 467.54 499.04
  C 462.61 505.96 459.28 511.89 455.88 519.34
  C 451.19 529.64 443.32 538.86 434.48 545.92
  A 0.65 0.65 0.0 0 0 434.47 546.92
  C 450.22 560.26 470.88 566.32 491.40 570.08
  Q 513.71 574.16 536.25 575.02
  Q 541.89 575.23 549.73 574.31
  A 0.70 0.70 0.0 0 0 550.30 573.19
  L 550.13 572.97
  A 0.39 0.38 82.8 0 0 549.98 572.85
  Q 544.92 570.90 537.45 566.83
  Q 532.32 564.04 530.08 562.07
  A 1.88 1.87 11.7 0 1 529.53 561.24
  Q 528.77 558.89 530.48 557.07
  A 1.50 1.48 21.3 0 1 531.57 556.60
  Q 534.06 556.60 536.22 557.55
  Q 547.51 562.49 554.42 565.17
  C 559.96 567.31 567.52 568.33 572.57 569.90
  Q 576.51 571.14 578.54 573.94
  C 580.13 576.13 580.40 578.82 578.28 580.75
  Q 577.12 581.80 572.96 581.92
  Q 563.15 582.20 551.14 583.66
  Q 539.83 585.04 531.16 591.41
  C 520.75 599.06 514.85 608.29 509.16 618.93
  Q 496.91 641.82 473.16 651.63
  Q 467.35 654.03 459.56 656.81
  Q 453.91 658.83 449.92 662.13
  C 444.50 666.63 446.15 671.37 450.08 676.66
  C 455.18 683.51 460.92 688.00 465.72 694.48
  Q 481.39 715.65 490.12 743.70
  Q 496.94 765.64 495.04 786.10
  C 494.74 789.35 494.14 791.56 493.33 794.65"
/>
<path stroke="#4f7490" vector-effect="non-scaling-stroke" d="
  M 68.05 509.15
  A 0.63 0.63 0.0 0 0 67.32 508.55
  Q 59.70 509.91 52.29 508.70
  A 0.38 0.38 0.0 0 0 51.85 509.06
  Q 51.13 522.66 52.07 534.94
  A 1.11 1.10 -2.0 0 0 53.16 535.95
  Q 61.33 536.03 69.75 532.71
  A 0.86 0.86 0.0 0 0 70.28 531.76
  Q 68.20 520.22 68.05 509.15"
/>
<path stroke="#4f7490" vector-effect="non-scaling-stroke" d="
  M 311.05 534.79
  A 0.40 0.40 0.0 0 0 311.69 534.84
  L 316.15 529.75
  A 0.84 0.84 0.0 0 0 315.51 528.36
  L 309.59 528.36
  A 0.71 0.70 -4.2 0 0 308.89 529.16
  Q 309.29 531.90 311.05 534.79"
/>
<path stroke="#4f7490" vector-effect="non-scaling-stroke" d="
  M 324.18 539.86
  A 0.47 0.46 66.4 0 0 323.34 539.53
  Q 317.96 547.05 309.23 557.77
  C 306.25 561.44 302.44 563.83 304.56 567.43
  Q 311.62 579.40 317.64 586.61
  A 0.34 0.34 0.0 0 0 318.24 586.43
  L 324.18 539.86"
/>
<path stroke="#4f7490" vector-effect="non-scaling-stroke" d="
  M 54.45 546.70
  A 0.59 0.58 -5.9 0 0 53.87 547.41
  Q 56.68 560.24 61.12 571.37
  A 1.16 1.15 -18.4 0 0 62.51 572.06
  Q 72.55 569.34 80.62 561.23
  A 0.81 0.81 0.0 0 0 80.76 560.29
  Q 76.16 551.60 73.09 542.16
  A 0.67 0.66 -25.1 0 0 72.10 541.81
  Q 64.25 546.78 54.45 546.70"
/>
<path stroke="#4f7490" vector-effect="non-scaling-stroke" d="
  M 285.61 566.41
  A 0.82 0.82 0.0 0 0 285.14 564.97
  L 279.15 564.48
  A 1.24 1.24 0.0 0 0 277.86 566.08
  L 279.23 570.65
  A 0.68 0.68 0.0 0 0 280.32 570.97
  L 285.61 566.41"
/>
<path stroke="#4f7490" vector-effect="non-scaling-stroke" d="
  M 86.34 606.09
  Q 95.95 598.46 102.23 588.79
  A 1.14 1.14 0.0 0 0 102.03 587.31
  Q 93.43 579.68 86.85 570.49
  A 1.07 1.07 0.0 0 0 85.18 570.40
  Q 77.40 579.17 66.48 581.41
  A 0.41 0.41 0.0 0 0 66.20 582.01
  C 71.03 590.79 77.35 599.75 85.29 606.09
  A 0.85 0.84 44.7 0 0 86.34 606.09"
/>
<path stroke="#4f7490" vector-effect="non-scaling-stroke" d="
  M 316.94 595.95
  C 307.89 590.60 301.75 582.73 295.16 574.25
  A 0.68 0.67 -41.8 0 0 294.15 574.20
  Q 284.05 584.56 272.91 592.55
  A 2.76 2.75 68.6 0 0 271.78 595.16
  Q 274.54 615.90 291.59 625.81
  A 3.07 3.06 -43.3 0 0 294.54 625.89
  Q 303.01 621.51 312.17 615.43
  Q 314.80 613.69 315.14 611.86
  Q 316.67 603.72 317.44 596.95
  A 1.03 1.01 18.8 0 0 316.94 595.95"
/>
<path stroke="#4f7490" vector-effect="non-scaling-stroke" d="
  M 245.36 595.28
  L 249.64 592.81
  A 0.53 0.52 -47.7 0 0 249.60 591.88
  L 246.04 590.26
  A 1.23 1.22 -77.8 0 0 244.31 591.38
  L 244.31 594.68
  A 0.70 0.70 0.0 0 0 245.36 595.28"
/>
<path stroke="#4f7490" vector-effect="non-scaling-stroke" d="
  M 92.50 614.18
  Q 93.53 615.45 94.77 616.49
  Q 107.61 627.25 122.94 634.74
  A 0.70 0.69 -61.4 0 0 123.84 634.47
  Q 130.77 622.66 135.38 608.28
  A 0.59 0.59 0.0 0 0 135.04 607.55
  Q 122.62 602.39 111.92 595.13
  A 1.02 1.01 32.6 0 0 110.49 595.44
  Q 103.70 606.41 92.63 613.40
  A 0.53 0.53 0.0 0 0 92.50 614.18"
/>
<path stroke="#4f7490" vector-effect="non-scaling-stroke" d="
  M 281.80 632.52
  A 0.47 0.47 0.0 0 0 281.85 631.69
  C 271.05 625.03 264.65 613.08 262.03 600.94
  A 0.81 0.81 0.0 0 0 260.83 600.41
  Q 247.67 608.03 233.11 612.72
  A 2.14 2.13 -9.2 0 0 231.62 614.78
  C 231.70 626.30 232.76 636.44 239.04 646.36
  A 1.09 1.09 0.0 0 0 240.20 646.84
  Q 261.30 641.92 281.80 632.52"
/>
<path stroke="#4f7490" vector-effect="non-scaling-stroke" d="
  M 166.81 604.64
  Q 167.65 604.80 167.76 604.77
  A 0.54 0.53 -35.0 0 0 167.93 603.82
  Q 166.94 603.11 166.60 603.60
  A 0.71 0.55 -63.8 0 0 166.81 604.64"
/>
<path stroke="#4f7490" vector-effect="non-scaling-stroke" d="
  M 206.57 605.26
  Q 208.16 605.09 208.20 605.08
  A 0.41 0.41 0.0 0 0 208.38 604.43
  Q 207.86 603.82 206.43 603.96
  Q 205.01 604.11 204.62 604.81
  A 0.41 0.41 0.0 0 0 204.93 605.42
  Q 204.97 605.42 206.57 605.26"
/>
<path stroke="#4f7490" vector-effect="non-scaling-stroke" d="
  M 176.33 618.10
  Q 160.55 616.64 146.92 612.16
  A 0.91 0.90 16.7 0 0 145.77 612.77
  Q 141.82 626.89 133.01 637.96
  A 0.94 0.94 0.0 0 0 133.38 639.41
  Q 151.54 647.14 170.92 650.19
  A 0.48 0.48 0.0 0 0 171.46 649.81
  Q 172.75 642.69 175.86 628.08
  Q 176.59 624.63 176.96 618.83
  A 0.69 0.69 0.0 0 0 176.33 618.10"
/>
<path stroke="#4f7490" vector-effect="non-scaling-stroke" d="
  M 229.19 647.97
  C 222.60 639.08 220.63 627.36 220.50 616.42
  A 0.45 0.45 0.0 0 0 219.93 616.00
  Q 217.14 616.81 213.76 617.29
  Q 201.85 618.96 190.72 619.04
  A 0.66 0.66 0.0 0 0 190.08 619.59
  Q 189.54 622.97 189.28 624.93
  Q 187.47 638.96 180.71 650.91
  A 0.31 0.31 0.0 0 0 180.96 651.37
  Q 204.66 653.28 228.85 648.85
  A 0.56 0.55 66.5 0 0 229.19 647.97"
/>
<path stroke="#4f7490" vector-effect="non-scaling-stroke" d="
  M 490.42 351.18
  C 489.48 355.22 491.19 359.50 493.22 363.07
  C 501.74 378.04 517.56 387.44 534.27 390.98
  Q 539.21 392.03 546.74 391.94
  Q 555.15 391.84 560.96 386.81
  Q 563.70 384.44 562.99 381.58
  A 2.75 2.46 -13.8 0 0 559.74 379.85
  Q 548.41 382.59 537.71 380.34
  C 523.02 377.25 509.50 369.77 500.38 357.87
  Q 496.15 352.35 495.83 351.99
  Q 493.73 349.62 491.02 350.52
  A 0.90 0.90 0.0 0 0 490.42 351.18"
/>
<path stroke="#4f7490" vector-effect="non-scaling-stroke" d="
  M 550.39 413.51
  Q 549.97 410.81 546.59 410.88
  C 532.57 411.19 518.78 411.81 505.95 406.88
  C 493.63 402.14 484.88 394.23 476.42 384.12
  Q 474.74 382.11 472.22 382.61
  A 1.77 1.77 0.0 0 0 470.95 383.63
  Q 470.01 385.74 470.56 387.24
  C 475.47 400.51 486.19 410.58 499.03 416.18
  Q 517.43 424.21 537.60 420.66
  C 541.96 419.89 547.49 418.33 550.18 414.45
  A 1.32 1.31 -32.6 0 0 550.39 413.51"
/>
<path stroke="#4f7490" vector-effect="non-scaling-stroke" d="
  M 530.00 435.45
  Q 528.77 434.73 526.76 434.83
  Q 517.93 435.30 508.48 435.31
  Q 490.29 435.35 475.36 424.39
  C 468.89 419.64 464.68 413.50 460.36 406.68
  Q 459.32 405.05 457.59 404.53
  A 2.23 2.21 -68.9 0 0 454.97 405.71
  C 453.29 409.21 455.46 414.34 457.08 417.41
  C 465.97 434.35 480.91 444.15 499.87 445.22
  C 510.40 445.81 521.62 443.79 530.08 438.00
  A 1.52 1.51 -47.0 0 0 530.00 435.45"
/>
<path stroke="#4f7490" vector-effect="non-scaling-stroke" d="
  M 353.97 640.92
  Q 354.85 640.32 355.69 638.93
  Q 370.66 614.25 381.49 586.73
  C 387.29 572.01 391.68 556.13 390.44 540.01
  Q 390.11 535.79 388.63 531.91
  Q 387.89 529.94 385.65 529.80
  A 1.65 1.65 0.0 0 0 383.91 531.65
  C 385.63 545.76 380.80 561.05 375.74 575.00
  Q 370.20 590.30 352.73 630.18
  A 3.84 3.50 65.6 0 0 352.50 630.89
  Q 351.45 635.90 352.16 640.14
  A 1.17 1.17 0.0 0 0 353.97 640.92"
/>
<path stroke="#4f7490" vector-effect="non-scaling-stroke" d="
  M 321.32 690.66
  Q 322.79 691.13 324.63 690.62
  C 330.71 688.93 337.42 683.26 337.77 676.44
  C 337.91 673.80 335.27 671.69 333.08 674.10
  Q 326.73 681.11 320.86 689.26
  A 0.91 0.91 0.0 0 0 321.32 690.66"
/>
<path stroke="#4f7490" vector-effect="non-scaling-stroke" d="
  M 216.95 712.15
  Q 215.54 713.59 215.04 714.80
  Q 208.43 730.73 195.31 760.32
  Q 194.30 762.58 194.44 764.60
  A 2.01 1.96 -2.4 0 0 196.47 766.42
  C 199.50 766.37 203.08 759.50 204.51 756.53
  Q 219.09 726.46 220.39 723.66
  C 221.96 720.27 224.30 711.70 218.08 711.68
  A 1.60 1.56 21.7 0 0 216.95 712.15"
/>
</g>
<g fill="#78a3cb">
<path d="
  M 345.41 143.74
  Q 268.11 122.52 191.85 141.56
  C 165.31 148.18 136.84 159.69 111.86 172.07
  A 0.43 0.43 0.0 0 1 111.28 171.50
  Q 115.45 162.66 117.10 153.29
  Q 122.88 120.33 107.42 91.06
  C 94.20 66.04 73.88 44.69 50.99 28.02
  Q 40.96 20.72 29.76 15.23
  A 0.60 0.60 0.0 0 1 29.97 14.10
  C 47.95 12.50 65.66 12.68 84.65 14.62
  Q 140.34 20.30 192.81 39.88
  C 251.83 61.90 303.71 96.79 345.88 142.98
  A 0.47 0.46 -13.3 0 1 345.41 143.74
  Z"
/>
<path d="
  M 804.00 299.39
  A 2.26 2.23 5.2 0 1 802.50 300.62
  C 795.72 302.31 786.62 301.49 779.49 300.25
  Q 739.75 293.37 710.19 265.75
  C 696.61 253.06 682.13 233.63 673.19 223.05
  C 661.19 208.86 647.04 195.96 632.95 184.81
  Q 625.53 178.93 617.09 174.18
  Q 585.35 156.31 551.48 149.01
  Q 526.34 143.58 504.23 142.49
  Q 493.68 141.96 476.82 142.14
  Q 473.84 142.17 470.85 141.24
  A 3.57 3.56 -15.1 0 1 469.44 140.43
  Q 465.07 136.36 464.36 131.63
  C 462.75 120.86 468.31 111.06 475.82 103.79
  Q 490.87 89.24 509.48 83.71
  Q 527.03 78.49 546.25 78.22
  C 619.34 77.20 691.70 107.64 746.06 155.67
  Q 754.88 163.46 768.04 178.46
  Q 780.88 193.08 791.30 213.18
  C 803.75 237.21 809.80 264.38 806.32 290.81
  Q 805.68 295.70 804.00 299.39
  Z"
/>
<path d="
  M 876.67 112.67
  A 0.49 0.49 0.0 0 1 877.04 113.54
  C 866.83 121.51 857.77 130.20 849.70 140.18
  Q 822.11 174.30 808.22 216.31
  A 0.51 0.50 43.6 0 1 807.27 216.33
  Q 805.82 212.71 803.78 208.95
  C 794.11 191.13 781.73 173.11 767.33 158.03
  A 0.64 0.64 0.0 0 1 767.44 157.05
  Q 777.50 150.48 785.43 145.70
  Q 827.88 120.13 876.67 112.67
  Z"
/>
<path d="
  M 253.18 519.32
  Q 253.16 517.90 253.32 515.84
  C 254.22 504.78 246.79 493.82 237.40 488.51
  C 233.39 486.24 228.28 483.22 223.84 485.16
  Q 220.62 486.57 218.55 487.70
  C 200.64 497.50 190.16 516.76 191.04 537.23
  A 0.49 0.49 0.0 0 1 190.12 537.48
  C 178.59 516.66 192.80 497.12 205.37 481.39
  C 206.56 479.90 207.00 477.64 206.23 475.70
  C 203.52 468.86 192.61 474.39 188.10 476.11
  Q 165.58 484.70 152.14 504.63
  Q 149.18 509.03 146.70 514.97
  Q 146.45 515.57 146.12 515.85
  A 0.50 0.50 0.0 0 1 145.29 515.46
  Q 145.40 512.30 145.34 510.25
  Q 144.84 491.89 157.89 479.93
  C 170.93 467.97 189.52 463.51 205.34 457.82
  Q 220.73 452.29 231.76 443.02
  Q 240.26 435.89 248.80 426.80
  Q 249.11 426.47 285.70 387.45
  Q 297.36 375.01 311.06 363.29
  C 319.49 356.08 328.97 352.23 339.42 349.88
  Q 350.81 347.31 382.54 339.24
  Q 408.34 332.68 430.61 325.07
  Q 432.73 324.35 433.81 323.50
  A 0.80 0.79 -43.0 0 0 433.86 322.28
  Q 431.37 320.03 427.94 318.79
  Q 406.08 310.95 383.28 301.24
  Q 373.88 297.24 365.84 292.26
  C 353.18 284.43 349.01 269.41 348.15 254.61
  C 346.63 228.46 348.37 203.11 355.65 177.93
  Q 358.49 168.09 364.43 160.17
  Q 365.51 158.73 373.37 149.38
  Q 379.68 141.86 382.24 132.56
  A 0.66 0.66 0.0 0 1 383.51 132.54
  Q 386.86 143.48 383.13 154.11
  Q 381.37 159.12 375.93 167.69
  C 367.67 180.68 363.37 193.96 363.20 209.56
  Q 363.05 223.25 365.60 235.37
  C 369.13 252.14 376.22 263.43 391.46 270.56
  C 404.97 276.88 418.11 281.46 431.56 285.32
  C 443.97 288.88 456.34 293.76 468.03 298.97
  C 479.09 303.91 488.90 307.98 495.08 318.16
  Q 500.18 326.56 502.99 330.75
  C 504.76 333.38 507.61 337.00 510.98 336.65
  C 519.23 335.78 509.91 320.15 507.69 316.75
  C 502.08 308.16 498.99 302.68 491.44 297.56
  Q 479.32 289.35 465.54 284.85
  A 0.62 0.61 -48.8 0 1 465.47 283.71
  Q 476.48 278.39 489.59 276.40
  C 496.40 275.36 500.80 274.87 506.46 275.99
  Q 519.98 278.69 531.23 285.71
  C 538.99 290.56 543.24 295.94 547.43 304.06
  C 549.13 307.34 552.78 306.52 554.48 303.84
  C 558.86 296.89 548.83 286.07 544.21 281.74
  A 0.68 0.68 0.0 0 1 544.60 280.57
  C 558.63 279.00 574.38 275.08 585.31 266.72
  C 595.50 258.93 602.93 246.95 605.86 234.34
  Q 606.65 230.92 607.60 226.01
  A 0.47 0.47 0.0 0 1 608.39 225.75
  C 616.25 233.14 620.28 243.45 616.71 254.27
  C 611.41 270.30 601.10 283.75 590.08 297.10
  Q 588.51 298.99 584.65 301.85
  Q 583.62 302.60 584.01 304.55
  A 0.60 0.60 0.0 0 0 584.68 305.03
  Q 589.63 304.29 594.53 300.77
  C 605.57 292.84 614.34 282.68 621.03 271.01
  C 630.16 255.07 634.33 241.92 623.89 225.86
  C 619.48 219.07 614.58 214.75 608.04 209.38
  A 1.18 1.17 -68.3 0 1 607.61 208.37
  L 609.50 185.45
  A 0.60 0.60 0.0 0 1 610.39 184.98
  Q 622.50 191.94 632.70 200.92
  A 1.22 1.22 0.0 0 1 632.92 202.51
  C 625.28 214.13 631.24 227.26 638.32 237.20
  Q 644.58 245.99 652.34 254.65
  Q 653.90 256.39 654.62 258.77
  C 656.14 263.81 650.29 272.08 647.13 275.16
  Q 644.63 277.59 638.86 282.88
  Q 635.78 285.70 631.64 291.55
  Q 627.32 297.66 619.82 307.58
  Q 612.29 317.55 601.16 326.67
  Q 599.60 327.96 598.63 329.10
  A 2.29 2.21 -19.5 0 0 598.17 330.02
  Q 597.79 331.64 598.81 332.97
  A 1.38 1.37 75.3 0 0 599.70 333.49
  Q 601.82 333.78 603.80 332.77
  C 614.34 327.41 622.34 319.45 631.12 309.86
  Q 633.67 307.07 646.90 291.77
  A 0.55 0.55 0.0 0 1 647.87 292.16
  Q 647.33 302.52 651.59 313.42
  A 2.44 2.43 -29.4 0 1 650.79 316.26
  C 642.62 322.44 638.46 325.10 632.34 331.25
  Q 624.27 339.36 621.73 341.72
  Q 614.10 348.78 602.73 356.12
  A 2.08 1.94 2.1 0 0 602.29 356.50
  Q 601.45 357.45 601.31 358.39
  A 2.01 1.95 11.4 0 0 602.80 360.57
  C 609.81 362.39 621.37 354.85 626.92 350.91
  A 0.78 0.77 57.3 0 1 628.04 351.16
  L 630.86 356.04
  A 0.74 0.72 -60.9 0 1 630.96 356.41
  C 631.46 370.32 624.10 379.72 611.70 384.45
  Q 608.60 385.63 598.38 389.12
  C 596.13 389.89 591.26 393.16 594.57 395.71
  C 600.02 399.92 613.16 395.79 618.79 393.29
  A 0.46 0.45 89.3 0 1 619.39 393.88
  C 614.51 405.79 607.23 414.78 593.81 416.27
  Q 591.61 416.52 582.27 416.98
  Q 580.99 417.04 579.77 418.42
  C 577.08 421.43 583.79 424.48 585.71 425.06
  Q 591.26 426.73 597.14 426.55
  A 0.36 0.36 0.0 0 1 597.45 427.11
  C 593.64 432.84 586.50 440.12 579.01 439.53
  Q 576.87 439.36 567.30 438.82
  Q 565.53 438.72 564.68 440.55
  Q 564.09 441.82 565.85 443.64
  Q 569.25 447.14 570.74 447.70
  A 1.03 1.03 0.0 0 1 571.10 449.39
  C 564.89 455.66 554.82 457.20 546.46 456.02
  A 0.69 0.69 0.0 0 1 546.12 454.81
  C 552.05 449.91 554.93 446.17 561.09 438.87
  Q 566.63 432.33 574.00 418.99
  Q 585.49 398.19 587.00 374.50
  C 587.71 363.30 584.73 351.37 576.64 342.93
  Q 574.70 340.90 572.39 340.35
  A 2.69 2.19 13.9 0 0 569.28 341.82
  Q 568.97 343.00 569.69 344.35
  Q 578.07 360.09 574.89 377.72
  Q 569.77 406.07 553.56 430.17
  A 11.66 11.41 -5.1 0 1 551.90 432.11
  Q 546.16 437.50 537.44 445.10
  C 528.47 452.91 514.24 460.17 501.70 461.48
  Q 501.06 461.55 500.87 461.30
  Q 500.66 461.02 500.88 460.45
  A 0.76 0.76 0.0 0 0 500.15 459.42
  C 495.25 459.56 486.86 460.47 480.95 459.93
  Q 462.48 458.23 449.60 443.86
  Q 446.44 440.34 443.03 435.73
  Q 441.92 434.23 440.23 434.31
  A 2.02 1.96 -60.5 0 0 439.31 434.58
  C 433.28 438.09 441.82 450.67 444.76 453.99
  C 452.42 462.66 464.53 470.15 476.34 470.80
  A 0.47 0.46 23.7 0 1 476.65 471.59
  Q 467.04 481.22 458.15 490.90
  C 453.92 495.51 450.85 499.31 447.75 505.29
  C 444.39 511.77 441.64 518.09 437.74 523.15
  Q 433.99 528.00 430.06 531.49
  A 0.45 0.45 0.0 0 1 429.31 531.15
  L 429.31 522.66
  A 12.38 12.12 54.4 0 1 429.88 518.96
  C 436.48 498.08 441.94 476.89 427.17 458.92
  Q 424.71 455.94 422.22 454.68
  A 2.83 2.49 34.1 0 0 419.07 455.08
  Q 417.87 456.33 419.19 458.33
  Q 428.67 472.66 427.31 488.48
  Q 426.72 495.27 425.53 501.27
  A 0.44 0.44 0.0 0 1 424.68 501.34
  C 420.80 491.22 413.23 482.30 402.73 478.53
  C 400.40 477.69 398.15 479.70 398.74 482.06
  Q 398.94 482.85 400.94 484.97
  Q 412.91 497.68 415.67 515.33
  C 418.53 533.60 416.71 552.76 412.63 570.89
  C 406.82 596.73 396.33 622.55 381.58 644.34
  C 376.36 652.04 369.95 658.47 362.96 664.95
  C 360.66 667.09 359.57 668.79 359.15 672.05
  C 358.68 675.61 358.52 677.36 357.58 680.52
  C 354.06 692.34 343.18 703.09 331.00 706.50
  C 325.71 707.99 319.94 708.62 313.85 708.87
  Q 302.14 709.35 271.43 710.61
  Q 259.33 711.11 245.37 712.85
  C 241.80 713.29 236.81 714.50 234.40 717.64
  Q 232.85 719.68 231.12 724.36
  Q 222.78 747.06 220.91 769.38
  C 219.57 785.32 218.61 796.18 213.68 808.28
  C 209.53 818.45 201.82 828.01 193.32 835.31
  Q 191.18 837.14 189.23 838.09
  A 0.34 0.34 0.0 0 1 188.79 837.61
  C 194.52 828.09 198.61 817.38 201.51 806.47
  C 202.24 803.72 207.33 795.20 203.00 793.57
  Q 199.88 792.39 198.27 795.29
  C 188.71 812.59 172.89 826.31 153.64 831.74
  A 0.52 0.51 -18.8 0 1 153.02 831.44
  L 152.98 831.35
  A 0.54 0.54 0.0 0 1 153.38 830.62
  Q 154.07 830.49 156.90 828.38
  Q 169.57 818.91 177.32 806.24
  C 181.09 800.08 183.74 792.24 187.36 786.09
  Q 188.07 784.88 187.85 782.87
  C 187.49 779.49 183.78 779.47 181.51 781.03
  Q 172.19 787.43 163.95 791.64
  Q 151.31 798.08 137.40 797.44
  A 0.47 0.47 0.0 0 1 137.19 796.56
  C 147.43 790.66 155.23 783.27 164.22 773.96
  Q 186.30 751.09 196.64 721.67
  C 199.35 713.96 201.67 704.17 206.69 696.22
  C 213.51 685.41 228.99 690.30 239.45 688.40
  Q 255.42 685.51 267.98 676.69
  C 276.17 670.95 281.32 666.76 287.87 664.68
  C 295.99 662.09 304.96 663.38 313.69 664.80
  A 1.60 1.60 0.0 0 0 315.49 663.64
  Q 324.08 632.89 328.42 599.99
  Q 331.30 578.15 334.18 556.19
  Q 336.89 535.53 338.08 530.25
  Q 341.03 517.20 346.62 505.50
  C 352.15 493.93 357.89 484.28 366.72 475.71
  C 380.47 462.36 394.23 448.97 403.30 434.82
  C 408.32 426.98 410.21 421.94 413.01 414.06
  C 415.79 406.25 419.83 400.50 426.15 395.16
  A 0.58 0.58 0.0 0 1 427.09 395.51
  Q 428.56 404.06 432.55 411.72
  C 434.22 414.93 435.25 417.16 438.93 416.64
  A 0.92 0.91 -5.5 0 0 439.72 415.69
  Q 439.50 410.00 439.34 400.44
  Q 439.08 384.17 452.52 375.77
  Q 464.99 367.98 470.95 363.94
  Q 472.78 362.70 473.68 361.47
  A 2.10 1.60 -50.8 0 0 473.76 359.00
  Q 472.60 357.89 471.38 357.68
  A 1.82 1.77 38.8 0 0 470.45 357.77
  Q 448.13 366.20 442.37 368.11
  Q 433.60 371.01 423.26 372.56
  Q 390.40 377.49 351.75 378.84
  C 349.74 378.91 344.91 379.01 342.98 380.99
  Q 327.72 396.77 308.44 409.20
  Q 279.38 427.94 276.19 429.95
  Q 268.48 434.82 258.68 443.17
  Q 250.80 449.87 247.08 459.61
  C 243.99 467.71 244.46 474.73 249.00 482.00
  C 252.34 487.34 256.40 492.24 257.93 497.42
  Q 261.35 509.08 253.95 519.56
  A 0.42 0.42 0.0 0 1 253.18 519.32
  Z
  M 490.42 351.18
  C 489.48 355.22 491.19 359.50 493.22 363.07
  C 501.74 378.04 517.56 387.44 534.27 390.98
  Q 539.21 392.03 546.74 391.94
  Q 555.15 391.84 560.96 386.81
  Q 563.70 384.44 562.99 381.58
  A 2.75 2.46 -13.8 0 0 559.74 379.85
  Q 548.41 382.59 537.71 380.34
  C 523.02 377.25 509.50 369.77 500.38 357.87
  Q 496.15 352.35 495.83 351.99
  Q 493.73 349.62 491.02 350.52
  A 0.90 0.90 0.0 0 0 490.42 351.18
  Z
  M 550.39 413.51
  Q 549.97 410.81 546.59 410.88
  C 532.57 411.19 518.78 411.81 505.95 406.88
  C 493.63 402.14 484.88 394.23 476.42 384.12
  Q 474.74 382.11 472.22 382.61
  A 1.77 1.77 0.0 0 0 470.95 383.63
  Q 470.01 385.74 470.56 387.24
  C 475.47 400.51 486.19 410.58 499.03 416.18
  Q 517.43 424.21 537.60 420.66
  C 541.96 419.89 547.49 418.33 550.18 414.45
  A 1.32 1.31 -32.6 0 0 550.39 413.51
  Z
  M 530.00 435.45
  Q 528.77 434.73 526.76 434.83
  Q 517.93 435.30 508.48 435.31
  Q 490.29 435.35 475.36 424.39
  C 468.89 419.64 464.68 413.50 460.36 406.68
  Q 459.32 405.05 457.59 404.53
  A 2.23 2.21 -68.9 0 0 454.97 405.71
  C 453.29 409.21 455.46 414.34 457.08 417.41
  C 465.97 434.35 480.91 444.15 499.87 445.22
  C 510.40 445.81 521.62 443.79 530.08 438.00
  A 1.52 1.51 -47.0 0 0 530.00 435.45
  Z
  M 353.97 640.92
  Q 354.85 640.32 355.69 638.93
  Q 370.66 614.25 381.49 586.73
  C 387.29 572.01 391.68 556.13 390.44 540.01
  Q 390.11 535.79 388.63 531.91
  Q 387.89 529.94 385.65 529.80
  A 1.65 1.65 0.0 0 0 383.91 531.65
  C 385.63 545.76 380.80 561.05 375.74 575.00
  Q 370.20 590.30 352.73 630.18
  A 3.84 3.50 65.6 0 0 352.50 630.89
  Q 351.45 635.90 352.16 640.14
  A 1.17 1.17 0.0 0 0 353.97 640.92
  Z
  M 321.32 690.66
  Q 322.79 691.13 324.63 690.62
  C 330.71 688.93 337.42 683.26 337.77 676.44
  C 337.91 673.80 335.27 671.69 333.08 674.10
  Q 326.73 681.11 320.86 689.26
  A 0.91 0.91 0.0 0 0 321.32 690.66
  Z
  M 216.95 712.15
  Q 215.54 713.59 215.04 714.80
  Q 208.43 730.73 195.31 760.32
  Q 194.30 762.58 194.44 764.60
  A 2.01 1.96 -2.4 0 0 196.47 766.42
  C 199.50 766.37 203.08 759.50 204.51 756.53
  Q 219.09 726.46 220.39 723.66
  C 221.96 720.27 224.30 711.70 218.08 711.68
  A 1.60 1.56 21.7 0 0 216.95 712.15
  Z"
/>
<path d="
  M 204.42 311.77
  Q 207.28 289.86 204.85 267.39
  Q 203.72 256.93 199.60 244.54
  C 192.27 222.44 175.91 204.02 154.76 195.01
  Q 136.27 187.12 116.55 184.88
  A 0.33 0.33 0.0 0 1 116.44 184.26
  Q 141.70 172.10 166.19 163.18
  Q 188.44 155.07 213.68 150.14
  C 249.80 143.09 286.13 144.01 321.30 151.47
  Q 332.73 153.89 343.50 156.66
  A 0.52 0.52 0.0 0 1 343.71 157.57
  Q 319.48 177.90 294.93 202.21
  Q 272.69 224.24 250.75 251.33
  Q 226.80 280.91 205.49 311.50
  Q 205.19 311.93 204.88 312.09
  A 0.32 0.31 -10.0 0 1 204.42 311.77
  Z"
/>
<path d="
  M 504.50 154.66
  Q 504.70 154.17 505.28 154.27
  C 510.11 155.13 514.21 155.00 519.26 155.65
  Q 530.83 157.16 541.40 159.48
  A 0.45 0.45 0.0 0 1 541.75 159.92
  L 541.75 171.99
  A 0.30 0.29 -75.3 0 1 541.31 172.25
  Q 523.52 162.17 504.64 154.99
  A 0.25 0.25 0.0 0 1 504.50 154.66
  Z"
/>
<path d="
  M 568.50 186.94
  Q 557.53 180.82 556.10 180.09
  Q 552.15 178.07 551.84 173.90
  Q 551.43 168.28 552.23 162.88
  A 0.82 0.81 11.6 0 1 553.25 162.21
  L 572.11 167.24
  A 0.66 0.66 0.0 0 1 572.52 168.19
  Q 567.86 176.73 569.03 186.58
  A 0.36 0.36 0.0 0 1 568.50 186.94
  Z"
/>
<path d="
  M 596.75 204.34
  A 0.38 0.38 0.0 0 1 596.16 204.67
  Q 590.89 200.99 584.50 196.94
  C 581.12 194.80 580.43 193.27 579.74 189.49
  C 578.64 183.39 580.25 177.95 582.06 172.06
  A 0.87 0.87 0.0 0 1 583.25 171.52
  L 599.10 178.74
  A 0.98 0.98 0.0 0 1 599.63 179.93
  Q 596.27 190.51 596.75 204.34
  Z"
/>
<path d="
  M 218.46 314.49
  A 0.42 0.42 0.0 0 1 217.98 313.84
  Q 237.43 288.01 250.89 270.63
  Q 292.40 216.99 343.70 173.73
  Q 343.99 173.48 344.37 173.50
  A 0.42 0.41 9.1 0 1 344.75 174.02
  C 337.37 201.54 334.35 230.54 336.98 259.04
  C 338.68 277.50 345.19 293.10 360.75 303.01
  C 372.55 310.53 386.51 315.66 399.96 320.12
  A 0.56 0.56 0.0 0 1 399.96 321.19
  Q 387.22 325.46 373.88 329.33
  C 356.04 334.51 336.07 337.94 319.06 344.58
  A 1.41 1.39 56.9 0 1 317.56 344.25
  Q 311.61 338.15 306.07 332.96
  C 290.47 318.36 268.72 308.69 247.25 309.22
  Q 232.47 309.59 218.46 314.49
  Z"
/>
<path d="
  M 435.10 204.14
  A 0.37 0.37 0.0 0 1 435.64 203.79
  C 460.50 216.00 484.12 237.31 493.77 263.80
  A 1.00 0.99 -14.5 0 1 492.99 265.12
  C 482.91 266.66 472.51 268.34 462.76 272.44
  A 0.30 0.29 -10.3 0 1 462.35 272.16
  C 463.08 247.27 451.11 224.12 435.36 204.91
  Q 435.13 204.63 435.10 204.14
  Z"
/>
<path d="
  M 641.19 210.24
  A 0.64 0.64 0.0 0 1 642.22 209.81
  Q 651.81 217.61 659.62 226.98
  Q 686.61 259.38 687.47 260.38
  Q 698.17 272.69 708.33 281.33
  A 1.51 1.51 0.0 0 1 707.68 283.95
  Q 700.33 285.59 697.63 292.42
  Q 695.20 298.57 695.38 304.26
  C 695.88 320.16 698.85 338.37 707.20 352.62
  Q 715.13 366.14 726.50 377.53
  C 733.07 384.12 741.14 388.30 749.65 390.58
  A 0.56 0.55 36.2 0 1 749.81 391.58
  C 741.68 396.78 732.96 400.29 723.18 398.09
  C 712.25 395.64 707.52 382.77 702.87 372.89
  C 694.83 355.76 683.02 341.90 670.89 327.12
  Q 667.18 322.60 664.46 318.19
  C 653.77 300.83 661.62 283.05 665.41 265.44
  C 666.56 260.08 667.47 255.08 664.13 250.86
  Q 660.64 246.46 649.63 232.89
  C 644.55 226.63 640.31 218.44 641.19 210.24
  Z"
/>
<path d="
  M 526.90 222.37
  Q 531.06 225.42 531.61 225.86
  C 543.77 235.61 554.35 248.64 559.45 263.71
  A 1.20 1.20 0.0 0 1 558.61 265.25
  Q 549.27 267.67 537.67 268.77
  A 0.49 0.48 -0.0 0 1 537.14 268.25
  C 538.46 252.98 533.53 236.33 526.22 222.97
  A 0.47 0.46 -86.3 0 1 526.90 222.37
  Z"
/>
<path d="
  M 96.90 439.47
  A 0.43 0.43 0.0 0 1 96.08 439.60
  Q 93.62 434.55 91.75 430.17
  Q 91.27 429.06 88.29 427.20
  A 1.15 1.13 40.3 0 0 86.94 427.30
  Q 85.10 428.91 84.10 431.12
  Q 77.68 445.36 73.83 461.58
  A 1.63 1.62 -75.8 0 1 71.83 462.78
  L 62.99 460.42
  A 0.66 0.65 -72.7 0 1 62.54 459.56
  Q 66.94 447.44 72.65 436.87
  C 74.81 432.86 75.93 429.68 75.17 425.42
  A 2.03 2.02 89.8 0 0 73.52 423.78
  Q 69.07 423.04 64.09 423.99
  A 0.54 0.54 0.0 0 1 63.55 423.14
  Q 82.14 397.30 108.77 380.04
  Q 116.29 375.17 123.63 371.79
  A 0.51 0.51 0.0 0 1 124.26 372.55
  Q 102.29 402.95 96.90 439.47
  Z"
/>
<path d="
  M 861.45 499.56
  A 0.38 0.38 0.0 0 1 860.71 499.60
  C 858.36 490.09 853.87 477.78 847.49 470.65
  Q 837.95 459.99 824.51 457.00
  C 819.80 455.96 813.93 456.05 807.49 456.16
  Q 805.27 456.20 803.31 456.81
  A 2.92 2.91 -6.1 0 0 801.27 459.32
  C 800.09 471.90 799.82 484.40 806.73 495.35
  A 0.31 0.31 0.0 0 1 806.34 495.80
  Q 790.80 488.58 786.37 471.89
  Q 785.01 466.80 783.25 458.29
  Q 782.71 455.68 780.86 454.09
  A 1.63 1.61 -23.4 0 0 779.86 453.70
  L 775.06 453.53
  A 2.59 2.47 -51.1 0 0 774.29 453.63
  Q 729.74 467.59 721.12 470.11
  Q 693.69 478.12 684.63 480.34
  C 678.94 481.73 673.80 483.55 669.04 480.45
  Q 664.95 477.78 660.65 473.10
  Q 654.91 466.85 649.72 460.28
  Q 635.78 442.58 621.12 422.38
  Q 619.77 420.52 618.75 418.79
  A 0.92 0.91 -39.0 0 1 618.87 417.71
  Q 629.13 406.43 632.18 391.86
  A 1.70 1.52 -27.7 0 1 632.36 391.38
  L 637.29 382.65
  A 0.42 0.42 0.0 0 1 638.03 382.67
  Q 654.18 415.22 673.46 449.29
  C 675.18 452.34 677.27 451.77 680.82 451.43
  Q 717.03 448.03 754.61 440.89
  Q 768.76 438.20 778.93 434.67
  Q 798.70 427.79 810.37 410.86
  Q 815.69 403.14 817.10 401.37
  C 827.45 388.35 841.92 385.39 857.97 387.35
  A 0.43 0.43 0.0 0 1 858.04 388.19
  C 840.33 393.56 827.07 403.57 819.94 420.60
  C 817.72 425.92 817.02 430.24 822.90 432.48
  A 1.71 1.66 45.8 0 0 824.04 432.51
  C 837.35 428.06 851.51 427.01 865.16 430.43
  C 874.91 432.87 882.14 438.17 887.29 446.50
  A 0.42 0.42 0.0 0 1 886.68 447.05
  C 877.82 440.31 863.37 438.29 852.56 438.63
  Q 838.58 439.07 835.46 439.15
  A 3.18 3.17 -78.9 0 0 832.63 441.06
  Q 830.88 445.06 834.40 447.58
  Q 834.84 447.90 842.01 452.72
  C 857.71 463.29 863.90 481.25 861.45 499.56
  Z"
/>
<path d="
  M 387.14 434.45
  L 381.96 427.29
  A 0.55 0.55 0.0 0 1 382.38 426.42
  Q 386.99 426.24 391.83 427.51
  A 0.42 0.42 0.0 0 1 392.09 428.12
  L 388.47 434.38
  A 0.79 0.79 0.0 0 1 387.14 434.45
  Z"
/>
<path d="
  M 364.22 458.81
  A 0.79 0.79 0.0 0 1 364.85 460.13
  L 360.98 464.44
  A 1.20 1.20 0.0 0 1 359.01 464.18
  L 356.94 460.07
  A 0.65 0.65 0.0 0 1 357.50 459.12
  L 364.22 458.81
  Z"
/>
<path d="
  M 71.07 473.47
  Q 68.45 487.04 68.00 498.65
  A 0.60 0.60 0.0 0 1 67.42 499.23
  Q 60.34 499.41 54.22 497.92
  A 1.17 1.16 12.6 0 1 53.36 496.57
  L 58.16 472.22
  A 1.38 1.37 -74.7 0 1 59.96 471.19
  Q 64.40 472.72 70.40 472.66
  A 0.68 0.68 0.0 0 1 71.07 473.47
  Z"
/>
<path d="
  M 340.13 491.49
  L 337.24 497.56
  A 0.94 0.94 0.0 0 1 335.59 497.65
  L 332.09 491.91
  A 0.94 0.94 0.0 0 1 332.84 490.48
  L 339.23 490.14
  A 0.94 0.94 0.0 0 1 340.13 491.49
  Z"
/>
<path d="
  M 493.33 794.65
  C 494.14 791.56 494.74 789.35 495.04 786.10
  Q 496.94 765.64 490.12 743.70
  Q 481.39 715.65 465.72 694.48
  C 460.92 688.00 455.18 683.51 450.08 676.66
  C 446.15 671.37 444.50 666.63 449.92 662.13
  Q 453.91 658.83 459.56 656.81
  Q 467.35 654.03 473.16 651.63
  Q 496.91 641.82 509.16 618.93
  C 514.85 608.29 520.75 599.06 531.16 591.41
  Q 539.83 585.04 551.14 583.66
  Q 563.15 582.20 572.96 581.92
  Q 577.12 581.80 578.28 580.75
  C 580.40 578.82 580.13 576.13 578.54 573.94
  Q 576.51 571.14 572.57 569.90
  C 567.52 568.33 559.96 567.31 554.42 565.17
  Q 547.51 562.49 536.22 557.55
  Q 534.06 556.60 531.57 556.60
  A 1.50 1.48 21.3 0 0 530.48 557.07
  Q 528.77 558.89 529.53 561.24
  A 1.88 1.87 11.7 0 0 530.08 562.07
  Q 532.32 564.04 537.45 566.83
  Q 544.92 570.90 549.98 572.85
  A 0.39 0.38 82.8 0 1 550.13 572.97
  L 550.30 573.19
  A 0.70 0.70 0.0 0 1 549.73 574.31
  Q 541.89 575.23 536.25 575.02
  Q 513.71 574.16 491.40 570.08
  C 470.88 566.32 450.22 560.26 434.47 546.92
  A 0.65 0.65 0.0 0 1 434.48 545.92
  C 443.32 538.86 451.19 529.64 455.88 519.34
  C 459.28 511.89 462.61 505.96 467.54 499.04
  Q 468.68 497.44 469.72 496.87
  A 1.86 1.84 -54.0 0 1 470.88 496.68
  Q 481.34 498.38 487.13 499.76
  Q 512.58 505.84 543.65 520.33
  Q 572.83 533.93 588.57 543.61
  C 595.67 547.98 602.16 552.67 608.24 557.83
  Q 612.63 561.56 615.93 565.94
  C 622.39 574.54 621.71 585.52 614.98 593.79
  C 603.40 608.05 588.10 619.21 572.79 628.27
  C 546.78 643.66 517.83 655.11 487.86 665.82
  Q 482.95 667.58 483.78 672.75
  C 484.31 676.06 489.45 681.30 492.29 684.20
  Q 516.38 708.83 519.34 711.93
  C 531.24 724.38 540.97 734.93 550.23 748.09
  Q 559.82 761.73 557.65 778.71
  Q 557.21 782.17 555.79 785.18
  A 0.26 0.26 0.0 0 1 555.30 785.13
  Q 553.34 776.11 548.21 767.80
  Q 539.47 753.65 526.83 742.44
  Q 524.79 740.64 520.16 736.68
  A 4.62 4.38 -86.9 0 1 519.20 735.55
  C 515.41 729.26 509.46 721.26 502.85 717.85
  A 1.82 1.80 -69.0 0 0 500.28 719.01
  Q 499.96 720.24 500.77 721.48
  C 503.98 726.40 507.18 731.68 510.08 738.29
  C 514.20 747.66 518.60 756.71 522.07 767.94
  C 526.59 782.59 526.89 800.31 519.70 814.36
  A 0.42 0.42 0.0 0 1 518.90 814.16
  Q 519.14 793.92 511.27 776.31
  Q 509.93 773.33 508.27 771.44
  A 2.64 2.52 -35.7 0 0 505.01 770.98
  Q 503.81 771.69 503.45 773.32
  Q 500.83 785.28 494.13 795.01
  A 0.45 0.44 -20.6 0 1 493.33 794.65
  Z"
/>
<path d="
  M 68.05 509.15
  Q 68.20 520.22 70.28 531.76
  A 0.86 0.86 0.0 0 1 69.75 532.71
  Q 61.33 536.03 53.16 535.95
  A 1.11 1.10 -2.0 0 1 52.07 534.94
  Q 51.13 522.66 51.85 509.06
  A 0.38 0.38 0.0 0 1 52.29 508.70
  Q 59.70 509.91 67.32 508.55
  A 0.63 0.63 0.0 0 1 68.05 509.15
  Z"
/>
<path d="
  M 311.05 534.79
  Q 309.29 531.90 308.89 529.16
  A 0.71 0.70 -4.2 0 1 309.59 528.36
  L 315.51 528.36
  A 0.84 0.84 0.0 0 1 316.15 529.75
  L 311.69 534.84
  A 0.40 0.40 0.0 0 1 311.05 534.79
  Z"
/>
<path d="
  M 324.18 539.86
  L 318.24 586.43
  A 0.34 0.34 0.0 0 1 317.64 586.61
  Q 311.62 579.40 304.56 567.43
  C 302.44 563.83 306.25 561.44 309.23 557.77
  Q 317.96 547.05 323.34 539.53
  A 0.47 0.46 66.4 0 1 324.18 539.86
  Z"
/>
<path d="
  M 54.45 546.70
  Q 64.25 546.78 72.10 541.81
  A 0.67 0.66 -25.1 0 1 73.09 542.16
  Q 76.16 551.60 80.76 560.29
  A 0.81 0.81 0.0 0 1 80.62 561.23
  Q 72.55 569.34 62.51 572.06
  A 1.16 1.15 -18.4 0 1 61.12 571.37
  Q 56.68 560.24 53.87 547.41
  A 0.59 0.58 -5.9 0 1 54.45 546.70
  Z"
/>
<path d="
  M 285.61 566.41
  L 280.32 570.97
  A 0.68 0.68 0.0 0 1 279.23 570.65
  L 277.86 566.08
  A 1.24 1.24 0.0 0 1 279.15 564.48
  L 285.14 564.97
  A 0.82 0.82 0.0 0 1 285.61 566.41
  Z"
/>
<path d="
  M 86.34 606.09
  A 0.85 0.84 44.7 0 1 85.29 606.09
  C 77.35 599.75 71.03 590.79 66.20 582.01
  A 0.41 0.41 0.0 0 1 66.48 581.41
  Q 77.40 579.17 85.18 570.40
  A 1.07 1.07 0.0 0 1 86.85 570.49
  Q 93.43 579.68 102.03 587.31
  A 1.14 1.14 0.0 0 1 102.23 588.79
  Q 95.95 598.46 86.34 606.09
  Z"
/>
<path d="
  M 316.94 595.95
  A 1.03 1.01 18.8 0 1 317.44 596.95
  Q 316.67 603.72 315.14 611.86
  Q 314.80 613.69 312.17 615.43
  Q 303.01 621.51 294.54 625.89
  A 3.07 3.06 -43.3 0 1 291.59 625.81
  Q 274.54 615.90 271.78 595.16
  A 2.76 2.75 68.6 0 1 272.91 592.55
  Q 284.05 584.56 294.15 574.20
  A 0.68 0.67 -41.8 0 1 295.16 574.25
  C 301.75 582.73 307.89 590.60 316.94 595.95
  Z"
/>
<path d="
  M 245.36 595.28
  A 0.70 0.70 0.0 0 1 244.31 594.68
  L 244.31 591.38
  A 1.23 1.22 -77.8 0 1 246.04 590.26
  L 249.60 591.88
  A 0.53 0.52 -47.7 0 1 249.64 592.81
  L 245.36 595.28
  Z"
/>
<path d="
  M 92.63 613.40
  Q 103.70 606.41 110.49 595.44
  A 1.02 1.01 32.6 0 1 111.92 595.13
  Q 122.62 602.39 135.04 607.55
  A 0.59 0.59 0.0 0 1 135.38 608.28
  Q 130.77 622.66 123.84 634.47
  A 0.70 0.69 -61.4 0 1 122.94 634.74
  Q 107.61 627.25 94.77 616.49
  Q 93.53 615.45 92.50 614.18
  A 0.53 0.53 0.0 0 1 92.63 613.40
  Z"
/>
<path d="
  M 281.80 632.52
  Q 261.30 641.92 240.20 646.84
  A 1.09 1.09 0.0 0 1 239.04 646.36
  C 232.76 636.44 231.70 626.30 231.62 614.78
  A 2.14 2.13 -9.2 0 1 233.11 612.72
  Q 247.67 608.03 260.83 600.41
  A 0.81 0.81 0.0 0 1 262.03 600.94
  C 264.65 613.08 271.05 625.03 281.85 631.69
  A 0.47 0.47 0.0 0 1 281.80 632.52
  Z"
/>
<path d="
  M 166.81 604.64
  A 0.71 0.55 -63.8 0 1 166.60 603.60
  Q 166.94 603.11 167.93 603.82
  A 0.54 0.53 -35.0 0 1 167.76 604.77
  Q 167.65 604.80 166.81 604.64
  Z"
/>
<path d="
  M 206.43 603.96
  Q 207.86 603.82 208.38 604.43
  A 0.41 0.41 0.0 0 1 208.20 605.08
  Q 208.16 605.09 206.57 605.26
  Q 204.97 605.42 204.93 605.42
  A 0.41 0.41 0.0 0 1 204.62 604.81
  Q 205.01 604.11 206.43 603.96
  Z"
/>
<path d="
  M 176.96 618.83
  Q 176.59 624.63 175.86 628.08
  Q 172.75 642.69 171.46 649.81
  A 0.48 0.48 0.0 0 1 170.92 650.19
  Q 151.54 647.14 133.38 639.41
  A 0.94 0.94 0.0 0 1 133.01 637.96
  Q 141.82 626.89 145.77 612.77
  A 0.91 0.90 16.7 0 1 146.92 612.16
  Q 160.55 616.64 176.33 618.10
  A 0.69 0.69 0.0 0 1 176.96 618.83
  Z"
/>
<path d="
  M 229.19 647.97
  A 0.56 0.55 66.5 0 1 228.85 648.85
  Q 204.66 653.28 180.96 651.37
  A 0.31 0.31 0.0 0 1 180.71 650.91
  Q 187.47 638.96 189.28 624.93
  Q 189.54 622.97 190.08 619.59
  A 0.66 0.66 0.0 0 1 190.72 619.04
  Q 201.85 618.96 213.76 617.29
  Q 217.14 616.81 219.93 616.00
  A 0.45 0.45 0.0 0 1 220.50 616.42
  C 220.63 627.36 222.60 639.08 229.19 647.97
  Z"
/>
</g>
<g fill="#264455">
<path d="
  M 56.50 0.00
  Q 83.31 1.28 108.00 4.78
  Q 166.03 13.01 220.38 36.73
  Q 244.11 47.09 265.46 60.25
  C 290.68 75.80 313.44 93.18 334.32 113.70
  Q 351.19 130.28 359.72 140.51
  Q 361.21 142.29 361.51 143.18
  A 0.91 0.91 0.0 0 0 363.06 143.47
  C 366.74 139.21 371.00 133.34 371.08 127.22
  Q 371.12 123.95 369.15 118.06
  Q 367.33 112.60 362.68 105.05
  A 2.96 2.49 -73.8 0 1 362.37 104.35
  C 361.14 99.98 364.21 97.50 368.13 96.86
  A 2.22 2.14 -39.5 0 1 369.18 96.94
  Q 376.08 99.27 380.11 103.63
  Q 389.73 114.05 394.52 128.18
  Q 400.35 145.41 394.01 161.30
  C 391.37 167.92 386.63 174.14 383.27 180.27
  C 376.56 192.50 374.57 204.76 375.68 219.00
  Q 376.22 225.91 378.34 235.66
  C 379.94 243.05 383.20 251.21 389.56 255.44
  Q 396.15 259.82 402.14 262.13
  Q 416.47 267.64 427.63 270.90
  Q 438.20 273.99 448.01 277.84
  A 0.61 0.60 -70.9 0 0 448.81 277.45
  C 451.73 267.71 449.07 255.22 445.29 245.69
  Q 438.51 228.62 426.55 213.92
  Q 421.23 207.38 413.07 198.03
  Q 409.21 193.62 412.14 187.53
  A 2.10 2.03 -3.8 0 1 412.92 186.67
  Q 416.04 184.75 417.53 184.93
  C 429.31 186.34 441.43 192.01 452.89 198.96
  Q 476.06 213.02 492.03 234.47
  Q 501.61 247.33 507.17 263.91
  A 1.60 1.59 79.8 0 0 508.72 264.99
  Q 516.54 264.80 523.52 267.02
  A 1.03 1.03 0.0 0 0 524.85 266.18
  Q 525.96 258.03 523.87 249.88
  C 520.66 237.32 515.41 225.96 507.23 216.56
  Q 504.98 213.98 504.38 211.08
  A 2.38 2.35 47.1 0 1 504.41 210.05
  C 506.31 202.76 512.55 202.91 518.39 204.88
  Q 537.29 211.27 550.91 226.43
  C 559.43 235.91 565.86 246.17 571.06 259.35
  A 1.02 1.02 0.0 0 0 572.51 259.87
  Q 581.96 254.58 587.64 245.40
  Q 594.02 235.11 595.20 223.45
  C 595.47 220.69 597.21 220.08 593.98 217.81
  Q 568.71 200.09 541.79 185.22
  Q 514.16 169.95 490.21 161.71
  Q 490.18 161.70 472.98 156.01
  C 464.22 153.11 456.85 149.44 453.75 140.04
  Q 448.10 122.89 457.32 107.03
  C 464.63 94.47 474.85 86.32 487.68 78.81
  Q 494.36 74.90 502.80 72.17
  Q 513.62 68.67 518.76 67.84
  Q 519.98 67.64 527.74 66.42
  Q 532.93 65.60 536.81 65.55
  C 541.94 65.48 545.77 64.82 550.75 64.88
  Q 569.94 65.14 579.95 66.11
  C 621.03 70.11 661.70 84.66 697.52 104.51
  Q 722.44 118.33 742.07 134.71
  Q 752.94 143.77 757.16 147.46
  A 1.70 1.69 -41.4 0 0 759.23 147.58
  Q 759.77 147.21 767.34 141.87
  Q 804.99 115.33 851.26 104.28
  Q 875.87 98.40 899.58 100.26
  C 902.70 100.50 906.99 103.88 906.02 107.58
  C 905.12 111.00 903.10 112.37 899.84 114.33
  Q 888.12 121.37 882.04 126.27
  Q 877.50 129.94 866.74 140.50
  Q 860.07 147.05 853.38 156.51
  Q 845.25 168.02 837.02 181.85
  Q 831.27 191.53 827.24 201.91
  Q 822.72 213.53 817.19 228.94
  Q 815.55 233.51 815.20 237.77
  A 4.84 4.76 41.8 0 0 815.29 239.18
  Q 817.86 251.21 818.41 255.25
  C 819.73 264.90 820.71 275.33 819.84 285.41
  Q 819.24 292.47 817.84 298.62
  Q 816.67 303.74 815.24 306.24
  Q 814.47 307.59 810.77 310.05
  A 1.38 1.35 -15.3 0 0 810.15 311.11
  C 809.32 322.92 806.28 332.93 798.36 342.12
  C 795.88 345.01 793.33 345.34 790.51 346.75
  A 1.33 1.32 -39.5 0 1 789.10 346.62
  C 785.07 343.57 782.89 338.54 781.89 333.76
  A 0.56 0.56 0.0 0 0 780.94 333.49
  Q 778.33 336.23 776.68 337.69
  C 773.76 340.26 767.25 343.27 764.52 338.94
  Q 760.94 333.25 760.90 325.58
  A 0.47 0.47 0.0 0 0 760.01 325.36
  C 756.97 331.13 748.25 337.41 742.98 329.50
  Q 740.76 326.16 739.50 322.41
  A 1.78 1.77 87.8 0 0 738.27 321.27
  L 737.18 320.98
  A 1.82 1.79 -2.9 0 1 735.98 319.91
  Q 731.75 309.34 731.73 298.21
  A 1.02 1.00 -70.2 0 0 731.38 297.44
  Q 728.06 294.57 724.17 293.14
  A 0.85 0.85 0.0 0 0 723.12 294.32
  L 724.57 297.23
  A 1.16 0.74 -77.5 0 1 724.65 297.45
  Q 729.35 316.28 732.60 331.24
  C 733.57 335.72 734.01 339.91 734.10 344.39
  A 0.70 0.70 0.0 0 0 735.23 344.92
  Q 738.05 342.67 742.39 342.00
  A 2.70 2.51 43.0 0 1 743.24 342.00
  Q 749.34 342.97 749.03 349.58
  Q 748.80 354.57 747.13 360.28
  A 0.46 0.45 74.6 0 0 747.90 360.72
  Q 752.86 355.27 760.73 353.94
  Q 764.76 353.26 767.36 355.59
  C 769.67 357.67 770.52 362.86 770.39 365.73
  Q 769.86 376.87 763.85 387.98
  A 1.59 1.59 0.0 0 0 763.65 388.86
  Q 763.91 393.09 760.20 396.48
  Q 751.50 404.43 740.83 407.84
  Q 723.24 413.46 710.01 403.65
  C 700.34 396.48 696.71 386.36 690.10 373.40
  Q 686.07 365.49 678.21 355.03
  Q 670.88 345.28 657.40 327.75
  A 1.66 1.64 50.7 0 0 655.02 327.50
  L 638.60 341.67
  A 1.62 1.61 -35.6 0 0 638.26 343.71
  Q 646.39 357.73 647.33 373.97
  Q 647.42 375.53 649.16 377.66
  A 4.91 4.42 15.4 0 1 649.76 378.60
  Q 664.79 409.42 681.25 438.25
  A 1.80 1.78 71.2 0 0 683.04 439.14
  Q 698.73 437.11 713.76 435.50
  Q 715.36 435.32 735.52 432.27
  Q 744.90 430.85 767.66 425.34
  Q 781.93 421.88 792.58 413.31
  C 797.21 409.59 800.23 405.30 803.73 400.04
  Q 808.00 393.63 810.15 391.28
  Q 821.23 379.13 837.20 375.98
  Q 846.62 374.13 855.23 375.07
  Q 871.74 376.89 884.13 387.58
  C 887.54 390.53 889.68 394.89 886.70 398.96
  A 2.29 2.27 3.6 0 1 885.92 399.64
  Q 883.16 401.15 881.02 400.91
  Q 877.99 400.57 871.51 400.14
  Q 855.35 399.08 842.75 409.01
  Q 839.67 411.44 834.70 417.20
  A 0.39 0.38 -62.4 0 0 834.89 417.83
  C 837.61 418.51 839.36 417.00 841.74 416.90
  C 849.78 416.59 859.03 416.70 868.67 419.11
  C 882.97 422.67 895.85 433.84 901.01 447.92
  Q 903.98 456.05 904.18 464.24
  Q 904.26 467.30 902.10 471.80
  A 2.08 2.07 4.1 0 1 900.85 472.88
  Q 897.51 473.89 895.39 471.96
  C 891.52 468.43 887.33 460.42 882.12 457.21
  Q 873.51 451.91 863.60 450.88
  C 861.58 450.67 859.82 449.46 857.63 450.14
  A 0.53 0.53 0.0 0 0 857.44 451.05
  Q 866.16 458.74 869.75 469.52
  Q 875.77 487.58 871.31 505.56
  C 870.02 510.76 867.24 516.37 864.05 519.59
  Q 861.61 522.05 856.55 520.76
  A 1.78 1.77 -11.8 0 1 855.60 520.14
  Q 854.20 518.35 853.63 516.33
  Q 850.21 504.17 849.79 502.48
  Q 847.19 492.08 841.70 482.67
  C 836.40 473.59 827.91 469.63 818.00 468.05
  Q 815.67 467.68 812.71 468.09
  A 0.88 0.88 0.0 0 0 812.00 468.69
  Q 811.87 469.09 812.16 472.03
  Q 813.07 481.18 814.51 485.06
  A 5.75 4.92 24.6 0 0 814.88 485.86
  Q 818.16 491.75 823.12 496.61
  Q 825.91 499.34 828.03 502.44
  C 832.09 508.35 822.77 510.83 818.90 510.89
  Q 815.25 510.95 810.42 509.99
  C 795.73 507.06 783.32 496.78 777.57 482.95
  Q 774.78 476.23 773.43 468.85
  A 1.44 1.43 76.4 0 0 771.60 467.73
  C 758.65 471.63 741.28 476.99 732.25 479.45
  C 718.17 483.27 701.64 488.57 686.80 492.46
  C 681.73 493.79 675.74 494.71 670.78 493.84
  C 664.55 492.74 657.43 487.43 653.41 483.08
  Q 646.88 476.01 637.85 464.65
  Q 623.21 446.21 610.15 428.07
  A 0.37 0.37 0.0 0 0 609.51 428.15
  C 606.05 437.07 598.08 444.89 589.90 449.08
  Q 586.98 450.57 581.92 451.17
  A 1.12 1.11 -82.9 0 0 581.01 451.89
  C 577.36 461.66 568.38 465.17 558.41 466.69
  C 550.71 467.86 542.00 467.14 534.86 463.46
  A 1.84 1.82 -43.9 0 0 533.24 463.44
  Q 519.46 469.93 503.43 474.67
  Q 493.07 477.72 486.17 480.10
  A 1.41 1.31 9.1 0 0 485.60 480.48
  L 481.50 485.16
  A 0.32 0.32 0.0 0 0 481.68 485.69
  C 495.47 488.34 509.25 493.04 521.89 497.49
  C 534.97 502.10 549.00 508.60 561.79 514.88
  C 580.37 523.98 596.87 532.43 611.47 543.83
  C 625.51 554.78 637.22 569.23 631.89 587.84
  Q 629.72 595.38 623.26 603.52
  C 614.02 615.15 602.70 624.34 590.07 632.50
  C 578.42 640.05 564.60 648.13 551.29 654.29
  Q 523.84 666.97 501.44 674.84
  Q 501.06 674.97 500.34 675.23
  A 0.39 0.39 0.0 0 0 500.20 675.88
  Q 516.20 691.20 530.70 706.30
  Q 545.74 721.95 554.25 732.98
  Q 559.29 739.51 562.35 744.40
  Q 569.98 756.58 570.26 771.78
  Q 570.57 788.97 562.27 802.49
  C 559.81 806.49 556.10 811.19 550.80 808.35
  A 1.99 1.99 0.0 0 1 550.08 807.71
  Q 548.07 804.81 547.64 802.06
  Q 545.18 786.45 538.03 772.91
  C 536.77 770.53 535.12 768.82 534.19 766.82
  A 0.50 0.49 -24.2 0 0 533.54 766.58
  L 533.52 766.59
  A 0.50 0.50 0.0 0 0 533.26 767.21
  Q 539.12 783.98 536.27 801.18
  Q 534.61 811.25 530.49 819.15
  C 527.99 823.95 515.85 844.84 508.36 838.75
  C 506.64 837.35 505.92 833.86 506.29 831.86
  Q 508.74 818.30 507.95 805.50
  C 507.78 802.73 506.92 800.09 506.91 797.61
  A 0.49 0.49 0.0 0 0 506.01 797.35
  Q 500.97 805.22 495.96 811.45
  C 493.29 814.76 487.98 820.03 483.47 819.99
  C 476.97 819.95 477.50 813.49 478.79 809.02
  Q 484.08 790.84 484.05 778.27
  Q 484.03 763.86 478.74 746.99
  Q 472.54 727.20 461.64 709.71
  C 456.68 701.75 449.84 694.49 442.90 687.40
  Q 438.64 683.05 435.34 675.64
  C 434.55 673.86 434.48 672.16 434.03 669.53
  A 5.04 4.77 43.4 0 1 433.97 668.45
  C 434.79 651.67 450.87 646.66 464.10 642.09
  C 476.14 637.93 486.17 630.69 494.17 620.68
  Q 496.35 617.95 503.81 604.41
  C 506.40 599.71 509.35 595.06 512.90 591.63
  Q 516.65 588.01 517.65 586.69
  A 0.34 0.34 0.0 0 0 517.41 586.14
  Q 495.28 584.26 473.39 578.83
  C 457.13 574.81 440.82 568.52 427.94 558.39
  A 0.43 0.42 18.6 0 0 427.25 558.73
  Q 427.26 558.99 426.91 561.21
  Q 420.76 600.40 402.16 634.52
  Q 399.48 639.44 393.92 647.68
  C 387.41 657.32 381.25 663.47 372.07 672.49
  A 3.07 3.05 71.0 0 0 371.18 674.33
  Q 369.69 687.76 361.04 699.35
  Q 347.96 716.89 325.22 719.96
  Q 316.57 721.13 292.74 721.46
  C 286.82 721.54 281.11 722.57 275.81 722.38
  C 269.81 722.16 263.82 723.19 256.57 723.60
  Q 252.22 723.84 244.48 725.25
  A 1.26 1.22 -77.7 0 0 243.65 725.80
  Q 243.00 726.80 242.22 728.74
  C 236.67 742.51 233.70 757.58 232.47 772.50
  Q 231.52 783.88 230.38 791.48
  Q 229.19 799.34 227.59 804.61
  Q 223.09 819.38 213.46 831.21
  Q 199.14 848.79 177.63 855.00
  L 175.54 855.00
  Q 171.78 853.62 171.15 849.74
  A 2.77 2.70 50.7 0 1 171.27 848.36
  C 173.84 841.08 176.78 837.34 182.04 830.21
  A 0.61 0.61 0.0 0 0 181.19 829.36
  Q 174.04 834.76 164.74 839.23
  C 156.30 843.29 145.76 845.33 136.86 842.18
  Q 131.77 840.37 131.11 835.34
  Q 130.68 832.10 133.81 829.20
  A 3.32 3.31 -78.8 0 1 134.51 828.73
  C 144.70 823.81 150.80 820.50 158.24 813.77
  Q 162.02 810.35 169.57 800.88
  A 0.63 0.62 39.8 0 0 169.49 800.03
  L 169.30 799.86
  A 0.43 0.42 42.0 0 0 168.71 799.89
  Q 166.11 802.57 163.83 803.60
  Q 147.24 811.09 129.79 806.31
  Q 128.25 805.89 123.82 803.33
  A 2.96 2.85 86.7 0 1 122.90 802.48
  C 119.65 797.74 119.20 792.08 125.07 789.04
  Q 125.11 789.02 134.75 785.20
  Q 140.05 783.10 144.15 778.90
  Q 147.80 775.16 156.90 765.16
  Q 177.30 742.74 186.69 713.97
  Q 190.38 702.67 192.53 697.12
  Q 198.81 680.92 215.25 677.97
  Q 219.71 677.17 231.81 676.86
  Q 238.88 676.68 242.45 675.63
  C 252.68 672.62 259.19 667.93 269.11 661.13
  C 278.52 654.68 292.64 648.55 303.63 651.84
  A 2.13 2.12 15.7 0 0 306.29 650.35
  L 311.15 632.10
  A 0.62 0.62 0.0 0 0 310.52 631.32
  Q 309.92 631.35 309.13 631.88
  Q 305.12 634.58 301.72 636.45
  C 275.52 650.92 247.31 660.45 217.74 663.30
  Q 203.26 664.69 188.01 664.07
  Q 160.19 662.93 132.93 652.56
  Q 101.98 640.79 78.06 617.88
  A 2.34 2.33 71.7 0 0 76.83 617.26
  C 69.31 615.94 59.38 614.73 56.96 606.67
  A 2.04 1.94 43.5 0 1 56.91 605.69
  C 57.45 603.03 59.28 601.19 61.39 599.08
  A 1.16 1.16 0.0 0 0 61.58 597.67
  L 55.67 587.44
  A 3.25 3.23 -8.0 0 0 53.63 585.91
  Q 47.78 584.50 42.35 581.13
  Q 37.55 578.16 36.84 572.43
  A 2.45 2.40 -39.5 0 1 36.95 571.39
  Q 38.88 565.63 44.14 563.81
  A 1.77 1.77 0.0 0 0 45.26 561.63
  L 43.51 555.81
  A 3.22 3.15 -81.9 0 0 42.25 554.09
  Q 36.20 549.99 32.19 545.88
  Q 26.94 540.50 29.61 533.65
  C 30.98 530.13 35.30 528.83 38.79 527.52
  A 1.73 1.72 6.8 0 0 39.58 526.90
  C 40.89 524.99 39.30 520.13 38.67 517.06
  A 1.48 1.44 -77.6 0 0 38.13 516.19
  Q 32.77 512.12 30.09 505.26
  Q 27.84 499.50 31.30 494.45
  C 33.18 491.70 36.14 490.48 39.49 491.75
  Q 41.79 492.62 42.44 490.00
  Q 43.32 486.54 44.48 479.64
  A 1.82 1.82 0.0 0 0 44.40 478.76
  Q 43.90 477.39 42.35 475.09
  C 39.26 470.52 38.30 463.53 39.26 458.65
  C 40.26 453.60 46.24 453.41 50.23 454.87
  A 1.23 1.23 0.0 0 0 51.84 454.07
  Q 54.47 445.48 58.83 437.43
  A 1.01 1.01 0.0 0 0 57.97 435.94
  C 56.53 435.90 53.97 436.19 52.67 435.76
  Q 47.85 434.17 46.86 428.53
  A 1.99 1.93 -40.4 0 1 46.96 427.47
  Q 48.62 423.19 49.85 421.36
  Q 82.62 372.74 138.01 353.02
  C 143.19 351.18 147.85 350.76 150.31 356.80
  C 151.77 360.39 146.26 365.29 143.13 368.54
  Q 140.63 371.13 138.42 373.99
  C 125.00 391.38 114.91 411.71 110.38 433.40
  Q 108.53 442.25 107.40 450.61
  Q 106.81 455.00 103.07 457.06
  Q 100.79 458.32 99.01 457.55
  Q 94.05 455.39 90.43 451.08
  A 0.63 0.63 0.0 0 0 89.35 451.29
  Q 84.29 466.92 81.99 483.91
  C 81.11 490.45 80.48 493.85 80.39 499.40
  Q 80.26 508.11 80.59 515.99
  Q 80.70 518.46 82.08 526.42
  Q 86.44 551.56 102.60 569.94
  C 115.63 584.75 134.01 594.74 153.05 600.94
  A 1.63 1.61 -64.3 0 0 154.90 600.28
  C 159.87 592.66 167.59 587.79 175.29 595.76
  Q 179.19 599.81 179.99 604.95
  C 180.47 608.10 187.39 607.14 189.51 606.95
  A 1.99 1.98 10.4 0 0 191.12 605.84
  C 193.95 599.94 197.22 594.88 203.12 592.11
  C 206.71 590.42 214.64 595.86 216.89 598.31
  Q 217.84 599.35 220.88 602.38
  A 2.18 2.18 0.0 0 0 223.04 602.92
  L 233.78 599.70
  A 1.35 1.34 -14.5 0 0 234.71 598.13
  C 233.69 593.15 233.18 588.01 235.58 583.55
  C 240.76 573.92 252.35 581.55 258.73 585.43
  A 3.04 3.02 -47.2 0 0 262.09 585.29
  L 270.16 579.46
  A 1.59 1.58 -29.4 0 0 270.69 577.56
  C 268.50 572.41 265.55 566.22 267.53 560.98
  C 269.49 555.75 276.34 553.66 281.51 553.76
  Q 287.33 553.86 292.80 555.79
  A 2.54 2.53 -59.5 0 0 295.56 555.07
  L 303.52 545.98
  A 1.51 1.50 -38.7 0 0 303.71 544.27
  C 300.76 538.86 294.39 526.55 300.11 521.15
  C 305.68 515.91 316.37 516.18 322.94 518.00
  A 2.48 2.46 22.6 0 0 325.73 516.86
  L 329.32 510.64
  A 2.22 2.20 -48.1 0 0 329.20 508.25
  C 324.91 502.27 319.24 494.38 319.00 488.19
  C 318.79 482.82 325.82 479.47 330.51 478.85
  Q 332.32 478.62 334.26 478.18
  A 2.65 2.60 42.6 0 1 335.25 478.15
  L 344.09 479.47
  A 1.25 1.25 0.0 0 0 345.21 479.06
  L 350.08 473.50
  A 1.73 1.73 0.0 0 0 350.29 471.51
  Q 346.31 464.34 344.92 457.65
  A 3.62 3.57 -44.6 0 1 344.94 456.15
  Q 346.67 448.65 354.16 446.91
  A 4.15 4.15 0.0 0 1 354.97 446.81
  Q 361.33 446.67 369.77 447.81
  C 373.52 448.31 376.32 447.91 379.11 445.46
  A 1.59 1.59 0.0 0 0 379.30 443.27
  Q 372.68 434.99 368.77 427.61
  Q 367.07 424.40 368.60 420.87
  Q 370.98 415.33 377.19 414.89
  Q 387.21 414.19 396.52 417.77
  A 1.22 1.22 0.0 0 0 398.14 416.96
  Q 400.29 409.26 403.70 402.48
  C 405.04 399.83 407.00 397.35 408.21 394.76
  A 0.50 0.49 -76.4 0 0 407.78 394.05
  Q 400.72 393.84 392.41 392.97
  C 388.14 392.51 383.36 392.66 379.75 392.31
  Q 365.82 390.97 351.10 391.07
  A 3.64 3.64 0.0 0 0 348.72 391.98
  C 339.65 400.00 334.29 404.83 327.09 410.27
  Q 311.68 421.91 293.23 432.79
  C 282.32 439.21 273.67 444.70 265.48 452.45
  Q 261.72 456.00 258.84 462.11
  Q 255.39 469.42 259.42 475.88
  C 265.62 485.81 269.13 490.11 270.69 499.60
  C 272.26 509.13 268.27 521.06 262.78 528.28
  Q 256.03 537.18 246.74 542.46
  C 243.46 544.32 236.50 545.52 234.12 541.71
  Q 232.28 538.75 234.33 535.53
  C 238.19 529.47 242.54 521.10 241.96 514.17
  C 241.37 507.10 235.86 501.13 229.62 497.76
  Q 227.43 496.57 224.82 497.91
  Q 206.92 507.12 203.49 526.80
  C 202.06 535.04 203.56 545.13 203.76 551.53
  Q 203.89 555.98 200.07 558.36
  C 195.92 560.94 189.84 555.83 186.89 552.62
  Q 178.07 543.02 174.98 530.39
  Q 172.59 520.59 174.97 511.12
  Q 177.42 501.31 182.84 493.32
  Q 183.65 492.12 183.89 491.06
  A 0.44 0.44 0.0 0 0 183.20 490.61
  Q 177.82 494.65 173.52 498.26
  Q 159.46 510.09 154.80 527.47
  C 153.73 531.45 152.32 537.32 148.41 538.06
  Q 144.73 538.75 142.25 536.00
  C 137.69 530.93 135.66 523.80 134.82 516.73
  Q 132.02 493.34 145.92 475.88
  C 158.34 460.30 177.15 454.68 196.41 448.13
  C 205.99 444.88 215.28 440.76 222.90 434.60
  Q 226.41 431.77 228.75 429.53
  Q 243.18 415.73 254.29 403.37
  Q 259.22 397.88 260.88 396.29
  C 263.99 393.31 266.23 390.22 269.54 386.74
  Q 274.25 381.78 281.74 373.50
  Q 284.45 370.51 301.62 355.06
  C 302.68 354.11 304.23 353.22 305.53 352.18
  A 0.72 0.72 0.0 0 0 305.67 351.21
  C 299.29 341.93 288.78 334.42 278.94 329.29
  Q 263.80 321.39 246.01 322.14
  Q 238.23 322.47 234.37 323.38
  C 220.48 326.65 208.56 330.90 197.48 339.21
  C 195.82 340.46 192.82 342.28 190.47 341.33
  Q 186.69 339.81 185.96 336.09
  A 2.18 2.11 -44.2 0 1 185.99 335.07
  Q 189.86 320.75 190.48 317.51
  Q 193.60 301.35 193.16 285.11
  Q 192.84 273.69 191.93 266.92
  Q 190.87 259.02 187.62 249.19
  C 180.96 229.00 166.08 212.64 146.39 205.10
  Q 131.19 199.28 119.03 197.99
  Q 109.64 197.00 97.50 197.18
  Q 93.89 197.24 88.59 196.63
  A 2.66 2.64 -10.5 0 1 86.55 195.24
  C 84.62 191.61 86.77 186.57 88.95 183.45
  Q 93.00 177.67 96.96 171.24
  C 103.28 161.01 105.76 147.50 105.86 135.35
  C 106.02 113.98 96.07 93.99 83.31 77.32
  Q 79.06 71.77 71.71 63.67
  Q 59.55 50.25 43.06 38.44
  Q 25.17 25.61 4.88 17.92
  Q -1.46 15.51 0.85 9.14
  Q 1.59 7.12 3.09 5.97
  A 2.90 2.88 -73.8 0 1 3.83 5.56
  Q 9.43 3.53 15.52 2.79
  Q 33.50 0.63 51.64 0.00
  L 56.50 0.00
  Z
  M 345.41 143.74
  A 0.47 0.46 -13.3 0 0 345.88 142.98
  C 303.71 96.79 251.83 61.90 192.81 39.88
  Q 140.34 20.30 84.65 14.62
  C 65.66 12.68 47.95 12.50 29.97 14.10
  A 0.60 0.60 0.0 0 0 29.76 15.23
  Q 40.96 20.72 50.99 28.02
  C 73.88 44.69 94.20 66.04 107.42 91.06
  Q 122.88 120.33 117.10 153.29
  Q 115.45 162.66 111.28 171.50
  A 0.43 0.43 0.0 0 0 111.86 172.07
  C 136.84 159.69 165.31 148.18 191.85 141.56
  Q 268.11 122.52 345.41 143.74
  Z
  M 804.00 299.39
  Q 805.68 295.70 806.32 290.81
  C 809.80 264.38 803.75 237.21 791.30 213.18
  Q 780.88 193.08 768.04 178.46
  Q 754.88 163.46 746.06 155.67
  C 691.70 107.64 619.34 77.20 546.25 78.22
  Q 527.03 78.49 509.48 83.71
  Q 490.87 89.24 475.82 103.79
  C 468.31 111.06 462.75 120.86 464.36 131.63
  Q 465.07 136.36 469.44 140.43
  A 3.57 3.56 -15.1 0 0 470.85 141.24
  Q 473.84 142.17 476.82 142.14
  Q 493.68 141.96 504.23 142.49
  Q 526.34 143.58 551.48 149.01
  Q 585.35 156.31 617.09 174.18
  Q 625.53 178.93 632.95 184.81
  C 647.04 195.96 661.19 208.86 673.19 223.05
  C 682.13 233.63 696.61 253.06 710.19 265.75
  Q 739.75 293.37 779.49 300.25
  C 786.62 301.49 795.72 302.31 802.50 300.62
  A 2.26 2.23 5.2 0 0 804.00 299.39
  Z
  M 876.67 112.67
  Q 827.88 120.13 785.43 145.70
  Q 777.50 150.48 767.44 157.05
  A 0.64 0.64 0.0 0 0 767.33 158.03
  C 781.73 173.11 794.11 191.13 803.78 208.95
  Q 805.82 212.71 807.27 216.33
  A 0.51 0.50 43.6 0 0 808.22 216.31
  Q 822.11 174.30 849.70 140.18
  C 857.77 130.20 866.83 121.51 877.04 113.54
  A 0.49 0.49 0.0 0 0 876.67 112.67
  Z
  M 253.18 519.32
  A 0.42 0.42 0.0 0 0 253.95 519.56
  Q 261.35 509.08 257.93 497.42
  C 256.40 492.24 252.34 487.34 249.00 482.00
  C 244.46 474.73 243.99 467.71 247.08 459.61
  Q 250.80 449.87 258.68 443.17
  Q 268.48 434.82 276.19 429.95
  Q 279.38 427.94 308.44 409.20
  Q 327.72 396.77 342.98 380.99
  C 344.91 379.01 349.74 378.91 351.75 378.84
  Q 390.40 377.49 423.26 372.56
  Q 433.60 371.01 442.37 368.11
  Q 448.13 366.20 470.45 357.77
  A 1.82 1.77 38.8 0 1 471.38 357.68
  Q 472.60 357.89 473.76 359.00
  A 2.10 1.60 -50.8 0 1 473.68 361.47
  Q 472.78 362.70 470.95 363.94
  Q 464.99 367.98 452.52 375.77
  Q 439.08 384.17 439.34 400.44
  Q 439.50 410.00 439.72 415.69
  A 0.92 0.91 -5.5 0 1 438.93 416.64
  C 435.25 417.16 434.22 414.93 432.55 411.72
  Q 428.56 404.06 427.09 395.51
  A 0.58 0.58 0.0 0 0 426.15 395.16
  C 419.83 400.50 415.79 406.25 413.01 414.06
  C 410.21 421.94 408.32 426.98 403.30 434.82
  C 394.23 448.97 380.47 462.36 366.72 475.71
  C 357.89 484.28 352.15 493.93 346.62 505.50
  Q 341.03 517.20 338.08 530.25
  Q 336.89 535.53 334.18 556.19
  Q 331.30 578.15 328.42 599.99
  Q 324.08 632.89 315.49 663.64
  A 1.60 1.60 0.0 0 1 313.69 664.80
  C 304.96 663.38 295.99 662.09 287.87 664.68
  C 281.32 666.76 276.17 670.95 267.98 676.69
  Q 255.42 685.51 239.45 688.40
  C 228.99 690.30 213.51 685.41 206.69 696.22
  C 201.67 704.17 199.35 713.96 196.64 721.67
  Q 186.30 751.09 164.22 773.96
  C 155.23 783.27 147.43 790.66 137.19 796.56
  A 0.47 0.47 0.0 0 0 137.40 797.44
  Q 151.31 798.08 163.95 791.64
  Q 172.19 787.43 181.51 781.03
  C 183.78 779.47 187.49 779.49 187.85 782.87
  Q 188.07 784.88 187.36 786.09
  C 183.74 792.24 181.09 800.08 177.32 806.24
  Q 169.57 818.91 156.90 828.38
  Q 154.07 830.49 153.38 830.62
  A 0.54 0.54 0.0 0 0 152.98 831.35
  L 153.02 831.44
  A 0.52 0.51 -18.8 0 0 153.64 831.74
  C 172.89 826.31 188.71 812.59 198.27 795.29
  Q 199.88 792.39 203.00 793.57
  C 207.33 795.20 202.24 803.72 201.51 806.47
  C 198.61 817.38 194.52 828.09 188.79 837.61
  A 0.34 0.34 0.0 0 0 189.23 838.09
  Q 191.18 837.14 193.32 835.31
  C 201.82 828.01 209.53 818.45 213.68 808.28
  C 218.61 796.18 219.57 785.32 220.91 769.38
  Q 222.78 747.06 231.12 724.36
  Q 232.85 719.68 234.40 717.64
  C 236.81 714.50 241.80 713.29 245.37 712.85
  Q 259.33 711.11 271.43 710.61
  Q 302.14 709.35 313.85 708.87
  C 319.94 708.62 325.71 707.99 331.00 706.50
  C 343.18 703.09 354.06 692.34 357.58 680.52
  C 358.52 677.36 358.68 675.61 359.15 672.05
  C 359.57 668.79 360.66 667.09 362.96 664.95
  C 369.95 658.47 376.36 652.04 381.58 644.34
  C 396.33 622.55 406.82 596.73 412.63 570.89
  C 416.71 552.76 418.53 533.60 415.67 515.33
  Q 412.91 497.68 400.94 484.97
  Q 398.94 482.85 398.74 482.06
  C 398.15 479.70 400.40 477.69 402.73 478.53
  C 413.23 482.30 420.80 491.22 424.68 501.34
  A 0.44 0.44 0.0 0 0 425.53 501.27
  Q 426.72 495.27 427.31 488.48
  Q 428.67 472.66 419.19 458.33
  Q 417.87 456.33 419.07 455.08
  A 2.83 2.49 34.1 0 1 422.22 454.68
  Q 424.71 455.94 427.17 458.92
  C 441.94 476.89 436.48 498.08 429.88 518.96
  A 12.38 12.12 54.4 0 0 429.31 522.66
  L 429.31 531.15
  A 0.45 0.45 0.0 0 0 430.06 531.49
  Q 433.99 528.00 437.74 523.15
  C 441.64 518.09 444.39 511.77 447.75 505.29
  C 450.85 499.31 453.92 495.51 458.15 490.90
  Q 467.04 481.22 476.65 471.59
  A 0.47 0.46 23.7 0 0 476.34 470.80
  C 464.53 470.15 452.42 462.66 444.76 453.99
  C 441.82 450.67 433.28 438.09 439.31 434.58
  A 2.02 1.96 -60.5 0 1 440.23 434.31
  Q 441.92 434.23 443.03 435.73
  Q 446.44 440.34 449.60 443.86
  Q 462.48 458.23 480.95 459.93
  C 486.86 460.47 495.25 459.56 500.15 459.42
  A 0.76 0.76 0.0 0 1 500.88 460.45
  Q 500.66 461.02 500.87 461.30
  Q 501.06 461.55 501.70 461.48
  C 514.24 460.17 528.47 452.91 537.44 445.10
  Q 546.16 437.50 551.90 432.11
  A 11.66 11.41 -5.1 0 0 553.56 430.17
  Q 569.77 406.07 574.89 377.72
  Q 578.07 360.09 569.69 344.35
  Q 568.97 343.00 569.28 341.82
  A 2.69 2.19 13.9 0 1 572.39 340.35
  Q 574.70 340.90 576.64 342.93
  C 584.73 351.37 587.71 363.30 587.00 374.50
  Q 585.49 398.19 574.00 418.99
  Q 566.63 432.33 561.09 438.87
  C 554.93 446.17 552.05 449.91 546.12 454.81
  A 0.69 0.69 0.0 0 0 546.46 456.02
  C 554.82 457.20 564.89 455.66 571.10 449.39
  A 1.03 1.03 0.0 0 0 570.74 447.70
  Q 569.25 447.14 565.85 443.64
  Q 564.09 441.82 564.68 440.55
  Q 565.53 438.72 567.30 438.82
  Q 576.87 439.36 579.01 439.53
  C 586.50 440.12 593.64 432.84 597.45 427.11
  A 0.36 0.36 0.0 0 0 597.14 426.55
  Q 591.26 426.73 585.71 425.06
  C 583.79 424.48 577.08 421.43 579.77 418.42
  Q 580.99 417.04 582.27 416.98
  Q 591.61 416.52 593.81 416.27
  C 607.23 414.78 614.51 405.79 619.39 393.88
  A 0.46 0.45 89.3 0 0 618.79 393.29
  C 613.16 395.79 600.02 399.92 594.57 395.71
  C 591.26 393.16 596.13 389.89 598.38 389.12
  Q 608.60 385.63 611.70 384.45
  C 624.10 379.72 631.46 370.32 630.96 356.41
  A 0.74 0.72 -60.9 0 0 630.86 356.04
  L 628.04 351.16
  A 0.78 0.77 57.3 0 0 626.92 350.91
  C 621.37 354.85 609.81 362.39 602.80 360.57
  A 2.01 1.95 11.4 0 1 601.31 358.39
  Q 601.45 357.45 602.29 356.50
  A 2.08 1.94 2.1 0 1 602.73 356.12
  Q 614.10 348.78 621.73 341.72
  Q 624.27 339.36 632.34 331.25
  C 638.46 325.10 642.62 322.44 650.79 316.26
  A 2.44 2.43 -29.4 0 0 651.59 313.42
  Q 647.33 302.52 647.87 292.16
  A 0.55 0.55 0.0 0 0 646.90 291.77
  Q 633.67 307.07 631.12 309.86
  C 622.34 319.45 614.34 327.41 603.80 332.77
  Q 601.82 333.78 599.70 333.49
  A 1.38 1.37 75.3 0 1 598.81 332.97
  Q 597.79 331.64 598.17 330.02
  A 2.29 2.21 -19.5 0 1 598.63 329.10
  Q 599.60 327.96 601.16 326.67
  Q 612.29 317.55 619.82 307.58
  Q 627.32 297.66 631.64 291.55
  Q 635.78 285.70 638.86 282.88
  Q 644.63 277.59 647.13 275.16
  C 650.29 272.08 656.14 263.81 654.62 258.77
  Q 653.90 256.39 652.34 254.65
  Q 644.58 245.99 638.32 237.20
  C 631.24 227.26 625.28 214.13 632.92 202.51
  A 1.22 1.22 0.0 0 0 632.70 200.92
  Q 622.50 191.94 610.39 184.98
  A 0.60 0.60 0.0 0 0 609.50 185.45
  L 607.61 208.37
  A 1.18 1.17 -68.3 0 0 608.04 209.38
  C 614.58 214.75 619.48 219.07 623.89 225.86
  C 634.33 241.92 630.16 255.07 621.03 271.01
  C 614.34 282.68 605.57 292.84 594.53 300.77
  Q 589.63 304.29 584.68 305.03
  A 0.60 0.60 0.0 0 1 584.01 304.55
  Q 583.62 302.60 584.65 301.85
  Q 588.51 298.99 590.08 297.10
  C 601.10 283.75 611.41 270.30 616.71 254.27
  C 620.28 243.45 616.25 233.14 608.39 225.75
  A 0.47 0.47 0.0 0 0 607.60 226.01
  Q 606.65 230.92 605.86 234.34
  C 602.93 246.95 595.50 258.93 585.31 266.72
  C 574.38 275.08 558.63 279.00 544.60 280.57
  A 0.68 0.68 0.0 0 0 544.21 281.74
  C 548.83 286.07 558.86 296.89 554.48 303.84
  C 552.78 306.52 549.13 307.34 547.43 304.06
  C 543.24 295.94 538.99 290.56 531.23 285.71
  Q 519.98 278.69 506.46 275.99
  C 500.80 274.87 496.40 275.36 489.59 276.40
  Q 476.48 278.39 465.47 283.71
  A 0.62 0.61 -48.8 0 0 465.54 284.85
  Q 479.32 289.35 491.44 297.56
  C 498.99 302.68 502.08 308.16 507.69 316.75
  C 509.91 320.15 519.23 335.78 510.98 336.65
  C 507.61 337.00 504.76 333.38 502.99 330.75
  Q 500.18 326.56 495.08 318.16
  C 488.90 307.98 479.09 303.91 468.03 298.97
  C 456.34 293.76 443.97 288.88 431.56 285.32
  C 418.11 281.46 404.97 276.88 391.46 270.56
  C 376.22 263.43 369.13 252.14 365.60 235.37
  Q 363.05 223.25 363.20 209.56
  C 363.37 193.96 367.67 180.68 375.93 167.69
  Q 381.37 159.12 383.13 154.11
  Q 386.86 143.48 383.51 132.54
  A 0.66 0.66 0.0 0 0 382.24 132.56
  Q 379.68 141.86 373.37 149.38
  Q 365.51 158.73 364.43 160.17
  Q 358.49 168.09 355.65 177.93
  C 348.37 203.11 346.63 228.46 348.15 254.61
  C 349.01 269.41 353.18 284.43 365.84 292.26
  Q 373.88 297.24 383.28 301.24
  Q 406.08 310.95 427.94 318.79
  Q 431.37 320.03 433.86 322.28
  A 0.80 0.79 -43.0 0 1 433.81 323.50
  Q 432.73 324.35 430.61 325.07
  Q 408.34 332.68 382.54 339.24
  Q 350.81 347.31 339.42 349.88
  C 328.97 352.23 319.49 356.08 311.06 363.29
  Q 297.36 375.01 285.70 387.45
  Q 249.11 426.47 248.80 426.80
  Q 240.26 435.89 231.76 443.02
  Q 220.73 452.29 205.34 457.82
  C 189.52 463.51 170.93 467.97 157.89 479.93
  Q 144.84 491.89 145.34 510.25
  Q 145.40 512.30 145.29 515.46
  A 0.50 0.50 0.0 0 0 146.12 515.85
  Q 146.45 515.57 146.70 514.97
  Q 149.18 509.03 152.14 504.63
  Q 165.58 484.70 188.10 476.11
  C 192.61 474.39 203.52 468.86 206.23 475.70
  C 207.00 477.64 206.56 479.90 205.37 481.39
  C 192.80 497.12 178.59 516.66 190.12 537.48
  A 0.49 0.49 0.0 0 0 191.04 537.23
  C 190.16 516.76 200.64 497.50 218.55 487.70
  Q 220.62 486.57 223.84 485.16
  C 228.28 483.22 233.39 486.24 237.40 488.51
  C 246.79 493.82 254.22 504.78 253.32 515.84
  Q 253.16 517.90 253.18 519.32
  Z
  M 204.42 311.77
  A 0.32 0.31 -10.0 0 0 204.88 312.09
  Q 205.19 311.93 205.49 311.50
  Q 226.80 280.91 250.75 251.33
  Q 272.69 224.24 294.93 202.21
  Q 319.48 177.90 343.71 157.57
  A 0.52 0.52 0.0 0 0 343.50 156.66
  Q 332.73 153.89 321.30 151.47
  C 286.13 144.01 249.80 143.09 213.68 150.14
  Q 188.44 155.07 166.19 163.18
  Q 141.70 172.10 116.44 184.26
  A 0.33 0.33 0.0 0 0 116.55 184.88
  Q 136.27 187.12 154.76 195.01
  C 175.91 204.02 192.27 222.44 199.60 244.54
  Q 203.72 256.93 204.85 267.39
  Q 207.28 289.86 204.42 311.77
  Z
  M 504.50 154.66
  A 0.25 0.25 0.0 0 0 504.64 154.99
  Q 523.52 162.17 541.31 172.25
  A 0.30 0.29 -75.3 0 0 541.75 171.99
  L 541.75 159.92
  A 0.45 0.45 0.0 0 0 541.40 159.48
  Q 530.83 157.16 519.26 155.65
  C 514.21 155.00 510.11 155.13 505.28 154.27
  Q 504.70 154.17 504.50 154.66
  Z
  M 568.50 186.94
  A 0.36 0.36 0.0 0 0 569.03 186.58
  Q 567.86 176.73 572.52 168.19
  A 0.66 0.66 0.0 0 0 572.11 167.24
  L 553.25 162.21
  A 0.82 0.81 11.6 0 0 552.23 162.88
  Q 551.43 168.28 551.84 173.90
  Q 552.15 178.07 556.10 180.09
  Q 557.53 180.82 568.50 186.94
  Z
  M 596.75 204.34
  Q 596.27 190.51 599.63 179.93
  A 0.98 0.98 0.0 0 0 599.10 178.74
  L 583.25 171.52
  A 0.87 0.87 0.0 0 0 582.06 172.06
  C 580.25 177.95 578.64 183.39 579.74 189.49
  C 580.43 193.27 581.12 194.80 584.50 196.94
  Q 590.89 200.99 596.16 204.67
  A 0.38 0.38 0.0 0 0 596.75 204.34
  Z
  M 218.46 314.49
  Q 232.47 309.59 247.25 309.22
  C 268.72 308.69 290.47 318.36 306.07 332.96
  Q 311.61 338.15 317.56 344.25
  A 1.41 1.39 56.9 0 0 319.06 344.58
  C 336.07 337.94 356.04 334.51 373.88 329.33
  Q 387.22 325.46 399.96 321.19
  A 0.56 0.56 0.0 0 0 399.96 320.12
  C 386.51 315.66 372.55 310.53 360.75 303.01
  C 345.19 293.10 338.68 277.50 336.98 259.04
  C 334.35 230.54 337.37 201.54 344.75 174.02
  A 0.42 0.41 9.1 0 0 344.37 173.50
  Q 343.99 173.48 343.70 173.73
  Q 292.40 216.99 250.89 270.63
  Q 237.43 288.01 217.98 313.84
  A 0.42 0.42 0.0 0 0 218.46 314.49
  Z
  M 435.10 204.14
  Q 435.13 204.63 435.36 204.91
  C 451.11 224.12 463.08 247.27 462.35 272.16
  A 0.30 0.29 -10.3 0 0 462.76 272.44
  C 472.51 268.34 482.91 266.66 492.99 265.12
  A 1.00 0.99 -14.5 0 0 493.77 263.80
  C 484.12 237.31 460.50 216.00 435.64 203.79
  A 0.37 0.37 0.0 0 0 435.10 204.14
  Z
  M 641.19 210.24
  C 640.31 218.44 644.55 226.63 649.63 232.89
  Q 660.64 246.46 664.13 250.86
  C 667.47 255.08 666.56 260.08 665.41 265.44
  C 661.62 283.05 653.77 300.83 664.46 318.19
  Q 667.18 322.60 670.89 327.12
  C 683.02 341.90 694.83 355.76 702.87 372.89
  C 707.52 382.77 712.25 395.64 723.18 398.09
  C 732.96 400.29 741.68 396.78 749.81 391.58
  A 0.56 0.55 36.2 0 0 749.65 390.58
  C 741.14 388.30 733.07 384.12 726.50 377.53
  Q 715.13 366.14 707.20 352.62
  C 698.85 338.37 695.88 320.16 695.38 304.26
  Q 695.20 298.57 697.63 292.42
  Q 700.33 285.59 707.68 283.95
  A 1.51 1.51 0.0 0 0 708.33 281.33
  Q 698.17 272.69 687.47 260.38
  Q 686.61 259.38 659.62 226.98
  Q 651.81 217.61 642.22 209.81
  A 0.64 0.64 0.0 0 0 641.19 210.24
  Z
  M 526.90 222.37
  A 0.47 0.46 -86.3 0 0 526.22 222.97
  C 533.53 236.33 538.46 252.98 537.14 268.25
  A 0.49 0.48 -0.0 0 0 537.67 268.77
  Q 549.27 267.67 558.61 265.25
  A 1.20 1.20 0.0 0 0 559.45 263.71
  C 554.35 248.64 543.77 235.61 531.61 225.86
  Q 531.06 225.42 526.90 222.37
  Z
  M 749.57 323.86
  C 752.94 322.53 755.58 312.32 756.61 308.29
  A 0.62 0.61 -77.6 0 0 756.13 307.53
  L 753.52 307.01
  A 1.06 1.05 21.2 0 0 752.42 307.49
  Q 750.80 310.10 749.10 312.60
  C 747.25 315.31 748.47 320.46 749.03 323.56
  A 0.40 0.40 0.0 0 0 749.57 323.86
  Z
  M 770.34 330.95
  C 775.00 327.64 777.91 319.24 779.06 313.80
  A 0.63 0.62 9.5 0 0 778.53 313.06
  L 771.28 312.14
  A 0.52 0.51 5.8 0 0 770.70 312.61
  Q 770.20 319.57 769.69 326.49
  Q 769.51 328.86 769.84 330.74
  A 0.32 0.32 0.0 0 0 770.34 330.95
  Z
  M 791.15 314.96
  Q 790.31 324.92 791.04 335.30
  A 0.55 0.55 0.0 0 0 792.03 335.60
  C 796.38 329.96 798.32 321.85 798.73 314.84
  A 0.57 0.57 0.0 0 0 798.16 314.24
  L 791.94 314.24
  A 0.79 0.79 0.0 0 0 791.15 314.96
  Z
  M 738.17 352.96
  Q 736.85 353.28 735.50 354.25
  Q 730.94 357.52 727.57 360.85
  A 1.21 1.19 51.0 0 0 727.42 362.37
  Q 730.11 366.40 734.41 368.86
  A 0.73 0.73 0.0 0 0 735.46 368.46
  Q 737.85 361.31 738.48 353.23
  A 0.25 0.25 0.0 0 0 738.17 352.96
  Z
  M 746.05 378.71
  Q 750.96 380.61 755.12 380.75
  A 1.37 1.35 -76.6 0 0 756.40 379.95
  Q 759.39 373.40 760.03 365.23
  A 0.46 0.46 0.0 0 0 759.36 364.79
  Q 750.67 369.27 745.78 377.99
  A 0.51 0.51 0.0 0 0 746.05 378.71
  Z
  M 96.90 439.47
  Q 102.29 402.95 124.26 372.55
  A 0.51 0.51 0.0 0 0 123.63 371.79
  Q 116.29 375.17 108.77 380.04
  Q 82.14 397.30 63.55 423.14
  A 0.54 0.54 0.0 0 0 64.09 423.99
  Q 69.07 423.04 73.52 423.78
  A 2.03 2.02 89.8 0 1 75.17 425.42
  C 75.93 429.68 74.81 432.86 72.65 436.87
  Q 66.94 447.44 62.54 459.56
  A 0.66 0.65 -72.7 0 0 62.99 460.42
  L 71.83 462.78
  A 1.63 1.62 -75.8 0 0 73.83 461.58
  Q 77.68 445.36 84.10 431.12
  Q 85.10 428.91 86.94 427.30
  A 1.15 1.13 40.3 0 1 88.29 427.20
  Q 91.27 429.06 91.75 430.17
  Q 93.62 434.55 96.08 439.60
  A 0.43 0.43 0.0 0 0 96.90 439.47
  Z
  M 861.45 499.56
  C 863.90 481.25 857.71 463.29 842.01 452.72
  Q 834.84 447.90 834.40 447.58
  Q 830.88 445.06 832.63 441.06
  A 3.18 3.17 -78.9 0 1 835.46 439.15
  Q 838.58 439.07 852.56 438.63
  C 863.37 438.29 877.82 440.31 886.68 447.05
  A 0.42 0.42 0.0 0 0 887.29 446.50
  C 882.14 438.17 874.91 432.87 865.16 430.43
  C 851.51 427.01 837.35 428.06 824.04 432.51
  A 1.71 1.66 45.8 0 1 822.90 432.48
  C 817.02 430.24 817.72 425.92 819.94 420.60
  C 827.07 403.57 840.33 393.56 858.04 388.19
  A 0.43 0.43 0.0 0 0 857.97 387.35
  C 841.92 385.39 827.45 388.35 817.10 401.37
  Q 815.69 403.14 810.37 410.86
  Q 798.70 427.79 778.93 434.67
  Q 768.76 438.20 754.61 440.89
  Q 717.03 448.03 680.82 451.43
  C 677.27 451.77 675.18 452.34 673.46 449.29
  Q 654.18 415.22 638.03 382.67
  A 0.42 0.42 0.0 0 0 637.29 382.65
  L 632.36 391.38
  A 1.70 1.52 -27.7 0 0 632.18 391.86
  Q 629.13 406.43 618.87 417.71
  A 0.92 0.91 -39.0 0 0 618.75 418.79
  Q 619.77 420.52 621.12 422.38
  Q 635.78 442.58 649.72 460.28
  Q 654.91 466.85 660.65 473.10
  Q 664.95 477.78 669.04 480.45
  C 673.80 483.55 678.94 481.73 684.63 480.34
  Q 693.69 478.12 721.12 470.11
  Q 729.74 467.59 774.29 453.63
  A 2.59 2.47 -51.1 0 1 775.06 453.53
  L 779.86 453.70
  A 1.63 1.61 -23.4 0 1 780.86 454.09
  Q 782.71 455.68 783.25 458.29
  Q 785.01 466.80 786.37 471.89
  Q 790.80 488.58 806.34 495.80
  A 0.31 0.31 0.0 0 0 806.73 495.35
  C 799.82 484.40 800.09 471.90 801.27 459.32
  A 2.92 2.91 -6.1 0 1 803.31 456.81
  Q 805.27 456.20 807.49 456.16
  C 813.93 456.05 819.80 455.96 824.51 457.00
  Q 837.95 459.99 847.49 470.65
  C 853.87 477.78 858.36 490.09 860.71 499.60
  A 0.38 0.38 0.0 0 0 861.45 499.56
  Z
  M 388.47 434.38
  L 392.09 428.12
  A 0.42 0.42 0.0 0 0 391.83 427.51
  Q 386.99 426.24 382.38 426.42
  A 0.55 0.55 0.0 0 0 381.96 427.29
  L 387.14 434.45
  A 0.79 0.79 0.0 0 0 388.47 434.38
  Z
  M 364.22 458.81
  L 357.50 459.12
  A 0.65 0.65 0.0 0 0 356.94 460.07
  L 359.01 464.18
  A 1.20 1.20 0.0 0 0 360.98 464.44
  L 364.85 460.13
  A 0.79 0.79 0.0 0 0 364.22 458.81
  Z
  M 70.40 472.66
  Q 64.40 472.72 59.96 471.19
  A 1.38 1.37 -74.7 0 0 58.16 472.22
  L 53.36 496.57
  A 1.17 1.16 12.6 0 0 54.22 497.92
  Q 60.34 499.41 67.42 499.23
  A 0.60 0.60 0.0 0 0 68.00 498.65
  Q 68.45 487.04 71.07 473.47
  A 0.68 0.68 0.0 0 0 70.40 472.66
  Z
  M 340.13 491.49
  A 0.94 0.94 0.0 0 0 339.23 490.14
  L 332.84 490.48
  A 0.94 0.94 0.0 0 0 332.09 491.91
  L 335.59 497.65
  A 0.94 0.94 0.0 0 0 337.24 497.56
  L 340.13 491.49
  Z
  M 493.33 794.65
  A 0.45 0.44 -20.6 0 0 494.13 795.01
  Q 500.83 785.28 503.45 773.32
  Q 503.81 771.69 505.01 770.98
  A 2.64 2.52 -35.7 0 1 508.27 771.44
  Q 509.93 773.33 511.27 776.31
  Q 519.14 793.92 518.90 814.16
  A 0.42 0.42 0.0 0 0 519.70 814.36
  C 526.89 800.31 526.59 782.59 522.07 767.94
  C 518.60 756.71 514.20 747.66 510.08 738.29
  C 507.18 731.68 503.98 726.40 500.77 721.48
  Q 499.96 720.24 500.28 719.01
  A 1.82 1.80 -69.0 0 1 502.85 717.85
  C 509.46 721.26 515.41 729.26 519.20 735.55
  A 4.62 4.38 -86.9 0 0 520.16 736.68
  Q 524.79 740.64 526.83 742.44
  Q 539.47 753.65 548.21 767.80
  Q 553.34 776.11 555.30 785.13
  A 0.26 0.26 0.0 0 0 555.79 785.18
  Q 557.21 782.17 557.65 778.71
  Q 559.82 761.73 550.23 748.09
  C 540.97 734.93 531.24 724.38 519.34 711.93
  Q 516.38 708.83 492.29 684.20
  C 489.45 681.30 484.31 676.06 483.78 672.75
  Q 482.95 667.58 487.86 665.82
  C 517.83 655.11 546.78 643.66 572.79 628.27
  C 588.10 619.21 603.40 608.05 614.98 593.79
  C 621.71 585.52 622.39 574.54 615.93 565.94
  Q 612.63 561.56 608.24 557.83
  C 602.16 552.67 595.67 547.98 588.57 543.61
  Q 572.83 533.93 543.65 520.33
  Q 512.58 505.84 487.13 499.76
  Q 481.34 498.38 470.88 496.68
  A 1.86 1.84 -54.0 0 0 469.72 496.87
  Q 468.68 497.44 467.54 499.04
  C 462.61 505.96 459.28 511.89 455.88 519.34
  C 451.19 529.64 443.32 538.86 434.48 545.92
  A 0.65 0.65 0.0 0 0 434.47 546.92
  C 450.22 560.26 470.88 566.32 491.40 570.08
  Q 513.71 574.16 536.25 575.02
  Q 541.89 575.23 549.73 574.31
  A 0.70 0.70 0.0 0 0 550.30 573.19
  L 550.13 572.97
  A 0.39 0.38 82.8 0 0 549.98 572.85
  Q 544.92 570.90 537.45 566.83
  Q 532.32 564.04 530.08 562.07
  A 1.88 1.87 11.7 0 1 529.53 561.24
  Q 528.77 558.89 530.48 557.07
  A 1.50 1.48 21.3 0 1 531.57 556.60
  Q 534.06 556.60 536.22 557.55
  Q 547.51 562.49 554.42 565.17
  C 559.96 567.31 567.52 568.33 572.57 569.90
  Q 576.51 571.14 578.54 573.94
  C 580.13 576.13 580.40 578.82 578.28 580.75
  Q 577.12 581.80 572.96 581.92
  Q 563.15 582.20 551.14 583.66
  Q 539.83 585.04 531.16 591.41
  C 520.75 599.06 514.85 608.29 509.16 618.93
  Q 496.91 641.82 473.16 651.63
  Q 467.35 654.03 459.56 656.81
  Q 453.91 658.83 449.92 662.13
  C 444.50 666.63 446.15 671.37 450.08 676.66
  C 455.18 683.51 460.92 688.00 465.72 694.48
  Q 481.39 715.65 490.12 743.70
  Q 496.94 765.64 495.04 786.10
  C 494.74 789.35 494.14 791.56 493.33 794.65
  Z
  M 68.05 509.15
  A 0.63 0.63 0.0 0 0 67.32 508.55
  Q 59.70 509.91 52.29 508.70
  A 0.38 0.38 0.0 0 0 51.85 509.06
  Q 51.13 522.66 52.07 534.94
  A 1.11 1.10 -2.0 0 0 53.16 535.95
  Q 61.33 536.03 69.75 532.71
  A 0.86 0.86 0.0 0 0 70.28 531.76
  Q 68.20 520.22 68.05 509.15
  Z
  M 311.05 534.79
  A 0.40 0.40 0.0 0 0 311.69 534.84
  L 316.15 529.75
  A 0.84 0.84 0.0 0 0 315.51 528.36
  L 309.59 528.36
  A 0.71 0.70 -4.2 0 0 308.89 529.16
  Q 309.29 531.90 311.05 534.79
  Z
  M 324.18 539.86
  A 0.47 0.46 66.4 0 0 323.34 539.53
  Q 317.96 547.05 309.23 557.77
  C 306.25 561.44 302.44 563.83 304.56 567.43
  Q 311.62 579.40 317.64 586.61
  A 0.34 0.34 0.0 0 0 318.24 586.43
  L 324.18 539.86
  Z
  M 54.45 546.70
  A 0.59 0.58 -5.9 0 0 53.87 547.41
  Q 56.68 560.24 61.12 571.37
  A 1.16 1.15 -18.4 0 0 62.51 572.06
  Q 72.55 569.34 80.62 561.23
  A 0.81 0.81 0.0 0 0 80.76 560.29
  Q 76.16 551.60 73.09 542.16
  A 0.67 0.66 -25.1 0 0 72.10 541.81
  Q 64.25 546.78 54.45 546.70
  Z
  M 285.61 566.41
  A 0.82 0.82 0.0 0 0 285.14 564.97
  L 279.15 564.48
  A 1.24 1.24 0.0 0 0 277.86 566.08
  L 279.23 570.65
  A 0.68 0.68 0.0 0 0 280.32 570.97
  L 285.61 566.41
  Z
  M 86.34 606.09
  Q 95.95 598.46 102.23 588.79
  A 1.14 1.14 0.0 0 0 102.03 587.31
  Q 93.43 579.68 86.85 570.49
  A 1.07 1.07 0.0 0 0 85.18 570.40
  Q 77.40 579.17 66.48 581.41
  A 0.41 0.41 0.0 0 0 66.20 582.01
  C 71.03 590.79 77.35 599.75 85.29 606.09
  A 0.85 0.84 44.7 0 0 86.34 606.09
  Z
  M 316.94 595.95
  C 307.89 590.60 301.75 582.73 295.16 574.25
  A 0.68 0.67 -41.8 0 0 294.15 574.20
  Q 284.05 584.56 272.91 592.55
  A 2.76 2.75 68.6 0 0 271.78 595.16
  Q 274.54 615.90 291.59 625.81
  A 3.07 3.06 -43.3 0 0 294.54 625.89
  Q 303.01 621.51 312.17 615.43
  Q 314.80 613.69 315.14 611.86
  Q 316.67 603.72 317.44 596.95
  A 1.03 1.01 18.8 0 0 316.94 595.95
  Z
  M 245.36 595.28
  L 249.64 592.81
  A 0.53 0.52 -47.7 0 0 249.60 591.88
  L 246.04 590.26
  A 1.23 1.22 -77.8 0 0 244.31 591.38
  L 244.31 594.68
  A 0.70 0.70 0.0 0 0 245.36 595.28
  Z
  M 92.50 614.18
  Q 93.53 615.45 94.77 616.49
  Q 107.61 627.25 122.94 634.74
  A 0.70 0.69 -61.4 0 0 123.84 634.47
  Q 130.77 622.66 135.38 608.28
  A 0.59 0.59 0.0 0 0 135.04 607.55
  Q 122.62 602.39 111.92 595.13
  A 1.02 1.01 32.6 0 0 110.49 595.44
  Q 103.70 606.41 92.63 613.40
  A 0.53 0.53 0.0 0 0 92.50 614.18
  Z
  M 281.80 632.52
  A 0.47 0.47 0.0 0 0 281.85 631.69
  C 271.05 625.03 264.65 613.08 262.03 600.94
  A 0.81 0.81 0.0 0 0 260.83 600.41
  Q 247.67 608.03 233.11 612.72
  A 2.14 2.13 -9.2 0 0 231.62 614.78
  C 231.70 626.30 232.76 636.44 239.04 646.36
  A 1.09 1.09 0.0 0 0 240.20 646.84
  Q 261.30 641.92 281.80 632.52
  Z
  M 166.81 604.64
  Q 167.65 604.80 167.76 604.77
  A 0.54 0.53 -35.0 0 0 167.93 603.82
  Q 166.94 603.11 166.60 603.60
  A 0.71 0.55 -63.8 0 0 166.81 604.64
  Z
  M 206.57 605.26
  Q 208.16 605.09 208.20 605.08
  A 0.41 0.41 0.0 0 0 208.38 604.43
  Q 207.86 603.82 206.43 603.96
  Q 205.01 604.11 204.62 604.81
  A 0.41 0.41 0.0 0 0 204.93 605.42
  Q 204.97 605.42 206.57 605.26
  Z
  M 176.33 618.10
  Q 160.55 616.64 146.92 612.16
  A 0.91 0.90 16.7 0 0 145.77 612.77
  Q 141.82 626.89 133.01 637.96
  A 0.94 0.94 0.0 0 0 133.38 639.41
  Q 151.54 647.14 170.92 650.19
  A 0.48 0.48 0.0 0 0 171.46 649.81
  Q 172.75 642.69 175.86 628.08
  Q 176.59 624.63 176.96 618.83
  A 0.69 0.69 0.0 0 0 176.33 618.10
  Z
  M 229.19 647.97
  C 222.60 639.08 220.63 627.36 220.50 616.42
  A 0.45 0.45 0.0 0 0 219.93 616.00
  Q 217.14 616.81 213.76 617.29
  Q 201.85 618.96 190.72 619.04
  A 0.66 0.66 0.0 0 0 190.08 619.59
  Q 189.54 622.97 189.28 624.93
  Q 187.47 638.96 180.71 650.91
  A 0.31 0.31 0.0 0 0 180.96 651.37
  Q 204.66 653.28 228.85 648.85
  A 0.56 0.55 66.5 0 0 229.19 647.97
  Z"
/>
<path d="
  M 491.02 350.52
  Q 493.73 349.62 495.83 351.99
  Q 496.15 352.35 500.38 357.87
  C 509.50 369.77 523.02 377.25 537.71 380.34
  Q 548.41 382.59 559.74 379.85
  A 2.75 2.46 -13.8 0 1 562.99 381.58
  Q 563.70 384.44 560.96 386.81
  Q 555.15 391.84 546.74 391.94
  Q 539.21 392.03 534.27 390.98
  C 517.56 387.44 501.74 378.04 493.22 363.07
  C 491.19 359.50 489.48 355.22 490.42 351.18
  A 0.90 0.90 0.0 0 1 491.02 350.52
  Z"
/>
<path d="
  M 550.18 414.45
  C 547.49 418.33 541.96 419.89 537.60 420.66
  Q 517.43 424.21 499.03 416.18
  C 486.19 410.58 475.47 400.51 470.56 387.24
  Q 470.01 385.74 470.95 383.63
  A 1.77 1.77 0.0 0 1 472.22 382.61
  Q 474.74 382.11 476.42 384.12
  C 484.88 394.23 493.63 402.14 505.95 406.88
  C 518.78 411.81 532.57 411.19 546.59 410.88
  Q 549.97 410.81 550.39 413.51
  A 1.32 1.31 -32.6 0 1 550.18 414.45
  Z"
/>
<path d="
  M 530.00 435.45
  A 1.52 1.51 -47.0 0 1 530.08 438.00
  C 521.62 443.79 510.40 445.81 499.87 445.22
  C 480.91 444.15 465.97 434.35 457.08 417.41
  C 455.46 414.34 453.29 409.21 454.97 405.71
  A 2.23 2.21 -68.9 0 1 457.59 404.53
  Q 459.32 405.05 460.36 406.68
  C 464.68 413.50 468.89 419.64 475.36 424.39
  Q 490.29 435.35 508.48 435.31
  Q 517.93 435.30 526.76 434.83
  Q 528.77 434.73 530.00 435.45
  Z"
/>
<path d="
  M 353.97 640.92
  A 1.17 1.17 0.0 0 1 352.16 640.14
  Q 351.45 635.90 352.50 630.89
  A 3.84 3.50 65.6 0 1 352.73 630.18
  Q 370.20 590.30 375.74 575.00
  C 380.80 561.05 385.63 545.76 383.91 531.65
  A 1.65 1.65 0.0 0 1 385.65 529.80
  Q 387.89 529.94 388.63 531.91
  Q 390.11 535.79 390.44 540.01
  C 391.68 556.13 387.29 572.01 381.49 586.73
  Q 370.66 614.25 355.69 638.93
  Q 354.85 640.32 353.97 640.92
  Z"
/>
<path d="
  M 321.32 690.66
  A 0.91 0.91 0.0 0 1 320.86 689.26
  Q 326.73 681.11 333.08 674.10
  C 335.27 671.69 337.91 673.80 337.77 676.44
  C 337.42 683.26 330.71 688.93 324.63 690.62
  Q 322.79 691.13 321.32 690.66
  Z"
/>
<path d="
  M 218.08 711.68
  C 224.30 711.70 221.96 720.27 220.39 723.66
  Q 219.09 726.46 204.51 756.53
  C 203.08 759.50 199.50 766.37 196.47 766.42
  A 2.01 1.96 -2.4 0 1 194.44 764.60
  Q 194.30 762.58 195.31 760.32
  Q 208.43 730.73 215.04 714.80
  Q 215.54 713.59 216.95 712.15
  A 1.60 1.56 21.7 0 1 218.08 711.68
  Z"
/>
</g>
<g fill="#fffffe">
<path d="
  M 749.57 323.86
  A 0.40 0.40 0.0 0 1 749.03 323.56
  C 748.47 320.46 747.25 315.31 749.10 312.60
  Q 750.80 310.10 752.42 307.49
  A 1.06 1.05 21.2 0 1 753.52 307.01
  L 756.13 307.53
  A 0.62 0.61 -77.6 0 1 756.61 308.29
  C 755.58 312.32 752.94 322.53 749.57 323.86
  Z"
/>
<path d="
  M 770.34 330.95
  A 0.32 0.32 0.0 0 1 769.84 330.74
  Q 769.51 328.86 769.69 326.49
  Q 770.20 319.57 770.70 312.61
  A 0.52 0.51 5.8 0 1 771.28 312.14
  L 778.53 313.06
  A 0.63 0.62 9.5 0 1 779.06 313.80
  C 777.91 319.24 775.00 327.64 770.34 330.95
  Z"
/>
<path d="
  M 791.15 314.96
  A 0.79 0.79 0.0 0 1 791.94 314.24
  L 798.16 314.24
  A 0.57 0.57 0.0 0 1 798.73 314.84
  C 798.32 321.85 796.38 329.96 792.03 335.60
  A 0.55 0.55 0.0 0 1 791.04 335.30
  Q 790.31 324.92 791.15 314.96
  Z"
/>
<path d="
  M 738.17 352.96
  A 0.25 0.25 0.0 0 1 738.48 353.23
  Q 737.85 361.31 735.46 368.46
  A 0.73 0.73 0.0 0 1 734.41 368.86
  Q 730.11 366.40 727.42 362.37
  A 1.21 1.19 51.0 0 1 727.57 360.85
  Q 730.94 357.52 735.50 354.25
  Q 736.85 353.28 738.17 352.96
  Z"
/>
<path d="
  M 745.78 377.99
  Q 750.67 369.27 759.36 364.79
  A 0.46 0.46 0.0 0 1 760.03 365.23
  Q 759.39 373.40 756.40 379.95
  A 1.37 1.35 -76.6 0 1 755.12 380.75
  Q 750.96 380.61 746.05 378.71
  A 0.51 0.51 0.0 0 1 745.78 377.99
  Z"
/>
</g>
</svg>
