<?xml version="1.0" encoding="UTF-8" standalone="no"?>
<!DOCTYPE svg PUBLIC "-//W3C//DTD SVG 1.1//EN" "http://www.w3.org/Graphics/SVG/1.1/DTD/svg11.dtd">
<svg xmlns="http://www.w3.org/2000/svg" version="1.1" viewBox="0.00 0.00 997.00 566.00">
<g stroke-width="2.00" fill="none" stroke-linecap="butt">
<path stroke="#4195d0" vector-effect="non-scaling-stroke" d="
  M 851.57 205.47
  Q 852.37 202.10 853.31 199.56
  Q 854.80 195.55 855.50 187.57
  Q 857.67 162.78 847.23 140.25
  C 833.32 110.24 808.00 85.45 780.48 67.94
  C 754.47 51.38 723.22 37.86 692.22 29.55
  C 651.70 18.70 610.06 12.99 568.45 15.44
  C 557.54 16.08 545.40 18.02 533.83 20.13
  Q 516.17 23.37 499.29 29.52
  C 486.71 34.12 474.36 40.60 465.32 50.78
  C 458.51 58.43 452.55 74.51 465.92 79.34
  Q 468.16 80.15 470.72 79.48
  C 479.72 77.15 488.57 72.88 498.92 72.15
  C 507.50 71.55 520.20 69.09 530.06 68.83
  Q 561.84 68.01 588.12 74.64
  Q 619.29 82.50 645.91 97.93
  Q 663.34 108.03 680.29 123.33
  C 691.84 133.76 703.81 146.14 713.92 154.65
  C 730.06 168.25 749.84 178.28 769.43 186.37
  Q 783.50 192.19 798.78 197.25
  Q 823.33 205.39 849.60 206.93
  A 1.92 1.91 8.3 0 0 851.57 205.47"
/>
<path stroke="#4195d0" vector-effect="non-scaling-stroke" d="
  M 436.37 150.23
  A 0.33 0.32 0.1 0 0 436.76 149.85
  Q 430.67 121.23 416.02 95.47
  Q 409.89 84.68 402.00 75.52
  C 393.18 65.29 384.55 55.18 373.43 50.03
  A 0.47 0.47 0.0 0 0 372.84 50.70
  Q 376.63 56.85 379.22 62.77
  Q 391.58 91.07 393.71 120.49
  Q 394.60 132.81 392.35 144.44
  A 0.44 0.44 0.0 0 0 392.78 144.96
  Q 414.34 145.43 436.37 150.23"
/>
<path stroke="#2387c7" vector-effect="non-scaling-stroke" d="
  M 278.48 70.94
  A 0.28 0.28 0.0 0 0 278.14 71.36
  Q 282.70 77.39 284.30 79.42
  Q 292.76 90.25 298.83 106.11
  C 304.45 120.77 308.76 136.83 307.17 152.26
  A 0.69 0.69 0.0 0 0 308.01 153.01
  Q 327.42 148.76 347.18 146.45
  A 0.95 0.94 76.7 0 0 347.95 145.19
  C 338.48 118.87 319.05 97.73 296.92 81.59
  Q 288.24 75.25 278.48 70.94"
/>
<path stroke="#2387c7" vector-effect="non-scaling-stroke" d="
  M 551.83 101.79
  C 548.85 94.77 543.82 88.51 539.97 82.60
  A 3.28 3.28 0.0 0 0 537.22 81.11
  L 521.51 81.11
  A 0.70 0.70 0.0 0 0 520.91 82.18
  Q 524.24 87.43 527.31 91.92
  Q 529.98 95.83 534.10 96.69
  Q 543.48 98.63 551.62 102.00
  A 0.16 0.16 0.0 0 0 551.83 101.79"
/>
<path stroke="#2387c7" vector-effect="non-scaling-stroke" d="
  M 581.73 111.03
  A 0.26 0.26 0.0 0 0 581.83 110.68
  Q 576.61 100.71 574.38 89.74
  C 573.60 85.91 572.36 84.74 568.74 84.06
  Q 559.49 82.33 551.02 81.81
  A 0.43 0.43 0.0 0 0 550.62 82.45
  Q 554.87 89.89 560.94 101.80
  Q 563.04 105.92 566.74 106.81
  Q 577.59 109.43 581.25 111.11
  Q 581.43 111.19 581.73 111.03"
/>
<path stroke="#2387c7" vector-effect="non-scaling-stroke" d="
  M 518.21 92.06
  Q 514.98 86.81 509.63 83.10
  A 1.62 1.57 59.7 0 0 508.60 82.81
  Q 498.97 83.39 488.83 86.35
  A 0.37 0.36 51.4 0 0 488.76 87.02
  Q 491.26 88.43 493.78 88.55
  Q 506.30 89.15 517.85 92.53
  A 0.32 0.32 0.0 0 0 518.21 92.06"
/>
<path stroke="#2387c7" vector-effect="non-scaling-stroke" d="
  M 609.75 121.46
  Q 603.29 108.63 603.39 94.28
  A 1.49 1.48 13.2 0 0 602.55 92.93
  Q 593.92 88.72 584.07 87.39
  A 0.89 0.89 0.0 0 0 583.07 88.39
  Q 584.65 100.61 590.93 111.83
  Q 592.53 114.69 594.81 115.69
  Q 605.57 120.43 609.22 122.03
  A 0.42 0.41 88.2 0 0 609.75 121.46"
/>
<path stroke="#2387c7" vector-effect="non-scaling-stroke" d="
  M 633.94 131.31
  C 630.44 122.97 630.37 113.52 631.17 104.28
  A 1.23 1.23 0.0 0 0 630.43 103.04
  Q 623.37 100.02 616.15 96.57
  Q 615.08 96.06 612.73 95.71
  A 0.55 0.55 0.0 0 0 612.10 96.26
  Q 612.25 112.87 621.53 126.47
  C 623.44 129.27 629.92 132.84 633.43 132.24
  A 0.68 0.67 73.9 0 0 633.94 131.31"
/>
<path stroke="#2387c7" vector-effect="non-scaling-stroke" d="
  M 701.96 200.57
  Q 697.85 211.20 699.33 222.20
  Q 699.49 223.44 698.95 224.45
  A 1.43 1.43 0.0 0 1 696.36 224.31
  C 691.31 211.80 690.10 199.47 695.43 186.62
  Q 698.84 178.39 703.21 170.55
  C 704.31 168.59 705.02 166.55 703.78 164.73
  C 700.64 160.12 697.32 156.41 693.10 152.71
  Q 683.55 144.34 672.70 133.41
  C 667.57 128.24 661.30 122.81 655.03 117.72
  Q 648.64 112.54 641.63 109.10
  A 0.82 0.82 0.0 0 0 640.47 109.67
  C 639.93 112.21 640.85 114.57 640.96 116.70
  Q 641.17 120.48 643.44 128.03
  Q 646.67 138.74 656.99 141.73
  A 0.47 0.47 0.0 0 0 657.53 141.04
  L 652.64 132.56
  A 0.82 0.81 -88.9 0 1 653.78 131.46
  Q 662.89 137.26 669.44 145.58
  C 677.51 155.83 678.64 169.82 675.05 182.20
  A 0.48 0.48 0.0 0 1 674.43 182.52
  Q 673.89 182.34 673.70 181.77
  Q 671.09 173.87 666.69 166.32
  Q 663.99 161.68 656.89 158.75
  A 0.66 0.66 0.0 0 0 656.03 159.09
  Q 655.16 160.99 654.97 164.02
  Q 654.22 175.89 656.03 189.64
  Q 657.80 203.12 662.94 212.48
  Q 670.94 227.06 684.20 236.92
  Q 702.78 250.73 716.85 264.25
  Q 726.30 273.32 738.78 285.97
  C 745.72 293.00 758.71 302.13 769.10 297.08
  Q 775.65 293.90 780.62 288.84
  A 0.82 0.82 0.0 0 0 780.27 287.48
  Q 779.77 287.33 776.13 286.35
  Q 762.10 282.56 751.13 273.89
  Q 734.94 261.09 722.19 244.79
  Q 714.27 234.68 710.57 223.19
  Q 706.96 212.00 702.39 200.57
  A 0.23 0.23 0.0 0 0 701.96 200.57"
/>
<path stroke="#2387c7" vector-effect="non-scaling-stroke" d="
  M 235.40 119.99
  Q 235.40 120.03 239.68 126.37
  C 244.72 133.84 248.38 142.33 251.58 151.41
  C 253.61 157.17 255.25 161.09 255.38 165.70
  A 0.99 0.98 -7.8 0 0 256.61 166.63
  L 277.84 161.23
  A 0.44 0.43 -21.5 0 0 278.12 160.60
  Q 264.16 135.12 238.72 120.79
  Q 237.68 120.20 235.91 119.60
  A 0.39 0.39 0.0 0 0 235.40 119.99"
/>
<path stroke="#2387c7" vector-effect="non-scaling-stroke" d="
  M 483.24 124.45
  A 0.54 0.54 0.0 0 0 482.48 125.09
  Q 488.14 143.26 485.83 160.23
  A 1.63 1.62 -76.1 0 0 486.87 161.97
  L 505.36 168.93
  A 0.37 0.37 0.0 0 0 505.86 168.53
  Q 502.38 145.70 488.01 128.54
  Q 485.62 125.69 483.24 124.45"
/>
<path stroke="#2387c7" vector-effect="non-scaling-stroke" d="
  M 539.04 141.20
  Q 539.00 141.99 539.11 142.39
  C 541.91 153.01 544.64 163.01 542.12 172.33
  A 1.68 1.68 0.0 0 0 543.53 174.43
  Q 550.80 175.39 558.01 173.71
  A 0.74 0.73 73.1 0 0 558.53 172.73
  C 554.42 161.98 550.50 152.26 542.97 143.55
  Q 541.22 141.52 539.64 140.83
  A 0.43 0.43 0.0 0 0 539.04 141.20"
/>
<path stroke="#2387c7" vector-effect="non-scaling-stroke" d="
  M 308.91 264.14
  Q 309.14 261.56 308.33 258.83
  Q 303.60 242.92 304.39 227.45
  C 305.20 211.44 312.32 197.07 322.76 184.96
  A 1.23 1.23 0.0 0 1 324.83 185.28
  Q 325.49 186.82 324.65 188.67
  Q 317.26 204.96 316.43 220.39
  C 315.79 232.49 318.27 242.49 321.98 253.72
  A 0.81 0.80 72.3 0 0 322.98 254.24
  Q 331.07 251.83 338.62 247.39
  A 0.76 0.75 -20.6 0 0 338.98 246.61
  Q 337.00 234.81 340.37 222.89
  Q 348.00 195.94 370.39 179.61
  Q 372.39 178.15 374.05 177.40
  A 1.67 1.66 -14.2 0 1 376.39 178.79
  Q 376.59 181.32 374.75 183.52
  C 367.29 192.42 360.96 200.80 356.60 211.51
  C 352.91 220.59 352.19 229.58 353.30 238.89
  A 1.76 1.76 0.0 0 0 354.99 240.44
  Q 357.13 240.51 359.68 239.65
  Q 360.07 239.52 371.91 235.96
  C 373.64 235.44 374.54 234.13 374.78 232.50
  C 377.80 212.35 388.74 193.25 406.34 182.32
  Q 410.45 179.77 414.48 178.74
  A 1.42 1.42 0.0 0 1 416.18 179.66
  C 416.96 182.01 415.79 183.34 413.96 184.86
  C 400.92 195.71 389.86 212.94 390.12 230.38
  A 0.35 0.34 -7.7 0 0 390.56 230.71
  L 416.05 223.39
  A 1.66 1.66 0.0 0 0 417.23 222.10
  C 418.77 213.80 423.72 209.01 430.39 203.71
  Q 437.94 197.70 446.44 195.19
  A 0.66 0.66 0.0 0 1 447.25 196.05
  Q 446.88 197.06 446.19 197.68
  C 439.60 203.65 434.34 209.86 431.58 218.32
  A 0.46 0.46 0.0 0 0 432.12 218.91
  Q 441.01 216.88 452.00 212.98
  Q 468.11 207.26 479.74 204.56
  C 488.57 202.50 500.02 202.31 507.43 207.43
  Q 508.71 208.32 508.86 208.95
  A 1.65 1.56 -6.9 0 1 507.26 210.88
  Q 502.29 210.93 497.49 211.99
  Q 484.07 214.94 470.04 221.09
  C 461.82 224.70 454.07 227.85 448.26 229.51
  C 436.54 232.84 423.74 235.24 411.72 238.47
  Q 377.19 247.73 358.45 254.20
  Q 342.07 259.86 328.52 270.26
  C 323.76 273.91 319.42 278.16 319.58 284.45
  C 319.85 294.49 337.48 305.94 345.06 310.43
  C 364.54 321.98 389.01 336.80 409.81 351.26
  C 420.81 358.90 433.15 366.41 443.21 373.85
  Q 463.08 388.54 479.90 406.17
  Q 488.27 414.95 499.59 416.49
  Q 505.93 417.36 506.89 417.61
  Q 518.54 420.62 525.80 430.47
  C 531.27 437.88 535.45 447.02 537.48 456.55
  Q 539.20 464.62 539.82 467.18
  A 0.86 0.86 0.0 0 0 541.46 467.27
  C 542.91 463.37 542.78 459.52 542.85 454.53
  C 542.97 446.77 542.61 440.34 539.89 433.14
  Q 533.50 416.21 521.12 405.42
  Q 519.59 404.09 519.77 401.95
  A 0.68 0.68 0.0 0 1 520.38 401.32
  Q 522.33 401.10 525.02 401.73
  C 538.10 404.79 550.63 413.08 560.44 422.33
  C 570.30 431.62 579.52 441.25 586.34 452.87
  A 0.42 0.42 0.0 0 0 587.10 452.78
  Q 589.46 445.03 586.70 437.86
  Q 584.04 430.97 579.29 424.72
  Q 568.80 410.92 556.12 401.09
  C 549.16 395.69 542.55 393.71 534.77 390.79
  A 1.42 1.42 0.0 0 1 534.32 388.40
  Q 534.72 388.04 535.89 387.88
  C 555.99 385.10 577.54 389.56 595.77 400.18
  Q 604.80 405.44 610.21 409.06
  Q 610.85 409.48 611.64 409.66
  A 0.49 0.49 0.0 0 0 612.17 408.94
  C 609.41 403.96 604.51 399.41 599.78 395.14
  C 588.45 384.93 571.78 376.04 556.25 375.67
  C 542.98 375.37 529.36 378.09 518.49 379.66
  C 507.99 381.18 499.88 379.31 489.99 374.21
  Q 480.66 369.40 469.15 361.14
  Q 443.65 342.84 423.49 322.30
  Q 415.45 314.10 400.58 298.67
  C 389.88 287.56 378.38 279.17 363.78 274.38
  A 1.29 1.29 0.0 0 1 363.38 272.14
  Q 364.03 271.62 365.55 271.55
  C 378.00 270.95 389.25 275.35 399.99 281.46
  C 402.37 282.82 403.92 283.26 406.53 282.81
  C 430.31 278.65 460.26 267.25 477.01 263.99
  A 0.66 0.66 0.0 0 0 477.21 262.77
  Q 472.45 260.02 468.52 258.51
  Q 467.04 257.95 465.47 256.43
  A 1.33 1.32 -29.8 0 1 466.08 254.19
  Q 466.41 254.12 467.14 254.32
  Q 477.08 257.08 484.45 258.80
  C 499.92 262.43 516.90 260.50 532.17 255.64
  Q 538.33 253.68 538.52 253.66
  A 0.76 0.75 77.5 0 1 539.28 254.15
  Q 540.12 256.40 539.34 257.53
  C 530.94 269.67 539.95 283.07 550.23 290.50
  Q 557.22 295.55 564.27 298.72
  A 1.48 1.47 41.6 0 1 564.43 301.33
  Q 562.71 302.36 560.26 302.15
  C 545.45 300.89 532.33 293.03 525.52 279.63
  C 523.91 276.47 523.57 274.12 523.10 270.50
  A 1.32 1.31 82.1 0 0 521.60 269.36
  L 506.49 271.61
  A 1.05 1.05 0.0 0 0 505.60 272.66
  Q 505.63 275.18 506.40 277.86
  C 507.88 282.95 510.13 289.24 513.31 293.65
  C 519.98 302.89 528.19 307.41 538.65 310.89
  Q 540.01 311.34 540.72 311.93
  A 0.84 0.84 0.0 0 1 540.38 313.39
  Q 524.65 317.30 511.81 308.22
  C 500.60 300.30 494.98 288.66 492.02 275.60
  A 0.54 0.54 0.0 0 0 491.41 275.20
  Q 482.98 276.56 474.56 279.47
  A 0.88 0.87 72.4 0 0 474.01 280.54
  C 477.57 293.18 485.01 304.52 495.51 312.52
  C 499.21 315.34 503.09 316.99 507.62 318.64
  A 1.61 1.60 12.9 0 1 508.67 320.30
  C 508.49 322.06 507.67 322.88 505.75 322.95
  Q 492.49 323.47 482.51 316.00
  Q 466.17 303.78 459.89 284.56
  A 1.34 1.34 0.0 0 0 458.18 283.70
  L 442.72 288.95
  A 0.41 0.41 0.0 0 0 442.49 289.52
  C 449.93 304.41 460.67 316.72 475.85 323.54
  C 482.46 326.51 492.31 328.34 499.75 328.75
  C 535.79 330.71 576.43 322.08 599.81 291.81
  Q 600.47 290.96 601.33 290.76
  A 0.46 0.46 0.0 0 1 601.89 291.27
  Q 601.16 297.15 598.48 301.61
  A 0.37 0.37 0.0 0 0 598.83 302.17
  Q 602.05 301.94 610.27 301.28
  C 614.95 300.91 621.00 295.57 623.84 292.34
  Q 628.08 287.51 631.93 280.18
  Q 636.68 271.16 636.72 260.77
  A 0.72 0.72 0.0 0 0 635.52 260.23
  C 626.76 268.10 616.28 272.08 604.49 274.72
  Q 600.14 275.69 597.62 272.19
  A 1.40 1.38 29.6 0 1 597.35 271.23
  Q 597.53 269.03 598.78 268.24
  C 607.00 263.06 618.98 257.00 627.60 249.60
  C 632.40 245.49 639.25 237.80 645.45 232.97
  Q 648.04 230.95 654.20 226.29
  A 1.52 1.51 57.4 0 0 654.62 224.36
  C 645.57 207.61 643.67 190.61 641.05 170.48
  C 639.76 160.59 638.34 154.21 633.75 146.53
  A 0.82 0.81 40.2 0 0 632.29 146.65
  Q 630.02 152.61 627.33 160.85
  Q 623.62 172.22 614.99 184.25
  Q 599.72 205.52 573.19 208.62
  A 0.76 0.76 0.0 0 1 572.48 207.43
  Q 574.35 204.80 576.23 203.47
  Q 586.74 196.06 592.63 191.64
  Q 610.78 178.02 616.72 156.77
  C 618.06 151.98 618.74 145.01 615.34 141.06
  A 0.99 0.98 -51.2 0 0 613.73 141.24
  Q 607.39 152.98 605.55 156.05
  C 599.63 165.90 590.23 173.66 580.31 179.56
  C 573.59 183.56 566.14 185.64 558.62 186.59
  Q 546.36 188.14 534.20 187.01
  A 0.38 0.38 0.0 0 0 533.94 187.69
  C 540.93 192.93 547.32 199.82 549.93 208.09
  Q 550.64 210.33 550.49 212.15
  A 1.32 1.32 0.0 0 1 548.27 213.00
  C 544.12 209.09 539.19 203.67 534.26 200.03
  Q 521.80 190.85 508.46 185.06
  C 469.57 168.21 427.94 158.78 385.76 157.87
  C 375.78 157.65 368.54 157.49 358.22 158.22
  Q 333.39 159.96 305.82 165.87
  Q 258.15 176.10 212.52 190.51
  C 205.63 192.69 198.29 195.59 192.20 197.65
  Q 183.77 200.50 177.13 203.42
  Q 152.11 214.40 147.11 217.12
  Q 108.69 238.04 78.03 264.81
  Q 51.44 288.03 31.40 319.17
  Q 23.04 332.16 18.18 346.68
  C 10.68 369.14 12.67 394.30 23.19 415.30
  Q 26.93 422.76 30.82 427.47
  C 38.67 437.00 48.32 443.65 59.73 449.83
  Q 80.18 460.90 104.57 463.63
  Q 110.67 464.31 116.69 464.71
  C 128.71 465.51 139.60 469.62 148.48 477.03
  Q 159.02 485.82 163.48 490.76
  Q 177.43 506.20 182.96 511.50
  Q 223.36 550.16 279.21 551.38
  Q 292.87 551.68 305.64 549.48
  C 312.57 548.29 318.53 546.29 324.18 542.95
  A 0.82 0.82 0.0 0 0 323.81 541.43
  Q 306.14 540.31 289.57 534.65
  Q 283.76 532.66 276.33 528.72
  Q 259.91 520.00 244.62 507.07
  Q 235.65 499.48 222.32 486.33
  Q 210.05 474.23 203.20 468.82
  Q 187.86 456.70 167.74 448.04
  Q 159.82 444.63 144.28 441.52
  Q 139.10 440.49 126.66 439.49
  Q 115.57 438.60 109.08 437.39
  C 87.16 433.32 64.76 418.82 58.36 396.58
  Q 51.01 371.02 63.85 347.38
  Q 75.73 325.52 96.67 310.94
  Q 105.54 304.77 116.52 298.78
  A 0.64 0.63 -49.6 0 0 116.43 297.62
  Q 112.83 296.38 110.27 295.27
  Q 97.66 289.82 98.96 276.35
  C 99.17 274.24 100.19 271.94 101.60 270.53
  A 0.89 0.89 0.0 0 1 102.99 270.70
  Q 103.90 272.22 105.28 276.01
  C 107.89 283.19 113.31 287.36 121.24 287.69
  Q 128.25 287.98 133.73 286.44
  C 140.00 284.67 146.02 280.17 151.44 275.88
  A 0.38 0.38 0.0 0 0 151.32 275.22
  C 142.30 272.19 133.75 269.04 133.10 257.95
  Q 132.69 250.87 137.26 245.77
  Q 138.17 244.75 139.15 244.48
  A 0.84 0.83 81.1 0 1 140.20 245.25
  Q 140.27 246.89 139.85 249.12
  C 139.00 253.76 141.78 257.98 145.57 260.43
  C 156.31 267.36 170.58 263.87 180.93 257.81
  A 0.91 0.91 0.0 0 0 180.88 256.21
  Q 174.00 252.72 171.26 245.05
  C 170.54 243.04 169.74 241.60 170.09 239.31
  C 170.92 233.88 174.08 228.31 179.89 227.81
  A 0.60 0.59 -82.2 0 1 180.50 228.62
  C 174.26 245.08 189.75 252.12 202.93 249.83
  Q 205.57 249.37 221.83 244.90
  A 0.79 0.79 0.0 0 0 222.24 243.65
  C 217.74 238.00 214.62 229.36 215.99 222.29
  Q 217.35 215.28 224.42 210.83
  A 0.95 0.95 0.0 0 1 225.87 211.77
  Q 225.38 215.01 225.30 215.49
  C 222.68 231.14 236.44 241.05 250.34 242.89
  Q 263.32 244.61 273.56 246.84
  A 0.33 0.33 0.0 0 0 273.91 246.34
  C 264.50 231.30 264.11 209.94 277.16 196.90
  Q 278.95 195.11 280.75 194.22
  A 1.26 1.25 -21.0 0 1 282.51 195.00
  Q 282.85 196.18 282.40 197.47
  Q 274.46 220.43 284.54 241.19
  C 289.79 252.02 297.75 259.52 308.05 264.62
  A 0.60 0.60 0.0 0 0 308.91 264.14"
/>
<path stroke="#2387c7" vector-effect="non-scaling-stroke" d="
  M 186.69 146.43
  A 0.14 0.14 0.0 0 0 186.55 146.65
  Q 195.64 157.34 202.12 170.21
  C 203.46 172.86 204.31 176.31 205.04 178.47
  A 1.78 1.78 0.0 0 0 207.16 179.63
  L 227.86 174.37
  A 0.95 0.95 0.0 0 0 228.34 172.83
  C 219.41 162.63 207.53 154.92 194.94 149.30
  Q 190.99 147.54 186.69 146.43"
/>
<path stroke="#2387c7" vector-effect="non-scaling-stroke" d="
  M 143.04 163.77
  Q 143.39 164.22 147.35 168.17
  C 154.38 175.19 160.16 184.04 164.93 193.19
  A 1.27 1.26 65.5 0 0 166.51 193.79
  L 183.75 187.20
  A 0.82 0.82 0.0 0 0 184.00 185.82
  Q 172.03 175.11 158.51 168.57
  Q 154.81 166.78 143.45 163.18
  A 0.38 0.38 0.0 0 0 143.04 163.77"
/>
<path stroke="#2387c7" vector-effect="non-scaling-stroke" d="
  M 725.74 223.34
  C 727.07 214.96 727.71 206.50 728.90 198.09
  C 729.50 193.84 730.82 189.76 731.21 186.17
  A 1.87 1.87 0.0 0 0 730.20 184.29
  Q 724.20 181.20 718.14 176.35
  A 1.93 1.93 0.0 0 0 715.97 176.19
  Q 711.49 178.83 713.44 183.27
  Q 715.01 186.87 716.38 192.08
  Q 719.75 204.85 722.07 215.62
  C 722.65 218.31 723.90 221.32 724.81 223.46
  A 0.49 0.49 0.0 0 0 725.74 223.34"
/>
<path stroke="#2387c7" vector-effect="non-scaling-stroke" d="
  M 115.77 195.34
  Q 123.76 203.51 128.72 211.64
  A 1.40 1.40 0.0 0 0 130.60 212.13
  L 140.80 206.36
  A 1.07 1.07 0.0 0 0 141.19 204.87
  Q 141.13 204.76 140.73 204.54
  Q 129.66 198.36 116.06 194.84
  A 0.30 0.30 0.0 0 0 115.77 195.34"
/>
<path stroke="#2387c7" vector-effect="non-scaling-stroke" d="
  M 809.74 218.30
  C 809.96 221.73 806.26 228.98 808.33 234.43
  A 0.79 0.79 0.0 0 0 809.59 234.75
  C 813.76 231.12 816.24 226.36 819.46 220.77
  A 0.62 0.62 0.0 0 0 819.07 219.86
  L 810.38 217.71
  A 0.52 0.52 0.0 0 0 809.74 218.30"
/>
<path stroke="#2387c7" vector-effect="non-scaling-stroke" d="
  M 830.56 237.31
  A 0.48 0.48 0.0 0 0 831.32 237.64
  C 836.02 234.23 839.45 226.83 841.18 221.55
  A 0.23 0.23 0.0 0 0 840.97 221.25
  L 831.04 220.80
  A 0.36 0.36 0.0 0 0 830.66 221.12
  Q 829.64 229.87 830.56 237.31"
/>
<path stroke="#2387c7" vector-effect="non-scaling-stroke" d="
  M 84.69 221.88
  A 0.63 0.63 0.0 0 0 84.18 222.98
  Q 90.86 228.69 95.14 234.62
  A 1.21 1.20 -37.2 0 0 96.88 234.85
  Q 105.00 228.23 105.55 227.80
  Q 106.46 227.08 106.29 225.98
  A 1.03 1.03 0.0 0 0 105.43 225.11
  L 84.69 221.88"
/>
<path stroke="#2387c7" vector-effect="non-scaling-stroke" d="
  M 743.74 252.48
  C 746.42 250.49 746.91 241.40 746.84 238.15
  A 0.78 0.77 -8.6 0 0 745.86 237.43
  Q 740.19 239.00 735.03 243.00
  A 1.45 1.44 54.4 0 0 734.71 244.94
  Q 737.72 249.56 742.66 252.53
  A 0.97 0.96 -47.1 0 0 743.74 252.48"
/>
<path stroke="#2387c7" vector-effect="non-scaling-stroke" d="
  M 961.03 314.77
  Q 947.56 314.94 933.25 312.68
  Q 925.48 311.45 919.76 308.71
  Q 907.34 302.78 895.79 300.28
  Q 886.43 298.26 878.39 302.08
  Q 872.72 304.78 869.76 306.08
  A 0.96 0.96 0.0 0 1 868.41 305.19
  Q 868.42 304.44 868.81 303.79
  Q 873.31 296.15 878.02 287.75
  C 884.24 276.64 893.07 268.01 903.32 260.40
  Q 914.73 251.93 928.19 247.46
  Q 930.05 246.84 931.89 245.68
  A 0.32 0.32 0.0 0 0 931.76 245.09
  Q 925.51 244.35 919.02 245.29
  Q 889.84 249.47 870.72 272.21
  Q 864.73 279.33 861.35 284.85
  Q 855.14 294.96 855.06 295.06
  C 847.60 305.58 836.24 314.27 824.62 319.35
  Q 807.77 326.71 788.69 330.90
  Q 787.47 331.17 774.91 333.52
  C 763.37 335.68 752.90 336.42 740.21 337.85
  C 728.75 339.15 718.16 339.46 707.27 339.77
  A 2.91 2.89 66.5 0 1 705.16 338.93
  C 696.23 330.13 687.63 322.40 679.17 313.50
  Q 661.10 294.48 646.71 276.37
  A 0.26 0.25 -55.0 0 0 646.27 276.45
  Q 640.62 294.17 626.47 305.44
  A 0.45 0.44 -37.8 0 0 626.39 306.05
  Q 629.19 309.89 632.66 313.84
  Q 651.22 334.90 674.53 355.87
  Q 681.36 362.01 688.63 367.02
  C 694.77 371.23 701.21 375.31 708.02 375.72
  C 718.73 376.37 728.99 374.00 740.93 370.65
  C 757.79 365.93 772.82 360.54 792.62 352.52
  Q 817.47 342.45 832.95 336.96
  Q 835.84 335.93 837.52 336.15
  Q 850.07 337.79 850.65 337.84
  Q 855.44 338.19 857.26 337.82
  Q 866.06 336.05 873.59 331.05
  C 879.91 326.86 884.55 318.77 892.03 317.03
  C 902.30 314.64 912.13 317.93 923.51 320.72
  C 935.69 323.70 950.38 322.51 961.21 315.37
  A 0.33 0.33 0.0 0 0 961.03 314.77"
/>
<path stroke="#2387c7" vector-effect="non-scaling-stroke" d="
  M 777.72 255.13
  L 779.34 255.06
  A 0.25 0.25 0.0 0 0 779.58 254.80
  L 779.52 253.54
  A 7.51 1.00 87.3 0 0 778.17 246.08
  L 778.05 246.09
  A 7.51 1.00 87.3 0 0 777.40 253.64
  L 777.46 254.90
  A 0.25 0.25 0.0 0 0 777.72 255.13"
/>
<path stroke="#2387c7" vector-effect="non-scaling-stroke" d="
  M 59.12 247.41
  Q 64.62 251.05 67.98 257.15
  A 0.53 0.53 0.0 0 0 68.82 257.26
  L 77.29 248.80
  A 0.60 0.60 0.0 0 0 76.89 247.78
  L 59.26 246.97
  A 0.24 0.24 0.0 0 0 59.12 247.41"
/>
<path stroke="#2387c7" vector-effect="non-scaling-stroke" d="
  M 751.56 260.69
  L 759.01 268.14
  A 0.63 0.62 35.6 0 0 760.01 267.98
  Q 763.72 260.47 763.66 251.40
  Q 763.65 250.55 762.83 250.31
  C 760.19 249.56 755.14 254.77 753.94 256.91
  Q 752.52 259.43 751.63 260.03
  A 0.43 0.43 0.0 0 0 751.56 260.69"
/>
<path stroke="#2387c7" vector-effect="non-scaling-stroke" d="
  M 791.52 260.92
  Q 788.25 261.76 785.50 264.28
  Q 779.87 269.45 774.50 273.88
  A 0.55 0.55 0.0 0 0 774.55 274.76
  Q 777.08 276.39 780.31 277.75
  C 782.78 278.78 784.74 279.94 786.05 277.26
  Q 789.64 269.87 792.04 261.46
  A 0.43 0.43 0.0 0 0 791.52 260.92"
/>
<path stroke="#2387c7" vector-effect="non-scaling-stroke" d="
  M 895.81 289.58
  Q 904.58 291.17 912.13 294.39
  Q 914.30 295.31 916.57 294.33
  C 930.76 288.19 939.33 284.66 952.60 280.79
  C 959.92 278.65 965.46 277.94 973.27 277.12
  A 0.49 0.49 0.0 0 0 973.44 276.20
  Q 970.10 274.50 966.36 274.14
  Q 955.03 273.03 943.23 274.17
  C 932.52 275.21 921.84 276.61 912.49 279.74
  C 906.25 281.84 900.10 283.90 895.64 289.09
  A 0.30 0.30 0.0 0 0 895.81 289.58"
/>
<path stroke="#2387c7" vector-effect="non-scaling-stroke" d="
  M 49.70 273.71
  L 38.99 275.31
  A 0.34 0.34 0.0 0 0 38.87 275.94
  L 44.63 279.27
  A 1.88 1.86 41.7 0 0 46.67 279.16
  Q 49.05 277.42 50.19 274.31
  A 0.45 0.45 0.0 0 0 49.70 273.71"
/>
<path stroke="#2387c7" vector-effect="non-scaling-stroke" d="
  M 443.06 316.45
  A 0.26 0.26 0.0 0 0 443.27 316.00
  C 439.39 312.43 437.96 309.90 434.79 304.59
  Q 431.45 299.00 430.35 294.90
  A 0.73 0.73 0.0 0 0 429.53 294.37
  L 418.08 296.07
  A 0.37 0.37 0.0 0 0 417.85 296.67
  Q 424.52 304.57 427.97 308.37
  C 430.17 310.79 434.70 314.96 438.43 315.79
  Q 439.92 316.12 443.06 316.45"
/>
<path stroke="#2387c7" vector-effect="non-scaling-stroke" d="
  M 579.25 324.70
  C 586.56 325.71 596.59 318.55 602.00 314.01
  A 0.23 0.23 0.0 0 0 601.87 313.61
  Q 596.82 313.12 592.75 311.13
  A 0.90 0.90 0.0 0 0 591.64 311.40
  Q 586.28 318.66 579.11 324.14
  A 0.31 0.31 0.0 0 0 579.25 324.70"
/>
<path stroke="#2387c7" vector-effect="non-scaling-stroke" d="
  M 574.17 332.69
  Q 566.93 331.09 560.38 332.65
  C 555.73 333.75 550.20 336.97 546.53 338.40
  A 0.33 0.33 0.0 0 0 546.56 339.02
  C 554.49 341.35 566.87 336.95 574.24 333.28
  A 0.32 0.31 -52.0 0 0 574.17 332.69"
/>
<path stroke="#2387c7" vector-effect="non-scaling-stroke" d="
  M 365.88 354.61
  Q 367.74 355.94 371.72 357.30
  Q 387.16 362.58 402.54 365.69
  Q 408.08 366.82 412.09 366.78
  A 0.28 0.27 -29.2 0 0 412.24 366.27
  Q 401.43 359.60 389.22 352.81
  Q 387.05 351.61 385.00 352.00
  Q 377.24 353.49 366.05 354.04
  A 0.32 0.31 -28.7 0 0 365.88 354.61"
/>
<path stroke="#2387c7" vector-effect="non-scaling-stroke" d="
  M 407.67 387.03
  Q 425.00 393.28 442.48 393.68
  Q 446.29 393.76 449.64 393.41
  A 0.30 0.30 0.0 0 0 449.77 392.85
  Q 446.49 390.75 434.21 382.79
  Q 432.14 381.45 427.89 379.75
  A 2.46 2.43 -49.7 0 0 425.73 379.94
  Q 417.56 384.91 407.72 386.48
  A 0.29 0.29 0.0 0 0 407.67 387.03"
/>
<path stroke="#2387c7" vector-effect="non-scaling-stroke" d="
  M 370.48 419.70
  Q 370.38 418.79 369.64 418.13
  C 361.31 410.64 351.02 406.42 339.83 401.81
  Q 328.45 397.12 321.60 396.07
  Q 285.80 390.59 250.07 400.15
  Q 231.55 405.10 213.46 413.23
  Q 188.61 424.40 173.93 430.41
  Q 167.63 433.00 161.80 434.74
  A 0.33 0.33 0.0 0 0 161.78 435.37
  C 177.05 441.09 189.38 446.65 198.07 449.92
  C 214.29 456.01 233.36 453.14 248.62 446.62
  Q 264.64 439.78 282.63 429.41
  C 310.30 413.47 340.25 406.34 370.22 419.89
  A 0.19 0.19 0.0 0 0 370.48 419.70"
/>
<path stroke="#2387c7" vector-effect="non-scaling-stroke" d="
  M 633.53 195.07
  Q 633.25 195.12 632.95 195.45
  Q 616.33 213.71 614.21 215.94
  Q 604.50 226.19 596.65 231.40
  Q 591.90 234.55 582.56 239.99
  A 1.61 1.60 48.7 0 0 582.39 242.65
  C 586.27 245.61 594.68 243.28 598.89 241.09
  C 614.46 233.02 626.61 218.43 633.46 202.37
  C 634.49 199.96 635.49 198.64 634.81 195.89
  A 1.11 1.11 0.0 0 0 633.53 195.07"
/>
<path stroke="#2387c7" vector-effect="non-scaling-stroke" d="
  M 579.39 285.19
  C 581.81 284.54 581.62 282.14 580.06 280.94
  Q 567.46 271.29 562.04 255.94
  Q 561.05 253.11 559.18 246.84
  A 1.18 1.18 0.0 0 0 557.07 246.52
  C 554.01 251.12 554.10 257.06 555.16 262.72
  C 556.94 272.17 564.70 280.17 573.13 284.27
  C 574.79 285.08 577.46 285.71 579.39 285.19"
/>
</g>
<g fill="#41afe2">
<path d="
  M 278.48 70.94
  Q 288.24 75.25 296.92 81.59
  C 319.05 97.73 338.48 118.87 347.95 145.19
  A 0.95 0.94 76.7 0 1 347.18 146.45
  Q 327.42 148.76 308.01 153.01
  A 0.69 0.69 0.0 0 1 307.17 152.26
  C 308.76 136.83 304.45 120.77 298.83 106.11
  Q 292.76 90.25 284.30 79.42
  Q 282.70 77.39 278.14 71.36
  A 0.28 0.28 0.0 0 1 278.48 70.94
  Z"
/>
<path d="
  M 551.83 101.79
  A 0.16 0.16 0.0 0 1 551.62 102.00
  Q 543.48 98.63 534.10 96.69
  Q 529.98 95.83 527.31 91.92
  Q 524.24 87.43 520.91 82.18
  A 0.70 0.70 0.0 0 1 521.51 81.11
  L 537.22 81.11
  A 3.28 3.28 0.0 0 1 539.97 82.60
  C 543.82 88.51 548.85 94.77 551.83 101.79
  Z"
/>
<path d="
  M 581.73 111.03
  Q 581.43 111.19 581.25 111.11
  Q 577.59 109.43 566.74 106.81
  Q 563.04 105.92 560.94 101.80
  Q 554.87 89.89 550.62 82.45
  A 0.43 0.43 0.0 0 1 551.02 81.81
  Q 559.49 82.33 568.74 84.06
  C 572.36 84.74 573.60 85.91 574.38 89.74
  Q 576.61 100.71 581.83 110.68
  A 0.26 0.26 0.0 0 1 581.73 111.03
  Z"
/>
<path d="
  M 517.85 92.53
  Q 506.30 89.15 493.78 88.55
  Q 491.26 88.43 488.76 87.02
  A 0.37 0.36 51.4 0 1 488.83 86.35
  Q 498.97 83.39 508.60 82.81
  A 1.62 1.57 59.7 0 1 509.63 83.10
  Q 514.98 86.81 518.21 92.06
  A 0.32 0.32 0.0 0 1 517.85 92.53
  Z"
/>
<path d="
  M 609.75 121.46
  A 0.42 0.41 88.2 0 1 609.22 122.03
  Q 605.57 120.43 594.81 115.69
  Q 592.53 114.69 590.93 111.83
  Q 584.65 100.61 583.07 88.39
  A 0.89 0.89 0.0 0 1 584.07 87.39
  Q 593.92 88.72 602.55 92.93
  A 1.49 1.48 13.2 0 1 603.39 94.28
  Q 603.29 108.63 609.75 121.46
  Z"
/>
<path d="
  M 633.94 131.31
  A 0.68 0.67 73.9 0 1 633.43 132.24
  C 629.92 132.84 623.44 129.27 621.53 126.47
  Q 612.25 112.87 612.10 96.26
  A 0.55 0.55 0.0 0 1 612.73 95.71
  Q 615.08 96.06 616.15 96.57
  Q 623.37 100.02 630.43 103.04
  A 1.23 1.23 0.0 0 1 631.17 104.28
  C 630.37 113.52 630.44 122.97 633.94 131.31
  Z"
/>
<path d="
  M 701.96 200.57
  A 0.23 0.23 0.0 0 1 702.39 200.57
  Q 706.96 212.00 710.57 223.19
  Q 714.27 234.68 722.19 244.79
  Q 734.94 261.09 751.13 273.89
  Q 762.10 282.56 776.13 286.35
  Q 779.77 287.33 780.27 287.48
  A 0.82 0.82 0.0 0 1 780.62 288.84
  Q 775.65 293.90 769.10 297.08
  C 758.71 302.13 745.72 293.00 738.78 285.97
  Q 726.30 273.32 716.85 264.25
  Q 702.78 250.73 684.20 236.92
  Q 670.94 227.06 662.94 212.48
  Q 657.80 203.12 656.03 189.64
  Q 654.22 175.89 654.97 164.02
  Q 655.16 160.99 656.03 159.09
  A 0.66 0.66 0.0 0 1 656.89 158.75
  Q 663.99 161.68 666.69 166.32
  Q 671.09 173.87 673.70 181.77
  Q 673.89 182.34 674.43 182.52
  A 0.48 0.48 0.0 0 0 675.05 182.20
  C 678.64 169.82 677.51 155.83 669.44 145.58
  Q 662.89 137.26 653.78 131.46
  A 0.82 0.81 -88.9 0 0 652.64 132.56
  L 657.53 141.04
  A 0.47 0.47 0.0 0 1 656.99 141.73
  Q 646.67 138.74 643.44 128.03
  Q 641.17 120.48 640.96 116.70
  C 640.85 114.57 639.93 112.21 640.47 109.67
  A 0.82 0.82 0.0 0 1 641.63 109.10
  Q 648.64 112.54 655.03 117.72
  C 661.30 122.81 667.57 128.24 672.70 133.41
  Q 683.55 144.34 693.10 152.71
  C 697.32 156.41 700.64 160.12 703.78 164.73
  C 705.02 166.55 704.31 168.59 703.21 170.55
  Q 698.84 178.39 695.43 186.62
  C 690.10 199.47 691.31 211.80 696.36 224.31
  A 1.43 1.43 0.0 0 0 698.95 224.45
  Q 699.49 223.44 699.33 222.20
  Q 697.85 211.20 701.96 200.57
  Z"
/>
<path d="
  M 235.91 119.60
  Q 237.68 120.20 238.72 120.79
  Q 264.16 135.12 278.12 160.60
  A 0.44 0.43 -21.5 0 1 277.84 161.23
  L 256.61 166.63
  A 0.99 0.98 -7.8 0 1 255.38 165.70
  C 255.25 161.09 253.61 157.17 251.58 151.41
  C 248.38 142.33 244.72 133.84 239.68 126.37
  Q 235.40 120.03 235.40 119.99
  A 0.39 0.39 0.0 0 1 235.91 119.60
  Z"
/>
<path d="
  M 483.24 124.45
  Q 485.62 125.69 488.01 128.54
  Q 502.38 145.70 505.86 168.53
  A 0.37 0.37 0.0 0 1 505.36 168.93
  L 486.87 161.97
  A 1.63 1.62 -76.1 0 1 485.83 160.23
  Q 488.14 143.26 482.48 125.09
  A 0.54 0.54 0.0 0 1 483.24 124.45
  Z"
/>
<path d="
  M 539.04 141.20
  A 0.43 0.43 0.0 0 1 539.64 140.83
  Q 541.22 141.52 542.97 143.55
  C 550.50 152.26 554.42 161.98 558.53 172.73
  A 0.74 0.73 73.1 0 1 558.01 173.71
  Q 550.80 175.39 543.53 174.43
  A 1.68 1.68 0.0 0 1 542.12 172.33
  C 544.64 163.01 541.91 153.01 539.11 142.39
  Q 539.00 141.99 539.04 141.20
  Z"
/>
<path d="
  M 308.91 264.14
  A 0.60 0.60 0.0 0 1 308.05 264.62
  C 297.75 259.52 289.79 252.02 284.54 241.19
  Q 274.46 220.43 282.40 197.47
  Q 282.85 196.18 282.51 195.00
  A 1.26 1.25 -21.0 0 0 280.75 194.22
  Q 278.95 195.11 277.16 196.90
  C 264.11 209.94 264.50 231.30 273.91 246.34
  A 0.33 0.33 0.0 0 1 273.56 246.84
  Q 263.32 244.61 250.34 242.89
  C 236.44 241.05 222.68 231.14 225.30 215.49
  Q 225.38 215.01 225.87 211.77
  A 0.95 0.95 0.0 0 0 224.42 210.83
  Q 217.35 215.28 215.99 222.29
  C 214.62 229.36 217.74 238.00 222.24 243.65
  A 0.79 0.79 0.0 0 1 221.83 244.90
  Q 205.57 249.37 202.93 249.83
  C 189.75 252.12 174.26 245.08 180.50 228.62
  A 0.60 0.59 -82.2 0 0 179.89 227.81
  C 174.08 228.31 170.92 233.88 170.09 239.31
  C 169.74 241.60 170.54 243.04 171.26 245.05
  Q 174.00 252.72 180.88 256.21
  A 0.91 0.91 0.0 0 1 180.93 257.81
  C 170.58 263.87 156.31 267.36 145.57 260.43
  C 141.78 257.98 139.00 253.76 139.85 249.12
  Q 140.27 246.89 140.20 245.25
  A 0.84 0.83 81.1 0 0 139.15 244.48
  Q 138.17 244.75 137.26 245.77
  Q 132.69 250.87 133.10 257.95
  C 133.75 269.04 142.30 272.19 151.32 275.22
  A 0.38 0.38 0.0 0 1 151.44 275.88
  C 146.02 280.17 140.00 284.67 133.73 286.44
  Q 128.25 287.98 121.24 287.69
  C 113.31 287.36 107.89 283.19 105.28 276.01
  Q 103.90 272.22 102.99 270.70
  A 0.89 0.89 0.0 0 0 101.60 270.53
  C 100.19 271.94 99.17 274.24 98.96 276.35
  Q 97.66 289.82 110.27 295.27
  Q 112.83 296.38 116.43 297.62
  A 0.64 0.63 -49.6 0 1 116.52 298.78
  Q 105.54 304.77 96.67 310.94
  Q 75.73 325.52 63.85 347.38
  Q 51.01 371.02 58.36 396.58
  C 64.76 418.82 87.16 433.32 109.08 437.39
  Q 115.57 438.60 126.66 439.49
  Q 139.10 440.49 144.28 441.52
  Q 159.82 444.63 167.74 448.04
  Q 187.86 456.70 203.20 468.82
  Q 210.05 474.23 222.32 486.33
  Q 235.65 499.48 244.62 507.07
  Q 259.91 520.00 276.33 528.72
  Q 283.76 532.66 289.57 534.65
  Q 306.14 540.31 323.81 541.43
  A 0.82 0.82 0.0 0 1 324.18 542.95
  C 318.53 546.29 312.57 548.29 305.64 549.48
  Q 292.87 551.68 279.21 551.38
  Q 223.36 550.16 182.96 511.50
  Q 177.43 506.20 163.48 490.76
  Q 159.02 485.82 148.48 477.03
  C 139.60 469.62 128.71 465.51 116.69 464.71
  Q 110.67 464.31 104.57 463.63
  Q 80.18 460.90 59.73 449.83
  C 48.32 443.65 38.67 437.00 30.82 427.47
  Q 26.93 422.76 23.19 415.30
  C 12.67 394.30 10.68 369.14 18.18 346.68
  Q 23.04 332.16 31.40 319.17
  Q 51.44 288.03 78.03 264.81
  Q 108.69 238.04 147.11 217.12
  Q 152.11 214.40 177.13 203.42
  Q 183.77 200.50 192.20 197.65
  C 198.29 195.59 205.63 192.69 212.52 190.51
  Q 258.15 176.10 305.82 165.87
  Q 333.39 159.96 358.22 158.22
  C 368.54 157.49 375.78 157.65 385.76 157.87
  C 427.94 158.78 469.57 168.21 508.46 185.06
  Q 521.80 190.85 534.26 200.03
  C 539.19 203.67 544.12 209.09 548.27 213.00
  A 1.32 1.32 0.0 0 0 550.49 212.15
  Q 550.64 210.33 549.93 208.09
  C 547.32 199.82 540.93 192.93 533.94 187.69
  A 0.38 0.38 0.0 0 1 534.20 187.01
  Q 546.36 188.14 558.62 186.59
  C 566.14 185.64 573.59 183.56 580.31 179.56
  C 590.23 173.66 599.63 165.90 605.55 156.05
  Q 607.39 152.98 613.73 141.24
  A 0.99 0.98 -51.2 0 1 615.34 141.06
  C 618.74 145.01 618.06 151.98 616.72 156.77
  Q 610.78 178.02 592.63 191.64
  Q 586.74 196.06 576.23 203.47
  Q 574.35 204.80 572.48 207.43
  A 0.76 0.76 0.0 0 0 573.19 208.62
  Q 599.72 205.52 614.99 184.25
  Q 623.62 172.22 627.33 160.85
  Q 630.02 152.61 632.29 146.65
  A 0.82 0.81 40.2 0 1 633.75 146.53
  C 638.34 154.21 639.76 160.59 641.05 170.48
  C 643.67 190.61 645.57 207.61 654.62 224.36
  A 1.52 1.51 57.4 0 1 654.20 226.29
  Q 648.04 230.95 645.45 232.97
  C 639.25 237.80 632.40 245.49 627.60 249.60
  C 618.98 257.00 607.00 263.06 598.78 268.24
  Q 597.53 269.03 597.35 271.23
  A 1.40 1.38 29.6 0 0 597.62 272.19
  Q 600.14 275.69 604.49 274.72
  C 616.28 272.08 626.76 268.10 635.52 260.23
  A 0.72 0.72 0.0 0 1 636.72 260.77
  Q 636.68 271.16 631.93 280.18
  Q 628.08 287.51 623.84 292.34
  C 621.00 295.57 614.95 300.91 610.27 301.28
  Q 602.05 301.94 598.83 302.17
  A 0.37 0.37 0.0 0 1 598.48 301.61
  Q 601.16 297.15 601.89 291.27
  A 0.46 0.46 0.0 0 0 601.33 290.76
  Q 600.47 290.96 599.81 291.81
  C 576.43 322.08 535.79 330.71 499.75 328.75
  C 492.31 328.34 482.46 326.51 475.85 323.54
  C 460.67 316.72 449.93 304.41 442.49 289.52
  A 0.41 0.41 0.0 0 1 442.72 288.95
  L 458.18 283.70
  A 1.34 1.34 0.0 0 1 459.89 284.56
  Q 466.17 303.78 482.51 316.00
  Q 492.49 323.47 505.75 322.95
  C 507.67 322.88 508.49 322.06 508.67 320.30
  A 1.61 1.60 12.9 0 0 507.62 318.64
  C 503.09 316.99 499.21 315.34 495.51 312.52
  C 485.01 304.52 477.57 293.18 474.01 280.54
  A 0.88 0.87 72.4 0 1 474.56 279.47
  Q 482.98 276.56 491.41 275.20
  A 0.54 0.54 0.0 0 1 492.02 275.60
  C 494.98 288.66 500.60 300.30 511.81 308.22
  Q 524.65 317.30 540.38 313.39
  A 0.84 0.84 0.0 0 0 540.72 311.93
  Q 540.01 311.34 538.65 310.89
  C 528.19 307.41 519.98 302.89 513.31 293.65
  C 510.13 289.24 507.88 282.95 506.40 277.86
  Q 505.63 275.18 505.60 272.66
  A 1.05 1.05 0.0 0 1 506.49 271.61
  L 521.60 269.36
  A 1.32 1.31 82.1 0 1 523.10 270.50
  C 523.57 274.12 523.91 276.47 525.52 279.63
  C 532.33 293.03 545.45 300.89 560.26 302.15
  Q 562.71 302.36 564.43 301.33
  A 1.48 1.47 41.6 0 0 564.27 298.72
  Q 557.22 295.55 550.23 290.50
  C 539.95 283.07 530.94 269.67 539.34 257.53
  Q 540.12 256.40 539.28 254.15
  A 0.76 0.75 77.5 0 0 538.52 253.66
  Q 538.33 253.68 532.17 255.64
  C 516.90 260.50 499.92 262.43 484.45 258.80
  Q 477.08 257.08 467.14 254.32
  Q 466.41 254.12 466.08 254.19
  A 1.33 1.32 -29.8 0 0 465.47 256.43
  Q 467.04 257.95 468.52 258.51
  Q 472.45 260.02 477.21 262.77
  A 0.66 0.66 0.0 0 1 477.01 263.99
  C 460.26 267.25 430.31 278.65 406.53 282.81
  C 403.92 283.26 402.37 282.82 399.99 281.46
  C 389.25 275.35 378.00 270.95 365.55 271.55
  Q 364.03 271.62 363.38 272.14
  A 1.29 1.29 0.0 0 0 363.78 274.38
  C 378.38 279.17 389.88 287.56 400.58 298.67
  Q 415.45 314.10 423.49 322.30
  Q 443.65 342.84 469.15 361.14
  Q 480.66 369.40 489.99 374.21
  C 499.88 379.31 507.99 381.18 518.49 379.66
  C 529.36 378.09 542.98 375.37 556.25 375.67
  C 571.78 376.04 588.45 384.93 599.78 395.14
  C 604.51 399.41 609.41 403.96 612.17 408.94
  A 0.49 0.49 0.0 0 1 611.64 409.66
  Q 610.85 409.48 610.21 409.06
  Q 604.80 405.44 595.77 400.18
  C 577.54 389.56 555.99 385.10 535.89 387.88
  Q 534.72 388.04 534.32 388.40
  A 1.42 1.42 0.0 0 0 534.77 390.79
  C 542.55 393.71 549.16 395.69 556.12 401.09
  Q 568.80 410.92 579.29 424.72
  Q 584.04 430.97 586.70 437.86
  Q 589.46 445.03 587.10 452.78
  A 0.42 0.42 0.0 0 1 586.34 452.87
  C 579.52 441.25 570.30 431.62 560.44 422.33
  C 550.63 413.08 538.10 404.79 525.02 401.73
  Q 522.33 401.10 520.38 401.32
  A 0.68 0.68 0.0 0 0 519.77 401.95
  Q 519.59 404.09 521.12 405.42
  Q 533.50 416.21 539.89 433.14
  C 542.61 440.34 542.97 446.77 542.85 454.53
  C 542.78 459.52 542.91 463.37 541.46 467.27
  A 0.86 0.86 0.0 0 1 539.82 467.18
  Q 539.20 464.62 537.48 456.55
  C 535.45 447.02 531.27 437.88 525.80 430.47
  Q 518.54 420.62 506.89 417.61
  Q 505.93 417.36 499.59 416.49
  Q 488.27 414.95 479.90 406.17
  Q 463.08 388.54 443.21 373.85
  C 433.15 366.41 420.81 358.90 409.81 351.26
  C 389.01 336.80 364.54 321.98 345.06 310.43
  C 337.48 305.94 319.85 294.49 319.58 284.45
  C 319.42 278.16 323.76 273.91 328.52 270.26
  Q 342.07 259.86 358.45 254.20
  Q 377.19 247.73 411.72 238.47
  C 423.74 235.24 436.54 232.84 448.26 229.51
  C 454.07 227.85 461.82 224.70 470.04 221.09
  Q 484.07 214.94 497.49 211.99
  Q 502.29 210.93 507.26 210.88
  A 1.65 1.56 -6.9 0 0 508.86 208.95
  Q 508.71 208.32 507.43 207.43
  C 500.02 202.31 488.57 202.50 479.74 204.56
  Q 468.11 207.26 452.00 212.98
  Q 441.01 216.88 432.12 218.91
  A 0.46 0.46 0.0 0 1 431.58 218.32
  C 434.34 209.86 439.60 203.65 446.19 197.68
  Q 446.88 197.06 447.25 196.05
  A 0.66 0.66 0.0 0 0 446.44 195.19
  Q 437.94 197.70 430.39 203.71
  C 423.72 209.01 418.77 213.80 417.23 222.10
  A 1.66 1.66 0.0 0 1 416.05 223.39
  L 390.56 230.71
  A 0.35 0.34 -7.7 0 1 390.12 230.38
  C 389.86 212.94 400.92 195.71 413.96 184.86
  C 415.79 183.34 416.96 182.01 416.18 179.66
  A 1.42 1.42 0.0 0 0 414.48 178.74
  Q 410.45 179.77 406.34 182.32
  C 388.74 193.25 377.80 212.35 374.78 232.50
  C 374.54 234.13 373.64 235.44 371.91 235.96
  Q 360.07 239.52 359.68 239.65
  Q 357.13 240.51 354.99 240.44
  A 1.76 1.76 0.0 0 1 353.30 238.89
  C 352.19 229.58 352.91 220.59 356.60 211.51
  C 360.96 200.80 367.29 192.42 374.75 183.52
  Q 376.59 181.32 376.39 178.79
  A 1.67 1.66 -14.2 0 0 374.05 177.40
  Q 372.39 178.15 370.39 179.61
  Q 348.00 195.94 340.37 222.89
  Q 337.00 234.81 338.98 246.61
  A 0.76 0.75 -20.6 0 1 338.62 247.39
  Q 331.07 251.83 322.98 254.24
  A 0.81 0.80 72.3 0 1 321.98 253.72
  C 318.27 242.49 315.79 232.49 316.43 220.39
  Q 317.26 204.96 324.65 188.67
  Q 325.49 186.82 324.83 185.28
  A 1.23 1.23 0.0 0 0 322.76 184.96
  C 312.32 197.07 305.20 211.44 304.39 227.45
  Q 303.60 242.92 308.33 258.83
  Q 309.14 261.56 308.91 264.14
  Z
  M 633.53 195.07
  Q 633.25 195.12 632.95 195.45
  Q 616.33 213.71 614.21 215.94
  Q 604.50 226.19 596.65 231.40
  Q 591.90 234.55 582.56 239.99
  A 1.61 1.60 48.7 0 0 582.39 242.65
  C 586.27 245.61 594.68 243.28 598.89 241.09
  C 614.46 233.02 626.61 218.43 633.46 202.37
  C 634.49 199.96 635.49 198.64 634.81 195.89
  A 1.11 1.11 0.0 0 0 633.53 195.07
  Z
  M 579.39 285.19
  C 581.81 284.54 581.62 282.14 580.06 280.94
  Q 567.46 271.29 562.04 255.94
  Q 561.05 253.11 559.18 246.84
  A 1.18 1.18 0.0 0 0 557.07 246.52
  C 554.01 251.12 554.10 257.06 555.16 262.72
  C 556.94 272.17 564.70 280.17 573.13 284.27
  C 574.79 285.08 577.46 285.71 579.39 285.19
  Z"
/>
<path d="
  M 186.69 146.43
  Q 190.99 147.54 194.94 149.30
  C 207.53 154.92 219.41 162.63 228.34 172.83
  A 0.95 0.95 0.0 0 1 227.86 174.37
  L 207.16 179.63
  A 1.78 1.78 0.0 0 1 205.04 178.47
  C 204.31 176.31 203.46 172.86 202.12 170.21
  Q 195.64 157.34 186.55 146.65
  A 0.14 0.14 0.0 0 1 186.69 146.43
  Z"
/>
<path d="
  M 143.45 163.18
  Q 154.81 166.78 158.51 168.57
  Q 172.03 175.11 184.00 185.82
  A 0.82 0.82 0.0 0 1 183.75 187.20
  L 166.51 193.79
  A 1.27 1.26 65.5 0 1 164.93 193.19
  C 160.16 184.04 154.38 175.19 147.35 168.17
  Q 143.39 164.22 143.04 163.77
  A 0.38 0.38 0.0 0 1 143.45 163.18
  Z"
/>
<path d="
  M 725.74 223.34
  A 0.49 0.49 0.0 0 1 724.81 223.46
  C 723.90 221.32 722.65 218.31 722.07 215.62
  Q 719.75 204.85 716.38 192.08
  Q 715.01 186.87 713.44 183.27
  Q 711.49 178.83 715.97 176.19
  A 1.93 1.93 0.0 0 1 718.14 176.35
  Q 724.20 181.20 730.20 184.29
  A 1.87 1.87 0.0 0 1 731.21 186.17
  C 730.82 189.76 729.50 193.84 728.90 198.09
  C 727.71 206.50 727.07 214.96 725.74 223.34
  Z"
/>
<path d="
  M 115.77 195.34
  A 0.30 0.30 0.0 0 1 116.06 194.84
  Q 129.66 198.36 140.73 204.54
  Q 141.13 204.76 141.19 204.87
  A 1.07 1.07 0.0 0 1 140.80 206.36
  L 130.60 212.13
  A 1.40 1.40 0.0 0 1 128.72 211.64
  Q 123.76 203.51 115.77 195.34
  Z"
/>
<path d="
  M 810.38 217.71
  L 819.07 219.86
  A 0.62 0.62 0.0 0 1 819.46 220.77
  C 816.24 226.36 813.76 231.12 809.59 234.75
  A 0.79 0.79 0.0 0 1 808.33 234.43
  C 806.26 228.98 809.96 221.73 809.74 218.30
  A 0.52 0.52 0.0 0 1 810.38 217.71
  Z"
/>
<path d="
  M 830.56 237.31
  Q 829.64 229.87 830.66 221.12
  A 0.36 0.36 0.0 0 1 831.04 220.80
  L 840.97 221.25
  A 0.23 0.23 0.0 0 1 841.18 221.55
  C 839.45 226.83 836.02 234.23 831.32 237.64
  A 0.48 0.48 0.0 0 1 830.56 237.31
  Z"
/>
<path d="
  M 84.69 221.88
  L 105.43 225.11
  A 1.03 1.03 0.0 0 1 106.29 225.98
  Q 106.46 227.08 105.55 227.80
  Q 105.00 228.23 96.88 234.85
  A 1.21 1.20 -37.2 0 1 95.14 234.62
  Q 90.86 228.69 84.18 222.98
  A 0.63 0.63 0.0 0 1 84.69 221.88
  Z"
/>
<path d="
  M 742.66 252.53
  Q 737.72 249.56 734.71 244.94
  A 1.45 1.44 54.4 0 1 735.03 243.00
  Q 740.19 239.00 745.86 237.43
  A 0.78 0.77 -8.6 0 1 746.84 238.15
  C 746.91 241.40 746.42 250.49 743.74 252.48
  A 0.97 0.96 -47.1 0 1 742.66 252.53
  Z"
/>
<path d="
  M 961.03 314.77
  A 0.33 0.33 0.0 0 1 961.21 315.37
  C 950.38 322.51 935.69 323.70 923.51 320.72
  C 912.13 317.93 902.30 314.64 892.03 317.03
  C 884.55 318.77 879.91 326.86 873.59 331.05
  Q 866.06 336.05 857.26 337.82
  Q 855.44 338.19 850.65 337.84
  Q 850.07 337.79 837.52 336.15
  Q 835.84 335.93 832.95 336.96
  Q 817.47 342.45 792.62 352.52
  C 772.82 360.54 757.79 365.93 740.93 370.65
  C 728.99 374.00 718.73 376.37 708.02 375.72
  C 701.21 375.31 694.77 371.23 688.63 367.02
  Q 681.36 362.01 674.53 355.87
  Q 651.22 334.90 632.66 313.84
  Q 629.19 309.89 626.39 306.05
  A 0.45 0.44 -37.8 0 1 626.47 305.44
  Q 640.62 294.17 646.27 276.45
  A 0.26 0.25 -55.0 0 1 646.71 276.37
  Q 661.10 294.48 679.17 313.50
  C 687.63 322.40 696.23 330.13 705.16 338.93
  A 2.91 2.89 66.5 0 0 707.27 339.77
  C 718.16 339.46 728.75 339.15 740.21 337.85
  C 752.90 336.42 763.37 335.68 774.91 333.52
  Q 787.47 331.17 788.69 330.90
  Q 807.77 326.71 824.62 319.35
  C 836.24 314.27 847.60 305.58 855.06 295.06
  Q 855.14 294.96 861.35 284.85
  Q 864.73 279.33 870.72 272.21
  Q 889.84 249.47 919.02 245.29
  Q 925.51 244.35 931.76 245.09
  A 0.32 0.32 0.0 0 1 931.89 245.68
  Q 930.05 246.84 928.19 247.46
  Q 914.73 251.93 903.32 260.40
  C 893.07 268.01 884.24 276.64 878.02 287.75
  Q 873.31 296.15 868.81 303.79
  Q 868.42 304.44 868.41 305.19
  A 0.96 0.96 0.0 0 0 869.76 306.08
  Q 872.72 304.78 878.39 302.08
  Q 886.43 298.26 895.79 300.28
  Q 907.34 302.78 919.76 308.71
  Q 925.48 311.45 933.25 312.68
  Q 947.56 314.94 961.03 314.77
  Z"
/>
<path d="
  M 777.72 255.13
  A 0.25 0.25 0.0 0 1 777.46 254.90
  L 777.40 253.64
  A 7.51 1.00 87.3 0 1 778.05 246.09
  L 778.17 246.08
  A 7.51 1.00 87.3 0 1 779.52 253.54
  L 779.58 254.80
  A 0.25 0.25 0.0 0 1 779.34 255.06
  L 777.72 255.13
  Z"
/>
<path d="
  M 59.12 247.41
  A 0.24 0.24 0.0 0 1 59.26 246.97
  L 76.89 247.78
  A 0.60 0.60 0.0 0 1 77.29 248.80
  L 68.82 257.26
  A 0.53 0.53 0.0 0 1 67.98 257.15
  Q 64.62 251.05 59.12 247.41
  Z"
/>
<path d="
  M 751.63 260.03
  Q 752.52 259.43 753.94 256.91
  C 755.14 254.77 760.19 249.56 762.83 250.31
  Q 763.65 250.55 763.66 251.40
  Q 763.72 260.47 760.01 267.98
  A 0.63 0.62 35.6 0 1 759.01 268.14
  L 751.56 260.69
  A 0.43 0.43 0.0 0 1 751.63 260.03
  Z"
/>
<path d="
  M 791.52 260.92
  A 0.43 0.43 0.0 0 1 792.04 261.46
  Q 789.64 269.87 786.05 277.26
  C 784.74 279.94 782.78 278.78 780.31 277.75
  Q 777.08 276.39 774.55 274.76
  A 0.55 0.55 0.0 0 1 774.50 273.88
  Q 779.87 269.45 785.50 264.28
  Q 788.25 261.76 791.52 260.92
  Z"
/>
<path d="
  M 895.81 289.58
  A 0.30 0.30 0.0 0 1 895.64 289.09
  C 900.10 283.90 906.25 281.84 912.49 279.74
  C 921.84 276.61 932.52 275.21 943.23 274.17
  Q 955.03 273.03 966.36 274.14
  Q 970.10 274.50 973.44 276.20
  A 0.49 0.49 0.0 0 1 973.27 277.12
  C 965.46 277.94 959.92 278.65 952.60 280.79
  C 939.33 284.66 930.76 288.19 916.57 294.33
  Q 914.30 295.31 912.13 294.39
  Q 904.58 291.17 895.81 289.58
  Z"
/>
<path d="
  M 49.70 273.71
  A 0.45 0.45 0.0 0 1 50.19 274.31
  Q 49.05 277.42 46.67 279.16
  A 1.88 1.86 41.7 0 1 44.63 279.27
  L 38.87 275.94
  A 0.34 0.34 0.0 0 1 38.99 275.31
  L 49.70 273.71
  Z"
/>
<path d="
  M 443.06 316.45
  Q 439.92 316.12 438.43 315.79
  C 434.70 314.96 430.17 310.79 427.97 308.37
  Q 424.52 304.57 417.85 296.67
  A 0.37 0.37 0.0 0 1 418.08 296.07
  L 429.53 294.37
  A 0.73 0.73 0.0 0 1 430.35 294.90
  Q 431.45 299.00 434.79 304.59
  C 437.96 309.90 439.39 312.43 443.27 316.00
  A 0.26 0.26 0.0 0 1 443.06 316.45
  Z"
/>
<path d="
  M 579.25 324.70
  A 0.31 0.31 0.0 0 1 579.11 324.14
  Q 586.28 318.66 591.64 311.40
  A 0.90 0.90 0.0 0 1 592.75 311.13
  Q 596.82 313.12 601.87 313.61
  A 0.23 0.23 0.0 0 1 602.00 314.01
  C 596.59 318.55 586.56 325.71 579.25 324.70
  Z"
/>
<path d="
  M 574.17 332.69
  A 0.32 0.31 -52.0 0 1 574.24 333.28
  C 566.87 336.95 554.49 341.35 546.56 339.02
  A 0.33 0.33 0.0 0 1 546.53 338.40
  C 550.20 336.97 555.73 333.75 560.38 332.65
  Q 566.93 331.09 574.17 332.69
  Z"
/>
<path d="
  M 366.05 354.04
  Q 377.24 353.49 385.00 352.00
  Q 387.05 351.61 389.22 352.81
  Q 401.43 359.60 412.24 366.27
  A 0.28 0.27 -29.2 0 1 412.09 366.78
  Q 408.08 366.82 402.54 365.69
  Q 387.16 362.58 371.72 357.30
  Q 367.74 355.94 365.88 354.61
  A 0.32 0.31 -28.7 0 1 366.05 354.04
  Z"
/>
<path d="
  M 407.67 387.03
  A 0.29 0.29 0.0 0 1 407.72 386.48
  Q 417.56 384.91 425.73 379.94
  A 2.46 2.43 -49.7 0 1 427.89 379.75
  Q 432.14 381.45 434.21 382.79
  Q 446.49 390.75 449.77 392.85
  A 0.30 0.30 0.0 0 1 449.64 393.41
  Q 446.29 393.76 442.48 393.68
  Q 425.00 393.28 407.67 387.03
  Z"
/>
<path d="
  M 370.48 419.70
  A 0.19 0.19 0.0 0 1 370.22 419.89
  C 340.25 406.34 310.30 413.47 282.63 429.41
  Q 264.64 439.78 248.62 446.62
  C 233.36 453.14 214.29 456.01 198.07 449.92
  C 189.38 446.65 177.05 441.09 161.78 435.37
  A 0.33 0.33 0.0 0 1 161.80 434.74
  Q 167.63 433.00 173.93 430.41
  Q 188.61 424.40 213.46 413.23
  Q 231.55 405.10 250.07 400.15
  Q 285.80 390.59 321.60 396.07
  Q 328.45 397.12 339.83 401.81
  C 351.02 406.42 361.31 410.64 369.64 418.13
  Q 370.38 418.79 370.48 419.70
  Z"
/>
</g>
<g fill="#055fac">
<path d="
  M 822.86 235.07
  Q 821.48 235.33 821.02 236.09
  A 1.59 1.50 -89.0 0 1 820.53 236.59
  Q 815.15 239.91 813.65 240.67
  C 808.76 243.18 802.40 241.32 800.99 235.54
  C 799.14 227.98 798.77 220.39 798.94 212.48
  A 1.29 1.29 0.0 0 0 797.96 211.20
  L 789.93 209.21
  A 0.78 0.76 23.7 0 0 789.09 209.53
  Q 786.08 214.04 781.47 217.99
  Q 778.15 220.83 775.67 217.06
  C 773.55 213.83 774.39 209.82 773.69 206.36
  A 4.88 4.84 -82.4 0 0 771.13 202.99
  L 751.81 193.18
  A 0.49 0.49 0.0 0 0 751.10 193.56
  C 750.14 202.37 755.31 213.32 760.50 220.22
  A 4.51 4.30 3.8 0 0 761.06 220.83
  Q 776.95 234.82 779.51 237.76
  Q 785.48 244.62 790.16 252.33
  A 1.45 1.44 -15.4 0 0 791.40 253.03
  L 798.15 253.03
  A 1.88 1.87 88.4 0 1 800.02 254.80
  C 800.39 261.04 798.67 267.82 797.19 274.00
  A 1.71 1.70 -61.4 0 0 797.66 275.61
  Q 799.61 277.49 798.47 281.01
  Q 793.67 295.85 780.85 304.33
  C 763.36 315.90 746.05 308.69 731.52 296.54
  Q 723.59 289.91 716.85 282.20
  Q 701.21 264.31 681.41 250.60
  Q 681.07 250.36 675.12 246.29
  Q 673.69 245.31 667.01 241.13
  A 2.13 2.12 -45.9 0 0 664.67 241.17
  L 649.94 251.18
  A 1.50 1.49 57.9 0 0 649.49 253.17
  Q 655.48 263.40 659.10 269.50
  Q 665.29 279.90 674.78 290.57
  C 687.47 304.85 696.33 314.69 709.02 325.26
  C 712.08 327.81 718.53 327.03 723.14 326.70
  Q 748.08 324.90 766.08 322.37
  Q 790.85 318.89 814.95 309.69
  Q 819.73 307.87 826.12 304.42
  Q 830.95 301.81 831.16 301.20
  A 0.87 0.86 9.3 0 1 831.96 300.63
  Q 832.51 300.62 832.95 300.21
  Q 839.29 294.44 840.17 293.14
  Q 841.67 290.91 843.31 289.14
  Q 844.98 287.33 846.52 285.21
  Q 857.39 270.28 860.82 266.08
  C 866.56 259.05 874.37 252.69 882.07 247.03
  Q 898.90 234.66 920.22 233.12
  C 929.23 232.47 938.64 231.88 946.04 236.92
  C 948.21 238.39 950.68 243.01 949.38 245.58
  C 948.20 247.91 946.15 249.47 943.56 250.76
  Q 936.76 254.16 927.80 258.59
  Q 924.38 260.29 922.42 261.72
  Q 920.19 263.36 917.44 265.34
  A 0.94 0.94 0.0 0 0 917.05 266.10
  L 917.05 266.76
  A 0.21 0.21 0.0 0 0 917.41 266.90
  C 918.68 265.48 921.22 266.17 922.97 265.77
  Q 933.64 263.35 944.87 262.97
  Q 960.91 262.43 968.10 263.50
  Q 979.89 265.24 989.98 271.02
  C 993.52 273.05 996.89 276.97 994.42 281.06
  A 1.85 1.80 2.0 0 1 993.64 281.77
  Q 986.93 284.97 982.56 285.81
  Q 971.62 287.92 969.49 288.50
  Q 958.60 291.51 945.06 295.80
  C 940.87 297.13 936.88 299.12 933.33 300.40
  A 0.75 0.75 0.0 0 0 933.56 301.86
  Q 938.32 302.05 941.02 302.41
  C 946.30 303.12 952.58 302.57 956.99 302.83
  C 964.01 303.23 971.52 305.25 976.15 310.65
  Q 979.25 314.27 976.19 318.21
  Q 973.59 321.56 969.59 324.15
  Q 957.81 331.79 943.53 333.43
  Q 927.22 335.30 910.76 331.46
  Q 907.87 330.78 901.59 329.46
  A 3.73 3.69 42.8 0 0 899.77 329.52
  C 892.12 331.68 888.47 334.52 882.50 339.01
  C 873.84 345.53 863.58 350.08 852.49 350.01
  Q 849.63 349.99 842.25 349.29
  Q 839.35 349.01 833.76 350.80
  C 823.08 354.23 809.74 359.14 796.92 364.16
  C 769.35 374.95 749.56 382.61 726.23 388.19
  C 715.20 390.83 700.34 392.15 690.55 385.20
  Q 671.71 371.83 655.90 356.60
  Q 654.41 355.17 641.80 342.40
  C 634.28 334.79 627.77 327.12 620.27 319.77
  Q 618.54 318.07 616.79 319.78
  Q 612.86 323.62 607.77 327.01
  Q 600.37 331.94 599.11 332.52
  Q 597.65 333.20 590.79 338.50
  C 583.79 343.92 575.21 348.18 565.69 349.18
  Q 556.30 350.17 548.60 349.25
  C 539.18 348.13 532.74 346.89 526.20 340.83
  A 2.13 2.12 58.9 0 0 524.21 340.33
  Q 517.84 342.04 511.38 341.86
  C 494.06 341.39 479.23 338.77 461.77 335.95
  Q 459.91 335.65 459.03 335.17
  A 0.98 0.98 0.0 0 0 457.92 336.78
  Q 468.10 345.57 478.63 352.71
  Q 484.18 356.47 495.96 363.87
  Q 501.65 367.44 506.79 368.14
  C 510.66 368.67 517.08 367.84 521.56 367.07
  Q 537.59 364.30 541.25 363.81
  Q 557.78 361.61 571.79 365.73
  Q 584.18 369.37 595.34 377.12
  C 605.10 383.88 612.65 389.88 618.87 399.14
  C 622.66 404.79 626.24 413.38 624.31 420.09
  C 622.22 427.34 613.63 423.21 609.51 420.54
  Q 601.71 415.48 594.67 411.23
  C 588.48 407.49 583.94 405.91 576.59 402.39
  A 0.62 0.62 0.0 0 0 575.90 403.40
  C 587.15 413.98 595.80 427.10 598.43 442.83
  Q 600.26 453.79 595.05 463.53
  Q 593.23 466.94 590.65 468.66
  C 587.51 470.75 582.85 466.90 581.16 464.32
  Q 574.52 454.16 570.84 449.15
  Q 563.51 439.19 554.66 431.32
  A 0.47 0.47 0.0 0 0 553.88 431.68
  Q 554.16 439.90 554.00 458.24
  C 553.93 466.47 551.81 476.12 546.74 482.85
  C 544.29 486.11 540.19 485.65 537.18 483.59
  A 3.39 3.14 87.0 0 1 536.46 482.89
  Q 530.16 474.46 528.26 463.26
  Q 527.94 461.34 525.03 452.56
  C 522.15 443.85 517.71 437.48 510.52 433.39
  C 503.32 429.29 493.43 427.16 486.09 424.24
  Q 473.96 419.42 465.58 408.63
  Q 464.17 406.82 459.44 406.12
  Q 459.05 406.07 435.10 404.39
  Q 430.45 404.07 419.25 401.40
  Q 409.93 399.18 405.03 397.73
  C 400.80 396.48 386.29 391.70 385.01 386.83
  C 383.89 382.58 387.88 380.37 391.54 380.22
  Q 398.36 379.93 404.44 378.35
  A 0.61 0.61 0.0 0 0 404.29 377.15
  C 396.81 377.14 390.51 375.12 380.95 372.59
  C 368.22 369.22 356.22 363.44 345.40 356.50
  C 342.07 354.36 337.26 350.53 334.90 347.35
  Q 332.60 344.26 335.15 341.19
  A 3.35 3.33 -65.1 0 1 338.29 340.03
  Q 340.96 340.49 348.49 342.07
  Q 350.36 342.46 358.08 343.03
  Q 361.54 343.29 365.83 343.93
  Q 370.00 344.56 374.75 343.71
  A 0.37 0.36 54.4 0 0 374.86 343.03
  Q 362.79 336.16 351.82 328.97
  C 338.47 320.23 322.15 315.25 311.68 301.65
  Q 304.34 292.12 303.88 280.56
  A 3.75 3.72 17.2 0 0 302.36 277.70
  Q 285.56 265.36 264.98 259.27
  C 258.25 257.28 247.96 256.09 240.09 256.57
  Q 217.83 257.96 197.97 266.20
  Q 177.06 274.87 158.39 286.89
  C 146.33 294.65 137.83 300.64 125.30 308.36
  C 113.81 315.44 103.58 322.34 93.95 330.93
  C 84.81 339.08 78.27 348.53 73.20 359.75
  C 64.60 378.75 70.37 401.64 87.67 413.83
  Q 99.18 421.94 113.49 424.22
  Q 138.97 428.27 164.06 419.83
  Q 182.95 413.47 189.53 410.52
  Q 207.04 402.66 215.71 398.71
  Q 237.84 388.62 261.57 384.42
  Q 289.19 379.53 316.85 383.87
  Q 341.19 387.69 361.16 398.40
  Q 372.93 404.72 379.98 411.43
  C 384.39 415.61 400.23 432.63 394.93 439.29
  C 393.82 440.70 390.87 439.83 389.61 439.39
  C 382.21 436.77 370.83 431.62 362.43 429.57
  Q 345.98 425.57 327.99 427.39
  C 318.74 428.33 309.47 431.72 301.26 435.00
  C 291.99 438.70 279.53 446.15 271.70 450.45
  C 258.84 457.53 246.62 462.05 232.61 465.07
  Q 225.45 466.62 221.56 467.21
  A 0.75 0.75 0.0 0 0 221.29 468.60
  Q 222.43 469.27 223.11 469.91
  Q 234.57 480.63 243.88 490.12
  C 245.27 491.55 247.64 493.09 249.27 494.73
  C 261.64 507.15 278.70 516.36 294.77 522.68
  Q 298.15 524.01 301.90 525.05
  C 305.31 526.00 308.34 527.50 311.44 528.12
  C 325.29 530.88 339.35 531.65 353.51 532.14
  Q 355.59 532.21 356.55 534.17
  Q 358.23 537.64 355.33 540.80
  Q 352.62 543.76 345.57 547.59
  Q 317.78 562.71 288.58 563.98
  Q 261.55 565.16 236.59 558.11
  C 212.54 551.31 188.40 535.76 170.59 518.23
  Q 162.83 510.59 153.58 499.52
  Q 148.23 493.12 140.75 487.03
  C 129.21 477.63 115.88 477.64 100.26 476.20
  C 88.47 475.12 78.16 471.67 64.48 466.53
  C 46.20 459.66 29.49 447.54 17.97 431.20
  C 3.31 410.41 -1.95 383.71 2.61 358.78
  C 5.15 344.97 9.84 331.43 16.91 319.16
  C 21.92 310.48 26.12 303.03 32.30 295.55
  Q 34.37 293.04 35.10 289.87
  A 3.49 3.48 33.6 0 0 34.52 287.03
  C 31.12 282.38 24.42 282.42 21.07 277.43
  A 0.83 0.83 0.0 0 1 21.04 276.55
  Q 24.17 270.95 29.61 268.79
  Q 38.34 265.31 44.23 264.45
  Q 50.15 263.59 57.05 262.82
  Q 57.46 262.78 57.71 262.55
  Q 58.40 261.94 57.95 261.05
  C 54.28 253.65 48.57 251.19 40.53 247.21
  A 1.13 1.13 0.0 0 1 40.01 245.72
  C 42.03 241.47 44.81 239.54 49.46 238.18
  C 59.88 235.13 70.10 235.80 80.74 238.03
  Q 82.45 238.39 83.62 237.05
  A 0.67 0.67 0.0 0 0 83.60 236.15
  Q 76.80 229.08 75.59 228.44
  C 71.84 226.43 63.90 223.06 62.80 219.48
  A 1.57 1.55 -44.7 0 1 62.81 218.52
  C 64.94 212.09 80.21 210.83 85.23 210.90
  Q 99.77 211.10 113.47 214.97
  A 1.86 1.86 0.0 0 0 115.71 212.50
  C 112.56 204.52 105.25 199.39 98.11 194.42
  Q 96.63 193.39 94.96 190.30
  A 1.25 1.21 44.2 0 1 94.93 189.20
  C 96.82 185.19 100.61 184.01 104.76 183.90
  C 118.83 183.53 132.46 186.96 145.72 192.77
  Q 148.85 194.14 150.91 194.16
  A 1.10 1.10 0.0 0 0 152.00 192.86
  Q 151.87 192.18 151.11 191.14
  C 143.26 180.40 136.24 171.85 126.23 164.24
  C 122.76 161.61 120.98 159.97 122.07 156.03
  C 123.10 152.31 130.50 150.78 133.27 150.93
  Q 136.44 151.11 144.31 152.40
  C 158.69 154.76 172.96 160.76 184.00 168.74
  Q 185.30 169.68 188.54 173.11
  A 0.70 0.69 -53.3 0 0 189.66 172.94
  L 189.89 172.49
  A 1.17 1.16 34.6 0 0 189.63 171.10
  Q 188.13 169.74 187.72 169.01
  C 181.93 158.61 174.05 151.71 165.17 143.85
  Q 162.52 141.49 161.77 138.50
  C 160.57 133.65 174.13 133.75 176.25 133.91
  C 192.58 135.16 207.87 141.54 221.37 150.39
  Q 225.73 153.24 238.72 163.03
  A 0.68 0.67 28.6 0 0 239.76 162.73
  L 240.35 161.12
  A 2.21 2.20 50.8 0 0 240.46 160.01
  Q 239.50 154.49 239.27 153.79
  Q 232.40 133.24 219.88 115.38
  C 218.55 113.48 217.40 110.73 218.24 108.43
  Q 220.07 103.39 225.54 104.28
  C 243.37 107.17 260.11 118.60 272.63 131.38
  Q 275.97 134.80 281.25 140.77
  C 284.56 144.51 287.73 147.64 292.39 147.10
  Q 294.46 146.86 294.77 144.77
  Q 295.78 137.96 293.94 130.23
  Q 290.85 117.31 285.26 105.76
  C 280.62 96.18 276.66 87.57 270.53 78.78
  Q 266.00 72.29 263.07 69.55
  C 259.88 66.56 254.43 61.76 256.24 57.47
  A 1.91 1.87 84.7 0 1 256.94 56.61
  Q 262.37 52.98 269.32 54.62
  C 282.73 57.78 296.03 64.88 306.62 72.68
  C 325.74 86.76 343.64 105.32 354.98 126.29
  Q 357.32 130.63 362.30 138.67
  C 365.88 144.44 379.18 142.76 378.60 134.90
  A 1.52 1.51 -28.1 0 1 378.92 133.86
  L 379.21 133.49
  A 1.45 1.41 69.5 0 0 379.50 132.83
  Q 381.51 121.72 380.22 110.51
  C 377.51 86.99 368.13 64.99 353.81 45.91
  Q 352.75 44.50 350.95 39.72
  A 1.20 1.20 0.0 0 1 351.02 38.71
  Q 352.87 35.38 356.07 34.98
  C 367.30 33.57 381.14 39.66 389.70 46.27
  Q 406.40 59.16 418.18 75.54
  C 426.66 87.35 434.65 99.69 440.08 113.19
  Q 447.49 131.64 452.94 144.81
  Q 455.99 152.21 465.21 154.70
  A 2.16 2.14 45.3 0 0 466.27 154.71
  Q 470.86 153.55 471.80 148.75
  C 472.19 146.72 472.72 143.57 472.52 141.13
  Q 471.81 132.58 471.01 130.02
  C 468.36 121.50 467.16 118.26 466.39 111.49
  A 2.09 2.08 -21.8 0 1 467.21 109.58
  Q 470.18 107.33 473.33 107.99
  C 481.52 109.70 488.39 114.41 495.08 120.03
  Q 508.19 131.04 515.28 147.74
  Q 518.26 154.75 522.24 166.73
  Q 523.70 171.12 528.50 169.95
  A 2.23 2.20 -87.8 0 0 530.09 168.46
  Q 531.21 164.86 531.04 161.23
  Q 530.34 146.03 525.68 133.13
  Q 524.08 128.69 525.71 124.29
  C 527.40 119.73 534.74 122.47 537.65 124.37
  C 542.11 127.30 546.03 131.20 549.73 135.03
  C 558.58 144.21 565.09 153.26 569.31 164.64
  Q 570.16 166.94 571.52 167.93
  A 1.04 1.03 52.2 0 0 572.48 168.06
  Q 579.91 165.19 581.54 164.04
  C 588.01 159.51 605.39 142.69 595.14 134.41
  Q 592.05 131.92 589.88 130.90
  Q 585.93 129.03 567.85 121.79
  Q 559.28 118.36 552.30 116.36
  C 544.89 114.24 538.88 111.99 531.27 109.94
  Q 510.37 104.30 490.64 100.40
  C 483.04 98.90 476.95 98.49 467.51 97.50
  Q 450.26 95.69 444.74 79.65
  C 439.21 63.59 446.49 46.46 459.60 36.59
  Q 475.72 24.45 492.38 17.41
  Q 505.85 11.71 526.66 8.08
  C 561.77 1.94 598.07 -0.29 633.27 4.96
  Q 659.61 8.88 685.46 14.99
  Q 713.15 21.52 736.10 30.97
  Q 768.47 44.31 797.30 63.96
  C 825.10 82.91 848.23 107.88 861.41 139.12
  C 870.01 159.53 872.81 182.09 866.50 203.46
  Q 863.60 213.28 855.61 219.59
  Q 852.26 222.23 850.77 224.09
  A 2.79 2.74 71.1 0 0 850.23 225.22
  C 848.23 234.36 843.18 242.24 834.37 245.39
  Q 829.21 247.23 824.79 244.39
  C 822.26 242.77 822.83 237.72 823.25 235.46
  A 0.34 0.33 89.5 0 0 822.86 235.07
  Z
  M 851.57 205.47
  Q 852.37 202.10 853.31 199.56
  Q 854.80 195.55 855.50 187.57
  Q 857.67 162.78 847.23 140.25
  C 833.32 110.24 808.00 85.45 780.48 67.94
  C 754.47 51.38 723.22 37.86 692.22 29.55
  C 651.70 18.70 610.06 12.99 568.45 15.44
  C 557.54 16.08 545.40 18.02 533.83 20.13
  Q 516.17 23.37 499.29 29.52
  C 486.71 34.12 474.36 40.60 465.32 50.78
  C 458.51 58.43 452.55 74.51 465.92 79.34
  Q 468.16 80.15 470.72 79.48
  C 479.72 77.15 488.57 72.88 498.92 72.15
  C 507.50 71.55 520.20 69.09 530.06 68.83
  Q 561.84 68.01 588.12 74.64
  Q 619.29 82.50 645.91 97.93
  Q 663.34 108.03 680.29 123.33
  C 691.84 133.76 703.81 146.14 713.92 154.65
  C 730.06 168.25 749.84 178.28 769.43 186.37
  Q 783.50 192.19 798.78 197.25
  Q 823.33 205.39 849.60 206.93
  A 1.92 1.91 8.3 0 0 851.57 205.47
  Z
  M 436.37 150.23
  A 0.33 0.32 0.1 0 0 436.76 149.85
  Q 430.67 121.23 416.02 95.47
  Q 409.89 84.68 402.00 75.52
  C 393.18 65.29 384.55 55.18 373.43 50.03
  A 0.47 0.47 0.0 0 0 372.84 50.70
  Q 376.63 56.85 379.22 62.77
  Q 391.58 91.07 393.71 120.49
  Q 394.60 132.81 392.35 144.44
  A 0.44 0.44 0.0 0 0 392.78 144.96
  Q 414.34 145.43 436.37 150.23
  Z
  M 278.48 70.94
  A 0.28 0.28 0.0 0 0 278.14 71.36
  Q 282.70 77.39 284.30 79.42
  Q 292.76 90.25 298.83 106.11
  C 304.45 120.77 308.76 136.83 307.17 152.26
  A 0.69 0.69 0.0 0 0 308.01 153.01
  Q 327.42 148.76 347.18 146.45
  A 0.95 0.94 76.7 0 0 347.95 145.19
  C 338.48 118.87 319.05 97.73 296.92 81.59
  Q 288.24 75.25 278.48 70.94
  Z
  M 551.83 101.79
  C 548.85 94.77 543.82 88.51 539.97 82.60
  A 3.28 3.28 0.0 0 0 537.22 81.11
  L 521.51 81.11
  A 0.70 0.70 0.0 0 0 520.91 82.18
  Q 524.24 87.43 527.31 91.92
  Q 529.98 95.83 534.10 96.69
  Q 543.48 98.63 551.62 102.00
  A 0.16 0.16 0.0 0 0 551.83 101.79
  Z
  M 581.73 111.03
  A 0.26 0.26 0.0 0 0 581.83 110.68
  Q 576.61 100.71 574.38 89.74
  C 573.60 85.91 572.36 84.74 568.74 84.06
  Q 559.49 82.33 551.02 81.81
  A 0.43 0.43 0.0 0 0 550.62 82.45
  Q 554.87 89.89 560.94 101.80
  Q 563.04 105.92 566.74 106.81
  Q 577.59 109.43 581.25 111.11
  Q 581.43 111.19 581.73 111.03
  Z
  M 518.21 92.06
  Q 514.98 86.81 509.63 83.10
  A 1.62 1.57 59.7 0 0 508.60 82.81
  Q 498.97 83.39 488.83 86.35
  A 0.37 0.36 51.4 0 0 488.76 87.02
  Q 491.26 88.43 493.78 88.55
  Q 506.30 89.15 517.85 92.53
  A 0.32 0.32 0.0 0 0 518.21 92.06
  Z
  M 609.75 121.46
  Q 603.29 108.63 603.39 94.28
  A 1.49 1.48 13.2 0 0 602.55 92.93
  Q 593.92 88.72 584.07 87.39
  A 0.89 0.89 0.0 0 0 583.07 88.39
  Q 584.65 100.61 590.93 111.83
  Q 592.53 114.69 594.81 115.69
  Q 605.57 120.43 609.22 122.03
  A 0.42 0.41 88.2 0 0 609.75 121.46
  Z
  M 633.94 131.31
  C 630.44 122.97 630.37 113.52 631.17 104.28
  A 1.23 1.23 0.0 0 0 630.43 103.04
  Q 623.37 100.02 616.15 96.57
  Q 615.08 96.06 612.73 95.71
  A 0.55 0.55 0.0 0 0 612.10 96.26
  Q 612.25 112.87 621.53 126.47
  C 623.44 129.27 629.92 132.84 633.43 132.24
  A 0.68 0.67 73.9 0 0 633.94 131.31
  Z
  M 701.96 200.57
  Q 697.85 211.20 699.33 222.20
  Q 699.49 223.44 698.95 224.45
  A 1.43 1.43 0.0 0 1 696.36 224.31
  C 691.31 211.80 690.10 199.47 695.43 186.62
  Q 698.84 178.39 703.21 170.55
  C 704.31 168.59 705.02 166.55 703.78 164.73
  C 700.64 160.12 697.32 156.41 693.10 152.71
  Q 683.55 144.34 672.70 133.41
  C 667.57 128.24 661.30 122.81 655.03 117.72
  Q 648.64 112.54 641.63 109.10
  A 0.82 0.82 0.0 0 0 640.47 109.67
  C 639.93 112.21 640.85 114.57 640.96 116.70
  Q 641.17 120.48 643.44 128.03
  Q 646.67 138.74 656.99 141.73
  A 0.47 0.47 0.0 0 0 657.53 141.04
  L 652.64 132.56
  A 0.82 0.81 -88.9 0 1 653.78 131.46
  Q 662.89 137.26 669.44 145.58
  C 677.51 155.83 678.64 169.82 675.05 182.20
  A 0.48 0.48 0.0 0 1 674.43 182.52
  Q 673.89 182.34 673.70 181.77
  Q 671.09 173.87 666.69 166.32
  Q 663.99 161.68 656.89 158.75
  A 0.66 0.66 0.0 0 0 656.03 159.09
  Q 655.16 160.99 654.97 164.02
  Q 654.22 175.89 656.03 189.64
  Q 657.80 203.12 662.94 212.48
  Q 670.94 227.06 684.20 236.92
  Q 702.78 250.73 716.85 264.25
  Q 726.30 273.32 738.78 285.97
  C 745.72 293.00 758.71 302.13 769.10 297.08
  Q 775.65 293.90 780.62 288.84
  A 0.82 0.82 0.0 0 0 780.27 287.48
  Q 779.77 287.33 776.13 286.35
  Q 762.10 282.56 751.13 273.89
  Q 734.94 261.09 722.19 244.79
  Q 714.27 234.68 710.57 223.19
  Q 706.96 212.00 702.39 200.57
  A 0.23 0.23 0.0 0 0 701.96 200.57
  Z
  M 235.40 119.99
  Q 235.40 120.03 239.68 126.37
  C 244.72 133.84 248.38 142.33 251.58 151.41
  C 253.61 157.17 255.25 161.09 255.38 165.70
  A 0.99 0.98 -7.8 0 0 256.61 166.63
  L 277.84 161.23
  A 0.44 0.43 -21.5 0 0 278.12 160.60
  Q 264.16 135.12 238.72 120.79
  Q 237.68 120.20 235.91 119.60
  A 0.39 0.39 0.0 0 0 235.40 119.99
  Z
  M 483.24 124.45
  A 0.54 0.54 0.0 0 0 482.48 125.09
  Q 488.14 143.26 485.83 160.23
  A 1.63 1.62 -76.1 0 0 486.87 161.97
  L 505.36 168.93
  A 0.37 0.37 0.0 0 0 505.86 168.53
  Q 502.38 145.70 488.01 128.54
  Q 485.62 125.69 483.24 124.45
  Z
  M 539.04 141.20
  Q 539.00 141.99 539.11 142.39
  C 541.91 153.01 544.64 163.01 542.12 172.33
  A 1.68 1.68 0.0 0 0 543.53 174.43
  Q 550.80 175.39 558.01 173.71
  A 0.74 0.73 73.1 0 0 558.53 172.73
  C 554.42 161.98 550.50 152.26 542.97 143.55
  Q 541.22 141.52 539.64 140.83
  A 0.43 0.43 0.0 0 0 539.04 141.20
  Z
  M 308.91 264.14
  Q 309.14 261.56 308.33 258.83
  Q 303.60 242.92 304.39 227.45
  C 305.20 211.44 312.32 197.07 322.76 184.96
  A 1.23 1.23 0.0 0 1 324.83 185.28
  Q 325.49 186.82 324.65 188.67
  Q 317.26 204.96 316.43 220.39
  C 315.79 232.49 318.27 242.49 321.98 253.72
  A 0.81 0.80 72.3 0 0 322.98 254.24
  Q 331.07 251.83 338.62 247.39
  A 0.76 0.75 -20.6 0 0 338.98 246.61
  Q 337.00 234.81 340.37 222.89
  Q 348.00 195.94 370.39 179.61
  Q 372.39 178.15 374.05 177.40
  A 1.67 1.66 -14.2 0 1 376.39 178.79
  Q 376.59 181.32 374.75 183.52
  C 367.29 192.42 360.96 200.80 356.60 211.51
  C 352.91 220.59 352.19 229.58 353.30 238.89
  A 1.76 1.76 0.0 0 0 354.99 240.44
  Q 357.13 240.51 359.68 239.65
  Q 360.07 239.52 371.91 235.96
  C 373.64 235.44 374.54 234.13 374.78 232.50
  C 377.80 212.35 388.74 193.25 406.34 182.32
  Q 410.45 179.77 414.48 178.74
  A 1.42 1.42 0.0 0 1 416.18 179.66
  C 416.96 182.01 415.79 183.34 413.96 184.86
  C 400.92 195.71 389.86 212.94 390.12 230.38
  A 0.35 0.34 -7.7 0 0 390.56 230.71
  L 416.05 223.39
  A 1.66 1.66 0.0 0 0 417.23 222.10
  C 418.77 213.80 423.72 209.01 430.39 203.71
  Q 437.94 197.70 446.44 195.19
  A 0.66 0.66 0.0 0 1 447.25 196.05
  Q 446.88 197.06 446.19 197.68
  C 439.60 203.65 434.34 209.86 431.58 218.32
  A 0.46 0.46 0.0 0 0 432.12 218.91
  Q 441.01 216.88 452.00 212.98
  Q 468.11 207.26 479.74 204.56
  C 488.57 202.50 500.02 202.31 507.43 207.43
  Q 508.71 208.32 508.86 208.95
  A 1.65 1.56 -6.9 0 1 507.26 210.88
  Q 502.29 210.93 497.49 211.99
  Q 484.07 214.94 470.04 221.09
  C 461.82 224.70 454.07 227.85 448.26 229.51
  C 436.54 232.84 423.74 235.24 411.72 238.47
  Q 377.19 247.73 358.45 254.20
  Q 342.07 259.86 328.52 270.26
  C 323.76 273.91 319.42 278.16 319.58 284.45
  C 319.85 294.49 337.48 305.94 345.06 310.43
  C 364.54 321.98 389.01 336.80 409.81 351.26
  C 420.81 358.90 433.15 366.41 443.21 373.85
  Q 463.08 388.54 479.90 406.17
  Q 488.27 414.95 499.59 416.49
  Q 505.93 417.36 506.89 417.61
  Q 518.54 420.62 525.80 430.47
  C 531.27 437.88 535.45 447.02 537.48 456.55
  Q 539.20 464.62 539.82 467.18
  A 0.86 0.86 0.0 0 0 541.46 467.27
  C 542.91 463.37 542.78 459.52 542.85 454.53
  C 542.97 446.77 542.61 440.34 539.89 433.14
  Q 533.50 416.21 521.12 405.42
  Q 519.59 404.09 519.77 401.95
  A 0.68 0.68 0.0 0 1 520.38 401.32
  Q 522.33 401.10 525.02 401.73
  C 538.10 404.79 550.63 413.08 560.44 422.33
  C 570.30 431.62 579.52 441.25 586.34 452.87
  A 0.42 0.42 0.0 0 0 587.10 452.78
  Q 589.46 445.03 586.70 437.86
  Q 584.04 430.97 579.29 424.72
  Q 568.80 410.92 556.12 401.09
  C 549.16 395.69 542.55 393.71 534.77 390.79
  A 1.42 1.42 0.0 0 1 534.32 388.40
  Q 534.72 388.04 535.89 387.88
  C 555.99 385.10 577.54 389.56 595.77 400.18
  Q 604.80 405.44 610.21 409.06
  Q 610.85 409.48 611.64 409.66
  A 0.49 0.49 0.0 0 0 612.17 408.94
  C 609.41 403.96 604.51 399.41 599.78 395.14
  C 588.45 384.93 571.78 376.04 556.25 375.67
  C 542.98 375.37 529.36 378.09 518.49 379.66
  C 507.99 381.18 499.88 379.31 489.99 374.21
  Q 480.66 369.40 469.15 361.14
  Q 443.65 342.84 423.49 322.30
  Q 415.45 314.10 400.58 298.67
  C 389.88 287.56 378.38 279.17 363.78 274.38
  A 1.29 1.29 0.0 0 1 363.38 272.14
  Q 364.03 271.62 365.55 271.55
  C 378.00 270.95 389.25 275.35 399.99 281.46
  C 402.37 282.82 403.92 283.26 406.53 282.81
  C 430.31 278.65 460.26 267.25 477.01 263.99
  A 0.66 0.66 0.0 0 0 477.21 262.77
  Q 472.45 260.02 468.52 258.51
  Q 467.04 257.95 465.47 256.43
  A 1.33 1.32 -29.8 0 1 466.08 254.19
  Q 466.41 254.12 467.14 254.32
  Q 477.08 257.08 484.45 258.80
  C 499.92 262.43 516.90 260.50 532.17 255.64
  Q 538.33 253.68 538.52 253.66
  A 0.76 0.75 77.5 0 1 539.28 254.15
  Q 540.12 256.40 539.34 257.53
  C 530.94 269.67 539.95 283.07 550.23 290.50
  Q 557.22 295.55 564.27 298.72
  A 1.48 1.47 41.6 0 1 564.43 301.33
  Q 562.71 302.36 560.26 302.15
  C 545.45 300.89 532.33 293.03 525.52 279.63
  C 523.91 276.47 523.57 274.12 523.10 270.50
  A 1.32 1.31 82.1 0 0 521.60 269.36
  L 506.49 271.61
  A 1.05 1.05 0.0 0 0 505.60 272.66
  Q 505.63 275.18 506.40 277.86
  C 507.88 282.95 510.13 289.24 513.31 293.65
  C 519.98 302.89 528.19 307.41 538.65 310.89
  Q 540.01 311.34 540.72 311.93
  A 0.84 0.84 0.0 0 1 540.38 313.39
  Q 524.65 317.30 511.81 308.22
  C 500.60 300.30 494.98 288.66 492.02 275.60
  A 0.54 0.54 0.0 0 0 491.41 275.20
  Q 482.98 276.56 474.56 279.47
  A 0.88 0.87 72.4 0 0 474.01 280.54
  C 477.57 293.18 485.01 304.52 495.51 312.52
  C 499.21 315.34 503.09 316.99 507.62 318.64
  A 1.61 1.60 12.9 0 1 508.67 320.30
  C 508.49 322.06 507.67 322.88 505.75 322.95
  Q 492.49 323.47 482.51 316.00
  Q 466.17 303.78 459.89 284.56
  A 1.34 1.34 0.0 0 0 458.18 283.70
  L 442.72 288.95
  A 0.41 0.41 0.0 0 0 442.49 289.52
  C 449.93 304.41 460.67 316.72 475.85 323.54
  C 482.46 326.51 492.31 328.34 499.75 328.75
  C 535.79 330.71 576.43 322.08 599.81 291.81
  Q 600.47 290.96 601.33 290.76
  A 0.46 0.46 0.0 0 1 601.89 291.27
  Q 601.16 297.15 598.48 301.61
  A 0.37 0.37 0.0 0 0 598.83 302.17
  Q 602.05 301.94 610.27 301.28
  C 614.95 300.91 621.00 295.57 623.84 292.34
  Q 628.08 287.51 631.93 280.18
  Q 636.68 271.16 636.72 260.77
  A 0.72 0.72 0.0 0 0 635.52 260.23
  C 626.76 268.10 616.28 272.08 604.49 274.72
  Q 600.14 275.69 597.62 272.19
  A 1.40 1.38 29.6 0 1 597.35 271.23
  Q 597.53 269.03 598.78 268.24
  C 607.00 263.06 618.98 257.00 627.60 249.60
  C 632.40 245.49 639.25 237.80 645.45 232.97
  Q 648.04 230.95 654.20 226.29
  A 1.52 1.51 57.4 0 0 654.62 224.36
  C 645.57 207.61 643.67 190.61 641.05 170.48
  C 639.76 160.59 638.34 154.21 633.75 146.53
  A 0.82 0.81 40.2 0 0 632.29 146.65
  Q 630.02 152.61 627.33 160.85
  Q 623.62 172.22 614.99 184.25
  Q 599.72 205.52 573.19 208.62
  A 0.76 0.76 0.0 0 1 572.48 207.43
  Q 574.35 204.80 576.23 203.47
  Q 586.74 196.06 592.63 191.64
  Q 610.78 178.02 616.72 156.77
  C 618.06 151.98 618.74 145.01 615.34 141.06
  A 0.99 0.98 -51.2 0 0 613.73 141.24
  Q 607.39 152.98 605.55 156.05
  C 599.63 165.90 590.23 173.66 580.31 179.56
  C 573.59 183.56 566.14 185.64 558.62 186.59
  Q 546.36 188.14 534.20 187.01
  A 0.38 0.38 0.0 0 0 533.94 187.69
  C 540.93 192.93 547.32 199.82 549.93 208.09
  Q 550.64 210.33 550.49 212.15
  A 1.32 1.32 0.0 0 1 548.27 213.00
  C 544.12 209.09 539.19 203.67 534.26 200.03
  Q 521.80 190.85 508.46 185.06
  C 469.57 168.21 427.94 158.78 385.76 157.87
  C 375.78 157.65 368.54 157.49 358.22 158.22
  Q 333.39 159.96 305.82 165.87
  Q 258.15 176.10 212.52 190.51
  C 205.63 192.69 198.29 195.59 192.20 197.65
  Q 183.77 200.50 177.13 203.42
  Q 152.11 214.40 147.11 217.12
  Q 108.69 238.04 78.03 264.81
  Q 51.44 288.03 31.40 319.17
  Q 23.04 332.16 18.18 346.68
  C 10.68 369.14 12.67 394.30 23.19 415.30
  Q 26.93 422.76 30.82 427.47
  C 38.67 437.00 48.32 443.65 59.73 449.83
  Q 80.18 460.90 104.57 463.63
  Q 110.67 464.31 116.69 464.71
  C 128.71 465.51 139.60 469.62 148.48 477.03
  Q 159.02 485.82 163.48 490.76
  Q 177.43 506.20 182.96 511.50
  Q 223.36 550.16 279.21 551.38
  Q 292.87 551.68 305.64 549.48
  C 312.57 548.29 318.53 546.29 324.18 542.95
  A 0.82 0.82 0.0 0 0 323.81 541.43
  Q 306.14 540.31 289.57 534.65
  Q 283.76 532.66 276.33 528.72
  Q 259.91 520.00 244.62 507.07
  Q 235.65 499.48 222.32 486.33
  Q 210.05 474.23 203.20 468.82
  Q 187.86 456.70 167.74 448.04
  Q 159.82 444.63 144.28 441.52
  Q 139.10 440.49 126.66 439.49
  Q 115.57 438.60 109.08 437.39
  C 87.16 433.32 64.76 418.82 58.36 396.58
  Q 51.01 371.02 63.85 347.38
  Q 75.73 325.52 96.67 310.94
  Q 105.54 304.77 116.52 298.78
  A 0.64 0.63 -49.6 0 0 116.43 297.62
  Q 112.83 296.38 110.27 295.27
  Q 97.66 289.82 98.96 276.35
  C 99.17 274.24 100.19 271.94 101.60 270.53
  A 0.89 0.89 0.0 0 1 102.99 270.70
  Q 103.90 272.22 105.28 276.01
  C 107.89 283.19 113.31 287.36 121.24 287.69
  Q 128.25 287.98 133.73 286.44
  C 140.00 284.67 146.02 280.17 151.44 275.88
  A 0.38 0.38 0.0 0 0 151.32 275.22
  C 142.30 272.19 133.75 269.04 133.10 257.95
  Q 132.69 250.87 137.26 245.77
  Q 138.17 244.75 139.15 244.48
  A 0.84 0.83 81.1 0 1 140.20 245.25
  Q 140.27 246.89 139.85 249.12
  C 139.00 253.76 141.78 257.98 145.57 260.43
  C 156.31 267.36 170.58 263.87 180.93 257.81
  A 0.91 0.91 0.0 0 0 180.88 256.21
  Q 174.00 252.72 171.26 245.05
  C 170.54 243.04 169.74 241.60 170.09 239.31
  C 170.92 233.88 174.08 228.31 179.89 227.81
  A 0.60 0.59 -82.2 0 1 180.50 228.62
  C 174.26 245.08 189.75 252.12 202.93 249.83
  Q 205.57 249.37 221.83 244.90
  A 0.79 0.79 0.0 0 0 222.24 243.65
  C 217.74 238.00 214.62 229.36 215.99 222.29
  Q 217.35 215.28 224.42 210.83
  A 0.95 0.95 0.0 0 1 225.87 211.77
  Q 225.38 215.01 225.30 215.49
  C 222.68 231.14 236.44 241.05 250.34 242.89
  Q 263.32 244.61 273.56 246.84
  A 0.33 0.33 0.0 0 0 273.91 246.34
  C 264.50 231.30 264.11 209.94 277.16 196.90
  Q 278.95 195.11 280.75 194.22
  A 1.26 1.25 -21.0 0 1 282.51 195.00
  Q 282.85 196.18 282.40 197.47
  Q 274.46 220.43 284.54 241.19
  C 289.79 252.02 297.75 259.52 308.05 264.62
  A 0.60 0.60 0.0 0 0 308.91 264.14
  Z
  M 186.69 146.43
  A 0.14 0.14 0.0 0 0 186.55 146.65
  Q 195.64 157.34 202.12 170.21
  C 203.46 172.86 204.31 176.31 205.04 178.47
  A 1.78 1.78 0.0 0 0 207.16 179.63
  L 227.86 174.37
  A 0.95 0.95 0.0 0 0 228.34 172.83
  C 219.41 162.63 207.53 154.92 194.94 149.30
  Q 190.99 147.54 186.69 146.43
  Z
  M 143.04 163.77
  Q 143.39 164.22 147.35 168.17
  C 154.38 175.19 160.16 184.04 164.93 193.19
  A 1.27 1.26 65.5 0 0 166.51 193.79
  L 183.75 187.20
  A 0.82 0.82 0.0 0 0 184.00 185.82
  Q 172.03 175.11 158.51 168.57
  Q 154.81 166.78 143.45 163.18
  A 0.38 0.38 0.0 0 0 143.04 163.77
  Z
  M 725.74 223.34
  C 727.07 214.96 727.71 206.50 728.90 198.09
  C 729.50 193.84 730.82 189.76 731.21 186.17
  A 1.87 1.87 0.0 0 0 730.20 184.29
  Q 724.20 181.20 718.14 176.35
  A 1.93 1.93 0.0 0 0 715.97 176.19
  Q 711.49 178.83 713.44 183.27
  Q 715.01 186.87 716.38 192.08
  Q 719.75 204.85 722.07 215.62
  C 722.65 218.31 723.90 221.32 724.81 223.46
  A 0.49 0.49 0.0 0 0 725.74 223.34
  Z
  M 115.77 195.34
  Q 123.76 203.51 128.72 211.64
  A 1.40 1.40 0.0 0 0 130.60 212.13
  L 140.80 206.36
  A 1.07 1.07 0.0 0 0 141.19 204.87
  Q 141.13 204.76 140.73 204.54
  Q 129.66 198.36 116.06 194.84
  A 0.30 0.30 0.0 0 0 115.77 195.34
  Z
  M 809.74 218.30
  C 809.96 221.73 806.26 228.98 808.33 234.43
  A 0.79 0.79 0.0 0 0 809.59 234.75
  C 813.76 231.12 816.24 226.36 819.46 220.77
  A 0.62 0.62 0.0 0 0 819.07 219.86
  L 810.38 217.71
  A 0.52 0.52 0.0 0 0 809.74 218.30
  Z
  M 830.56 237.31
  A 0.48 0.48 0.0 0 0 831.32 237.64
  C 836.02 234.23 839.45 226.83 841.18 221.55
  A 0.23 0.23 0.0 0 0 840.97 221.25
  L 831.04 220.80
  A 0.36 0.36 0.0 0 0 830.66 221.12
  Q 829.64 229.87 830.56 237.31
  Z
  M 84.69 221.88
  A 0.63 0.63 0.0 0 0 84.18 222.98
  Q 90.86 228.69 95.14 234.62
  A 1.21 1.20 -37.2 0 0 96.88 234.85
  Q 105.00 228.23 105.55 227.80
  Q 106.46 227.08 106.29 225.98
  A 1.03 1.03 0.0 0 0 105.43 225.11
  L 84.69 221.88
  Z
  M 743.74 252.48
  C 746.42 250.49 746.91 241.40 746.84 238.15
  A 0.78 0.77 -8.6 0 0 745.86 237.43
  Q 740.19 239.00 735.03 243.00
  A 1.45 1.44 54.4 0 0 734.71 244.94
  Q 737.72 249.56 742.66 252.53
  A 0.97 0.96 -47.1 0 0 743.74 252.48
  Z
  M 961.03 314.77
  Q 947.56 314.94 933.25 312.68
  Q 925.48 311.45 919.76 308.71
  Q 907.34 302.78 895.79 300.28
  Q 886.43 298.26 878.39 302.08
  Q 872.72 304.78 869.76 306.08
  A 0.96 0.96 0.0 0 1 868.41 305.19
  Q 868.42 304.44 868.81 303.79
  Q 873.31 296.15 878.02 287.75
  C 884.24 276.64 893.07 268.01 903.32 260.40
  Q 914.73 251.93 928.19 247.46
  Q 930.05 246.84 931.89 245.68
  A 0.32 0.32 0.0 0 0 931.76 245.09
  Q 925.51 244.35 919.02 245.29
  Q 889.84 249.47 870.72 272.21
  Q 864.73 279.33 861.35 284.85
  Q 855.14 294.96 855.06 295.06
  C 847.60 305.58 836.24 314.27 824.62 319.35
  Q 807.77 326.71 788.69 330.90
  Q 787.47 331.17 774.91 333.52
  C 763.37 335.68 752.90 336.42 740.21 337.85
  C 728.75 339.15 718.16 339.46 707.27 339.77
  A 2.91 2.89 66.5 0 1 705.16 338.93
  C 696.23 330.13 687.63 322.40 679.17 313.50
  Q 661.10 294.48 646.71 276.37
  A 0.26 0.25 -55.0 0 0 646.27 276.45
  Q 640.62 294.17 626.47 305.44
  A 0.45 0.44 -37.8 0 0 626.39 306.05
  Q 629.19 309.89 632.66 313.84
  Q 651.22 334.90 674.53 355.87
  Q 681.36 362.01 688.63 367.02
  C 694.77 371.23 701.21 375.31 708.02 375.72
  C 718.73 376.37 728.99 374.00 740.93 370.65
  C 757.79 365.93 772.82 360.54 792.62 352.52
  Q 817.47 342.45 832.95 336.96
  Q 835.84 335.93 837.52 336.15
  Q 850.07 337.79 850.65 337.84
  Q 855.44 338.19 857.26 337.82
  Q 866.06 336.05 873.59 331.05
  C 879.91 326.86 884.55 318.77 892.03 317.03
  C 902.30 314.64 912.13 317.93 923.51 320.72
  C 935.69 323.70 950.38 322.51 961.21 315.37
  A 0.33 0.33 0.0 0 0 961.03 314.77
  Z
  M 777.72 255.13
  L 779.34 255.06
  A 0.25 0.25 0.0 0 0 779.58 254.80
  L 779.52 253.54
  A 7.51 1.00 87.3 0 0 778.17 246.08
  L 778.05 246.09
  A 7.51 1.00 87.3 0 0 777.40 253.64
  L 777.46 254.90
  A 0.25 0.25 0.0 0 0 777.72 255.13
  Z
  M 59.12 247.41
  Q 64.62 251.05 67.98 257.15
  A 0.53 0.53 0.0 0 0 68.82 257.26
  L 77.29 248.80
  A 0.60 0.60 0.0 0 0 76.89 247.78
  L 59.26 246.97
  A 0.24 0.24 0.0 0 0 59.12 247.41
  Z
  M 751.56 260.69
  L 759.01 268.14
  A 0.63 0.62 35.6 0 0 760.01 267.98
  Q 763.72 260.47 763.66 251.40
  Q 763.65 250.55 762.83 250.31
  C 760.19 249.56 755.14 254.77 753.94 256.91
  Q 752.52 259.43 751.63 260.03
  A 0.43 0.43 0.0 0 0 751.56 260.69
  Z
  M 791.52 260.92
  Q 788.25 261.76 785.50 264.28
  Q 779.87 269.45 774.50 273.88
  A 0.55 0.55 0.0 0 0 774.55 274.76
  Q 777.08 276.39 780.31 277.75
  C 782.78 278.78 784.74 279.94 786.05 277.26
  Q 789.64 269.87 792.04 261.46
  A 0.43 0.43 0.0 0 0 791.52 260.92
  Z
  M 895.81 289.58
  Q 904.58 291.17 912.13 294.39
  Q 914.30 295.31 916.57 294.33
  C 930.76 288.19 939.33 284.66 952.60 280.79
  C 959.92 278.65 965.46 277.94 973.27 277.12
  A 0.49 0.49 0.0 0 0 973.44 276.20
  Q 970.10 274.50 966.36 274.14
  Q 955.03 273.03 943.23 274.17
  C 932.52 275.21 921.84 276.61 912.49 279.74
  C 906.25 281.84 900.10 283.90 895.64 289.09
  A 0.30 0.30 0.0 0 0 895.81 289.58
  Z
  M 49.70 273.71
  L 38.99 275.31
  A 0.34 0.34 0.0 0 0 38.87 275.94
  L 44.63 279.27
  A 1.88 1.86 41.7 0 0 46.67 279.16
  Q 49.05 277.42 50.19 274.31
  A 0.45 0.45 0.0 0 0 49.70 273.71
  Z
  M 443.06 316.45
  A 0.26 0.26 0.0 0 0 443.27 316.00
  C 439.39 312.43 437.96 309.90 434.79 304.59
  Q 431.45 299.00 430.35 294.90
  A 0.73 0.73 0.0 0 0 429.53 294.37
  L 418.08 296.07
  A 0.37 0.37 0.0 0 0 417.85 296.67
  Q 424.52 304.57 427.97 308.37
  C 430.17 310.79 434.70 314.96 438.43 315.79
  Q 439.92 316.12 443.06 316.45
  Z
  M 579.25 324.70
  C 586.56 325.71 596.59 318.55 602.00 314.01
  A 0.23 0.23 0.0 0 0 601.87 313.61
  Q 596.82 313.12 592.75 311.13
  A 0.90 0.90 0.0 0 0 591.64 311.40
  Q 586.28 318.66 579.11 324.14
  A 0.31 0.31 0.0 0 0 579.25 324.70
  Z
  M 574.17 332.69
  Q 566.93 331.09 560.38 332.65
  C 555.73 333.75 550.20 336.97 546.53 338.40
  A 0.33 0.33 0.0 0 0 546.56 339.02
  C 554.49 341.35 566.87 336.95 574.24 333.28
  A 0.32 0.31 -52.0 0 0 574.17 332.69
  Z
  M 365.88 354.61
  Q 367.74 355.94 371.72 357.30
  Q 387.16 362.58 402.54 365.69
  Q 408.08 366.82 412.09 366.78
  A 0.28 0.27 -29.2 0 0 412.24 366.27
  Q 401.43 359.60 389.22 352.81
  Q 387.05 351.61 385.00 352.00
  Q 377.24 353.49 366.05 354.04
  A 0.32 0.31 -28.7 0 0 365.88 354.61
  Z
  M 407.67 387.03
  Q 425.00 393.28 442.48 393.68
  Q 446.29 393.76 449.64 393.41
  A 0.30 0.30 0.0 0 0 449.77 392.85
  Q 446.49 390.75 434.21 382.79
  Q 432.14 381.45 427.89 379.75
  A 2.46 2.43 -49.7 0 0 425.73 379.94
  Q 417.56 384.91 407.72 386.48
  A 0.29 0.29 0.0 0 0 407.67 387.03
  Z
  M 370.48 419.70
  Q 370.38 418.79 369.64 418.13
  C 361.31 410.64 351.02 406.42 339.83 401.81
  Q 328.45 397.12 321.60 396.07
  Q 285.80 390.59 250.07 400.15
  Q 231.55 405.10 213.46 413.23
  Q 188.61 424.40 173.93 430.41
  Q 167.63 433.00 161.80 434.74
  A 0.33 0.33 0.0 0 0 161.78 435.37
  C 177.05 441.09 189.38 446.65 198.07 449.92
  C 214.29 456.01 233.36 453.14 248.62 446.62
  Q 264.64 439.78 282.63 429.41
  C 310.30 413.47 340.25 406.34 370.22 419.89
  A 0.19 0.19 0.0 0 0 370.48 419.70
  Z"
/>
<path d="
  M 633.53 195.07
  A 1.11 1.11 0.0 0 1 634.81 195.89
  C 635.49 198.64 634.49 199.96 633.46 202.37
  C 626.61 218.43 614.46 233.02 598.89 241.09
  C 594.68 243.28 586.27 245.61 582.39 242.65
  A 1.61 1.60 48.7 0 1 582.56 239.99
  Q 591.90 234.55 596.65 231.40
  Q 604.50 226.19 614.21 215.94
  Q 616.33 213.71 632.95 195.45
  Q 633.25 195.12 633.53 195.07
  Z"
/>
<path d="
  M 580.06 280.94
  C 581.62 282.14 581.81 284.54 579.39 285.19
  C 577.46 285.71 574.79 285.08 573.13 284.27
  C 564.70 280.17 556.94 272.17 555.16 262.72
  C 554.10 257.06 554.01 251.12 557.07 246.52
  A 1.18 1.18 0.0 0 1 559.18 246.84
  Q 561.05 253.11 562.04 255.94
  Q 567.46 271.29 580.06 280.94
  Z"
/>
</g>
<g fill="#7ccaf3">
<path d="
  M 851.57 205.47
  A 1.92 1.91 8.3 0 1 849.60 206.93
  Q 823.33 205.39 798.78 197.25
  Q 783.50 192.19 769.43 186.37
  C 749.84 178.28 730.06 168.25 713.92 154.65
  C 703.81 146.14 691.84 133.76 680.29 123.33
  Q 663.34 108.03 645.91 97.93
  Q 619.29 82.50 588.12 74.64
  Q 561.84 68.01 530.06 68.83
  C 520.20 69.09 507.50 71.55 498.92 72.15
  C 488.57 72.88 479.72 77.15 470.72 79.48
  Q 468.16 80.15 465.92 79.34
  C 452.55 74.51 458.51 58.43 465.32 50.78
  C 474.36 40.60 486.71 34.12 499.29 29.52
  Q 516.17 23.37 533.83 20.13
  C 545.40 18.02 557.54 16.08 568.45 15.44
  C 610.06 12.99 651.70 18.70 692.22 29.55
  C 723.22 37.86 754.47 51.38 780.48 67.94
  C 808.00 85.45 833.32 110.24 847.23 140.25
  Q 857.67 162.78 855.50 187.57
  Q 854.80 195.55 853.31 199.56
  Q 852.37 202.10 851.57 205.47
  Z"
/>
<path d="
  M 436.37 150.23
  Q 414.34 145.43 392.78 144.96
  A 0.44 0.44 0.0 0 1 392.35 144.44
  Q 394.60 132.81 393.71 120.49
  Q 391.58 91.07 379.22 62.77
  Q 376.63 56.85 372.84 50.70
  A 0.47 0.47 0.0 0 1 373.43 50.03
  C 384.55 55.18 393.18 65.29 402.00 75.52
  Q 409.89 84.68 416.02 95.47
  Q 430.67 121.23 436.76 149.85
  A 0.33 0.32 0.1 0 1 436.37 150.23
  Z"
/>
</g>
</svg>
