<?xml version="1.0" encoding="UTF-8" standalone="no"?>
<!DOCTYPE svg PUBLIC "-//W3C//DTD SVG 1.1//EN" "http://www.w3.org/Graphics/SVG/1.1/DTD/svg11.dtd">
<svg xmlns="http://www.w3.org/2000/svg" version="1.1" viewBox="0.00 0.00 442.00 336.00">
<g fill="var(--art-stroke)">
<path d="
  M 296.97 0.00
  Q 331.51 3.26 352.53 27.70
  C 365.47 42.74 371.89 60.80 371.33 80.50
  C 370.55 107.73 355.25 128.80 332.22 142.47
  A 0.79 0.79 0.0 0 0 332.56 143.94
  Q 337.73 144.31 343.48 143.44
  C 355.48 141.62 367.12 138.63 377.04 131.77
  Q 378.75 130.59 379.58 129.36
  C 386.46 119.20 396.57 110.88 408.37 107.60
  Q 413.52 106.17 415.83 106.18
  C 419.73 106.20 421.43 108.16 423.95 110.13
  A 3.29 3.26 66.4 0 0 425.64 110.80
  Q 433.48 111.47 435.80 119.73
  A 1.50 1.48 44.6 0 1 435.81 120.47
  L 435.35 122.23
  A 1.01 1.00 26.4 0 0 435.71 123.28
  Q 441.38 127.73 439.50 134.30
  Q 439.09 135.73 439.72 137.04
  C 443.18 144.21 439.55 147.83 434.38 151.63
  Q 431.66 153.63 419.50 162.73
  C 413.98 166.87 409.16 168.19 402.97 169.38
  A 5.78 5.78 0.0 0 0 400.67 170.37
  Q 397.85 172.40 393.41 175.40
  C 376.25 187.03 355.04 195.05 334.28 195.07
  Q 325.05 195.07 321.27 194.72
  Q 311.19 193.76 300.44 191.01
  A 2.83 2.82 28.2 0 0 297.65 191.85
  C 291.65 198.43 284.61 202.21 277.11 206.24
  A 9.38 9.20 -83.9 0 0 274.30 208.55
  Q 262.10 223.45 242.53 241.28
  Q 238.31 245.13 235.90 249.66
  Q 227.36 265.68 218.80 278.26
  Q 209.88 291.36 199.69 299.17
  Q 188.33 307.88 174.47 308.02
  Q 169.10 308.07 141.37 307.98
  A 4.01 3.76 50.9 0 1 140.34 307.84
  L 136.98 306.97
  A 1.76 1.76 0.0 0 0 135.67 307.14
  Q 134.25 307.95 132.98 309.48
  Q 123.81 320.56 114.82 328.83
  Q 107.69 335.38 97.86 336.00
  L 97.26 336.00
  C 87.72 334.72 79.77 330.54 78.84 320.02
  Q 78.03 310.79 80.74 303.51
  Q 83.21 296.87 88.72 286.17
  Q 95.58 272.81 96.95 270.29
  A 0.79 0.79 0.0 0 0 96.43 269.15
  Q 76.81 264.62 58.08 258.37
  A 1.17 1.16 -57.3 0 0 56.91 258.63
  Q 48.23 266.96 38.86 274.86
  C 32.66 280.10 26.50 283.48 18.52 283.20
  C 7.83 282.81 1.08 274.71 0.00 264.31
  L 0.00 260.59
  Q 0.88 253.14 3.86 246.32
  Q 6.00 241.41 10.99 233.33
  Q 20.64 217.70 33.40 205.90
  Q 40.78 199.08 48.35 200.36
  Q 51.30 200.86 59.11 203.99
  Q 63.87 205.90 70.76 209.19
  A 13.04 12.78 -25.6 0 0 73.60 210.16
  L 106.83 217.32
  A 3.42 3.41 -65.2 0 0 110.27 216.05
  C 118.47 205.32 123.38 194.03 129.45 180.36
  A 0.54 0.53 24.1 0 0 129.18 179.66
  Q 122.96 176.82 117.78 170.07
  A 1.02 1.02 0.0 0 0 116.06 170.23
  C 112.88 176.56 104.60 189.05 95.83 183.97
  C 92.41 181.98 90.91 178.46 92.79 174.82
  A 0.41 0.41 0.0 0 0 92.15 174.32
  C 88.17 177.84 85.39 185.62 79.27 187.93
  C 74.76 189.63 70.78 187.06 68.86 183.00
  A 1.18 1.15 86.5 0 0 68.19 182.39
  C 66.34 181.71 62.61 180.32 61.34 178.44
  Q 58.92 174.89 58.82 170.60
  A 2.34 2.32 20.3 0 0 58.03 168.90
  Q 54.09 165.45 53.18 160.07
  A 4.47 4.44 -44.8 0 1 53.19 158.53
  Q 54.77 149.72 58.95 144.10
  C 66.41 134.05 76.91 128.05 88.63 123.63
  C 90.23 123.02 92.16 121.64 93.98 120.25
  Q 106.17 110.91 110.87 108.59
  Q 117.27 105.42 126.89 100.95
  C 128.97 99.99 131.39 96.78 132.97 94.34
  Q 144.31 76.96 145.74 74.99
  Q 150.50 68.45 160.03 54.27
  C 162.85 50.06 166.04 45.78 169.83 42.75
  Q 180.66 34.07 195.00 36.75
  Q 205.75 38.76 216.19 41.88
  A 1.99 1.98 -65.5 0 0 218.45 41.03
  Q 241.51 4.24 284.20 0.00
  L 296.97 0.00
  Z
  M 320.85 140.89
  C 304.71 142.88 290.31 138.68 276.21 130.69
  Q 254.95 118.65 250.73 94.42
  Q 248.42 81.20 252.77 68.00
  Q 260.29 45.23 282.48 35.94
  C 299.10 28.98 317.72 31.14 334.28 37.32
  Q 351.12 43.61 361.30 57.26
  A 0.13 0.13 0.0 0 0 361.52 57.14
  Q 354.48 36.02 337.08 22.56
  Q 315.94 6.21 286.83 7.08
  C 260.95 7.85 238.14 22.33 224.87 44.31
  A 0.20 0.20 0.0 0 0 225.06 44.61
  Q 230.69 43.93 236.63 45.72
  C 248.48 49.31 248.31 64.63 245.11 73.95
  Q 242.53 81.44 235.48 85.29
  Q 225.30 90.86 215.83 84.03
  A 0.25 0.25 0.0 0 0 215.44 84.27
  Q 220.45 112.41 243.57 128.68
  Q 267.32 145.39 295.87 145.59
  C 304.86 145.65 312.60 144.03 320.91 141.15
  A 0.13 0.13 0.0 0 0 320.85 140.89
  Z
  M 257.70 76.52
  Q 254.02 95.81 265.14 111.87
  C 276.12 127.74 302.13 136.77 320.69 134.15
  C 336.53 131.91 350.31 122.29 357.40 108.16
  Q 363.43 96.14 363.73 85.25
  C 364.20 68.05 352.29 54.21 337.40 46.19
  Q 330.54 42.50 321.50 40.69
  Q 310.24 38.43 304.76 38.57
  C 280.97 39.19 262.27 52.50 257.70 76.52
  Z
  M 180.04 86.31
  A 0.82 0.82 0.0 0 0 181.29 86.20
  Q 189.38 74.49 193.06 69.17
  Q 196.44 64.28 197.15 61.45
  C 198.46 56.27 197.38 51.74 193.61 47.76
  C 190.64 44.63 188.82 42.28 184.70 43.18
  C 172.45 45.84 166.73 55.22 160.39 65.08
  A 1.42 1.41 38.9 0 0 160.58 66.85
  L 180.04 86.31
  Z
  M 199.05 45.26
  Q 208.21 57.71 198.94 70.66
  Q 197.08 73.25 190.36 82.86
  Q 189.45 84.15 188.94 85.41
  A 1.26 1.26 0.0 0 0 190.04 87.15
  L 208.40 88.02
  A 0.47 0.46 87.0 0 0 208.88 87.48
  C 206.68 74.12 207.43 61.32 214.05 49.28
  A 0.64 0.63 -68.1 0 0 213.66 48.36
  L 199.45 44.67
  A 0.38 0.38 0.0 0 0 199.05 45.26
  Z
  M 228.9091 50.2114
  A 15.46 9.53 -73.7 0 0 215.4231 62.3752
  A 15.46 9.53 -73.7 0 0 220.2309 79.8886
  A 15.46 9.53 -73.7 0 0 233.7169 67.7248
  A 15.46 9.53 -73.7 0 0 228.9091 50.2114
  Z
  M 237.69 52.68
  Q 239.79 56.63 239.56 60.95
  C 239.12 69.43 237.17 76.55 229.63 81.70
  A 0.21 0.21 0.0 0 0 229.83 82.06
  Q 239.69 77.99 241.11 68.28
  C 241.73 64.06 242.37 54.97 238.05 52.34
  A 0.26 0.26 0.0 0 0 237.69 52.68
  Z
  M 139.52 95.54
  A 0.32 0.32 0.0 0 0 139.90 96.02
  Q 156.37 89.70 173.45 88.34
  A 0.30 0.30 0.0 0 0 173.64 87.83
  L 156.75 70.93
  A 0.46 0.45 -50.5 0 0 156.05 71.00
  L 139.52 95.54
  Z
  M 157.20 138.49
  Q 171.29 136.80 186.52 137.54
  A 2.72 2.72 0.0 0 1 189.07 140.66
  L 189.04 140.81
  A 3.30 3.30 0.0 0 1 185.78 143.54
  L 163.69 143.46
  A 3.18 3.16 -72.8 0 0 161.04 144.87
  L 157.33 150.37
  A 0.89 0.89 0.0 0 0 157.36 151.41
  L 164.41 160.61
  A 3.09 3.07 81.6 0 0 165.75 161.61
  L 173.09 164.33
  A 1.24 1.23 37.7 0 0 174.23 164.19
  C 190.25 152.97 202.47 138.67 205.38 119.75
  C 206.86 110.08 204.09 99.58 195.73 94.06
  A 5.76 5.74 -28.0 0 0 192.58 93.10
  C 176.86 92.99 158.94 94.98 144.09 100.76
  A 0.29 0.29 0.0 0 0 143.99 101.23
  Q 156.57 114.08 157.07 132.33
  C 157.12 134.35 156.55 136.50 156.60 137.97
  A 0.54 0.54 0.0 0 0 157.20 138.49
  Z
  M 204.28 94.11
  Q 212.91 104.64 211.30 118.66
  C 209.01 138.56 195.56 156.05 179.40 167.27
  A 0.87 0.87 0.0 0 0 179.36 168.67
  L 184.56 172.67
  A 1.46 1.45 -46.0 0 0 186.38 172.63
  C 197.57 163.25 208.25 152.42 214.85 139.34
  Q 220.03 129.07 220.08 117.27
  Q 220.09 114.88 219.32 113.67
  Q 213.94 105.25 210.82 95.60
  A 2.62 2.61 82.3 0 0 208.45 93.79
  L 204.54 93.60
  A 0.31 0.31 0.0 0 0 204.28 94.11
  Z
  M 111.56 115.99
  C 121.35 122.98 129.05 133.63 130.70 145.69
  A 0.18 0.18 0.0 0 0 130.93 145.83
  L 149.11 139.87
  A 1.87 1.87 0.0 0 0 150.38 138.30
  Q 152.72 117.06 137.84 103.30
  A 1.38 1.37 -36.8 0 0 136.31 103.08
  L 111.62 115.29
  A 0.41 0.41 0.0 0 0 111.56 115.99
  Z
  M 418.05 113.01
  Q 415.97 112.43 413.69 112.93
  Q 400.66 115.82 390.61 125.91
  C 382.26 134.30 383.48 145.12 390.20 154.22
  Q 400.03 167.52 413.89 158.96
  Q 415.83 157.76 420.16 154.34
  C 424.53 150.89 430.56 147.55 434.23 143.98
  Q 435.54 142.70 434.99 141.09
  A 1.82 1.82 0.0 0 0 432.63 139.98
  Q 432.33 140.09 423.87 144.23
  Q 414.76 148.69 408.25 142.22
  A 0.59 0.59 0.0 0 0 407.26 142.50
  C 406.28 146.39 405.70 149.55 403.23 152.69
  A 2.19 2.18 -57.9 0 1 400.56 153.31
  L 400.00 153.04
  A 2.48 2.47 -58.8 0 1 399.10 149.34
  Q 402.04 145.38 401.31 140.39
  A 3.04 3.03 70.5 0 1 402.76 137.33
  C 405.76 135.53 410.00 133.42 411.27 131.34
  A 2.18 1.96 31.6 0 0 410.44 128.54
  C 403.80 124.43 397.35 132.29 393.92 130.23
  A 2.04 1.89 33.2 0 1 393.22 127.43
  Q 394.66 125.43 397.15 124.38
  Q 406.83 120.30 418.16 113.94
  A 0.51 0.51 0.0 0 0 418.05 113.01
  Z
  M 412.65 123.93
  L 416.78 128.06
  A 0.57 0.57 0.0 0 0 417.47 128.15
  L 428.89 121.56
  A 2.04 2.04 0.0 0 0 429.31 118.35
  L 428.86 117.91
  A 3.21 3.20 -35.5 0 0 425.17 117.30
  L 412.73 123.45
  A 0.30 0.30 0.0 0 0 412.65 123.93
  Z
  M 98.60 124.48
  A 0.88 0.88 0.0 0 0 98.72 125.95
  C 108.32 131.17 116.13 139.85 117.70 150.66
  A 0.92 0.91 -19.0 0 0 119.06 151.32
  L 123.40 148.81
  A 1.88 1.86 72.8 0 0 124.33 147.03
  Q 123.32 135.27 115.22 126.81
  Q 114.29 125.84 106.71 119.89
  A 1.72 1.71 45.1 0 0 104.61 119.88
  L 98.60 124.48
  Z
  M 225.88 122.64
  L 224.17 133.15
  A 0.68 0.68 0.0 0 0 224.39 133.77
  C 242.69 149.97 270.02 162.36 295.09 157.91
  A 1.48 1.48 0.0 0 0 296.22 156.96
  L 297.67 153.06
  A 0.39 0.39 0.0 0 0 297.31 152.53
  C 270.48 152.08 244.91 141.93 226.10 122.57
  A 0.13 0.13 0.0 0 0 225.88 122.64
  Z
  M 412.65 139.52
  Q 415.65 141.76 418.92 140.36
  Q 424.78 137.85 432.67 132.88
  A 2.51 2.51 0.0 0 0 433.33 129.24
  L 432.64 128.35
  A 2.42 2.42 0.0 0 0 429.40 127.79
  Q 425.69 130.19 420.48 132.71
  Q 418.66 133.59 412.63 138.45
  A 0.68 0.67 44.3 0 0 412.65 139.52
  Z
  M 59.90 162.53
  A 0.44 0.43 47.6 0 0 60.72 162.57
  C 61.79 159.92 68.95 146.23 72.95 150.76
  C 75.33 153.46 69.89 157.89 68.76 159.47
  C 65.94 163.40 62.67 171.86 67.31 175.27
  A 1.35 1.35 0.0 0 0 69.40 174.57
  C 71.40 168.02 75.35 161.60 81.15 157.32
  A 2.31 2.29 45.4 0 1 83.92 157.35
  L 84.39 157.71
  A 2.45 2.44 42.3 0 1 84.57 161.43
  Q 81.06 164.73 78.78 167.45
  C 76.69 169.96 72.67 178.05 75.68 181.64
  A 2.09 1.90 55.0 0 0 78.14 182.20
  Q 79.49 181.46 80.25 180.49
  C 85.28 174.02 89.54 167.95 95.03 164.06
  Q 97.86 162.05 100.67 164.35
  A 2.27 2.18 9.0 0 1 101.29 165.17
  C 102.49 167.88 99.60 172.09 97.81 175.54
  A 2.36 2.19 -62.2 0 0 98.64 178.64
  C 100.71 179.75 104.08 176.80 105.52 175.27
  C 114.12 166.11 114.97 151.71 108.39 141.63
  C 105.26 136.83 99.64 132.83 94.61 129.72
  A 2.85 2.83 -37.0 0 0 92.30 129.40
  Q 81.52 132.55 72.74 139.19
  C 66.56 143.87 57.40 154.15 59.90 162.53
  Z
  M 378.23 138.96
  L 369.14 143.46
  A 2.20 2.18 78.3 0 0 367.92 145.33
  Q 367.16 162.27 379.62 171.37
  C 382.33 173.35 383.61 174.53 386.61 172.64
  Q 390.92 169.93 394.97 166.94
  A 0.35 0.35 0.0 0 0 394.95 166.36
  Q 379.80 156.69 378.65 139.21
  A 0.29 0.29 0.0 0 0 378.23 138.96
  Z
  M 292.66 164.20
  Q 291.07 164.56 287.00 164.63
  C 264.68 165.02 243.92 156.51 226.31 143.17
  Q 224.01 141.42 222.13 139.36
  A 0.54 0.54 0.0 0 0 221.25 139.47
  Q 215.76 150.18 208.44 159.07
  C 203.57 165.00 197.16 170.30 190.29 176.43
  A 0.62 0.62 0.0 0 0 190.34 177.39
  Q 193.85 179.96 196.20 183.51
  Q 198.05 186.31 196.69 190.99
  A 0.88 0.87 -67.1 0 0 197.09 191.99
  L 213.38 201.40
  A 2.65 2.59 -34.6 0 0 215.12 201.70
  Q 218.32 201.15 220.33 201.91
  Q 224.03 203.31 235.28 208.01
  C 237.52 208.94 238.50 209.90 239.47 211.98
  A 1.87 1.85 -5.1 0 0 240.70 213.00
  Q 250.64 215.58 260.01 214.71
  A 2.81 2.80 -71.3 0 0 261.81 213.82
  C 274.79 199.58 286.69 182.64 293.04 164.63
  A 0.33 0.33 0.0 0 0 292.66 164.20
  Z
  M 153.01 144.91
  L 142.62 148.31
  A 3.59 3.59 0.0 0 0 140.90 149.54
  Q 134.06 158.61 127.53 170.09
  A 1.13 1.13 0.0 0 0 127.73 171.45
  Q 129.56 173.20 132.39 174.11
  A 1.83 1.83 0.0 0 0 134.38 173.52
  C 136.35 171.06 138.26 168.74 139.17 165.15
  Q 139.70 163.02 140.86 161.37
  Q 146.00 154.04 153.42 145.52
  A 0.38 0.38 0.0 0 0 153.01 144.91
  Z
  M 361.22 146.63
  Q 353.15 149.24 345.46 149.76
  A 1.15 1.15 0.0 0 0 344.41 150.70
  C 342.26 162.93 344.29 175.43 350.63 186.11
  A 1.14 1.14 0.0 0 0 351.84 186.65
  Q 365.04 183.93 377.47 177.59
  A 0.36 0.36 0.0 0 0 377.51 176.97
  C 368.05 170.44 361.36 159.03 361.95 147.19
  A 0.56 0.56 0.0 0 0 361.22 146.63
  Z
  M 344.19 187.54
  Q 335.29 170.28 338.07 151.00
  A 0.39 0.38 6.2 0 0 337.71 150.56
  L 319.05 149.15
  A 2.23 2.23 0.0 0 0 316.68 150.99
  Q 313.50 169.18 303.25 184.48
  A 0.42 0.42 0.0 0 0 303.50 185.12
  Q 321.43 189.72 339.43 188.71
  Q 341.22 188.61 343.90 188.12
  A 0.41 0.41 0.0 0 0 344.19 187.54
  Z
  M 282.57 196.30
  A 0.21 0.21 0.0 0 0 282.84 196.60
  C 298.50 188.19 307.59 168.25 310.92 151.38
  A 0.28 0.28 0.0 0 0 310.60 151.05
  L 303.32 152.40
  A 0.27 0.26 -85.9 0 0 303.12 152.58
  Q 296.01 176.13 282.57 196.30
  Z
  M 131.62 151.71
  L 119.46 157.73
  A 1.05 1.05 0.0 0 0 118.95 159.07
  L 121.98 166.49
  A 0.83 0.83 0.0 0 0 123.47 166.59
  L 131.89 152.00
  A 0.21 0.21 0.0 0 0 131.62 151.71
  Z
  M 152.27 170.41
  L 158.90 163.79
  A 0.27 0.27 0.0 0 0 158.92 163.44
  L 153.01 155.72
  A 0.58 0.58 0.0 0 0 152.09 155.72
  L 146.93 162.41
  A 1.11 1.11 0.0 0 0 146.93 163.75
  L 152.02 170.39
  A 0.17 0.16 48.2 0 0 152.27 170.41
  Z
  M 190.79 185.98
  A 0.20 0.20 0.0 0 0 190.87 185.64
  C 185.21 180.10 180.02 175.43 173.83 171.32
  Q 172.05 170.13 169.45 169.05
  C 166.57 167.85 163.87 166.73 161.18 168.46
  C 155.77 171.94 153.14 178.73 160.07 182.72
  A 1.13 1.13 0.0 0 0 161.16 182.74
  C 162.67 181.94 164.26 180.97 165.98 181.46
  C 169.45 182.43 170.52 186.01 169.95 189.37
  A 1.93 1.92 23.6 0 0 170.68 191.23
  L 177.43 196.43
  A 0.85 0.84 40.7 0 0 178.55 196.35
  C 182.57 192.21 184.53 187.81 190.79 185.98
  Z
  M 240.07 234.49
  L 228.69 231.54
  A 0.87 0.87 0.0 0 0 228.16 231.57
  Q 224.78 232.93 222.24 231.98
  Q 212.68 228.41 206.57 226.17
  Q 203.09 224.90 202.53 221.32
  A 1.06 1.05 -84.0 0 0 201.89 220.52
  Q 192.85 216.93 185.18 211.23
  A 0.57 0.57 0.0 0 0 184.41 211.32
  Q 176.08 220.92 164.89 215.36
  Q 154.99 210.44 145.79 200.45
  C 138.74 192.77 140.71 184.09 148.62 178.22
  A 0.90 0.89 -37.2 0 0 148.80 176.95
  L 144.60 171.46
  A 0.56 0.56 0.0 0 0 143.73 171.44
  Q 136.02 180.33 130.75 192.76
  Q 126.86 201.93 123.85 207.78
  A 2.71 2.69 41.9 0 0 124.01 210.52
  C 132.52 223.24 144.64 232.88 159.30 237.59
  A 1.54 1.52 29.5 0 0 160.92 237.15
  Q 164.46 233.14 169.63 226.90
  A 2.57 2.57 0.0 0 1 172.56 226.15
  Q 175.22 227.21 174.52 230.20
  A 1.83 1.83 0.0 0 1 174.17 230.94
  L 172.11 233.63
  A 0.66 0.65 33.4 0 0 172.31 234.60
  Q 188.58 243.58 207.23 238.83
  A 2.81 2.81 0.0 0 1 210.62 240.74
  L 210.65 240.85
  A 2.57 2.57 0.0 0 1 208.84 244.09
  Q 190.97 248.76 174.70 242.58
  A 0.59 0.59 0.0 0 0 173.95 242.91
  Q 173.20 244.72 173.25 246.15
  A 1.95 1.93 25.3 0 0 173.66 247.28
  Q 184.11 260.55 199.98 266.42
  C 203.77 267.82 214.93 269.88 218.58 267.34
  A 1.79 1.73 88.9 0 0 219.10 266.78
  Q 226.69 254.05 232.22 243.47
  C 234.02 240.01 238.45 237.08 240.27 235.22
  A 0.44 0.44 0.0 0 0 240.07 234.49
  Z
  M 151.68 183.01
  C 147.69 185.85 145.36 190.84 148.83 195.17
  Q 154.55 202.28 163.36 208.39
  Q 165.73 210.04 166.68 209.18
  C 169.36 206.75 172.01 204.03 173.87 201.09
  A 0.97 0.97 0.0 0 0 173.64 199.80
  L 166.70 194.45
  A 0.60 0.60 0.0 0 0 165.99 194.43
  C 162.93 196.58 160.39 197.62 157.43 194.52
  C 155.78 192.79 156.02 189.37 156.26 187.69
  A 1.45 1.43 -62.9 0 0 155.88 186.47
  L 152.74 183.12
  A 0.82 0.80 50.4 0 0 151.68 183.01
  Z
  M 164.95 186.20
  L 161.76 188.04
  A 2.32 2.32 0.0 0 0 160.60 190.05
  L 160.60 191.06
  A 0.66 0.65 -20.7 0 0 161.69 191.55
  Q 164.14 189.40 165.44 186.66
  A 0.35 0.35 0.0 0 0 164.95 186.20
  Z
  M 189.88 191.59
  L 170.54 210.93
  A 0.58 0.57 -64.8 0 0 170.89 211.91
  C 175.85 212.35 180.15 208.94 182.75 204.75
  Q 186.18 199.21 189.19 194.20
  Q 189.97 192.91 190.10 191.70
  A 0.13 0.13 0.0 0 0 189.88 191.59
  Z
  M 188.31 207.03
  Q 196.04 212.63 204.48 215.94
  A 1.14 1.12 27.4 0 0 205.83 215.52
  L 211.36 207.31
  A 0.67 0.66 32.1 0 0 211.14 206.36
  L 194.33 196.65
  A 0.56 0.56 0.0 0 0 193.57 196.86
  L 188.14 206.26
  A 0.59 0.59 0.0 0 0 188.31 207.03
  Z
  M 16.58 276.56
  C 3.57 262.56 20.40 239.28 28.83 227.82
  Q 37.65 215.81 50.08 208.02
  A 0.73 0.73 0.0 0 0 49.92 206.70
  Q 44.38 204.93 39.51 208.55
  Q 34.21 212.48 29.99 217.26
  Q 18.75 229.97 11.72 244.98
  C 8.61 251.61 5.78 259.16 6.57 266.39
  Q 7.59 275.65 16.34 277.01
  A 0.27 0.27 0.0 0 0 16.58 276.56
  Z
  M 208.03 219.80
  A 0.62 0.62 0.0 0 0 208.22 220.85
  L 224.47 226.88
  A 1.42 1.41 31.0 0 0 226.02 226.50
  Q 230.69 221.26 233.97 214.81
  A 1.73 1.72 -66.3 0 0 233.04 212.41
  L 218.01 206.83
  A 1.04 1.03 -70.1 0 0 216.67 207.46
  Q 214.14 214.50 208.03 219.80
  Z
  M 68.93 215.45
  C 66.26 213.88 59.12 209.92 55.87 210.15
  A 3.39 3.34 -59.5 0 0 54.74 210.45
  Q 51.98 211.71 48.70 214.19
  C 36.99 223.06 29.72 233.48 22.06 246.33
  C 17.13 254.60 12.94 267.70 21.11 275.16
  C 23.76 277.58 27.05 276.00 29.65 274.40
  Q 35.52 270.79 40.41 266.08
  A 1.56 1.54 53.9 0 0 40.69 264.24
  C 38.46 260.18 35.58 258.84 31.23 255.95
  A 1.71 1.66 -46.7 0 1 31.19 253.22
  Q 32.41 252.26 34.01 252.82
  Q 40.60 255.14 44.38 261.44
  A 0.39 0.39 0.0 0 0 44.99 261.52
  L 48.57 257.94
  A 0.89 0.88 -33.0 0 0 48.77 257.02
  Q 48.33 255.78 47.31 254.92
  Q 41.14 249.70 38.86 247.72
  A 1.46 1.45 50.5 0 1 39.08 245.37
  L 39.75 244.98
  A 3.41 3.40 51.4 0 1 43.76 245.43
  L 52.43 253.43
  A 1.07 1.06 61.8 0 0 53.29 253.69
  Q 55.08 253.44 55.90 252.22
  A 1.67 1.66 59.0 0 0 56.16 251.17
  Q 54.16 230.36 69.01 216.13
  A 0.43 0.43 0.0 0 0 68.93 215.45
  Z
  M 130.91 236.75
  Q 140.20 244.05 150.40 246.94
  A 1.95 1.92 39.2 0 0 151.80 246.80
  Q 154.17 245.60 155.83 242.44
  A 0.44 0.44 0.0 0 0 155.57 241.81
  C 148.18 239.53 141.78 235.80 135.52 230.88
  C 129.25 225.96 124.11 220.62 120.15 213.99
  A 0.44 0.44 0.0 0 0 119.48 213.88
  Q 116.80 216.24 116.20 218.83
  A 1.95 1.92 37.1 0 0 116.40 220.22
  Q 121.61 229.45 130.91 236.75
  Z
  M 75.07 256.73
  C 75.00 255.37 74.30 253.40 74.19 251.98
  C 73.32 240.31 77.81 228.53 86.09 220.30
  A 0.68 0.68 0.0 0 0 85.75 219.15
  L 76.45 217.17
  A 2.06 2.04 -51.5 0 0 75.12 217.33
  Q 74.18 217.71 72.31 219.56
  C 63.76 228.00 58.62 240.24 61.91 251.83
  A 4.16 4.16 0.0 0 0 64.86 254.72
  L 74.47 257.22
  A 0.48 0.48 0.0 0 0 75.07 256.73
  Z
  M 255.15 220.17
  Q 246.26 220.40 238.48 217.90
  A 0.74 0.73 -66.0 0 0 237.62 218.24
  L 232.95 226.33
  A 0.57 0.57 0.0 0 0 233.30 227.17
  L 244.60 230.10
  A 1.97 1.97 0.0 0 0 246.50 229.58
  L 255.38 220.71
  A 0.32 0.32 0.0 0 0 255.15 220.17
  Z
  M 94.09 261.60
  C 87.82 248.64 91.52 232.91 101.24 222.78
  A 0.25 0.24 -64.0 0 0 101.10 222.37
  L 93.98 221.21
  A 1.57 1.54 32.9 0 0 92.91 221.43
  Q 89.98 223.33 87.24 226.97
  Q 78.97 237.93 79.46 250.73
  Q 79.61 254.72 80.98 257.38
  A 4.45 4.44 -6.3 0 0 83.82 259.65
  L 93.60 262.19
  A 0.42 0.42 0.0 0 0 94.09 261.60
  Z
  M 146.88 251.34
  C 132.67 246.81 120.53 236.83 112.65 224.47
  A 0.73 0.72 -47.1 0 0 111.40 224.52
  Q 110.24 226.67 108.29 227.75
  A 1.25 1.22 35.1 0 1 107.50 227.88
  L 105.39 227.54
  A 1.15 1.13 30.6 0 0 104.51 227.76
  C 98.73 232.25 96.19 242.69 96.56 249.48
  C 96.81 254.19 98.99 263.99 104.75 265.07
  C 114.66 266.95 123.75 266.95 133.05 262.25
  Q 141.10 258.19 146.96 251.64
  A 0.19 0.18 30.2 0 0 146.88 251.34
  Z
  M 147.54 260.97
  L 149.11 260.20
  A 2.09 2.07 -55.9 0 1 150.23 259.98
  Q 152.72 260.18 154.43 259.28
  A 1.96 1.94 30.7 0 1 155.35 259.05
  L 160.61 259.05
  A 2.09 2.07 13.0 0 0 162.48 257.89
  Q 167.12 248.57 168.95 241.01
  A 1.41 1.41 0.0 0 0 166.56 239.70
  Q 163.83 242.51 161.43 245.59
  C 157.17 251.04 151.38 255.91 147.11 260.39
  A 0.37 0.37 0.0 0 0 147.54 260.97
  Z
  M 213.29 273.69
  C 197.18 274.21 182.08 265.02 171.75 253.41
  A 0.86 0.86 0.0 0 0 170.33 253.61
  L 168.66 257.05
  A 2.24 2.24 0.0 0 0 168.93 259.42
  C 178.38 271.30 193.50 280.37 208.72 280.06
  A 3.57 3.57 0.0 0 0 211.64 278.43
  L 213.94 274.84
  A 0.75 0.75 0.0 0 0 213.29 273.69
  Z
  M 158.02 265.08
  L 151.32 266.33
  A 2.07 2.06 -80.0 0 0 149.90 267.33
  C 145.87 274.22 147.32 284.13 150.26 291.51
  C 151.92 295.67 156.17 302.37 161.24 302.43
  C 172.53 302.54 183.93 302.10 193.17 296.17
  Q 199.92 291.85 204.75 286.07
  A 0.40 0.40 0.0 0 0 204.49 285.42
  Q 181.10 282.28 165.83 263.80
  A 0.41 0.40 37.9 0 0 165.15 263.88
  L 161.97 270.45
  A 2.22 2.21 -60.6 0 1 158.77 271.35
  L 158.75 271.34
  A 2.59 2.58 -62.6 0 1 157.69 268.00
  L 158.66 265.92
  A 0.60 0.59 -82.6 0 0 158.02 265.08
  Z
  M 143.49 267.11
  L 136.88 268.34
  A 3.75 3.73 10.8 0 0 134.41 270.01
  Q 125.95 283.51 133.49 296.66
  Q 135.13 299.52 138.36 301.22
  A 2.85 2.76 60.0 0 0 139.48 301.54
  L 150.10 302.34
  A 0.34 0.34 0.0 0 0 150.39 301.78
  Q 142.40 291.99 142.09 279.26
  Q 141.91 272.18 144.11 267.94
  A 0.58 0.57 8.5 0 0 143.49 267.11
  Z
  M 94.07 329.06
  C 85.30 319.76 90.41 305.72 95.05 295.79
  Q 101.14 282.75 107.78 271.67
  A 0.44 0.44 0.0 0 0 107.50 271.02
  L 104.99 270.48
  A 1.15 1.14 -63.3 0 0 103.87 270.86
  Q 101.55 273.60 99.12 278.13
  Q 92.52 290.41 87.72 301.21
  C 83.59 310.52 79.52 325.99 93.83 329.47
  A 0.25 0.25 0.0 0 0 94.07 329.06
  Z
  M 127.54 270.80
  Q 120.57 272.65 114.36 272.13
  A 1.94 1.93 -71.4 0 0 112.56 273.03
  Q 104.53 285.83 98.05 299.95
  Q 96.31 303.76 95.25 307.70
  C 93.21 315.29 92.09 321.08 97.79 326.95
  Q 101.08 330.33 105.18 328.35
  Q 111.45 325.31 117.60 318.30
  A 0.88 0.87 -37.8 0 0 117.73 317.32
  C 115.44 312.80 111.84 311.04 107.46 308.97
  A 1.38 1.38 0.0 0 1 106.80 307.13
  C 108.03 304.55 111.76 305.52 113.66 306.69
  Q 118.63 309.78 120.05 312.61
  A 1.41 1.41 0.0 0 0 122.43 312.84
  L 123.78 311.08
  A 2.99 2.98 -52.4 0 0 123.24 306.89
  L 114.91 300.47
  A 1.77 1.77 0.0 0 1 114.76 297.80
  L 114.78 297.78
  A 2.78 2.77 -49.6 0 1 118.10 297.51
  Q 125.06 301.89 127.86 305.41
  A 0.79 0.78 48.2 0 0 129.03 305.48
  L 131.32 303.19
  A 0.81 0.80 44.3 0 0 131.30 302.04
  C 123.64 294.76 123.28 280.41 127.88 271.22
  A 0.30 0.30 0.0 0 0 127.54 270.80
  Z"
/>
<path d="
  M 212.92 192.57
  C 207.01 189.88 205.38 183.93 208.48 178.23
  Q 209.21 176.90 220.76 158.27
  Q 224.60 152.07 231.10 154.57
  Q 249.94 161.83 274.84 171.08
  C 280.29 173.10 280.38 178.86 277.66 183.16
  Q 271.90 192.29 263.37 205.42
  C 259.53 211.33 254.50 210.25 248.27 207.74
  Q 230.54 200.60 212.92 192.57
  Z
  M 227.15 159.60
  A 0.58 0.58 0.0 0 0 226.35 159.78
  L 212.69 181.07
  A 0.58 0.58 0.0 0 0 212.60 181.38
  L 212.60 184.95
  A 0.58 0.58 0.0 0 0 213.67 185.26
  L 228.95 161.45
  A 0.58 0.58 0.0 0 0 228.77 160.65
  L 227.15 159.60
  Z
  M 234.01 163.44
  L 218.09 188.25
  A 0.43 0.42 29.1 0 0 218.27 188.87
  Q 236.54 197.25 253.26 203.78
  Q 256.34 204.98 257.92 203.50
  A 3.65 3.57 85.5 0 0 258.48 202.83
  L 273.77 179.01
  A 0.97 0.97 0.0 0 0 273.29 177.58
  L 234.64 163.22
  A 0.53 0.52 -63.7 0 0 234.01 163.44
  Z"
/>
<path d="
  M 237.70 179.21
  A 0.45 0.45 0.0 0 0 237.36 179.90
  Q 239.18 182.79 238.29 185.18
  A 2.13 2.07 21.1 0 1 235.53 186.36
  C 234.69 186.02 233.86 184.73 233.70 183.86
  Q 233.09 180.43 231.80 178.05
  A 1.66 1.66 0.0 0 1 232.95 175.62
  L 242.29 173.89
  A 1.27 1.22 -39.4 0 1 242.93 173.94
  C 244.94 174.65 245.51 177.02 243.49 178.10
  C 241.56 179.13 239.25 179.10 237.70 179.21
  Z"
/>
<path d="
  M 248.44 185.67
  Q 244.64 189.19 241.23 193.00
  A 2.08 1.87 -37.9 0 1 237.95 192.76
  Q 236.80 190.34 239.07 188.30
  Q 239.19 188.19 245.41 182.41
  Q 251.64 176.63 251.75 176.52
  Q 253.95 174.40 256.28 175.73
  A 2.08 1.87 -47.9 0 1 256.28 179.02
  Q 252.23 182.14 248.44 185.67
  Z"
/>
<path d="
  M 256.45 188.82
  A 1.18 1.18 0.0 0 0 256.99 187.04
  Q 255.18 184.48 255.21 182.60
  A 1.67 1.67 0.0 0 1 257.91 181.32
  Q 261.55 184.16 262.63 190.17
  C 262.95 191.93 260.77 192.47 259.24 192.54
  A 2.58 2.45 28.9 0 0 258.28 192.79
  C 255.83 194.02 251.93 195.44 249.52 193.76
  Q 248.37 192.97 248.51 191.83
  A 2.15 2.15 0.0 0 1 250.68 189.95
  Q 253.41 190.00 256.45 188.82
  Z"
/>
</g>
<g fill="var(--art-astronaut-primary)">
<path d="
  M 320.85 140.89
  A 0.13 0.13 0.0 0 1 320.91 141.15
  C 312.60 144.03 304.86 145.65 295.87 145.59
  Q 267.32 145.39 243.57 128.68
  Q 220.45 112.41 215.44 84.27
  A 0.25 0.25 0.0 0 1 215.83 84.03
  Q 225.30 90.86 235.48 85.29
  Q 242.53 81.44 245.11 73.95
  C 248.31 64.63 248.48 49.31 236.63 45.72
  Q 230.69 43.93 225.06 44.61
  A 0.20 0.20 0.0 0 1 224.87 44.31
  C 238.14 22.33 260.95 7.85 286.83 7.08
  Q 315.94 6.21 337.08 22.56
  Q 354.48 36.02 361.52 57.14
  A 0.13 0.13 0.0 0 1 361.30 57.26
  Q 351.12 43.61 334.28 37.32
  C 317.72 31.14 299.10 28.98 282.48 35.94
  Q 260.29 45.23 252.77 68.00
  Q 248.42 81.20 250.73 94.42
  Q 254.95 118.65 276.21 130.69
  C 290.31 138.68 304.71 142.88 320.85 140.89
  Z"
/>
<path d="
  M 156.60 137.97
  C 156.55 136.50 157.12 134.35 157.07 132.33
  Q 156.57 114.08 143.99 101.23
  A 0.29 0.29 0.0 0 1 144.09 100.76
  C 158.94 94.98 176.86 92.99 192.58 93.10
  A 5.76 5.74 -28.0 0 1 195.73 94.06
  C 204.09 99.58 206.86 110.08 205.38 119.75
  C 202.47 138.67 190.25 152.97 174.23 164.19
  A 1.24 1.23 37.7 0 1 173.09 164.33
  L 165.75 161.61
  A 3.09 3.07 81.6 0 1 164.41 160.61
  L 157.36 151.41
  A 0.89 0.89 0.0 0 1 157.33 150.37
  L 161.04 144.87
  A 3.18 3.16 -72.8 0 1 163.69 143.46
  L 185.78 143.54
  A 3.30 3.30 0.0 0 0 189.04 140.81
  L 189.07 140.66
  A 2.72 2.72 0.0 0 0 186.52 137.54
  Q 171.29 136.80 157.20 138.49
  A 0.54 0.54 0.0 0 1 156.60 137.97
  Z"
/>
<path d="
  M 111.56 115.99
  A 0.41 0.41 0.0 0 1 111.62 115.29
  L 136.31 103.08
  A 1.38 1.37 -36.8 0 1 137.84 103.30
  Q 152.72 117.06 150.38 138.30
  A 1.87 1.87 0.0 0 1 149.11 139.87
  L 130.93 145.83
  A 0.18 0.18 0.0 0 1 130.70 145.69
  C 129.05 133.63 121.35 122.98 111.56 115.99
  Z"
/>
<path d="
  M 418.05 113.01
  A 0.51 0.51 0.0 0 1 418.16 113.94
  Q 406.83 120.30 397.15 124.38
  Q 394.66 125.43 393.22 127.43
  A 2.04 1.89 33.2 0 0 393.92 130.23
  C 397.35 132.29 403.80 124.43 410.44 128.54
  A 2.18 1.96 31.6 0 1 411.27 131.34
  C 410.00 133.42 405.76 135.53 402.76 137.33
  A 3.04 3.03 70.5 0 0 401.31 140.39
  Q 402.04 145.38 399.10 149.34
  A 2.48 2.47 -58.8 0 0 400.00 153.04
  L 400.56 153.31
  A 2.19 2.18 -57.9 0 0 403.23 152.69
  C 405.70 149.55 406.28 146.39 407.26 142.50
  A 0.59 0.59 0.0 0 1 408.25 142.22
  Q 414.76 148.69 423.87 144.23
  Q 432.33 140.09 432.63 139.98
  A 1.82 1.82 0.0 0 1 434.99 141.09
  Q 435.54 142.70 434.23 143.98
  C 430.56 147.55 424.53 150.89 420.16 154.34
  Q 415.83 157.76 413.89 158.96
  Q 400.03 167.52 390.20 154.22
  C 383.48 145.12 382.26 134.30 390.61 125.91
  Q 400.66 115.82 413.69 112.93
  Q 415.97 112.43 418.05 113.01
  Z"
/>
<path d="
  M 412.65 123.93
  A 0.30 0.30 0.0 0 1 412.73 123.45
  L 425.17 117.30
  A 3.21 3.20 -35.5 0 1 428.86 117.91
  L 429.31 118.35
  A 2.04 2.04 0.0 0 1 428.89 121.56
  L 417.47 128.15
  A 0.57 0.57 0.0 0 1 416.78 128.06
  L 412.65 123.93
  Z"
/>
<path d="
  M 226.10 122.57
  C 244.91 141.93 270.48 152.08 297.31 152.53
  A 0.39 0.39 0.0 0 1 297.67 153.06
  L 296.22 156.96
  A 1.48 1.48 0.0 0 1 295.09 157.91
  C 270.02 162.36 242.69 149.97 224.39 133.77
  A 0.68 0.68 0.0 0 1 224.17 133.15
  L 225.88 122.64
  A 0.13 0.13 0.0 0 1 226.10 122.57
  Z"
/>
<path d="
  M 412.63 138.45
  Q 418.66 133.59 420.48 132.71
  Q 425.69 130.19 429.40 127.79
  A 2.42 2.42 0.0 0 1 432.64 128.35
  L 433.33 129.24
  A 2.51 2.51 0.0 0 1 432.67 132.88
  Q 424.78 137.85 418.92 140.36
  Q 415.65 141.76 412.65 139.52
  A 0.68 0.67 44.3 0 1 412.63 138.45
  Z"
/>
<path d="
  M 59.90 162.53
  C 57.40 154.15 66.56 143.87 72.74 139.19
  Q 81.52 132.55 92.30 129.40
  A 2.85 2.83 -37.0 0 1 94.61 129.72
  C 99.64 132.83 105.26 136.83 108.39 141.63
  C 114.97 151.71 114.12 166.11 105.52 175.27
  C 104.08 176.80 100.71 179.75 98.64 178.64
  A 2.36 2.19 -62.2 0 1 97.81 175.54
  C 99.60 172.09 102.49 167.88 101.29 165.17
  A 2.27 2.18 9.0 0 0 100.67 164.35
  Q 97.86 162.05 95.03 164.06
  C 89.54 167.95 85.28 174.02 80.25 180.49
  Q 79.49 181.46 78.14 182.20
  A 2.09 1.90 55.0 0 1 75.68 181.64
  C 72.67 178.05 76.69 169.96 78.78 167.45
  Q 81.06 164.73 84.57 161.43
  A 2.45 2.44 42.3 0 0 84.39 157.71
  L 83.92 157.35
  A 2.31 2.29 45.4 0 0 81.15 157.32
  C 75.35 161.60 71.40 168.02 69.40 174.57
  A 1.35 1.35 0.0 0 1 67.31 175.27
  C 62.67 171.86 65.94 163.40 68.76 159.47
  C 69.89 157.89 75.33 153.46 72.95 150.76
  C 68.95 146.23 61.79 159.92 60.72 162.57
  A 0.44 0.43 47.6 0 1 59.90 162.53
  Z"
/>
<path d="
  M 293.04 164.63
  C 286.69 182.64 274.79 199.58 261.81 213.82
  A 2.81 2.80 -71.3 0 1 260.01 214.71
  Q 250.64 215.58 240.70 213.00
  A 1.87 1.85 -5.1 0 1 239.47 211.98
  C 238.50 209.90 237.52 208.94 235.28 208.01
  Q 224.03 203.31 220.33 201.91
  Q 218.32 201.15 215.12 201.70
  A 2.65 2.59 -34.6 0 1 213.38 201.40
  L 197.09 191.99
  A 0.88 0.87 -67.1 0 1 196.69 190.99
  Q 198.05 186.31 196.20 183.51
  Q 193.85 179.96 190.34 177.39
  A 0.62 0.62 0.0 0 1 190.29 176.43
  C 197.16 170.30 203.57 165.00 208.44 159.07
  Q 215.76 150.18 221.25 139.47
  A 0.54 0.54 0.0 0 1 222.13 139.36
  Q 224.01 141.42 226.31 143.17
  C 243.92 156.51 264.68 165.02 287.00 164.63
  Q 291.07 164.56 292.66 164.20
  A 0.33 0.33 0.0 0 1 293.04 164.63
  Z
  M 208.48 178.23
  C 205.38 183.93 207.01 189.88 212.92 192.57
  Q 230.54 200.60 248.27 207.74
  C 254.50 210.25 259.53 211.33 263.37 205.42
  Q 271.90 192.29 277.66 183.16
  C 280.38 178.86 280.29 173.10 274.84 171.08
  Q 249.94 161.83 231.10 154.57
  Q 224.60 152.07 220.76 158.27
  Q 209.21 176.90 208.48 178.23
  Z"
/>
<path d="
  M 361.95 147.19
  C 361.36 159.03 368.05 170.44 377.51 176.97
  A 0.36 0.36 0.0 0 1 377.47 177.59
  Q 365.04 183.93 351.84 186.65
  A 1.14 1.14 0.0 0 1 350.63 186.11
  C 344.29 175.43 342.26 162.93 344.41 150.70
  A 1.15 1.15 0.0 0 1 345.46 149.76
  Q 353.15 149.24 361.22 146.63
  A 0.56 0.56 0.0 0 1 361.95 147.19
  Z"
/>
<path d="
  M 343.90 188.12
  Q 341.22 188.61 339.43 188.71
  Q 321.43 189.72 303.50 185.12
  A 0.42 0.42 0.0 0 1 303.25 184.48
  Q 313.50 169.18 316.68 150.99
  A 2.23 2.23 0.0 0 1 319.05 149.15
  L 337.71 150.56
  A 0.39 0.38 6.2 0 1 338.07 151.00
  Q 335.29 170.28 344.19 187.54
  A 0.41 0.41 0.0 0 1 343.90 188.12
  Z"
/>
<path d="
  M 234.01 163.44
  A 0.53 0.52 -63.7 0 1 234.64 163.22
  L 273.29 177.58
  A 0.97 0.97 0.0 0 1 273.77 179.01
  L 258.48 202.83
  A 3.65 3.57 85.5 0 1 257.92 203.50
  Q 256.34 204.98 253.26 203.78
  Q 236.54 197.25 218.27 188.87
  A 0.43 0.42 29.1 0 1 218.09 188.25
  L 234.01 163.44
  Z
  M 237.70 179.21
  C 239.25 179.10 241.56 179.13 243.49 178.10
  C 245.51 177.02 244.94 174.65 242.93 173.94
  A 1.27 1.22 -39.4 0 0 242.29 173.89
  L 232.95 175.62
  A 1.66 1.66 0.0 0 0 231.80 178.05
  Q 233.09 180.43 233.70 183.86
  C 233.86 184.73 234.69 186.02 235.53 186.36
  A 2.13 2.07 21.1 0 0 238.29 185.18
  Q 239.18 182.79 237.36 179.90
  A 0.45 0.45 0.0 0 1 237.70 179.21
  Z
  M 245.41 182.41
  Q 239.19 188.19 239.07 188.30
  Q 236.80 190.34 237.95 192.76
  A 2.08 1.87 -37.9 0 0 241.23 193.00
  Q 244.64 189.19 248.44 185.67
  Q 252.23 182.14 256.28 179.02
  A 2.08 1.87 -47.9 0 0 256.28 175.73
  Q 253.95 174.40 251.75 176.52
  Q 251.64 176.63 245.41 182.41
  Z
  M 256.45 188.82
  Q 253.41 190.00 250.68 189.95
  A 2.15 2.15 0.0 0 0 248.51 191.83
  Q 248.37 192.97 249.52 193.76
  C 251.93 195.44 255.83 194.02 258.28 192.79
  A 2.58 2.45 28.9 0 1 259.24 192.54
  C 260.77 192.47 262.95 191.93 262.63 190.17
  Q 261.55 184.16 257.91 181.32
  A 1.67 1.67 0.0 0 0 255.21 182.60
  Q 255.18 184.48 256.99 187.04
  A 1.18 1.18 0.0 0 1 256.45 188.82
  Z"
/>
<path d="
  M 240.27 235.22
  C 238.45 237.08 234.02 240.01 232.22 243.47
  Q 226.69 254.05 219.10 266.78
  A 1.79 1.73 88.9 0 1 218.58 267.34
  C 214.93 269.88 203.77 267.82 199.98 266.42
  Q 184.11 260.55 173.66 247.28
  A 1.95 1.93 25.3 0 1 173.25 246.15
  Q 173.20 244.72 173.95 242.91
  A 0.59 0.59 0.0 0 1 174.70 242.58
  Q 190.97 248.76 208.84 244.09
  A 2.57 2.57 0.0 0 0 210.65 240.85
  L 210.62 240.74
  A 2.81 2.81 0.0 0 0 207.23 238.83
  Q 188.58 243.58 172.31 234.60
  A 0.66 0.65 33.4 0 1 172.11 233.63
  L 174.17 230.94
  A 1.83 1.83 0.0 0 0 174.52 230.20
  Q 175.22 227.21 172.56 226.15
  A 2.57 2.57 0.0 0 0 169.63 226.90
  Q 164.46 233.14 160.92 237.15
  A 1.54 1.52 29.5 0 1 159.30 237.59
  C 144.64 232.88 132.52 223.24 124.01 210.52
  A 2.71 2.69 41.9 0 1 123.85 207.78
  Q 126.86 201.93 130.75 192.76
  Q 136.02 180.33 143.73 171.44
  A 0.56 0.56 0.0 0 1 144.60 171.46
  L 148.80 176.95
  A 0.90 0.89 -37.2 0 1 148.62 178.22
  C 140.71 184.09 138.74 192.77 145.79 200.45
  Q 154.99 210.44 164.89 215.36
  Q 176.08 220.92 184.41 211.32
  A 0.57 0.57 0.0 0 1 185.18 211.23
  Q 192.85 216.93 201.89 220.52
  A 1.06 1.05 -84.0 0 1 202.53 221.32
  Q 203.09 224.90 206.57 226.17
  Q 212.68 228.41 222.24 231.98
  Q 224.78 232.93 228.16 231.57
  A 0.87 0.87 0.0 0 1 228.69 231.54
  L 240.07 234.49
  A 0.44 0.44 0.0 0 1 240.27 235.22
  Z"
/>
<path d="
  M 93.60 262.19
  L 83.82 259.65
  A 4.45 4.44 -6.3 0 1 80.98 257.38
  Q 79.61 254.72 79.46 250.73
  Q 78.97 237.93 87.24 226.97
  Q 89.98 223.33 92.91 221.43
  A 1.57 1.54 32.9 0 1 93.98 221.21
  L 101.10 222.37
  A 0.25 0.24 -64.0 0 1 101.24 222.78
  C 91.52 232.91 87.82 248.64 94.09 261.60
  A 0.42 0.42 0.0 0 1 93.60 262.19
  Z"
/>
<path d="
  M 146.88 251.34
  A 0.19 0.18 30.2 0 1 146.96 251.64
  Q 141.10 258.19 133.05 262.25
  C 123.75 266.95 114.66 266.95 104.75 265.07
  C 98.99 263.99 96.81 254.19 96.56 249.48
  C 96.19 242.69 98.73 232.25 104.51 227.76
  A 1.15 1.13 30.6 0 1 105.39 227.54
  L 107.50 227.88
  A 1.25 1.22 35.1 0 0 108.29 227.75
  Q 110.24 226.67 111.40 224.52
  A 0.73 0.72 -47.1 0 1 112.65 224.47
  C 120.53 236.83 132.67 246.81 146.88 251.34
  Z"
/>
<path d="
  M 158.66 265.92
  L 157.69 268.00
  A 2.59 2.58 -62.6 0 0 158.75 271.34
  L 158.77 271.35
  A 2.22 2.21 -60.6 0 0 161.97 270.45
  L 165.15 263.88
  A 0.41 0.40 37.9 0 1 165.83 263.80
  Q 181.10 282.28 204.49 285.42
  A 0.40 0.40 0.0 0 1 204.75 286.07
  Q 199.92 291.85 193.17 296.17
  C 183.93 302.10 172.53 302.54 161.24 302.43
  C 156.17 302.37 151.92 295.67 150.26 291.51
  C 147.32 284.13 145.87 274.22 149.90 267.33
  A 2.07 2.06 -80.0 0 1 151.32 266.33
  L 158.02 265.08
  A 0.60 0.59 -82.6 0 1 158.66 265.92
  Z"
/>
</g>
<g fill="var(--art-astronaut-secondary)">
<path d="
  M 180.04 86.31
  L 160.58 66.85
  A 1.42 1.41 38.9 0 1 160.39 65.08
  C 166.73 55.22 172.45 45.84 184.70 43.18
  C 188.82 42.28 190.64 44.63 193.61 47.76
  C 197.38 51.74 198.46 56.27 197.15 61.45
  Q 196.44 64.28 193.06 69.17
  Q 189.38 74.49 181.29 86.20
  A 0.82 0.82 0.0 0 1 180.04 86.31
  Z"
/>
<path d="
  M 199.05 45.26
  A 0.38 0.38 0.0 0 1 199.45 44.67
  L 213.66 48.36
  A 0.64 0.63 -68.1 0 1 214.05 49.28
  C 207.43 61.32 206.68 74.12 208.88 87.48
  A 0.47 0.46 87.0 0 1 208.40 88.02
  L 190.04 87.15
  A 1.26 1.26 0.0 0 1 188.94 85.41
  Q 189.45 84.15 190.36 82.86
  Q 197.08 73.25 198.94 70.66
  Q 208.21 57.71 199.05 45.26
  Z"
/>
<ellipse cx="0.00" cy="0.00" transform="translate(224.57,65.05) rotate(-73.7)" rx="15.46" ry="9.53"/>
<path d="
  M 238.05 52.34
  C 242.37 54.97 241.73 64.06 241.11 68.28
  Q 239.69 77.99 229.83 82.06
  A 0.21 0.21 0.0 0 1 229.63 81.70
  C 237.17 76.55 239.12 69.43 239.56 60.95
  Q 239.79 56.63 237.69 52.68
  A 0.26 0.26 0.0 0 1 238.05 52.34
  Z"
/>
<path d="
  M 139.52 95.54
  L 156.05 71.00
  A 0.46 0.45 -50.5 0 1 156.75 70.93
  L 173.64 87.83
  A 0.30 0.30 0.0 0 1 173.45 88.34
  Q 156.37 89.70 139.90 96.02
  A 0.32 0.32 0.0 0 1 139.52 95.54
  Z"
/>
<path d="
  M 204.28 94.11
  A 0.31 0.31 0.0 0 1 204.54 93.60
  L 208.45 93.79
  A 2.62 2.61 82.3 0 1 210.82 95.60
  Q 213.94 105.25 219.32 113.67
  Q 220.09 114.88 220.08 117.27
  Q 220.03 129.07 214.85 139.34
  C 208.25 152.42 197.57 163.25 186.38 172.63
  A 1.46 1.45 -46.0 0 1 184.56 172.67
  L 179.36 168.67
  A 0.87 0.87 0.0 0 1 179.40 167.27
  C 195.56 156.05 209.01 138.56 211.30 118.66
  Q 212.91 104.64 204.28 94.11
  Z"
/>
<path d="
  M 98.60 124.48
  L 104.61 119.88
  A 1.72 1.71 45.1 0 1 106.71 119.89
  Q 114.29 125.84 115.22 126.81
  Q 123.32 135.27 124.33 147.03
  A 1.88 1.86 72.8 0 1 123.40 148.81
  L 119.06 151.32
  A 0.92 0.91 -19.0 0 1 117.70 150.66
  C 116.13 139.85 108.32 131.17 98.72 125.95
  A 0.88 0.88 0.0 0 1 98.60 124.48
  Z"
/>
<path d="
  M 378.65 139.21
  Q 379.80 156.69 394.95 166.36
  A 0.35 0.35 0.0 0 1 394.97 166.94
  Q 390.92 169.93 386.61 172.64
  C 383.61 174.53 382.33 173.35 379.62 171.37
  Q 367.16 162.27 367.92 145.33
  A 2.20 2.18 78.3 0 1 369.14 143.46
  L 378.23 138.96
  A 0.29 0.29 0.0 0 1 378.65 139.21
  Z"
/>
<path d="
  M 153.01 144.91
  A 0.38 0.38 0.0 0 1 153.42 145.52
  Q 146.00 154.04 140.86 161.37
  Q 139.70 163.02 139.17 165.15
  C 138.26 168.74 136.35 171.06 134.38 173.52
  A 1.83 1.83 0.0 0 1 132.39 174.11
  Q 129.56 173.20 127.73 171.45
  A 1.13 1.13 0.0 0 1 127.53 170.09
  Q 134.06 158.61 140.90 149.54
  A 3.59 3.59 0.0 0 1 142.62 148.31
  L 153.01 144.91
  Z"
/>
<path d="
  M 282.57 196.30
  Q 296.01 176.13 303.12 152.58
  A 0.27 0.26 -85.9 0 1 303.32 152.40
  L 310.60 151.05
  A 0.28 0.28 0.0 0 1 310.92 151.38
  C 307.59 168.25 298.50 188.19 282.84 196.60
  A 0.21 0.21 0.0 0 1 282.57 196.30
  Z"
/>
<path d="
  M 131.62 151.71
  A 0.21 0.21 0.0 0 1 131.89 152.00
  L 123.47 166.59
  A 0.83 0.83 0.0 0 1 121.98 166.49
  L 118.95 159.07
  A 1.05 1.05 0.0 0 1 119.46 157.73
  L 131.62 151.71
  Z"
/>
<path d="
  M 152.27 170.41
  A 0.17 0.16 48.2 0 1 152.02 170.39
  L 146.93 163.75
  A 1.11 1.11 0.0 0 1 146.93 162.41
  L 152.09 155.72
  A 0.58 0.58 0.0 0 1 153.01 155.72
  L 158.92 163.44
  A 0.27 0.27 0.0 0 1 158.90 163.79
  L 152.27 170.41
  Z"
/>
<path d="
  M 227.15 159.60
  L 228.77 160.65
  A 0.58 0.58 0.0 0 1 228.95 161.45
  L 213.67 185.26
  A 0.58 0.58 0.0 0 1 212.60 184.95
  L 212.60 181.38
  A 0.58 0.58 0.0 0 1 212.69 181.07
  L 226.35 159.78
  A 0.58 0.58 0.0 0 1 227.15 159.60
  Z"
/>
<path d="
  M 190.79 185.98
  C 184.53 187.81 182.57 192.21 178.55 196.35
  A 0.85 0.84 40.7 0 1 177.43 196.43
  L 170.68 191.23
  A 1.93 1.92 23.6 0 1 169.95 189.37
  C 170.52 186.01 169.45 182.43 165.98 181.46
  C 164.26 180.97 162.67 181.94 161.16 182.74
  A 1.13 1.13 0.0 0 1 160.07 182.72
  C 153.14 178.73 155.77 171.94 161.18 168.46
  C 163.87 166.73 166.57 167.85 169.45 169.05
  Q 172.05 170.13 173.83 171.32
  C 180.02 175.43 185.21 180.10 190.87 185.64
  A 0.20 0.20 0.0 0 1 190.79 185.98
  Z"
/>
<path d="
  M 152.74 183.12
  L 155.88 186.47
  A 1.45 1.43 -62.9 0 1 156.26 187.69
  C 156.02 189.37 155.78 192.79 157.43 194.52
  C 160.39 197.62 162.93 196.58 165.99 194.43
  A 0.60 0.60 0.0 0 1 166.70 194.45
  L 173.64 199.80
  A 0.97 0.97 0.0 0 1 173.87 201.09
  C 172.01 204.03 169.36 206.75 166.68 209.18
  Q 165.73 210.04 163.36 208.39
  Q 154.55 202.28 148.83 195.17
  C 145.36 190.84 147.69 185.85 151.68 183.01
  A 0.82 0.80 50.4 0 1 152.74 183.12
  Z"
/>
<path d="
  M 164.95 186.20
  A 0.35 0.35 0.0 0 1 165.44 186.66
  Q 164.14 189.40 161.69 191.55
  A 0.66 0.65 -20.7 0 1 160.60 191.06
  L 160.60 190.05
  A 2.32 2.32 0.0 0 1 161.76 188.04
  L 164.95 186.20
  Z"
/>
<path d="
  M 190.10 191.70
  Q 189.97 192.91 189.19 194.20
  Q 186.18 199.21 182.75 204.75
  C 180.15 208.94 175.85 212.35 170.89 211.91
  A 0.58 0.57 -64.8 0 1 170.54 210.93
  L 189.88 191.59
  A 0.13 0.13 0.0 0 1 190.10 191.70
  Z"
/>
<path d="
  M 188.31 207.03
  A 0.59 0.59 0.0 0 1 188.14 206.26
  L 193.57 196.86
  A 0.56 0.56 0.0 0 1 194.33 196.65
  L 211.14 206.36
  A 0.67 0.66 32.1 0 1 211.36 207.31
  L 205.83 215.52
  A 1.14 1.12 27.4 0 1 204.48 215.94
  Q 196.04 212.63 188.31 207.03
  Z"
/>
<path d="
  M 16.58 276.56
  A 0.27 0.27 0.0 0 1 16.34 277.01
  Q 7.59 275.65 6.57 266.39
  C 5.78 259.16 8.61 251.61 11.72 244.98
  Q 18.75 229.97 29.99 217.26
  Q 34.21 212.48 39.51 208.55
  Q 44.38 204.93 49.92 206.70
  A 0.73 0.73 0.0 0 1 50.08 208.02
  Q 37.65 215.81 28.83 227.82
  C 20.40 239.28 3.57 262.56 16.58 276.56
  Z"
/>
<path d="
  M 208.03 219.80
  Q 214.14 214.50 216.67 207.46
  A 1.04 1.03 -70.1 0 1 218.01 206.83
  L 233.04 212.41
  A 1.73 1.72 -66.3 0 1 233.97 214.81
  Q 230.69 221.26 226.02 226.50
  A 1.42 1.41 31.0 0 1 224.47 226.88
  L 208.22 220.85
  A 0.62 0.62 0.0 0 1 208.03 219.80
  Z"
/>
<path d="
  M 68.93 215.45
  A 0.43 0.43 0.0 0 1 69.01 216.13
  Q 54.16 230.36 56.16 251.17
  A 1.67 1.66 59.0 0 1 55.90 252.22
  Q 55.08 253.44 53.29 253.69
  A 1.07 1.06 61.8 0 1 52.43 253.43
  L 43.76 245.43
  A 3.41 3.40 51.4 0 0 39.75 244.98
  L 39.08 245.37
  A 1.46 1.45 50.5 0 0 38.86 247.72
  Q 41.14 249.70 47.31 254.92
  Q 48.33 255.78 48.77 257.02
  A 0.89 0.88 -33.0 0 1 48.57 257.94
  L 44.99 261.52
  A 0.39 0.39 0.0 0 1 44.38 261.44
  Q 40.60 255.14 34.01 252.82
  Q 32.41 252.26 31.19 253.22
  A 1.71 1.66 -46.7 0 0 31.23 255.95
  C 35.58 258.84 38.46 260.18 40.69 264.24
  A 1.56 1.54 53.9 0 1 40.41 266.08
  Q 35.52 270.79 29.65 274.40
  C 27.05 276.00 23.76 277.58 21.11 275.16
  C 12.94 267.70 17.13 254.60 22.06 246.33
  C 29.72 233.48 36.99 223.06 48.70 214.19
  Q 51.98 211.71 54.74 210.45
  A 3.39 3.34 -59.5 0 1 55.87 210.15
  C 59.12 209.92 66.26 213.88 68.93 215.45
  Z"
/>
<path d="
  M 135.52 230.88
  C 141.78 235.80 148.18 239.53 155.57 241.81
  A 0.44 0.44 0.0 0 1 155.83 242.44
  Q 154.17 245.60 151.80 246.80
  A 1.95 1.92 39.2 0 1 150.40 246.94
  Q 140.20 244.05 130.91 236.75
  Q 121.61 229.45 116.40 220.22
  A 1.95 1.92 37.1 0 1 116.20 218.83
  Q 116.80 216.24 119.48 213.88
  A 0.44 0.44 0.0 0 1 120.15 213.99
  C 124.11 220.62 129.25 225.96 135.52 230.88
  Z"
/>
<path d="
  M 74.47 257.22
  L 64.86 254.72
  A 4.16 4.16 0.0 0 1 61.91 251.83
  C 58.62 240.24 63.76 228.00 72.31 219.56
  Q 74.18 217.71 75.12 217.33
  A 2.06 2.04 -51.5 0 1 76.45 217.17
  L 85.75 219.15
  A 0.68 0.68 0.0 0 1 86.09 220.30
  C 77.81 228.53 73.32 240.31 74.19 251.98
  C 74.30 253.40 75.00 255.37 75.07 256.73
  A 0.48 0.48 0.0 0 1 74.47 257.22
  Z"
/>
<path d="
  M 255.15 220.17
  A 0.32 0.32 0.0 0 1 255.38 220.71
  L 246.50 229.58
  A 1.97 1.97 0.0 0 1 244.60 230.10
  L 233.30 227.17
  A 0.57 0.57 0.0 0 1 232.95 226.33
  L 237.62 218.24
  A 0.74 0.73 -66.0 0 1 238.48 217.90
  Q 246.26 220.40 255.15 220.17
  Z"
/>
<path d="
  M 213.29 273.69
  A 0.75 0.75 0.0 0 1 213.94 274.84
  L 211.64 278.43
  A 3.57 3.57 0.0 0 1 208.72 280.06
  C 193.50 280.37 178.38 271.30 168.93 259.42
  A 2.24 2.24 0.0 0 1 168.66 257.05
  L 170.33 253.61
  A 0.86 0.86 0.0 0 1 171.75 253.41
  C 182.08 265.02 197.18 274.21 213.29 273.69
  Z"
/>
<path d="
  M 143.49 267.11
  A 0.58 0.57 8.5 0 1 144.11 267.94
  Q 141.91 272.18 142.09 279.26
  Q 142.40 291.99 150.39 301.78
  A 0.34 0.34 0.0 0 1 150.10 302.34
  L 139.48 301.54
  A 2.85 2.76 60.0 0 1 138.36 301.22
  Q 135.13 299.52 133.49 296.66
  Q 125.95 283.51 134.41 270.01
  A 3.75 3.73 10.8 0 1 136.88 268.34
  L 143.49 267.11
  Z"
/>
<path d="
  M 94.07 329.06
  A 0.25 0.25 0.0 0 1 93.83 329.47
  C 79.52 325.99 83.59 310.52 87.72 301.21
  Q 92.52 290.41 99.12 278.13
  Q 101.55 273.60 103.87 270.86
  A 1.15 1.14 -63.3 0 1 104.99 270.48
  L 107.50 271.02
  A 0.44 0.44 0.0 0 1 107.78 271.67
  Q 101.14 282.75 95.05 295.79
  C 90.41 305.72 85.30 319.76 94.07 329.06
  Z"
/>
<path d="
  M 127.54 270.80
  A 0.30 0.30 0.0 0 1 127.88 271.22
  C 123.28 280.41 123.64 294.76 131.30 302.04
  A 0.81 0.80 44.3 0 1 131.32 303.19
  L 129.03 305.48
  A 0.79 0.78 48.2 0 1 127.86 305.41
  Q 125.06 301.89 118.10 297.51
  A 2.78 2.77 -49.6 0 0 114.78 297.78
  L 114.76 297.80
  A 1.77 1.77 0.0 0 0 114.91 300.47
  L 123.24 306.89
  A 2.99 2.98 -52.4 0 1 123.78 311.08
  L 122.43 312.84
  A 1.41 1.41 0.0 0 1 120.05 312.61
  Q 118.63 309.78 113.66 306.69
  C 111.76 305.52 108.03 304.55 106.80 307.13
  A 1.38 1.38 0.0 0 0 107.46 308.97
  C 111.84 311.04 115.44 312.80 117.73 317.32
  A 0.88 0.87 -37.8 0 1 117.60 318.30
  Q 111.45 325.31 105.18 328.35
  Q 101.08 330.33 97.79 326.95
  C 92.09 321.08 93.21 315.29 95.25 307.70
  Q 96.31 303.76 98.05 299.95
  Q 104.53 285.83 112.56 273.03
  A 1.94 1.93 -71.4 0 1 114.36 272.13
  Q 120.57 272.65 127.54 270.80
  Z"
/>
</g>
<g fill="var(--art-astronaut-accent)">
<path d="
  M 257.70 76.52
  C 262.27 52.50 280.97 39.19 304.76 38.57
  Q 310.24 38.43 321.50 40.69
  Q 330.54 42.50 337.40 46.19
  C 352.29 54.21 364.20 68.05 363.73 85.25
  Q 363.43 96.14 357.40 108.16
  C 350.31 122.29 336.53 131.91 320.69 134.15
  C 302.13 136.77 276.12 127.74 265.14 111.87
  Q 254.02 95.81 257.70 76.52
  Z"
/>
</g>
<g fill="var(--art-astronaut-glare)">
<path d="
  M 354.56 70.61
  C 356.67 74.45 358.37 79.97 356.86 84.29
  C 355.73 87.54 351.62 88.09 350.00 84.76
  Q 346.58 77.77 345.41 75.64
  Q 344.24 73.50 340.16 66.88
  C 338.22 63.72 340.89 60.55 344.23 61.33
  C 348.69 62.37 352.44 66.76 354.56 70.61
  Z"
/>
</g>
</svg>
