<?xml version="1.0" encoding="UTF-8" standalone="no"?>
<!DOCTYPE svg PUBLIC "-//W3C//DTD SVG 1.1//EN" "http://www.w3.org/Graphics/SVG/1.1/DTD/svg11.dtd">
<svg xmlns="http://www.w3.org/2000/svg" version="1.1" viewBox="0.00 0.00 362.00 305.00">
<g stroke-width="2.00" fill="none" stroke-linecap="butt">
<path stroke="#1a6ca6" vector-effect="non-scaling-stroke" d="
  M 177.39 40.00
  Q 184.69 37.95 191.99 34.56
  C 208.98 26.69 230.65 28.29 248.01 36.07
  Q 254.94 39.18 262.45 45.03
  C 273.65 53.75 280.01 60.35 292.30 72.91
  Q 297.77 78.50 302.20 81.42
  Q 310.42 86.85 315.06 89.14
  Q 324.78 93.94 341.96 95.37
  Q 348.17 95.88 350.64 90.38
  C 357.25 75.62 347.15 57.21 336.75 46.69
  Q 320.59 30.35 299.40 21.84
  C 267.93 9.21 231.88 2.59 199.15 14.82
  Q 189.60 18.39 182.24 24.75
  C 178.53 27.96 174.94 34.23 176.20 39.31
  A 0.97 0.96 -14.7 0 0 177.39 40.00"
/>
<path stroke="#1a6ca6" vector-effect="non-scaling-stroke" d="
  M 229.11 48.34
  L 230.22 39.71
  A 1.09 1.09 0.0 0 0 229.28 38.50
  L 219.82 37.29
  A 1.18 1.17 0.8 0 0 218.50 38.57
  L 219.05 44.12
  A 2.91 2.90 8.9 0 0 220.78 46.49
  L 227.34 49.35
  A 1.27 1.27 0.0 0 0 229.11 48.34"
/>
<path stroke="#1a6ca6" vector-effect="non-scaling-stroke" d="
  M 211.56 38.38
  A 0.79 0.79 0.0 0 0 210.54 37.52
  L 198.94 41.05
  A 0.49 0.49 0.0 0 0 199.02 42.00
  L 210.12 43.42
  A 0.80 0.80 0.0 0 0 211.01 42.73
  L 211.56 38.38"
/>
<path stroke="#1a6ca6" vector-effect="non-scaling-stroke" d="
  M 238.65 40.65
  A 1.06 1.06 0.0 0 0 237.17 41.62
  L 237.17 54.12
  A 1.06 1.06 0.0 0 0 237.62 54.99
  L 243.53 59.10
  A 1.06 1.06 0.0 0 0 245.18 58.42
  L 247.54 45.41
  A 1.06 1.06 0.0 0 0 246.92 44.24
  L 238.65 40.65"
/>
<path stroke="#1a6ca6" vector-effect="non-scaling-stroke" d="
  M 281.63 75.76
  C 280.96 77.50 280.91 79.30 281.36 81.29
  C 282.49 86.31 282.69 92.17 280.73 96.83
  A 2.40 2.11 -63.2 0 1 277.53 98.11
  Q 277.07 97.82 276.70 96.05
  Q 275.12 88.62 274.46 82.65
  C 273.53 74.24 271.66 68.72 267.27 62.40
  Q 262.81 56.00 254.78 50.45
  A 0.52 0.51 21.9 0 0 253.98 50.79
  C 253.05 56.31 251.93 60.33 252.37 64.28
  A 1.33 1.30 -72.5 0 0 252.77 65.07
  Q 255.70 67.75 258.81 69.40
  A 0.58 0.32 61.4 0 1 258.95 69.49
  L 264.35 73.68
  A 3.16 3.13 -74.5 0 1 265.54 75.81
  Q 266.20 81.73 267.06 91.63
  Q 267.68 98.74 268.77 100.72
  C 273.19 108.78 281.62 112.97 287.71 119.49
  C 291.52 123.56 299.24 131.48 305.97 136.01
  C 312.03 140.09 317.67 141.52 324.00 137.44
  A 0.54 0.54 0.0 0 0 323.85 136.47
  Q 312.54 133.32 304.81 123.91
  Q 298.23 115.90 296.31 109.69
  Q 295.95 108.54 294.19 104.98
  Q 292.57 101.69 292.77 98.23
  C 293.01 94.11 292.54 91.10 296.07 89.40
  A 0.61 0.61 0.0 0 0 296.22 88.40
  L 282.25 75.62
  A 0.39 0.39 0.0 0 0 281.63 75.76"
/>
<path stroke="#1a6ca6" vector-effect="non-scaling-stroke" d="
  M 254.99 190.30
  A 0.31 0.30 -85.1 0 0 255.44 189.92
  Q 249.07 176.42 235.20 171.84
  Q 230.75 170.37 225.44 168.89
  A 8.39 8.10 65.5 0 1 223.84 168.26
  Q 216.99 164.74 214.71 163.02
  Q 207.79 157.79 203.07 154.68
  C 201.70 153.77 198.75 154.25 197.83 153.32
  C 193.10 148.53 204.62 143.29 208.07 141.31
  Q 211.06 139.59 214.61 135.81
  Q 219.69 130.41 221.94 127.76
  C 224.09 125.23 227.11 122.89 229.28 126.71
  Q 230.43 128.75 229.12 131.36
  A 0.75 0.74 35.8 0 0 229.26 132.22
  C 229.70 132.67 230.66 132.95 231.25 133.73
  C 234.53 138.06 238.77 139.49 243.66 141.58
  A 1.77 1.76 -63.4 0 1 244.48 144.09
  C 243.92 145.05 242.95 145.71 241.71 145.65
  Q 232.37 145.17 227.62 137.91
  C 226.81 136.67 226.88 135.41 227.61 134.17
  A 0.19 0.19 0.0 0 0 227.56 133.91
  L 227.33 133.75
  A 0.39 0.38 35.8 0 0 226.80 133.83
  Q 220.00 142.71 210.40 148.46
  A 1.63 1.63 0.0 0 0 210.39 151.25
  Q 214.31 153.65 219.63 156.54
  Q 225.51 159.75 231.95 158.47
  Q 234.32 158.01 240.00 154.83
  A 5.09 5.05 -84.2 0 0 241.41 153.67
  C 248.26 145.60 253.04 136.41 257.22 126.38
  C 257.66 125.31 258.78 123.55 259.41 122.79
  A 9.36 8.08 -12.6 0 1 260.28 121.88
  L 267.66 115.23
  A 1.48 1.48 0.0 0 0 267.78 113.15
  Q 261.32 105.80 258.85 96.23
  C 257.67 91.65 258.27 85.23 258.16 81.13
  Q 258.11 79.43 257.81 78.71
  A 0.89 0.89 0.0 0 0 256.12 78.88
  Q 254.07 89.42 248.82 97.28
  C 246.81 100.30 244.00 102.60 240.99 98.75
  A 1.40 1.39 33.6 0 1 240.74 97.53
  Q 241.66 93.91 242.31 92.78
  Q 247.51 83.74 249.50 75.38
  A 2.97 2.96 -66.0 0 0 248.31 72.27
  L 245.60 70.38
  A 1.38 1.37 -65.4 0 0 243.48 71.17
  Q 241.21 80.04 233.78 86.30
  C 232.51 87.37 231.42 87.75 229.40 88.55
  A 1.43 1.42 -20.1 0 0 228.57 90.32
  Q 229.96 94.57 229.46 98.84
  A 2.50 2.47 -28.4 0 1 229.19 99.73
  Q 227.84 102.38 225.10 101.38
  A 1.45 1.43 7.1 0 1 224.17 100.20
  C 223.14 91.41 219.50 81.67 214.62 74.71
  C 211.19 69.82 205.80 67.52 200.16 65.38
  A 0.60 0.60 0.0 0 0 199.41 66.22
  C 204.83 76.61 205.45 86.64 205.69 98.28
  A 2.20 2.20 0.0 0 1 203.43 100.53
  Q 198.62 100.39 198.99 95.25
  A 1.06 1.06 0.0 0 0 197.68 94.14
  C 185.23 97.09 172.95 100.91 161.19 107.26
  Q 150.36 113.11 145.91 115.92
  C 132.09 124.62 121.31 137.17 112.10 151.47
  C 107.14 159.17 103.63 167.60 99.79 175.82
  C 96.50 182.86 95.03 189.95 91.54 196.39
  Q 85.29 207.94 77.26 217.27
  C 67.82 228.24 52.49 233.65 38.23 230.28
  Q 23.91 226.90 13.91 216.36
  C 11.42 213.74 10.05 211.22 8.54 208.03
  A 0.38 0.38 0.0 0 0 7.81 208.23
  C 8.34 214.19 10.99 218.91 14.58 224.52
  C 22.91 237.51 36.25 244.68 51.78 245.51
  C 74.59 246.74 93.00 234.25 106.11 216.34
  Q 114.01 205.55 122.57 191.26
  A 3.20 3.20 0.0 0 0 122.77 188.36
  C 121.06 184.39 118.58 179.44 118.02 174.40
  A 4.10 4.09 -15.0 0 1 120.45 170.20
  L 120.61 170.13
  A 2.49 2.49 0.0 0 1 124.05 171.91
  Q 125.68 179.73 131.30 187.96
  Q 142.22 203.95 158.65 213.32
  Q 161.43 214.91 162.85 218.42
  A 1.55 1.55 0.0 0 1 161.22 220.54
  L 157.72 220.09
  A 4.11 4.08 26.9 0 0 154.41 221.16
  Q 150.72 224.61 147.55 229.22
  C 144.35 233.88 143.03 239.14 139.73 243.79
  Q 136.69 248.08 135.88 248.79
  C 130.66 253.37 126.24 256.59 124.60 259.46
  A 1.11 1.11 0.0 0 0 124.95 260.93
  Q 134.69 267.37 141.65 276.78
  C 143.76 279.62 146.27 284.58 148.75 287.37
  A 12.68 12.65 85.8 0 0 151.36 289.63
  Q 151.93 290.00 161.37 295.13
  Q 163.96 296.53 166.74 296.02
  A 1.23 1.23 0.0 0 0 167.34 293.90
  Q 163.90 290.84 159.58 288.47
  Q 157.74 287.46 158.07 286.28
  A 2.75 2.48 12.4 0 1 161.11 284.55
  C 168.10 285.73 172.23 290.36 177.28 294.99
  C 178.07 295.72 180.09 296.47 181.03 296.35
  A 1.34 1.33 77.4 0 0 182.13 294.61
  Q 181.19 291.73 178.94 289.87
  A 2.46 2.46 0.0 0 1 178.71 286.30
  Q 179.54 285.41 181.05 286.00
  C 184.54 287.35 186.90 291.35 188.53 294.82
  A 0.45 0.45 0.0 0 0 189.39 294.66
  C 190.15 285.30 172.62 279.83 166.13 277.12
  C 160.56 274.79 154.50 268.00 149.19 262.16
  C 142.93 255.29 146.89 251.20 152.67 246.41
  Q 161.35 239.22 174.36 231.36
  C 180.32 227.76 185.15 221.53 182.72 214.24
  C 177.99 200.08 169.12 187.12 160.25 174.50
  Q 158.71 172.31 156.46 171.78
  C 150.61 170.40 144.44 169.79 143.62 166.63
  C 142.79 163.48 146.56 162.02 148.99 162.55
  Q 160.10 164.93 164.74 165.23
  C 168.53 165.47 170.04 163.59 170.24 159.78
  C 170.44 155.93 171.93 147.78 169.38 146.08
  Q 160.31 140.03 158.04 129.25
  C 157.38 126.12 157.71 121.30 161.96 121.83
  A 2.57 2.42 89.7 0 1 164.09 124.06
  Q 165.03 131.68 171.25 137.64
  Q 174.14 140.42 175.60 140.68
  A 0.71 0.70 -67.2 0 0 176.30 140.39
  L 179.18 136.26
  A 1.14 1.12 48.7 0 0 179.25 135.09
  Q 178.39 133.45 177.44 131.85
  Q 175.09 127.91 173.95 121.01
  C 173.57 118.71 173.79 114.62 176.60 113.80
  A 2.64 2.51 63.8 0 1 179.42 114.84
  C 180.92 117.00 181.17 119.72 182.13 122.09
  Q 183.11 124.55 184.09 126.93
  Q 184.87 128.84 185.68 129.32
  A 1.75 1.74 -51.3 0 0 187.77 129.08
  L 197.37 119.92
  A 6.38 6.21 -11.1 0 0 198.85 117.78
  C 199.79 115.81 200.13 113.59 203.09 112.63
  A 1.51 1.49 51.6 0 1 204.31 112.78
  C 209.55 115.99 206.79 122.04 203.17 125.23
  Q 189.71 137.12 182.62 143.84
  Q 177.51 148.68 178.37 155.48
  C 179.06 160.91 194.69 167.84 199.51 170.00
  Q 203.90 171.96 210.94 172.97
  C 213.13 173.28 214.49 173.92 215.42 175.79
  C 217.35 179.65 219.76 182.54 224.06 184.48
  C 228.32 186.42 233.56 189.93 236.17 193.82
  Q 238.86 197.83 239.25 198.30
  A 0.22 0.22 0.0 0 0 239.63 198.13
  Q 239.05 192.94 237.94 190.81
  Q 236.13 187.36 235.47 184.70
  A 2.48 2.43 -18.4 0 1 236.93 181.86
  C 240.77 180.25 243.85 182.45 247.57 185.08
  Q 249.02 186.09 254.99 190.30"
/>
<path stroke="#1a6ca6" vector-effect="non-scaling-stroke" d="
  M 157.11 68.43
  A 0.79 0.79 0.0 0 0 156.14 69.58
  Q 160.69 77.00 162.66 82.31
  Q 164.94 88.42 165.11 94.99
  A 0.75 0.75 0.0 0 0 166.12 95.67
  L 180.66 90.10
  A 0.74 0.74 0.0 0 0 180.95 88.93
  Q 173.45 80.31 165.12 73.40
  Q 161.07 70.04 157.11 68.43"
/>
<path stroke="#80add3" vector-effect="non-scaling-stroke" d="
  M 314.52 98.57
  L 315.79 104.72
  A 1.19 1.19 0.0 0 0 317.93 105.17
  L 321.04 100.71
  A 0.24 0.23 29.7 0 0 320.94 100.36
  L 315.33 97.92
  A 0.59 0.58 6.1 0 0 314.52 98.57"
/>
<path stroke="#80add3" vector-effect="non-scaling-stroke" d="
  M 332.83 102.64
  Q 330.36 102.52 329.00 101.89
  A 0.56 0.56 0.0 0 0 328.20 102.40
  L 328.20 108.22
  A 0.73 0.73 0.0 0 0 329.53 108.63
  L 333.19 103.38
  A 0.47 0.47 0.0 0 0 332.83 102.64"
/>
<path stroke="#1a6ca6" vector-effect="non-scaling-stroke" d="
  M 302.0678 102.5519
  A 1.48 0.61 -132.1 0 0 302.6074 104.0590
  A 1.48 0.61 -132.1 0 0 304.0522 104.7481
  A 1.48 0.61 -132.1 0 0 303.5126 103.2410
  A 1.48 0.61 -132.1 0 0 302.0678 102.5519"
/>
<path stroke="#80add3" vector-effect="non-scaling-stroke" d="
  M 345.15 103.88
  Q 342.94 104.38 340.15 103.74
  A 0.32 0.32 0.0 0 0 339.76 104.09
  L 340.51 111.69
  A 0.53 0.53 0.0 0 0 341.44 111.99
  Q 343.69 109.43 345.66 104.48
  A 0.45 0.44 4.9 0 0 345.15 103.88"
/>
<path stroke="#1a6ca6" vector-effect="non-scaling-stroke" d="
  M 133.83 104.01
  A 0.44 0.44 0.0 0 0 133.39 104.71
  L 137.97 110.79
  A 0.64 0.63 52.3 0 0 138.86 110.91
  L 142.11 108.47
  A 0.68 0.68 0.0 0 0 142.08 107.36
  Q 138.57 105.04 133.83 104.01"
/>
<path stroke="#80add3" vector-effect="non-scaling-stroke" d="
  M 318.66 125.28
  L 318.24 121.07
  A 0.51 0.51 0.0 0 0 317.42 120.71
  L 314.89 122.61
  A 0.66 0.66 0.0 0 0 314.86 123.65
  Q 316.59 125.11 318.05 125.73
  A 0.44 0.44 0.0 0 0 318.66 125.28"
/>
<path stroke="#1a6ca6" vector-effect="non-scaling-stroke" d="
  M 255.60 148.83
  Q 257.48 147.42 263.17 142.28
  C 265.12 140.53 265.80 138.59 266.16 136.42
  A 0.53 0.53 0.0 0 0 265.38 135.87
  L 264.24 136.53
  A 0.42 0.42 0.0 0 1 263.63 136.07
  Q 263.86 135.11 265.24 134.08
  A 0.80 0.80 0.0 0 1 266.03 133.99
  Q 267.44 134.61 268.25 132.95
  Q 270.06 129.25 270.10 124.69
  A 0.36 0.35 -27.8 0 0 269.45 124.49
  Q 267.29 127.74 261.40 134.54
  Q 256.09 140.66 255.29 148.66
  A 0.19 0.19 0.0 0 0 255.60 148.83"
/>
<path stroke="#80add3" vector-effect="non-scaling-stroke" d="
  M 325.08 129.81
  L 327.31 130.56
  A 0.28 0.28 0.0 0 0 327.67 130.39
  L 327.72 130.22
  A 4.32 1.44 -71.3 0 0 327.75 125.66
  L 327.71 125.65
  A 4.32 1.44 -71.3 0 0 324.96 129.28
  L 324.90 129.45
  A 0.28 0.28 0.0 0 0 325.08 129.81"
/>
<path stroke="#1a6ca6" vector-effect="non-scaling-stroke" d="
  M 328.87 181.76
  A 0.31 0.31 0.0 0 0 329.21 181.26
  Q 324.95 176.88 318.73 174.09
  C 315.35 172.57 314.99 168.77 318.55 167.02
  Q 324.95 163.86 332.65 165.17
  A 0.62 0.61 -76.6 0 0 333.34 164.74
  L 333.34 164.73
  A 0.55 0.53 -73.5 0 0 332.98 164.05
  C 322.18 160.77 313.21 163.84 302.76 166.99
  Q 301.73 167.30 296.52 167.38
  A 2.10 2.08 -23.6 0 1 295.07 166.82
  L 293.75 165.62
  A 0.99 0.99 0.0 0 0 293.21 165.37
  Q 287.15 164.65 283.07 163.66
  C 276.55 162.08 271.36 157.20 268.00 151.30
  A 0.64 0.63 -33.0 0 0 267.07 151.11
  L 261.67 155.18
  A 3.60 3.57 68.5 0 0 260.27 158.43
  Q 260.95 164.74 266.49 167.50
  C 273.10 170.79 281.59 172.04 289.59 173.37
  A 4.95 4.90 -26.2 0 1 291.14 173.89
  C 293.94 175.37 295.62 177.52 297.40 179.01
  A 8.58 8.32 -10.7 0 0 298.96 180.04
  Q 307.56 184.35 313.91 191.61
  A 0.39 0.39 0.0 0 0 314.57 191.21
  Q 313.38 188.12 311.14 184.32
  C 309.77 181.99 309.50 179.31 311.53 177.67
  C 314.87 174.97 326.18 180.67 328.87 181.76"
/>
<path stroke="#1a6ca6" vector-effect="non-scaling-stroke" d="
  M 219.53 281.71
  Q 216.28 279.92 211.56 277.38
  C 208.57 275.78 203.82 272.49 204.06 269.43
  A 1.22 1.21 -76.7 0 1 205.72 268.40
  Q 209.24 269.79 212.78 272.99
  C 215.53 275.47 222.10 277.56 225.50 279.61
  Q 227.84 281.02 231.06 283.36
  A 0.53 0.53 0.0 0 0 231.85 282.69
  Q 229.65 278.25 228.21 275.89
  Q 227.19 274.21 228.24 272.78
  A 0.76 0.76 0.0 0 0 227.87 271.61
  C 219.43 268.76 209.75 265.42 203.03 259.50
  Q 196.67 253.89 192.63 249.55
  Q 190.06 246.80 188.60 244.34
  A 1.77 1.75 -57.0 0 1 188.37 243.24
  Q 188.56 241.59 189.64 240.13
  C 194.33 233.83 200.49 228.29 206.89 222.78
  Q 211.65 218.68 213.31 215.87
  C 218.53 207.03 211.75 197.53 205.78 189.98
  Q 202.73 186.14 196.85 178.97
  C 194.70 176.35 191.56 173.95 188.99 172.79
  Q 182.55 169.91 178.00 167.01
  A 1.70 1.69 30.7 0 0 175.61 167.61
  Q 173.47 171.43 169.16 172.08
  A 1.09 1.08 65.9 0 0 168.49 173.85
  Q 171.85 177.90 173.49 180.59
  Q 179.81 190.98 187.73 204.75
  Q 188.57 206.21 191.46 206.73
  A 0.93 0.92 86.9 0 1 192.19 207.39
  Q 192.57 208.73 190.59 210.42
  A 1.71 1.69 60.3 0 0 190.09 212.27
  Q 192.71 219.82 188.70 228.69
  A 3.20 3.11 83.3 0 1 187.81 229.85
  C 182.73 233.98 176.76 239.50 170.11 243.01
  A 1.22 1.21 -23.6 0 0 169.53 244.49
  Q 171.09 248.92 174.57 253.07
  C 177.32 256.35 182.12 257.98 186.02 260.72
  C 191.16 264.32 193.29 268.01 197.16 273.91
  A 8.41 8.37 87.6 0 0 200.07 276.60
  C 205.53 279.63 213.30 283.02 219.42 282.26
  A 0.30 0.29 -33.9 0 0 219.53 281.71"
/>
<path stroke="#1a6ca6" vector-effect="non-scaling-stroke" d="
  M 251.06 103.69
  L 250.81 109.23
  A 1.56 1.49 63.1 0 1 250.60 109.93
  L 248.06 114.22
  A 2.18 2.17 32.9 0 0 248.68 117.11
  L 251.33 118.96
  A 1.94 1.94 0.0 0 0 254.19 118.19
  Q 257.05 112.00 255.86 106.11
  Q 255.47 104.16 254.59 103.57
  Q 252.82 102.37 251.61 102.89
  A 0.93 0.93 0.0 0 0 251.06 103.69"
/>
<path stroke="#1a6ca6" vector-effect="non-scaling-stroke" d="
  M 249.88 129.09
  C 243.28 126.97 240.55 120.74 238.34 114.46
  Q 237.76 112.82 235.93 111.87
  Q 234.99 111.39 232.95 112.74
  A 1.41 1.41 0.0 0 0 232.34 113.71
  C 231.59 119.02 233.23 122.43 235.98 127.11
  C 238.60 131.57 241.83 133.26 246.99 133.51
  Q 250.61 133.68 250.61 130.08
  A 1.04 1.04 0.0 0 0 249.88 129.09"
/>
<path stroke="#1a6ca6" vector-effect="non-scaling-stroke" d="
  M 167.09 148.76
  C 160.15 146.23 154.88 143.04 150.88 136.61
  Q 150.36 135.77 148.99 130.40
  A 1.80 1.72 14.8 0 0 148.44 129.50
  Q 146.90 128.16 144.72 128.89
  A 1.24 1.21 89.3 0 0 143.93 129.72
  C 141.63 137.90 147.76 144.50 154.03 149.11
  C 157.21 151.45 165.99 157.22 167.83 150.18
  A 1.20 1.19 -72.8 0 0 167.09 148.76"
/>
<path stroke="#1a6ca6" vector-effect="non-scaling-stroke" d="
  M 131.38 136.73
  Q 130.96 137.23 130.93 138.19
  Q 130.83 142.30 132.63 146.10
  Q 137.17 155.70 147.51 154.98
  C 148.55 154.91 149.88 154.47 150.45 153.48
  A 1.87 1.67 28.3 0 0 149.58 151.07
  Q 148.28 150.39 146.38 150.12
  C 143.53 149.71 141.80 148.31 140.27 146.23
  Q 139.09 144.62 134.11 137.00
  A 1.76 1.65 48.8 0 0 131.38 136.73"
/>
<path stroke="#1a6ca6" vector-effect="non-scaling-stroke" d="
  M 218.70 144.75
  A 2.01 2.00 -48.1 0 0 218.83 147.22
  C 224.03 153.17 229.91 157.29 238.06 154.36
  C 240.88 153.34 240.93 149.55 236.92 149.89
  Q 230.55 150.43 225.80 146.73
  C 224.11 145.41 223.34 143.51 222.17 142.40
  A 1.30 1.30 0.0 0 0 220.20 142.60
  L 218.70 144.75"
/>
</g>
<g fill="#327ca5">
<path d="
  M 177.39 40.00
  A 0.97 0.96 -14.7 0 1 176.20 39.31
  C 174.94 34.23 178.53 27.96 182.24 24.75
  Q 189.60 18.39 199.15 14.82
  C 231.88 2.59 267.93 9.21 299.40 21.84
  Q 320.59 30.35 336.75 46.69
  C 347.15 57.21 357.25 75.62 350.64 90.38
  Q 348.17 95.88 341.96 95.37
  Q 324.78 93.94 315.06 89.14
  Q 310.42 86.85 302.20 81.42
  Q 297.77 78.50 292.30 72.91
  C 280.01 60.35 273.65 53.75 262.45 45.03
  Q 254.94 39.18 248.01 36.07
  C 230.65 28.29 208.98 26.69 191.99 34.56
  Q 184.69 37.95 177.39 40.00
  Z"
/>
<path d="
  M 229.11 48.34
  A 1.27 1.27 0.0 0 1 227.34 49.35
  L 220.78 46.49
  A 2.91 2.90 8.9 0 1 219.05 44.12
  L 218.50 38.57
  A 1.18 1.17 0.8 0 1 219.82 37.29
  L 229.28 38.50
  A 1.09 1.09 0.0 0 1 230.22 39.71
  L 229.11 48.34
  Z"
/>
<path d="
  M 211.56 38.38
  L 211.01 42.73
  A 0.80 0.80 0.0 0 1 210.12 43.42
  L 199.02 42.00
  A 0.49 0.49 0.0 0 1 198.94 41.05
  L 210.54 37.52
  A 0.79 0.79 0.0 0 1 211.56 38.38
  Z"
/>
<path d="
  M 238.65 40.65
  L 246.92 44.24
  A 1.06 1.06 0.0 0 1 247.54 45.41
  L 245.18 58.42
  A 1.06 1.06 0.0 0 1 243.53 59.10
  L 237.62 54.99
  A 1.06 1.06 0.0 0 1 237.17 54.12
  L 237.17 41.62
  A 1.06 1.06 0.0 0 1 238.65 40.65
  Z"
/>
<path d="
  M 281.63 75.76
  A 0.39 0.39 0.0 0 1 282.25 75.62
  L 296.22 88.40
  A 0.61 0.61 0.0 0 1 296.07 89.40
  C 292.54 91.10 293.01 94.11 292.77 98.23
  Q 292.57 101.69 294.19 104.98
  Q 295.95 108.54 296.31 109.69
  Q 298.23 115.90 304.81 123.91
  Q 312.54 133.32 323.85 136.47
  A 0.54 0.54 0.0 0 1 324.00 137.44
  C 317.67 141.52 312.03 140.09 305.97 136.01
  C 299.24 131.48 291.52 123.56 287.71 119.49
  C 281.62 112.97 273.19 108.78 268.77 100.72
  Q 267.68 98.74 267.06 91.63
  Q 266.20 81.73 265.54 75.81
  A 3.16 3.13 -74.5 0 0 264.35 73.68
  L 258.95 69.49
  A 0.58 0.32 61.4 0 0 258.81 69.40
  Q 255.70 67.75 252.77 65.07
  A 1.33 1.30 -72.5 0 1 252.37 64.28
  C 251.93 60.33 253.05 56.31 253.98 50.79
  A 0.52 0.51 21.9 0 1 254.78 50.45
  Q 262.81 56.00 267.27 62.40
  C 271.66 68.72 273.53 74.24 274.46 82.65
  Q 275.12 88.62 276.70 96.05
  Q 277.07 97.82 277.53 98.11
  A 2.40 2.11 -63.2 0 0 280.73 96.83
  C 282.69 92.17 282.49 86.31 281.36 81.29
  C 280.91 79.30 280.96 77.50 281.63 75.76
  Z"
/>
<path d="
  M 254.99 190.30
  Q 249.02 186.09 247.57 185.08
  C 243.85 182.45 240.77 180.25 236.93 181.86
  A 2.48 2.43 -18.4 0 0 235.47 184.70
  Q 236.13 187.36 237.94 190.81
  Q 239.05 192.94 239.63 198.13
  A 0.22 0.22 0.0 0 1 239.25 198.30
  Q 238.86 197.83 236.17 193.82
  C 233.56 189.93 228.32 186.42 224.06 184.48
  C 219.76 182.54 217.35 179.65 215.42 175.79
  C 214.49 173.92 213.13 173.28 210.94 172.97
  Q 203.90 171.96 199.51 170.00
  C 194.69 167.84 179.06 160.91 178.37 155.48
  Q 177.51 148.68 182.62 143.84
  Q 189.71 137.12 203.17 125.23
  C 206.79 122.04 209.55 115.99 204.31 112.78
  A 1.51 1.49 51.6 0 0 203.09 112.63
  C 200.13 113.59 199.79 115.81 198.85 117.78
  A 6.38 6.21 -11.1 0 1 197.37 119.92
  L 187.77 129.08
  A 1.75 1.74 -51.3 0 1 185.68 129.32
  Q 184.87 128.84 184.09 126.93
  Q 183.11 124.55 182.13 122.09
  C 181.17 119.72 180.92 117.00 179.42 114.84
  A 2.64 2.51 63.8 0 0 176.60 113.80
  C 173.79 114.62 173.57 118.71 173.95 121.01
  Q 175.09 127.91 177.44 131.85
  Q 178.39 133.45 179.25 135.09
  A 1.14 1.12 48.7 0 1 179.18 136.26
  L 176.30 140.39
  A 0.71 0.70 -67.2 0 1 175.60 140.68
  Q 174.14 140.42 171.25 137.64
  Q 165.03 131.68 164.09 124.06
  A 2.57 2.42 89.7 0 0 161.96 121.83
  C 157.71 121.30 157.38 126.12 158.04 129.25
  Q 160.31 140.03 169.38 146.08
  C 171.93 147.78 170.44 155.93 170.24 159.78
  C 170.04 163.59 168.53 165.47 164.74 165.23
  Q 160.10 164.93 148.99 162.55
  C 146.56 162.02 142.79 163.48 143.62 166.63
  C 144.44 169.79 150.61 170.40 156.46 171.78
  Q 158.71 172.31 160.25 174.50
  C 169.12 187.12 177.99 200.08 182.72 214.24
  C 185.15 221.53 180.32 227.76 174.36 231.36
  Q 161.35 239.22 152.67 246.41
  C 146.89 251.20 142.93 255.29 149.19 262.16
  C 154.50 268.00 160.56 274.79 166.13 277.12
  C 172.62 279.83 190.15 285.30 189.39 294.66
  A 0.45 0.45 0.0 0 1 188.53 294.82
  C 186.90 291.35 184.54 287.35 181.05 286.00
  Q 179.54 285.41 178.71 286.30
  A 2.46 2.46 0.0 0 0 178.94 289.87
  Q 181.19 291.73 182.13 294.61
  A 1.34 1.33 77.4 0 1 181.03 296.35
  C 180.09 296.47 178.07 295.72 177.28 294.99
  C 172.23 290.36 168.10 285.73 161.11 284.55
  A 2.75 2.48 12.4 0 0 158.07 286.28
  Q 157.74 287.46 159.58 288.47
  Q 163.90 290.84 167.34 293.90
  A 1.23 1.23 0.0 0 1 166.74 296.02
  Q 163.96 296.53 161.37 295.13
  Q 151.93 290.00 151.36 289.63
  A 12.68 12.65 85.8 0 1 148.75 287.37
  C 146.27 284.58 143.76 279.62 141.65 276.78
  Q 134.69 267.37 124.95 260.93
  A 1.11 1.11 0.0 0 1 124.60 259.46
  C 126.24 256.59 130.66 253.37 135.88 248.79
  Q 136.69 248.08 139.73 243.79
  C 143.03 239.14 144.35 233.88 147.55 229.22
  Q 150.72 224.61 154.41 221.16
  A 4.11 4.08 26.9 0 1 157.72 220.09
  L 161.22 220.54
  A 1.55 1.55 0.0 0 0 162.85 218.42
  Q 161.43 214.91 158.65 213.32
  Q 142.22 203.95 131.30 187.96
  Q 125.68 179.73 124.05 171.91
  A 2.49 2.49 0.0 0 0 120.61 170.13
  L 120.45 170.20
  A 4.10 4.09 -15.0 0 0 118.02 174.40
  C 118.58 179.44 121.06 184.39 122.77 188.36
  A 3.20 3.20 0.0 0 1 122.57 191.26
  Q 114.01 205.55 106.11 216.34
  C 93.00 234.25 74.59 246.74 51.78 245.51
  C 36.25 244.68 22.91 237.51 14.58 224.52
  C 10.99 218.91 8.34 214.19 7.81 208.23
  A 0.38 0.38 0.0 0 1 8.54 208.03
  C 10.05 211.22 11.42 213.74 13.91 216.36
  Q 23.91 226.90 38.23 230.28
  C 52.49 233.65 67.82 228.24 77.26 217.27
  Q 85.29 207.94 91.54 196.39
  C 95.03 189.95 96.50 182.86 99.79 175.82
  C 103.63 167.60 107.14 159.17 112.10 151.47
  C 121.31 137.17 132.09 124.62 145.91 115.92
  Q 150.36 113.11 161.19 107.26
  C 172.95 100.91 185.23 97.09 197.68 94.14
  A 1.06 1.06 0.0 0 1 198.99 95.25
  Q 198.62 100.39 203.43 100.53
  A 2.20 2.20 0.0 0 0 205.69 98.28
  C 205.45 86.64 204.83 76.61 199.41 66.22
  A 0.60 0.60 0.0 0 1 200.16 65.38
  C 205.80 67.52 211.19 69.82 214.62 74.71
  C 219.50 81.67 223.14 91.41 224.17 100.20
  A 1.45 1.43 7.1 0 0 225.10 101.38
  Q 227.84 102.38 229.19 99.73
  A 2.50 2.47 -28.4 0 0 229.46 98.84
  Q 229.96 94.57 228.57 90.32
  A 1.43 1.42 -20.1 0 1 229.40 88.55
  C 231.42 87.75 232.51 87.37 233.78 86.30
  Q 241.21 80.04 243.48 71.17
  A 1.38 1.37 -65.4 0 1 245.60 70.38
  L 248.31 72.27
  A 2.97 2.96 -66.0 0 1 249.50 75.38
  Q 247.51 83.74 242.31 92.78
  Q 241.66 93.91 240.74 97.53
  A 1.40 1.39 33.6 0 0 240.99 98.75
  C 244.00 102.60 246.81 100.30 248.82 97.28
  Q 254.07 89.42 256.12 78.88
  A 0.89 0.89 0.0 0 1 257.81 78.71
  Q 258.11 79.43 258.16 81.13
  C 258.27 85.23 257.67 91.65 258.85 96.23
  Q 261.32 105.80 267.78 113.15
  A 1.48 1.48 0.0 0 1 267.66 115.23
  L 260.28 121.88
  A 9.36 8.08 -12.6 0 0 259.41 122.79
  C 258.78 123.55 257.66 125.31 257.22 126.38
  C 253.04 136.41 248.26 145.60 241.41 153.67
  A 5.09 5.05 -84.2 0 1 240.00 154.83
  Q 234.32 158.01 231.95 158.47
  Q 225.51 159.75 219.63 156.54
  Q 214.31 153.65 210.39 151.25
  A 1.63 1.63 0.0 0 1 210.40 148.46
  Q 220.00 142.71 226.80 133.83
  A 0.39 0.38 35.8 0 1 227.33 133.75
  L 227.56 133.91
  A 0.19 0.19 0.0 0 1 227.61 134.17
  C 226.88 135.41 226.81 136.67 227.62 137.91
  Q 232.37 145.17 241.71 145.65
  C 242.95 145.71 243.92 145.05 244.48 144.09
  A 1.77 1.76 -63.4 0 0 243.66 141.58
  C 238.77 139.49 234.53 138.06 231.25 133.73
  C 230.66 132.95 229.70 132.67 229.26 132.22
  A 0.75 0.74 35.8 0 1 229.12 131.36
  Q 230.43 128.75 229.28 126.71
  C 227.11 122.89 224.09 125.23 221.94 127.76
  Q 219.69 130.41 214.61 135.81
  Q 211.06 139.59 208.07 141.31
  C 204.62 143.29 193.10 148.53 197.83 153.32
  C 198.75 154.25 201.70 153.77 203.07 154.68
  Q 207.79 157.79 214.71 163.02
  Q 216.99 164.74 223.84 168.26
  A 8.39 8.10 65.5 0 0 225.44 168.89
  Q 230.75 170.37 235.20 171.84
  Q 249.07 176.42 255.44 189.92
  A 0.31 0.30 -85.1 0 1 254.99 190.30
  Z
  M 251.06 103.69
  L 250.81 109.23
  A 1.56 1.49 63.1 0 1 250.60 109.93
  L 248.06 114.22
  A 2.18 2.17 32.9 0 0 248.68 117.11
  L 251.33 118.96
  A 1.94 1.94 0.0 0 0 254.19 118.19
  Q 257.05 112.00 255.86 106.11
  Q 255.47 104.16 254.59 103.57
  Q 252.82 102.37 251.61 102.89
  A 0.93 0.93 0.0 0 0 251.06 103.69
  Z
  M 249.88 129.09
  C 243.28 126.97 240.55 120.74 238.34 114.46
  Q 237.76 112.82 235.93 111.87
  Q 234.99 111.39 232.95 112.74
  A 1.41 1.41 0.0 0 0 232.34 113.71
  C 231.59 119.02 233.23 122.43 235.98 127.11
  C 238.60 131.57 241.83 133.26 246.99 133.51
  Q 250.61 133.68 250.61 130.08
  A 1.04 1.04 0.0 0 0 249.88 129.09
  Z
  M 167.09 148.76
  C 160.15 146.23 154.88 143.04 150.88 136.61
  Q 150.36 135.77 148.99 130.40
  A 1.80 1.72 14.8 0 0 148.44 129.50
  Q 146.90 128.16 144.72 128.89
  A 1.24 1.21 89.3 0 0 143.93 129.72
  C 141.63 137.90 147.76 144.50 154.03 149.11
  C 157.21 151.45 165.99 157.22 167.83 150.18
  A 1.20 1.19 -72.8 0 0 167.09 148.76
  Z
  M 131.38 136.73
  Q 130.96 137.23 130.93 138.19
  Q 130.83 142.30 132.63 146.10
  Q 137.17 155.70 147.51 154.98
  C 148.55 154.91 149.88 154.47 150.45 153.48
  A 1.87 1.67 28.3 0 0 149.58 151.07
  Q 148.28 150.39 146.38 150.12
  C 143.53 149.71 141.80 148.31 140.27 146.23
  Q 139.09 144.62 134.11 137.00
  A 1.76 1.65 48.8 0 0 131.38 136.73
  Z
  M 218.70 144.75
  A 2.01 2.00 -48.1 0 0 218.83 147.22
  C 224.03 153.17 229.91 157.29 238.06 154.36
  C 240.88 153.34 240.93 149.55 236.92 149.89
  Q 230.55 150.43 225.80 146.73
  C 224.11 145.41 223.34 143.51 222.17 142.40
  A 1.30 1.30 0.0 0 0 220.20 142.60
  L 218.70 144.75
  Z"
/>
<path d="
  M 157.11 68.43
  Q 161.07 70.04 165.12 73.40
  Q 173.45 80.31 180.95 88.93
  A 0.74 0.74 0.0 0 1 180.66 90.10
  L 166.12 95.67
  A 0.75 0.75 0.0 0 1 165.11 94.99
  Q 164.94 88.42 162.66 82.31
  Q 160.69 77.00 156.14 69.58
  A 0.79 0.79 0.0 0 1 157.11 68.43
  Z"
/>
<ellipse cx="0.00" cy="0.00" transform="translate(303.06,103.65) rotate(-132.1)" rx="1.48" ry="0.61"/>
<path d="
  M 133.83 104.01
  Q 138.57 105.04 142.08 107.36
  A 0.68 0.68 0.0 0 1 142.11 108.47
  L 138.86 110.91
  A 0.64 0.63 52.3 0 1 137.97 110.79
  L 133.39 104.71
  A 0.44 0.44 0.0 0 1 133.83 104.01
  Z"
/>
<path d="
  M 255.60 148.83
  A 0.19 0.19 0.0 0 1 255.29 148.66
  Q 256.09 140.66 261.40 134.54
  Q 267.29 127.74 269.45 124.49
  A 0.36 0.35 -27.8 0 1 270.10 124.69
  Q 270.06 129.25 268.25 132.95
  Q 267.44 134.61 266.03 133.99
  A 0.80 0.80 0.0 0 0 265.24 134.08
  Q 263.86 135.11 263.63 136.07
  A 0.42 0.42 0.0 0 0 264.24 136.53
  L 265.38 135.87
  A 0.53 0.53 0.0 0 1 266.16 136.42
  C 265.80 138.59 265.12 140.53 263.17 142.28
  Q 257.48 147.42 255.60 148.83
  Z"
/>
<path d="
  M 328.87 181.76
  C 326.18 180.67 314.87 174.97 311.53 177.67
  C 309.50 179.31 309.77 181.99 311.14 184.32
  Q 313.38 188.12 314.57 191.21
  A 0.39 0.39 0.0 0 1 313.91 191.61
  Q 307.56 184.35 298.96 180.04
  A 8.58 8.32 -10.7 0 1 297.40 179.01
  C 295.62 177.52 293.94 175.37 291.14 173.89
  A 4.95 4.90 -26.2 0 0 289.59 173.37
  C 281.59 172.04 273.10 170.79 266.49 167.50
  Q 260.95 164.74 260.27 158.43
  A 3.60 3.57 68.5 0 1 261.67 155.18
  L 267.07 151.11
  A 0.64 0.63 -33.0 0 1 268.00 151.30
  C 271.36 157.20 276.55 162.08 283.07 163.66
  Q 287.15 164.65 293.21 165.37
  A 0.99 0.99 0.0 0 1 293.75 165.62
  L 295.07 166.82
  A 2.10 2.08 -23.6 0 0 296.52 167.38
  Q 301.73 167.30 302.76 166.99
  C 313.21 163.84 322.18 160.77 332.98 164.05
  A 0.55 0.53 -73.5 0 1 333.34 164.73
  L 333.34 164.74
  A 0.62 0.61 -76.6 0 1 332.65 165.17
  Q 324.95 163.86 318.55 167.02
  C 314.99 168.77 315.35 172.57 318.73 174.09
  Q 324.95 176.88 329.21 181.26
  A 0.31 0.31 0.0 0 1 328.87 181.76
  Z"
/>
<path d="
  M 219.53 281.71
  A 0.30 0.29 -33.9 0 1 219.42 282.26
  C 213.30 283.02 205.53 279.63 200.07 276.60
  A 8.41 8.37 87.6 0 1 197.16 273.91
  C 193.29 268.01 191.16 264.32 186.02 260.72
  C 182.12 257.98 177.32 256.35 174.57 253.07
  Q 171.09 248.92 169.53 244.49
  A 1.22 1.21 -23.6 0 1 170.11 243.01
  C 176.76 239.50 182.73 233.98 187.81 229.85
  A 3.20 3.11 83.3 0 0 188.70 228.69
  Q 192.71 219.82 190.09 212.27
  A 1.71 1.69 60.3 0 1 190.59 210.42
  Q 192.57 208.73 192.19 207.39
  A 0.93 0.92 86.9 0 0 191.46 206.73
  Q 188.57 206.21 187.73 204.75
  Q 179.81 190.98 173.49 180.59
  Q 171.85 177.90 168.49 173.85
  A 1.09 1.08 65.9 0 1 169.16 172.08
  Q 173.47 171.43 175.61 167.61
  A 1.70 1.69 30.7 0 1 178.00 167.01
  Q 182.55 169.91 188.99 172.79
  C 191.56 173.95 194.70 176.35 196.85 178.97
  Q 202.73 186.14 205.78 189.98
  C 211.75 197.53 218.53 207.03 213.31 215.87
  Q 211.65 218.68 206.89 222.78
  C 200.49 228.29 194.33 233.83 189.64 240.13
  Q 188.56 241.59 188.37 243.24
  A 1.77 1.75 -57.0 0 0 188.60 244.34
  Q 190.06 246.80 192.63 249.55
  Q 196.67 253.89 203.03 259.50
  C 209.75 265.42 219.43 268.76 227.87 271.61
  A 0.76 0.76 0.0 0 1 228.24 272.78
  Q 227.19 274.21 228.21 275.89
  Q 229.65 278.25 231.85 282.69
  A 0.53 0.53 0.0 0 1 231.06 283.36
  Q 227.84 281.02 225.50 279.61
  C 222.10 277.56 215.53 275.47 212.78 272.99
  Q 209.24 269.79 205.72 268.40
  A 1.22 1.21 -76.7 0 0 204.06 269.43
  C 203.82 272.49 208.57 275.78 211.56 277.38
  Q 216.28 279.92 219.53 281.71
  Z"
/>
</g>
<g fill="#015ca6">
<path d="
  M 244.18 0.00
  Q 279.62 2.11 311.64 17.70
  Q 326.06 24.72 337.60 35.15
  C 349.15 45.58 360.04 60.73 361.58 76.29
  Q 362.45 85.07 358.93 94.23
  Q 357.43 98.11 354.00 101.80
  A 6.52 6.38 -13.8 0 0 352.66 103.96
  C 350.40 109.94 348.73 116.00 343.10 120.42
  A 3.39 3.38 -45.5 0 1 338.97 120.46
  Q 336.10 118.29 333.75 114.39
  A 0.96 0.96 0.0 0 0 332.37 114.11
  Q 325.88 118.82 322.30 112.13
  C 321.86 111.31 322.21 110.69 322.02 110.14
  A 0.27 0.27 0.0 0 0 321.60 110.01
  L 319.70 111.52
  A 1.74 1.73 -67.7 0 1 318.84 111.88
  Q 317.70 112.04 317.07 112.49
  A 2.11 2.09 -42.8 0 1 314.51 112.40
  L 310.79 109.34
  A 0.45 0.45 0.0 0 0 310.05 109.66
  Q 310.02 110.37 310.48 111.36
  C 311.27 113.09 310.89 115.70 311.15 117.07
  A 0.48 0.48 0.0 0 0 311.90 117.37
  Q 313.86 115.94 317.55 114.29
  Q 320.38 113.03 322.55 116.30
  Q 322.99 116.97 324.03 120.60
  A 0.41 0.41 0.0 0 0 324.67 120.82
  Q 324.73 120.78 326.30 119.32
  Q 327.73 117.99 330.28 118.08
  A 1.34 1.32 -18.3 0 1 331.23 118.55
  Q 333.76 121.55 333.83 124.02
  Q 334.02 129.86 334.87 131.48
  C 337.43 136.34 330.80 142.08 327.26 144.02
  Q 315.71 150.37 304.31 143.69
  Q 298.89 140.52 296.40 138.34
  Q 292.10 134.56 278.54 122.21
  A 0.85 0.85 0.0 0 0 277.15 123.09
  Q 279.15 129.45 277.01 136.11
  Q 275.51 140.79 273.30 144.22
  A 1.06 1.04 -44.5 0 0 273.28 145.32
  C 276.29 150.39 279.60 154.10 285.32 155.70
  Q 292.56 157.73 300.83 158.77
  A 6.41 6.29 41.5 0 0 303.12 158.65
  C 306.79 157.76 310.50 157.05 314.09 156.09
  Q 321.67 154.08 328.80 155.87
  Q 334.89 157.40 337.98 159.09
  C 341.53 161.03 345.59 164.98 347.00 169.28
  A 1.23 1.22 51.3 0 1 346.90 170.25
  Q 345.18 173.38 341.67 173.75
  A 0.70 0.68 46.1 0 1 341.41 173.74
  L 332.02 171.77
  A 0.69 0.68 -17.0 0 0 331.40 172.93
  Q 337.08 178.46 339.48 187.55
  C 341.06 193.56 338.21 197.99 332.22 193.14
  Q 327.24 189.12 320.64 186.34
  A 0.27 0.26 -88.7 0 0 320.29 186.68
  Q 321.56 190.33 322.30 193.21
  C 323.14 196.47 322.84 202.82 319.98 205.78
  C 317.16 208.70 315.41 206.26 313.68 203.72
  Q 308.36 195.90 302.85 191.93
  C 298.25 188.62 294.79 186.18 291.60 183.32
  Q 289.69 181.60 287.33 181.14
  Q 280.16 179.72 271.01 177.49
  C 261.65 175.21 252.16 169.19 250.00 159.63
  A 0.47 0.46 -20.0 0 0 249.33 159.32
  L 242.85 162.67
  A 2.13 2.09 -59.6 0 1 241.96 162.91
  Q 240.40 162.98 238.60 164.29
  A 0.27 0.27 0.0 0 0 238.71 164.77
  Q 241.37 165.24 244.87 167.15
  Q 254.47 172.38 260.17 181.82
  C 264.21 188.52 264.59 195.53 263.86 203.18
  A 2.01 2.00 -2.5 0 1 262.21 204.97
  Q 259.38 205.48 257.18 203.01
  Q 252.26 197.49 248.24 193.98
  A 0.66 0.65 20.2 0 0 247.15 194.48
  C 247.24 200.67 246.13 206.23 241.64 211.06
  C 239.98 212.84 238.46 211.93 236.98 210.51
  C 235.33 208.91 234.51 205.94 233.11 202.66
  C 229.97 195.34 224.58 192.99 217.78 189.81
  A 4.46 4.06 74.2 0 1 217.04 189.35
  Q 214.23 187.14 211.55 182.51
  Q 210.71 181.06 208.86 180.40
  A 0.24 0.24 0.0 0 0 208.58 180.77
  C 213.98 188.48 218.55 194.25 221.98 201.98
  Q 225.10 209.03 221.98 216.08
  Q 219.42 221.88 214.86 225.88
  Q 205.84 233.79 197.24 242.19
  A 0.96 0.96 0.0 0 0 197.19 243.52
  C 204.03 251.29 211.63 258.28 221.44 261.50
  Q 228.80 263.91 229.86 264.39
  C 237.64 267.96 245.74 275.02 247.81 283.78
  A 1.31 1.30 -39.3 0 1 247.72 284.65
  C 246.06 288.09 242.18 287.13 239.64 285.26
  A 0.93 0.93 0.0 0 0 238.16 286.01
  C 238.14 291.04 234.16 291.36 230.45 289.75
  Q 228.34 288.83 226.27 287.25
  A 0.69 0.68 26.7 0 0 225.20 287.60
  Q 224.88 288.69 224.37 290.18
  C 223.58 292.52 221.10 292.43 219.47 291.53
  C 215.00 289.06 213.03 287.88 208.95 286.63
  C 201.94 284.50 193.25 283.51 189.79 276.47
  Q 186.64 270.05 181.81 266.99
  Q 174.22 262.17 171.40 260.38
  C 166.61 257.34 165.01 253.28 162.78 248.61
  A 0.54 0.54 0.0 0 0 161.91 248.47
  C 158.62 251.90 151.38 254.22 156.94 260.28
  Q 164.97 269.02 175.50 273.47
  C 185.64 277.75 196.41 283.94 197.19 295.23
  C 197.58 300.97 193.63 304.86 188.98 299.41
  A 0.35 0.35 0.0 0 0 188.37 299.55
  Q 187.47 303.11 184.26 305.00
  L 181.10 305.00
  L 175.29 301.03
  A 0.69 0.69 0.0 0 0 174.25 301.38
  Q 173.46 303.75 171.25 305.00
  L 168.32 305.00
  Q 156.50 300.52 148.52 296.22
  Q 144.46 294.03 141.85 289.64
  Q 135.49 278.96 126.45 271.55
  Q 120.54 266.71 119.77 266.24
  C 118.25 265.31 117.20 263.82 116.92 261.78
  Q 115.54 251.97 123.27 246.83
  C 128.27 243.51 132.48 239.37 135.20 234.70
  C 138.21 229.54 141.26 222.54 146.62 216.63
  A 1.21 1.19 61.5 0 0 146.91 215.62
  Q 146.74 214.74 145.72 214.36
  Q 144.96 214.07 144.06 213.31
  Q 135.46 205.95 129.76 198.49
  A 1.27 1.27 0.0 0 0 127.69 198.57
  C 118.44 212.82 110.21 226.15 98.27 236.75
  C 84.04 249.38 65.25 254.80 46.47 252.87
  C 28.73 251.04 11.35 238.78 4.15 222.42
  Q -2.07 208.29 1.86 193.25
  C 2.53 190.69 3.93 186.09 6.88 185.19
  Q 11.87 183.66 12.76 189.02
  C 14.45 199.19 15.46 207.46 23.80 214.18
  Q 33.02 221.61 44.45 223.08
  A 3.49 3.46 -61.4 0 0 47.16 222.27
  L 51.01 218.96
  A 3.64 3.64 0.0 0 1 54.27 218.19
  Q 55.28 218.45 58.16 219.59
  C 60.84 220.67 62.32 219.28 64.95 217.45
  C 67.70 215.53 66.81 213.49 67.18 210.69
  A 2.07 2.05 74.4 0 1 67.91 209.38
  Q 70.60 207.14 74.13 206.96
  Q 75.54 206.90 76.39 206.04
  Q 81.74 200.67 81.07 193.55
  A 2.38 2.37 -17.5 0 1 82.28 191.25
  Q 88.03 188.03 89.74 180.21
  A 1.14 1.11 -60.9 0 0 89.46 179.19
  Q 86.63 176.16 85.19 172.40
  A 0.95 0.89 47.5 0 1 85.20 171.72
  L 86.50 168.75
  A 1.18 1.17 -78.0 0 1 87.57 168.05
  L 93.58 168.05
  A 1.83 1.82 -78.1 0 0 95.25 166.96
  L 98.16 160.28
  A 2.36 2.34 44.7 0 0 98.14 158.36
  L 95.36 152.25
  A 2.81 2.77 35.7 0 1 95.12 150.83
  C 95.66 145.27 101.12 143.76 105.46 145.80
  A 1.48 1.47 29.9 0 0 107.31 145.31
  L 112.60 137.73
  A 1.41 1.40 38.6 0 0 112.39 135.89
  Q 108.05 131.95 106.96 127.24
  A 2.79 2.75 -47.7 0 1 106.92 126.25
  C 107.61 121.42 111.32 121.69 115.51 121.81
  Q 119.62 121.92 122.80 123.74
  A 0.91 0.91 0.0 0 0 123.89 123.59
  L 130.24 117.25
  A 1.82 1.82 0.0 0 0 130.62 115.23
  Q 129.13 111.80 126.96 109.62
  C 124.45 107.10 118.78 101.70 120.20 98.49
  C 121.36 95.85 125.35 94.93 128.10 95.09
  Q 128.78 95.13 133.40 96.05
  Q 142.23 97.81 149.49 102.62
  A 1.80 1.78 46.4 0 0 151.37 102.68
  L 157.61 99.07
  A 2.09 2.09 0.0 0 0 158.65 97.00
  C 158.15 92.73 158.17 88.98 156.59 84.80
  Q 153.93 77.72 149.03 71.96
  Q 144.79 66.98 143.79 65.60
  C 140.39 60.89 146.04 58.51 149.97 59.06
  Q 172.91 62.22 185.17 81.82
  Q 185.84 82.88 187.42 85.68
  A 2.68 2.67 69.4 0 0 190.28 86.98
  L 195.66 85.87
  A 1.59 1.59 0.0 0 0 196.93 84.19
  Q 196.04 72.30 188.51 63.27
  A 1.95 1.95 0.0 0 1 188.68 60.58
  Q 192.20 57.34 197.33 58.35
  C 209.88 60.83 221.57 67.74 227.31 79.38
  A 1.03 1.03 0.0 0 0 228.95 79.66
  Q 234.33 74.44 236.06 67.30
  C 236.95 63.65 232.32 61.21 229.25 59.59
  Q 217.75 53.52 210.91 51.68
  C 199.82 48.69 186.80 48.68 175.23 48.98
  A 4.39 4.39 0.0 0 1 172.65 48.23
  C 165.41 43.37 165.44 35.08 169.40 28.09
  C 173.78 20.35 180.48 14.18 188.88 9.87
  C 201.65 3.32 214.44 0.96 228.75 0.00
  L 244.18 0.00
  Z
  M 177.39 40.00
  Q 184.69 37.95 191.99 34.56
  C 208.98 26.69 230.65 28.29 248.01 36.07
  Q 254.94 39.18 262.45 45.03
  C 273.65 53.75 280.01 60.35 292.30 72.91
  Q 297.77 78.50 302.20 81.42
  Q 310.42 86.85 315.06 89.14
  Q 324.78 93.94 341.96 95.37
  Q 348.17 95.88 350.64 90.38
  C 357.25 75.62 347.15 57.21 336.75 46.69
  Q 320.59 30.35 299.40 21.84
  C 267.93 9.21 231.88 2.59 199.15 14.82
  Q 189.60 18.39 182.24 24.75
  C 178.53 27.96 174.94 34.23 176.20 39.31
  A 0.97 0.96 -14.7 0 0 177.39 40.00
  Z
  M 229.11 48.34
  L 230.22 39.71
  A 1.09 1.09 0.0 0 0 229.28 38.50
  L 219.82 37.29
  A 1.18 1.17 0.8 0 0 218.50 38.57
  L 219.05 44.12
  A 2.91 2.90 8.9 0 0 220.78 46.49
  L 227.34 49.35
  A 1.27 1.27 0.0 0 0 229.11 48.34
  Z
  M 211.56 38.38
  A 0.79 0.79 0.0 0 0 210.54 37.52
  L 198.94 41.05
  A 0.49 0.49 0.0 0 0 199.02 42.00
  L 210.12 43.42
  A 0.80 0.80 0.0 0 0 211.01 42.73
  L 211.56 38.38
  Z
  M 238.65 40.65
  A 1.06 1.06 0.0 0 0 237.17 41.62
  L 237.17 54.12
  A 1.06 1.06 0.0 0 0 237.62 54.99
  L 243.53 59.10
  A 1.06 1.06 0.0 0 0 245.18 58.42
  L 247.54 45.41
  A 1.06 1.06 0.0 0 0 246.92 44.24
  L 238.65 40.65
  Z
  M 281.63 75.76
  C 280.96 77.50 280.91 79.30 281.36 81.29
  C 282.49 86.31 282.69 92.17 280.73 96.83
  A 2.40 2.11 -63.2 0 1 277.53 98.11
  Q 277.07 97.82 276.70 96.05
  Q 275.12 88.62 274.46 82.65
  C 273.53 74.24 271.66 68.72 267.27 62.40
  Q 262.81 56.00 254.78 50.45
  A 0.52 0.51 21.9 0 0 253.98 50.79
  C 253.05 56.31 251.93 60.33 252.37 64.28
  A 1.33 1.30 -72.5 0 0 252.77 65.07
  Q 255.70 67.75 258.81 69.40
  A 0.58 0.32 61.4 0 1 258.95 69.49
  L 264.35 73.68
  A 3.16 3.13 -74.5 0 1 265.54 75.81
  Q 266.20 81.73 267.06 91.63
  Q 267.68 98.74 268.77 100.72
  C 273.19 108.78 281.62 112.97 287.71 119.49
  C 291.52 123.56 299.24 131.48 305.97 136.01
  C 312.03 140.09 317.67 141.52 324.00 137.44
  A 0.54 0.54 0.0 0 0 323.85 136.47
  Q 312.54 133.32 304.81 123.91
  Q 298.23 115.90 296.31 109.69
  Q 295.95 108.54 294.19 104.98
  Q 292.57 101.69 292.77 98.23
  C 293.01 94.11 292.54 91.10 296.07 89.40
  A 0.61 0.61 0.0 0 0 296.22 88.40
  L 282.25 75.62
  A 0.39 0.39 0.0 0 0 281.63 75.76
  Z
  M 254.99 190.30
  A 0.31 0.30 -85.1 0 0 255.44 189.92
  Q 249.07 176.42 235.20 171.84
  Q 230.75 170.37 225.44 168.89
  A 8.39 8.10 65.5 0 1 223.84 168.26
  Q 216.99 164.74 214.71 163.02
  Q 207.79 157.79 203.07 154.68
  C 201.70 153.77 198.75 154.25 197.83 153.32
  C 193.10 148.53 204.62 143.29 208.07 141.31
  Q 211.06 139.59 214.61 135.81
  Q 219.69 130.41 221.94 127.76
  C 224.09 125.23 227.11 122.89 229.28 126.71
  Q 230.43 128.75 229.12 131.36
  A 0.75 0.74 35.8 0 0 229.26 132.22
  C 229.70 132.67 230.66 132.95 231.25 133.73
  C 234.53 138.06 238.77 139.49 243.66 141.58
  A 1.77 1.76 -63.4 0 1 244.48 144.09
  C 243.92 145.05 242.95 145.71 241.71 145.65
  Q 232.37 145.17 227.62 137.91
  C 226.81 136.67 226.88 135.41 227.61 134.17
  A 0.19 0.19 0.0 0 0 227.56 133.91
  L 227.33 133.75
  A 0.39 0.38 35.8 0 0 226.80 133.83
  Q 220.00 142.71 210.40 148.46
  A 1.63 1.63 0.0 0 0 210.39 151.25
  Q 214.31 153.65 219.63 156.54
  Q 225.51 159.75 231.95 158.47
  Q 234.32 158.01 240.00 154.83
  A 5.09 5.05 -84.2 0 0 241.41 153.67
  C 248.26 145.60 253.04 136.41 257.22 126.38
  C 257.66 125.31 258.78 123.55 259.41 122.79
  A 9.36 8.08 -12.6 0 1 260.28 121.88
  L 267.66 115.23
  A 1.48 1.48 0.0 0 0 267.78 113.15
  Q 261.32 105.80 258.85 96.23
  C 257.67 91.65 258.27 85.23 258.16 81.13
  Q 258.11 79.43 257.81 78.71
  A 0.89 0.89 0.0 0 0 256.12 78.88
  Q 254.07 89.42 248.82 97.28
  C 246.81 100.30 244.00 102.60 240.99 98.75
  A 1.40 1.39 33.6 0 1 240.74 97.53
  Q 241.66 93.91 242.31 92.78
  Q 247.51 83.74 249.50 75.38
  A 2.97 2.96 -66.0 0 0 248.31 72.27
  L 245.60 70.38
  A 1.38 1.37 -65.4 0 0 243.48 71.17
  Q 241.21 80.04 233.78 86.30
  C 232.51 87.37 231.42 87.75 229.40 88.55
  A 1.43 1.42 -20.1 0 0 228.57 90.32
  Q 229.96 94.57 229.46 98.84
  A 2.50 2.47 -28.4 0 1 229.19 99.73
  Q 227.84 102.38 225.10 101.38
  A 1.45 1.43 7.1 0 1 224.17 100.20
  C 223.14 91.41 219.50 81.67 214.62 74.71
  C 211.19 69.82 205.80 67.52 200.16 65.38
  A 0.60 0.60 0.0 0 0 199.41 66.22
  C 204.83 76.61 205.45 86.64 205.69 98.28
  A 2.20 2.20 0.0 0 1 203.43 100.53
  Q 198.62 100.39 198.99 95.25
  A 1.06 1.06 0.0 0 0 197.68 94.14
  C 185.23 97.09 172.95 100.91 161.19 107.26
  Q 150.36 113.11 145.91 115.92
  C 132.09 124.62 121.31 137.17 112.10 151.47
  C 107.14 159.17 103.63 167.60 99.79 175.82
  C 96.50 182.86 95.03 189.95 91.54 196.39
  Q 85.29 207.94 77.26 217.27
  C 67.82 228.24 52.49 233.65 38.23 230.28
  Q 23.91 226.90 13.91 216.36
  C 11.42 213.74 10.05 211.22 8.54 208.03
  A 0.38 0.38 0.0 0 0 7.81 208.23
  C 8.34 214.19 10.99 218.91 14.58 224.52
  C 22.91 237.51 36.25 244.68 51.78 245.51
  C 74.59 246.74 93.00 234.25 106.11 216.34
  Q 114.01 205.55 122.57 191.26
  A 3.20 3.20 0.0 0 0 122.77 188.36
  C 121.06 184.39 118.58 179.44 118.02 174.40
  A 4.10 4.09 -15.0 0 1 120.45 170.20
  L 120.61 170.13
  A 2.49 2.49 0.0 0 1 124.05 171.91
  Q 125.68 179.73 131.30 187.96
  Q 142.22 203.95 158.65 213.32
  Q 161.43 214.91 162.85 218.42
  A 1.55 1.55 0.0 0 1 161.22 220.54
  L 157.72 220.09
  A 4.11 4.08 26.9 0 0 154.41 221.16
  Q 150.72 224.61 147.55 229.22
  C 144.35 233.88 143.03 239.14 139.73 243.79
  Q 136.69 248.08 135.88 248.79
  C 130.66 253.37 126.24 256.59 124.60 259.46
  A 1.11 1.11 0.0 0 0 124.95 260.93
  Q 134.69 267.37 141.65 276.78
  C 143.76 279.62 146.27 284.58 148.75 287.37
  A 12.68 12.65 85.8 0 0 151.36 289.63
  Q 151.93 290.00 161.37 295.13
  Q 163.96 296.53 166.74 296.02
  A 1.23 1.23 0.0 0 0 167.34 293.90
  Q 163.90 290.84 159.58 288.47
  Q 157.74 287.46 158.07 286.28
  A 2.75 2.48 12.4 0 1 161.11 284.55
  C 168.10 285.73 172.23 290.36 177.28 294.99
  C 178.07 295.72 180.09 296.47 181.03 296.35
  A 1.34 1.33 77.4 0 0 182.13 294.61
  Q 181.19 291.73 178.94 289.87
  A 2.46 2.46 0.0 0 1 178.71 286.30
  Q 179.54 285.41 181.05 286.00
  C 184.54 287.35 186.90 291.35 188.53 294.82
  A 0.45 0.45 0.0 0 0 189.39 294.66
  C 190.15 285.30 172.62 279.83 166.13 277.12
  C 160.56 274.79 154.50 268.00 149.19 262.16
  C 142.93 255.29 146.89 251.20 152.67 246.41
  Q 161.35 239.22 174.36 231.36
  C 180.32 227.76 185.15 221.53 182.72 214.24
  C 177.99 200.08 169.12 187.12 160.25 174.50
  Q 158.71 172.31 156.46 171.78
  C 150.61 170.40 144.44 169.79 143.62 166.63
  C 142.79 163.48 146.56 162.02 148.99 162.55
  Q 160.10 164.93 164.74 165.23
  C 168.53 165.47 170.04 163.59 170.24 159.78
  C 170.44 155.93 171.93 147.78 169.38 146.08
  Q 160.31 140.03 158.04 129.25
  C 157.38 126.12 157.71 121.30 161.96 121.83
  A 2.57 2.42 89.7 0 1 164.09 124.06
  Q 165.03 131.68 171.25 137.64
  Q 174.14 140.42 175.60 140.68
  A 0.71 0.70 -67.2 0 0 176.30 140.39
  L 179.18 136.26
  A 1.14 1.12 48.7 0 0 179.25 135.09
  Q 178.39 133.45 177.44 131.85
  Q 175.09 127.91 173.95 121.01
  C 173.57 118.71 173.79 114.62 176.60 113.80
  A 2.64 2.51 63.8 0 1 179.42 114.84
  C 180.92 117.00 181.17 119.72 182.13 122.09
  Q 183.11 124.55 184.09 126.93
  Q 184.87 128.84 185.68 129.32
  A 1.75 1.74 -51.3 0 0 187.77 129.08
  L 197.37 119.92
  A 6.38 6.21 -11.1 0 0 198.85 117.78
  C 199.79 115.81 200.13 113.59 203.09 112.63
  A 1.51 1.49 51.6 0 1 204.31 112.78
  C 209.55 115.99 206.79 122.04 203.17 125.23
  Q 189.71 137.12 182.62 143.84
  Q 177.51 148.68 178.37 155.48
  C 179.06 160.91 194.69 167.84 199.51 170.00
  Q 203.90 171.96 210.94 172.97
  C 213.13 173.28 214.49 173.92 215.42 175.79
  C 217.35 179.65 219.76 182.54 224.06 184.48
  C 228.32 186.42 233.56 189.93 236.17 193.82
  Q 238.86 197.83 239.25 198.30
  A 0.22 0.22 0.0 0 0 239.63 198.13
  Q 239.05 192.94 237.94 190.81
  Q 236.13 187.36 235.47 184.70
  A 2.48 2.43 -18.4 0 1 236.93 181.86
  C 240.77 180.25 243.85 182.45 247.57 185.08
  Q 249.02 186.09 254.99 190.30
  Z
  M 157.11 68.43
  A 0.79 0.79 0.0 0 0 156.14 69.58
  Q 160.69 77.00 162.66 82.31
  Q 164.94 88.42 165.11 94.99
  A 0.75 0.75 0.0 0 0 166.12 95.67
  L 180.66 90.10
  A 0.74 0.74 0.0 0 0 180.95 88.93
  Q 173.45 80.31 165.12 73.40
  Q 161.07 70.04 157.11 68.43
  Z
  M 314.52 98.57
  L 315.79 104.72
  A 1.19 1.19 0.0 0 0 317.93 105.17
  L 321.04 100.71
  A 0.24 0.23 29.7 0 0 320.94 100.36
  L 315.33 97.92
  A 0.59 0.58 6.1 0 0 314.52 98.57
  Z
  M 332.83 102.64
  Q 330.36 102.52 329.00 101.89
  A 0.56 0.56 0.0 0 0 328.20 102.40
  L 328.20 108.22
  A 0.73 0.73 0.0 0 0 329.53 108.63
  L 333.19 103.38
  A 0.47 0.47 0.0 0 0 332.83 102.64
  Z
  M 302.0678 102.5519
  A 1.48 0.61 -132.1 0 0 302.6074 104.0590
  A 1.48 0.61 -132.1 0 0 304.0522 104.7481
  A 1.48 0.61 -132.1 0 0 303.5126 103.2410
  A 1.48 0.61 -132.1 0 0 302.0678 102.5519
  Z
  M 345.15 103.88
  Q 342.94 104.38 340.15 103.74
  A 0.32 0.32 0.0 0 0 339.76 104.09
  L 340.51 111.69
  A 0.53 0.53 0.0 0 0 341.44 111.99
  Q 343.69 109.43 345.66 104.48
  A 0.45 0.44 4.9 0 0 345.15 103.88
  Z
  M 133.83 104.01
  A 0.44 0.44 0.0 0 0 133.39 104.71
  L 137.97 110.79
  A 0.64 0.63 52.3 0 0 138.86 110.91
  L 142.11 108.47
  A 0.68 0.68 0.0 0 0 142.08 107.36
  Q 138.57 105.04 133.83 104.01
  Z
  M 318.66 125.28
  L 318.24 121.07
  A 0.51 0.51 0.0 0 0 317.42 120.71
  L 314.89 122.61
  A 0.66 0.66 0.0 0 0 314.86 123.65
  Q 316.59 125.11 318.05 125.73
  A 0.44 0.44 0.0 0 0 318.66 125.28
  Z
  M 255.60 148.83
  Q 257.48 147.42 263.17 142.28
  C 265.12 140.53 265.80 138.59 266.16 136.42
  A 0.53 0.53 0.0 0 0 265.38 135.87
  L 264.24 136.53
  A 0.42 0.42 0.0 0 1 263.63 136.07
  Q 263.86 135.11 265.24 134.08
  A 0.80 0.80 0.0 0 1 266.03 133.99
  Q 267.44 134.61 268.25 132.95
  Q 270.06 129.25 270.10 124.69
  A 0.36 0.35 -27.8 0 0 269.45 124.49
  Q 267.29 127.74 261.40 134.54
  Q 256.09 140.66 255.29 148.66
  A 0.19 0.19 0.0 0 0 255.60 148.83
  Z
  M 325.08 129.81
  L 327.31 130.56
  A 0.28 0.28 0.0 0 0 327.67 130.39
  L 327.72 130.22
  A 4.32 1.44 -71.3 0 0 327.75 125.66
  L 327.71 125.65
  A 4.32 1.44 -71.3 0 0 324.96 129.28
  L 324.90 129.45
  A 0.28 0.28 0.0 0 0 325.08 129.81
  Z
  M 328.87 181.76
  A 0.31 0.31 0.0 0 0 329.21 181.26
  Q 324.95 176.88 318.73 174.09
  C 315.35 172.57 314.99 168.77 318.55 167.02
  Q 324.95 163.86 332.65 165.17
  A 0.62 0.61 -76.6 0 0 333.34 164.74
  L 333.34 164.73
  A 0.55 0.53 -73.5 0 0 332.98 164.05
  C 322.18 160.77 313.21 163.84 302.76 166.99
  Q 301.73 167.30 296.52 167.38
  A 2.10 2.08 -23.6 0 1 295.07 166.82
  L 293.75 165.62
  A 0.99 0.99 0.0 0 0 293.21 165.37
  Q 287.15 164.65 283.07 163.66
  C 276.55 162.08 271.36 157.20 268.00 151.30
  A 0.64 0.63 -33.0 0 0 267.07 151.11
  L 261.67 155.18
  A 3.60 3.57 68.5 0 0 260.27 158.43
  Q 260.95 164.74 266.49 167.50
  C 273.10 170.79 281.59 172.04 289.59 173.37
  A 4.95 4.90 -26.2 0 1 291.14 173.89
  C 293.94 175.37 295.62 177.52 297.40 179.01
  A 8.58 8.32 -10.7 0 0 298.96 180.04
  Q 307.56 184.35 313.91 191.61
  A 0.39 0.39 0.0 0 0 314.57 191.21
  Q 313.38 188.12 311.14 184.32
  C 309.77 181.99 309.50 179.31 311.53 177.67
  C 314.87 174.97 326.18 180.67 328.87 181.76
  Z
  M 219.53 281.71
  Q 216.28 279.92 211.56 277.38
  C 208.57 275.78 203.82 272.49 204.06 269.43
  A 1.22 1.21 -76.7 0 1 205.72 268.40
  Q 209.24 269.79 212.78 272.99
  C 215.53 275.47 222.10 277.56 225.50 279.61
  Q 227.84 281.02 231.06 283.36
  A 0.53 0.53 0.0 0 0 231.85 282.69
  Q 229.65 278.25 228.21 275.89
  Q 227.19 274.21 228.24 272.78
  A 0.76 0.76 0.0 0 0 227.87 271.61
  C 219.43 268.76 209.75 265.42 203.03 259.50
  Q 196.67 253.89 192.63 249.55
  Q 190.06 246.80 188.60 244.34
  A 1.77 1.75 -57.0 0 1 188.37 243.24
  Q 188.56 241.59 189.64 240.13
  C 194.33 233.83 200.49 228.29 206.89 222.78
  Q 211.65 218.68 213.31 215.87
  C 218.53 207.03 211.75 197.53 205.78 189.98
  Q 202.73 186.14 196.85 178.97
  C 194.70 176.35 191.56 173.95 188.99 172.79
  Q 182.55 169.91 178.00 167.01
  A 1.70 1.69 30.7 0 0 175.61 167.61
  Q 173.47 171.43 169.16 172.08
  A 1.09 1.08 65.9 0 0 168.49 173.85
  Q 171.85 177.90 173.49 180.59
  Q 179.81 190.98 187.73 204.75
  Q 188.57 206.21 191.46 206.73
  A 0.93 0.92 86.9 0 1 192.19 207.39
  Q 192.57 208.73 190.59 210.42
  A 1.71 1.69 60.3 0 0 190.09 212.27
  Q 192.71 219.82 188.70 228.69
  A 3.20 3.11 83.3 0 1 187.81 229.85
  C 182.73 233.98 176.76 239.50 170.11 243.01
  A 1.22 1.21 -23.6 0 0 169.53 244.49
  Q 171.09 248.92 174.57 253.07
  C 177.32 256.35 182.12 257.98 186.02 260.72
  C 191.16 264.32 193.29 268.01 197.16 273.91
  A 8.41 8.37 87.6 0 0 200.07 276.60
  C 205.53 279.63 213.30 283.02 219.42 282.26
  A 0.30 0.29 -33.9 0 0 219.53 281.71
  Z"
/>
<path d="
  M 251.61 102.89
  Q 252.82 102.37 254.59 103.57
  Q 255.47 104.16 255.86 106.11
  Q 257.05 112.00 254.19 118.19
  A 1.94 1.94 0.0 0 1 251.33 118.96
  L 248.68 117.11
  A 2.18 2.17 32.9 0 1 248.06 114.22
  L 250.60 109.93
  A 1.56 1.49 63.1 0 0 250.81 109.23
  L 251.06 103.69
  A 0.93 0.93 0.0 0 1 251.61 102.89
  Z"
/>
<path d="
  M 249.88 129.09
  A 1.04 1.04 0.0 0 1 250.61 130.08
  Q 250.61 133.68 246.99 133.51
  C 241.83 133.26 238.60 131.57 235.98 127.11
  C 233.23 122.43 231.59 119.02 232.34 113.71
  A 1.41 1.41 0.0 0 1 232.95 112.74
  Q 234.99 111.39 235.93 111.87
  Q 237.76 112.82 238.34 114.46
  C 240.55 120.74 243.28 126.97 249.88 129.09
  Z"
/>
<path d="
  M 167.09 148.76
  A 1.20 1.19 -72.8 0 1 167.83 150.18
  C 165.99 157.22 157.21 151.45 154.03 149.11
  C 147.76 144.50 141.63 137.90 143.93 129.72
  A 1.24 1.21 89.3 0 1 144.72 128.89
  Q 146.90 128.16 148.44 129.50
  A 1.80 1.72 14.8 0 1 148.99 130.40
  Q 150.36 135.77 150.88 136.61
  C 154.88 143.04 160.15 146.23 167.09 148.76
  Z"
/>
<path d="
  M 131.38 136.73
  A 1.76 1.65 48.8 0 1 134.11 137.00
  Q 139.09 144.62 140.27 146.23
  C 141.80 148.31 143.53 149.71 146.38 150.12
  Q 148.28 150.39 149.58 151.07
  A 1.87 1.67 28.3 0 1 150.45 153.48
  C 149.88 154.47 148.55 154.91 147.51 154.98
  Q 137.17 155.70 132.63 146.10
  Q 130.83 142.30 130.93 138.19
  Q 130.96 137.23 131.38 136.73
  Z"
/>
<path d="
  M 222.17 142.40
  C 223.34 143.51 224.11 145.41 225.80 146.73
  Q 230.55 150.43 236.92 149.89
  C 240.93 149.55 240.88 153.34 238.06 154.36
  C 229.91 157.29 224.03 153.17 218.83 147.22
  A 2.01 2.00 -48.1 0 1 218.70 144.75
  L 220.20 142.60
  A 1.30 1.30 0.0 0 1 222.17 142.40
  Z"
/>
</g>
<g fill="#fefeff">
<path d="
  M 315.33 97.92
  L 320.94 100.36
  A 0.24 0.23 29.7 0 1 321.04 100.71
  L 317.93 105.17
  A 1.19 1.19 0.0 0 1 315.79 104.72
  L 314.52 98.57
  A 0.59 0.58 6.1 0 1 315.33 97.92
  Z"
/>
<path d="
  M 332.83 102.64
  A 0.47 0.47 0.0 0 1 333.19 103.38
  L 329.53 108.63
  A 0.73 0.73 0.0 0 1 328.20 108.22
  L 328.20 102.40
  A 0.56 0.56 0.0 0 1 329.00 101.89
  Q 330.36 102.52 332.83 102.64
  Z"
/>
<path d="
  M 345.66 104.48
  Q 343.69 109.43 341.44 111.99
  A 0.53 0.53 0.0 0 1 340.51 111.69
  L 339.76 104.09
  A 0.32 0.32 0.0 0 1 340.15 103.74
  Q 342.94 104.38 345.15 103.88
  A 0.45 0.44 4.9 0 1 345.66 104.48
  Z"
/>
<path d="
  M 318.05 125.73
  Q 316.59 125.11 314.86 123.65
  A 0.66 0.66 0.0 0 1 314.89 122.61
  L 317.42 120.71
  A 0.51 0.51 0.0 0 1 318.24 121.07
  L 318.66 125.28
  A 0.44 0.44 0.0 0 1 318.05 125.73
  Z"
/>
<path d="
  M 325.08 129.81
  A 0.28 0.28 0.0 0 1 324.90 129.45
  L 324.96 129.28
  A 4.32 1.44 -71.3 0 1 327.71 125.65
  L 327.75 125.66
  A 4.32 1.44 -71.3 0 1 327.72 130.22
  L 327.67 130.39
  A 0.28 0.28 0.0 0 1 327.31 130.56
  L 325.08 129.81
  Z"
/>
</g>
</svg>
