<?xml version="1.0" encoding="UTF-8" standalone="no"?>
<!DOCTYPE svg PUBLIC "-//W3C//DTD SVG 1.1//EN" "http://www.w3.org/Graphics/SVG/1.1/DTD/svg11.dtd">
<svg xmlns="http://www.w3.org/2000/svg" version="1.1" viewBox="0.00 0.00 690.00 721.00">
<g stroke-width="2.00" fill="none" stroke-linecap="butt">
<path stroke="#5ea1de" vector-effect="non-scaling-stroke" d="
  M 201.16 38.81
  Q 243.61 42.03 285.18 55.86
  C 332.15 71.48 379.44 90.47 418.02 122.26
  Q 426.29 129.08 445.81 146.91
  C 467.81 167.00 494.39 185.04 522.79 197.22
  Q 537.26 203.43 552.98 206.05
  Q 558.38 206.96 564.16 206.75
  A 2.81 2.80 13.5 0 0 566.53 205.30
  Q 567.53 203.50 568.05 201.03
  C 571.31 185.73 571.91 170.05 567.03 155.23
  C 560.61 135.71 545.87 117.51 530.42 102.82
  C 504.34 78.02 474.25 58.09 441.82 42.96
  Q 370.57 9.73 292.27 14.09
  Q 271.42 15.25 249.74 20.24
  Q 228.59 25.11 208.91 33.91
  Q 205.41 35.48 201.02 38.25
  A 0.30 0.30 0.0 0 0 201.16 38.81"
/>
<path stroke="#5ea1de" vector-effect="non-scaling-stroke" d="
  M 277.02 83.51
  Q 274.85 74.32 276.26 66.53
  A 0.71 0.70 12.6 0 0 275.75 65.73
  L 255.97 60.23
  A 0.30 0.30 0.0 0 0 255.66 60.72
  Q 260.00 65.91 267.20 75.53
  Q 271.11 80.75 276.44 83.94
  A 0.39 0.39 0.0 0 0 277.02 83.51"
/>
<path stroke="#5ea1de" vector-effect="non-scaling-stroke" d="
  M 286.19 69.51
  Q 284.92 81.01 290.96 91.56
  A 0.75 0.71 82.1 0 0 291.39 91.90
  L 304.03 95.81
  A 0.06 0.06 0.0 0 0 304.10 95.74
  Q 300.63 85.63 303.67 76.00
  A 0.71 0.70 -71.2 0 0 303.25 75.13
  L 286.94 69.05
  A 0.56 0.55 -76.3 0 0 286.19 69.51"
/>
<path stroke="#5ea1de" vector-effect="non-scaling-stroke" d="
  M 331.05 102.40
  Q 327.80 94.29 330.91 86.20
  A 0.71 0.70 -68.5 0 0 330.52 85.30
  L 314.40 78.72
  A 0.76 0.75 -75.5 0 0 313.37 79.33
  Q 312.18 88.93 316.63 97.80
  A 2.90 2.89 84.2 0 0 318.45 99.29
  L 330.77 102.71
  A 0.23 0.23 0.0 0 0 331.05 102.40"
/>
<path stroke="#5ea1de" vector-effect="non-scaling-stroke" d="
  M 358.08 112.11
  Q 355.81 104.13 359.52 97.31
  A 0.48 0.48 0.0 0 0 359.30 96.65
  L 341.75 88.86
  A 0.96 0.96 0.0 0 0 340.40 89.64
  Q 339.60 98.08 343.96 105.78
  A 2.47 2.45 87.1 0 0 345.10 106.82
  L 357.72 112.42
  A 0.26 0.26 0.0 0 0 358.08 112.11"
/>
<path stroke="#5ea1de" vector-effect="non-scaling-stroke" d="
  M 92.40 117.01
  C 79.91 124.44 69.38 135.72 66.99 150.44
  Q 66.04 156.36 67.47 166.90
  C 68.86 177.02 69.62 188.51 72.15 199.89
  Q 74.98 212.64 82.17 223.25
  C 83.99 225.94 84.63 227.76 85.09 230.98
  Q 85.22 231.83 86.89 247.88
  C 89.14 269.47 94.89 291.85 107.16 309.15
  C 112.09 316.11 117.46 320.77 126.39 319.33
  Q 131.83 318.45 136.02 316.78
  Q 152.28 310.28 165.37 305.44
  C 182.70 299.03 198.59 291.90 213.14 284.66
  Q 233.30 274.63 248.05 257.38
  A 0.36 0.35 26.1 0 0 247.85 256.80
  C 243.87 256.00 235.64 254.02 234.19 250.52
  C 232.96 247.55 235.49 244.36 238.51 245.07
  Q 248.41 247.41 259.74 248.07
  C 272.04 248.78 282.58 248.62 293.03 243.23
  C 294.65 242.39 296.52 242.15 297.92 243.30
  C 301.12 245.95 302.06 249.56 297.98 252.01
  C 287.72 258.18 275.52 259.95 263.78 260.26
  A 3.77 3.75 -71.6 0 0 260.90 261.71
  Q 252.06 273.06 240.32 283.38
  A 5.20 5.14 -13.2 0 0 238.73 285.91
  Q 237.16 291.58 235.17 297.16
  C 232.27 305.31 230.11 313.52 229.38 320.37
  C 228.37 329.82 227.78 337.65 224.33 345.83
  C 222.35 350.53 218.13 358.65 214.28 363.01
  C 209.25 368.72 205.47 375.27 202.18 381.36
  C 194.96 394.73 192.14 408.26 195.73 423.23
  C 206.73 469.05 236.24 505.93 272.57 536.17
  Q 275.38 538.51 275.45 540.99
  C 275.61 546.49 269.73 546.24 266.17 544.37
  Q 260.40 541.35 254.82 536.94
  Q 252.87 535.40 250.23 535.57
  Q 232.43 536.67 219.99 549.51
  Q 215.96 553.67 208.26 562.00
  Q 196.71 574.50 181.59 582.58
  Q 172.17 587.61 158.63 593.52
  C 152.64 596.13 148.17 598.63 149.19 605.55
  Q 149.45 607.34 150.38 609.59
  C 153.12 616.28 156.73 622.45 159.00 628.30
  Q 161.15 633.85 163.05 644.94
  Q 164.36 652.56 166.78 669.22
  Q 167.97 677.37 170.41 684.39
  C 172.78 691.19 176.07 694.22 183.27 694.29
  Q 194.71 694.40 205.55 694.25
  A 0.39 0.39 0.0 0 0 205.90 693.71
  C 202.30 685.19 196.44 680.23 189.71 674.56
  C 188.25 673.33 187.24 670.70 188.47 668.75
  C 189.87 666.52 192.90 666.51 195.20 667.77
  Q 203.87 672.47 207.51 677.00
  Q 213.66 684.64 217.56 693.70
  A 0.96 0.96 0.0 0 0 218.44 694.28
  L 234.09 694.28
  A 0.45 0.45 0.0 0 0 234.49 693.62
  C 229.85 684.60 222.70 678.47 213.97 673.52
  C 210.43 671.51 209.90 666.46 214.66 665.63
  Q 218.73 664.92 222.45 667.34
  Q 229.54 671.97 230.58 672.75
  C 237.47 677.91 242.86 685.64 245.89 693.62
  A 0.87 0.86 -10.2 0 0 246.70 694.18
  L 258.30 694.18
  A 0.49 0.48 -15.2 0 0 258.72 693.45
  Q 249.51 677.81 233.47 669.39
  C 228.42 666.74 222.01 665.70 217.25 662.75
  Q 209.28 657.82 204.22 651.10
  C 195.67 639.73 189.96 625.60 185.42 611.62
  A 2.64 2.64 0.0 0 1 186.05 608.96
  Q 187.67 607.32 190.45 605.93
  Q 195.72 603.29 203.02 600.53
  Q 221.09 593.70 241.01 587.53
  C 258.54 582.09 274.65 577.43 290.93 570.39
  Q 300.43 566.28 304.99 563.25
  Q 309.43 560.31 313.86 554.11
  C 318.57 547.52 318.97 539.38 318.39 531.27
  Q 315.22 487.27 297.62 446.09
  Q 289.26 426.51 274.42 406.61
  Q 259.74 386.92 239.26 377.05
  A 4.64 4.63 19.7 0 1 236.77 371.80
  L 236.86 371.45
  A 3.72 3.72 0.0 0 1 241.61 368.77
  Q 254.20 372.78 263.62 379.92
  C 282.47 394.20 295.34 414.06 306.63 434.93
  A 0.42 0.42 0.0 0 0 307.31 435.01
  C 315.50 425.88 320.37 413.40 322.34 401.61
  C 324.68 387.59 326.42 371.69 337.20 361.20
  C 339.59 358.87 341.96 357.38 345.54 358.16
  C 352.92 359.76 359.16 358.72 365.54 354.33
  A 0.48 0.48 0.0 0 0 365.47 353.50
  C 362.47 352.08 359.28 349.00 359.87 345.47
  C 360.62 340.92 366.91 343.49 368.95 344.26
  Q 370.59 344.88 373.12 344.92
  Q 383.16 345.08 389.90 337.24
  A 0.53 0.53 0.0 0 0 389.65 336.39
  Q 382.67 334.29 377.26 329.18
  A 5.32 5.32 0.0 0 1 375.93 323.43
  L 375.99 323.28
  A 2.74 2.73 -61.2 0 1 380.19 322.06
  Q 393.85 332.35 405.20 319.98
  Q 406.41 318.66 409.26 313.29
  A 0.44 0.43 -81.4 0 0 408.80 312.66
  C 401.47 314.04 389.03 309.58 386.74 301.02
  Q 385.75 297.34 388.86 296.01
  Q 390.41 295.34 391.65 296.40
  C 397.02 301.05 402.03 304.16 409.68 303.12
  Q 419.97 301.74 423.43 291.43
  Q 425.16 286.28 428.97 272.10
  Q 429.37 270.62 430.58 270.44
  Q 432.30 270.19 433.68 271.68
  A 1.69 1.68 23.0 0 1 434.12 272.76
  Q 434.50 282.58 433.14 291.46
  C 432.11 298.15 429.22 303.37 424.96 308.51
  A 9.93 9.87 -15.2 0 0 423.27 311.44
  C 421.77 315.51 419.29 321.62 416.21 325.62
  A 1.18 1.17 -39.6 0 0 416.09 326.85
  C 422.90 340.33 431.76 352.20 441.41 364.71
  Q 447.39 372.47 452.43 376.96
  Q 456.42 380.50 461.58 380.22
  Q 499.06 378.19 535.17 365.42
  Q 550.54 359.99 569.15 352.26
  C 572.35 350.93 576.42 349.73 579.29 350.43
  Q 592.32 353.62 598.25 353.35
  C 609.44 352.84 621.12 352.12 632.99 353.71
  Q 638.98 354.51 644.57 356.85
  A 0.26 0.26 0.0 0 0 644.84 356.41
  C 637.62 349.97 629.62 347.76 620.21 345.81
  Q 617.46 345.24 615.87 342.49
  C 612.06 335.90 622.53 331.60 627.23 329.16
  Q 631.90 326.74 636.05 325.47
  Q 649.27 321.44 661.94 322.86
  A 0.23 0.23 0.0 0 0 662.05 322.42
  Q 654.09 319.16 645.26 318.67
  Q 625.11 317.55 605.51 324.24
  Q 601.00 325.78 598.82 321.66
  Q 597.09 318.37 599.54 314.57
  C 607.86 301.65 619.09 292.77 632.72 286.65
  A 0.37 0.37 0.0 0 0 632.54 285.94
  Q 627.06 286.28 620.26 287.32
  C 605.74 289.54 593.11 298.77 585.19 310.94
  Q 581.71 316.28 578.14 322.38
  C 574.87 327.95 570.44 329.51 564.43 331.44
  C 542.29 338.54 520.61 342.22 498.15 342.95
  Q 487.09 343.31 481.98 344.54
  C 474.41 346.37 467.68 348.72 461.03 351.87
  C 458.82 352.92 457.10 352.56 455.74 350.67
  C 452.79 346.59 461.07 340.59 464.42 337.70
  A 2.25 2.23 -24.1 0 0 465.17 335.75
  Q 464.25 328.21 462.13 318.58
  Q 460.60 311.63 453.92 286.86
  Q 452.73 282.46 450.29 277.25
  A 8.52 8.15 -78.6 0 0 449.14 275.43
  Q 444.14 269.38 443.55 268.41
  Q 431.81 249.19 417.52 227.99
  A 0.65 0.65 0.0 0 0 416.61 227.83
  C 408.43 233.62 402.50 240.72 395.80 249.03
  Q 393.93 251.35 391.81 252.90
  A 1.91 1.90 -64.9 0 1 390.83 253.26
  C 388.37 253.41 386.02 251.42 387.20 248.92
  Q 395.72 230.91 409.36 217.68
  A 0.92 0.92 0.0 0 0 409.45 216.46
  Q 398.07 201.77 399.86 183.28
  C 400.90 172.62 403.74 164.46 407.40 152.32
  C 409.40 145.69 413.47 146.31 417.41 150.81
  Q 425.61 160.18 427.21 171.89
  C 428.08 178.31 428.23 188.51 427.54 195.38
  A 3.10 3.09 5.9 0 1 424.12 198.16
  L 423.94 198.14
  A 3.61 3.61 0.0 0 1 420.73 194.52
  Q 420.82 180.36 420.18 173.56
  Q 419.66 168.10 416.99 163.44
  A 0.36 0.36 0.0 0 0 416.34 163.48
  C 411.32 176.00 408.62 187.92 413.88 200.78
  Q 415.70 205.23 421.45 212.42
  C 425.32 217.26 432.45 226.38 437.67 234.35
  Q 449.85 252.94 454.41 259.56
  Q 459.53 267.01 465.63 272.60
  C 474.91 281.11 488.49 285.12 499.60 277.12
  A 0.50 0.49 -53.2 0 0 499.48 276.25
  Q 496.86 275.37 494.73 274.26
  Q 462.64 257.60 445.53 227.27
  C 441.56 220.23 438.13 212.06 437.68 203.93
  C 436.96 190.91 441.47 176.60 447.44 165.20
  A 0.55 0.54 -56.9 0 0 447.30 164.52
  Q 443.22 161.18 438.93 157.06
  Q 421.02 139.83 412.33 132.43
  Q 400.56 122.39 386.28 112.47
  Q 377.85 106.62 368.77 101.92
  A 0.44 0.43 -73.9 0 0 368.14 102.27
  Q 367.41 110.14 371.53 117.81
  Q 372.63 119.85 376.06 122.80
  C 391.24 135.83 392.62 156.38 378.85 171.13
  C 370.85 179.69 358.02 184.78 346.81 187.37
  Q 329.31 191.42 310.94 190.41
  A 0.25 0.25 0.0 0 0 310.78 190.87
  C 315.07 194.03 320.56 199.13 317.49 204.20
  C 316.35 206.09 313.32 206.39 311.74 204.99
  Q 305.81 199.75 297.71 195.56
  C 278.29 185.51 256.87 193.94 241.11 206.12
  Q 235.79 210.23 229.09 214.53
  A 6.38 6.21 -70.0 0 1 227.60 215.25
  Q 225.96 215.78 218.94 217.45
  Q 206.45 220.42 194.99 228.99
  C 184.68 236.69 173.48 247.22 153.15 265.65
  Q 150.31 268.22 147.71 270.00
  A 0.84 0.84 0.0 0 0 147.39 270.97
  Q 150.41 279.49 148.73 289.22
  C 148.01 293.39 141.38 293.76 140.97 289.02
  Q 140.21 280.02 135.25 272.49
  Q 130.42 265.18 121.68 254.47
  C 118.60 250.71 107.86 236.97 110.58 232.31
  Q 111.49 230.74 113.26 229.98
  C 126.90 224.14 140.21 219.60 147.19 205.11
  A 0.26 0.26 0.0 0 0 146.84 204.76
  C 143.73 206.25 139.28 206.76 135.97 206.89
  C 121.38 207.46 113.79 198.15 112.08 184.58
  C 109.66 165.37 120.87 148.48 135.45 137.14
  A 0.40 0.40 0.0 0 0 135.06 136.45
  C 130.27 138.23 122.12 140.89 117.05 144.62
  Q 104.87 153.58 99.59 167.05
  Q 98.63 169.48 99.33 170.94
  C 100.30 172.99 101.83 175.21 100.71 177.35
  C 99.04 180.54 95.47 179.35 93.44 177.09
  Q 86.40 169.29 83.65 160.92
  C 78.93 146.56 84.34 129.65 92.78 117.41
  A 0.28 0.28 0.0 0 0 92.40 117.01"
/>
<path stroke="#5ea1de" vector-effect="non-scaling-stroke" d="
  M 224.23 132.06
  C 238.11 146.44 248.24 163.52 252.41 183.34
  A 0.89 0.89 0.0 0 0 253.65 183.97
  Q 265.10 178.77 277.21 177.92
  A 0.46 0.46 0.0 0 0 277.57 177.23
  C 267.97 160.76 255.90 146.79 239.05 137.48
  Q 231.92 133.54 224.42 131.73
  A 0.20 0.20 0.0 0 0 224.23 132.06"
/>
<path stroke="#5ea1de" vector-effect="non-scaling-stroke" d="
  M 320.92 148.85
  C 324.60 156.91 326.76 167.93 327.18 176.37
  A 0.50 0.49 -3.8 0 0 327.73 176.84
  L 339.83 175.59
  A 0.73 0.73 0.0 0 0 340.44 174.60
  Q 334.42 159.24 321.17 148.65
  A 0.17 0.16 -83.0 0 0 320.92 148.85"
/>
<path stroke="#5ea1de" vector-effect="non-scaling-stroke" d="
  M 188.85 187.82
  Q 196.80 198.18 200.60 210.52
  A 0.39 0.39 0.0 0 0 201.14 210.76
  L 212.77 205.31
  A 0.33 0.33 0.0 0 0 212.87 204.78
  Q 202.15 193.98 189.16 187.45
  A 0.25 0.25 0.0 0 0 188.85 187.82"
/>
<path stroke="#86b4e1" vector-effect="non-scaling-stroke" d="
  M 488.61 192.84
  Q 488.47 192.34 488.44 192.35
  A 1.66 1.57 -5.0 0 0 487.05 193.91
  Q 487.00 206.32 486.90 208.83
  A 0.93 0.92 70.6 0 0 488.43 209.57
  L 498.66 200.55
  A 1.11 1.10 30.4 0 0 498.16 198.64
  Q 495.63 198.10 492.80 195.74
  C 491.61 194.74 490.41 194.75 489.13 193.65
  A 1.72 1.70 12.6 0 1 488.61 192.84"
/>
<path stroke="#86b4e1" vector-effect="non-scaling-stroke" d="
  M 448.14 212.99
  Q 448.94 212.85 449.01 214.27
  Q 449.08 215.84 448.84 216.45
  A 0.31 0.31 0.0 0 0 449.13 216.87
  L 449.46 216.87
  A 0.46 0.46 0.0 0 0 449.92 216.40
  Q 449.90 215.16 450.88 214.94
  A 0.94 0.91 7.4 0 0 451.51 214.47
  L 454.99 208.10
  A 1.79 1.79 0.0 0 0 454.68 205.99
  L 454.32 205.63
  A 0.79 0.79 0.0 0 0 453.07 205.81
  L 452.06 207.65
  A 0.66 0.65 -62.8 0 1 451.20 207.93
  Q 450.08 207.39 448.84 209.18
  Q 448.61 209.51 448.60 210.40
  Q 448.60 211.26 448.12 211.49
  Q 447.65 211.73 447.59 212.48
  A 0.48 0.47 87.7 0 0 448.14 212.99"
/>
<path stroke="#86b4e1" vector-effect="non-scaling-stroke" d="
  M 513.31 224.21
  C 515.33 221.90 516.24 218.35 518.60 215.88
  Q 520.76 213.62 519.88 210.02
  A 0.59 0.58 -4.7 0 0 519.35 209.58
  Q 517.42 209.42 516.37 208.45
  Q 514.56 206.79 512.92 205.84
  A 0.53 0.53 0.0 0 0 512.13 206.23
  L 511.66 209.67
  A 2.21 2.18 -48.2 0 0 511.70 210.50
  L 512.81 214.85
  A 1.43 1.29 42.1 0 1 512.85 215.25
  L 512.56 223.92
  A 0.43 0.43 0.0 0 0 513.31 224.21"
/>
<path stroke="#86b4e1" vector-effect="non-scaling-stroke" d="
  M 532.00 216.05
  C 533.23 217.13 532.69 219.19 533.14 220.61
  Q 534.11 223.70 534.70 224.43
  Q 534.95 224.74 534.92 225.57
  Q 534.89 226.43 535.13 226.66
  A 0.90 0.81 -57.0 0 0 536.47 226.30
  Q 538.54 221.75 540.05 219.08
  A 1.22 1.22 0.0 0 0 539.57 217.41
  L 534.67 214.74
  A 0.61 0.61 0.0 0 0 534.21 214.69
  L 532.15 215.35
  A 0.42 0.41 -33.4 0 0 532.00 216.05"
/>
<path stroke="#86b4e1" vector-effect="non-scaling-stroke" d="
  M 552.84 219.27
  A 1.04 1.03 37.6 0 0 550.81 219.53
  L 550.66 227.96
  A 0.89 0.88 -74.0 0 0 551.07 228.71
  Q 552.77 229.78 553.27 229.46
  C 554.32 228.77 554.08 227.88 554.96 227.02
  C 556.40 225.63 557.36 223.09 557.97 221.87
  A 1.56 1.55 -86.8 0 0 556.05 219.71
  Q 553.26 220.74 552.84 219.27"
/>
<path stroke="#86b4e1" vector-effect="non-scaling-stroke" d="
  M 459.56 221.17
  L 454.97 226.43
  A 0.93 0.92 43.8 0 0 455.00 227.69
  C 456.79 229.55 456.67 232.84 460.66 233.17
  A 0.69 0.69 0.0 0 0 461.36 232.72
  L 464.34 224.51
  A 0.49 0.41 -39.7 0 0 464.37 224.35
  L 464.37 220.65
  A 0.95 0.95 0.0 0 0 462.91 219.84
  Q 461.79 220.54 460.74 220.60
  A 1.71 1.70 19.1 0 0 459.56 221.17"
/>
<path stroke="#86b4e1" vector-effect="non-scaling-stroke" d="
  M 479.26 236.84
  A 2.39 2.39 0.0 0 0 475.52 235.13
  L 469.50 239.35
  A 0.94 0.80 -65.5 0 1 469.18 239.50
  Q 466.23 240.28 467.23 243.67
  A 1.92 1.91 13.0 0 0 467.74 244.48
  L 473.14 249.48
  A 0.62 0.61 -37.5 0 0 473.85 249.57
  Q 475.84 248.48 476.10 246.95
  C 476.57 244.18 478.36 241.33 479.25 239.14
  A 2.18 2.14 53.2 0 0 479.39 238.10
  L 479.26 236.84"
/>
<path stroke="#86b4e1" vector-effect="non-scaling-stroke" d="
  M 489.17 257.11
  L 489.17 256.04
  A 1.30 1.24 64.2 0 1 489.41 255.29
  Q 490.74 253.45 491.04 252.27
  Q 491.48 250.47 492.64 246.07
  A 1.15 1.15 0.0 0 0 490.72 244.96
  L 481.42 254.26
  A 1.34 1.32 -37.0 0 0 481.19 255.84
  Q 482.34 257.93 484.31 258.28
  A 1.33 1.33 0.0 0 1 485.14 258.81
  Q 485.16 258.85 485.21 258.90
  A 1.01 1.01 0.0 0 0 486.14 259.27
  Q 487.76 259.05 488.79 258.02
  A 1.30 1.28 -22.9 0 0 489.17 257.11"
/>
<path stroke="#86b4e1" vector-effect="non-scaling-stroke" d="
  M 503.00 267.89
  Q 506.96 265.33 508.55 260.34
  A 1.05 0.90 74.2 0 1 508.66 260.10
  L 511.06 255.81
  A 0.71 0.70 2.0 0 0 510.14 254.83
  L 504.47 257.49
  A 0.57 0.52 -87.1 0 0 504.20 257.76
  Q 503.30 259.47 500.85 260.06
  A 0.81 0.74 -72.3 0 0 500.45 260.29
  L 496.82 264.27
  A 0.87 0.86 35.5 0 0 497.05 265.61
  L 499.85 267.14
  A 0.53 0.49 51.3 0 0 500.20 267.19
  Q 501.61 266.92 502.09 267.69
  A 0.66 0.65 -32.4 0 0 503.00 267.89"
/>
<path stroke="#5ea1de" vector-effect="non-scaling-stroke" d="
  M 192.33 340.00
  Q 198.55 345.89 203.38 355.67
  A 0.67 0.66 46.9 0 0 204.55 355.71
  L 211.42 343.81
  A 0.61 0.60 -66.0 0 0 211.09 342.93
  Q 202.69 340.18 192.58 339.42
  A 0.34 0.33 68.7 0 0 192.33 340.00"
/>
<path stroke="#5ea1de" vector-effect="non-scaling-stroke" d="
  M 181.77 416.32
  L 167.68 442.18
  A 6.39 6.31 58.2 0 0 166.91 445.55
  C 167.25 452.56 169.02 461.67 174.70 466.32
  Q 177.08 468.27 177.75 468.92
  A 2.38 2.30 11.1 0 1 178.30 469.71
  C 179.33 472.11 178.02 474.59 175.50 475.22
  C 170.97 476.35 166.06 473.14 163.24 469.72
  Q 158.71 464.23 157.20 457.13
  A 0.40 0.40 0.0 0 0 156.49 456.96
  Q 148.64 466.97 140.60 474.07
  A 2.24 2.21 -19.1 0 0 139.85 475.59
  Q 139.02 488.49 145.72 497.10
  A 2.15 2.11 -67.9 0 1 146.16 498.17
  C 146.53 501.56 144.44 502.89 141.28 502.49
  C 134.21 501.61 130.39 491.95 128.90 485.62
  C 128.71 484.85 129.29 483.97 129.28 483.40
  A 0.45 0.45 0.0 0 0 128.59 483.03
  Q 120.93 487.96 113.37 492.21
  C 111.35 493.35 111.03 494.47 110.37 496.56
  Q 107.65 505.28 110.09 512.88
  C 110.88 515.35 108.40 518.35 105.87 517.10
  C 98.13 513.28 97.25 504.38 98.74 496.75
  A 0.24 0.24 0.0 0 0 98.48 496.47
  Q 91.75 497.23 84.37 496.13
  A 0.51 0.48 21.1 0 0 83.90 496.32
  Q 78.53 503.46 75.22 511.22
  A 2.93 2.85 -74.6 0 1 72.22 512.98
  C 68.41 512.48 69.02 507.73 69.09 505.03
  Q 69.26 498.70 72.82 492.76
  A 0.28 0.28 0.0 0 0 72.67 492.35
  Q 66.05 489.93 61.06 485.01
  A 0.70 0.70 0.0 0 0 60.22 484.91
  Q 56.03 487.35 51.51 493.75
  Q 49.92 496.00 47.49 494.83
  C 45.39 493.82 45.41 490.61 45.84 488.81
  C 46.97 484.05 50.43 480.49 54.31 477.10
  A 0.78 0.77 -38.7 0 0 54.43 476.06
  C 48.07 467.34 46.41 457.94 46.39 446.49
  Q 46.33 419.91 58.24 397.04
  Q 64.61 384.82 73.15 372.65
  A 0.24 0.24 0.0 0 0 72.83 372.30
  C 65.02 376.76 57.46 381.62 51.43 388.11
  C 30.60 410.51 22.04 436.76 22.88 467.01
  C 23.67 496.00 39.74 521.37 66.58 532.90
  C 109.58 551.36 156.83 536.34 192.11 508.34
  Q 201.95 500.53 211.86 491.07
  A 0.66 0.66 0.0 0 0 211.96 490.23
  Q 207.80 484.00 203.92 477.61
  Q 186.71 449.23 181.90 416.34
  A 0.07 0.07 0.0 0 0 181.77 416.32"
/>
<path stroke="#5ea1de" vector-effect="non-scaling-stroke" d="
  M 178.99 396.38
  L 183.77 387.61
  A 1.05 1.05 0.0 0 0 183.28 386.15
  Q 175.32 382.58 167.15 380.90
  A 0.21 0.21 0.0 0 0 166.96 381.25
  Q 173.62 387.70 178.28 396.38
  A 0.41 0.40 -44.8 0 0 178.99 396.38"
/>
<path stroke="#5ea1de" vector-effect="non-scaling-stroke" d="
  M 500.26 692.73
  Q 489.94 674.89 469.65 668.58
  Q 466.59 667.63 454.62 663.86
  Q 435.15 657.74 422.40 642.10
  Q 415.62 633.78 404.95 620.05
  Q 399.16 612.61 391.28 606.89
  C 387.49 604.14 389.25 599.52 391.28 596.26
  Q 393.57 592.58 397.71 587.97
  Q 434.33 547.16 445.10 535.36
  Q 459.43 519.66 472.36 502.39
  C 477.15 495.99 482.29 487.64 485.78 480.29
  C 494.80 461.30 478.23 449.14 464.63 440.16
  Q 408.23 402.87 340.73 394.61
  Q 338.07 394.28 336.73 394.40
  A 0.65 0.64 1.1 0 0 336.15 394.95
  Q 333.31 417.34 322.02 436.50
  Q 318.38 442.66 313.04 446.34
  A 0.47 0.46 -26.6 0 0 312.86 446.87
  L 317.82 462.37
  A 3.02 3.01 3.2 0 0 319.46 464.20
  Q 332.91 470.12 347.27 472.71
  Q 385.08 479.54 422.54 474.60
  Q 430.31 473.58 444.45 468.62
  C 446.26 467.99 449.75 467.09 451.28 467.63
  C 455.58 469.18 453.26 473.61 450.84 475.62
  C 442.76 482.29 430.82 484.61 420.66 486.71
  C 418.08 487.24 416.94 488.13 415.26 490.01
  Q 410.80 494.97 407.12 499.64
  C 402.21 505.86 399.32 512.14 397.79 519.52
  Q 395.26 531.79 394.21 535.73
  Q 387.75 560.09 371.82 579.83
  Q 367.57 585.11 359.03 595.05
  C 352.69 602.43 349.36 610.49 358.25 617.49
  Q 361.35 619.93 369.72 627.17
  C 379.74 635.83 386.24 645.80 391.25 658.02
  Q 398.66 676.14 400.84 680.78
  Q 403.96 687.42 406.04 689.63
  C 408.16 691.88 414.07 692.71 416.26 692.70
  Q 433.81 692.63 458.85 693.50
  A 0.31 0.31 0.0 0 0 459.12 693.01
  Q 450.96 681.38 437.83 675.92
  Q 434.06 674.35 427.50 671.98
  C 423.86 670.66 422.57 666.52 425.95 663.87
  A 2.18 2.10 18.0 0 1 426.71 663.50
  C 429.20 662.89 431.39 663.95 433.49 664.24
  C 449.57 666.47 467.68 676.11 472.18 692.45
  A 1.25 1.24 82.4 0 0 473.38 693.37
  L 499.89 693.37
  A 0.43 0.43 0.0 0 0 500.26 692.73"
/>
<path stroke="#5ea1de" vector-effect="non-scaling-stroke" d="
  M 143.57 426.15
  Q 148.85 433.62 151.83 442.61
  A 0.51 0.50 -39.2 0 0 152.75 442.70
  L 157.69 434.16
  A 0.64 0.63 -55.6 0 0 157.54 433.35
  Q 151.42 428.43 143.93 425.69
  A 0.31 0.30 -7.4 0 0 143.57 426.15"
/>
<path stroke="#5ea1de" vector-effect="non-scaling-stroke" d="
  M 114.65 457.36
  Q 116.44 466.59 114.14 476.81
  A 0.56 0.56 0.0 0 0 115.01 477.39
  L 125.33 469.93
  A 0.28 0.28 0.0 0 0 125.39 469.53
  L 115.33 457.04
  A 0.39 0.39 0.0 0 0 114.65 457.36"
/>
<path stroke="#5ea1de" vector-effect="non-scaling-stroke" d="
  M 79.93 468.69
  Q 78.01 474.65 74.23 478.56
  A 0.60 0.59 34.1 0 0 74.42 479.51
  L 81.53 482.66
  A 0.40 0.40 0.0 0 0 82.09 482.26
  L 80.70 468.77
  A 0.40 0.40 0.0 0 0 79.93 468.69"
/>
<path stroke="#5ea1de" vector-effect="non-scaling-stroke" d="
  M 387.33 187.62
  A 4.38 4.38 0.0 0 0 381.30 188.05
  C 371.75 198.54 363.48 207.24 349.30 211.01
  C 347.14 211.58 345.40 213.53 345.98 215.88
  C 347.87 223.57 364.06 216.21 367.99 213.73
  Q 379.11 206.68 388.29 193.59
  A 4.32 4.32 0.0 0 0 387.50 187.77
  L 387.33 187.62"
/>
<path stroke="#5ea1de" vector-effect="non-scaling-stroke" d="
  M 371.48 257.81
  C 372.97 254.64 367.63 251.64 365.40 250.79
  C 358.91 248.33 353.65 245.97 348.76 241.66
  C 345.55 238.84 341.55 236.42 338.20 233.44
  Q 335.26 230.82 335.01 230.51
  C 332.41 227.34 326.96 220.74 323.81 225.99
  Q 321.61 229.67 324.70 233.42
  Q 329.21 238.88 334.76 243.23
  C 339.56 246.99 343.85 251.50 349.04 254.15
  C 353.52 256.43 368.38 264.40 371.48 257.81"
/>
<path stroke="#5ea1de" vector-effect="non-scaling-stroke" d="
  M 424.79 254.43
  C 424.23 252.19 421.84 251.78 420.07 252.78
  Q 414.14 256.14 409.63 258.35
  Q 407.16 259.57 399.56 261.55
  Q 397.12 262.19 396.33 262.90
  C 394.11 264.89 395.64 268.21 398.17 268.62
  C 405.08 269.74 414.78 265.91 420.13 262.39
  C 422.78 260.64 425.57 257.57 424.79 254.43"
/>
<path stroke="#5ea1de" vector-effect="non-scaling-stroke" d="
  M 322.14 293.12
  Q 333.02 297.21 344.93 296.28
  C 348.62 295.99 358.51 295.14 356.87 289.53
  C 356.44 288.06 354.39 286.91 353.00 287.12
  Q 338.97 289.23 325.50 284.17
  Q 312.04 279.11 302.87 268.27
  C 301.96 267.20 299.66 266.72 298.37 267.54
  C 293.44 270.68 300.32 277.83 302.91 280.48
  Q 311.26 289.03 322.14 293.12"
/>
<path stroke="#5ea1de" vector-effect="non-scaling-stroke" d="
  M 344.62 314.99
  C 341.94 311.00 336.08 312.86 332.20 312.40
  Q 325.12 311.56 320.52 310.45
  C 306.19 307.01 292.95 298.37 287.16 284.38
  Q 285.19 279.63 283.83 276.29
  C 282.76 273.66 280.02 271.62 277.36 273.85
  C 275.73 275.22 276.01 277.50 276.55 279.47
  Q 278.29 285.84 280.96 291.78
  C 289.17 310.11 308.22 318.54 327.23 320.87
  C 331.68 321.42 344.93 324.01 344.96 316.11
  A 2.03 1.94 -63.2 0 0 344.62 314.99"
/>
<path stroke="#5ea1de" vector-effect="non-scaling-stroke" d="
  M 379.27 276.62
  C 377.31 275.13 375.49 276.13 375.07 278.38
  Q 374.01 284.11 373.12 289.23
  Q 370.40 304.96 361.43 317.43
  Q 359.56 320.02 359.57 322.64
  C 359.57 325.74 363.93 328.92 366.19 325.75
  C 370.97 319.05 376.05 311.14 378.38 303.41
  Q 381.90 291.73 380.93 280.11
  Q 380.73 277.73 379.27 276.62"
/>
<path stroke="#5ea1de" vector-effect="non-scaling-stroke" d="
  M 258.91 294.23
  A 4.43 4.42 71.3 0 0 256.39 299.33
  Q 261.12 318.70 275.90 329.27
  C 286.59 336.91 301.28 340.01 314.50 340.11
  C 317.50 340.13 326.54 339.86 328.24 336.66
  C 329.67 333.97 327.77 331.55 325.03 331.46
  C 310.95 330.96 298.29 329.50 285.43 322.86
  Q 272.50 316.18 263.99 296.10
  A 3.71 3.71 0.0 0 0 259.08 294.15
  L 258.91 294.23"
/>
<path stroke="#5ea1de" vector-effect="non-scaling-stroke" d="
  M 296.99 354.28
  A 2.68 2.65 41.2 0 0 296.75 350.93
  Q 295.41 349.50 293.19 349.07
  Q 291.99 348.84 281.93 346.30
  Q 265.02 342.04 253.65 326.82
  A 3.40 3.40 0.0 0 0 248.26 326.75
  L 248.05 327.02
  A 5.60 5.60 0.0 0 0 247.99 333.87
  C 258.52 347.71 275.02 357.96 292.73 356.52
  Q 295.58 356.29 296.99 354.28"
/>
<path stroke="#5ea1de" vector-effect="non-scaling-stroke" d="
  M 330.79 346.59
  Q 324.16 349.27 317.26 351.30
  Q 314.07 352.24 313.12 354.17
  Q 311.23 357.98 314.88 359.24
  Q 317.15 360.02 321.74 359.10
  Q 329.18 357.61 334.40 355.51
  Q 339.61 353.40 345.99 349.30
  Q 349.93 346.77 351.02 344.63
  Q 352.77 341.19 348.77 339.76
  Q 346.74 339.03 343.80 340.57
  Q 337.42 343.91 330.79 346.59"
/>
<path stroke="#5ea1de" vector-effect="non-scaling-stroke" d="
  M 229.05 470.74
  Q 240.76 490.20 257.08 504.18
  C 261.36 507.84 266.09 502.29 262.28 498.41
  C 252.47 488.42 243.67 477.85 236.65 466.17
  C 229.62 454.49 224.40 441.76 220.17 428.42
  C 218.53 423.23 211.41 424.81 212.64 430.31
  Q 217.34 451.28 229.05 470.74"
/>
<path stroke="#5ea1de" vector-effect="non-scaling-stroke" d="
  M 410.14 452.45
  C 415.58 450.76 413.71 445.07 408.87 444.90
  Q 397.95 444.53 389.53 443.67
  Q 369.85 441.64 350.30 433.78
  A 4.00 4.00 0.0 0 0 344.97 436.36
  L 344.91 436.57
  A 5.17 5.16 21.1 0 0 347.62 442.68
  Q 372.99 454.89 398.99 454.15
  Q 405.25 453.97 410.14 452.45"
/>
</g>
<g fill="#afdafa">
<path d="
  M 201.16 38.81
  A 0.30 0.30 0.0 0 1 201.02 38.25
  Q 205.41 35.48 208.91 33.91
  Q 228.59 25.11 249.74 20.24
  Q 271.42 15.25 292.27 14.09
  Q 370.57 9.73 441.82 42.96
  C 474.25 58.09 504.34 78.02 530.42 102.82
  C 545.87 117.51 560.61 135.71 567.03 155.23
  C 571.91 170.05 571.31 185.73 568.05 201.03
  Q 567.53 203.50 566.53 205.30
  A 2.81 2.80 13.5 0 1 564.16 206.75
  Q 558.38 206.96 552.98 206.05
  Q 537.26 203.43 522.79 197.22
  C 494.39 185.04 467.81 167.00 445.81 146.91
  Q 426.29 129.08 418.02 122.26
  C 379.44 90.47 332.15 71.48 285.18 55.86
  Q 243.61 42.03 201.16 38.81
  Z"
/>
<path d="
  M 277.02 83.51
  A 0.39 0.39 0.0 0 1 276.44 83.94
  Q 271.11 80.75 267.20 75.53
  Q 260.00 65.91 255.66 60.72
  A 0.30 0.30 0.0 0 1 255.97 60.23
  L 275.75 65.73
  A 0.71 0.70 12.6 0 1 276.26 66.53
  Q 274.85 74.32 277.02 83.51
  Z"
/>
<path d="
  M 286.19 69.51
  A 0.56 0.55 -76.3 0 1 286.94 69.05
  L 303.25 75.13
  A 0.71 0.70 -71.2 0 1 303.67 76.00
  Q 300.63 85.63 304.10 95.74
  A 0.06 0.06 0.0 0 1 304.03 95.81
  L 291.39 91.90
  A 0.75 0.71 82.1 0 1 290.96 91.56
  Q 284.92 81.01 286.19 69.51
  Z"
/>
<path d="
  M 331.05 102.40
  A 0.23 0.23 0.0 0 1 330.77 102.71
  L 318.45 99.29
  A 2.90 2.89 84.2 0 1 316.63 97.80
  Q 312.18 88.93 313.37 79.33
  A 0.76 0.75 -75.5 0 1 314.40 78.72
  L 330.52 85.30
  A 0.71 0.70 -68.5 0 1 330.91 86.20
  Q 327.80 94.29 331.05 102.40
  Z"
/>
<path d="
  M 358.08 112.11
  A 0.26 0.26 0.0 0 1 357.72 112.42
  L 345.10 106.82
  A 2.47 2.45 87.1 0 1 343.96 105.78
  Q 339.60 98.08 340.40 89.64
  A 0.96 0.96 0.0 0 1 341.75 88.86
  L 359.30 96.65
  A 0.48 0.48 0.0 0 1 359.52 97.31
  Q 355.81 104.13 358.08 112.11
  Z"
/>
<path d="
  M 92.40 117.01
  A 0.28 0.28 0.0 0 1 92.78 117.41
  C 84.34 129.65 78.93 146.56 83.65 160.92
  Q 86.40 169.29 93.44 177.09
  C 95.47 179.35 99.04 180.54 100.71 177.35
  C 101.83 175.21 100.30 172.99 99.33 170.94
  Q 98.63 169.48 99.59 167.05
  Q 104.87 153.58 117.05 144.62
  C 122.12 140.89 130.27 138.23 135.06 136.45
  A 0.40 0.40 0.0 0 1 135.45 137.14
  C 120.87 148.48 109.66 165.37 112.08 184.58
  C 113.79 198.15 121.38 207.46 135.97 206.89
  C 139.28 206.76 143.73 206.25 146.84 204.76
  A 0.26 0.26 0.0 0 1 147.19 205.11
  C 140.21 219.60 126.90 224.14 113.26 229.98
  Q 111.49 230.74 110.58 232.31
  C 107.86 236.97 118.60 250.71 121.68 254.47
  Q 130.42 265.18 135.25 272.49
  Q 140.21 280.02 140.97 289.02
  C 141.38 293.76 148.01 293.39 148.73 289.22
  Q 150.41 279.49 147.39 270.97
  A 0.84 0.84 0.0 0 1 147.71 270.00
  Q 150.31 268.22 153.15 265.65
  C 173.48 247.22 184.68 236.69 194.99 228.99
  Q 206.45 220.42 218.94 217.45
  Q 225.96 215.78 227.60 215.25
  A 6.38 6.21 -70.0 0 0 229.09 214.53
  Q 235.79 210.23 241.11 206.12
  C 256.87 193.94 278.29 185.51 297.71 195.56
  Q 305.81 199.75 311.74 204.99
  C 313.32 206.39 316.35 206.09 317.49 204.20
  C 320.56 199.13 315.07 194.03 310.78 190.87
  A 0.25 0.25 0.0 0 1 310.94 190.41
  Q 329.31 191.42 346.81 187.37
  C 358.02 184.78 370.85 179.69 378.85 171.13
  C 392.62 156.38 391.24 135.83 376.06 122.80
  Q 372.63 119.85 371.53 117.81
  Q 367.41 110.14 368.14 102.27
  A 0.44 0.43 -73.9 0 1 368.77 101.92
  Q 377.85 106.62 386.28 112.47
  Q 400.56 122.39 412.33 132.43
  Q 421.02 139.83 438.93 157.06
  Q 443.22 161.18 447.30 164.52
  A 0.55 0.54 -56.9 0 1 447.44 165.20
  C 441.47 176.60 436.96 190.91 437.68 203.93
  C 438.13 212.06 441.56 220.23 445.53 227.27
  Q 462.64 257.60 494.73 274.26
  Q 496.86 275.37 499.48 276.25
  A 0.50 0.49 -53.2 0 1 499.60 277.12
  C 488.49 285.12 474.91 281.11 465.63 272.60
  Q 459.53 267.01 454.41 259.56
  Q 449.85 252.94 437.67 234.35
  C 432.45 226.38 425.32 217.26 421.45 212.42
  Q 415.70 205.23 413.88 200.78
  C 408.62 187.92 411.32 176.00 416.34 163.48
  A 0.36 0.36 0.0 0 1 416.99 163.44
  Q 419.66 168.10 420.18 173.56
  Q 420.82 180.36 420.73 194.52
  A 3.61 3.61 0.0 0 0 423.94 198.14
  L 424.12 198.16
  A 3.10 3.09 5.9 0 0 427.54 195.38
  C 428.23 188.51 428.08 178.31 427.21 171.89
  Q 425.61 160.18 417.41 150.81
  C 413.47 146.31 409.40 145.69 407.40 152.32
  C 403.74 164.46 400.90 172.62 399.86 183.28
  Q 398.07 201.77 409.45 216.46
  A 0.92 0.92 0.0 0 1 409.36 217.68
  Q 395.72 230.91 387.20 248.92
  C 386.02 251.42 388.37 253.41 390.83 253.26
  A 1.91 1.90 -64.9 0 0 391.81 252.90
  Q 393.93 251.35 395.80 249.03
  C 402.50 240.72 408.43 233.62 416.61 227.83
  A 0.65 0.65 0.0 0 1 417.52 227.99
  Q 431.81 249.19 443.55 268.41
  Q 444.14 269.38 449.14 275.43
  A 8.52 8.15 -78.6 0 1 450.29 277.25
  Q 452.73 282.46 453.92 286.86
  Q 460.60 311.63 462.13 318.58
  Q 464.25 328.21 465.17 335.75
  A 2.25 2.23 -24.1 0 1 464.42 337.70
  C 461.07 340.59 452.79 346.59 455.74 350.67
  C 457.10 352.56 458.82 352.92 461.03 351.87
  C 467.68 348.72 474.41 346.37 481.98 344.54
  Q 487.09 343.31 498.15 342.95
  C 520.61 342.22 542.29 338.54 564.43 331.44
  C 570.44 329.51 574.87 327.95 578.14 322.38
  Q 581.71 316.28 585.19 310.94
  C 593.11 298.77 605.74 289.54 620.26 287.32
  Q 627.06 286.28 632.54 285.94
  A 0.37 0.37 0.0 0 1 632.72 286.65
  C 619.09 292.77 607.86 301.65 599.54 314.57
  Q 597.09 318.37 598.82 321.66
  Q 601.00 325.78 605.51 324.24
  Q 625.11 317.55 645.26 318.67
  Q 654.09 319.16 662.05 322.42
  A 0.23 0.23 0.0 0 1 661.94 322.86
  Q 649.27 321.44 636.05 325.47
  Q 631.90 326.74 627.23 329.16
  C 622.53 331.60 612.06 335.90 615.87 342.49
  Q 617.46 345.24 620.21 345.81
  C 629.62 347.76 637.62 349.97 644.84 356.41
  A 0.26 0.26 0.0 0 1 644.57 356.85
  Q 638.98 354.51 632.99 353.71
  C 621.12 352.12 609.44 352.84 598.25 353.35
  Q 592.32 353.62 579.29 350.43
  C 576.42 349.73 572.35 350.93 569.15 352.26
  Q 550.54 359.99 535.17 365.42
  Q 499.06 378.19 461.58 380.22
  Q 456.42 380.50 452.43 376.96
  Q 447.39 372.47 441.41 364.71
  C 431.76 352.20 422.90 340.33 416.09 326.85
  A 1.18 1.17 -39.6 0 1 416.21 325.62
  C 419.29 321.62 421.77 315.51 423.27 311.44
  A 9.93 9.87 -15.2 0 1 424.96 308.51
  C 429.22 303.37 432.11 298.15 433.14 291.46
  Q 434.50 282.58 434.12 272.76
  A 1.69 1.68 23.0 0 0 433.68 271.68
  Q 432.30 270.19 430.58 270.44
  Q 429.37 270.62 428.97 272.10
  Q 425.16 286.28 423.43 291.43
  Q 419.97 301.74 409.68 303.12
  C 402.03 304.16 397.02 301.05 391.65 296.40
  Q 390.41 295.34 388.86 296.01
  Q 385.75 297.34 386.74 301.02
  C 389.03 309.58 401.47 314.04 408.80 312.66
  A 0.44 0.43 -81.4 0 1 409.26 313.29
  Q 406.41 318.66 405.20 319.98
  Q 393.85 332.35 380.19 322.06
  A 2.74 2.73 -61.2 0 0 375.99 323.28
  L 375.93 323.43
  A 5.32 5.32 0.0 0 0 377.26 329.18
  Q 382.67 334.29 389.65 336.39
  A 0.53 0.53 0.0 0 1 389.90 337.24
  Q 383.16 345.08 373.12 344.92
  Q 370.59 344.88 368.95 344.26
  C 366.91 343.49 360.62 340.92 359.87 345.47
  C 359.28 349.00 362.47 352.08 365.47 353.50
  A 0.48 0.48 0.0 0 1 365.54 354.33
  C 359.16 358.72 352.92 359.76 345.54 358.16
  C 341.96 357.38 339.59 358.87 337.20 361.20
  C 326.42 371.69 324.68 387.59 322.34 401.61
  C 320.37 413.40 315.50 425.88 307.31 435.01
  A 0.42 0.42 0.0 0 1 306.63 434.93
  C 295.34 414.06 282.47 394.20 263.62 379.92
  Q 254.20 372.78 241.61 368.77
  A 3.72 3.72 0.0 0 0 236.86 371.45
  L 236.77 371.80
  A 4.64 4.63 19.7 0 0 239.26 377.05
  Q 259.74 386.92 274.42 406.61
  Q 289.26 426.51 297.62 446.09
  Q 315.22 487.27 318.39 531.27
  C 318.97 539.38 318.57 547.52 313.86 554.11
  Q 309.43 560.31 304.99 563.25
  Q 300.43 566.28 290.93 570.39
  C 274.65 577.43 258.54 582.09 241.01 587.53
  Q 221.09 593.70 203.02 600.53
  Q 195.72 603.29 190.45 605.93
  Q 187.67 607.32 186.05 608.96
  A 2.64 2.64 0.0 0 0 185.42 611.62
  C 189.96 625.60 195.67 639.73 204.22 651.10
  Q 209.28 657.82 217.25 662.75
  C 222.01 665.70 228.42 666.74 233.47 669.39
  Q 249.51 677.81 258.72 693.45
  A 0.49 0.48 -15.2 0 1 258.30 694.18
  L 246.70 694.18
  A 0.87 0.86 -10.2 0 1 245.89 693.62
  C 242.86 685.64 237.47 677.91 230.58 672.75
  Q 229.54 671.97 222.45 667.34
  Q 218.73 664.92 214.66 665.63
  C 209.90 666.46 210.43 671.51 213.97 673.52
  C 222.70 678.47 229.85 684.60 234.49 693.62
  A 0.45 0.45 0.0 0 1 234.09 694.28
  L 218.44 694.28
  A 0.96 0.96 0.0 0 1 217.56 693.70
  Q 213.66 684.64 207.51 677.00
  Q 203.87 672.47 195.20 667.77
  C 192.90 666.51 189.87 666.52 188.47 668.75
  C 187.24 670.70 188.25 673.33 189.71 674.56
  C 196.44 680.23 202.30 685.19 205.90 693.71
  A 0.39 0.39 0.0 0 1 205.55 694.25
  Q 194.71 694.40 183.27 694.29
  C 176.07 694.22 172.78 691.19 170.41 684.39
  Q 167.97 677.37 166.78 669.22
  Q 164.36 652.56 163.05 644.94
  Q 161.15 633.85 159.00 628.30
  C 156.73 622.45 153.12 616.28 150.38 609.59
  Q 149.45 607.34 149.19 605.55
  C 148.17 598.63 152.64 596.13 158.63 593.52
  Q 172.17 587.61 181.59 582.58
  Q 196.71 574.50 208.26 562.00
  Q 215.96 553.67 219.99 549.51
  Q 232.43 536.67 250.23 535.57
  Q 252.87 535.40 254.82 536.94
  Q 260.40 541.35 266.17 544.37
  C 269.73 546.24 275.61 546.49 275.45 540.99
  Q 275.38 538.51 272.57 536.17
  C 236.24 505.93 206.73 469.05 195.73 423.23
  C 192.14 408.26 194.96 394.73 202.18 381.36
  C 205.47 375.27 209.25 368.72 214.28 363.01
  C 218.13 358.65 222.35 350.53 224.33 345.83
  C 227.78 337.65 228.37 329.82 229.38 320.37
  C 230.11 313.52 232.27 305.31 235.17 297.16
  Q 237.16 291.58 238.73 285.91
  A 5.20 5.14 -13.2 0 1 240.32 283.38
  Q 252.06 273.06 260.90 261.71
  A 3.77 3.75 -71.6 0 1 263.78 260.26
  C 275.52 259.95 287.72 258.18 297.98 252.01
  C 302.06 249.56 301.12 245.95 297.92 243.30
  C 296.52 242.15 294.65 242.39 293.03 243.23
  C 282.58 248.62 272.04 248.78 259.74 248.07
  Q 248.41 247.41 238.51 245.07
  C 235.49 244.36 232.96 247.55 234.19 250.52
  C 235.64 254.02 243.87 256.00 247.85 256.80
  A 0.36 0.35 26.1 0 1 248.05 257.38
  Q 233.30 274.63 213.14 284.66
  C 198.59 291.90 182.70 299.03 165.37 305.44
  Q 152.28 310.28 136.02 316.78
  Q 131.83 318.45 126.39 319.33
  C 117.46 320.77 112.09 316.11 107.16 309.15
  C 94.89 291.85 89.14 269.47 86.89 247.88
  Q 85.22 231.83 85.09 230.98
  C 84.63 227.76 83.99 225.94 82.17 223.25
  Q 74.98 212.64 72.15 199.89
  C 69.62 188.51 68.86 177.02 67.47 166.90
  Q 66.04 156.36 66.99 150.44
  C 69.38 135.72 79.91 124.44 92.40 117.01
  Z
  M 387.33 187.62
  A 4.38 4.38 0.0 0 0 381.30 188.05
  C 371.75 198.54 363.48 207.24 349.30 211.01
  C 347.14 211.58 345.40 213.53 345.98 215.88
  C 347.87 223.57 364.06 216.21 367.99 213.73
  Q 379.11 206.68 388.29 193.59
  A 4.32 4.32 0.0 0 0 387.50 187.77
  L 387.33 187.62
  Z
  M 371.48 257.81
  C 372.97 254.64 367.63 251.64 365.40 250.79
  C 358.91 248.33 353.65 245.97 348.76 241.66
  C 345.55 238.84 341.55 236.42 338.20 233.44
  Q 335.26 230.82 335.01 230.51
  C 332.41 227.34 326.96 220.74 323.81 225.99
  Q 321.61 229.67 324.70 233.42
  Q 329.21 238.88 334.76 243.23
  C 339.56 246.99 343.85 251.50 349.04 254.15
  C 353.52 256.43 368.38 264.40 371.48 257.81
  Z
  M 424.79 254.43
  C 424.23 252.19 421.84 251.78 420.07 252.78
  Q 414.14 256.14 409.63 258.35
  Q 407.16 259.57 399.56 261.55
  Q 397.12 262.19 396.33 262.90
  C 394.11 264.89 395.64 268.21 398.17 268.62
  C 405.08 269.74 414.78 265.91 420.13 262.39
  C 422.78 260.64 425.57 257.57 424.79 254.43
  Z
  M 322.14 293.12
  Q 333.02 297.21 344.93 296.28
  C 348.62 295.99 358.51 295.14 356.87 289.53
  C 356.44 288.06 354.39 286.91 353.00 287.12
  Q 338.97 289.23 325.50 284.17
  Q 312.04 279.11 302.87 268.27
  C 301.96 267.20 299.66 266.72 298.37 267.54
  C 293.44 270.68 300.32 277.83 302.91 280.48
  Q 311.26 289.03 322.14 293.12
  Z
  M 344.62 314.99
  C 341.94 311.00 336.08 312.86 332.20 312.40
  Q 325.12 311.56 320.52 310.45
  C 306.19 307.01 292.95 298.37 287.16 284.38
  Q 285.19 279.63 283.83 276.29
  C 282.76 273.66 280.02 271.62 277.36 273.85
  C 275.73 275.22 276.01 277.50 276.55 279.47
  Q 278.29 285.84 280.96 291.78
  C 289.17 310.11 308.22 318.54 327.23 320.87
  C 331.68 321.42 344.93 324.01 344.96 316.11
  A 2.03 1.94 -63.2 0 0 344.62 314.99
  Z
  M 379.27 276.62
  C 377.31 275.13 375.49 276.13 375.07 278.38
  Q 374.01 284.11 373.12 289.23
  Q 370.40 304.96 361.43 317.43
  Q 359.56 320.02 359.57 322.64
  C 359.57 325.74 363.93 328.92 366.19 325.75
  C 370.97 319.05 376.05 311.14 378.38 303.41
  Q 381.90 291.73 380.93 280.11
  Q 380.73 277.73 379.27 276.62
  Z
  M 258.91 294.23
  A 4.43 4.42 71.3 0 0 256.39 299.33
  Q 261.12 318.70 275.90 329.27
  C 286.59 336.91 301.28 340.01 314.50 340.11
  C 317.50 340.13 326.54 339.86 328.24 336.66
  C 329.67 333.97 327.77 331.55 325.03 331.46
  C 310.95 330.96 298.29 329.50 285.43 322.86
  Q 272.50 316.18 263.99 296.10
  A 3.71 3.71 0.0 0 0 259.08 294.15
  L 258.91 294.23
  Z
  M 296.99 354.28
  A 2.68 2.65 41.2 0 0 296.75 350.93
  Q 295.41 349.50 293.19 349.07
  Q 291.99 348.84 281.93 346.30
  Q 265.02 342.04 253.65 326.82
  A 3.40 3.40 0.0 0 0 248.26 326.75
  L 248.05 327.02
  A 5.60 5.60 0.0 0 0 247.99 333.87
  C 258.52 347.71 275.02 357.96 292.73 356.52
  Q 295.58 356.29 296.99 354.28
  Z
  M 330.79 346.59
  Q 324.16 349.27 317.26 351.30
  Q 314.07 352.24 313.12 354.17
  Q 311.23 357.98 314.88 359.24
  Q 317.15 360.02 321.74 359.10
  Q 329.18 357.61 334.40 355.51
  Q 339.61 353.40 345.99 349.30
  Q 349.93 346.77 351.02 344.63
  Q 352.77 341.19 348.77 339.76
  Q 346.74 339.03 343.80 340.57
  Q 337.42 343.91 330.79 346.59
  Z
  M 229.05 470.74
  Q 240.76 490.20 257.08 504.18
  C 261.36 507.84 266.09 502.29 262.28 498.41
  C 252.47 488.42 243.67 477.85 236.65 466.17
  C 229.62 454.49 224.40 441.76 220.17 428.42
  C 218.53 423.23 211.41 424.81 212.64 430.31
  Q 217.34 451.28 229.05 470.74
  Z"
/>
<path d="
  M 224.42 131.73
  Q 231.92 133.54 239.05 137.48
  C 255.90 146.79 267.97 160.76 277.57 177.23
  A 0.46 0.46 0.0 0 1 277.21 177.92
  Q 265.10 178.77 253.65 183.97
  A 0.89 0.89 0.0 0 1 252.41 183.34
  C 248.24 163.52 238.11 146.44 224.23 132.06
  A 0.20 0.20 0.0 0 1 224.42 131.73
  Z"
/>
<path d="
  M 320.92 148.85
  A 0.17 0.16 -83.0 0 1 321.17 148.65
  Q 334.42 159.24 340.44 174.60
  A 0.73 0.73 0.0 0 1 339.83 175.59
  L 327.73 176.84
  A 0.50 0.49 -3.8 0 1 327.18 176.37
  C 326.76 167.93 324.60 156.91 320.92 148.85
  Z"
/>
<path d="
  M 189.16 187.45
  Q 202.15 193.98 212.87 204.78
  A 0.33 0.33 0.0 0 1 212.77 205.31
  L 201.14 210.76
  A 0.39 0.39 0.0 0 1 200.60 210.52
  Q 196.80 198.18 188.85 187.82
  A 0.25 0.25 0.0 0 1 189.16 187.45
  Z"
/>
<path d="
  M 192.58 339.42
  Q 202.69 340.18 211.09 342.93
  A 0.61 0.60 -66.0 0 1 211.42 343.81
  L 204.55 355.71
  A 0.67 0.66 46.9 0 1 203.38 355.67
  Q 198.55 345.89 192.33 340.00
  A 0.34 0.33 68.7 0 1 192.58 339.42
  Z"
/>
<path d="
  M 181.77 416.32
  A 0.07 0.07 0.0 0 1 181.90 416.34
  Q 186.71 449.23 203.92 477.61
  Q 207.80 484.00 211.96 490.23
  A 0.66 0.66 0.0 0 1 211.86 491.07
  Q 201.95 500.53 192.11 508.34
  C 156.83 536.34 109.58 551.36 66.58 532.90
  C 39.74 521.37 23.67 496.00 22.88 467.01
  C 22.04 436.76 30.60 410.51 51.43 388.11
  C 57.46 381.62 65.02 376.76 72.83 372.30
  A 0.24 0.24 0.0 0 1 73.15 372.65
  Q 64.61 384.82 58.24 397.04
  Q 46.33 419.91 46.39 446.49
  C 46.41 457.94 48.07 467.34 54.43 476.06
  A 0.78 0.77 -38.7 0 1 54.31 477.10
  C 50.43 480.49 46.97 484.05 45.84 488.81
  C 45.41 490.61 45.39 493.82 47.49 494.83
  Q 49.92 496.00 51.51 493.75
  Q 56.03 487.35 60.22 484.91
  A 0.70 0.70 0.0 0 1 61.06 485.01
  Q 66.05 489.93 72.67 492.35
  A 0.28 0.28 0.0 0 1 72.82 492.76
  Q 69.26 498.70 69.09 505.03
  C 69.02 507.73 68.41 512.48 72.22 512.98
  A 2.93 2.85 -74.6 0 0 75.22 511.22
  Q 78.53 503.46 83.90 496.32
  A 0.51 0.48 21.1 0 1 84.37 496.13
  Q 91.75 497.23 98.48 496.47
  A 0.24 0.24 0.0 0 1 98.74 496.75
  C 97.25 504.38 98.13 513.28 105.87 517.10
  C 108.40 518.35 110.88 515.35 110.09 512.88
  Q 107.65 505.28 110.37 496.56
  C 111.03 494.47 111.35 493.35 113.37 492.21
  Q 120.93 487.96 128.59 483.03
  A 0.45 0.45 0.0 0 1 129.28 483.40
  C 129.29 483.97 128.71 484.85 128.90 485.62
  C 130.39 491.95 134.21 501.61 141.28 502.49
  C 144.44 502.89 146.53 501.56 146.16 498.17
  A 2.15 2.11 -67.9 0 0 145.72 497.10
  Q 139.02 488.49 139.85 475.59
  A 2.24 2.21 -19.1 0 1 140.60 474.07
  Q 148.64 466.97 156.49 456.96
  A 0.40 0.40 0.0 0 1 157.20 457.13
  Q 158.71 464.23 163.24 469.72
  C 166.06 473.14 170.97 476.35 175.50 475.22
  C 178.02 474.59 179.33 472.11 178.30 469.71
  A 2.38 2.30 11.1 0 0 177.75 468.92
  Q 177.08 468.27 174.70 466.32
  C 169.02 461.67 167.25 452.56 166.91 445.55
  A 6.39 6.31 58.2 0 1 167.68 442.18
  L 181.77 416.32
  Z"
/>
<path d="
  M 178.99 396.38
  A 0.41 0.40 -44.8 0 1 178.28 396.38
  Q 173.62 387.70 166.96 381.25
  A 0.21 0.21 0.0 0 1 167.15 380.90
  Q 175.32 382.58 183.28 386.15
  A 1.05 1.05 0.0 0 1 183.77 387.61
  L 178.99 396.38
  Z"
/>
<path d="
  M 500.26 692.73
  A 0.43 0.43 0.0 0 1 499.89 693.37
  L 473.38 693.37
  A 1.25 1.24 82.4 0 1 472.18 692.45
  C 467.68 676.11 449.57 666.47 433.49 664.24
  C 431.39 663.95 429.20 662.89 426.71 663.50
  A 2.18 2.10 18.0 0 0 425.95 663.87
  C 422.57 666.52 423.86 670.66 427.50 671.98
  Q 434.06 674.35 437.83 675.92
  Q 450.96 681.38 459.12 693.01
  A 0.31 0.31 0.0 0 1 458.85 693.50
  Q 433.81 692.63 416.26 692.70
  C 414.07 692.71 408.16 691.88 406.04 689.63
  Q 403.96 687.42 400.84 680.78
  Q 398.66 676.14 391.25 658.02
  C 386.24 645.80 379.74 635.83 369.72 627.17
  Q 361.35 619.93 358.25 617.49
  C 349.36 610.49 352.69 602.43 359.03 595.05
  Q 367.57 585.11 371.82 579.83
  Q 387.75 560.09 394.21 535.73
  Q 395.26 531.79 397.79 519.52
  C 399.32 512.14 402.21 505.86 407.12 499.64
  Q 410.80 494.97 415.26 490.01
  C 416.94 488.13 418.08 487.24 420.66 486.71
  C 430.82 484.61 442.76 482.29 450.84 475.62
  C 453.26 473.61 455.58 469.18 451.28 467.63
  C 449.75 467.09 446.26 467.99 444.45 468.62
  Q 430.31 473.58 422.54 474.60
  Q 385.08 479.54 347.27 472.71
  Q 332.91 470.12 319.46 464.20
  A 3.02 3.01 3.2 0 1 317.82 462.37
  L 312.86 446.87
  A 0.47 0.46 -26.6 0 1 313.04 446.34
  Q 318.38 442.66 322.02 436.50
  Q 333.31 417.34 336.15 394.95
  A 0.65 0.64 1.1 0 1 336.73 394.40
  Q 338.07 394.28 340.73 394.61
  Q 408.23 402.87 464.63 440.16
  C 478.23 449.14 494.80 461.30 485.78 480.29
  C 482.29 487.64 477.15 495.99 472.36 502.39
  Q 459.43 519.66 445.10 535.36
  Q 434.33 547.16 397.71 587.97
  Q 393.57 592.58 391.28 596.26
  C 389.25 599.52 387.49 604.14 391.28 606.89
  Q 399.16 612.61 404.95 620.05
  Q 415.62 633.78 422.40 642.10
  Q 435.15 657.74 454.62 663.86
  Q 466.59 667.63 469.65 668.58
  Q 489.94 674.89 500.26 692.73
  Z
  M 410.14 452.45
  C 415.58 450.76 413.71 445.07 408.87 444.90
  Q 397.95 444.53 389.53 443.67
  Q 369.85 441.64 350.30 433.78
  A 4.00 4.00 0.0 0 0 344.97 436.36
  L 344.91 436.57
  A 5.17 5.16 21.1 0 0 347.62 442.68
  Q 372.99 454.89 398.99 454.15
  Q 405.25 453.97 410.14 452.45
  Z"
/>
<path d="
  M 143.93 425.69
  Q 151.42 428.43 157.54 433.35
  A 0.64 0.63 -55.6 0 1 157.69 434.16
  L 152.75 442.70
  A 0.51 0.50 -39.2 0 1 151.83 442.61
  Q 148.85 433.62 143.57 426.15
  A 0.31 0.30 -7.4 0 1 143.93 425.69
  Z"
/>
<path d="
  M 115.33 457.04
  L 125.39 469.53
  A 0.28 0.28 0.0 0 1 125.33 469.93
  L 115.01 477.39
  A 0.56 0.56 0.0 0 1 114.14 476.81
  Q 116.44 466.59 114.65 457.36
  A 0.39 0.39 0.0 0 1 115.33 457.04
  Z"
/>
<path d="
  M 80.70 468.77
  L 82.09 482.26
  A 0.40 0.40 0.0 0 1 81.53 482.66
  L 74.42 479.51
  A 0.60 0.59 34.1 0 1 74.23 478.56
  Q 78.01 474.65 79.93 468.69
  A 0.40 0.40 0.0 0 1 80.70 468.77
  Z"
/>
</g>
<g fill="#0d68c2">
<path d="
  M 339.43 382.03
  Q 340.76 381.95 341.50 382.03
  Q 361.10 384.17 381.64 389.59
  Q 423.14 400.52 458.21 421.03
  Q 470.14 428.00 480.57 435.94
  C 486.63 440.56 492.53 445.85 496.25 452.27
  Q 505.85 468.80 497.07 486.34
  C 490.90 498.67 482.11 510.56 472.90 521.92
  C 454.29 544.87 428.79 571.49 408.81 593.81
  Q 406.59 596.28 404.74 598.93
  A 1.04 1.02 41.8 0 0 404.82 600.20
  Q 418.54 615.68 430.91 632.63
  Q 437.62 641.82 447.60 647.70
  Q 450.10 649.17 459.39 652.33
  Q 462.58 653.41 477.19 657.55
  C 491.87 661.72 503.81 673.27 511.99 686.50
  Q 512.90 687.97 515.00 688.07
  Q 531.01 688.84 548.53 693.98
  Q 552.40 695.11 555.24 697.59
  A 2.29 2.29 0.0 0 1 555.56 700.71
  C 552.36 704.89 543.12 706.52 536.55 707.81
  Q 524.49 710.19 503.73 712.37
  Q 490.97 713.71 454.25 716.42
  Q 449.10 716.80 437.76 717.20
  Q 434.95 717.30 431.40 717.62
  C 421.95 718.47 415.78 717.76 407.01 718.45
  Q 400.73 718.94 397.00 718.94
  Q 373.39 718.99 371.42 718.96
  Q 369.94 718.93 365.67 719.38
  Q 361.24 719.85 359.89 719.89
  Q 350.15 720.18 302.75 719.87
  Q 299.74 719.85 296.71 719.50
  Q 292.13 718.98 290.70 718.98
  C 278.97 718.99 270.71 719.08 260.43 718.41
  C 252.11 717.87 245.86 718.18 238.86 717.59
  Q 234.70 717.24 221.11 716.86
  C 204.19 716.39 185.96 714.56 170.11 713.19
  Q 159.88 712.31 151.40 711.14
  C 141.74 709.82 112.92 706.66 110.15 700.64
  A 3.04 2.69 -31.0 0 1 111.24 697.18
  Q 115.18 694.30 120.59 693.07
  Q 135.66 689.65 143.27 688.77
  Q 144.20 688.67 155.34 687.62
  A 1.65 1.63 23.2 0 0 156.23 687.27
  Q 157.43 686.33 156.81 683.98
  Q 154.07 673.69 151.32 649.91
  Q 150.39 641.78 146.89 631.49
  C 145.07 626.14 141.95 620.86 139.79 615.72
  C 135.25 604.96 134.53 592.16 145.80 585.80
  Q 151.54 582.56 166.45 575.97
  Q 182.37 568.94 194.07 558.81
  Q 197.55 555.80 208.55 543.80
  Q 221.43 529.73 239.65 524.67
  A 0.74 0.73 59.3 0 0 239.96 523.43
  Q 231.61 515.25 222.62 504.87
  Q 221.66 503.76 221.13 502.76
  A 1.76 1.76 0.0 0 0 218.31 502.36
  C 209.36 511.62 198.15 519.82 188.39 526.60
  C 171.09 538.63 151.08 548.02 130.19 551.83
  Q 110.55 555.41 90.21 552.36
  C 64.43 548.50 42.12 537.29 26.56 516.22
  Q 21.82 509.80 19.11 502.88
  A 1.40 1.38 83.0 0 0 18.01 502.01
  C 14.80 501.55 10.75 501.03 8.59 498.16
  C 4.67 492.94 7.97 488.53 12.49 485.47
  A 0.72 0.71 55.2 0 0 12.67 484.46
  L 12.37 484.05
  A 0.86 0.84 23.8 0 1 12.23 483.70
  Q 11.55 479.01 10.56 470.73
  C 10.33 468.78 9.63 466.60 7.48 465.73
  C 3.10 463.98 -0.76 459.16 1.76 454.31
  C 3.45 451.07 6.29 450.17 9.75 449.63
  A 0.94 0.93 6.7 0 0 10.47 449.07
  Q 11.79 445.94 11.80 445.74
  Q 12.16 439.62 13.45 434.18
  A 2.11 2.10 -65.4 0 0 12.65 432.00
  Q 8.74 429.12 8.10 425.27
  C 7.50 421.74 7.88 418.32 11.44 416.31
  A 2.04 2.02 -59.8 0 1 12.45 416.04
  L 18.79 416.04
  A 1.61 1.60 11.8 0 0 20.26 415.08
  L 24.57 405.38
  A 2.51 2.51 0.0 0 0 24.52 403.22
  C 22.23 398.70 21.32 389.89 28.67 389.19
  Q 31.99 388.88 35.00 388.92
  A 0.88 0.87 14.3 0 0 35.79 388.46
  Q 39.77 380.94 45.68 375.92
  C 56.95 366.34 69.91 358.73 84.18 354.70
  C 88.23 353.56 92.58 352.86 95.44 356.62
  Q 98.53 360.69 95.61 365.10
  Q 94.75 366.39 86.81 376.07
  Q 80.07 384.29 73.49 394.97
  Q 57.90 420.31 59.28 451.24
  Q 59.80 463.05 66.45 472.81
  A 0.75 0.74 47.7 0 0 67.64 472.87
  Q 70.08 469.94 71.32 465.56
  C 71.96 463.30 72.35 449.99 77.52 448.95
  Q 82.33 447.99 84.97 451.75
  C 90.79 460.04 93.06 472.04 93.12 481.95
  C 93.14 486.10 100.94 483.06 102.86 482.01
  A 2.21 2.18 -15.1 0 0 104.00 480.06
  C 103.96 475.23 105.33 470.64 104.99 466.27
  Q 104.42 458.98 102.35 450.70
  Q 101.65 447.93 102.43 444.35
  A 1.72 1.70 75.7 0 1 102.97 443.43
  C 107.79 439.15 117.41 445.38 121.58 448.17
  Q 129.46 453.44 133.41 461.79
  A 0.60 0.60 0.0 0 0 134.24 462.06
  Q 140.23 458.82 143.40 453.00
  A 1.34 1.30 52.0 0 0 143.51 451.98
  Q 138.57 435.40 126.35 423.80
  C 124.68 422.22 124.26 419.07 125.67 417.02
  Q 128.38 413.11 132.90 412.87
  C 142.61 412.34 155.74 414.89 163.77 421.33
  A 1.36 1.35 -54.6 0 0 165.77 420.99
  Q 168.08 417.31 171.44 410.17
  Q 172.35 408.24 171.44 406.60
  Q 165.36 395.66 157.95 388.82
  Q 156.28 387.27 150.95 383.22
  Q 148.39 381.28 148.10 379.52
  C 147.47 375.76 148.19 373.01 151.94 371.14
  Q 154.79 369.72 156.90 369.54
  Q 173.95 368.13 189.28 376.20
  A 0.85 0.84 -61.0 0 0 190.40 375.87
  Q 192.37 372.50 195.59 367.39
  Q 196.53 365.91 195.54 363.97
  C 191.64 356.33 186.98 349.54 178.94 343.98
  C 174.07 340.60 170.67 337.82 174.42 332.30
  Q 175.55 330.64 179.40 329.39
  Q 195.47 324.21 212.28 329.59
  Q 213.51 329.98 214.81 330.94
  A 0.68 0.68 0.0 0 0 215.89 330.41
  Q 216.06 323.01 217.85 314.79
  Q 219.19 308.61 222.31 297.40
  A 2.02 1.88 -21.2 0 1 222.59 296.82
  Q 222.61 296.79 222.72 296.70
  A 0.24 0.23 -35.7 0 0 222.78 296.37
  C 221.90 295.19 221.45 294.51 219.92 295.14
  Q 216.83 296.41 211.53 299.50
  Q 204.70 303.50 194.30 307.79
  Q 167.10 319.03 137.07 329.81
  C 131.68 331.75 124.21 333.80 118.22 332.53
  Q 109.83 330.76 103.88 324.64
  C 86.59 306.87 78.51 280.74 75.52 256.25
  Q 74.76 250.04 73.60 237.48
  Q 73.27 233.91 71.69 231.30
  Q 63.69 218.07 60.65 206.14
  C 56.92 191.46 56.11 179.45 54.52 161.31
  Q 54.20 157.57 54.59 153.71
  C 55.01 149.67 55.07 146.83 55.86 143.63
  C 61.26 121.91 85.04 101.68 107.21 99.00
  C 113.19 98.27 118.76 99.12 119.78 105.77
  C 120.29 109.03 117.26 111.17 114.74 112.86
  C 104.91 119.45 95.23 133.86 94.81 146.20
  C 94.76 147.53 93.93 148.76 94.02 150.25
  A 0.82 0.81 -27.6 0 0 95.47 150.70
  C 99.57 145.52 102.40 141.52 107.37 137.65
  C 119.66 128.07 131.67 122.96 147.27 123.81
  C 153.59 124.15 161.01 126.02 162.01 133.24
  C 162.59 137.40 160.60 139.32 156.65 140.78
  C 143.85 145.50 132.36 154.51 127.13 168.13
  Q 123.21 178.36 126.59 188.88
  C 127.36 191.28 128.00 192.41 130.70 192.88
  Q 141.37 194.74 149.37 188.65
  C 152.33 186.39 156.34 182.96 159.76 184.80
  C 164.30 187.24 164.25 195.32 163.37 200.20
  Q 161.32 211.60 153.28 220.28
  C 148.25 225.72 143.38 230.67 137.20 233.97
  Q 131.73 236.90 126.78 238.62
  A 0.80 0.79 62.4 0 0 126.40 239.84
  L 139.76 258.33
  A 2.00 1.99 50.7 0 0 142.73 258.63
  C 159.40 243.20 172.86 230.45 188.08 217.52
  A 2.45 2.44 61.7 0 0 188.84 214.95
  Q 184.57 200.76 174.87 190.01
  C 171.19 185.93 166.58 179.81 170.31 174.25
  A 1.82 1.79 -82.6 0 1 171.19 173.56
  C 176.95 171.49 183.90 172.62 189.53 174.53
  C 201.12 178.46 211.10 185.35 220.48 193.46
  C 222.70 195.38 224.44 196.64 225.78 199.40
  A 1.27 1.27 0.0 0 0 227.67 199.87
  L 239.98 190.97
  A 0.44 0.43 74.8 0 0 240.17 190.63
  Q 240.33 188.36 240.10 187.21
  Q 234.65 160.48 214.85 141.36
  Q 210.71 137.36 204.34 131.69
  Q 202.27 129.85 201.92 126.43
  C 201.10 118.45 209.02 117.41 215.01 117.56
  Q 226.63 117.86 237.62 122.68
  C 251.04 128.56 264.48 137.51 273.74 149.10
  Q 282.83 160.48 292.59 176.15
  A 2.21 2.21 0.0 0 0 295.21 177.06
  Q 299.03 175.68 302.99 176.22
  Q 307.01 176.77 313.11 177.10
  A 0.78 0.77 -83.9 0 0 313.92 176.44
  Q 314.13 174.96 313.98 172.76
  Q 312.76 154.85 302.60 141.44
  Q 299.93 137.90 302.44 134.25
  C 304.61 131.09 306.52 130.36 310.53 131.18
  Q 327.12 134.58 338.64 146.85
  C 344.39 152.98 350.87 161.48 353.33 169.83
  A 1.52 1.51 -17.9 0 0 355.29 170.83
  Q 360.92 168.84 366.15 165.43
  C 375.57 159.31 379.18 148.96 372.86 138.96
  C 366.77 129.34 350.92 122.23 341.02 119.25
  Q 328.04 115.35 309.60 111.36
  Q 292.74 107.71 278.90 100.59
  C 267.97 94.96 259.92 87.32 252.71 78.00
  C 243.41 65.97 228.95 57.82 214.46 54.20
  Q 204.32 51.67 192.93 50.36
  C 188.64 49.87 184.64 48.94 181.22 46.48
  A 1.67 1.65 11.0 0 1 180.59 45.56
  C 179.39 40.99 179.41 36.15 183.54 33.28
  Q 192.15 27.32 205.33 21.35
  Q 236.32 7.30 270.28 3.06
  C 278.91 1.98 287.71 1.00 296.28 1.00
  Q 325.36 0.99 329.50 1.21
  Q 364.73 3.06 400.15 13.14
  C 458.30 29.69 513.75 62.72 553.91 108.07
  C 564.76 120.32 574.34 134.48 579.55 149.98
  Q 585.95 169.01 583.25 189.29
  Q 582.14 197.63 580.46 205.48
  C 579.61 209.41 577.78 215.95 573.95 217.68
  Q 573.23 218.01 569.67 219.08
  A 0.89 0.88 89.5 0 0 569.07 219.70
  Q 568.07 223.26 567.08 226.10
  C 564.45 233.64 556.75 248.88 546.79 245.85
  C 543.25 244.77 543.24 239.76 542.76 236.89
  A 0.54 0.54 0.0 0 0 541.78 236.67
  C 538.88 240.80 536.70 244.29 531.12 244.11
  C 528.31 244.02 526.72 241.29 526.02 238.72
  Q 524.28 232.37 523.89 227.54
  A 0.51 0.51 0.0 0 0 522.96 227.29
  Q 518.43 233.84 516.41 236.13
  C 514.48 238.32 510.32 241.37 507.44 239.70
  Q 505.16 238.38 504.52 235.95
  Q 503.83 233.31 502.13 220.70
  C 501.86 218.65 502.17 215.80 502.00 213.86
  A 0.47 0.47 0.0 0 0 501.38 213.45
  Q 498.92 214.28 498.05 215.54
  Q 495.60 219.06 491.07 223.53
  Q 489.26 225.31 489.62 227.34
  Q 490.07 229.97 492.38 233.10
  A 1.66 1.65 -31.5 0 0 494.47 233.60
  C 498.94 231.35 501.25 231.11 503.55 236.18
  A 1.12 1.12 0.0 0 1 503.65 236.83
  L 502.57 244.68
  A 1.75 0.97 -72.9 0 1 502.52 244.92
  L 501.18 249.19
  A 0.75 0.75 0.0 0 0 501.91 250.17
  Q 504.42 250.11 505.97 248.96
  Q 509.30 246.46 514.95 243.48
  A 2.29 2.29 0.0 0 1 517.52 243.76
  C 518.79 244.84 519.86 246.13 519.90 248.01
  C 520.06 255.46 517.52 263.65 514.45 270.24
  A 3.07 3.04 43.8 0 0 514.52 272.94
  Q 516.17 276.05 515.91 278.87
  C 515.54 282.82 510.76 287.52 507.54 289.27
  Q 506.37 289.90 501.11 292.11
  C 495.53 294.44 488.77 294.50 482.98 294.08
  C 477.32 293.67 473.00 291.53 467.90 289.00
  A 0.41 0.40 -88.7 0 0 467.35 289.53
  C 468.67 292.49 469.04 295.54 469.82 298.32
  Q 473.29 310.80 476.33 324.90
  Q 476.98 327.89 477.03 331.08
  A 1.77 1.77 0.0 0 0 479.40 332.72
  Q 480.87 332.20 481.13 332.16
  Q 490.18 330.80 511.25 329.37
  Q 524.45 328.47 543.97 324.22
  Q 552.54 322.35 561.96 318.96
  C 564.54 318.04 566.52 315.96 568.09 313.40
  Q 572.31 306.49 575.00 302.51
  Q 587.86 283.52 608.14 276.93
  C 618.43 273.58 631.69 271.72 642.66 274.06
  C 647.23 275.03 668.99 281.12 665.42 289.03
  C 664.32 291.47 663.90 292.64 660.90 292.97
  Q 650.78 294.09 649.22 294.39
  Q 634.19 297.30 622.45 307.38
  A 0.39 0.38 30.1 0 0 622.63 308.05
  Q 623.89 308.29 625.17 307.45
  A 1.78 1.68 -66.7 0 1 625.75 307.20
  Q 636.41 304.90 641.32 304.95
  Q 650.36 305.04 660.41 308.37
  C 672.04 312.22 683.67 322.43 688.39 333.81
  A 3.62 3.27 32.6 0 1 688.63 334.69
  Q 688.97 337.00 688.41 339.48
  A 3.27 3.26 -89.2 0 1 685.86 341.96
  C 682.50 342.61 679.07 340.63 675.90 338.97
  Q 673.93 337.94 670.04 337.08
  Q 657.13 334.20 643.76 336.37
  A 2.01 1.72 -57.6 0 0 643.27 336.52
  Q 641.98 337.13 639.79 336.99
  A 0.43 0.42 78.7 0 0 639.39 337.60
  Q 640.02 338.93 641.33 339.13
  A 2.45 2.41 62.8 0 1 642.18 339.41
  Q 654.71 346.00 661.70 358.85
  Q 664.79 364.53 667.68 372.31
  Q 668.64 374.91 666.76 377.01
  Q 663.57 380.57 659.30 378.19
  C 654.88 375.72 650.89 372.10 645.56 370.19
  Q 636.32 366.88 626.74 365.76
  Q 622.88 365.31 611.26 365.57
  C 600.24 365.81 591.50 366.28 582.62 364.07
  Q 579.51 363.29 576.95 362.73
  A 4.09 4.09 0.0 0 0 574.36 363.00
  Q 545.06 376.37 514.10 384.55
  Q 488.79 391.24 465.50 392.53
  Q 454.49 393.13 446.27 387.85
  Q 441.53 384.81 436.27 378.73
  Q 431.56 373.29 427.27 367.34
  Q 417.75 354.11 406.55 337.37
  A 1.01 0.99 -9.8 0 0 405.93 336.94
  Q 404.45 336.65 403.79 337.77
  C 398.48 346.83 393.55 353.38 382.56 355.28
  Q 381.64 355.44 379.64 356.70
  A 2.86 2.69 1.7 0 0 378.92 357.34
  C 374.61 362.70 369.99 367.16 363.69 369.13
  Q 356.43 371.40 347.82 370.96
  C 344.77 370.80 342.15 375.06 340.25 378.08
  A 1.76 1.70 62.4 0 0 339.99 378.96
  Q 339.97 380.05 339.03 381.30
  A 0.46 0.46 0.0 0 0 339.43 382.03
  Z
  M 201.16 38.81
  Q 243.61 42.03 285.18 55.86
  C 332.15 71.48 379.44 90.47 418.02 122.26
  Q 426.29 129.08 445.81 146.91
  C 467.81 167.00 494.39 185.04 522.79 197.22
  Q 537.26 203.43 552.98 206.05
  Q 558.38 206.96 564.16 206.75
  A 2.81 2.80 13.5 0 0 566.53 205.30
  Q 567.53 203.50 568.05 201.03
  C 571.31 185.73 571.91 170.05 567.03 155.23
  C 560.61 135.71 545.87 117.51 530.42 102.82
  C 504.34 78.02 474.25 58.09 441.82 42.96
  Q 370.57 9.73 292.27 14.09
  Q 271.42 15.25 249.74 20.24
  Q 228.59 25.11 208.91 33.91
  Q 205.41 35.48 201.02 38.25
  A 0.30 0.30 0.0 0 0 201.16 38.81
  Z
  M 277.02 83.51
  Q 274.85 74.32 276.26 66.53
  A 0.71 0.70 12.6 0 0 275.75 65.73
  L 255.97 60.23
  A 0.30 0.30 0.0 0 0 255.66 60.72
  Q 260.00 65.91 267.20 75.53
  Q 271.11 80.75 276.44 83.94
  A 0.39 0.39 0.0 0 0 277.02 83.51
  Z
  M 286.19 69.51
  Q 284.92 81.01 290.96 91.56
  A 0.75 0.71 82.1 0 0 291.39 91.90
  L 304.03 95.81
  A 0.06 0.06 0.0 0 0 304.10 95.74
  Q 300.63 85.63 303.67 76.00
  A 0.71 0.70 -71.2 0 0 303.25 75.13
  L 286.94 69.05
  A 0.56 0.55 -76.3 0 0 286.19 69.51
  Z
  M 331.05 102.40
  Q 327.80 94.29 330.91 86.20
  A 0.71 0.70 -68.5 0 0 330.52 85.30
  L 314.40 78.72
  A 0.76 0.75 -75.5 0 0 313.37 79.33
  Q 312.18 88.93 316.63 97.80
  A 2.90 2.89 84.2 0 0 318.45 99.29
  L 330.77 102.71
  A 0.23 0.23 0.0 0 0 331.05 102.40
  Z
  M 358.08 112.11
  Q 355.81 104.13 359.52 97.31
  A 0.48 0.48 0.0 0 0 359.30 96.65
  L 341.75 88.86
  A 0.96 0.96 0.0 0 0 340.40 89.64
  Q 339.60 98.08 343.96 105.78
  A 2.47 2.45 87.1 0 0 345.10 106.82
  L 357.72 112.42
  A 0.26 0.26 0.0 0 0 358.08 112.11
  Z
  M 92.40 117.01
  C 79.91 124.44 69.38 135.72 66.99 150.44
  Q 66.04 156.36 67.47 166.90
  C 68.86 177.02 69.62 188.51 72.15 199.89
  Q 74.98 212.64 82.17 223.25
  C 83.99 225.94 84.63 227.76 85.09 230.98
  Q 85.22 231.83 86.89 247.88
  C 89.14 269.47 94.89 291.85 107.16 309.15
  C 112.09 316.11 117.46 320.77 126.39 319.33
  Q 131.83 318.45 136.02 316.78
  Q 152.28 310.28 165.37 305.44
  C 182.70 299.03 198.59 291.90 213.14 284.66
  Q 233.30 274.63 248.05 257.38
  A 0.36 0.35 26.1 0 0 247.85 256.80
  C 243.87 256.00 235.64 254.02 234.19 250.52
  C 232.96 247.55 235.49 244.36 238.51 245.07
  Q 248.41 247.41 259.74 248.07
  C 272.04 248.78 282.58 248.62 293.03 243.23
  C 294.65 242.39 296.52 242.15 297.92 243.30
  C 301.12 245.95 302.06 249.56 297.98 252.01
  C 287.72 258.18 275.52 259.95 263.78 260.26
  A 3.77 3.75 -71.6 0 0 260.90 261.71
  Q 252.06 273.06 240.32 283.38
  A 5.20 5.14 -13.2 0 0 238.73 285.91
  Q 237.16 291.58 235.17 297.16
  C 232.27 305.31 230.11 313.52 229.38 320.37
  C 228.37 329.82 227.78 337.65 224.33 345.83
  C 222.35 350.53 218.13 358.65 214.28 363.01
  C 209.25 368.72 205.47 375.27 202.18 381.36
  C 194.96 394.73 192.14 408.26 195.73 423.23
  C 206.73 469.05 236.24 505.93 272.57 536.17
  Q 275.38 538.51 275.45 540.99
  C 275.61 546.49 269.73 546.24 266.17 544.37
  Q 260.40 541.35 254.82 536.94
  Q 252.87 535.40 250.23 535.57
  Q 232.43 536.67 219.99 549.51
  Q 215.96 553.67 208.26 562.00
  Q 196.71 574.50 181.59 582.58
  Q 172.17 587.61 158.63 593.52
  C 152.64 596.13 148.17 598.63 149.19 605.55
  Q 149.45 607.34 150.38 609.59
  C 153.12 616.28 156.73 622.45 159.00 628.30
  Q 161.15 633.85 163.05 644.94
  Q 164.36 652.56 166.78 669.22
  Q 167.97 677.37 170.41 684.39
  C 172.78 691.19 176.07 694.22 183.27 694.29
  Q 194.71 694.40 205.55 694.25
  A 0.39 0.39 0.0 0 0 205.90 693.71
  C 202.30 685.19 196.44 680.23 189.71 674.56
  C 188.25 673.33 187.24 670.70 188.47 668.75
  C 189.87 666.52 192.90 666.51 195.20 667.77
  Q 203.87 672.47 207.51 677.00
  Q 213.66 684.64 217.56 693.70
  A 0.96 0.96 0.0 0 0 218.44 694.28
  L 234.09 694.28
  A 0.45 0.45 0.0 0 0 234.49 693.62
  C 229.85 684.60 222.70 678.47 213.97 673.52
  C 210.43 671.51 209.90 666.46 214.66 665.63
  Q 218.73 664.92 222.45 667.34
  Q 229.54 671.97 230.58 672.75
  C 237.47 677.91 242.86 685.64 245.89 693.62
  A 0.87 0.86 -10.2 0 0 246.70 694.18
  L 258.30 694.18
  A 0.49 0.48 -15.2 0 0 258.72 693.45
  Q 249.51 677.81 233.47 669.39
  C 228.42 666.74 222.01 665.70 217.25 662.75
  Q 209.28 657.82 204.22 651.10
  C 195.67 639.73 189.96 625.60 185.42 611.62
  A 2.64 2.64 0.0 0 1 186.05 608.96
  Q 187.67 607.32 190.45 605.93
  Q 195.72 603.29 203.02 600.53
  Q 221.09 593.70 241.01 587.53
  C 258.54 582.09 274.65 577.43 290.93 570.39
  Q 300.43 566.28 304.99 563.25
  Q 309.43 560.31 313.86 554.11
  C 318.57 547.52 318.97 539.38 318.39 531.27
  Q 315.22 487.27 297.62 446.09
  Q 289.26 426.51 274.42 406.61
  Q 259.74 386.92 239.26 377.05
  A 4.64 4.63 19.7 0 1 236.77 371.80
  L 236.86 371.45
  A 3.72 3.72 0.0 0 1 241.61 368.77
  Q 254.20 372.78 263.62 379.92
  C 282.47 394.20 295.34 414.06 306.63 434.93
  A 0.42 0.42 0.0 0 0 307.31 435.01
  C 315.50 425.88 320.37 413.40 322.34 401.61
  C 324.68 387.59 326.42 371.69 337.20 361.20
  C 339.59 358.87 341.96 357.38 345.54 358.16
  C 352.92 359.76 359.16 358.72 365.54 354.33
  A 0.48 0.48 0.0 0 0 365.47 353.50
  C 362.47 352.08 359.28 349.00 359.87 345.47
  C 360.62 340.92 366.91 343.49 368.95 344.26
  Q 370.59 344.88 373.12 344.92
  Q 383.16 345.08 389.90 337.24
  A 0.53 0.53 0.0 0 0 389.65 336.39
  Q 382.67 334.29 377.26 329.18
  A 5.32 5.32 0.0 0 1 375.93 323.43
  L 375.99 323.28
  A 2.74 2.73 -61.2 0 1 380.19 322.06
  Q 393.85 332.35 405.20 319.98
  Q 406.41 318.66 409.26 313.29
  A 0.44 0.43 -81.4 0 0 408.80 312.66
  C 401.47 314.04 389.03 309.58 386.74 301.02
  Q 385.75 297.34 388.86 296.01
  Q 390.41 295.34 391.65 296.40
  C 397.02 301.05 402.03 304.16 409.68 303.12
  Q 419.97 301.74 423.43 291.43
  Q 425.16 286.28 428.97 272.10
  Q 429.37 270.62 430.58 270.44
  Q 432.30 270.19 433.68 271.68
  A 1.69 1.68 23.0 0 1 434.12 272.76
  Q 434.50 282.58 433.14 291.46
  C 432.11 298.15 429.22 303.37 424.96 308.51
  A 9.93 9.87 -15.2 0 0 423.27 311.44
  C 421.77 315.51 419.29 321.62 416.21 325.62
  A 1.18 1.17 -39.6 0 0 416.09 326.85
  C 422.90 340.33 431.76 352.20 441.41 364.71
  Q 447.39 372.47 452.43 376.96
  Q 456.42 380.50 461.58 380.22
  Q 499.06 378.19 535.17 365.42
  Q 550.54 359.99 569.15 352.26
  C 572.35 350.93 576.42 349.73 579.29 350.43
  Q 592.32 353.62 598.25 353.35
  C 609.44 352.84 621.12 352.12 632.99 353.71
  Q 638.98 354.51 644.57 356.85
  A 0.26 0.26 0.0 0 0 644.84 356.41
  C 637.62 349.97 629.62 347.76 620.21 345.81
  Q 617.46 345.24 615.87 342.49
  C 612.06 335.90 622.53 331.60 627.23 329.16
  Q 631.90 326.74 636.05 325.47
  Q 649.27 321.44 661.94 322.86
  A 0.23 0.23 0.0 0 0 662.05 322.42
  Q 654.09 319.16 645.26 318.67
  Q 625.11 317.55 605.51 324.24
  Q 601.00 325.78 598.82 321.66
  Q 597.09 318.37 599.54 314.57
  C 607.86 301.65 619.09 292.77 632.72 286.65
  A 0.37 0.37 0.0 0 0 632.54 285.94
  Q 627.06 286.28 620.26 287.32
  C 605.74 289.54 593.11 298.77 585.19 310.94
  Q 581.71 316.28 578.14 322.38
  C 574.87 327.95 570.44 329.51 564.43 331.44
  C 542.29 338.54 520.61 342.22 498.15 342.95
  Q 487.09 343.31 481.98 344.54
  C 474.41 346.37 467.68 348.72 461.03 351.87
  C 458.82 352.92 457.10 352.56 455.74 350.67
  C 452.79 346.59 461.07 340.59 464.42 337.70
  A 2.25 2.23 -24.1 0 0 465.17 335.75
  Q 464.25 328.21 462.13 318.58
  Q 460.60 311.63 453.92 286.86
  Q 452.73 282.46 450.29 277.25
  A 8.52 8.15 -78.6 0 0 449.14 275.43
  Q 444.14 269.38 443.55 268.41
  Q 431.81 249.19 417.52 227.99
  A 0.65 0.65 0.0 0 0 416.61 227.83
  C 408.43 233.62 402.50 240.72 395.80 249.03
  Q 393.93 251.35 391.81 252.90
  A 1.91 1.90 -64.9 0 1 390.83 253.26
  C 388.37 253.41 386.02 251.42 387.20 248.92
  Q 395.72 230.91 409.36 217.68
  A 0.92 0.92 0.0 0 0 409.45 216.46
  Q 398.07 201.77 399.86 183.28
  C 400.90 172.62 403.74 164.46 407.40 152.32
  C 409.40 145.69 413.47 146.31 417.41 150.81
  Q 425.61 160.18 427.21 171.89
  C 428.08 178.31 428.23 188.51 427.54 195.38
  A 3.10 3.09 5.9 0 1 424.12 198.16
  L 423.94 198.14
  A 3.61 3.61 0.0 0 1 420.73 194.52
  Q 420.82 180.36 420.18 173.56
  Q 419.66 168.10 416.99 163.44
  A 0.36 0.36 0.0 0 0 416.34 163.48
  C 411.32 176.00 408.62 187.92 413.88 200.78
  Q 415.70 205.23 421.45 212.42
  C 425.32 217.26 432.45 226.38 437.67 234.35
  Q 449.85 252.94 454.41 259.56
  Q 459.53 267.01 465.63 272.60
  C 474.91 281.11 488.49 285.12 499.60 277.12
  A 0.50 0.49 -53.2 0 0 499.48 276.25
  Q 496.86 275.37 494.73 274.26
  Q 462.64 257.60 445.53 227.27
  C 441.56 220.23 438.13 212.06 437.68 203.93
  C 436.96 190.91 441.47 176.60 447.44 165.20
  A 0.55 0.54 -56.9 0 0 447.30 164.52
  Q 443.22 161.18 438.93 157.06
  Q 421.02 139.83 412.33 132.43
  Q 400.56 122.39 386.28 112.47
  Q 377.85 106.62 368.77 101.92
  A 0.44 0.43 -73.9 0 0 368.14 102.27
  Q 367.41 110.14 371.53 117.81
  Q 372.63 119.85 376.06 122.80
  C 391.24 135.83 392.62 156.38 378.85 171.13
  C 370.85 179.69 358.02 184.78 346.81 187.37
  Q 329.31 191.42 310.94 190.41
  A 0.25 0.25 0.0 0 0 310.78 190.87
  C 315.07 194.03 320.56 199.13 317.49 204.20
  C 316.35 206.09 313.32 206.39 311.74 204.99
  Q 305.81 199.75 297.71 195.56
  C 278.29 185.51 256.87 193.94 241.11 206.12
  Q 235.79 210.23 229.09 214.53
  A 6.38 6.21 -70.0 0 1 227.60 215.25
  Q 225.96 215.78 218.94 217.45
  Q 206.45 220.42 194.99 228.99
  C 184.68 236.69 173.48 247.22 153.15 265.65
  Q 150.31 268.22 147.71 270.00
  A 0.84 0.84 0.0 0 0 147.39 270.97
  Q 150.41 279.49 148.73 289.22
  C 148.01 293.39 141.38 293.76 140.97 289.02
  Q 140.21 280.02 135.25 272.49
  Q 130.42 265.18 121.68 254.47
  C 118.60 250.71 107.86 236.97 110.58 232.31
  Q 111.49 230.74 113.26 229.98
  C 126.90 224.14 140.21 219.60 147.19 205.11
  A 0.26 0.26 0.0 0 0 146.84 204.76
  C 143.73 206.25 139.28 206.76 135.97 206.89
  C 121.38 207.46 113.79 198.15 112.08 184.58
  C 109.66 165.37 120.87 148.48 135.45 137.14
  A 0.40 0.40 0.0 0 0 135.06 136.45
  C 130.27 138.23 122.12 140.89 117.05 144.62
  Q 104.87 153.58 99.59 167.05
  Q 98.63 169.48 99.33 170.94
  C 100.30 172.99 101.83 175.21 100.71 177.35
  C 99.04 180.54 95.47 179.35 93.44 177.09
  Q 86.40 169.29 83.65 160.92
  C 78.93 146.56 84.34 129.65 92.78 117.41
  A 0.28 0.28 0.0 0 0 92.40 117.01
  Z
  M 224.23 132.06
  C 238.11 146.44 248.24 163.52 252.41 183.34
  A 0.89 0.89 0.0 0 0 253.65 183.97
  Q 265.10 178.77 277.21 177.92
  A 0.46 0.46 0.0 0 0 277.57 177.23
  C 267.97 160.76 255.90 146.79 239.05 137.48
  Q 231.92 133.54 224.42 131.73
  A 0.20 0.20 0.0 0 0 224.23 132.06
  Z
  M 320.92 148.85
  C 324.60 156.91 326.76 167.93 327.18 176.37
  A 0.50 0.49 -3.8 0 0 327.73 176.84
  L 339.83 175.59
  A 0.73 0.73 0.0 0 0 340.44 174.60
  Q 334.42 159.24 321.17 148.65
  A 0.17 0.16 -83.0 0 0 320.92 148.85
  Z
  M 188.85 187.82
  Q 196.80 198.18 200.60 210.52
  A 0.39 0.39 0.0 0 0 201.14 210.76
  L 212.77 205.31
  A 0.33 0.33 0.0 0 0 212.87 204.78
  Q 202.15 193.98 189.16 187.45
  A 0.25 0.25 0.0 0 0 188.85 187.82
  Z
  M 488.61 192.84
  Q 488.47 192.34 488.44 192.35
  A 1.66 1.57 -5.0 0 0 487.05 193.91
  Q 487.00 206.32 486.90 208.83
  A 0.93 0.92 70.6 0 0 488.43 209.57
  L 498.66 200.55
  A 1.11 1.10 30.4 0 0 498.16 198.64
  Q 495.63 198.10 492.80 195.74
  C 491.61 194.74 490.41 194.75 489.13 193.65
  A 1.72 1.70 12.6 0 1 488.61 192.84
  Z
  M 448.14 212.99
  Q 448.94 212.85 449.01 214.27
  Q 449.08 215.84 448.84 216.45
  A 0.31 0.31 0.0 0 0 449.13 216.87
  L 449.46 216.87
  A 0.46 0.46 0.0 0 0 449.92 216.40
  Q 449.90 215.16 450.88 214.94
  A 0.94 0.91 7.4 0 0 451.51 214.47
  L 454.99 208.10
  A 1.79 1.79 0.0 0 0 454.68 205.99
  L 454.32 205.63
  A 0.79 0.79 0.0 0 0 453.07 205.81
  L 452.06 207.65
  A 0.66 0.65 -62.8 0 1 451.20 207.93
  Q 450.08 207.39 448.84 209.18
  Q 448.61 209.51 448.60 210.40
  Q 448.60 211.26 448.12 211.49
  Q 447.65 211.73 447.59 212.48
  A 0.48 0.47 87.7 0 0 448.14 212.99
  Z
  M 513.31 224.21
  C 515.33 221.90 516.24 218.35 518.60 215.88
  Q 520.76 213.62 519.88 210.02
  A 0.59 0.58 -4.7 0 0 519.35 209.58
  Q 517.42 209.42 516.37 208.45
  Q 514.56 206.79 512.92 205.84
  A 0.53 0.53 0.0 0 0 512.13 206.23
  L 511.66 209.67
  A 2.21 2.18 -48.2 0 0 511.70 210.50
  L 512.81 214.85
  A 1.43 1.29 42.1 0 1 512.85 215.25
  L 512.56 223.92
  A 0.43 0.43 0.0 0 0 513.31 224.21
  Z
  M 532.00 216.05
  C 533.23 217.13 532.69 219.19 533.14 220.61
  Q 534.11 223.70 534.70 224.43
  Q 534.95 224.74 534.92 225.57
  Q 534.89 226.43 535.13 226.66
  A 0.90 0.81 -57.0 0 0 536.47 226.30
  Q 538.54 221.75 540.05 219.08
  A 1.22 1.22 0.0 0 0 539.57 217.41
  L 534.67 214.74
  A 0.61 0.61 0.0 0 0 534.21 214.69
  L 532.15 215.35
  A 0.42 0.41 -33.4 0 0 532.00 216.05
  Z
  M 552.84 219.27
  A 1.04 1.03 37.6 0 0 550.81 219.53
  L 550.66 227.96
  A 0.89 0.88 -74.0 0 0 551.07 228.71
  Q 552.77 229.78 553.27 229.46
  C 554.32 228.77 554.08 227.88 554.96 227.02
  C 556.40 225.63 557.36 223.09 557.97 221.87
  A 1.56 1.55 -86.8 0 0 556.05 219.71
  Q 553.26 220.74 552.84 219.27
  Z
  M 459.56 221.17
  L 454.97 226.43
  A 0.93 0.92 43.8 0 0 455.00 227.69
  C 456.79 229.55 456.67 232.84 460.66 233.17
  A 0.69 0.69 0.0 0 0 461.36 232.72
  L 464.34 224.51
  A 0.49 0.41 -39.7 0 0 464.37 224.35
  L 464.37 220.65
  A 0.95 0.95 0.0 0 0 462.91 219.84
  Q 461.79 220.54 460.74 220.60
  A 1.71 1.70 19.1 0 0 459.56 221.17
  Z
  M 479.26 236.84
  A 2.39 2.39 0.0 0 0 475.52 235.13
  L 469.50 239.35
  A 0.94 0.80 -65.5 0 1 469.18 239.50
  Q 466.23 240.28 467.23 243.67
  A 1.92 1.91 13.0 0 0 467.74 244.48
  L 473.14 249.48
  A 0.62 0.61 -37.5 0 0 473.85 249.57
  Q 475.84 248.48 476.10 246.95
  C 476.57 244.18 478.36 241.33 479.25 239.14
  A 2.18 2.14 53.2 0 0 479.39 238.10
  L 479.26 236.84
  Z
  M 489.17 257.11
  L 489.17 256.04
  A 1.30 1.24 64.2 0 1 489.41 255.29
  Q 490.74 253.45 491.04 252.27
  Q 491.48 250.47 492.64 246.07
  A 1.15 1.15 0.0 0 0 490.72 244.96
  L 481.42 254.26
  A 1.34 1.32 -37.0 0 0 481.19 255.84
  Q 482.34 257.93 484.31 258.28
  A 1.33 1.33 0.0 0 1 485.14 258.81
  Q 485.16 258.85 485.21 258.90
  A 1.01 1.01 0.0 0 0 486.14 259.27
  Q 487.76 259.05 488.79 258.02
  A 1.30 1.28 -22.9 0 0 489.17 257.11
  Z
  M 503.00 267.89
  Q 506.96 265.33 508.55 260.34
  A 1.05 0.90 74.2 0 1 508.66 260.10
  L 511.06 255.81
  A 0.71 0.70 2.0 0 0 510.14 254.83
  L 504.47 257.49
  A 0.57 0.52 -87.1 0 0 504.20 257.76
  Q 503.30 259.47 500.85 260.06
  A 0.81 0.74 -72.3 0 0 500.45 260.29
  L 496.82 264.27
  A 0.87 0.86 35.5 0 0 497.05 265.61
  L 499.85 267.14
  A 0.53 0.49 51.3 0 0 500.20 267.19
  Q 501.61 266.92 502.09 267.69
  A 0.66 0.65 -32.4 0 0 503.00 267.89
  Z
  M 192.33 340.00
  Q 198.55 345.89 203.38 355.67
  A 0.67 0.66 46.9 0 0 204.55 355.71
  L 211.42 343.81
  A 0.61 0.60 -66.0 0 0 211.09 342.93
  Q 202.69 340.18 192.58 339.42
  A 0.34 0.33 68.7 0 0 192.33 340.00
  Z
  M 181.77 416.32
  L 167.68 442.18
  A 6.39 6.31 58.2 0 0 166.91 445.55
  C 167.25 452.56 169.02 461.67 174.70 466.32
  Q 177.08 468.27 177.75 468.92
  A 2.38 2.30 11.1 0 1 178.30 469.71
  C 179.33 472.11 178.02 474.59 175.50 475.22
  C 170.97 476.35 166.06 473.14 163.24 469.72
  Q 158.71 464.23 157.20 457.13
  A 0.40 0.40 0.0 0 0 156.49 456.96
  Q 148.64 466.97 140.60 474.07
  A 2.24 2.21 -19.1 0 0 139.85 475.59
  Q 139.02 488.49 145.72 497.10
  A 2.15 2.11 -67.9 0 1 146.16 498.17
  C 146.53 501.56 144.44 502.89 141.28 502.49
  C 134.21 501.61 130.39 491.95 128.90 485.62
  C 128.71 484.85 129.29 483.97 129.28 483.40
  A 0.45 0.45 0.0 0 0 128.59 483.03
  Q 120.93 487.96 113.37 492.21
  C 111.35 493.35 111.03 494.47 110.37 496.56
  Q 107.65 505.28 110.09 512.88
  C 110.88 515.35 108.40 518.35 105.87 517.10
  C 98.13 513.28 97.25 504.38 98.74 496.75
  A 0.24 0.24 0.0 0 0 98.48 496.47
  Q 91.75 497.23 84.37 496.13
  A 0.51 0.48 21.1 0 0 83.90 496.32
  Q 78.53 503.46 75.22 511.22
  A 2.93 2.85 -74.6 0 1 72.22 512.98
  C 68.41 512.48 69.02 507.73 69.09 505.03
  Q 69.26 498.70 72.82 492.76
  A 0.28 0.28 0.0 0 0 72.67 492.35
  Q 66.05 489.93 61.06 485.01
  A 0.70 0.70 0.0 0 0 60.22 484.91
  Q 56.03 487.35 51.51 493.75
  Q 49.92 496.00 47.49 494.83
  C 45.39 493.82 45.41 490.61 45.84 488.81
  C 46.97 484.05 50.43 480.49 54.31 477.10
  A 0.78 0.77 -38.7 0 0 54.43 476.06
  C 48.07 467.34 46.41 457.94 46.39 446.49
  Q 46.33 419.91 58.24 397.04
  Q 64.61 384.82 73.15 372.65
  A 0.24 0.24 0.0 0 0 72.83 372.30
  C 65.02 376.76 57.46 381.62 51.43 388.11
  C 30.60 410.51 22.04 436.76 22.88 467.01
  C 23.67 496.00 39.74 521.37 66.58 532.90
  C 109.58 551.36 156.83 536.34 192.11 508.34
  Q 201.95 500.53 211.86 491.07
  A 0.66 0.66 0.0 0 0 211.96 490.23
  Q 207.80 484.00 203.92 477.61
  Q 186.71 449.23 181.90 416.34
  A 0.07 0.07 0.0 0 0 181.77 416.32
  Z
  M 178.99 396.38
  L 183.77 387.61
  A 1.05 1.05 0.0 0 0 183.28 386.15
  Q 175.32 382.58 167.15 380.90
  A 0.21 0.21 0.0 0 0 166.96 381.25
  Q 173.62 387.70 178.28 396.38
  A 0.41 0.40 -44.8 0 0 178.99 396.38
  Z
  M 500.26 692.73
  Q 489.94 674.89 469.65 668.58
  Q 466.59 667.63 454.62 663.86
  Q 435.15 657.74 422.40 642.10
  Q 415.62 633.78 404.95 620.05
  Q 399.16 612.61 391.28 606.89
  C 387.49 604.14 389.25 599.52 391.28 596.26
  Q 393.57 592.58 397.71 587.97
  Q 434.33 547.16 445.10 535.36
  Q 459.43 519.66 472.36 502.39
  C 477.15 495.99 482.29 487.64 485.78 480.29
  C 494.80 461.30 478.23 449.14 464.63 440.16
  Q 408.23 402.87 340.73 394.61
  Q 338.07 394.28 336.73 394.40
  A 0.65 0.64 1.1 0 0 336.15 394.95
  Q 333.31 417.34 322.02 436.50
  Q 318.38 442.66 313.04 446.34
  A 0.47 0.46 -26.6 0 0 312.86 446.87
  L 317.82 462.37
  A 3.02 3.01 3.2 0 0 319.46 464.20
  Q 332.91 470.12 347.27 472.71
  Q 385.08 479.54 422.54 474.60
  Q 430.31 473.58 444.45 468.62
  C 446.26 467.99 449.75 467.09 451.28 467.63
  C 455.58 469.18 453.26 473.61 450.84 475.62
  C 442.76 482.29 430.82 484.61 420.66 486.71
  C 418.08 487.24 416.94 488.13 415.26 490.01
  Q 410.80 494.97 407.12 499.64
  C 402.21 505.86 399.32 512.14 397.79 519.52
  Q 395.26 531.79 394.21 535.73
  Q 387.75 560.09 371.82 579.83
  Q 367.57 585.11 359.03 595.05
  C 352.69 602.43 349.36 610.49 358.25 617.49
  Q 361.35 619.93 369.72 627.17
  C 379.74 635.83 386.24 645.80 391.25 658.02
  Q 398.66 676.14 400.84 680.78
  Q 403.96 687.42 406.04 689.63
  C 408.16 691.88 414.07 692.71 416.26 692.70
  Q 433.81 692.63 458.85 693.50
  A 0.31 0.31 0.0 0 0 459.12 693.01
  Q 450.96 681.38 437.83 675.92
  Q 434.06 674.35 427.50 671.98
  C 423.86 670.66 422.57 666.52 425.95 663.87
  A 2.18 2.10 18.0 0 1 426.71 663.50
  C 429.20 662.89 431.39 663.95 433.49 664.24
  C 449.57 666.47 467.68 676.11 472.18 692.45
  A 1.25 1.24 82.4 0 0 473.38 693.37
  L 499.89 693.37
  A 0.43 0.43 0.0 0 0 500.26 692.73
  Z
  M 143.57 426.15
  Q 148.85 433.62 151.83 442.61
  A 0.51 0.50 -39.2 0 0 152.75 442.70
  L 157.69 434.16
  A 0.64 0.63 -55.6 0 0 157.54 433.35
  Q 151.42 428.43 143.93 425.69
  A 0.31 0.30 -7.4 0 0 143.57 426.15
  Z
  M 114.65 457.36
  Q 116.44 466.59 114.14 476.81
  A 0.56 0.56 0.0 0 0 115.01 477.39
  L 125.33 469.93
  A 0.28 0.28 0.0 0 0 125.39 469.53
  L 115.33 457.04
  A 0.39 0.39 0.0 0 0 114.65 457.36
  Z
  M 79.93 468.69
  Q 78.01 474.65 74.23 478.56
  A 0.60 0.59 34.1 0 0 74.42 479.51
  L 81.53 482.66
  A 0.40 0.40 0.0 0 0 82.09 482.26
  L 80.70 468.77
  A 0.40 0.40 0.0 0 0 79.93 468.69
  Z
  M 398.04 489.54
  Q 396.91 489.80 395.75 489.76
  Q 382.42 489.30 371.76 488.54
  Q 349.84 486.96 328.40 481.09
  Q 325.49 480.29 322.67 478.97
  A 0.36 0.36 0.0 0 0 322.20 479.48
  Q 322.86 480.64 323.37 482.68
  Q 325.88 492.70 328.01 504.41
  Q 331.77 525.11 330.95 542.25
  Q 330.43 553.28 325.61 560.15
  Q 319.19 569.33 307.97 575.76
  Q 294.84 583.29 279.81 588.58
  C 254.26 597.56 226.82 604.55 201.85 614.72
  A 1.38 1.38 0.0 0 0 201.10 616.55
  Q 202.01 618.68 203.12 621.88
  Q 206.72 632.24 214.01 642.59
  C 218.01 648.27 223.08 652.77 228.96 655.30
  Q 239.20 659.71 239.61 659.90
  Q 254.92 666.93 265.38 680.66
  A 0.90 0.90 0.0 0 0 266.10 681.02
  L 386.74 681.02
  A 0.64 0.63 78.7 0 0 387.32 680.14
  Q 385.66 676.17 379.70 662.30
  Q 373.31 647.44 362.86 637.67
  C 357.69 632.84 349.12 626.36 344.52 620.30
  C 339.66 613.91 339.45 603.70 343.23 596.49
  Q 345.68 591.81 349.45 587.19
  C 355.81 579.40 362.89 571.89 368.18 564.04
  Q 379.66 546.98 383.89 526.77
  C 384.98 521.59 386.22 516.24 387.89 510.88
  Q 391.24 500.20 397.77 491.66
  A 2.34 2.23 75.7 0 0 398.09 491.09
  L 398.48 490.04
  A 0.38 0.38 0.0 0 0 398.04 489.54
  Z"
/>
<path d="
  M 387.33 187.62
  L 387.50 187.77
  A 4.32 4.32 0.0 0 1 388.29 193.59
  Q 379.11 206.68 367.99 213.73
  C 364.06 216.21 347.87 223.57 345.98 215.88
  C 345.40 213.53 347.14 211.58 349.30 211.01
  C 363.48 207.24 371.75 198.54 381.30 188.05
  A 4.38 4.38 0.0 0 1 387.33 187.62
  Z"
/>
<path d="
  M 371.48 257.81
  C 368.38 264.40 353.52 256.43 349.04 254.15
  C 343.85 251.50 339.56 246.99 334.76 243.23
  Q 329.21 238.88 324.70 233.42
  Q 321.61 229.67 323.81 225.99
  C 326.96 220.74 332.41 227.34 335.01 230.51
  Q 335.26 230.82 338.20 233.44
  C 341.55 236.42 345.55 238.84 348.76 241.66
  C 353.65 245.97 358.91 248.33 365.40 250.79
  C 367.63 251.64 372.97 254.64 371.48 257.81
  Z"
/>
<path d="
  M 420.07 252.78
  C 421.84 251.78 424.23 252.19 424.79 254.43
  C 425.57 257.57 422.78 260.64 420.13 262.39
  C 414.78 265.91 405.08 269.74 398.17 268.62
  C 395.64 268.21 394.11 264.89 396.33 262.90
  Q 397.12 262.19 399.56 261.55
  Q 407.16 259.57 409.63 258.35
  Q 414.14 256.14 420.07 252.78
  Z"
/>
<path d="
  M 325.50 284.17
  Q 338.97 289.23 353.00 287.12
  C 354.39 286.91 356.44 288.06 356.87 289.53
  C 358.51 295.14 348.62 295.99 344.93 296.28
  Q 333.02 297.21 322.14 293.12
  Q 311.26 289.03 302.91 280.48
  C 300.32 277.83 293.44 270.68 298.37 267.54
  C 299.66 266.72 301.96 267.20 302.87 268.27
  Q 312.04 279.11 325.50 284.17
  Z"
/>
<path d="
  M 344.96 316.11
  C 344.93 324.01 331.68 321.42 327.23 320.87
  C 308.22 318.54 289.17 310.11 280.96 291.78
  Q 278.29 285.84 276.55 279.47
  C 276.01 277.50 275.73 275.22 277.36 273.85
  C 280.02 271.62 282.76 273.66 283.83 276.29
  Q 285.19 279.63 287.16 284.38
  C 292.95 298.37 306.19 307.01 320.52 310.45
  Q 325.12 311.56 332.20 312.40
  C 336.08 312.86 341.94 311.00 344.62 314.99
  A 2.03 1.94 -63.2 0 1 344.96 316.11
  Z"
/>
<path d="
  M 379.27 276.62
  Q 380.73 277.73 380.93 280.11
  Q 381.90 291.73 378.38 303.41
  C 376.05 311.14 370.97 319.05 366.19 325.75
  C 363.93 328.92 359.57 325.74 359.57 322.64
  Q 359.56 320.02 361.43 317.43
  Q 370.40 304.96 373.12 289.23
  Q 374.01 284.11 375.07 278.38
  C 375.49 276.13 377.31 275.13 379.27 276.62
  Z"
/>
<path d="
  M 258.91 294.23
  L 259.08 294.15
  A 3.71 3.71 0.0 0 1 263.99 296.10
  Q 272.50 316.18 285.43 322.86
  C 298.29 329.50 310.95 330.96 325.03 331.46
  C 327.77 331.55 329.67 333.97 328.24 336.66
  C 326.54 339.86 317.50 340.13 314.50 340.11
  C 301.28 340.01 286.59 336.91 275.90 329.27
  Q 261.12 318.70 256.39 299.33
  A 4.43 4.42 71.3 0 1 258.91 294.23
  Z"
/>
<path d="
  M 296.99 354.28
  Q 295.58 356.29 292.73 356.52
  C 275.02 357.96 258.52 347.71 247.99 333.87
  A 5.60 5.60 0.0 0 1 248.05 327.02
  L 248.26 326.75
  A 3.40 3.40 0.0 0 1 253.65 326.82
  Q 265.02 342.04 281.93 346.30
  Q 291.99 348.84 293.19 349.07
  Q 295.41 349.50 296.75 350.93
  A 2.68 2.65 41.2 0 1 296.99 354.28
  Z"
/>
<path d="
  M 334.40 355.51
  Q 329.18 357.61 321.74 359.10
  Q 317.15 360.02 314.88 359.24
  Q 311.23 357.98 313.12 354.17
  Q 314.07 352.24 317.26 351.30
  Q 324.16 349.27 330.79 346.59
  Q 337.42 343.91 343.80 340.57
  Q 346.74 339.03 348.77 339.76
  Q 352.77 341.19 351.02 344.63
  Q 349.93 346.77 345.99 349.30
  Q 339.61 353.40 334.40 355.51
  Z"
/>
<path d="
  M 236.65 466.17
  C 243.67 477.85 252.47 488.42 262.28 498.41
  C 266.09 502.29 261.36 507.84 257.08 504.18
  Q 240.76 490.20 229.05 470.74
  Q 217.34 451.28 212.64 430.31
  C 211.41 424.81 218.53 423.23 220.17 428.42
  C 224.40 441.76 229.62 454.49 236.65 466.17
  Z"
/>
<path d="
  M 408.87 444.90
  C 413.71 445.07 415.58 450.76 410.14 452.45
  Q 405.25 453.97 398.99 454.15
  Q 372.99 454.89 347.62 442.68
  A 5.17 5.16 21.1 0 1 344.91 436.57
  L 344.97 436.36
  A 4.00 4.00 0.0 0 1 350.30 433.78
  Q 369.85 441.64 389.53 443.67
  Q 397.95 444.53 408.87 444.90
  Z"
/>
</g>
<g fill="#ffffff">
<path d="
  M 489.13 193.65
  C 490.41 194.75 491.61 194.74 492.80 195.74
  Q 495.63 198.10 498.16 198.64
  A 1.11 1.10 30.4 0 1 498.66 200.55
  L 488.43 209.57
  A 0.93 0.92 70.6 0 1 486.90 208.83
  Q 487.00 206.32 487.05 193.91
  A 1.66 1.57 -5.0 0 1 488.44 192.35
  Q 488.47 192.34 488.61 192.84
  A 1.72 1.70 12.6 0 0 489.13 193.65
  Z"
/>
<path d="
  M 447.59 212.48
  Q 447.65 211.73 448.12 211.49
  Q 448.60 211.26 448.60 210.40
  Q 448.61 209.51 448.84 209.18
  Q 450.08 207.39 451.20 207.93
  A 0.66 0.65 -62.8 0 0 452.06 207.65
  L 453.07 205.81
  A 0.79 0.79 0.0 0 1 454.32 205.63
  L 454.68 205.99
  A 1.79 1.79 0.0 0 1 454.99 208.10
  L 451.51 214.47
  A 0.94 0.91 7.4 0 1 450.88 214.94
  Q 449.90 215.16 449.92 216.40
  A 0.46 0.46 0.0 0 1 449.46 216.87
  L 449.13 216.87
  A 0.31 0.31 0.0 0 1 448.84 216.45
  Q 449.08 215.84 449.01 214.27
  Q 448.94 212.85 448.14 212.99
  A 0.48 0.47 87.7 0 1 447.59 212.48
  Z"
/>
<path d="
  M 513.31 224.21
  A 0.43 0.43 0.0 0 1 512.56 223.92
  L 512.85 215.25
  A 1.43 1.29 42.1 0 0 512.81 214.85
  L 511.70 210.50
  A 2.21 2.18 -48.2 0 1 511.66 209.67
  L 512.13 206.23
  A 0.53 0.53 0.0 0 1 512.92 205.84
  Q 514.56 206.79 516.37 208.45
  Q 517.42 209.42 519.35 209.58
  A 0.59 0.58 -4.7 0 1 519.88 210.02
  Q 520.76 213.62 518.60 215.88
  C 516.24 218.35 515.33 221.90 513.31 224.21
  Z"
/>
<path d="
  M 532.15 215.35
  L 534.21 214.69
  A 0.61 0.61 0.0 0 1 534.67 214.74
  L 539.57 217.41
  A 1.22 1.22 0.0 0 1 540.05 219.08
  Q 538.54 221.75 536.47 226.30
  A 0.90 0.81 -57.0 0 1 535.13 226.66
  Q 534.89 226.43 534.92 225.57
  Q 534.95 224.74 534.70 224.43
  Q 534.11 223.70 533.14 220.61
  C 532.69 219.19 533.23 217.13 532.00 216.05
  A 0.42 0.41 -33.4 0 1 532.15 215.35
  Z"
/>
<path d="
  M 552.84 219.27
  Q 553.26 220.74 556.05 219.71
  A 1.56 1.55 -86.8 0 1 557.97 221.87
  C 557.36 223.09 556.40 225.63 554.96 227.02
  C 554.08 227.88 554.32 228.77 553.27 229.46
  Q 552.77 229.78 551.07 228.71
  A 0.89 0.88 -74.0 0 1 550.66 227.96
  L 550.81 219.53
  A 1.04 1.03 37.6 0 1 552.84 219.27
  Z"
/>
<path d="
  M 460.74 220.60
  Q 461.79 220.54 462.91 219.84
  A 0.95 0.95 0.0 0 1 464.37 220.65
  L 464.37 224.35
  A 0.49 0.41 -39.7 0 1 464.34 224.51
  L 461.36 232.72
  A 0.69 0.69 0.0 0 1 460.66 233.17
  C 456.67 232.84 456.79 229.55 455.00 227.69
  A 0.93 0.92 43.8 0 1 454.97 226.43
  L 459.56 221.17
  A 1.71 1.70 19.1 0 1 460.74 220.60
  Z"
/>
<path d="
  M 479.26 236.84
  L 479.39 238.10
  A 2.18 2.14 53.2 0 1 479.25 239.14
  C 478.36 241.33 476.57 244.18 476.10 246.95
  Q 475.84 248.48 473.85 249.57
  A 0.62 0.61 -37.5 0 1 473.14 249.48
  L 467.74 244.48
  A 1.92 1.91 13.0 0 1 467.23 243.67
  Q 466.23 240.28 469.18 239.50
  A 0.94 0.80 -65.5 0 0 469.50 239.35
  L 475.52 235.13
  A 2.39 2.39 0.0 0 1 479.26 236.84
  Z"
/>
<path d="
  M 488.79 258.02
  Q 487.76 259.05 486.14 259.27
  A 1.01 1.01 0.0 0 1 485.21 258.90
  Q 485.16 258.85 485.14 258.81
  A 1.33 1.33 0.0 0 0 484.31 258.28
  Q 482.34 257.93 481.19 255.84
  A 1.34 1.32 -37.0 0 1 481.42 254.26
  L 490.72 244.96
  A 1.15 1.15 0.0 0 1 492.64 246.07
  Q 491.48 250.47 491.04 252.27
  Q 490.74 253.45 489.41 255.29
  A 1.30 1.24 64.2 0 0 489.17 256.04
  L 489.17 257.11
  A 1.30 1.28 -22.9 0 1 488.79 258.02
  Z"
/>
<path d="
  M 502.09 267.69
  Q 501.61 266.92 500.20 267.19
  A 0.53 0.49 51.3 0 1 499.85 267.14
  L 497.05 265.61
  A 0.87 0.86 35.5 0 1 496.82 264.27
  L 500.45 260.29
  A 0.81 0.74 -72.3 0 1 500.85 260.06
  Q 503.30 259.47 504.20 257.76
  A 0.57 0.52 -87.1 0 1 504.47 257.49
  L 510.14 254.83
  A 0.71 0.70 2.0 0 1 511.06 255.81
  L 508.66 260.10
  A 1.05 0.90 74.2 0 0 508.55 260.34
  Q 506.96 265.33 503.00 267.89
  A 0.66 0.65 -32.4 0 1 502.09 267.69
  Z"
/>
</g>
</svg>
