<?xml version="1.0" encoding="UTF-8" standalone="no"?>
<!DOCTYPE svg PUBLIC "-//W3C//DTD SVG 1.1//EN" "http://www.w3.org/Graphics/SVG/1.1/DTD/svg11.dtd">
<svg xmlns="http://www.w3.org/2000/svg" version="1.1" viewBox="0.00 0.00 674.00 686.00">
<g stroke-width="2.00" fill="none" stroke-linecap="butt">
<path stroke="#3187c2" vector-effect="non-scaling-stroke" d="
  M 468.72 186.54
  A 0.58 0.58 0.0 0 0 468.75 185.51
  C 458.67 179.97 449.11 175.18 439.74 168.01
  Q 424.76 156.53 424.11 137.41
  C 424.05 135.75 424.41 134.50 425.00 133.16
  A 0.68 0.67 31.9 0 1 426.06 132.92
  C 428.18 134.75 430.15 137.70 431.67 140.58
  Q 439.74 155.91 453.45 164.54
  C 468.39 173.95 485.01 181.32 500.88 188.41
  Q 518.45 196.26 537.78 194.29
  C 540.71 194.00 545.55 192.80 547.63 191.33
  Q 550.02 189.63 550.59 186.30
  C 553.72 167.99 552.85 147.96 545.09 130.65
  C 539.70 118.63 533.90 109.38 524.54 100.23
  Q 513.03 88.99 502.56 81.21
  Q 496.16 76.45 478.41 64.00
  C 472.28 59.70 465.23 55.62 459.48 52.75
  C 431.79 38.96 401.27 26.89 371.55 20.24
  Q 351.42 15.73 325.51 12.65
  Q 310.83 10.91 292.91 11.20
  Q 271.05 11.55 260.26 12.38
  Q 238.84 14.03 218.85 20.33
  C 197.43 27.07 165.72 45.60 167.95 71.77
  C 168.72 80.81 175.41 88.24 183.99 90.75
  C 191.77 93.03 201.22 92.68 208.85 91.53
  C 217.50 90.23 229.75 85.47 237.03 83.76
  Q 259.74 78.45 278.00 79.14
  Q 291.63 79.65 298.48 80.55
  Q 346.85 86.88 386.75 113.51
  C 392.98 117.66 399.49 122.71 404.14 127.36
  Q 409.31 132.52 415.02 138.12
  A 3.08 3.07 53.6 0 1 414.28 143.05
  L 414.13 143.12
  A 6.04 6.04 0.0 0 1 407.57 142.47
  Q 401.17 137.34 397.30 133.95
  C 386.22 124.23 374.05 116.57 360.57 110.15
  A 0.41 0.40 -73.6 0 0 359.99 110.47
  C 358.59 122.55 359.16 133.40 371.74 139.02
  C 382.34 143.76 391.74 147.06 398.07 156.12
  Q 404.39 165.18 405.38 178.27
  C 405.85 184.54 405.47 194.14 406.82 200.54
  Q 409.70 214.22 419.85 223.68
  Q 429.75 232.92 460.20 259.03
  Q 469.14 266.69 478.74 270.75
  Q 483.67 272.84 489.46 272.29
  C 493.86 271.87 498.08 268.17 501.18 264.78
  A 0.52 0.52 0.0 0 0 500.68 263.93
  Q 499.00 264.31 497.50 264.26
  Q 486.66 263.84 477.24 257.98
  C 463.89 249.69 455.43 241.19 452.85 225.62
  Q 450.13 209.20 458.19 196.25
  C 460.91 191.87 464.26 188.67 468.72 186.54"
/>
<path stroke="#3187c2" vector-effect="non-scaling-stroke" d="
  M 288.37 114.78
  Q 283.81 102.53 285.65 90.70
  A 0.64 0.63 6.1 0 0 285.05 89.97
  L 274.59 89.33
  A 1.18 1.18 0.0 0 0 273.34 90.43
  C 272.69 99.98 277.16 113.27 287.83 115.41
  A 0.48 0.47 -4.8 0 0 288.37 114.78"
/>
<path stroke="#3187c2" vector-effect="non-scaling-stroke" d="
  M 266.53 109.66
  A 0.48 0.48 0.0 0 0 267.07 109.04
  Q 264.09 100.22 263.54 91.28
  A 0.68 0.68 0.0 0 0 262.75 90.65
  L 254.35 91.97
  A 1.59 1.58 -8.1 0 0 253.02 93.73
  Q 254.70 107.37 266.53 109.66"
/>
<path stroke="#3187c2" vector-effect="non-scaling-stroke" d="
  M 308.96 120.27
  Q 308.93 119.95 307.96 116.44
  C 306.11 109.71 306.95 101.55 308.62 94.45
  A 1.51 1.51 0.0 0 0 307.40 92.61
  L 295.89 90.69
  A 0.93 0.92 -82.0 0 0 294.82 91.50
  Q 293.53 102.90 297.61 113.13
  Q 300.53 120.46 308.38 120.87
  A 0.56 0.55 -1.3 0 0 308.96 120.27"
/>
<path stroke="#3187c2" vector-effect="non-scaling-stroke" d="
  M 329.34 125.50
  A 0.17 0.17 0.0 0 0 329.54 125.31
  Q 327.69 112.81 329.91 99.42
  A 1.34 1.34 0.0 0 0 329.02 97.93
  L 318.58 94.33
  A 0.83 0.83 0.0 0 0 317.49 94.93
  C 314.93 106.17 314.49 122.58 329.34 125.50"
/>
<path stroke="#3187c2" vector-effect="non-scaling-stroke" d="
  M 353.02 132.74
  Q 353.12 132.35 352.94 131.76
  Q 349.15 119.16 352.63 106.93
  A 0.96 0.96 0.0 0 0 352.06 105.77
  L 339.80 100.90
  A 0.33 0.33 0.0 0 0 339.36 101.14
  C 338.73 104.32 337.30 108.13 337.24 111.34
  Q 337.13 117.79 339.50 123.53
  C 341.50 128.35 347.68 131.58 352.27 133.15
  A 0.58 0.58 0.0 0 0 353.02 132.74"
/>
<path stroke="#3187c2" vector-effect="non-scaling-stroke" d="
  M 134.39 133.66
  A 0.15 0.15 0.0 0 0 134.22 133.89
  C 140.45 141.70 148.77 150.46 154.54 158.71
  Q 161.63 168.85 169.12 181.51
  C 177.64 195.89 182.99 209.68 186.59 225.30
  A 0.87 0.87 0.0 0 0 187.87 225.86
  L 206.57 215.06
  A 2.84 2.83 80.2 0 0 207.96 213.08
  Q 209.01 207.17 209.66 200.84
  Q 210.35 194.02 206.83 189.41
  C 193.62 172.13 177.38 158.59 158.58 146.43
  Q 146.58 138.67 134.39 133.66"
/>
<path stroke="#3187c2" vector-effect="non-scaling-stroke" d="
  M 157.78 490.08
  Q 154.69 485.96 151.54 481.05
  C 144.32 469.74 141.68 455.37 147.61 442.91
  C 153.10 431.41 162.44 425.27 175.28 426.80
  C 186.72 428.17 194.68 435.69 200.81 444.95
  A 0.41 0.41 0.0 0 0 201.56 444.80
  C 202.59 438.67 200.20 433.93 196.65 428.93
  C 192.09 422.49 185.89 418.23 178.04 416.01
  Q 174.24 414.93 169.43 413.33
  C 152.99 407.85 145.23 393.51 142.87 377.13
  Q 140.76 362.52 141.01 350.25
  C 141.18 341.27 143.71 332.24 145.36 325.37
  C 147.91 314.80 148.00 299.23 140.42 290.60
  Q 139.67 289.75 138.87 288.45
  A 1.79 1.78 -34.6 0 1 139.30 286.11
  C 144.25 282.30 148.47 285.82 151.72 289.46
  A 2.21 2.21 0.0 0 0 153.92 290.12
  Q 171.43 285.51 191.55 281.66
  Q 199.49 280.14 224.68 276.53
  Q 244.65 273.67 257.69 270.57
  C 260.06 270.01 260.97 270.65 262.83 271.99
  Q 266.26 274.46 269.39 278.67
  Q 279.73 292.58 296.30 298.97
  C 309.47 304.06 324.95 307.17 338.87 303.42
  C 340.60 302.96 342.57 302.93 344.03 303.74
  A 1.24 1.24 0.0 0 1 344.38 305.61
  C 338.73 312.45 326.85 314.49 318.23 314.05
  Q 282.28 312.25 258.12 284.95
  Q 256.56 283.19 254.98 283.41
  Q 250.50 284.02 248.39 284.75
  A 1.61 1.60 68.5 0 0 247.45 286.92
  C 259.91 314.69 289.10 326.94 318.29 326.29
  C 322.65 326.19 327.22 325.04 331.99 324.23
  Q 333.33 324.01 334.03 324.39
  A 1.53 1.26 -56.8 0 1 334.26 326.47
  C 330.37 331.88 319.28 334.47 313.01 334.83
  C 298.82 335.65 284.59 332.37 271.66 326.30
  Q 248.76 315.54 237.51 293.08
  A 0.78 0.78 0.0 0 0 236.20 292.94
  Q 233.74 296.01 231.09 299.30
  Q 229.48 301.30 229.95 303.09
  C 231.97 310.72 236.59 318.38 242.94 324.34
  Q 253.06 333.83 262.18 338.35
  Q 273.44 343.93 287.75 346.79
  Q 297.31 348.69 310.26 347.27
  Q 312.21 347.05 313.62 347.77
  A 1.26 1.26 0.0 0 1 313.74 349.94
  Q 303.10 356.99 290.03 356.62
  Q 276.37 356.24 261.08 350.20
  Q 246.92 344.61 234.55 330.38
  C 231.18 326.51 228.25 320.72 225.77 315.99
  A 1.34 1.34 0.0 0 0 223.82 315.51
  Q 222.64 316.32 222.37 317.65
  Q 221.62 321.41 219.74 326.78
  A 2.63 2.53 -39.7 0 0 219.61 327.94
  C 220.17 332.58 225.31 338.80 228.21 342.03
  C 239.44 354.51 255.20 364.79 271.78 367.29
  C 289.56 369.97 308.22 365.34 321.81 353.37
  Q 345.56 332.45 354.83 303.55
  Q 356.01 299.88 357.46 298.96
  C 359.30 297.79 363.94 295.66 365.42 298.43
  C 367.59 302.46 365.68 307.11 363.68 311.70
  Q 360.62 318.72 358.13 323.85
  Q 355.97 328.30 346.55 341.80
  C 345.28 343.62 343.26 345.27 342.08 346.98
  Q 338.43 352.31 333.94 357.68
  A 0.62 0.62 0.0 0 0 334.22 358.67
  Q 342.18 361.28 345.33 354.03
  A 2.89 2.84 -38.1 0 0 345.53 352.48
  C 345.14 349.75 344.21 346.83 347.02 345.90
  A 1.88 1.84 -48.2 0 1 347.91 345.84
  C 351.99 346.60 355.08 347.68 358.55 345.33
  Q 363.28 342.13 365.71 338.12
  A 2.51 2.51 0.0 0 0 365.33 335.04
  C 363.01 332.73 360.69 330.67 361.32 327.63
  A 1.15 1.14 6.3 0 1 362.47 326.72
  C 366.50 326.81 371.25 327.08 373.99 324.95
  Q 377.98 321.83 380.81 316.37
  A 0.35 0.35 0.0 0 0 380.64 315.89
  C 376.71 314.19 372.22 312.96 370.93 308.57
  A 1.30 1.30 0.0 0 1 372.11 306.90
  Q 375.56 306.71 379.28 304.77
  C 384.34 302.13 388.53 299.00 389.59 293.22
  A 1.65 1.64 -84.5 0 0 388.00 291.28
  C 383.92 291.24 376.96 290.74 374.23 287.48
  A 1.96 1.90 46.9 0 1 374.27 284.93
  Q 374.87 284.29 375.74 284.19
  C 384.11 283.23 391.09 282.05 396.15 274.66
  C 400.72 267.97 404.96 258.28 402.09 250.61
  A 2.01 2.00 79.1 0 0 400.19 249.31
  Q 393.75 249.40 389.51 253.24
  Q 384.88 257.44 379.70 262.85
  A 2.48 2.47 37.0 0 1 376.65 263.27
  Q 372.92 261.08 374.28 256.24
  Q 376.28 249.14 381.59 241.06
  C 387.22 232.50 394.45 228.21 403.29 223.73
  A 0.71 0.70 63.6 0 0 403.60 222.79
  L 398.68 212.65
  A 1.31 1.30 -30.2 0 0 396.76 212.15
  C 387.40 218.60 379.12 227.22 374.08 237.57
  Q 369.66 246.64 369.28 247.53
  Q 368.32 249.80 366.73 249.13
  A 0.71 0.71 0.0 0 0 365.97 249.26
  Q 364.98 250.14 364.00 248.73
  Q 362.25 246.20 363.53 243.03
  Q 365.37 238.45 367.15 234.20
  C 370.93 225.12 376.47 217.03 380.19 207.92
  Q 384.98 196.21 386.68 183.98
  Q 387.44 178.50 386.72 171.19
  A 3.64 3.61 -77.9 0 0 384.92 168.39
  L 380.64 165.92
  A 0.92 0.92 0.0 0 0 379.26 166.67
  Q 378.45 183.78 372.42 198.99
  C 367.68 210.93 358.30 223.49 346.40 228.86
  Q 345.12 229.44 344.29 228.86
  A 1.82 1.75 -52.0 0 1 344.02 226.23
  C 355.99 212.35 364.95 194.72 366.95 176.25
  C 367.92 167.27 366.13 158.38 360.00 151.53
  C 357.55 148.81 353.14 148.03 350.12 147.08
  A 0.81 0.81 0.0 0 0 349.14 148.19
  C 352.83 156.33 355.05 164.60 354.57 173.42
  Q 353.49 193.09 339.56 206.63
  Q 332.89 213.11 325.14 214.37
  Q 323.87 214.58 323.23 214.24
  A 1.32 1.32 0.0 0 1 322.98 212.09
  C 329.36 206.43 334.48 200.27 337.83 192.28
  Q 341.77 182.87 342.72 175.76
  C 344.03 165.89 342.17 149.81 332.57 143.92
  Q 328.44 141.38 325.45 139.86
  A 0.57 0.56 3.3 0 0 324.66 140.56
  Q 334.69 167.56 321.42 192.72
  Q 320.98 193.55 320.26 193.81
  A 2.35 2.17 68.9 0 1 317.44 192.42
  C 316.28 189.53 316.84 185.46 316.74 182.61
  A 0.43 0.42 81.4 0 0 316.21 182.21
  L 307.79 184.53
  A 2.57 2.56 -7.1 0 0 305.91 186.93
  C 305.54 199.31 311.34 211.48 316.49 222.50
  Q 328.03 247.23 352.50 258.25
  C 360.66 261.93 366.01 265.99 364.33 275.27
  Q 363.11 282.06 362.68 283.69
  Q 362.56 284.15 362.22 284.38
  A 0.80 0.80 0.0 0 1 361.03 284.01
  Q 357.58 275.43 356.82 273.93
  C 354.80 269.99 352.18 269.09 347.85 267.58
  C 328.74 260.93 313.78 245.54 305.94 227.33
  C 302.26 218.79 298.97 208.00 292.55 198.95
  C 285.47 188.97 273.35 182.18 261.45 180.30
  C 244.05 177.54 228.63 183.13 220.73 199.24
  Q 219.00 202.77 219.84 206.40
  A 0.62 0.62 0.0 0 0 220.72 206.82
  Q 226.75 203.74 229.72 202.50
  C 240.46 198.01 254.45 198.90 263.45 206.89
  C 270.17 212.88 275.43 221.16 278.83 230.11
  C 281.65 237.49 283.81 243.91 286.77 249.35
  Q 297.06 268.27 316.89 278.39
  Q 330.69 285.43 345.92 282.21
  A 2.05 2.04 -21.5 0 1 348.08 283.14
  C 350.10 286.44 345.65 288.44 343.11 289.36
  C 334.79 292.37 325.94 292.30 317.12 289.21
  C 303.51 284.43 291.77 276.67 283.98 264.49
  Q 276.14 252.23 271.12 239.43
  C 266.51 227.65 263.45 219.93 253.17 213.24
  C 243.93 207.21 230.48 213.07 221.89 218.39
  Q 202.42 230.45 187.09 239.03
  Q 168.43 249.47 160.43 252.44
  Q 135.11 261.85 132.78 262.79
  C 122.48 266.93 106.62 274.63 104.32 285.84
  Q 101.81 298.09 104.10 311.50
  Q 106.04 322.91 108.32 330.69
  Q 111.03 339.97 118.81 365.64
  Q 123.49 381.08 123.86 397.75
  Q 124.28 416.79 112.65 431.68
  Q 108.65 436.79 100.42 446.61
  Q 95.10 452.95 94.74 460.48
  Q 94.04 475.02 101.61 486.63
  A 0.29 0.29 0.0 0 0 102.13 486.37
  C 100.95 483.03 101.10 480.93 101.04 476.49
  C 100.82 461.13 108.69 449.41 119.27 438.82
  C 121.64 436.44 131.63 425.86 134.85 429.11
  C 135.97 430.25 137.62 432.37 137.09 434.04
  C 134.56 442.07 132.64 447.53 132.20 454.75
  C 131.57 465.33 135.62 472.80 142.16 480.61
  Q 148.37 488.02 157.40 490.63
  A 0.35 0.35 0.0 0 0 157.78 490.08"
/>
<path stroke="#3187c2" vector-effect="non-scaling-stroke" d="
  M 263.25 170.10
  A 0.39 0.39 0.0 0 0 263.62 169.47
  C 253.66 157.62 242.28 148.33 227.73 143.00
  A 0.50 0.50 0.0 0 0 227.11 143.69
  Q 228.56 146.71 231.19 151.00
  Q 236.33 159.36 238.75 170.28
  A 0.76 0.75 76.6 0 0 239.67 170.85
  C 247.74 168.79 255.29 168.67 263.25 170.10"
/>
<path stroke="#89b2d0" vector-effect="non-scaling-stroke" d="
  M 489.17 194.93
  A 0.19 0.19 0.0 0 0 488.91 195.10
  L 488.91 210.50
  A 0.70 0.70 0.0 0 0 490.02 211.07
  Q 496.11 206.66 499.32 199.88
  A 0.79 0.79 0.0 0 0 498.90 198.80
  L 489.17 194.93"
/>
<path stroke="#3187c2" vector-effect="non-scaling-stroke" d="
  M 102.88 202.46
  Q 103.06 202.83 103.48 203.14
  C 117.63 213.65 132.59 227.33 143.02 237.48
  Q 146.61 240.96 149.00 243.73
  A 1.79 1.78 -31.2 0 0 151.02 244.22
  L 166.94 237.78
  A 0.99 0.99 0.0 0 0 167.27 236.17
  C 155.11 223.70 140.75 215.18 124.73 208.01
  Q 114.49 203.42 103.19 202.04
  A 0.30 0.29 -9.1 0 0 102.88 202.46"
/>
<path stroke="#89b2d0" vector-effect="non-scaling-stroke" d="
  M 508.88 203.07
  C 508.42 205.50 511.67 211.80 512.97 214.66
  A 0.49 0.49 0.0 0 0 513.85 214.67
  L 516.42 209.28
  A 1.59 1.58 -2.6 0 1 517.06 208.58
  Q 520.33 206.67 521.51 206.80
  Q 524.54 207.16 525.17 210.10
  Q 525.80 213.02 526.33 216.02
  A 0.46 0.46 0.0 0 0 527.13 216.25
  Q 529.63 213.44 531.18 211.36
  Q 532.43 209.70 533.41 209.35
  C 538.91 207.36 539.08 212.82 540.05 216.81
  A 0.67 0.67 0.0 0 0 541.35 216.84
  L 544.90 204.11
  A 0.49 0.48 -2.6 0 0 544.26 203.53
  Q 539.78 205.27 534.49 205.50
  Q 521.70 206.07 509.60 202.63
  A 0.57 0.57 0.0 0 0 508.88 203.07"
/>
<path stroke="#89b2d0" vector-effect="non-scaling-stroke" d="
  M 480.84 224.83
  A 0.49 0.49 0.0 0 0 480.17 224.22
  Q 472.92 227.74 468.40 233.53
  A 2.68 2.67 -48.5 0 0 468.61 237.07
  L 473.26 241.72
  A 0.88 0.88 0.0 0 0 474.56 241.66
  Q 475.57 240.46 475.90 239.38
  Q 478.21 231.90 480.84 224.83"
/>
<path stroke="#89b2d0" vector-effect="non-scaling-stroke" d="
  M 493.10 238.97
  C 488.81 240.95 485.50 243.68 480.81 247.38
  A 0.49 0.48 40.9 0 0 480.87 248.18
  L 487.49 252.00
  A 0.96 0.96 0.0 0 0 488.55 251.94
  Q 489.56 251.20 490.02 249.75
  Q 491.92 243.71 493.57 239.41
  A 0.35 0.35 0.0 0 0 493.10 238.97"
/>
<path stroke="#3187c2" vector-effect="non-scaling-stroke" d="
  M 415.23 275.61
  Q 414.00 278.73 413.58 282.29
  Q 412.54 291.01 412.92 300.48
  Q 413.24 308.45 416.67 313.63
  C 421.62 321.11 428.15 329.01 435.99 335.06
  C 437.81 336.46 437.92 337.59 436.99 339.43
  A 1.28 1.28 0.0 0 1 435.77 340.13
  Q 429.55 339.74 424.75 336.00
  Q 415.29 328.63 409.78 318.31
  A 0.41 0.41 0.0 0 0 409.02 318.39
  C 405.57 331.13 417.92 343.03 427.21 352.82
  C 433.63 359.59 442.56 366.44 452.28 366.90
  Q 457.50 367.15 464.97 365.47
  Q 489.20 360.02 510.34 350.57
  Q 521.01 345.80 540.74 333.42
  C 542.29 332.45 543.64 331.70 545.23 332.49
  Q 551.97 335.87 559.51 335.73
  Q 571.38 335.52 576.64 324.81
  A 0.57 0.57 0.0 0 0 576.41 324.06
  L 571.70 321.33
  A 1.81 1.81 0.0 0 1 571.03 318.86
  C 572.43 316.44 576.92 314.59 579.24 314.23
  Q 596.20 311.58 607.92 323.23
  A 0.38 0.37 -72.4 0 0 608.55 322.90
  C 606.79 312.24 592.30 302.12 581.72 302.51
  Q 575.71 302.74 570.26 303.33
  Q 567.99 303.57 566.17 302.17
  A 2.61 2.31 -63.4 0 1 565.44 299.43
  Q 566.17 297.13 568.38 296.08
  Q 575.25 292.81 583.49 292.94
  A 0.58 0.57 1.6 0 0 584.07 292.40
  C 584.70 280.91 586.17 270.95 595.31 263.65
  C 605.15 255.79 616.76 252.40 629.34 252.04
  A 0.44 0.44 0.0 0 0 629.56 251.22
  C 616.06 242.63 601.57 241.06 589.03 251.84
  Q 584.33 255.88 581.21 260.72
  Q 574.09 271.79 565.63 286.36
  Q 557.07 301.10 541.37 309.85
  Q 521.39 320.98 495.49 326.67
  Q 484.83 329.01 472.15 331.14
  Q 466.45 332.10 461.36 334.12
  C 456.87 335.90 453.84 339.62 451.10 343.80
  A 2.03 2.03 0.0 0 1 448.01 344.17
  C 444.68 341.05 447.36 335.32 449.93 332.40
  Q 450.20 332.10 452.35 329.89
  A 0.76 0.75 45.9 0 0 452.36 328.85
  Q 450.72 327.08 449.17 325.09
  Q 430.86 301.38 415.70 275.58
  A 0.26 0.26 0.0 0 0 415.23 275.61"
/>
<path stroke="#89b2d0" vector-effect="non-scaling-stroke" d="
  M 506.61 247.77
  Q 500.70 250.24 495.65 254.22
  A 0.42 0.42 0.0 0 0 495.77 254.94
  C 502.56 257.34 504.06 253.43 507.16 248.42
  A 0.45 0.45 0.0 0 0 506.61 247.77"
/>
<path stroke="#3187c2" vector-effect="non-scaling-stroke" d="
  M 85.61 262.46
  Q 87.80 272.86 93.63 281.97
  A 0.83 0.83 0.0 0 0 95.05 281.94
  L 97.49 277.72
  A 2.56 2.54 -44.0 0 0 97.54 275.28
  Q 96.26 272.81 93.87 270.38
  Q 90.87 267.34 86.04 262.23
  A 0.26 0.25 -72.7 0 0 85.61 262.46"
/>
<path stroke="#3187c2" vector-effect="non-scaling-stroke" d="
  M 659.87 305.08
  Q 656.62 297.84 649.45 292.21
  Q 643.37 287.43 634.50 286.91
  Q 621.19 286.11 609.41 290.39
  Q 604.46 292.19 598.11 294.98
  A 0.56 0.56 0.0 0 0 598.07 295.99
  Q 604.44 299.42 608.81 303.69
  A 1.58 1.56 57.2 0 0 610.45 304.05
  C 614.92 302.44 620.49 300.21 625.05 299.39
  Q 643.08 296.14 659.38 305.53
  A 0.35 0.35 0.0 0 0 659.87 305.08"
/>
<path stroke="#3187c2" vector-effect="non-scaling-stroke" d="
  M 87.25 312.28
  Q 90.58 316.24 93.98 318.48
  A 0.35 0.35 0.0 0 0 94.51 318.15
  C 94.16 315.19 93.92 309.75 92.41 307.95
  C 90.89 306.15 85.57 304.98 82.72 304.12
  A 0.35 0.35 0.0 0 0 82.30 304.59
  Q 83.92 308.33 87.25 312.28"
/>
<path stroke="#3187c2" vector-effect="non-scaling-stroke" d="
  M 620.33 330.14
  A 5.74 5.73 -84.4 0 0 623.28 333.73
  Q 627.22 335.72 630.47 337.80
  Q 635.04 340.73 638.45 345.95
  A 0.83 0.83 0.0 0 0 639.97 345.63
  Q 640.79 340.44 638.35 336.88
  C 633.39 329.61 627.47 325.93 619.63 321.04
  A 1.01 1.00 8.2 0 0 618.13 322.16
  L 620.33 330.14"
/>
<path stroke="#3187c2" vector-effect="non-scaling-stroke" d="
  M 157.18 669.39
  C 155.68 655.00 145.53 649.11 132.54 646.11
  A 2.18 2.10 15.3 0 1 130.93 643.40
  Q 131.07 642.98 131.93 642.33
  A 1.63 1.63 0.0 0 1 132.41 642.09
  L 140.91 639.75
  A 3.08 2.96 -50.2 0 1 141.82 639.65
  Q 148.44 639.91 153.17 643.59
  C 159.36 648.41 165.35 654.59 166.87 662.48
  A 1.04 1.04 0.0 0 0 167.89 663.33
  C 174.96 663.36 181.44 665.15 188.43 666.31
  A 0.47 0.47 0.0 0 0 188.95 665.69
  Q 184.99 653.91 175.57 645.48
  C 173.01 643.19 168.97 641.40 166.43 639.55
  C 158.97 634.13 157.72 626.03 157.69 616.77
  Q 157.64 603.41 160.33 592.33
  C 161.87 585.99 166.52 576.11 173.77 574.78
  C 179.37 573.76 184.66 572.83 190.44 572.35
  Q 212.85 570.50 229.81 567.81
  Q 245.41 565.34 262.97 560.34
  Q 277.19 556.29 282.58 551.72
  Q 292.47 543.33 293.04 529.01
  Q 293.47 518.36 292.76 513.77
  Q 287.22 478.24 274.44 450.28
  C 263.95 427.31 247.91 408.52 227.25 394.13
  C 222.94 391.12 218.42 387.18 216.01 383.99
  Q 215.57 383.41 216.04 381.65
  A 0.56 0.55 14.2 0 1 216.70 381.26
  C 218.80 381.78 223.01 382.45 225.88 383.66
  Q 238.43 388.96 249.33 398.94
  Q 270.01 417.88 282.37 442.99
  A 0.97 0.97 0.0 0 0 283.83 443.34
  C 293.58 436.00 300.38 423.43 303.86 411.87
  Q 307.44 400.00 309.55 386.48
  A 0.33 0.33 0.0 0 0 309.25 386.10
  L 302.39 385.34
  A 2.02 2.00 -23.2 0 1 301.40 384.95
  L 300.02 383.92
  A 1.07 1.06 21.1 0 0 298.31 384.67
  Q 297.30 395.81 294.49 405.69
  Q 294.03 407.32 291.98 410.81
  A 1.40 1.37 -83.2 0 1 291.21 411.43
  Q 289.82 411.89 288.05 411.40
  A 1.99 1.99 0.0 0 1 286.59 409.58
  Q 286.41 405.53 287.16 401.89
  Q 289.01 392.99 289.71 384.80
  A 0.64 0.64 0.0 0 0 288.75 384.20
  C 282.54 387.85 275.68 388.76 268.30 389.58
  A 0.68 0.68 0.0 0 0 267.69 390.31
  L 268.36 400.99
  A 1.09 1.08 7.8 0 1 266.92 402.08
  L 261.71 400.28
  A 3.51 3.51 0.0 0 1 259.70 398.51
  Q 256.33 391.68 256.32 391.65
  C 251.90 382.89 245.51 375.20 237.99 368.80
  C 228.34 360.58 214.27 355.11 201.86 360.12
  C 194.65 363.03 191.18 371.56 190.35 378.86
  Q 188.88 391.85 192.55 407.44
  Q 193.06 409.61 194.59 410.97
  C 196.90 413.02 200.39 415.13 202.70 417.83
  Q 210.14 426.52 211.49 437.92
  C 212.12 443.28 210.88 448.00 209.76 454.00
  Q 208.94 458.36 210.85 461.98
  Q 218.20 475.93 230.29 492.37
  C 234.46 498.02 239.58 503.56 244.94 509.49
  C 248.32 513.23 250.61 516.85 252.67 520.87
  Q 254.27 524.01 253.75 527.92
  C 253.40 530.60 251.14 531.44 248.83 531.81
  C 247.31 532.05 247.17 532.53 246.26 533.95
  A 0.64 0.63 52.7 0 1 245.12 533.79
  C 243.73 529.35 240.91 525.31 236.73 523.13
  Q 234.47 521.96 229.93 521.92
  Q 216.94 521.82 205.78 527.99
  Q 202.50 529.81 195.37 536.19
  C 185.41 545.12 175.01 552.76 161.01 552.23
  Q 154.43 551.98 145.28 551.58
  C 133.95 551.07 130.48 560.73 131.23 570.26
  Q 132.22 582.63 131.89 591.26
  Q 131.28 607.73 125.35 623.62
  Q 121.07 635.07 116.31 646.61
  Q 113.28 653.97 118.06 658.37
  C 123.25 663.14 131.93 661.08 138.29 662.59
  C 144.77 664.12 152.26 667.83 156.68 669.76
  A 0.36 0.36 0.0 0 0 157.18 669.39"
/>
<path stroke="#3187c2" vector-effect="non-scaling-stroke" d="
  M 20.36 486.19
  C 23.50 484.21 26.35 482.07 28.97 486.51
  A 1.22 1.17 -55.0 0 1 29.11 487.40
  C 28.12 492.03 18.84 494.19 19.33 499.25
  Q 20.24 508.55 22.11 518.39
  A 0.34 0.34 0.0 0 0 22.66 518.59
  Q 26.50 515.41 30.93 515.46
  A 1.44 1.42 67.3 0 1 31.94 515.88
  Q 33.67 517.60 33.24 519.08
  A 1.03 1.01 -15.2 0 1 33.01 519.47
  L 26.04 527.17
  A 1.89 1.87 57.1 0 0 25.65 529.03
  Q 30.17 542.22 39.68 553.18
  A 0.26 0.26 0.0 0 0 40.13 553.08
  Q 40.33 552.37 40.74 550.00
  Q 41.86 543.56 48.29 540.57
  A 2.00 2.00 0.0 0 1 51.05 541.79
  Q 51.56 543.45 50.88 546.94
  Q 49.74 552.88 48.35 558.42
  A 1.93 1.92 -66.4 0 0 49.16 560.51
  Q 59.15 567.09 71.43 571.05
  A 0.53 0.53 0.0 0 0 72.09 570.35
  C 69.97 565.00 69.65 555.01 76.73 553.20
  A 1.23 1.23 0.0 0 1 78.21 554.04
  Q 78.83 556.08 78.90 557.79
  Q 79.27 567.19 79.82 571.87
  A 2.30 2.29 -86.7 0 0 81.56 573.83
  Q 91.24 576.15 101.28 576.02
  A 0.27 0.27 0.0 0 0 101.53 575.67
  Q 98.27 565.35 100.03 554.27
  A 0.98 0.96 78.2 0 1 100.44 553.63
  L 101.70 552.73
  A 0.88 0.87 76.3 0 0 102.06 552.13
  Q 102.30 550.06 104.81 550.81
  C 106.52 551.33 107.01 554.36 107.11 555.74
  Q 107.80 565.89 110.44 574.80
  A 1.43 1.42 74.0 0 0 112.18 575.77
  L 120.21 573.56
  A 1.26 1.25 80.7 0 0 121.12 572.29
  C 120.70 564.60 121.68 555.23 126.38 549.14
  Q 129.03 545.71 129.89 544.63
  C 133.92 539.61 145.28 540.43 151.16 541.32
  Q 158.47 542.44 165.50 542.13
  A 0.26 0.26 0.0 0 0 165.69 541.70
  Q 162.06 537.20 157.88 530.14
  Q 155.79 526.62 159.24 524.35
  A 2.52 2.51 -40.9 0 1 162.29 524.56
  C 166.65 528.39 169.62 534.16 172.83 538.02
  A 1.76 1.76 0.0 0 0 175.01 538.46
  Q 178.86 536.43 182.61 533.61
  C 189.86 528.18 201.12 522.03 195.92 512.34
  Q 193.48 507.80 187.52 503.84
  A 0.71 0.69 39.6 0 0 186.67 503.91
  Q 181.96 508.21 174.51 512.02
  C 160.89 518.97 140.44 530.25 122.20 537.70
  C 105.83 544.40 86.62 544.08 70.69 536.87
  Q 45.98 525.69 39.64 496.37
  C 31.29 457.71 43.93 417.77 65.47 385.46
  A 0.31 0.31 0.0 0 0 65.05 385.03
  Q 63.22 386.21 61.99 387.49
  C 52.51 397.46 45.06 409.16 37.83 421.54
  A 1.44 1.43 36.2 0 0 38.11 423.32
  L 39.73 424.80
  A 1.00 1.00 0.0 0 1 39.22 426.53
  Q 35.15 427.20 33.35 431.07
  Q 28.71 441.04 25.38 451.25
  A 0.53 0.53 0.0 0 0 26.11 451.89
  Q 27.93 451.03 29.01 450.75
  A 1.85 1.47 -12.8 0 1 31.18 451.79
  Q 31.63 454.05 29.34 455.60
  C 24.58 458.84 23.13 459.74 22.16 465.65
  Q 19.87 479.56 19.64 485.78
  A 0.47 0.47 0.0 0 0 20.36 486.19"
/>
<path stroke="#3187c2" vector-effect="non-scaling-stroke" d="
  M 490.09 657.45
  Q 489.74 655.22 488.45 652.98
  C 480.93 639.97 466.44 629.33 450.69 630.11
  Q 447.67 630.26 440.98 629.13
  A 4.77 4.26 58.6 0 1 440.02 628.84
  Q 428.73 623.89 426.15 622.36
  Q 413.21 614.62 403.61 602.38
  Q 393.98 590.12 384.56 576.51
  C 378.71 568.06 372.22 559.47 370.53 549.79
  A 1.11 1.08 -29.4 0 1 370.80 548.87
  Q 371.98 547.55 373.12 546.62
  C 392.78 530.72 410.06 516.35 429.92 497.44
  Q 436.48 491.19 441.57 484.33
  Q 448.42 475.10 448.25 463.62
  C 448.14 456.18 445.57 450.82 440.81 445.91
  Q 436.53 441.50 433.03 439.01
  Q 401.00 416.22 364.88 404.41
  C 353.96 400.84 341.84 400.81 331.20 405.98
  C 328.54 407.28 326.28 412.76 324.83 415.16
  A 0.52 0.52 0.0 0 0 325.00 415.87
  Q 328.22 417.94 333.58 420.43
  Q 345.05 425.77 359.37 431.13
  Q 372.83 436.16 386.66 437.09
  C 389.82 437.31 393.08 437.95 395.87 438.47
  A 0.71 0.71 0.0 0 1 396.16 439.74
  C 388.65 445.17 374.49 443.68 365.51 441.71
  Q 343.38 436.85 323.64 426.06
  A 0.63 0.63 0.0 0 0 322.72 426.54
  C 322.29 430.30 321.18 433.99 323.19 437.08
  C 337.22 458.78 368.13 458.55 388.86 463.40
  C 393.42 464.47 400.72 466.27 404.02 469.27
  A 1.50 1.47 17.8 0 1 404.50 470.18
  C 404.96 474.22 405.15 477.55 401.81 479.78
  C 399.60 481.25 395.39 479.81 392.24 479.32
  C 381.91 477.74 372.00 492.95 369.29 500.77
  Q 366.21 509.67 365.60 511.39
  Q 360.78 525.00 348.88 535.16
  Q 335.70 546.43 334.81 547.29
  Q 331.01 550.94 332.79 555.45
  Q 334.58 559.99 338.17 563.09
  Q 346.19 570.03 351.45 575.04
  Q 367.75 590.62 380.58 611.66
  Q 384.47 618.03 387.73 626.80
  C 389.69 632.08 390.54 638.59 391.83 643.91
  Q 393.40 650.40 400.22 650.83
  Q 409.17 651.40 425.96 651.87
  C 432.79 652.05 440.62 652.84 447.32 654.43
  Q 454.79 656.21 457.97 658.01
  Q 461.76 660.15 465.51 661.96
  A 0.36 0.36 0.0 0 0 466.02 661.58
  Q 465.69 659.63 464.60 657.32
  Q 459.11 645.65 446.87 640.68
  C 440.49 638.09 432.44 639.03 426.59 635.06
  A 0.58 0.57 33.8 0 1 426.43 634.27
  C 428.64 630.87 434.95 629.70 438.68 630.02
  C 452.32 631.18 466.75 638.58 473.26 651.28
  A 3.03 3.00 -3.7 0 0 474.97 652.77
  L 489.64 657.83
  A 0.35 0.34 4.7 0 0 490.09 657.45"
/>
<path stroke="#3187c2" vector-effect="non-scaling-stroke" d="
  M 476.73 627.99
  A 0.40 0.40 0.0 0 0 476.48 628.72
  Q 490.84 637.93 499.36 651.15
  A 2.37 2.36 78.1 0 0 500.96 652.20
  L 509.07 653.55
  A 0.46 0.46 0.0 0 0 509.58 652.93
  Q 507.99 648.75 505.04 645.46
  C 497.94 637.54 487.61 628.92 476.73 627.99"
/>
<path stroke="#3187c2" vector-effect="non-scaling-stroke" d="
  M 211.15 662.44
  Q 207.90 657.50 205.40 654.34
  C 201.78 649.78 196.11 647.65 190.54 646.27
  A 0.39 0.39 0.0 0 0 190.11 646.85
  L 198.47 661.33
  A 2.48 2.46 -13.0 0 0 200.47 662.57
  L 210.72 663.19
  A 0.49 0.48 75.1 0 0 211.15 662.44"
/>
<path stroke="#3187c2" vector-effect="non-scaling-stroke" d="
  M 438.44 223.51
  A 0.79 0.79 0.0 0 0 439.27 222.91
  Q 439.97 220.15 439.91 216.50
  C 439.79 209.73 439.98 204.89 441.11 198.00
  Q 441.85 193.43 441.77 188.95
  Q 441.71 185.87 438.57 184.65
  Q 430.45 181.50 423.76 174.59
  A 1.64 1.64 0.0 0 0 420.94 175.67
  C 420.61 183.45 424.93 187.56 431.31 191.38
  A 1.00 1.00 0.0 0 1 431.76 192.50
  C 429.40 201.18 429.03 212.15 433.47 220.24
  Q 435.13 223.26 438.44 223.51"
/>
<path stroke="#3187c2" vector-effect="non-scaling-stroke" d="
  M 258.17 249.16
  Q 256.46 249.04 253.78 249.81
  Q 238.08 254.32 222.77 252.67
  Q 219.05 252.27 212.23 251.32
  C 198.98 249.46 187.51 253.34 175.86 259.35
  Q 173.05 260.80 171.36 263.20
  A 0.90 0.90 0.0 0 0 171.98 264.61
  C 177.78 265.42 182.44 263.42 190.76 261.25
  Q 194.27 260.34 203.73 260.17
  Q 207.29 260.11 213.24 260.83
  C 226.68 262.46 241.81 263.16 253.69 255.73
  Q 257.30 253.47 258.49 249.64
  A 0.37 0.37 0.0 0 0 258.17 249.16"
/>
<path stroke="#3187c2" vector-effect="non-scaling-stroke" d="
  M 116.37 292.31
  Q 114.84 297.01 115.57 301.69
  Q 118.86 322.52 123.69 341.30
  Q 124.25 343.46 124.94 344.73
  A 1.69 1.69 0.0 0 0 128.11 344.07
  Q 128.58 338.95 127.85 333.86
  Q 124.94 313.40 120.18 298.81
  Q 118.89 294.88 117.59 292.22
  A 0.66 0.66 0.0 0 0 116.37 292.31"
/>
<path stroke="#3187c2" vector-effect="non-scaling-stroke" d="
  M 225.27 426.36
  Q 225.02 426.94 225.12 427.60
  Q 227.58 442.92 234.53 456.96
  C 240.91 469.83 248.78 482.69 258.40 492.74
  A 1.22 1.19 -22.9 0 0 259.34 493.11
  Q 260.79 493.02 261.75 491.50
  A 1.05 1.03 -39.6 0 0 261.85 490.56
  C 257.95 480.35 246.39 463.31 237.46 444.26
  Q 232.99 434.71 226.69 426.19
  A 0.82 0.82 0.0 0 0 225.27 426.36"
/>
<path stroke="#3187c2" vector-effect="non-scaling-stroke" d="
  M 275.78 517.54
  A 6.09 6.09 0.0 0 0 269.34 516.68
  Q 262.47 519.84 259.43 524.76
  C 255.85 530.54 252.38 543.41 256.50 550.43
  A 2.60 2.21 66.8 0 0 259.06 551.70
  Q 261.35 551.17 261.59 548.36
  Q 262.22 540.83 264.04 535.06
  Q 266.47 527.34 275.49 522.02
  A 2.71 2.70 -40.3 0 0 275.86 517.61
  L 275.78 517.54"
/>
<path stroke="#3187c2" vector-effect="non-scaling-stroke" d="
  M 239.22 543.85
  C 236.95 542.02 233.73 543.09 231.22 544.20
  Q 223.87 547.44 217.28 550.00
  Q 207.72 553.71 191.97 556.42
  C 185.17 557.60 181.25 558.47 174.73 560.54
  A 0.94 0.94 0.0 0 0 174.57 562.27
  Q 178.20 564.20 182.31 564.43
  Q 206.10 565.78 225.77 555.52
  Q 232.26 552.13 234.42 550.99
  C 237.38 549.42 238.14 547.74 239.47 544.90
  A 0.89 0.88 31.7 0 0 239.22 543.85"
/>
<path stroke="#3187c2" vector-effect="non-scaling-stroke" d="
  M 148.13 634.72
  Q 148.31 634.28 147.61 625.24
  C 147.03 617.69 149.06 607.89 149.88 600.20
  Q 150.48 594.48 149.85 588.44
  Q 149.33 583.44 145.10 580.96
  A 0.57 0.56 -70.8 0 0 144.26 581.37
  Q 143.02 590.28 140.19 608.74
  C 138.98 616.62 137.65 631.54 147.33 635.08
  A 0.64 0.64 0.0 0 0 148.13 634.72"
/>
<path stroke="#3187c2" vector-effect="non-scaling-stroke" d="
  M 418.91 453.33
  Q 414.34 454.50 413.53 459.60
  Q 411.71 471.10 417.31 481.59
  A 3.58 3.44 -82.5 0 0 417.87 482.35
  Q 421.78 486.20 427.63 486.17
  A 2.30 2.29 -82.6 0 0 429.85 484.45
  Q 430.03 483.77 429.38 483.06
  Q 421.04 473.90 420.12 460.51
  Q 419.93 457.67 419.29 453.57
  A 0.30 0.30 0.0 0 0 418.91 453.33"
/>
<path stroke="#3187c2" vector-effect="non-scaling-stroke" d="
  M 405.53 493.72
  Q 404.57 493.79 404.41 494.10
  C 397.19 508.17 383.35 516.09 371.41 525.41
  Q 368.06 528.03 365.76 531.18
  A 1.75 1.75 0.0 0 0 366.57 533.86
  Q 369.06 534.76 371.32 533.59
  Q 386.03 526.00 397.71 516.04
  Q 407.35 507.82 407.43 495.51
  A 1.79 1.78 -1.7 0 0 405.53 493.72"
/>
<path stroke="#3187c2" vector-effect="non-scaling-stroke" d="
  M 382.79 599.01
  C 388.16 605.96 395.09 614.30 402.63 619.82
  Q 403.94 620.78 405.91 621.25
  A 1.09 1.09 0.0 0 0 407.23 619.96
  Q 407.00 618.87 405.69 617.07
  Q 402.85 613.15 388.51 594.59
  Q 374.16 576.03 371.09 572.29
  Q 369.68 570.58 368.68 570.08
  A 1.09 1.09 0.0 0 0 367.10 571.03
  Q 367.06 573.06 367.65 574.56
  C 371.09 583.26 377.42 592.06 382.79 599.01"
/>
</g>
<g fill="#4faae3">
<path d="
  M 468.72 186.54
  C 464.26 188.67 460.91 191.87 458.19 196.25
  Q 450.13 209.20 452.85 225.62
  C 455.43 241.19 463.89 249.69 477.24 257.98
  Q 486.66 263.84 497.50 264.26
  Q 499.00 264.31 500.68 263.93
  A 0.52 0.52 0.0 0 1 501.18 264.78
  C 498.08 268.17 493.86 271.87 489.46 272.29
  Q 483.67 272.84 478.74 270.75
  Q 469.14 266.69 460.20 259.03
  Q 429.75 232.92 419.85 223.68
  Q 409.70 214.22 406.82 200.54
  C 405.47 194.14 405.85 184.54 405.38 178.27
  Q 404.39 165.18 398.07 156.12
  C 391.74 147.06 382.34 143.76 371.74 139.02
  C 359.16 133.40 358.59 122.55 359.99 110.47
  A 0.41 0.40 -73.6 0 1 360.57 110.15
  C 374.05 116.57 386.22 124.23 397.30 133.95
  Q 401.17 137.34 407.57 142.47
  A 6.04 6.04 0.0 0 0 414.13 143.12
  L 414.28 143.05
  A 3.08 3.07 53.6 0 0 415.02 138.12
  Q 409.31 132.52 404.14 127.36
  C 399.49 122.71 392.98 117.66 386.75 113.51
  Q 346.85 86.88 298.48 80.55
  Q 291.63 79.65 278.00 79.14
  Q 259.74 78.45 237.03 83.76
  C 229.75 85.47 217.50 90.23 208.85 91.53
  C 201.22 92.68 191.77 93.03 183.99 90.75
  C 175.41 88.24 168.72 80.81 167.95 71.77
  C 165.72 45.60 197.43 27.07 218.85 20.33
  Q 238.84 14.03 260.26 12.38
  Q 271.05 11.55 292.91 11.20
  Q 310.83 10.91 325.51 12.65
  Q 351.42 15.73 371.55 20.24
  C 401.27 26.89 431.79 38.96 459.48 52.75
  C 465.23 55.62 472.28 59.70 478.41 64.00
  Q 496.16 76.45 502.56 81.21
  Q 513.03 88.99 524.54 100.23
  C 533.90 109.38 539.70 118.63 545.09 130.65
  C 552.85 147.96 553.72 167.99 550.59 186.30
  Q 550.02 189.63 547.63 191.33
  C 545.55 192.80 540.71 194.00 537.78 194.29
  Q 518.45 196.26 500.88 188.41
  C 485.01 181.32 468.39 173.95 453.45 164.54
  Q 439.74 155.91 431.67 140.58
  C 430.15 137.70 428.18 134.75 426.06 132.92
  A 0.68 0.67 31.9 0 0 425.00 133.16
  C 424.41 134.50 424.05 135.75 424.11 137.41
  Q 424.76 156.53 439.74 168.01
  C 449.11 175.18 458.67 179.97 468.75 185.51
  A 0.58 0.58 0.0 0 1 468.72 186.54
  Z
  M 438.44 223.51
  A 0.79 0.79 0.0 0 0 439.27 222.91
  Q 439.97 220.15 439.91 216.50
  C 439.79 209.73 439.98 204.89 441.11 198.00
  Q 441.85 193.43 441.77 188.95
  Q 441.71 185.87 438.57 184.65
  Q 430.45 181.50 423.76 174.59
  A 1.64 1.64 0.0 0 0 420.94 175.67
  C 420.61 183.45 424.93 187.56 431.31 191.38
  A 1.00 1.00 0.0 0 1 431.76 192.50
  C 429.40 201.18 429.03 212.15 433.47 220.24
  Q 435.13 223.26 438.44 223.51
  Z"
/>
<path d="
  M 288.37 114.78
  A 0.48 0.47 -4.8 0 1 287.83 115.41
  C 277.16 113.27 272.69 99.98 273.34 90.43
  A 1.18 1.18 0.0 0 1 274.59 89.33
  L 285.05 89.97
  A 0.64 0.63 6.1 0 1 285.65 90.70
  Q 283.81 102.53 288.37 114.78
  Z"
/>
<path d="
  M 266.53 109.66
  Q 254.70 107.37 253.02 93.73
  A 1.59 1.58 -8.1 0 1 254.35 91.97
  L 262.75 90.65
  A 0.68 0.68 0.0 0 1 263.54 91.28
  Q 264.09 100.22 267.07 109.04
  A 0.48 0.48 0.0 0 1 266.53 109.66
  Z"
/>
<path d="
  M 308.38 120.87
  Q 300.53 120.46 297.61 113.13
  Q 293.53 102.90 294.82 91.50
  A 0.93 0.92 -82.0 0 1 295.89 90.69
  L 307.40 92.61
  A 1.51 1.51 0.0 0 1 308.62 94.45
  C 306.95 101.55 306.11 109.71 307.96 116.44
  Q 308.93 119.95 308.96 120.27
  A 0.56 0.55 -1.3 0 1 308.38 120.87
  Z"
/>
<path d="
  M 329.34 125.50
  C 314.49 122.58 314.93 106.17 317.49 94.93
  A 0.83 0.83 0.0 0 1 318.58 94.33
  L 329.02 97.93
  A 1.34 1.34 0.0 0 1 329.91 99.42
  Q 327.69 112.81 329.54 125.31
  A 0.17 0.17 0.0 0 1 329.34 125.50
  Z"
/>
<path d="
  M 353.02 132.74
  A 0.58 0.58 0.0 0 1 352.27 133.15
  C 347.68 131.58 341.50 128.35 339.50 123.53
  Q 337.13 117.79 337.24 111.34
  C 337.30 108.13 338.73 104.32 339.36 101.14
  A 0.33 0.33 0.0 0 1 339.80 100.90
  L 352.06 105.77
  A 0.96 0.96 0.0 0 1 352.63 106.93
  Q 349.15 119.16 352.94 131.76
  Q 353.12 132.35 353.02 132.74
  Z"
/>
<path d="
  M 134.39 133.66
  Q 146.58 138.67 158.58 146.43
  C 177.38 158.59 193.62 172.13 206.83 189.41
  Q 210.35 194.02 209.66 200.84
  Q 209.01 207.17 207.96 213.08
  A 2.84 2.83 80.2 0 1 206.57 215.06
  L 187.87 225.86
  A 0.87 0.87 0.0 0 1 186.59 225.30
  C 182.99 209.68 177.64 195.89 169.12 181.51
  Q 161.63 168.85 154.54 158.71
  C 148.77 150.46 140.45 141.70 134.22 133.89
  A 0.15 0.15 0.0 0 1 134.39 133.66
  Z"
/>
<path d="
  M 157.78 490.08
  A 0.35 0.35 0.0 0 1 157.40 490.63
  Q 148.37 488.02 142.16 480.61
  C 135.62 472.80 131.57 465.33 132.20 454.75
  C 132.64 447.53 134.56 442.07 137.09 434.04
  C 137.62 432.37 135.97 430.25 134.85 429.11
  C 131.63 425.86 121.64 436.44 119.27 438.82
  C 108.69 449.41 100.82 461.13 101.04 476.49
  C 101.10 480.93 100.95 483.03 102.13 486.37
  A 0.29 0.29 0.0 0 1 101.61 486.63
  Q 94.04 475.02 94.74 460.48
  Q 95.10 452.95 100.42 446.61
  Q 108.65 436.79 112.65 431.68
  Q 124.28 416.79 123.86 397.75
  Q 123.49 381.08 118.81 365.64
  Q 111.03 339.97 108.32 330.69
  Q 106.04 322.91 104.10 311.50
  Q 101.81 298.09 104.32 285.84
  C 106.62 274.63 122.48 266.93 132.78 262.79
  Q 135.11 261.85 160.43 252.44
  Q 168.43 249.47 187.09 239.03
  Q 202.42 230.45 221.89 218.39
  C 230.48 213.07 243.93 207.21 253.17 213.24
  C 263.45 219.93 266.51 227.65 271.12 239.43
  Q 276.14 252.23 283.98 264.49
  C 291.77 276.67 303.51 284.43 317.12 289.21
  C 325.94 292.30 334.79 292.37 343.11 289.36
  C 345.65 288.44 350.10 286.44 348.08 283.14
  A 2.05 2.04 -21.5 0 0 345.92 282.21
  Q 330.69 285.43 316.89 278.39
  Q 297.06 268.27 286.77 249.35
  C 283.81 243.91 281.65 237.49 278.83 230.11
  C 275.43 221.16 270.17 212.88 263.45 206.89
  C 254.45 198.90 240.46 198.01 229.72 202.50
  Q 226.75 203.74 220.72 206.82
  A 0.62 0.62 0.0 0 1 219.84 206.40
  Q 219.00 202.77 220.73 199.24
  C 228.63 183.13 244.05 177.54 261.45 180.30
  C 273.35 182.18 285.47 188.97 292.55 198.95
  C 298.97 208.00 302.26 218.79 305.94 227.33
  C 313.78 245.54 328.74 260.93 347.85 267.58
  C 352.18 269.09 354.80 269.99 356.82 273.93
  Q 357.58 275.43 361.03 284.01
  A 0.80 0.80 0.0 0 0 362.22 284.38
  Q 362.56 284.15 362.68 283.69
  Q 363.11 282.06 364.33 275.27
  C 366.01 265.99 360.66 261.93 352.50 258.25
  Q 328.03 247.23 316.49 222.50
  C 311.34 211.48 305.54 199.31 305.91 186.93
  A 2.57 2.56 -7.1 0 1 307.79 184.53
  L 316.21 182.21
  A 0.43 0.42 81.4 0 1 316.74 182.61
  C 316.84 185.46 316.28 189.53 317.44 192.42
  A 2.35 2.17 68.9 0 0 320.26 193.81
  Q 320.98 193.55 321.42 192.72
  Q 334.69 167.56 324.66 140.56
  A 0.57 0.56 3.3 0 1 325.45 139.86
  Q 328.44 141.38 332.57 143.92
  C 342.17 149.81 344.03 165.89 342.72 175.76
  Q 341.77 182.87 337.83 192.28
  C 334.48 200.27 329.36 206.43 322.98 212.09
  A 1.32 1.32 0.0 0 0 323.23 214.24
  Q 323.87 214.58 325.14 214.37
  Q 332.89 213.11 339.56 206.63
  Q 353.49 193.09 354.57 173.42
  C 355.05 164.60 352.83 156.33 349.14 148.19
  A 0.81 0.81 0.0 0 1 350.12 147.08
  C 353.14 148.03 357.55 148.81 360.00 151.53
  C 366.13 158.38 367.92 167.27 366.95 176.25
  C 364.95 194.72 355.99 212.35 344.02 226.23
  A 1.82 1.75 -52.0 0 0 344.29 228.86
  Q 345.12 229.44 346.40 228.86
  C 358.30 223.49 367.68 210.93 372.42 198.99
  Q 378.45 183.78 379.26 166.67
  A 0.92 0.92 0.0 0 1 380.64 165.92
  L 384.92 168.39
  A 3.64 3.61 -77.9 0 1 386.72 171.19
  Q 387.44 178.50 386.68 183.98
  Q 384.98 196.21 380.19 207.92
  C 376.47 217.03 370.93 225.12 367.15 234.20
  Q 365.37 238.45 363.53 243.03
  Q 362.25 246.20 364.00 248.73
  Q 364.98 250.14 365.97 249.26
  A 0.71 0.71 0.0 0 1 366.73 249.13
  Q 368.32 249.80 369.28 247.53
  Q 369.66 246.64 374.08 237.57
  C 379.12 227.22 387.40 218.60 396.76 212.15
  A 1.31 1.30 -30.2 0 1 398.68 212.65
  L 403.60 222.79
  A 0.71 0.70 63.6 0 1 403.29 223.73
  C 394.45 228.21 387.22 232.50 381.59 241.06
  Q 376.28 249.14 374.28 256.24
  Q 372.92 261.08 376.65 263.27
  A 2.48 2.47 37.0 0 0 379.70 262.85
  Q 384.88 257.44 389.51 253.24
  Q 393.75 249.40 400.19 249.31
  A 2.01 2.00 79.1 0 1 402.09 250.61
  C 404.96 258.28 400.72 267.97 396.15 274.66
  C 391.09 282.05 384.11 283.23 375.74 284.19
  Q 374.87 284.29 374.27 284.93
  A 1.96 1.90 46.9 0 0 374.23 287.48
  C 376.96 290.74 383.92 291.24 388.00 291.28
  A 1.65 1.64 -84.5 0 1 389.59 293.22
  C 388.53 299.00 384.34 302.13 379.28 304.77
  Q 375.56 306.71 372.11 306.90
  A 1.30 1.30 0.0 0 0 370.93 308.57
  C 372.22 312.96 376.71 314.19 380.64 315.89
  A 0.35 0.35 0.0 0 1 380.81 316.37
  Q 377.98 321.83 373.99 324.95
  C 371.25 327.08 366.50 326.81 362.47 326.72
  A 1.15 1.14 6.3 0 0 361.32 327.63
  C 360.69 330.67 363.01 332.73 365.33 335.04
  A 2.51 2.51 0.0 0 1 365.71 338.12
  Q 363.28 342.13 358.55 345.33
  C 355.08 347.68 351.99 346.60 347.91 345.84
  A 1.88 1.84 -48.2 0 0 347.02 345.90
  C 344.21 346.83 345.14 349.75 345.53 352.48
  A 2.89 2.84 -38.1 0 1 345.33 354.03
  Q 342.18 361.28 334.22 358.67
  A 0.62 0.62 0.0 0 1 333.94 357.68
  Q 338.43 352.31 342.08 346.98
  C 343.26 345.27 345.28 343.62 346.55 341.80
  Q 355.97 328.30 358.13 323.85
  Q 360.62 318.72 363.68 311.70
  C 365.68 307.11 367.59 302.46 365.42 298.43
  C 363.94 295.66 359.30 297.79 357.46 298.96
  Q 356.01 299.88 354.83 303.55
  Q 345.56 332.45 321.81 353.37
  C 308.22 365.34 289.56 369.97 271.78 367.29
  C 255.20 364.79 239.44 354.51 228.21 342.03
  C 225.31 338.80 220.17 332.58 219.61 327.94
  A 2.63 2.53 -39.7 0 1 219.74 326.78
  Q 221.62 321.41 222.37 317.65
  Q 222.64 316.32 223.82 315.51
  A 1.34 1.34 0.0 0 1 225.77 315.99
  C 228.25 320.72 231.18 326.51 234.55 330.38
  Q 246.92 344.61 261.08 350.20
  Q 276.37 356.24 290.03 356.62
  Q 303.10 356.99 313.74 349.94
  A 1.26 1.26 0.0 0 0 313.62 347.77
  Q 312.21 347.05 310.26 347.27
  Q 297.31 348.69 287.75 346.79
  Q 273.44 343.93 262.18 338.35
  Q 253.06 333.83 242.94 324.34
  C 236.59 318.38 231.97 310.72 229.95 303.09
  Q 229.48 301.30 231.09 299.30
  Q 233.74 296.01 236.20 292.94
  A 0.78 0.78 0.0 0 1 237.51 293.08
  Q 248.76 315.54 271.66 326.30
  C 284.59 332.37 298.82 335.65 313.01 334.83
  C 319.28 334.47 330.37 331.88 334.26 326.47
  A 1.53 1.26 -56.8 0 0 334.03 324.39
  Q 333.33 324.01 331.99 324.23
  C 327.22 325.04 322.65 326.19 318.29 326.29
  C 289.10 326.94 259.91 314.69 247.45 286.92
  A 1.61 1.60 68.5 0 1 248.39 284.75
  Q 250.50 284.02 254.98 283.41
  Q 256.56 283.19 258.12 284.95
  Q 282.28 312.25 318.23 314.05
  C 326.85 314.49 338.73 312.45 344.38 305.61
  A 1.24 1.24 0.0 0 0 344.03 303.74
  C 342.57 302.93 340.60 302.96 338.87 303.42
  C 324.95 307.17 309.47 304.06 296.30 298.97
  Q 279.73 292.58 269.39 278.67
  Q 266.26 274.46 262.83 271.99
  C 260.97 270.65 260.06 270.01 257.69 270.57
  Q 244.65 273.67 224.68 276.53
  Q 199.49 280.14 191.55 281.66
  Q 171.43 285.51 153.92 290.12
  A 2.21 2.21 0.0 0 1 151.72 289.46
  C 148.47 285.82 144.25 282.30 139.30 286.11
  A 1.79 1.78 -34.6 0 0 138.87 288.45
  Q 139.67 289.75 140.42 290.60
  C 148.00 299.23 147.91 314.80 145.36 325.37
  C 143.71 332.24 141.18 341.27 141.01 350.25
  Q 140.76 362.52 142.87 377.13
  C 145.23 393.51 152.99 407.85 169.43 413.33
  Q 174.24 414.93 178.04 416.01
  C 185.89 418.23 192.09 422.49 196.65 428.93
  C 200.20 433.93 202.59 438.67 201.56 444.80
  A 0.41 0.41 0.0 0 1 200.81 444.95
  C 194.68 435.69 186.72 428.17 175.28 426.80
  C 162.44 425.27 153.10 431.41 147.61 442.91
  C 141.68 455.37 144.32 469.74 151.54 481.05
  Q 154.69 485.96 157.78 490.08
  Z
  M 258.17 249.16
  Q 256.46 249.04 253.78 249.81
  Q 238.08 254.32 222.77 252.67
  Q 219.05 252.27 212.23 251.32
  C 198.98 249.46 187.51 253.34 175.86 259.35
  Q 173.05 260.80 171.36 263.20
  A 0.90 0.90 0.0 0 0 171.98 264.61
  C 177.78 265.42 182.44 263.42 190.76 261.25
  Q 194.27 260.34 203.73 260.17
  Q 207.29 260.11 213.24 260.83
  C 226.68 262.46 241.81 263.16 253.69 255.73
  Q 257.30 253.47 258.49 249.64
  A 0.37 0.37 0.0 0 0 258.17 249.16
  Z
  M 116.37 292.31
  Q 114.84 297.01 115.57 301.69
  Q 118.86 322.52 123.69 341.30
  Q 124.25 343.46 124.94 344.73
  A 1.69 1.69 0.0 0 0 128.11 344.07
  Q 128.58 338.95 127.85 333.86
  Q 124.94 313.40 120.18 298.81
  Q 118.89 294.88 117.59 292.22
  A 0.66 0.66 0.0 0 0 116.37 292.31
  Z"
/>
<path d="
  M 263.25 170.10
  C 255.29 168.67 247.74 168.79 239.67 170.85
  A 0.76 0.75 76.6 0 1 238.75 170.28
  Q 236.33 159.36 231.19 151.00
  Q 228.56 146.71 227.11 143.69
  A 0.50 0.50 0.0 0 1 227.73 143.00
  C 242.28 148.33 253.66 157.62 263.62 169.47
  A 0.39 0.39 0.0 0 1 263.25 170.10
  Z"
/>
<path d="
  M 102.88 202.46
  A 0.30 0.29 -9.1 0 1 103.19 202.04
  Q 114.49 203.42 124.73 208.01
  C 140.75 215.18 155.11 223.70 167.27 236.17
  A 0.99 0.99 0.0 0 1 166.94 237.78
  L 151.02 244.22
  A 1.79 1.78 -31.2 0 1 149.00 243.73
  Q 146.61 240.96 143.02 237.48
  C 132.59 227.33 117.63 213.65 103.48 203.14
  Q 103.06 202.83 102.88 202.46
  Z"
/>
<path d="
  M 415.23 275.61
  A 0.26 0.26 0.0 0 1 415.70 275.58
  Q 430.86 301.38 449.17 325.09
  Q 450.72 327.08 452.36 328.85
  A 0.76 0.75 45.9 0 1 452.35 329.89
  Q 450.20 332.10 449.93 332.40
  C 447.36 335.32 444.68 341.05 448.01 344.17
  A 2.03 2.03 0.0 0 0 451.10 343.80
  C 453.84 339.62 456.87 335.90 461.36 334.12
  Q 466.45 332.10 472.15 331.14
  Q 484.83 329.01 495.49 326.67
  Q 521.39 320.98 541.37 309.85
  Q 557.07 301.10 565.63 286.36
  Q 574.09 271.79 581.21 260.72
  Q 584.33 255.88 589.03 251.84
  C 601.57 241.06 616.06 242.63 629.56 251.22
  A 0.44 0.44 0.0 0 1 629.34 252.04
  C 616.76 252.40 605.15 255.79 595.31 263.65
  C 586.17 270.95 584.70 280.91 584.07 292.40
  A 0.58 0.57 1.6 0 1 583.49 292.94
  Q 575.25 292.81 568.38 296.08
  Q 566.17 297.13 565.44 299.43
  A 2.61 2.31 -63.4 0 0 566.17 302.17
  Q 567.99 303.57 570.26 303.33
  Q 575.71 302.74 581.72 302.51
  C 592.30 302.12 606.79 312.24 608.55 322.90
  A 0.38 0.37 -72.4 0 1 607.92 323.23
  Q 596.20 311.58 579.24 314.23
  C 576.92 314.59 572.43 316.44 571.03 318.86
  A 1.81 1.81 0.0 0 0 571.70 321.33
  L 576.41 324.06
  A 0.57 0.57 0.0 0 1 576.64 324.81
  Q 571.38 335.52 559.51 335.73
  Q 551.97 335.87 545.23 332.49
  C 543.64 331.70 542.29 332.45 540.74 333.42
  Q 521.01 345.80 510.34 350.57
  Q 489.20 360.02 464.97 365.47
  Q 457.50 367.15 452.28 366.90
  C 442.56 366.44 433.63 359.59 427.21 352.82
  C 417.92 343.03 405.57 331.13 409.02 318.39
  A 0.41 0.41 0.0 0 1 409.78 318.31
  Q 415.29 328.63 424.75 336.00
  Q 429.55 339.74 435.77 340.13
  A 1.28 1.28 0.0 0 0 436.99 339.43
  C 437.92 337.59 437.81 336.46 435.99 335.06
  C 428.15 329.01 421.62 321.11 416.67 313.63
  Q 413.24 308.45 412.92 300.48
  Q 412.54 291.01 413.58 282.29
  Q 414.00 278.73 415.23 275.61
  Z"
/>
<path d="
  M 85.61 262.46
  A 0.26 0.25 -72.7 0 1 86.04 262.23
  Q 90.87 267.34 93.87 270.38
  Q 96.26 272.81 97.54 275.28
  A 2.56 2.54 -44.0 0 1 97.49 277.72
  L 95.05 281.94
  A 0.83 0.83 0.0 0 1 93.63 281.97
  Q 87.80 272.86 85.61 262.46
  Z"
/>
<path d="
  M 659.87 305.08
  A 0.35 0.35 0.0 0 1 659.38 305.53
  Q 643.08 296.14 625.05 299.39
  C 620.49 300.21 614.92 302.44 610.45 304.05
  A 1.58 1.56 57.2 0 1 608.81 303.69
  Q 604.44 299.42 598.07 295.99
  A 0.56 0.56 0.0 0 1 598.11 294.98
  Q 604.46 292.19 609.41 290.39
  Q 621.19 286.11 634.50 286.91
  Q 643.37 287.43 649.45 292.21
  Q 656.62 297.84 659.87 305.08
  Z"
/>
<path d="
  M 92.41 307.95
  C 93.92 309.75 94.16 315.19 94.51 318.15
  A 0.35 0.35 0.0 0 1 93.98 318.48
  Q 90.58 316.24 87.25 312.28
  Q 83.92 308.33 82.30 304.59
  A 0.35 0.35 0.0 0 1 82.72 304.12
  C 85.57 304.98 90.89 306.15 92.41 307.95
  Z"
/>
<path d="
  M 620.33 330.14
  L 618.13 322.16
  A 1.01 1.00 8.2 0 1 619.63 321.04
  C 627.47 325.93 633.39 329.61 638.35 336.88
  Q 640.79 340.44 639.97 345.63
  A 0.83 0.83 0.0 0 1 638.45 345.95
  Q 635.04 340.73 630.47 337.80
  Q 627.22 335.72 623.28 333.73
  A 5.74 5.73 -84.4 0 1 620.33 330.14
  Z"
/>
<path d="
  M 157.18 669.39
  A 0.36 0.36 0.0 0 1 156.68 669.76
  C 152.26 667.83 144.77 664.12 138.29 662.59
  C 131.93 661.08 123.25 663.14 118.06 658.37
  Q 113.28 653.97 116.31 646.61
  Q 121.07 635.07 125.35 623.62
  Q 131.28 607.73 131.89 591.26
  Q 132.22 582.63 131.23 570.26
  C 130.48 560.73 133.95 551.07 145.28 551.58
  Q 154.43 551.98 161.01 552.23
  C 175.01 552.76 185.41 545.12 195.37 536.19
  Q 202.50 529.81 205.78 527.99
  Q 216.94 521.82 229.93 521.92
  Q 234.47 521.96 236.73 523.13
  C 240.91 525.31 243.73 529.35 245.12 533.79
  A 0.64 0.63 52.7 0 0 246.26 533.95
  C 247.17 532.53 247.31 532.05 248.83 531.81
  C 251.14 531.44 253.40 530.60 253.75 527.92
  Q 254.27 524.01 252.67 520.87
  C 250.61 516.85 248.32 513.23 244.94 509.49
  C 239.58 503.56 234.46 498.02 230.29 492.37
  Q 218.20 475.93 210.85 461.98
  Q 208.94 458.36 209.76 454.00
  C 210.88 448.00 212.12 443.28 211.49 437.92
  Q 210.14 426.52 202.70 417.83
  C 200.39 415.13 196.90 413.02 194.59 410.97
  Q 193.06 409.61 192.55 407.44
  Q 188.88 391.85 190.35 378.86
  C 191.18 371.56 194.65 363.03 201.86 360.12
  C 214.27 355.11 228.34 360.58 237.99 368.80
  C 245.51 375.20 251.90 382.89 256.32 391.65
  Q 256.33 391.68 259.70 398.51
  A 3.51 3.51 0.0 0 0 261.71 400.28
  L 266.92 402.08
  A 1.09 1.08 7.8 0 0 268.36 400.99
  L 267.69 390.31
  A 0.68 0.68 0.0 0 1 268.30 389.58
  C 275.68 388.76 282.54 387.85 288.75 384.20
  A 0.64 0.64 0.0 0 1 289.71 384.80
  Q 289.01 392.99 287.16 401.89
  Q 286.41 405.53 286.59 409.58
  A 1.99 1.99 0.0 0 0 288.05 411.40
  Q 289.82 411.89 291.21 411.43
  A 1.40 1.37 -83.2 0 0 291.98 410.81
  Q 294.03 407.32 294.49 405.69
  Q 297.30 395.81 298.31 384.67
  A 1.07 1.06 21.1 0 1 300.02 383.92
  L 301.40 384.95
  A 2.02 2.00 -23.2 0 0 302.39 385.34
  L 309.25 386.10
  A 0.33 0.33 0.0 0 1 309.55 386.48
  Q 307.44 400.00 303.86 411.87
  C 300.38 423.43 293.58 436.00 283.83 443.34
  A 0.97 0.97 0.0 0 1 282.37 442.99
  Q 270.01 417.88 249.33 398.94
  Q 238.43 388.96 225.88 383.66
  C 223.01 382.45 218.80 381.78 216.70 381.26
  A 0.56 0.55 14.2 0 0 216.04 381.65
  Q 215.57 383.41 216.01 383.99
  C 218.42 387.18 222.94 391.12 227.25 394.13
  C 247.91 408.52 263.95 427.31 274.44 450.28
  Q 287.22 478.24 292.76 513.77
  Q 293.47 518.36 293.04 529.01
  Q 292.47 543.33 282.58 551.72
  Q 277.19 556.29 262.97 560.34
  Q 245.41 565.34 229.81 567.81
  Q 212.85 570.50 190.44 572.35
  C 184.66 572.83 179.37 573.76 173.77 574.78
  C 166.52 576.11 161.87 585.99 160.33 592.33
  Q 157.64 603.41 157.69 616.77
  C 157.72 626.03 158.97 634.13 166.43 639.55
  C 168.97 641.40 173.01 643.19 175.57 645.48
  Q 184.99 653.91 188.95 665.69
  A 0.47 0.47 0.0 0 1 188.43 666.31
  C 181.44 665.15 174.96 663.36 167.89 663.33
  A 1.04 1.04 0.0 0 1 166.87 662.48
  C 165.35 654.59 159.36 648.41 153.17 643.59
  Q 148.44 639.91 141.82 639.65
  A 3.08 2.96 -50.2 0 0 140.91 639.75
  L 132.41 642.09
  A 1.63 1.63 0.0 0 0 131.93 642.33
  Q 131.07 642.98 130.93 643.40
  A 2.18 2.10 15.3 0 0 132.54 646.11
  C 145.53 649.11 155.68 655.00 157.18 669.39
  Z
  M 225.27 426.36
  Q 225.02 426.94 225.12 427.60
  Q 227.58 442.92 234.53 456.96
  C 240.91 469.83 248.78 482.69 258.40 492.74
  A 1.22 1.19 -22.9 0 0 259.34 493.11
  Q 260.79 493.02 261.75 491.50
  A 1.05 1.03 -39.6 0 0 261.85 490.56
  C 257.95 480.35 246.39 463.31 237.46 444.26
  Q 232.99 434.71 226.69 426.19
  A 0.82 0.82 0.0 0 0 225.27 426.36
  Z
  M 275.78 517.54
  A 6.09 6.09 0.0 0 0 269.34 516.68
  Q 262.47 519.84 259.43 524.76
  C 255.85 530.54 252.38 543.41 256.50 550.43
  A 2.60 2.21 66.8 0 0 259.06 551.70
  Q 261.35 551.17 261.59 548.36
  Q 262.22 540.83 264.04 535.06
  Q 266.47 527.34 275.49 522.02
  A 2.71 2.70 -40.3 0 0 275.86 517.61
  L 275.78 517.54
  Z
  M 239.22 543.85
  C 236.95 542.02 233.73 543.09 231.22 544.20
  Q 223.87 547.44 217.28 550.00
  Q 207.72 553.71 191.97 556.42
  C 185.17 557.60 181.25 558.47 174.73 560.54
  A 0.94 0.94 0.0 0 0 174.57 562.27
  Q 178.20 564.20 182.31 564.43
  Q 206.10 565.78 225.77 555.52
  Q 232.26 552.13 234.42 550.99
  C 237.38 549.42 238.14 547.74 239.47 544.90
  A 0.89 0.88 31.7 0 0 239.22 543.85
  Z
  M 148.13 634.72
  Q 148.31 634.28 147.61 625.24
  C 147.03 617.69 149.06 607.89 149.88 600.20
  Q 150.48 594.48 149.85 588.44
  Q 149.33 583.44 145.10 580.96
  A 0.57 0.56 -70.8 0 0 144.26 581.37
  Q 143.02 590.28 140.19 608.74
  C 138.98 616.62 137.65 631.54 147.33 635.08
  A 0.64 0.64 0.0 0 0 148.13 634.72
  Z"
/>
<path d="
  M 19.64 485.78
  Q 19.87 479.56 22.16 465.65
  C 23.13 459.74 24.58 458.84 29.34 455.60
  Q 31.63 454.05 31.18 451.79
  A 1.85 1.47 -12.8 0 0 29.01 450.75
  Q 27.93 451.03 26.11 451.89
  A 0.53 0.53 0.0 0 1 25.38 451.25
  Q 28.71 441.04 33.35 431.07
  Q 35.15 427.20 39.22 426.53
  A 1.00 1.00 0.0 0 0 39.73 424.80
  L 38.11 423.32
  A 1.44 1.43 36.2 0 1 37.83 421.54
  C 45.06 409.16 52.51 397.46 61.99 387.49
  Q 63.22 386.21 65.05 385.03
  A 0.31 0.31 0.0 0 1 65.47 385.46
  C 43.93 417.77 31.29 457.71 39.64 496.37
  Q 45.98 525.69 70.69 536.87
  C 86.62 544.08 105.83 544.40 122.20 537.70
  C 140.44 530.25 160.89 518.97 174.51 512.02
  Q 181.96 508.21 186.67 503.91
  A 0.71 0.69 39.6 0 1 187.52 503.84
  Q 193.48 507.80 195.92 512.34
  C 201.12 522.03 189.86 528.18 182.61 533.61
  Q 178.86 536.43 175.01 538.46
  A 1.76 1.76 0.0 0 1 172.83 538.02
  C 169.62 534.16 166.65 528.39 162.29 524.56
  A 2.52 2.51 -40.9 0 0 159.24 524.35
  Q 155.79 526.62 157.88 530.14
  Q 162.06 537.20 165.69 541.70
  A 0.26 0.26 0.0 0 1 165.50 542.13
  Q 158.47 542.44 151.16 541.32
  C 145.28 540.43 133.92 539.61 129.89 544.63
  Q 129.03 545.71 126.38 549.14
  C 121.68 555.23 120.70 564.60 121.12 572.29
  A 1.26 1.25 80.7 0 1 120.21 573.56
  L 112.18 575.77
  A 1.43 1.42 74.0 0 1 110.44 574.80
  Q 107.80 565.89 107.11 555.74
  C 107.01 554.36 106.52 551.33 104.81 550.81
  Q 102.30 550.06 102.06 552.13
  A 0.88 0.87 76.3 0 1 101.70 552.73
  L 100.44 553.63
  A 0.98 0.96 78.2 0 0 100.03 554.27
  Q 98.27 565.35 101.53 575.67
  A 0.27 0.27 0.0 0 1 101.28 576.02
  Q 91.24 576.15 81.56 573.83
  A 2.30 2.29 -86.7 0 1 79.82 571.87
  Q 79.27 567.19 78.90 557.79
  Q 78.83 556.08 78.21 554.04
  A 1.23 1.23 0.0 0 0 76.73 553.20
  C 69.65 555.01 69.97 565.00 72.09 570.35
  A 0.53 0.53 0.0 0 1 71.43 571.05
  Q 59.15 567.09 49.16 560.51
  A 1.93 1.92 -66.4 0 1 48.35 558.42
  Q 49.74 552.88 50.88 546.94
  Q 51.56 543.45 51.05 541.79
  A 2.00 2.00 0.0 0 0 48.29 540.57
  Q 41.86 543.56 40.74 550.00
  Q 40.33 552.37 40.13 553.08
  A 0.26 0.26 0.0 0 1 39.68 553.18
  Q 30.17 542.22 25.65 529.03
  A 1.89 1.87 57.1 0 1 26.04 527.17
  L 33.01 519.47
  A 1.03 1.01 -15.2 0 0 33.24 519.08
  Q 33.67 517.60 31.94 515.88
  A 1.44 1.42 67.3 0 0 30.93 515.46
  Q 26.50 515.41 22.66 518.59
  A 0.34 0.34 0.0 0 1 22.11 518.39
  Q 20.24 508.55 19.33 499.25
  C 18.84 494.19 28.12 492.03 29.11 487.40
  A 1.22 1.17 -55.0 0 0 28.97 486.51
  C 26.35 482.07 23.50 484.21 20.36 486.19
  A 0.47 0.47 0.0 0 1 19.64 485.78
  Z"
/>
<path d="
  M 489.64 657.83
  L 474.97 652.77
  A 3.03 3.00 -3.7 0 1 473.26 651.28
  C 466.75 638.58 452.32 631.18 438.68 630.02
  C 434.95 629.70 428.64 630.87 426.43 634.27
  A 0.58 0.57 33.8 0 0 426.59 635.06
  C 432.44 639.03 440.49 638.09 446.87 640.68
  Q 459.11 645.65 464.60 657.32
  Q 465.69 659.63 466.02 661.58
  A 0.36 0.36 0.0 0 1 465.51 661.96
  Q 461.76 660.15 457.97 658.01
  Q 454.79 656.21 447.32 654.43
  C 440.62 652.84 432.79 652.05 425.96 651.87
  Q 409.17 651.40 400.22 650.83
  Q 393.40 650.40 391.83 643.91
  C 390.54 638.59 389.69 632.08 387.73 626.80
  Q 384.47 618.03 380.58 611.66
  Q 367.75 590.62 351.45 575.04
  Q 346.19 570.03 338.17 563.09
  Q 334.58 559.99 332.79 555.45
  Q 331.01 550.94 334.81 547.29
  Q 335.70 546.43 348.88 535.16
  Q 360.78 525.00 365.60 511.39
  Q 366.21 509.67 369.29 500.77
  C 372.00 492.95 381.91 477.74 392.24 479.32
  C 395.39 479.81 399.60 481.25 401.81 479.78
  C 405.15 477.55 404.96 474.22 404.50 470.18
  A 1.50 1.47 17.8 0 0 404.02 469.27
  C 400.72 466.27 393.42 464.47 388.86 463.40
  C 368.13 458.55 337.22 458.78 323.19 437.08
  C 321.18 433.99 322.29 430.30 322.72 426.54
  A 0.63 0.63 0.0 0 1 323.64 426.06
  Q 343.38 436.85 365.51 441.71
  C 374.49 443.68 388.65 445.17 396.16 439.74
  A 0.71 0.71 0.0 0 0 395.87 438.47
  C 393.08 437.95 389.82 437.31 386.66 437.09
  Q 372.83 436.16 359.37 431.13
  Q 345.05 425.77 333.58 420.43
  Q 328.22 417.94 325.00 415.87
  A 0.52 0.52 0.0 0 1 324.83 415.16
  C 326.28 412.76 328.54 407.28 331.20 405.98
  C 341.84 400.81 353.96 400.84 364.88 404.41
  Q 401.00 416.22 433.03 439.01
  Q 436.53 441.50 440.81 445.91
  C 445.57 450.82 448.14 456.18 448.25 463.62
  Q 448.42 475.10 441.57 484.33
  Q 436.48 491.19 429.92 497.44
  C 410.06 516.35 392.78 530.72 373.12 546.62
  Q 371.98 547.55 370.80 548.87
  A 1.11 1.08 -29.4 0 0 370.53 549.79
  C 372.22 559.47 378.71 568.06 384.56 576.51
  Q 393.98 590.12 403.61 602.38
  Q 413.21 614.62 426.15 622.36
  Q 428.73 623.89 440.02 628.84
  A 4.77 4.26 58.6 0 0 440.98 629.13
  Q 447.67 630.26 450.69 630.11
  C 466.44 629.33 480.93 639.97 488.45 652.98
  Q 489.74 655.22 490.09 657.45
  A 0.35 0.34 4.7 0 1 489.64 657.83
  Z
  M 418.91 453.33
  Q 414.34 454.50 413.53 459.60
  Q 411.71 471.10 417.31 481.59
  A 3.58 3.44 -82.5 0 0 417.87 482.35
  Q 421.78 486.20 427.63 486.17
  A 2.30 2.29 -82.6 0 0 429.85 484.45
  Q 430.03 483.77 429.38 483.06
  Q 421.04 473.90 420.12 460.51
  Q 419.93 457.67 419.29 453.57
  A 0.30 0.30 0.0 0 0 418.91 453.33
  Z
  M 405.53 493.72
  Q 404.57 493.79 404.41 494.10
  C 397.19 508.17 383.35 516.09 371.41 525.41
  Q 368.06 528.03 365.76 531.18
  A 1.75 1.75 0.0 0 0 366.57 533.86
  Q 369.06 534.76 371.32 533.59
  Q 386.03 526.00 397.71 516.04
  Q 407.35 507.82 407.43 495.51
  A 1.79 1.78 -1.7 0 0 405.53 493.72
  Z
  M 382.79 599.01
  C 388.16 605.96 395.09 614.30 402.63 619.82
  Q 403.94 620.78 405.91 621.25
  A 1.09 1.09 0.0 0 0 407.23 619.96
  Q 407.00 618.87 405.69 617.07
  Q 402.85 613.15 388.51 594.59
  Q 374.16 576.03 371.09 572.29
  Q 369.68 570.58 368.68 570.08
  A 1.09 1.09 0.0 0 0 367.10 571.03
  Q 367.06 573.06 367.65 574.56
  C 371.09 583.26 377.42 592.06 382.79 599.01
  Z"
/>
<path d="
  M 476.73 627.99
  C 487.61 628.92 497.94 637.54 505.04 645.46
  Q 507.99 648.75 509.58 652.93
  A 0.46 0.46 0.0 0 1 509.07 653.55
  L 500.96 652.20
  A 2.37 2.36 78.1 0 1 499.36 651.15
  Q 490.84 637.93 476.48 628.72
  A 0.40 0.40 0.0 0 1 476.73 627.99
  Z"
/>
<path d="
  M 210.72 663.19
  L 200.47 662.57
  A 2.48 2.46 -13.0 0 1 198.47 661.33
  L 190.11 646.85
  A 0.39 0.39 0.0 0 1 190.54 646.27
  C 196.11 647.65 201.78 649.78 205.40 654.34
  Q 207.90 657.50 211.15 662.44
  A 0.49 0.48 75.1 0 1 210.72 663.19
  Z"
/>
</g>
<g fill="#1264a1">
<path d="
  M 296.24 0.00
  Q 314.48 0.82 332.63 2.67
  Q 352.74 4.71 368.67 8.13
  Q 428.83 21.03 482.26 52.74
  Q 496.20 61.01 514.78 76.06
  Q 533.38 91.13 542.58 104.61
  C 559.17 128.91 567.04 157.77 561.05 186.81
  Q 559.68 193.43 558.00 197.00
  Q 557.40 198.26 554.22 201.32
  A 3.37 3.34 -20.1 0 0 553.19 203.51
  L 552.94 206.80
  A 7.28 6.79 -37.3 0 1 552.74 207.97
  Q 549.73 219.28 544.89 227.66
  Q 543.19 230.60 539.04 231.60
  A 1.67 1.62 -41.7 0 1 538.10 231.56
  Q 534.22 230.20 533.50 226.01
  A 0.95 0.95 0.0 0 0 531.84 225.55
  Q 528.71 229.21 524.24 229.02
  Q 521.85 228.92 521.32 228.69
  C 519.70 227.99 520.14 224.97 519.93 223.71
  A 0.47 0.46 73.6 0 0 519.29 223.36
  Q 519.24 223.38 516.52 225.81
  Q 512.07 229.80 505.70 227.80
  A 0.96 0.95 8.7 0 1 505.03 226.89
  L 505.03 220.71
  A 0.52 0.51 -32.3 0 0 504.05 220.49
  L 499.20 230.68
  A 0.40 0.39 20.8 0 0 499.45 231.23
  Q 504.41 232.73 503.94 238.75
  A 1.24 1.24 0.0 0 0 505.58 240.02
  Q 506.75 239.63 511.22 238.39
  C 514.64 237.45 516.61 238.16 518.16 241.16
  C 519.81 244.36 515.96 250.29 514.09 253.08
  Q 513.19 254.43 513.55 255.87
  C 514.60 260.11 511.98 265.41 509.50 268.71
  Q 503.36 276.86 494.31 281.03
  Q 487.83 284.03 480.22 282.10
  Q 473.04 280.27 470.51 278.77
  C 458.81 271.80 449.15 264.30 439.45 255.26
  Q 426.35 243.04 415.56 234.21
  A 0.03 0.03 0.0 0 0 415.51 234.24
  Q 416.72 242.50 415.22 249.50
  Q 414.68 252.02 415.37 253.18
  Q 419.77 260.59 435.81 287.19
  Q 442.84 298.86 459.10 320.29
  C 460.33 321.92 461.17 323.42 463.48 322.69
  Q 464.83 322.27 465.29 322.19
  Q 478.57 319.79 485.50 318.71
  Q 486.68 318.53 500.99 315.06
  C 509.65 312.95 518.00 309.77 525.20 306.72
  Q 547.49 297.29 559.74 276.46
  C 568.74 261.15 575.68 243.83 593.68 236.17
  Q 601.16 232.99 610.86 233.91
  Q 627.46 235.48 640.73 245.53
  C 643.93 247.95 652.64 256.92 647.64 261.09
  Q 646.39 262.13 643.01 261.94
  C 629.56 261.19 615.52 262.03 604.34 270.76
  C 600.78 273.54 597.05 278.78 595.67 283.00
  A 0.45 0.45 0.0 0 0 596.23 283.57
  Q 599.19 282.63 602.31 280.94
  A 5.00 4.49 18.3 0 1 603.11 280.59
  C 621.66 274.52 641.96 270.62 658.38 284.75
  Q 671.66 296.17 674.00 314.68
  L 674.00 319.65
  Q 672.75 325.76 666.67 323.67
  A 2.62 2.61 -16.8 0 1 665.90 323.26
  Q 659.03 317.96 657.47 316.85
  Q 648.51 310.51 637.06 308.40
  C 630.00 307.10 622.06 309.28 615.55 312.25
  A 0.21 0.21 0.0 0 0 615.61 312.64
  C 628.72 314.32 644.23 327.24 645.84 341.02
  C 646.56 347.20 647.67 361.52 639.72 364.07
  A 1.34 1.28 47.8 0 1 638.75 364.00
  Q 636.94 363.11 636.11 360.88
  Q 635.06 358.08 633.64 351.46
  Q 633.36 350.17 631.47 348.40
  Q 626.60 343.84 620.76 341.38
  A 0.79 0.79 0.0 0 0 619.67 341.98
  Q 619.26 344.54 617.23 346.24
  C 613.14 349.67 610.79 346.62 608.90 342.82
  Q 607.13 339.23 605.85 337.36
  A 2.92 2.89 73.4 0 0 603.54 336.10
  Q 598.13 335.91 592.44 335.21
  Q 586.84 334.52 583.24 337.60
  Q 566.35 352.01 545.03 344.22
  A 3.42 3.42 0.0 0 0 541.94 344.60
  Q 517.88 360.75 490.56 370.28
  Q 486.54 371.68 484.72 374.01
  Q 479.29 380.95 472.11 386.58
  C 469.13 388.92 458.76 395.63 455.34 392.02
  C 453.63 390.22 453.72 387.27 453.92 385.01
  A 0.85 0.85 0.0 0 0 452.72 384.17
  C 445.17 387.65 435.52 390.08 427.36 388.73
  A 1.72 1.69 76.9 0 1 426.26 388.03
  Q 423.87 384.65 425.57 381.07
  A 3.65 3.49 80.6 0 1 426.15 380.22
  Q 429.52 376.62 434.47 373.80
  A 0.54 0.54 0.0 0 0 434.52 372.90
  Q 410.96 355.06 394.65 330.35
  Q 390.00 323.31 388.80 321.73
  A 0.42 0.42 0.0 0 0 388.08 321.81
  L 386.10 325.98
  A 0.55 0.50 -15.9 0 1 386.02 326.11
  Q 382.15 331.81 375.74 335.83
  A 0.89 0.87 77.0 0 0 375.33 336.50
  C 374.51 347.41 367.53 354.27 356.89 356.29
  A 1.85 1.83 12.3 0 0 355.77 357.00
  C 348.90 366.47 339.77 373.79 327.77 367.96
  A 1.18 1.18 0.0 0 0 326.23 368.43
  L 321.39 376.82
  A 0.84 0.84 0.0 0 0 321.87 378.04
  Q 342.94 384.48 360.08 390.14
  C 390.48 400.19 418.92 414.30 443.37 434.14
  C 451.91 441.07 458.46 450.57 459.27 461.78
  Q 460.26 475.48 452.38 487.39
  C 445.59 497.64 437.44 505.24 427.02 514.52
  C 420.78 520.07 407.61 531.78 397.26 540.40
  C 391.34 545.33 387.61 548.75 383.71 551.80
  A 0.91 0.90 58.7 0 0 383.45 552.90
  Q 387.05 560.44 391.22 566.86
  Q 403.88 586.32 415.42 599.57
  C 424.01 609.41 433.93 616.79 447.22 617.88
  Q 449.67 618.08 460.23 616.75
  Q 469.32 615.60 473.26 615.94
  C 490.93 617.48 504.96 629.32 516.20 643.24
  Q 519.48 647.30 522.13 652.18
  A 6.00 5.53 26.3 0 1 522.64 653.51
  Q 523.45 656.71 523.08 661.00
  A 1.08 1.08 0.0 0 1 522.00 661.99
  L 502.92 661.99
  A 1.02 1.02 0.0 0 0 501.90 663.01
  L 501.90 665.40
  A 1.01 1.00 72.0 0 1 501.49 666.21
  Q 499.24 667.81 497.24 668.06
  A 1.50 1.42 50.2 0 1 496.57 667.98
  L 479.48 662.09
  A 1.13 1.12 9.5 0 0 477.99 663.15
  L 477.99 668.72
  A 1.11 1.10 -15.0 0 1 477.43 669.68
  Q 475.96 670.52 474.98 672.17
  A 1.68 1.66 -77.1 0 1 473.67 673.00
  Q 471.88 673.14 470.54 672.75
  Q 450.87 666.95 444.26 665.55
  Q 423.75 661.21 401.61 660.89
  Q 394.43 660.78 386.48 656.85
  A 2.29 2.27 0.5 0 1 385.43 655.79
  L 382.78 650.32
  A 1.20 1.10 28.5 0 1 382.68 650.03
  Q 379.74 635.27 378.26 631.53
  Q 373.53 619.57 365.50 608.44
  Q 353.99 592.48 339.03 578.24
  C 333.17 572.66 328.12 567.60 324.78 562.46
  Q 320.63 556.09 322.13 547.00
  A 4.53 4.40 66.0 0 1 322.71 545.42
  C 325.99 539.91 331.68 536.14 337.16 531.66
  Q 343.78 526.23 349.39 519.63
  C 353.29 515.03 356.32 508.72 358.53 500.95
  C 361.79 489.52 368.78 480.44 377.60 473.28
  A 0.70 0.69 48.4 0 0 377.66 472.25
  Q 377.46 472.05 376.77 471.94
  C 353.18 468.13 336.82 465.28 317.11 459.94
  Q 299.78 455.25 294.25 453.49
  Q 290.29 452.22 289.18 455.98
  A 1.55 1.47 -47.7 0 0 289.20 456.88
  Q 296.07 477.69 301.02 499.80
  C 304.06 513.36 305.42 528.77 301.29 542.24
  C 297.49 554.65 289.23 561.84 277.26 566.37
  C 260.75 572.61 243.17 576.51 225.30 578.50
  Q 186.52 582.84 184.20 583.18
  Q 178.42 584.04 178.33 584.06
  A 4.29 4.27 -81.2 0 0 175.41 586.21
  C 173.76 589.22 171.90 592.86 170.88 596.66
  Q 168.24 606.49 167.92 616.51
  C 167.48 630.38 175.09 633.12 186.84 634.36
  C 194.34 635.15 200.73 638.24 207.30 642.82
  Q 211.87 646.01 216.79 652.18
  C 221.61 658.22 226.69 664.03 228.68 670.31
  C 229.68 673.49 226.79 675.58 224.39 676.72
  Q 223.25 677.26 220.63 676.70
  C 214.14 675.31 208.79 674.68 202.60 675.05
  A 0.66 0.66 0.0 0 0 201.99 675.66
  Q 201.74 679.64 199.44 681.66
  Q 196.95 683.86 194.82 682.39
  C 188.77 678.20 185.49 675.02 179.77 674.96
  Q 174.06 674.91 168.54 675.04
  A 0.70 0.68 86.6 0 0 167.87 675.81
  Q 168.63 682.52 163.26 686.00
  L 161.61 686.00
  L 150.14 678.09
  A 5.32 5.30 74.2 0 0 149.23 677.58
  C 140.37 673.67 130.11 673.36 120.40 672.66
  C 118.58 672.53 116.13 671.93 114.72 671.72
  A 3.73 3.67 -23.6 0 1 113.18 671.13
  Q 108.31 667.83 107.44 666.85
  Q 103.03 661.83 104.51 653.50
  Q 106.06 644.72 107.28 641.79
  C 114.11 625.36 120.38 608.39 122.04 591.25
  Q 122.31 588.43 121.87 585.89
  A 1.14 1.13 -13.2 0 0 120.43 585.00
  C 116.50 586.19 112.29 586.66 106.42 586.86
  C 97.23 587.18 87.88 586.81 78.36 584.20
  A 3.30 3.29 -53.1 0 0 75.76 584.57
  Q 69.50 588.45 62.02 588.05
  C 57.34 587.80 55.86 581.13 55.90 577.23
  A 0.92 0.92 0.0 0 0 55.38 576.40
  Q 46.70 572.32 42.89 569.13
  Q 38.25 565.25 37.08 564.67
  A 0.99 0.95 -36.8 0 0 36.42 564.59
  Q 34.36 565.04 29.44 565.00
  C 21.03 564.92 21.90 555.87 23.64 550.53
  A 2.42 2.39 39.5 0 0 23.44 548.57
  Q 19.96 542.51 17.33 534.62
  A 4.58 3.88 37.4 0 0 17.09 534.05
  L 15.59 531.21
  A 1.65 1.64 86.4 0 0 14.72 530.44
  C 8.96 528.25 0.27 522.47 4.04 515.23
  Q 6.50 510.50 9.83 508.51
  A 2.31 2.31 0.0 0 0 10.97 506.37
  L 10.17 493.66
  A 2.70 2.69 -77.0 0 0 8.81 491.48
  Q 2.35 487.80 0.00 481.16
  L 0.00 478.13
  C 2.25 471.57 5.59 470.08 11.46 467.41
  A 2.22 2.22 0.0 0 0 12.71 465.89
  Q 12.92 465.02 14.66 456.47
  Q 15.17 454.00 14.25 453.06
  Q 12.31 451.06 9.97 447.64
  A 4.35 4.22 23.0 0 1 9.32 446.10
  Q 6.69 433.27 19.87 431.03
  Q 22.66 430.55 23.75 428.50
  Q 25.76 424.73 28.35 419.28
  A 2.51 2.50 46.8 0 0 28.41 417.25
  L 25.00 408.82
  A 2.67 2.64 -50.4 0 1 24.86 407.23
  Q 25.82 402.92 28.61 399.82
  A 0.89 0.88 12.7 0 1 29.06 399.54
  L 33.89 398.20
  A 0.86 0.85 -39.8 0 1 34.47 398.25
  Q 37.11 399.39 39.28 398.86
  A 1.37 1.31 10.1 0 0 40.03 398.36
  L 46.28 390.03
  A 3.58 3.57 -34.9 0 0 46.85 386.87
  Q 44.95 380.54 49.80 375.43
  A 4.57 4.56 21.6 0 1 53.12 374.00
  L 60.85 374.00
  A 3.83 3.82 -68.1 0 0 63.61 372.82
  C 69.27 366.86 74.83 361.61 82.51 358.98
  Q 84.21 358.40 86.11 359.67
  C 90.71 362.74 89.47 366.90 86.43 370.97
  Q 84.13 374.04 81.50 377.50
  Q 60.97 404.53 52.21 436.45
  C 46.46 457.41 44.90 480.30 51.66 500.66
  Q 53.59 506.50 58.28 513.57
  C 64.96 523.63 76.71 529.46 88.48 531.08
  Q 90.38 531.34 92.99 530.69
  A 1.18 1.16 6.3 0 0 93.74 530.10
  C 96.69 524.31 100.82 518.03 108.33 522.17
  A 3.99 3.63 77.4 0 1 108.97 522.62
  C 111.90 525.22 114.85 528.09 119.13 526.62
  Q 124.37 524.82 128.55 522.73
  A 2.49 2.49 0.0 0 0 129.94 520.51
  C 130.00 515.22 129.72 511.82 131.99 508.28
  C 135.24 503.22 142.87 507.36 146.80 508.81
  A 2.03 2.03 0.0 0 0 148.77 508.61
  L 156.74 502.96
  A 0.30 0.30 0.0 0 0 156.73 502.46
  Q 154.33 500.83 150.96 499.02
  C 143.47 494.99 136.92 489.40 131.38 482.89
  Q 125.64 476.15 123.57 467.71
  C 122.35 462.74 123.31 457.23 122.94 451.73
  A 0.74 0.74 0.0 0 0 121.65 451.29
  Q 115.38 458.50 112.82 467.71
  C 109.98 477.93 111.55 486.81 115.95 496.04
  C 117.85 500.03 118.49 503.84 113.00 504.68
  Q 111.75 504.87 108.32 503.85
  C 101.00 501.68 93.78 494.48 90.47 488.84
  Q 77.30 466.39 90.10 443.78
  C 92.59 439.38 97.94 433.36 101.12 429.88
  Q 115.62 413.98 113.66 392.76
  Q 113.06 386.33 111.36 378.32
  Q 110.37 373.62 107.36 364.23
  Q 103.51 352.16 99.43 338.07
  C 98.87 336.13 98.21 334.95 96.38 333.75
  Q 76.70 320.74 67.60 298.92
  Q 66.86 297.13 67.61 294.87
  Q 69.52 289.13 75.48 289.99
  Q 80.52 290.71 87.63 293.60
  Q 88.51 293.96 89.36 293.88
  A 0.49 0.48 59.8 0 0 89.59 293.00
  Q 88.52 292.24 88.04 291.47
  Q 83.62 284.29 80.42 276.11
  C 78.20 270.46 77.09 263.31 76.95 257.50
  Q 76.78 250.16 84.12 249.90
  C 87.62 249.78 92.96 254.44 95.20 256.55
  C 98.45 259.60 101.06 263.76 103.90 266.55
  A 0.67 0.66 45.3 0 0 104.82 266.56
  Q 106.50 264.91 109.81 262.80
  Q 122.90 254.43 137.74 249.74
  A 0.90 0.89 -27.7 0 0 138.18 248.34
  C 136.82 246.59 134.88 244.24 133.38 242.86
  Q 112.35 223.51 108.43 220.41
  Q 98.80 212.77 94.41 209.09
  C 90.04 205.43 86.49 200.82 90.98 195.32
  Q 94.06 191.54 99.24 191.28
  C 114.44 190.52 129.76 197.41 143.46 204.51
  Q 156.96 211.52 168.58 221.22
  Q 171.63 223.76 174.00 226.66
  A 0.51 0.50 -53.3 0 0 174.86 226.53
  Q 174.99 226.22 174.92 225.55
  Q 174.76 223.81 173.31 219.18
  Q 165.02 192.68 149.58 169.65
  Q 140.90 156.70 127.26 141.24
  Q 126.90 140.84 123.49 135.81
  Q 121.08 132.27 120.99 129.77
  C 120.79 123.90 125.98 121.90 131.21 121.86
  Q 135.02 121.83 142.52 125.01
  C 162.55 133.53 180.01 146.18 196.18 160.82
  Q 207.36 170.95 216.51 183.21
  A 1.13 1.12 -41.5 0 0 218.22 183.31
  Q 222.50 178.84 228.07 175.55
  A 1.45 1.43 65.5 0 0 228.70 173.84
  Q 223.94 159.75 216.56 146.46
  Q 214.04 141.94 213.00 137.46
  A 2.07 2.05 -44.7 0 1 213.01 136.50
  C 215.87 124.40 232.13 131.88 238.96 135.28
  Q 259.46 145.49 272.91 163.84
  Q 274.96 166.65 277.91 172.90
  A 3.17 3.14 -1.6 0 0 279.60 174.48
  L 284.86 176.57
  A 2.62 2.58 51.9 0 0 286.18 176.74
  Q 292.66 175.90 295.60 175.51
  Q 304.30 174.37 310.45 170.71
  Q 314.98 168.01 315.75 161.83
  A 3.84 3.73 44.2 0 0 315.72 160.77
  C 313.78 149.34 303.57 141.24 293.67 135.57
  Q 282.33 129.07 270.23 124.79
  Q 250.81 117.93 229.24 113.34
  Q 214.00 110.10 195.76 107.23
  C 184.64 105.47 174.07 101.50 166.05 93.40
  Q 155.57 82.81 156.93 67.75
  Q 157.47 61.79 158.94 57.40
  C 165.99 36.31 185.90 21.92 206.14 13.59
  Q 220.58 7.64 235.53 4.88
  Q 259.74 0.40 284.39 0.00
  L 296.24 0.00
  Z
  M 468.72 186.54
  A 0.58 0.58 0.0 0 0 468.75 185.51
  C 458.67 179.97 449.11 175.18 439.74 168.01
  Q 424.76 156.53 424.11 137.41
  C 424.05 135.75 424.41 134.50 425.00 133.16
  A 0.68 0.67 31.9 0 1 426.06 132.92
  C 428.18 134.75 430.15 137.70 431.67 140.58
  Q 439.74 155.91 453.45 164.54
  C 468.39 173.95 485.01 181.32 500.88 188.41
  Q 518.45 196.26 537.78 194.29
  C 540.71 194.00 545.55 192.80 547.63 191.33
  Q 550.02 189.63 550.59 186.30
  C 553.72 167.99 552.85 147.96 545.09 130.65
  C 539.70 118.63 533.90 109.38 524.54 100.23
  Q 513.03 88.99 502.56 81.21
  Q 496.16 76.45 478.41 64.00
  C 472.28 59.70 465.23 55.62 459.48 52.75
  C 431.79 38.96 401.27 26.89 371.55 20.24
  Q 351.42 15.73 325.51 12.65
  Q 310.83 10.91 292.91 11.20
  Q 271.05 11.55 260.26 12.38
  Q 238.84 14.03 218.85 20.33
  C 197.43 27.07 165.72 45.60 167.95 71.77
  C 168.72 80.81 175.41 88.24 183.99 90.75
  C 191.77 93.03 201.22 92.68 208.85 91.53
  C 217.50 90.23 229.75 85.47 237.03 83.76
  Q 259.74 78.45 278.00 79.14
  Q 291.63 79.65 298.48 80.55
  Q 346.85 86.88 386.75 113.51
  C 392.98 117.66 399.49 122.71 404.14 127.36
  Q 409.31 132.52 415.02 138.12
  A 3.08 3.07 53.6 0 1 414.28 143.05
  L 414.13 143.12
  A 6.04 6.04 0.0 0 1 407.57 142.47
  Q 401.17 137.34 397.30 133.95
  C 386.22 124.23 374.05 116.57 360.57 110.15
  A 0.41 0.40 -73.6 0 0 359.99 110.47
  C 358.59 122.55 359.16 133.40 371.74 139.02
  C 382.34 143.76 391.74 147.06 398.07 156.12
  Q 404.39 165.18 405.38 178.27
  C 405.85 184.54 405.47 194.14 406.82 200.54
  Q 409.70 214.22 419.85 223.68
  Q 429.75 232.92 460.20 259.03
  Q 469.14 266.69 478.74 270.75
  Q 483.67 272.84 489.46 272.29
  C 493.86 271.87 498.08 268.17 501.18 264.78
  A 0.52 0.52 0.0 0 0 500.68 263.93
  Q 499.00 264.31 497.50 264.26
  Q 486.66 263.84 477.24 257.98
  C 463.89 249.69 455.43 241.19 452.85 225.62
  Q 450.13 209.20 458.19 196.25
  C 460.91 191.87 464.26 188.67 468.72 186.54
  Z
  M 288.37 114.78
  Q 283.81 102.53 285.65 90.70
  A 0.64 0.63 6.1 0 0 285.05 89.97
  L 274.59 89.33
  A 1.18 1.18 0.0 0 0 273.34 90.43
  C 272.69 99.98 277.16 113.27 287.83 115.41
  A 0.48 0.47 -4.8 0 0 288.37 114.78
  Z
  M 266.53 109.66
  A 0.48 0.48 0.0 0 0 267.07 109.04
  Q 264.09 100.22 263.54 91.28
  A 0.68 0.68 0.0 0 0 262.75 90.65
  L 254.35 91.97
  A 1.59 1.58 -8.1 0 0 253.02 93.73
  Q 254.70 107.37 266.53 109.66
  Z
  M 308.96 120.27
  Q 308.93 119.95 307.96 116.44
  C 306.11 109.71 306.95 101.55 308.62 94.45
  A 1.51 1.51 0.0 0 0 307.40 92.61
  L 295.89 90.69
  A 0.93 0.92 -82.0 0 0 294.82 91.50
  Q 293.53 102.90 297.61 113.13
  Q 300.53 120.46 308.38 120.87
  A 0.56 0.55 -1.3 0 0 308.96 120.27
  Z
  M 329.34 125.50
  A 0.17 0.17 0.0 0 0 329.54 125.31
  Q 327.69 112.81 329.91 99.42
  A 1.34 1.34 0.0 0 0 329.02 97.93
  L 318.58 94.33
  A 0.83 0.83 0.0 0 0 317.49 94.93
  C 314.93 106.17 314.49 122.58 329.34 125.50
  Z
  M 353.02 132.74
  Q 353.12 132.35 352.94 131.76
  Q 349.15 119.16 352.63 106.93
  A 0.96 0.96 0.0 0 0 352.06 105.77
  L 339.80 100.90
  A 0.33 0.33 0.0 0 0 339.36 101.14
  C 338.73 104.32 337.30 108.13 337.24 111.34
  Q 337.13 117.79 339.50 123.53
  C 341.50 128.35 347.68 131.58 352.27 133.15
  A 0.58 0.58 0.0 0 0 353.02 132.74
  Z
  M 134.39 133.66
  A 0.15 0.15 0.0 0 0 134.22 133.89
  C 140.45 141.70 148.77 150.46 154.54 158.71
  Q 161.63 168.85 169.12 181.51
  C 177.64 195.89 182.99 209.68 186.59 225.30
  A 0.87 0.87 0.0 0 0 187.87 225.86
  L 206.57 215.06
  A 2.84 2.83 80.2 0 0 207.96 213.08
  Q 209.01 207.17 209.66 200.84
  Q 210.35 194.02 206.83 189.41
  C 193.62 172.13 177.38 158.59 158.58 146.43
  Q 146.58 138.67 134.39 133.66
  Z
  M 157.78 490.08
  Q 154.69 485.96 151.54 481.05
  C 144.32 469.74 141.68 455.37 147.61 442.91
  C 153.10 431.41 162.44 425.27 175.28 426.80
  C 186.72 428.17 194.68 435.69 200.81 444.95
  A 0.41 0.41 0.0 0 0 201.56 444.80
  C 202.59 438.67 200.20 433.93 196.65 428.93
  C 192.09 422.49 185.89 418.23 178.04 416.01
  Q 174.24 414.93 169.43 413.33
  C 152.99 407.85 145.23 393.51 142.87 377.13
  Q 140.76 362.52 141.01 350.25
  C 141.18 341.27 143.71 332.24 145.36 325.37
  C 147.91 314.80 148.00 299.23 140.42 290.60
  Q 139.67 289.75 138.87 288.45
  A 1.79 1.78 -34.6 0 1 139.30 286.11
  C 144.25 282.30 148.47 285.82 151.72 289.46
  A 2.21 2.21 0.0 0 0 153.92 290.12
  Q 171.43 285.51 191.55 281.66
  Q 199.49 280.14 224.68 276.53
  Q 244.65 273.67 257.69 270.57
  C 260.06 270.01 260.97 270.65 262.83 271.99
  Q 266.26 274.46 269.39 278.67
  Q 279.73 292.58 296.30 298.97
  C 309.47 304.06 324.95 307.17 338.87 303.42
  C 340.60 302.96 342.57 302.93 344.03 303.74
  A 1.24 1.24 0.0 0 1 344.38 305.61
  C 338.73 312.45 326.85 314.49 318.23 314.05
  Q 282.28 312.25 258.12 284.95
  Q 256.56 283.19 254.98 283.41
  Q 250.50 284.02 248.39 284.75
  A 1.61 1.60 68.5 0 0 247.45 286.92
  C 259.91 314.69 289.10 326.94 318.29 326.29
  C 322.65 326.19 327.22 325.04 331.99 324.23
  Q 333.33 324.01 334.03 324.39
  A 1.53 1.26 -56.8 0 1 334.26 326.47
  C 330.37 331.88 319.28 334.47 313.01 334.83
  C 298.82 335.65 284.59 332.37 271.66 326.30
  Q 248.76 315.54 237.51 293.08
  A 0.78 0.78 0.0 0 0 236.20 292.94
  Q 233.74 296.01 231.09 299.30
  Q 229.48 301.30 229.95 303.09
  C 231.97 310.72 236.59 318.38 242.94 324.34
  Q 253.06 333.83 262.18 338.35
  Q 273.44 343.93 287.75 346.79
  Q 297.31 348.69 310.26 347.27
  Q 312.21 347.05 313.62 347.77
  A 1.26 1.26 0.0 0 1 313.74 349.94
  Q 303.10 356.99 290.03 356.62
  Q 276.37 356.24 261.08 350.20
  Q 246.92 344.61 234.55 330.38
  C 231.18 326.51 228.25 320.72 225.77 315.99
  A 1.34 1.34 0.0 0 0 223.82 315.51
  Q 222.64 316.32 222.37 317.65
  Q 221.62 321.41 219.74 326.78
  A 2.63 2.53 -39.7 0 0 219.61 327.94
  C 220.17 332.58 225.31 338.80 228.21 342.03
  C 239.44 354.51 255.20 364.79 271.78 367.29
  C 289.56 369.97 308.22 365.34 321.81 353.37
  Q 345.56 332.45 354.83 303.55
  Q 356.01 299.88 357.46 298.96
  C 359.30 297.79 363.94 295.66 365.42 298.43
  C 367.59 302.46 365.68 307.11 363.68 311.70
  Q 360.62 318.72 358.13 323.85
  Q 355.97 328.30 346.55 341.80
  C 345.28 343.62 343.26 345.27 342.08 346.98
  Q 338.43 352.31 333.94 357.68
  A 0.62 0.62 0.0 0 0 334.22 358.67
  Q 342.18 361.28 345.33 354.03
  A 2.89 2.84 -38.1 0 0 345.53 352.48
  C 345.14 349.75 344.21 346.83 347.02 345.90
  A 1.88 1.84 -48.2 0 1 347.91 345.84
  C 351.99 346.60 355.08 347.68 358.55 345.33
  Q 363.28 342.13 365.71 338.12
  A 2.51 2.51 0.0 0 0 365.33 335.04
  C 363.01 332.73 360.69 330.67 361.32 327.63
  A 1.15 1.14 6.3 0 1 362.47 326.72
  C 366.50 326.81 371.25 327.08 373.99 324.95
  Q 377.98 321.83 380.81 316.37
  A 0.35 0.35 0.0 0 0 380.64 315.89
  C 376.71 314.19 372.22 312.96 370.93 308.57
  A 1.30 1.30 0.0 0 1 372.11 306.90
  Q 375.56 306.71 379.28 304.77
  C 384.34 302.13 388.53 299.00 389.59 293.22
  A 1.65 1.64 -84.5 0 0 388.00 291.28
  C 383.92 291.24 376.96 290.74 374.23 287.48
  A 1.96 1.90 46.9 0 1 374.27 284.93
  Q 374.87 284.29 375.74 284.19
  C 384.11 283.23 391.09 282.05 396.15 274.66
  C 400.72 267.97 404.96 258.28 402.09 250.61
  A 2.01 2.00 79.1 0 0 400.19 249.31
  Q 393.75 249.40 389.51 253.24
  Q 384.88 257.44 379.70 262.85
  A 2.48 2.47 37.0 0 1 376.65 263.27
  Q 372.92 261.08 374.28 256.24
  Q 376.28 249.14 381.59 241.06
  C 387.22 232.50 394.45 228.21 403.29 223.73
  A 0.71 0.70 63.6 0 0 403.60 222.79
  L 398.68 212.65
  A 1.31 1.30 -30.2 0 0 396.76 212.15
  C 387.40 218.60 379.12 227.22 374.08 237.57
  Q 369.66 246.64 369.28 247.53
  Q 368.32 249.80 366.73 249.13
  A 0.71 0.71 0.0 0 0 365.97 249.26
  Q 364.98 250.14 364.00 248.73
  Q 362.25 246.20 363.53 243.03
  Q 365.37 238.45 367.15 234.20
  C 370.93 225.12 376.47 217.03 380.19 207.92
  Q 384.98 196.21 386.68 183.98
  Q 387.44 178.50 386.72 171.19
  A 3.64 3.61 -77.9 0 0 384.92 168.39
  L 380.64 165.92
  A 0.92 0.92 0.0 0 0 379.26 166.67
  Q 378.45 183.78 372.42 198.99
  C 367.68 210.93 358.30 223.49 346.40 228.86
  Q 345.12 229.44 344.29 228.86
  A 1.82 1.75 -52.0 0 1 344.02 226.23
  C 355.99 212.35 364.95 194.72 366.95 176.25
  C 367.92 167.27 366.13 158.38 360.00 151.53
  C 357.55 148.81 353.14 148.03 350.12 147.08
  A 0.81 0.81 0.0 0 0 349.14 148.19
  C 352.83 156.33 355.05 164.60 354.57 173.42
  Q 353.49 193.09 339.56 206.63
  Q 332.89 213.11 325.14 214.37
  Q 323.87 214.58 323.23 214.24
  A 1.32 1.32 0.0 0 1 322.98 212.09
  C 329.36 206.43 334.48 200.27 337.83 192.28
  Q 341.77 182.87 342.72 175.76
  C 344.03 165.89 342.17 149.81 332.57 143.92
  Q 328.44 141.38 325.45 139.86
  A 0.57 0.56 3.3 0 0 324.66 140.56
  Q 334.69 167.56 321.42 192.72
  Q 320.98 193.55 320.26 193.81
  A 2.35 2.17 68.9 0 1 317.44 192.42
  C 316.28 189.53 316.84 185.46 316.74 182.61
  A 0.43 0.42 81.4 0 0 316.21 182.21
  L 307.79 184.53
  A 2.57 2.56 -7.1 0 0 305.91 186.93
  C 305.54 199.31 311.34 211.48 316.49 222.50
  Q 328.03 247.23 352.50 258.25
  C 360.66 261.93 366.01 265.99 364.33 275.27
  Q 363.11 282.06 362.68 283.69
  Q 362.56 284.15 362.22 284.38
  A 0.80 0.80 0.0 0 1 361.03 284.01
  Q 357.58 275.43 356.82 273.93
  C 354.80 269.99 352.18 269.09 347.85 267.58
  C 328.74 260.93 313.78 245.54 305.94 227.33
  C 302.26 218.79 298.97 208.00 292.55 198.95
  C 285.47 188.97 273.35 182.18 261.45 180.30
  C 244.05 177.54 228.63 183.13 220.73 199.24
  Q 219.00 202.77 219.84 206.40
  A 0.62 0.62 0.0 0 0 220.72 206.82
  Q 226.75 203.74 229.72 202.50
  C 240.46 198.01 254.45 198.90 263.45 206.89
  C 270.17 212.88 275.43 221.16 278.83 230.11
  C 281.65 237.49 283.81 243.91 286.77 249.35
  Q 297.06 268.27 316.89 278.39
  Q 330.69 285.43 345.92 282.21
  A 2.05 2.04 -21.5 0 1 348.08 283.14
  C 350.10 286.44 345.65 288.44 343.11 289.36
  C 334.79 292.37 325.94 292.30 317.12 289.21
  C 303.51 284.43 291.77 276.67 283.98 264.49
  Q 276.14 252.23 271.12 239.43
  C 266.51 227.65 263.45 219.93 253.17 213.24
  C 243.93 207.21 230.48 213.07 221.89 218.39
  Q 202.42 230.45 187.09 239.03
  Q 168.43 249.47 160.43 252.44
  Q 135.11 261.85 132.78 262.79
  C 122.48 266.93 106.62 274.63 104.32 285.84
  Q 101.81 298.09 104.10 311.50
  Q 106.04 322.91 108.32 330.69
  Q 111.03 339.97 118.81 365.64
  Q 123.49 381.08 123.86 397.75
  Q 124.28 416.79 112.65 431.68
  Q 108.65 436.79 100.42 446.61
  Q 95.10 452.95 94.74 460.48
  Q 94.04 475.02 101.61 486.63
  A 0.29 0.29 0.0 0 0 102.13 486.37
  C 100.95 483.03 101.10 480.93 101.04 476.49
  C 100.82 461.13 108.69 449.41 119.27 438.82
  C 121.64 436.44 131.63 425.86 134.85 429.11
  C 135.97 430.25 137.62 432.37 137.09 434.04
  C 134.56 442.07 132.64 447.53 132.20 454.75
  C 131.57 465.33 135.62 472.80 142.16 480.61
  Q 148.37 488.02 157.40 490.63
  A 0.35 0.35 0.0 0 0 157.78 490.08
  Z
  M 263.25 170.10
  A 0.39 0.39 0.0 0 0 263.62 169.47
  C 253.66 157.62 242.28 148.33 227.73 143.00
  A 0.50 0.50 0.0 0 0 227.11 143.69
  Q 228.56 146.71 231.19 151.00
  Q 236.33 159.36 238.75 170.28
  A 0.76 0.75 76.6 0 0 239.67 170.85
  C 247.74 168.79 255.29 168.67 263.25 170.10
  Z
  M 489.17 194.93
  A 0.19 0.19 0.0 0 0 488.91 195.10
  L 488.91 210.50
  A 0.70 0.70 0.0 0 0 490.02 211.07
  Q 496.11 206.66 499.32 199.88
  A 0.79 0.79 0.0 0 0 498.90 198.80
  L 489.17 194.93
  Z
  M 102.88 202.46
  Q 103.06 202.83 103.48 203.14
  C 117.63 213.65 132.59 227.33 143.02 237.48
  Q 146.61 240.96 149.00 243.73
  A 1.79 1.78 -31.2 0 0 151.02 244.22
  L 166.94 237.78
  A 0.99 0.99 0.0 0 0 167.27 236.17
  C 155.11 223.70 140.75 215.18 124.73 208.01
  Q 114.49 203.42 103.19 202.04
  A 0.30 0.29 -9.1 0 0 102.88 202.46
  Z
  M 508.88 203.07
  C 508.42 205.50 511.67 211.80 512.97 214.66
  A 0.49 0.49 0.0 0 0 513.85 214.67
  L 516.42 209.28
  A 1.59 1.58 -2.6 0 1 517.06 208.58
  Q 520.33 206.67 521.51 206.80
  Q 524.54 207.16 525.17 210.10
  Q 525.80 213.02 526.33 216.02
  A 0.46 0.46 0.0 0 0 527.13 216.25
  Q 529.63 213.44 531.18 211.36
  Q 532.43 209.70 533.41 209.35
  C 538.91 207.36 539.08 212.82 540.05 216.81
  A 0.67 0.67 0.0 0 0 541.35 216.84
  L 544.90 204.11
  A 0.49 0.48 -2.6 0 0 544.26 203.53
  Q 539.78 205.27 534.49 205.50
  Q 521.70 206.07 509.60 202.63
  A 0.57 0.57 0.0 0 0 508.88 203.07
  Z
  M 480.84 224.83
  A 0.49 0.49 0.0 0 0 480.17 224.22
  Q 472.92 227.74 468.40 233.53
  A 2.68 2.67 -48.5 0 0 468.61 237.07
  L 473.26 241.72
  A 0.88 0.88 0.0 0 0 474.56 241.66
  Q 475.57 240.46 475.90 239.38
  Q 478.21 231.90 480.84 224.83
  Z
  M 493.10 238.97
  C 488.81 240.95 485.50 243.68 480.81 247.38
  A 0.49 0.48 40.9 0 0 480.87 248.18
  L 487.49 252.00
  A 0.96 0.96 0.0 0 0 488.55 251.94
  Q 489.56 251.20 490.02 249.75
  Q 491.92 243.71 493.57 239.41
  A 0.35 0.35 0.0 0 0 493.10 238.97
  Z
  M 415.23 275.61
  Q 414.00 278.73 413.58 282.29
  Q 412.54 291.01 412.92 300.48
  Q 413.24 308.45 416.67 313.63
  C 421.62 321.11 428.15 329.01 435.99 335.06
  C 437.81 336.46 437.92 337.59 436.99 339.43
  A 1.28 1.28 0.0 0 1 435.77 340.13
  Q 429.55 339.74 424.75 336.00
  Q 415.29 328.63 409.78 318.31
  A 0.41 0.41 0.0 0 0 409.02 318.39
  C 405.57 331.13 417.92 343.03 427.21 352.82
  C 433.63 359.59 442.56 366.44 452.28 366.90
  Q 457.50 367.15 464.97 365.47
  Q 489.20 360.02 510.34 350.57
  Q 521.01 345.80 540.74 333.42
  C 542.29 332.45 543.64 331.70 545.23 332.49
  Q 551.97 335.87 559.51 335.73
  Q 571.38 335.52 576.64 324.81
  A 0.57 0.57 0.0 0 0 576.41 324.06
  L 571.70 321.33
  A 1.81 1.81 0.0 0 1 571.03 318.86
  C 572.43 316.44 576.92 314.59 579.24 314.23
  Q 596.20 311.58 607.92 323.23
  A 0.38 0.37 -72.4 0 0 608.55 322.90
  C 606.79 312.24 592.30 302.12 581.72 302.51
  Q 575.71 302.74 570.26 303.33
  Q 567.99 303.57 566.17 302.17
  A 2.61 2.31 -63.4 0 1 565.44 299.43
  Q 566.17 297.13 568.38 296.08
  Q 575.25 292.81 583.49 292.94
  A 0.58 0.57 1.6 0 0 584.07 292.40
  C 584.70 280.91 586.17 270.95 595.31 263.65
  C 605.15 255.79 616.76 252.40 629.34 252.04
  A 0.44 0.44 0.0 0 0 629.56 251.22
  C 616.06 242.63 601.57 241.06 589.03 251.84
  Q 584.33 255.88 581.21 260.72
  Q 574.09 271.79 565.63 286.36
  Q 557.07 301.10 541.37 309.85
  Q 521.39 320.98 495.49 326.67
  Q 484.83 329.01 472.15 331.14
  Q 466.45 332.10 461.36 334.12
  C 456.87 335.90 453.84 339.62 451.10 343.80
  A 2.03 2.03 0.0 0 1 448.01 344.17
  C 444.68 341.05 447.36 335.32 449.93 332.40
  Q 450.20 332.10 452.35 329.89
  A 0.76 0.75 45.9 0 0 452.36 328.85
  Q 450.72 327.08 449.17 325.09
  Q 430.86 301.38 415.70 275.58
  A 0.26 0.26 0.0 0 0 415.23 275.61
  Z
  M 506.61 247.77
  Q 500.70 250.24 495.65 254.22
  A 0.42 0.42 0.0 0 0 495.77 254.94
  C 502.56 257.34 504.06 253.43 507.16 248.42
  A 0.45 0.45 0.0 0 0 506.61 247.77
  Z
  M 85.61 262.46
  Q 87.80 272.86 93.63 281.97
  A 0.83 0.83 0.0 0 0 95.05 281.94
  L 97.49 277.72
  A 2.56 2.54 -44.0 0 0 97.54 275.28
  Q 96.26 272.81 93.87 270.38
  Q 90.87 267.34 86.04 262.23
  A 0.26 0.25 -72.7 0 0 85.61 262.46
  Z
  M 659.87 305.08
  Q 656.62 297.84 649.45 292.21
  Q 643.37 287.43 634.50 286.91
  Q 621.19 286.11 609.41 290.39
  Q 604.46 292.19 598.11 294.98
  A 0.56 0.56 0.0 0 0 598.07 295.99
  Q 604.44 299.42 608.81 303.69
  A 1.58 1.56 57.2 0 0 610.45 304.05
  C 614.92 302.44 620.49 300.21 625.05 299.39
  Q 643.08 296.14 659.38 305.53
  A 0.35 0.35 0.0 0 0 659.87 305.08
  Z
  M 178.98 404.30
  A 0.97 0.97 0.0 0 0 180.07 403.12
  C 177.70 392.84 177.10 380.10 180.65 370.35
  C 183.85 361.56 189.03 353.27 196.89 348.38
  A 2.48 2.44 74.6 0 0 198.05 346.30
  C 198.06 341.51 197.76 336.70 198.98 331.67
  Q 200.34 326.07 202.69 320.77
  A 2.02 2.02 0.0 0 0 201.86 318.21
  Q 189.02 310.69 180.86 298.78
  C 179.31 296.53 177.83 295.31 175.26 296.01
  Q 167.66 298.05 156.67 301.08
  A 1.03 1.03 0.0 0 0 156.00 302.51
  C 157.93 306.68 157.18 314.16 156.85 318.78
  C 156.26 326.96 153.32 335.27 152.29 343.42
  Q 151.35 350.87 151.36 351.74
  Q 151.40 365.04 154.00 378.87
  Q 155.87 388.81 159.27 393.38
  C 164.23 400.03 171.08 403.16 178.98 404.30
  Z
  M 87.25 312.28
  Q 90.58 316.24 93.98 318.48
  A 0.35 0.35 0.0 0 0 94.51 318.15
  C 94.16 315.19 93.92 309.75 92.41 307.95
  C 90.89 306.15 85.57 304.98 82.72 304.12
  A 0.35 0.35 0.0 0 0 82.30 304.59
  Q 83.92 308.33 87.25 312.28
  Z
  M 620.33 330.14
  A 5.74 5.73 -84.4 0 0 623.28 333.73
  Q 627.22 335.72 630.47 337.80
  Q 635.04 340.73 638.45 345.95
  A 0.83 0.83 0.0 0 0 639.97 345.63
  Q 640.79 340.44 638.35 336.88
  C 633.39 329.61 627.47 325.93 619.63 321.04
  A 1.01 1.00 8.2 0 0 618.13 322.16
  L 620.33 330.14
  Z
  M 157.18 669.39
  C 155.68 655.00 145.53 649.11 132.54 646.11
  A 2.18 2.10 15.3 0 1 130.93 643.40
  Q 131.07 642.98 131.93 642.33
  A 1.63 1.63 0.0 0 1 132.41 642.09
  L 140.91 639.75
  A 3.08 2.96 -50.2 0 1 141.82 639.65
  Q 148.44 639.91 153.17 643.59
  C 159.36 648.41 165.35 654.59 166.87 662.48
  A 1.04 1.04 0.0 0 0 167.89 663.33
  C 174.96 663.36 181.44 665.15 188.43 666.31
  A 0.47 0.47 0.0 0 0 188.95 665.69
  Q 184.99 653.91 175.57 645.48
  C 173.01 643.19 168.97 641.40 166.43 639.55
  C 158.97 634.13 157.72 626.03 157.69 616.77
  Q 157.64 603.41 160.33 592.33
  C 161.87 585.99 166.52 576.11 173.77 574.78
  C 179.37 573.76 184.66 572.83 190.44 572.35
  Q 212.85 570.50 229.81 567.81
  Q 245.41 565.34 262.97 560.34
  Q 277.19 556.29 282.58 551.72
  Q 292.47 543.33 293.04 529.01
  Q 293.47 518.36 292.76 513.77
  Q 287.22 478.24 274.44 450.28
  C 263.95 427.31 247.91 408.52 227.25 394.13
  C 222.94 391.12 218.42 387.18 216.01 383.99
  Q 215.57 383.41 216.04 381.65
  A 0.56 0.55 14.2 0 1 216.70 381.26
  C 218.80 381.78 223.01 382.45 225.88 383.66
  Q 238.43 388.96 249.33 398.94
  Q 270.01 417.88 282.37 442.99
  A 0.97 0.97 0.0 0 0 283.83 443.34
  C 293.58 436.00 300.38 423.43 303.86 411.87
  Q 307.44 400.00 309.55 386.48
  A 0.33 0.33 0.0 0 0 309.25 386.10
  L 302.39 385.34
  A 2.02 2.00 -23.2 0 1 301.40 384.95
  L 300.02 383.92
  A 1.07 1.06 21.1 0 0 298.31 384.67
  Q 297.30 395.81 294.49 405.69
  Q 294.03 407.32 291.98 410.81
  A 1.40 1.37 -83.2 0 1 291.21 411.43
  Q 289.82 411.89 288.05 411.40
  A 1.99 1.99 0.0 0 1 286.59 409.58
  Q 286.41 405.53 287.16 401.89
  Q 289.01 392.99 289.71 384.80
  A 0.64 0.64 0.0 0 0 288.75 384.20
  C 282.54 387.85 275.68 388.76 268.30 389.58
  A 0.68 0.68 0.0 0 0 267.69 390.31
  L 268.36 400.99
  A 1.09 1.08 7.8 0 1 266.92 402.08
  L 261.71 400.28
  A 3.51 3.51 0.0 0 1 259.70 398.51
  Q 256.33 391.68 256.32 391.65
  C 251.90 382.89 245.51 375.20 237.99 368.80
  C 228.34 360.58 214.27 355.11 201.86 360.12
  C 194.65 363.03 191.18 371.56 190.35 378.86
  Q 188.88 391.85 192.55 407.44
  Q 193.06 409.61 194.59 410.97
  C 196.90 413.02 200.39 415.13 202.70 417.83
  Q 210.14 426.52 211.49 437.92
  C 212.12 443.28 210.88 448.00 209.76 454.00
  Q 208.94 458.36 210.85 461.98
  Q 218.20 475.93 230.29 492.37
  C 234.46 498.02 239.58 503.56 244.94 509.49
  C 248.32 513.23 250.61 516.85 252.67 520.87
  Q 254.27 524.01 253.75 527.92
  C 253.40 530.60 251.14 531.44 248.83 531.81
  C 247.31 532.05 247.17 532.53 246.26 533.95
  A 0.64 0.63 52.7 0 1 245.12 533.79
  C 243.73 529.35 240.91 525.31 236.73 523.13
  Q 234.47 521.96 229.93 521.92
  Q 216.94 521.82 205.78 527.99
  Q 202.50 529.81 195.37 536.19
  C 185.41 545.12 175.01 552.76 161.01 552.23
  Q 154.43 551.98 145.28 551.58
  C 133.95 551.07 130.48 560.73 131.23 570.26
  Q 132.22 582.63 131.89 591.26
  Q 131.28 607.73 125.35 623.62
  Q 121.07 635.07 116.31 646.61
  Q 113.28 653.97 118.06 658.37
  C 123.25 663.14 131.93 661.08 138.29 662.59
  C 144.77 664.12 152.26 667.83 156.68 669.76
  A 0.36 0.36 0.0 0 0 157.18 669.39
  Z
  M 20.36 486.19
  C 23.50 484.21 26.35 482.07 28.97 486.51
  A 1.22 1.17 -55.0 0 1 29.11 487.40
  C 28.12 492.03 18.84 494.19 19.33 499.25
  Q 20.24 508.55 22.11 518.39
  A 0.34 0.34 0.0 0 0 22.66 518.59
  Q 26.50 515.41 30.93 515.46
  A 1.44 1.42 67.3 0 1 31.94 515.88
  Q 33.67 517.60 33.24 519.08
  A 1.03 1.01 -15.2 0 1 33.01 519.47
  L 26.04 527.17
  A 1.89 1.87 57.1 0 0 25.65 529.03
  Q 30.17 542.22 39.68 553.18
  A 0.26 0.26 0.0 0 0 40.13 553.08
  Q 40.33 552.37 40.74 550.00
  Q 41.86 543.56 48.29 540.57
  A 2.00 2.00 0.0 0 1 51.05 541.79
  Q 51.56 543.45 50.88 546.94
  Q 49.74 552.88 48.35 558.42
  A 1.93 1.92 -66.4 0 0 49.16 560.51
  Q 59.15 567.09 71.43 571.05
  A 0.53 0.53 0.0 0 0 72.09 570.35
  C 69.97 565.00 69.65 555.01 76.73 553.20
  A 1.23 1.23 0.0 0 1 78.21 554.04
  Q 78.83 556.08 78.90 557.79
  Q 79.27 567.19 79.82 571.87
  A 2.30 2.29 -86.7 0 0 81.56 573.83
  Q 91.24 576.15 101.28 576.02
  A 0.27 0.27 0.0 0 0 101.53 575.67
  Q 98.27 565.35 100.03 554.27
  A 0.98 0.96 78.2 0 1 100.44 553.63
  L 101.70 552.73
  A 0.88 0.87 76.3 0 0 102.06 552.13
  Q 102.30 550.06 104.81 550.81
  C 106.52 551.33 107.01 554.36 107.11 555.74
  Q 107.80 565.89 110.44 574.80
  A 1.43 1.42 74.0 0 0 112.18 575.77
  L 120.21 573.56
  A 1.26 1.25 80.7 0 0 121.12 572.29
  C 120.70 564.60 121.68 555.23 126.38 549.14
  Q 129.03 545.71 129.89 544.63
  C 133.92 539.61 145.28 540.43 151.16 541.32
  Q 158.47 542.44 165.50 542.13
  A 0.26 0.26 0.0 0 0 165.69 541.70
  Q 162.06 537.20 157.88 530.14
  Q 155.79 526.62 159.24 524.35
  A 2.52 2.51 -40.9 0 1 162.29 524.56
  C 166.65 528.39 169.62 534.16 172.83 538.02
  A 1.76 1.76 0.0 0 0 175.01 538.46
  Q 178.86 536.43 182.61 533.61
  C 189.86 528.18 201.12 522.03 195.92 512.34
  Q 193.48 507.80 187.52 503.84
  A 0.71 0.69 39.6 0 0 186.67 503.91
  Q 181.96 508.21 174.51 512.02
  C 160.89 518.97 140.44 530.25 122.20 537.70
  C 105.83 544.40 86.62 544.08 70.69 536.87
  Q 45.98 525.69 39.64 496.37
  C 31.29 457.71 43.93 417.77 65.47 385.46
  A 0.31 0.31 0.0 0 0 65.05 385.03
  Q 63.22 386.21 61.99 387.49
  C 52.51 397.46 45.06 409.16 37.83 421.54
  A 1.44 1.43 36.2 0 0 38.11 423.32
  L 39.73 424.80
  A 1.00 1.00 0.0 0 1 39.22 426.53
  Q 35.15 427.20 33.35 431.07
  Q 28.71 441.04 25.38 451.25
  A 0.53 0.53 0.0 0 0 26.11 451.89
  Q 27.93 451.03 29.01 450.75
  A 1.85 1.47 -12.8 0 1 31.18 451.79
  Q 31.63 454.05 29.34 455.60
  C 24.58 458.84 23.13 459.74 22.16 465.65
  Q 19.87 479.56 19.64 485.78
  A 0.47 0.47 0.0 0 0 20.36 486.19
  Z
  M 490.09 657.45
  Q 489.74 655.22 488.45 652.98
  C 480.93 639.97 466.44 629.33 450.69 630.11
  Q 447.67 630.26 440.98 629.13
  A 4.77 4.26 58.6 0 1 440.02 628.84
  Q 428.73 623.89 426.15 622.36
  Q 413.21 614.62 403.61 602.38
  Q 393.98 590.12 384.56 576.51
  C 378.71 568.06 372.22 559.47 370.53 549.79
  A 1.11 1.08 -29.4 0 1 370.80 548.87
  Q 371.98 547.55 373.12 546.62
  C 392.78 530.72 410.06 516.35 429.92 497.44
  Q 436.48 491.19 441.57 484.33
  Q 448.42 475.10 448.25 463.62
  C 448.14 456.18 445.57 450.82 440.81 445.91
  Q 436.53 441.50 433.03 439.01
  Q 401.00 416.22 364.88 404.41
  C 353.96 400.84 341.84 400.81 331.20 405.98
  C 328.54 407.28 326.28 412.76 324.83 415.16
  A 0.52 0.52 0.0 0 0 325.00 415.87
  Q 328.22 417.94 333.58 420.43
  Q 345.05 425.77 359.37 431.13
  Q 372.83 436.16 386.66 437.09
  C 389.82 437.31 393.08 437.95 395.87 438.47
  A 0.71 0.71 0.0 0 1 396.16 439.74
  C 388.65 445.17 374.49 443.68 365.51 441.71
  Q 343.38 436.85 323.64 426.06
  A 0.63 0.63 0.0 0 0 322.72 426.54
  C 322.29 430.30 321.18 433.99 323.19 437.08
  C 337.22 458.78 368.13 458.55 388.86 463.40
  C 393.42 464.47 400.72 466.27 404.02 469.27
  A 1.50 1.47 17.8 0 1 404.50 470.18
  C 404.96 474.22 405.15 477.55 401.81 479.78
  C 399.60 481.25 395.39 479.81 392.24 479.32
  C 381.91 477.74 372.00 492.95 369.29 500.77
  Q 366.21 509.67 365.60 511.39
  Q 360.78 525.00 348.88 535.16
  Q 335.70 546.43 334.81 547.29
  Q 331.01 550.94 332.79 555.45
  Q 334.58 559.99 338.17 563.09
  Q 346.19 570.03 351.45 575.04
  Q 367.75 590.62 380.58 611.66
  Q 384.47 618.03 387.73 626.80
  C 389.69 632.08 390.54 638.59 391.83 643.91
  Q 393.40 650.40 400.22 650.83
  Q 409.17 651.40 425.96 651.87
  C 432.79 652.05 440.62 652.84 447.32 654.43
  Q 454.79 656.21 457.97 658.01
  Q 461.76 660.15 465.51 661.96
  A 0.36 0.36 0.0 0 0 466.02 661.58
  Q 465.69 659.63 464.60 657.32
  Q 459.11 645.65 446.87 640.68
  C 440.49 638.09 432.44 639.03 426.59 635.06
  A 0.58 0.57 33.8 0 1 426.43 634.27
  C 428.64 630.87 434.95 629.70 438.68 630.02
  C 452.32 631.18 466.75 638.58 473.26 651.28
  A 3.03 3.00 -3.7 0 0 474.97 652.77
  L 489.64 657.83
  A 0.35 0.34 4.7 0 0 490.09 657.45
  Z
  M 167.60 485.63
  A 1.13 1.12 -54.6 0 0 169.41 485.32
  L 172.76 478.27
  A 1.64 1.64 0.0 0 0 172.76 476.85
  C 170.61 472.37 167.99 467.13 171.71 463.40
  Q 173.35 461.76 180.23 460.86
  Q 188.10 459.84 189.06 459.60
  A 1.50 1.50 0.0 0 0 189.93 458.99
  C 191.47 456.75 192.49 455.13 191.05 452.40
  Q 188.15 446.88 182.96 442.22
  Q 177.80 437.59 170.24 437.83
  C 165.57 437.98 162.82 439.84 160.22 443.30
  Q 155.13 450.10 154.77 459.02
  Q 154.48 466.03 158.54 473.38
  Q 162.41 480.39 167.60 485.63
  Z
  M 476.73 627.99
  A 0.40 0.40 0.0 0 0 476.48 628.72
  Q 490.84 637.93 499.36 651.15
  A 2.37 2.36 78.1 0 0 500.96 652.20
  L 509.07 653.55
  A 0.46 0.46 0.0 0 0 509.58 652.93
  Q 507.99 648.75 505.04 645.46
  C 497.94 637.54 487.61 628.92 476.73 627.99
  Z
  M 211.15 662.44
  Q 207.90 657.50 205.40 654.34
  C 201.78 649.78 196.11 647.65 190.54 646.27
  A 0.39 0.39 0.0 0 0 190.11 646.85
  L 198.47 661.33
  A 2.48 2.46 -13.0 0 0 200.47 662.57
  L 210.72 663.19
  A 0.49 0.48 75.1 0 0 211.15 662.44
  Z"
/>
<path d="
  M 438.44 223.51
  Q 435.13 223.26 433.47 220.24
  C 429.03 212.15 429.40 201.18 431.76 192.50
  A 1.00 1.00 0.0 0 0 431.31 191.38
  C 424.93 187.56 420.61 183.45 420.94 175.67
  A 1.64 1.64 0.0 0 1 423.76 174.59
  Q 430.45 181.50 438.57 184.65
  Q 441.71 185.87 441.77 188.95
  Q 441.85 193.43 441.11 198.00
  C 439.98 204.89 439.79 209.73 439.91 216.50
  Q 439.97 220.15 439.27 222.91
  A 0.79 0.79 0.0 0 1 438.44 223.51
  Z"
/>
<path d="
  M 258.17 249.16
  A 0.37 0.37 0.0 0 1 258.49 249.64
  Q 257.30 253.47 253.69 255.73
  C 241.81 263.16 226.68 262.46 213.24 260.83
  Q 207.29 260.11 203.73 260.17
  Q 194.27 260.34 190.76 261.25
  C 182.44 263.42 177.78 265.42 171.98 264.61
  A 0.90 0.90 0.0 0 1 171.36 263.20
  Q 173.05 260.80 175.86 259.35
  C 187.51 253.34 198.98 249.46 212.23 251.32
  Q 219.05 252.27 222.77 252.67
  Q 238.08 254.32 253.78 249.81
  Q 256.46 249.04 258.17 249.16
  Z"
/>
<path d="
  M 116.37 292.31
  A 0.66 0.66 0.0 0 1 117.59 292.22
  Q 118.89 294.88 120.18 298.81
  Q 124.94 313.40 127.85 333.86
  Q 128.58 338.95 128.11 344.07
  A 1.69 1.69 0.0 0 1 124.94 344.73
  Q 124.25 343.46 123.69 341.30
  Q 118.86 322.52 115.57 301.69
  Q 114.84 297.01 116.37 292.31
  Z"
/>
<path d="
  M 225.27 426.36
  A 0.82 0.82 0.0 0 1 226.69 426.19
  Q 232.99 434.71 237.46 444.26
  C 246.39 463.31 257.95 480.35 261.85 490.56
  A 1.05 1.03 -39.6 0 1 261.75 491.50
  Q 260.79 493.02 259.34 493.11
  A 1.22 1.19 -22.9 0 1 258.40 492.74
  C 248.78 482.69 240.91 469.83 234.53 456.96
  Q 227.58 442.92 225.12 427.60
  Q 225.02 426.94 225.27 426.36
  Z"
/>
<path d="
  M 418.91 453.33
  A 0.30 0.30 0.0 0 1 419.29 453.57
  Q 419.93 457.67 420.12 460.51
  Q 421.04 473.90 429.38 483.06
  Q 430.03 483.77 429.85 484.45
  A 2.30 2.29 -82.6 0 1 427.63 486.17
  Q 421.78 486.20 417.87 482.35
  A 3.58 3.44 -82.5 0 1 417.31 481.59
  Q 411.71 471.10 413.53 459.60
  Q 414.34 454.50 418.91 453.33
  Z"
/>
<path d="
  M 405.53 493.72
  A 1.79 1.78 -1.7 0 1 407.43 495.51
  Q 407.35 507.82 397.71 516.04
  Q 386.03 526.00 371.32 533.59
  Q 369.06 534.76 366.57 533.86
  A 1.75 1.75 0.0 0 1 365.76 531.18
  Q 368.06 528.03 371.41 525.41
  C 383.35 516.09 397.19 508.17 404.41 494.10
  Q 404.57 493.79 405.53 493.72
  Z"
/>
<path d="
  M 275.78 517.54
  L 275.86 517.61
  A 2.71 2.70 -40.3 0 1 275.49 522.02
  Q 266.47 527.34 264.04 535.06
  Q 262.22 540.83 261.59 548.36
  Q 261.35 551.17 259.06 551.70
  A 2.60 2.21 66.8 0 1 256.50 550.43
  C 252.38 543.41 255.85 530.54 259.43 524.76
  Q 262.47 519.84 269.34 516.68
  A 6.09 6.09 0.0 0 1 275.78 517.54
  Z"
/>
<path d="
  M 239.22 543.85
  A 0.89 0.88 31.7 0 1 239.47 544.90
  C 238.14 547.74 237.38 549.42 234.42 550.99
  Q 232.26 552.13 225.77 555.52
  Q 206.10 565.78 182.31 564.43
  Q 178.20 564.20 174.57 562.27
  A 0.94 0.94 0.0 0 1 174.73 560.54
  C 181.25 558.47 185.17 557.60 191.97 556.42
  Q 207.72 553.71 217.28 550.00
  Q 223.87 547.44 231.22 544.20
  C 233.73 543.09 236.95 542.02 239.22 543.85
  Z"
/>
<path d="
  M 388.51 594.59
  Q 402.85 613.15 405.69 617.07
  Q 407.00 618.87 407.23 619.96
  A 1.09 1.09 0.0 0 1 405.91 621.25
  Q 403.94 620.78 402.63 619.82
  C 395.09 614.30 388.16 605.96 382.79 599.01
  C 377.42 592.06 371.09 583.26 367.65 574.56
  Q 367.06 573.06 367.10 571.03
  A 1.09 1.09 0.0 0 1 368.68 570.08
  Q 369.68 570.58 371.09 572.29
  Q 374.16 576.03 388.51 594.59
  Z"
/>
<path d="
  M 147.33 635.08
  C 137.65 631.54 138.98 616.62 140.19 608.74
  Q 143.02 590.28 144.26 581.37
  A 0.57 0.56 -70.8 0 1 145.10 580.96
  Q 149.33 583.44 149.85 588.44
  Q 150.48 594.48 149.88 600.20
  C 149.06 607.89 147.03 617.69 147.61 625.24
  Q 148.31 634.28 148.13 634.72
  A 0.64 0.64 0.0 0 1 147.33 635.08
  Z"
/>
</g>
<g fill="#ffffff">
<path d="
  M 489.17 194.93
  L 498.90 198.80
  A 0.79 0.79 0.0 0 1 499.32 199.88
  Q 496.11 206.66 490.02 211.07
  A 0.70 0.70 0.0 0 1 488.91 210.50
  L 488.91 195.10
  A 0.19 0.19 0.0 0 1 489.17 194.93
  Z"
/>
<path d="
  M 509.60 202.63
  Q 521.70 206.07 534.49 205.50
  Q 539.78 205.27 544.26 203.53
  A 0.49 0.48 -2.6 0 1 544.90 204.11
  L 541.35 216.84
  A 0.67 0.67 0.0 0 1 540.05 216.81
  C 539.08 212.82 538.91 207.36 533.41 209.35
  Q 532.43 209.70 531.18 211.36
  Q 529.63 213.44 527.13 216.25
  A 0.46 0.46 0.0 0 1 526.33 216.02
  Q 525.80 213.02 525.17 210.10
  Q 524.54 207.16 521.51 206.80
  Q 520.33 206.67 517.06 208.58
  A 1.59 1.58 -2.6 0 0 516.42 209.28
  L 513.85 214.67
  A 0.49 0.49 0.0 0 1 512.97 214.66
  C 511.67 211.80 508.42 205.50 508.88 203.07
  A 0.57 0.57 0.0 0 1 509.60 202.63
  Z"
/>
<path d="
  M 480.84 224.83
  Q 478.21 231.90 475.90 239.38
  Q 475.57 240.46 474.56 241.66
  A 0.88 0.88 0.0 0 1 473.26 241.72
  L 468.61 237.07
  A 2.68 2.67 -48.5 0 1 468.40 233.53
  Q 472.92 227.74 480.17 224.22
  A 0.49 0.49 0.0 0 1 480.84 224.83
  Z"
/>
<path d="
  M 493.10 238.97
  A 0.35 0.35 0.0 0 1 493.57 239.41
  Q 491.92 243.71 490.02 249.75
  Q 489.56 251.20 488.55 251.94
  A 0.96 0.96 0.0 0 1 487.49 252.00
  L 480.87 248.18
  A 0.49 0.48 40.9 0 1 480.81 247.38
  C 485.50 243.68 488.81 240.95 493.10 238.97
  Z"
/>
<path d="
  M 506.61 247.77
  A 0.45 0.45 0.0 0 1 507.16 248.42
  C 504.06 253.43 502.56 257.34 495.77 254.94
  A 0.42 0.42 0.0 0 1 495.65 254.22
  Q 500.70 250.24 506.61 247.77
  Z"
/>
</g>
</svg>
