<?xml version="1.0" encoding="UTF-8" standalone="no"?>
<!DOCTYPE svg PUBLIC "-//W3C//DTD SVG 1.1//EN" "http://www.w3.org/Graphics/SVG/1.1/DTD/svg11.dtd">
<svg xmlns="http://www.w3.org/2000/svg" version="1.1" viewBox="0.00 0.00 459.00 430.00">
<g stroke-width="2.00" fill="none" stroke-linecap="butt">
<path stroke="#80b1d6" vector-effect="non-scaling-stroke" d="
  M 197.87 75.19
  C 201.62 65.03 208.16 56.96 220.06 58.76
  C 226.92 59.80 232.95 65.13 235.44 71.29
  Q 241.30 85.83 234.84 100.24
  C 232.36 105.76 226.97 111.53 221.27 113.24
  C 211.40 116.19 203.81 110.98 199.26 102.90
  A 0.19 0.18 -67.3 0 0 198.92 103.04
  Q 201.37 111.88 205.57 118.96
  A 4.66 4.63 -6.3 0 0 208.17 121.03
  Q 215.30 123.30 221.24 128.27
  C 224.69 131.15 226.93 134.10 230.81 136.72
  Q 238.26 141.77 249.50 146.01
  C 265.19 151.94 284.34 156.39 300.28 156.06
  Q 312.05 155.81 323.47 150.68
  A 0.07 0.07 0.0 0 0 323.44 150.55
  C 320.42 150.58 317.73 151.11 314.52 150.97
  C 292.79 149.97 271.01 139.96 259.06 121.69
  C 245.45 100.88 246.82 74.38 262.54 55.36
  C 284.63 28.63 327.97 26.97 354.43 47.72
  A 0.24 0.24 0.0 0 0 354.79 47.42
  C 341.66 24.35 314.99 11.19 289.00 8.93
  C 261.64 6.55 234.00 15.72 215.93 36.91
  Q 201.39 53.95 197.10 75.07
  A 0.11 0.10 14.2 0 0 197.17 75.18
  L 197.65 75.30
  A 0.18 0.18 0.0 0 0 197.87 75.19"
/>
<path stroke="#807d82" vector-effect="non-scaling-stroke" d="
  M 346.78 134.26
  C 361.64 121.63 368.08 100.23 365.34 81.40
  C 362.41 61.15 348.59 48.36 329.36 43.21
  C 304.52 36.56 272.43 45.06 261.42 70.89
  Q 256.41 82.66 257.45 96.43
  C 258.96 116.45 272.51 131.73 290.96 139.08
  C 307.44 145.64 332.36 146.52 346.78 134.26"
/>
<path stroke="#1985cf" vector-effect="non-scaling-stroke" d="
  M 217.5665 65.5405
  A 20.83 14.02 -86.9 0 0 202.4405 85.5818
  A 20.83 14.02 -86.9 0 0 215.3135 107.1395
  A 20.83 14.02 -86.9 0 0 230.4395 87.0982
  A 20.83 14.02 -86.9 0 0 217.5665 65.5405"
/>
<path stroke="#80b1d6" vector-effect="non-scaling-stroke" d="
  M 405.78 101.19
  Q 414.49 103.42 417.94 105.96
  A 1.15 1.15 0.0 0 0 419.47 105.80
  L 422.57 102.32
  A 1.98 1.98 0.0 0 0 422.28 99.43
  Q 412.68 92.25 405.64 100.77
  A 0.26 0.26 0.0 0 0 405.78 101.19"
/>
<path stroke="#1985cf" vector-effect="non-scaling-stroke" d="
  M 197.65 119.18
  Q 193.59 111.08 191.18 101.82
  A 1.88 1.87 1.5 0 0 189.92 100.50
  L 185.41 99.13
  A 0.35 0.35 0.0 0 0 185.02 99.67
  C 190.03 106.41 189.89 112.44 188.64 120.52
  A 0.44 0.43 -0.1 0 0 189.14 121.01
  L 197.36 119.74
  A 0.39 0.39 0.0 0 0 197.65 119.18"
/>
<path stroke="#1985cf" vector-effect="non-scaling-stroke" d="
  M 146.11 133.90
  Q 163.32 127.54 181.81 124.79
  A 1.27 1.26 6.6 0 0 182.79 124.02
  Q 186.22 115.59 183.82 106.74
  C 182.05 100.24 174.84 99.37 169.28 101.09
  Q 158.91 104.28 154.62 113.89
  Q 150.44 123.23 145.73 133.50
  A 0.30 0.30 0.0 0 0 146.11 133.90"
/>
<path stroke="#80b1d6" vector-effect="non-scaling-stroke" d="
  M 422.22 129.27
  Q 424.89 129.85 425.86 129.34
  C 430.44 126.95 434.10 121.67 436.99 117.25
  C 439.66 113.17 440.70 108.60 435.56 106.12
  Q 432.67 104.74 430.17 104.74
  A 1.40 1.39 -71.9 0 0 429.04 105.32
  L 424.40 111.78
  A 0.93 0.92 -35.7 0 0 424.27 112.56
  C 424.64 113.87 425.37 115.60 425.47 116.77
  Q 425.83 120.94 424.00 124.29
  Q 421.69 128.52 421.69 128.53
  A 0.68 0.68 0.0 0 0 422.22 129.27"
/>
<path stroke="#80b1d6" vector-effect="non-scaling-stroke" d="
  M 421.13 135.80
  Q 420.59 140.06 418.33 143.02
  C 417.21 144.48 415.27 144.87 414.27 143.00
  A 1.23 1.22 40.7 0 1 414.19 142.01
  Q 415.94 137.15 415.99 132.71
  A 0.64 0.64 0.0 0 0 415.24 132.07
  C 409.44 133.04 401.66 131.08 399.19 125.13
  C 398.03 122.36 400.62 120.38 402.90 121.98
  C 408.24 125.74 414.57 127.92 417.79 120.49
  C 420.88 113.32 409.72 108.80 404.61 108.15
  C 399.68 107.52 392.38 109.25 390.87 114.90
  C 388.94 122.09 389.66 131.30 394.40 137.61
  C 400.22 145.36 414.54 159.90 425.54 157.17
  C 430.51 155.93 437.20 150.71 440.49 146.16
  A 0.38 0.38 0.0 0 0 440.16 145.56
  Q 429.81 146.26 426.51 136.70
  A 0.92 0.92 0.0 0 0 425.51 136.09
  Q 423.82 136.34 421.99 135.35
  A 0.59 0.59 0.0 0 0 421.13 135.80"
/>
<path stroke="#80b1d6" vector-effect="non-scaling-stroke" d="
  M 449.51 118.74
  A 3.31 3.30 -47.3 0 0 443.66 118.98
  Q 439.97 126.74 432.28 134.18
  A 0.78 0.78 0.0 0 0 432.18 135.19
  C 438.90 144.87 447.99 135.72 450.79 128.74
  A 10.14 10.13 -49.1 0 0 450.16 119.87
  L 449.51 118.74"
/>
<path stroke="#1985cf" vector-effect="non-scaling-stroke" d="
  M 194.47 127.43
  C 221.52 138.28 218.76 169.29 204.73 188.98
  C 195.93 201.32 184.40 209.28 168.45 205.94
  A 0.86 0.86 0.0 0 0 167.43 206.61
  L 166.39 211.92
  A 1.74 1.74 0.0 0 0 169.03 213.72
  C 171.72 211.99 173.69 211.89 176.85 212.89
  Q 179.25 213.65 183.49 215.06
  Q 185.51 215.74 188.20 214.71
  Q 200.36 210.06 209.18 200.96
  C 221.68 188.06 230.04 170.79 227.68 153.00
  C 225.96 140.01 213.67 126.92 200.04 127.08
  Q 199.01 127.09 194.56 126.99
  A 0.23 0.23 0.0 0 0 194.47 127.43"
/>
<path stroke="#80b1d6" vector-effect="non-scaling-stroke" d="
  M 115.19 163.92
  C 132.62 161.40 149.33 171.81 153.59 189.24
  A 0.45 0.45 0.0 0 0 154.29 189.50
  Q 163.16 182.99 173.50 180.54
  Q 184.66 177.89 193.72 175.86
  A 3.58 3.57 77.3 0 1 197.98 178.56
  L 198.04 178.81
  A 3.33 3.33 0.0 0 1 195.56 182.91
  L 174.66 187.60
  A 0.63 0.59 4.4 0 0 174.23 187.95
  L 169.28 198.71
  A 0.40 0.40 0.0 0 0 169.56 199.26
  Q 182.78 202.17 192.51 192.98
  C 203.55 182.56 211.32 165.51 207.01 150.10
  Q 205.28 143.92 200.56 139.47
  Q 191.51 130.95 178.33 132.81
  Q 160.74 135.30 144.29 142.49
  Q 128.82 149.26 114.92 163.40
  A 0.31 0.31 0.0 0 0 115.19 163.92"
/>
<path stroke="#1985cf" vector-effect="non-scaling-stroke" d="
  M 421.26 164.75
  C 407.47 162.89 394.54 151.15 387.35 139.81
  A 0.39 0.38 -42.0 0 0 386.72 139.78
  L 380.51 147.80
  A 2.14 2.13 53.0 0 0 380.22 149.89
  C 385.69 163.54 397.54 173.80 412.30 175.80
  A 2.85 2.84 -68.2 0 0 414.99 174.64
  L 421.57 165.48
  A 0.47 0.46 -68.3 0 0 421.26 164.75"
/>
<path stroke="#1985cf" vector-effect="non-scaling-stroke" d="
  M 304.46 163.29
  C 300.90 163.16 294.79 163.35 289.86 162.83
  Q 260.75 159.75 234.57 147.54
  A 0.57 0.57 0.0 0 0 233.77 148.18
  L 234.83 152.89
  A 2.39 2.36 -83.4 0 0 236.09 154.50
  Q 252.22 162.57 269.81 166.15
  C 280.57 168.33 295.60 170.31 304.67 164.01
  A 0.40 0.39 28.8 0 0 304.46 163.29"
/>
<path stroke="#80b1d6" vector-effect="non-scaling-stroke" d="
  M 408.58 181.78
  C 393.97 180.02 380.93 167.39 375.01 154.66
  A 0.43 0.43 0.0 0 0 374.31 154.54
  Q 366.38 162.81 356.89 168.25
  A 1.53 1.53 0.0 0 0 356.12 169.58
  C 356.11 172.64 356.74 178.31 355.45 181.83
  A 1.06 1.04 -88.1 0 1 354.76 182.49
  C 348.73 184.36 350.82 171.07 351.32 168.34
  A 0.76 0.76 0.0 0 0 350.64 167.44
  Q 337.90 166.27 324.96 163.31
  A 0.31 0.31 0.0 0 0 324.60 163.73
  C 330.44 177.82 326.73 195.18 320.53 208.63
  A 0.55 0.55 0.0 0 0 320.86 209.38
  Q 323.84 210.39 328.76 211.28
  C 347.06 214.59 367.18 213.34 383.17 204.11
  Q 397.60 195.78 408.80 182.34
  A 0.34 0.34 0.0 0 0 408.58 181.78"
/>
<path stroke="#1985cf" vector-effect="non-scaling-stroke" d="
  M 314.56 204.06
  Q 321.59 187.16 319.90 171.04
  Q 319.41 166.38 316.68 160.33
  A 0.12 0.11 -39.0 0 0 316.48 160.31
  L 311.74 166.91
  A 0.60 0.59 -39.6 0 0 311.68 167.50
  C 315.84 176.50 315.47 186.76 315.06 197.35
  C 314.96 200.01 314.07 202.15 314.13 203.98
  A 0.22 0.22 0.0 0 0 314.56 204.06"
/>
<path stroke="#80b1d6" vector-effect="non-scaling-stroke" d="
  M 234.77 162.08
  C 233.25 185.31 216.73 208.77 195.32 218.61
  A 0.38 0.38 0.0 0 0 195.36 219.32
  Q 199.01 220.43 210.92 224.32
  C 216.08 226.00 215.40 229.54 213.98 233.69
  A 0.54 0.53 -72.2 0 0 214.33 234.38
  Q 227.08 238.27 241.10 240.99
  A 1.37 1.35 -60.5 0 0 242.28 240.65
  C 244.26 238.81 246.07 238.35 248.95 239.01
  Q 259.68 241.46 270.64 243.23
  C 273.03 243.61 273.84 244.72 274.53 246.74
  A 1.30 1.28 -9.5 0 0 275.75 247.60
  L 287.47 247.60
  A 3.69 3.67 16.0 0 0 290.59 245.88
  Q 299.51 231.70 304.54 215.27
  C 306.95 207.41 308.00 198.45 308.32 190.26
  Q 308.69 180.99 306.47 172.09
  A 0.53 0.52 -18.9 0 0 305.75 171.74
  C 297.49 175.35 287.12 175.48 277.86 174.32
  Q 256.06 171.60 238.38 163.27
  Q 236.00 162.15 235.22 161.80
  A 0.33 0.32 -76.2 0 0 234.77 162.08"
/>
<path stroke="#1985cf" vector-effect="non-scaling-stroke" d="
  M 102.41 181.80
  C 118.80 178.86 133.78 186.58 141.49 200.90
  A 0.67 0.66 51.8 0 0 142.57 201.03
  L 147.38 195.63
  A 2.07 2.05 62.5 0 0 147.88 194.02
  Q 145.95 178.15 131.03 172.19
  C 125.64 170.03 112.34 168.03 107.78 173.03
  Q 105.58 175.44 102.05 181.28
  A 0.35 0.35 0.0 0 0 102.41 181.80"
/>
<path stroke="#80b1d6" vector-effect="non-scaling-stroke" d="
  M 130.20 233.85
  C 135.84 231.68 138.64 226.54 138.82 220.58
  Q 139.34 203.51 125.63 193.38
  C 118.47 188.08 106.04 185.60 98.74 191.29
  Q 86.78 200.63 81.91 215.55
  Q 79.92 221.68 82.56 228.79
  A 5.08 5.03 2.5 0 0 85.18 231.62
  L 86.79 232.35
  A 1.38 1.37 -77.6 0 0 88.74 231.10
  L 88.74 221.34
  A 2.83 2.82 2.8 0 1 91.84 218.53
  L 92.16 218.56
  A 2.91 2.90 -82.4 0 1 94.68 221.86
  Q 93.89 227.26 95.65 232.62
  A 7.79 7.78 -1.5 0 0 101.00 237.69
  L 101.79 238.05
  A 2.00 2.00 0.0 0 0 104.62 236.23
  L 104.62 224.40
  A 2.93 2.93 0.0 0 1 107.55 221.47
  L 107.88 221.47
  A 2.52 2.51 -86.2 0 1 110.37 224.32
  C 109.91 227.70 109.66 235.51 112.41 237.95
  C 116.90 241.95 121.58 239.34 123.04 234.26
  Q 124.29 229.94 126.27 220.60
  A 2.15 2.15 0.0 0 1 127.95 218.93
  C 130.87 218.33 131.51 220.54 131.34 223.05
  C 131.08 226.79 130.04 231.20 129.66 233.41
  A 0.40 0.40 0.0 0 0 130.20 233.85"
/>
<path stroke="#1985cf" vector-effect="non-scaling-stroke" d="
  M 163.77 192.38
  A 0.40 0.40 0.0 0 0 163.18 191.92
  C 156.39 196.06 150.19 203.01 145.21 208.97
  A 1.63 1.60 -31.7 0 0 144.87 210.37
  Q 147.43 221.21 143.61 230.33
  C 141.55 235.23 138.00 237.38 133.28 240.02
  A 0.49 0.49 0.0 0 0 133.19 240.81
  Q 139.09 246.17 145.69 248.58
  A 0.45 0.45 0.0 0 0 146.30 248.22
  C 147.15 242.19 148.85 235.42 150.92 229.62
  Q 160.33 203.29 163.77 192.38"
/>
<path stroke="#1985cf" vector-effect="non-scaling-stroke" d="
  M 206.64 229.91
  L 173.42 219.10
  A 0.98 0.98 0.0 0 0 172.28 219.53
  Q 170.50 222.56 168.80 227.11
  C 166.49 233.32 171.59 236.20 176.51 238.86
  C 180.76 241.15 193.32 246.07 196.83 242.28
  Q 201.21 237.58 206.80 230.46
  A 0.35 0.34 -61.8 0 0 206.64 229.91"
/>
<path stroke="#1985cf" vector-effect="non-scaling-stroke" d="
  M 164.4791 220.6869
  A 1.08 1.08 0.0 0 0 163.9020 219.2728
  L 163.7545 219.2108
  A 1.08 1.08 0.0 0 0 162.3403 219.7879
  L 158.1009 229.8731
  A 1.08 1.08 0.0 0 0 158.6780 231.2872
  L 158.8255 231.3492
  A 1.08 1.08 0.0 0 0 160.2397 230.7721
  L 164.4791 220.6869"
/>
<path stroke="#80b1d6" vector-effect="non-scaling-stroke" d="
  M 206.17 316.29
  Q 210.42 309.06 216.63 303.17
  A 0.53 0.53 0.0 0 0 216.62 302.39
  Q 214.67 300.68 206.73 294.57
  C 202.54 291.34 193.89 286.25 188.53 282.13
  C 182.18 277.25 177.37 273.55 176.59 265.73
  A 0.66 0.65 6.2 0 0 176.13 265.17
  Q 170.95 263.66 165.18 260.55
  C 159.42 257.45 156.57 252.87 157.08 246.53
  Q 157.54 240.80 158.36 238.01
  A 0.46 0.45 21.2 0 0 158.11 237.46
  L 156.10 236.54
  A 0.35 0.34 20.5 0 0 155.62 236.75
  C 150.42 254.38 150.93 270.23 163.61 284.62
  Q 171.70 293.80 181.19 300.04
  Q 194.03 308.49 205.88 316.36
  A 0.21 0.20 -58.1 0 0 206.17 316.29"
/>
<path stroke="#1985cf" vector-effect="non-scaling-stroke" d="
  M 204.65 242.53
  C 199.05 247.41 195.35 249.85 188.27 248.49
  C 180.34 246.96 170.63 243.93 165.65 238.38
  A 0.32 0.32 0.0 0 0 165.10 238.51
  Q 164.27 241.31 163.40 246.01
  Q 162.43 251.30 166.72 254.07
  Q 172.48 257.80 180.33 259.81
  C 189.59 262.19 197.47 263.08 201.62 253.17
  Q 203.58 248.49 205.06 242.78
  A 0.25 0.25 0.0 0 0 204.65 242.53"
/>
<path stroke="#1985cf" vector-effect="non-scaling-stroke" d="
  M 238.8932 248.1457
  A 0.38 0.38 0.0 0 0 238.6204 247.6826
  L 212.3643 240.8923
  A 0.38 0.38 0.0 0 0 211.9012 241.1651
  L 208.9868 252.4343
  A 0.38 0.38 0.0 0 0 209.2596 252.8974
  L 235.5157 259.6877
  A 0.38 0.38 0.0 0 0 235.9788 259.4149
  L 238.8932 248.1457"
/>
<path stroke="#1985cf" vector-effect="non-scaling-stroke" d="
  M 267.36 249.50
  L 248.87 245.86
  A 1.83 1.82 -71.3 0 0 246.88 246.85
  Q 243.50 253.78 241.76 262.72
  A 0.72 0.71 -77.1 0 0 242.28 263.55
  Q 250.46 265.77 259.01 266.46
  Q 261.77 266.68 262.90 264.20
  Q 266.28 256.77 268.23 251.00
  A 1.16 1.15 15.0 0 0 267.36 249.50"
/>
<path stroke="#1985cf" vector-effect="non-scaling-stroke" d="
  M 288.38 254.39
  L 274.79 254.39
  A 0.67 0.67 0.0 0 0 274.18 254.78
  L 269.85 264.20
  A 0.89 0.88 17.0 0 0 270.51 265.44
  C 273.80 265.99 280.65 266.80 282.86 264.04
  Q 285.93 260.21 288.71 254.94
  A 0.38 0.37 -76.1 0 0 288.38 254.39"
/>
<path stroke="#80b1d6" vector-effect="non-scaling-stroke" d="
  M 257.28 285.84
  A 0.24 0.24 0.0 0 0 257.46 285.44
  C 250.67 277.97 242.68 272.31 234.37 266.49
  A 4.90 4.85 -19.7 0 0 232.89 265.80
  L 206.44 258.79
  A 0.53 0.52 22.8 0 0 205.87 259.02
  C 200.66 267.72 190.17 269.15 181.19 266.37
  A 0.53 0.52 0.7 0 0 180.53 267.01
  C 182.30 273.42 188.76 277.89 194.92 281.84
  Q 208.43 290.49 219.64 299.63
  A 0.62 0.61 44.6 0 0 220.43 299.63
  Q 236.93 285.89 257.28 285.84"
/>
<path stroke="#80b1d6" vector-effect="non-scaling-stroke" d="
  M 253.21 272.91
  Q 258.59 277.11 263.21 282.95
  A 0.60 0.59 -43.6 0 0 264.12 282.97
  L 273.22 272.76
  A 0.55 0.55 0.0 0 0 272.85 271.84
  L 266.88 271.36
  A 1.35 1.34 15.9 0 0 265.58 272.08
  Q 265.09 273.04 263.74 273.52
  A 3.59 3.51 -50.6 0 1 262.19 273.69
  L 253.35 272.59
  A 0.18 0.18 0.0 0 0 253.21 272.91"
/>
<path stroke="#80b1d6" vector-effect="non-scaling-stroke" d="
  M 200.83 321.85
  Q 191.87 315.39 191.03 314.86
  C 177.20 305.99 167.98 300.25 158.94 290.38
  A 0.52 0.52 0.0 0 0 158.15 290.41
  L 150.93 299.25
  A 1.19 1.17 71.1 0 0 150.69 299.75
  Q 150.41 301.29 150.88 303.89
  Q 154.90 326.29 174.66 336.31
  Q 177.96 337.98 181.13 339.34
  A 1.52 1.50 -50.3 0 0 182.58 339.20
  Q 192.85 332.16 200.93 322.73
  A 0.60 0.60 0.0 0 0 200.83 321.85"
/>
<path stroke="#80b1d6" vector-effect="non-scaling-stroke" d="
  M 224.34 305.86
  Q 235.55 316.00 232.23 331.20
  A 0.54 0.54 0.0 0 0 232.61 331.84
  Q 249.90 336.68 266.64 330.85
  A 3.74 3.74 0.0 0 0 268.98 328.43
  Q 275.03 309.27 263.08 293.90
  A 3.57 3.53 71.7 0 0 260.39 292.53
  Q 239.67 291.85 224.34 305.30
  A 0.37 0.37 0.0 0 0 224.34 305.86"
/>
<path stroke="#80b1d6" vector-effect="non-scaling-stroke" d="
  M 143.75 305.21
  Q 141.29 307.34 135.27 309.74
  A 1.07 1.06 -4.9 0 0 134.62 310.50
  C 131.71 323.81 134.45 339.13 144.59 348.72
  C 147.73 351.70 150.11 353.46 154.25 352.23
  Q 165.21 348.96 173.72 344.99
  A 0.46 0.45 -42.4 0 0 173.76 344.19
  C 160.69 336.49 150.76 327.09 146.13 312.13
  Q 144.57 307.08 144.32 305.42
  A 0.35 0.35 0.0 0 0 143.75 305.21"
/>
<path stroke="#80b1d6" vector-effect="non-scaling-stroke" d="
  M 220.75 308.53
  Q 215.14 314.18 211.35 320.98
  A 0.71 0.70 34.5 0 0 211.52 321.88
  Q 218.82 327.89 228.50 330.70
  A 0.28 0.28 0.0 0 0 228.85 330.45
  C 229.44 322.20 227.75 314.44 221.67 308.52
  A 0.66 0.65 -45.3 0 0 220.75 308.53"
/>
<path stroke="#1985cf" vector-effect="non-scaling-stroke" d="
  M 141.93 355.57
  C 129.26 344.52 124.71 327.36 127.90 311.08
  A 0.43 0.43 0.0 0 0 127.34 310.59
  Q 121.48 312.58 113.23 314.48
  Q 110.30 315.16 108.79 318.04
  Q 96.09 342.26 89.27 369.52
  C 87.44 376.85 86.31 386.39 91.00 392.91
  Q 94.34 397.56 99.07 394.68
  C 106.86 389.94 112.31 381.63 117.53 373.48
  A 0.68 0.68 0.0 0 0 117.41 372.62
  L 107.98 364.21
  A 3.27 3.25 35.9 0 1 107.32 360.15
  L 107.49 359.86
  A 2.17 2.17 0.0 0 1 110.86 359.36
  L 119.91 367.95
  A 1.16 1.16 0.0 0 0 121.57 367.88
  L 123.55 365.66
  A 1.34 1.32 -48.3 0 0 123.45 363.78
  L 116.05 357.18
  A 2.43 2.43 0.0 0 1 115.97 353.63
  L 116.26 353.34
  A 2.45 2.45 0.0 0 1 119.60 353.27
  L 128.22 360.95
  A 0.91 0.90 -38.6 0 0 129.27 361.06
  Q 135.16 357.66 141.80 356.10
  A 0.31 0.30 59.2 0 0 141.93 355.57"
/>
<path stroke="#1985cf" vector-effect="non-scaling-stroke" d="
  M 87.94 396.41
  Q 83.28 390.85 83.25 383.51
  Q 83.23 375.20 84.35 370.36
  Q 91.02 341.68 104.33 317.09
  A 0.92 0.92 0.0 0 0 103.32 315.75
  L 98.09 316.93
  A 5.77 5.75 7.6 0 0 94.25 319.86
  Q 83.75 339.69 78.27 360.75
  C 75.49 371.46 72.13 386.93 82.44 394.77
  Q 84.94 396.67 87.67 396.92
  A 0.31 0.31 0.0 0 0 87.94 396.41"
/>
<path stroke="#80b1d6" vector-effect="non-scaling-stroke" d="
  M 221.86 348.77
  Q 220.26 347.38 221.46 344.98
  Q 222.46 342.96 225.92 337.51
  A 0.48 0.48 0.0 0 0 225.66 336.79
  Q 216.71 334.08 208.83 329.04
  A 0.23 0.22 -63.0 0 0 208.50 329.15
  L 205.24 338.09
  A 0.44 0.43 31.7 0 0 205.36 338.56
  Q 212.62 345.00 221.69 349.03
  A 0.16 0.16 0.0 0 0 221.86 348.77"
/>
<path stroke="#80b1d6" vector-effect="non-scaling-stroke" d="
  M 223.51 349.35
  C 233.62 352.55 243.76 353.58 254.17 351.42
  Q 256.88 350.86 257.63 349.84
  Q 261.45 344.62 264.47 338.95
  A 0.31 0.31 0.0 0 0 264.09 338.51
  C 258.75 340.39 253.40 341.32 247.22 340.86
  Q 238.02 340.19 231.00 338.37
  A 0.99 0.99 0.0 0 0 229.92 338.79
  L 223.35 348.91
  A 0.30 0.29 -65.4 0 0 223.51 349.35"
/>
<path stroke="#1985cf" vector-effect="non-scaling-stroke" d="
  M 254.88 359.00
  C 237.17 362.02 217.83 357.76 203.50 346.29
  A 0.76 0.76 0.0 0 0 202.30 346.65
  Q 198.56 358.26 193.69 367.77
  A 2.17 2.15 38.3 0 0 193.98 370.15
  Q 203.53 381.26 215.51 390.96
  C 226.71 400.04 243.75 414.42 258.97 410.86
  Q 264.60 409.54 264.08 403.52
  C 263.42 395.98 259.84 389.52 255.15 383.57
  A 1.45 1.44 -25.3 0 0 253.70 383.06
  L 235.82 387.08
  A 1.66 1.66 0.0 0 1 233.81 385.30
  L 233.89 384.55
  A 3.52 3.52 0.0 0 1 236.62 381.46
  L 250.55 378.33
  A 0.87 0.87 0.0 0 0 251.08 377.00
  L 249.88 375.23
  A 2.77 2.75 -21.2 0 0 247.18 374.05
  L 231.07 376.54
  A 2.56 2.56 0.0 0 1 228.16 374.45
  L 228.08 373.98
  A 2.27 2.26 -9.3 0 1 229.97 371.35
  L 249.70 368.30
  A 0.30 0.29 9.8 0 0 249.92 368.15
  L 255.05 359.26
  A 0.17 0.17 0.0 0 0 254.88 359.00"
/>
<path stroke="#1985cf" vector-effect="non-scaling-stroke" d="
  M 261.11 415.67
  Q 249.78 417.88 238.70 412.86
  Q 232.41 410.01 228.46 407.29
  Q 207.05 392.55 190.86 374.72
  A 1.02 1.02 0.0 0 0 189.22 374.89
  L 186.01 380.47
  A 2.41 2.41 0.0 0 0 186.22 383.19
  Q 189.28 386.96 196.36 393.22
  Q 212.65 407.62 227.69 416.87
  C 237.42 422.85 253.98 428.36 261.34 416.00
  A 0.22 0.22 0.0 0 0 261.11 415.67"
/>
<path stroke="#80b1d6" vector-effect="non-scaling-stroke" d="
  M 260.32 178.72
  C 255.52 177.41 244.76 174.97 242.83 181.31
  Q 237.07 200.27 232.53 214.28
  C 230.22 221.41 230.83 228.06 239.04 229.72
  Q 269.78 235.94 275.74 237.02
  C 282.49 238.24 289.37 238.86 292.32 231.53
  Q 299.04 214.78 302.58 196.37
  Q 303.46 191.78 302.49 189.77
  Q 300.87 186.41 297.36 185.84
  C 283.56 183.60 272.86 182.14 260.32 178.72"
/>
<path stroke="#80b1d6" vector-effect="non-scaling-stroke" d="
  M 295.56 192.52
  Q 281.63 190.57 265.41 187.35
  Q 260.67 186.41 254.13 184.65
  Q 252.23 184.14 249.68 184.55
  A 0.56 0.56 0.0 0 0 249.24 184.94
  L 238.48 220.23
  A 1.69 1.69 0.0 0 0 239.76 222.38
  Q 269.48 228.45 274.11 229.36
  Q 279.78 230.47 284.18 230.51
  A 1.74 1.74 0.0 0 0 285.81 229.41
  Q 292.49 212.33 296.10 193.28
  A 0.64 0.64 0.0 0 0 295.56 192.52"
/>
<path stroke="#80b1d6" vector-effect="non-scaling-stroke" d="
  M 255.83 204.92
  L 264.54 199.03
  A 2.22 2.21 -36.4 0 0 265.03 195.80
  L 264.86 195.58
  A 3.37 3.37 0.0 0 0 260.36 194.93
  L 250.36 201.68
  A 2.75 2.74 -24.9 0 0 249.25 204.69
  Q 250.49 209.16 253.66 214.16
  Q 254.60 215.65 255.28 215.98
  C 257.30 216.95 259.18 214.52 259.06 212.67
  A 1.17 1.02 -64.5 0 0 258.95 212.28
  L 255.62 205.73
  A 0.64 0.63 59.8 0 1 255.83 204.92"
/>
<path stroke="#80b1d6" vector-effect="non-scaling-stroke" d="
  M 278.5043 200.2834
  A 2.80 2.80 0.0 0 0 277.7080 196.4045
  L 277.6078 196.3385
  A 2.80 2.80 0.0 0 0 273.7289 197.1347
  L 260.9357 216.5366
  A 2.80 2.80 0.0 0 0 261.7320 220.4155
  L 261.8322 220.4815
  A 2.80 2.80 0.0 0 0 265.7111 219.6853
  L 278.5043 200.2834"
/>
<path stroke="#80b1d6" vector-effect="non-scaling-stroke" d="
  M 274.62 218.27
  A 2.39 2.23 75.3 0 0 277.72 220.23
  Q 283.33 217.87 287.76 212.54
  A 1.33 1.32 62.0 0 0 288.06 211.55
  Q 287.47 205.71 284.66 201.29
  A 2.57 2.57 0.0 0 0 281.07 200.53
  L 280.98 200.60
  A 3.17 3.17 0.0 0 0 279.86 204.33
  L 281.92 209.69
  A 1.56 1.56 0.0 0 1 281.43 211.47
  Q 276.59 215.28 275.80 216.02
  Q 274.48 217.24 274.62 218.27"
/>
<path stroke="#1985cf" vector-effect="non-scaling-stroke" d="
  M 178.6682 233.4186
  A 5.16 3.67 -161.1 0 0 182.3612 238.5621
  A 5.16 3.67 -161.1 0 0 188.4318 236.7614
  A 5.16 3.67 -161.1 0 0 184.7388 231.6179
  A 5.16 3.67 -161.1 0 0 178.6682 233.4186"
/>
</g>
<g fill="#0163af">
<path d="
  M 251.73 430.00
  L 243.24 430.00
  Q 232.86 428.04 223.72 422.26
  Q 204.17 409.89 187.49 394.25
  Q 182.39 389.48 179.95 385.54
  Q 179.65 385.05 178.89 382.47
  A 1.94 1.88 44.1 0 1 178.86 381.51
  Q 179.46 378.81 180.92 376.16
  Q 181.94 374.30 187.54 364.37
  Q 190.32 359.43 193.09 352.09
  Q 197.60 340.16 199.46 335.76
  A 0.23 0.23 0.0 0 0 199.15 335.47
  Q 197.29 336.33 196.79 336.81
  Q 183.01 350.04 164.75 356.26
  Q 155.36 359.47 141.71 363.21
  Q 132.18 365.83 126.12 373.73
  Q 124.99 375.21 114.27 389.70
  Q 108.91 396.95 99.37 401.93
  A 4.59 4.55 -64.9 0 1 98.28 402.33
  Q 90.63 404.10 83.05 402.57
  A 5.21 5.02 -22.6 0 1 81.36 401.91
  Q 72.29 396.43 69.93 387.31
  Q 67.58 378.21 69.69 367.65
  Q 75.11 340.60 88.52 316.00
  Q 91.51 310.53 96.41 309.70
  Q 101.26 308.88 111.22 307.41
  Q 114.20 306.97 129.86 302.36
  C 130.85 302.07 132.48 302.84 133.76 302.64
  Q 134.59 302.51 136.66 301.39
  Q 142.79 298.07 145.81 294.57
  Q 150.57 289.06 153.39 285.14
  A 2.10 2.08 48.5 0 0 153.52 282.91
  C 148.81 274.46 145.62 266.05 145.94 256.35
  A 0.98 0.98 0.0 0 0 145.26 255.38
  Q 134.74 251.97 127.07 243.55
  A 0.73 0.72 55.8 0 0 126.21 243.38
  C 120.44 246.22 117.29 248.28 111.79 245.57
  Q 111.66 245.50 108.09 243.71
  A 1.71 1.69 48.6 0 0 106.80 243.62
  C 102.08 245.20 99.22 245.39 94.99 242.31
  C 93.46 241.20 92.88 239.64 91.72 238.38
  A 0.84 0.84 0.0 0 0 90.71 238.20
  L 89.73 238.71
  A 1.84 1.82 -57.1 0 1 88.82 238.91
  C 72.85 238.36 72.93 218.05 77.47 207.83
  Q 81.04 199.78 88.77 190.27
  A 22.32 21.94 -12.2 0 0 91.21 186.55
  Q 94.04 181.07 95.39 178.63
  Q 109.62 153.17 134.90 138.83
  A 4.67 4.63 -3.7 0 0 136.90 136.57
  Q 140.06 129.04 147.96 110.95
  Q 151.78 102.21 158.37 98.17
  Q 172.61 89.44 188.72 93.01
  A 1.10 1.09 -89.5 0 0 190.02 91.72
  L 189.09 87.08
  A 1.32 0.61 -69.9 0 1 189.07 86.84
  Q 189.31 72.77 191.88 64.38
  C 196.52 49.25 204.52 37.32 215.42 25.93
  Q 219.36 21.80 227.68 16.01
  Q 233.37 12.04 241.63 8.67
  Q 256.15 2.74 268.61 1.43
  Q 279.63 0.28 292.22 1.63
  C 317.39 4.32 341.55 16.62 356.77 36.56
  Q 370.75 54.87 373.40 79.59
  Q 374.56 90.43 373.21 98.46
  Q 369.43 120.99 354.02 137.76
  Q 343.96 148.71 332.01 154.46
  Q 328.85 155.98 328.19 156.43
  A 0.31 0.31 0.0 0 0 328.39 156.99
  Q 330.59 156.76 332.27 157.56
  A 3.75 3.51 -26.3 0 0 333.33 157.88
  Q 346.24 159.68 347.63 159.86
  Q 353.26 160.60 356.33 159.30
  A 6.54 6.08 -70.3 0 0 357.20 158.85
  C 359.73 157.30 362.80 155.36 365.45 152.91
  C 371.65 147.20 377.69 141.27 382.12 134.37
  C 382.89 133.17 383.39 130.79 382.82 129.11
  Q 381.27 124.58 383.05 116.28
  C 384.40 110.03 386.82 106.52 392.02 103.91
  Q 395.54 102.15 396.13 101.36
  Q 397.43 99.64 399.28 96.78
  Q 405.34 87.42 416.75 89.12
  Q 423.56 90.13 428.46 96.15
  A 1.50 1.47 -13.1 0 0 429.31 96.67
  C 435.65 98.01 441.00 99.98 444.66 105.62
  Q 445.78 107.36 446.29 108.01
  A 2.47 2.44 86.3 0 0 447.02 108.66
  Q 452.20 111.74 453.13 112.63
  Q 456.42 115.77 458.15 121.43
  C 460.14 127.95 456.09 135.04 451.93 140.06
  A 4.39 4.20 77.4 0 0 451.23 141.22
  Q 446.23 153.57 433.30 161.04
  A 7.02 7.00 89.5 0 0 430.64 163.75
  Q 423.48 176.67 414.59 186.73
  Q 403.73 199.01 394.08 205.90
  Q 381.04 215.23 363.43 218.89
  C 354.99 220.64 344.44 220.38 336.27 219.71
  Q 326.74 218.92 317.15 215.75
  A 2.10 2.10 0.0 0 0 314.79 216.52
  L 310.50 222.49
  A 5.24 4.74 -18.2 0 0 310.01 223.35
  L 299.37 246.49
  A 2.36 2.15 -32.0 0 0 299.18 247.17
  L 298.73 250.79
  A 3.06 2.95 62.3 0 1 298.46 251.72
  Q 292.80 263.50 288.21 268.68
  Q 286.56 270.55 281.84 272.33
  A 1.53 1.47 5.6 0 0 281.14 272.88
  Q 275.10 281.80 268.15 288.16
  A 0.87 0.86 50.2 0 0 268.05 289.32
  Q 283.92 309.73 274.39 334.11
  Q 272.13 339.88 264.88 351.97
  A 4.00 3.95 -22.1 0 0 264.48 352.90
  Q 261.83 361.96 256.26 370.95
  A 1.72 1.72 0.0 0 0 256.32 372.85
  C 266.02 386.79 277.14 402.11 266.94 419.47
  Q 261.92 428.02 251.73 430.00
  Z
  M 197.87 75.19
  C 201.62 65.03 208.16 56.96 220.06 58.76
  C 226.92 59.80 232.95 65.13 235.44 71.29
  Q 241.30 85.83 234.84 100.24
  C 232.36 105.76 226.97 111.53 221.27 113.24
  C 211.40 116.19 203.81 110.98 199.26 102.90
  A 0.19 0.18 -67.3 0 0 198.92 103.04
  Q 201.37 111.88 205.57 118.96
  A 4.66 4.63 -6.3 0 0 208.17 121.03
  Q 215.30 123.30 221.24 128.27
  C 224.69 131.15 226.93 134.10 230.81 136.72
  Q 238.26 141.77 249.50 146.01
  C 265.19 151.94 284.34 156.39 300.28 156.06
  Q 312.05 155.81 323.47 150.68
  A 0.07 0.07 0.0 0 0 323.44 150.55
  C 320.42 150.58 317.73 151.11 314.52 150.97
  C 292.79 149.97 271.01 139.96 259.06 121.69
  C 245.45 100.88 246.82 74.38 262.54 55.36
  C 284.63 28.63 327.97 26.97 354.43 47.72
  A 0.24 0.24 0.0 0 0 354.79 47.42
  C 341.66 24.35 314.99 11.19 289.00 8.93
  C 261.64 6.55 234.00 15.72 215.93 36.91
  Q 201.39 53.95 197.10 75.07
  A 0.11 0.10 14.2 0 0 197.17 75.18
  L 197.65 75.30
  A 0.18 0.18 0.0 0 0 197.87 75.19
  Z
  M 346.78 134.26
  C 361.64 121.63 368.08 100.23 365.34 81.40
  C 362.41 61.15 348.59 48.36 329.36 43.21
  C 304.52 36.56 272.43 45.06 261.42 70.89
  Q 256.41 82.66 257.45 96.43
  C 258.96 116.45 272.51 131.73 290.96 139.08
  C 307.44 145.64 332.36 146.52 346.78 134.26
  Z
  M 217.5665 65.5405
  A 20.83 14.02 -86.9 0 0 202.4405 85.5818
  A 20.83 14.02 -86.9 0 0 215.3135 107.1395
  A 20.83 14.02 -86.9 0 0 230.4395 87.0982
  A 20.83 14.02 -86.9 0 0 217.5665 65.5405
  Z
  M 405.78 101.19
  Q 414.49 103.42 417.94 105.96
  A 1.15 1.15 0.0 0 0 419.47 105.80
  L 422.57 102.32
  A 1.98 1.98 0.0 0 0 422.28 99.43
  Q 412.68 92.25 405.64 100.77
  A 0.26 0.26 0.0 0 0 405.78 101.19
  Z
  M 197.65 119.18
  Q 193.59 111.08 191.18 101.82
  A 1.88 1.87 1.5 0 0 189.92 100.50
  L 185.41 99.13
  A 0.35 0.35 0.0 0 0 185.02 99.67
  C 190.03 106.41 189.89 112.44 188.64 120.52
  A 0.44 0.43 -0.1 0 0 189.14 121.01
  L 197.36 119.74
  A 0.39 0.39 0.0 0 0 197.65 119.18
  Z
  M 146.11 133.90
  Q 163.32 127.54 181.81 124.79
  A 1.27 1.26 6.6 0 0 182.79 124.02
  Q 186.22 115.59 183.82 106.74
  C 182.05 100.24 174.84 99.37 169.28 101.09
  Q 158.91 104.28 154.62 113.89
  Q 150.44 123.23 145.73 133.50
  A 0.30 0.30 0.0 0 0 146.11 133.90
  Z
  M 422.22 129.27
  Q 424.89 129.85 425.86 129.34
  C 430.44 126.95 434.10 121.67 436.99 117.25
  C 439.66 113.17 440.70 108.60 435.56 106.12
  Q 432.67 104.74 430.17 104.74
  A 1.40 1.39 -71.9 0 0 429.04 105.32
  L 424.40 111.78
  A 0.93 0.92 -35.7 0 0 424.27 112.56
  C 424.64 113.87 425.37 115.60 425.47 116.77
  Q 425.83 120.94 424.00 124.29
  Q 421.69 128.52 421.69 128.53
  A 0.68 0.68 0.0 0 0 422.22 129.27
  Z
  M 421.13 135.80
  Q 420.59 140.06 418.33 143.02
  C 417.21 144.48 415.27 144.87 414.27 143.00
  A 1.23 1.22 40.7 0 1 414.19 142.01
  Q 415.94 137.15 415.99 132.71
  A 0.64 0.64 0.0 0 0 415.24 132.07
  C 409.44 133.04 401.66 131.08 399.19 125.13
  C 398.03 122.36 400.62 120.38 402.90 121.98
  C 408.24 125.74 414.57 127.92 417.79 120.49
  C 420.88 113.32 409.72 108.80 404.61 108.15
  C 399.68 107.52 392.38 109.25 390.87 114.90
  C 388.94 122.09 389.66 131.30 394.40 137.61
  C 400.22 145.36 414.54 159.90 425.54 157.17
  C 430.51 155.93 437.20 150.71 440.49 146.16
  A 0.38 0.38 0.0 0 0 440.16 145.56
  Q 429.81 146.26 426.51 136.70
  A 0.92 0.92 0.0 0 0 425.51 136.09
  Q 423.82 136.34 421.99 135.35
  A 0.59 0.59 0.0 0 0 421.13 135.80
  Z
  M 449.51 118.74
  A 3.31 3.30 -47.3 0 0 443.66 118.98
  Q 439.97 126.74 432.28 134.18
  A 0.78 0.78 0.0 0 0 432.18 135.19
  C 438.90 144.87 447.99 135.72 450.79 128.74
  A 10.14 10.13 -49.1 0 0 450.16 119.87
  L 449.51 118.74
  Z
  M 194.47 127.43
  C 221.52 138.28 218.76 169.29 204.73 188.98
  C 195.93 201.32 184.40 209.28 168.45 205.94
  A 0.86 0.86 0.0 0 0 167.43 206.61
  L 166.39 211.92
  A 1.74 1.74 0.0 0 0 169.03 213.72
  C 171.72 211.99 173.69 211.89 176.85 212.89
  Q 179.25 213.65 183.49 215.06
  Q 185.51 215.74 188.20 214.71
  Q 200.36 210.06 209.18 200.96
  C 221.68 188.06 230.04 170.79 227.68 153.00
  C 225.96 140.01 213.67 126.92 200.04 127.08
  Q 199.01 127.09 194.56 126.99
  A 0.23 0.23 0.0 0 0 194.47 127.43
  Z
  M 115.19 163.92
  C 132.62 161.40 149.33 171.81 153.59 189.24
  A 0.45 0.45 0.0 0 0 154.29 189.50
  Q 163.16 182.99 173.50 180.54
  Q 184.66 177.89 193.72 175.86
  A 3.58 3.57 77.3 0 1 197.98 178.56
  L 198.04 178.81
  A 3.33 3.33 0.0 0 1 195.56 182.91
  L 174.66 187.60
  A 0.63 0.59 4.4 0 0 174.23 187.95
  L 169.28 198.71
  A 0.40 0.40 0.0 0 0 169.56 199.26
  Q 182.78 202.17 192.51 192.98
  C 203.55 182.56 211.32 165.51 207.01 150.10
  Q 205.28 143.92 200.56 139.47
  Q 191.51 130.95 178.33 132.81
  Q 160.74 135.30 144.29 142.49
  Q 128.82 149.26 114.92 163.40
  A 0.31 0.31 0.0 0 0 115.19 163.92
  Z
  M 421.26 164.75
  C 407.47 162.89 394.54 151.15 387.35 139.81
  A 0.39 0.38 -42.0 0 0 386.72 139.78
  L 380.51 147.80
  A 2.14 2.13 53.0 0 0 380.22 149.89
  C 385.69 163.54 397.54 173.80 412.30 175.80
  A 2.85 2.84 -68.2 0 0 414.99 174.64
  L 421.57 165.48
  A 0.47 0.46 -68.3 0 0 421.26 164.75
  Z
  M 304.46 163.29
  C 300.90 163.16 294.79 163.35 289.86 162.83
  Q 260.75 159.75 234.57 147.54
  A 0.57 0.57 0.0 0 0 233.77 148.18
  L 234.83 152.89
  A 2.39 2.36 -83.4 0 0 236.09 154.50
  Q 252.22 162.57 269.81 166.15
  C 280.57 168.33 295.60 170.31 304.67 164.01
  A 0.40 0.39 28.8 0 0 304.46 163.29
  Z
  M 408.58 181.78
  C 393.97 180.02 380.93 167.39 375.01 154.66
  A 0.43 0.43 0.0 0 0 374.31 154.54
  Q 366.38 162.81 356.89 168.25
  A 1.53 1.53 0.0 0 0 356.12 169.58
  C 356.11 172.64 356.74 178.31 355.45 181.83
  A 1.06 1.04 -88.1 0 1 354.76 182.49
  C 348.73 184.36 350.82 171.07 351.32 168.34
  A 0.76 0.76 0.0 0 0 350.64 167.44
  Q 337.90 166.27 324.96 163.31
  A 0.31 0.31 0.0 0 0 324.60 163.73
  C 330.44 177.82 326.73 195.18 320.53 208.63
  A 0.55 0.55 0.0 0 0 320.86 209.38
  Q 323.84 210.39 328.76 211.28
  C 347.06 214.59 367.18 213.34 383.17 204.11
  Q 397.60 195.78 408.80 182.34
  A 0.34 0.34 0.0 0 0 408.58 181.78
  Z
  M 314.56 204.06
  Q 321.59 187.16 319.90 171.04
  Q 319.41 166.38 316.68 160.33
  A 0.12 0.11 -39.0 0 0 316.48 160.31
  L 311.74 166.91
  A 0.60 0.59 -39.6 0 0 311.68 167.50
  C 315.84 176.50 315.47 186.76 315.06 197.35
  C 314.96 200.01 314.07 202.15 314.13 203.98
  A 0.22 0.22 0.0 0 0 314.56 204.06
  Z
  M 234.77 162.08
  C 233.25 185.31 216.73 208.77 195.32 218.61
  A 0.38 0.38 0.0 0 0 195.36 219.32
  Q 199.01 220.43 210.92 224.32
  C 216.08 226.00 215.40 229.54 213.98 233.69
  A 0.54 0.53 -72.2 0 0 214.33 234.38
  Q 227.08 238.27 241.10 240.99
  A 1.37 1.35 -60.5 0 0 242.28 240.65
  C 244.26 238.81 246.07 238.35 248.95 239.01
  Q 259.68 241.46 270.64 243.23
  C 273.03 243.61 273.84 244.72 274.53 246.74
  A 1.30 1.28 -9.5 0 0 275.75 247.60
  L 287.47 247.60
  A 3.69 3.67 16.0 0 0 290.59 245.88
  Q 299.51 231.70 304.54 215.27
  C 306.95 207.41 308.00 198.45 308.32 190.26
  Q 308.69 180.99 306.47 172.09
  A 0.53 0.52 -18.9 0 0 305.75 171.74
  C 297.49 175.35 287.12 175.48 277.86 174.32
  Q 256.06 171.60 238.38 163.27
  Q 236.00 162.15 235.22 161.80
  A 0.33 0.32 -76.2 0 0 234.77 162.08
  Z
  M 102.41 181.80
  C 118.80 178.86 133.78 186.58 141.49 200.90
  A 0.67 0.66 51.8 0 0 142.57 201.03
  L 147.38 195.63
  A 2.07 2.05 62.5 0 0 147.88 194.02
  Q 145.95 178.15 131.03 172.19
  C 125.64 170.03 112.34 168.03 107.78 173.03
  Q 105.58 175.44 102.05 181.28
  A 0.35 0.35 0.0 0 0 102.41 181.80
  Z
  M 130.20 233.85
  C 135.84 231.68 138.64 226.54 138.82 220.58
  Q 139.34 203.51 125.63 193.38
  C 118.47 188.08 106.04 185.60 98.74 191.29
  Q 86.78 200.63 81.91 215.55
  Q 79.92 221.68 82.56 228.79
  A 5.08 5.03 2.5 0 0 85.18 231.62
  L 86.79 232.35
  A 1.38 1.37 -77.6 0 0 88.74 231.10
  L 88.74 221.34
  A 2.83 2.82 2.8 0 1 91.84 218.53
  L 92.16 218.56
  A 2.91 2.90 -82.4 0 1 94.68 221.86
  Q 93.89 227.26 95.65 232.62
  A 7.79 7.78 -1.5 0 0 101.00 237.69
  L 101.79 238.05
  A 2.00 2.00 0.0 0 0 104.62 236.23
  L 104.62 224.40
  A 2.93 2.93 0.0 0 1 107.55 221.47
  L 107.88 221.47
  A 2.52 2.51 -86.2 0 1 110.37 224.32
  C 109.91 227.70 109.66 235.51 112.41 237.95
  C 116.90 241.95 121.58 239.34 123.04 234.26
  Q 124.29 229.94 126.27 220.60
  A 2.15 2.15 0.0 0 1 127.95 218.93
  C 130.87 218.33 131.51 220.54 131.34 223.05
  C 131.08 226.79 130.04 231.20 129.66 233.41
  A 0.40 0.40 0.0 0 0 130.20 233.85
  Z
  M 163.77 192.38
  A 0.40 0.40 0.0 0 0 163.18 191.92
  C 156.39 196.06 150.19 203.01 145.21 208.97
  A 1.63 1.60 -31.7 0 0 144.87 210.37
  Q 147.43 221.21 143.61 230.33
  C 141.55 235.23 138.00 237.38 133.28 240.02
  A 0.49 0.49 0.0 0 0 133.19 240.81
  Q 139.09 246.17 145.69 248.58
  A 0.45 0.45 0.0 0 0 146.30 248.22
  C 147.15 242.19 148.85 235.42 150.92 229.62
  Q 160.33 203.29 163.77 192.38
  Z
  M 206.64 229.91
  L 173.42 219.10
  A 0.98 0.98 0.0 0 0 172.28 219.53
  Q 170.50 222.56 168.80 227.11
  C 166.49 233.32 171.59 236.20 176.51 238.86
  C 180.76 241.15 193.32 246.07 196.83 242.28
  Q 201.21 237.58 206.80 230.46
  A 0.35 0.34 -61.8 0 0 206.64 229.91
  Z
  M 164.4791 220.6869
  A 1.08 1.08 0.0 0 0 163.9020 219.2728
  L 163.7545 219.2108
  A 1.08 1.08 0.0 0 0 162.3403 219.7879
  L 158.1009 229.8731
  A 1.08 1.08 0.0 0 0 158.6780 231.2872
  L 158.8255 231.3492
  A 1.08 1.08 0.0 0 0 160.2397 230.7721
  L 164.4791 220.6869
  Z
  M 206.17 316.29
  Q 210.42 309.06 216.63 303.17
  A 0.53 0.53 0.0 0 0 216.62 302.39
  Q 214.67 300.68 206.73 294.57
  C 202.54 291.34 193.89 286.25 188.53 282.13
  C 182.18 277.25 177.37 273.55 176.59 265.73
  A 0.66 0.65 6.2 0 0 176.13 265.17
  Q 170.95 263.66 165.18 260.55
  C 159.42 257.45 156.57 252.87 157.08 246.53
  Q 157.54 240.80 158.36 238.01
  A 0.46 0.45 21.2 0 0 158.11 237.46
  L 156.10 236.54
  A 0.35 0.34 20.5 0 0 155.62 236.75
  C 150.42 254.38 150.93 270.23 163.61 284.62
  Q 171.70 293.80 181.19 300.04
  Q 194.03 308.49 205.88 316.36
  A 0.21 0.20 -58.1 0 0 206.17 316.29
  Z
  M 204.65 242.53
  C 199.05 247.41 195.35 249.85 188.27 248.49
  C 180.34 246.96 170.63 243.93 165.65 238.38
  A 0.32 0.32 0.0 0 0 165.10 238.51
  Q 164.27 241.31 163.40 246.01
  Q 162.43 251.30 166.72 254.07
  Q 172.48 257.80 180.33 259.81
  C 189.59 262.19 197.47 263.08 201.62 253.17
  Q 203.58 248.49 205.06 242.78
  A 0.25 0.25 0.0 0 0 204.65 242.53
  Z
  M 238.8932 248.1457
  A 0.38 0.38 0.0 0 0 238.6204 247.6826
  L 212.3643 240.8923
  A 0.38 0.38 0.0 0 0 211.9012 241.1651
  L 208.9868 252.4343
  A 0.38 0.38 0.0 0 0 209.2596 252.8974
  L 235.5157 259.6877
  A 0.38 0.38 0.0 0 0 235.9788 259.4149
  L 238.8932 248.1457
  Z
  M 267.36 249.50
  L 248.87 245.86
  A 1.83 1.82 -71.3 0 0 246.88 246.85
  Q 243.50 253.78 241.76 262.72
  A 0.72 0.71 -77.1 0 0 242.28 263.55
  Q 250.46 265.77 259.01 266.46
  Q 261.77 266.68 262.90 264.20
  Q 266.28 256.77 268.23 251.00
  A 1.16 1.15 15.0 0 0 267.36 249.50
  Z
  M 288.38 254.39
  L 274.79 254.39
  A 0.67 0.67 0.0 0 0 274.18 254.78
  L 269.85 264.20
  A 0.89 0.88 17.0 0 0 270.51 265.44
  C 273.80 265.99 280.65 266.80 282.86 264.04
  Q 285.93 260.21 288.71 254.94
  A 0.38 0.37 -76.1 0 0 288.38 254.39
  Z
  M 257.28 285.84
  A 0.24 0.24 0.0 0 0 257.46 285.44
  C 250.67 277.97 242.68 272.31 234.37 266.49
  A 4.90 4.85 -19.7 0 0 232.89 265.80
  L 206.44 258.79
  A 0.53 0.52 22.8 0 0 205.87 259.02
  C 200.66 267.72 190.17 269.15 181.19 266.37
  A 0.53 0.52 0.7 0 0 180.53 267.01
  C 182.30 273.42 188.76 277.89 194.92 281.84
  Q 208.43 290.49 219.64 299.63
  A 0.62 0.61 44.6 0 0 220.43 299.63
  Q 236.93 285.89 257.28 285.84
  Z
  M 253.21 272.91
  Q 258.59 277.11 263.21 282.95
  A 0.60 0.59 -43.6 0 0 264.12 282.97
  L 273.22 272.76
  A 0.55 0.55 0.0 0 0 272.85 271.84
  L 266.88 271.36
  A 1.35 1.34 15.9 0 0 265.58 272.08
  Q 265.09 273.04 263.74 273.52
  A 3.59 3.51 -50.6 0 1 262.19 273.69
  L 253.35 272.59
  A 0.18 0.18 0.0 0 0 253.21 272.91
  Z
  M 200.83 321.85
  Q 191.87 315.39 191.03 314.86
  C 177.20 305.99 167.98 300.25 158.94 290.38
  A 0.52 0.52 0.0 0 0 158.15 290.41
  L 150.93 299.25
  A 1.19 1.17 71.1 0 0 150.69 299.75
  Q 150.41 301.29 150.88 303.89
  Q 154.90 326.29 174.66 336.31
  Q 177.96 337.98 181.13 339.34
  A 1.52 1.50 -50.3 0 0 182.58 339.20
  Q 192.85 332.16 200.93 322.73
  A 0.60 0.60 0.0 0 0 200.83 321.85
  Z
  M 224.34 305.86
  Q 235.55 316.00 232.23 331.20
  A 0.54 0.54 0.0 0 0 232.61 331.84
  Q 249.90 336.68 266.64 330.85
  A 3.74 3.74 0.0 0 0 268.98 328.43
  Q 275.03 309.27 263.08 293.90
  A 3.57 3.53 71.7 0 0 260.39 292.53
  Q 239.67 291.85 224.34 305.30
  A 0.37 0.37 0.0 0 0 224.34 305.86
  Z
  M 143.75 305.21
  Q 141.29 307.34 135.27 309.74
  A 1.07 1.06 -4.9 0 0 134.62 310.50
  C 131.71 323.81 134.45 339.13 144.59 348.72
  C 147.73 351.70 150.11 353.46 154.25 352.23
  Q 165.21 348.96 173.72 344.99
  A 0.46 0.45 -42.4 0 0 173.76 344.19
  C 160.69 336.49 150.76 327.09 146.13 312.13
  Q 144.57 307.08 144.32 305.42
  A 0.35 0.35 0.0 0 0 143.75 305.21
  Z
  M 220.75 308.53
  Q 215.14 314.18 211.35 320.98
  A 0.71 0.70 34.5 0 0 211.52 321.88
  Q 218.82 327.89 228.50 330.70
  A 0.28 0.28 0.0 0 0 228.85 330.45
  C 229.44 322.20 227.75 314.44 221.67 308.52
  A 0.66 0.65 -45.3 0 0 220.75 308.53
  Z
  M 141.93 355.57
  C 129.26 344.52 124.71 327.36 127.90 311.08
  A 0.43 0.43 0.0 0 0 127.34 310.59
  Q 121.48 312.58 113.23 314.48
  Q 110.30 315.16 108.79 318.04
  Q 96.09 342.26 89.27 369.52
  C 87.44 376.85 86.31 386.39 91.00 392.91
  Q 94.34 397.56 99.07 394.68
  C 106.86 389.94 112.31 381.63 117.53 373.48
  A 0.68 0.68 0.0 0 0 117.41 372.62
  L 107.98 364.21
  A 3.27 3.25 35.9 0 1 107.32 360.15
  L 107.49 359.86
  A 2.17 2.17 0.0 0 1 110.86 359.36
  L 119.91 367.95
  A 1.16 1.16 0.0 0 0 121.57 367.88
  L 123.55 365.66
  A 1.34 1.32 -48.3 0 0 123.45 363.78
  L 116.05 357.18
  A 2.43 2.43 0.0 0 1 115.97 353.63
  L 116.26 353.34
  A 2.45 2.45 0.0 0 1 119.60 353.27
  L 128.22 360.95
  A 0.91 0.90 -38.6 0 0 129.27 361.06
  Q 135.16 357.66 141.80 356.10
  A 0.31 0.30 59.2 0 0 141.93 355.57
  Z
  M 87.94 396.41
  Q 83.28 390.85 83.25 383.51
  Q 83.23 375.20 84.35 370.36
  Q 91.02 341.68 104.33 317.09
  A 0.92 0.92 0.0 0 0 103.32 315.75
  L 98.09 316.93
  A 5.77 5.75 7.6 0 0 94.25 319.86
  Q 83.75 339.69 78.27 360.75
  C 75.49 371.46 72.13 386.93 82.44 394.77
  Q 84.94 396.67 87.67 396.92
  A 0.31 0.31 0.0 0 0 87.94 396.41
  Z
  M 221.86 348.77
  Q 220.26 347.38 221.46 344.98
  Q 222.46 342.96 225.92 337.51
  A 0.48 0.48 0.0 0 0 225.66 336.79
  Q 216.71 334.08 208.83 329.04
  A 0.23 0.22 -63.0 0 0 208.50 329.15
  L 205.24 338.09
  A 0.44 0.43 31.7 0 0 205.36 338.56
  Q 212.62 345.00 221.69 349.03
  A 0.16 0.16 0.0 0 0 221.86 348.77
  Z
  M 223.51 349.35
  C 233.62 352.55 243.76 353.58 254.17 351.42
  Q 256.88 350.86 257.63 349.84
  Q 261.45 344.62 264.47 338.95
  A 0.31 0.31 0.0 0 0 264.09 338.51
  C 258.75 340.39 253.40 341.32 247.22 340.86
  Q 238.02 340.19 231.00 338.37
  A 0.99 0.99 0.0 0 0 229.92 338.79
  L 223.35 348.91
  A 0.30 0.29 -65.4 0 0 223.51 349.35
  Z
  M 254.88 359.00
  C 237.17 362.02 217.83 357.76 203.50 346.29
  A 0.76 0.76 0.0 0 0 202.30 346.65
  Q 198.56 358.26 193.69 367.77
  A 2.17 2.15 38.3 0 0 193.98 370.15
  Q 203.53 381.26 215.51 390.96
  C 226.71 400.04 243.75 414.42 258.97 410.86
  Q 264.60 409.54 264.08 403.52
  C 263.42 395.98 259.84 389.52 255.15 383.57
  A 1.45 1.44 -25.3 0 0 253.70 383.06
  L 235.82 387.08
  A 1.66 1.66 0.0 0 1 233.81 385.30
  L 233.89 384.55
  A 3.52 3.52 0.0 0 1 236.62 381.46
  L 250.55 378.33
  A 0.87 0.87 0.0 0 0 251.08 377.00
  L 249.88 375.23
  A 2.77 2.75 -21.2 0 0 247.18 374.05
  L 231.07 376.54
  A 2.56 2.56 0.0 0 1 228.16 374.45
  L 228.08 373.98
  A 2.27 2.26 -9.3 0 1 229.97 371.35
  L 249.70 368.30
  A 0.30 0.29 9.8 0 0 249.92 368.15
  L 255.05 359.26
  A 0.17 0.17 0.0 0 0 254.88 359.00
  Z
  M 261.11 415.67
  Q 249.78 417.88 238.70 412.86
  Q 232.41 410.01 228.46 407.29
  Q 207.05 392.55 190.86 374.72
  A 1.02 1.02 0.0 0 0 189.22 374.89
  L 186.01 380.47
  A 2.41 2.41 0.0 0 0 186.22 383.19
  Q 189.28 386.96 196.36 393.22
  Q 212.65 407.62 227.69 416.87
  C 237.42 422.85 253.98 428.36 261.34 416.00
  A 0.22 0.22 0.0 0 0 261.11 415.67
  Z"
/>
<path d="
  M 242.83 181.31
  C 244.76 174.97 255.52 177.41 260.32 178.72
  C 272.86 182.14 283.56 183.60 297.36 185.84
  Q 300.87 186.41 302.49 189.77
  Q 303.46 191.78 302.58 196.37
  Q 299.04 214.78 292.32 231.53
  C 289.37 238.86 282.49 238.24 275.74 237.02
  Q 269.78 235.94 239.04 229.72
  C 230.83 228.06 230.22 221.41 232.53 214.28
  Q 237.07 200.27 242.83 181.31
  Z
  M 295.56 192.52
  Q 281.63 190.57 265.41 187.35
  Q 260.67 186.41 254.13 184.65
  Q 252.23 184.14 249.68 184.55
  A 0.56 0.56 0.0 0 0 249.24 184.94
  L 238.48 220.23
  A 1.69 1.69 0.0 0 0 239.76 222.38
  Q 269.48 228.45 274.11 229.36
  Q 279.78 230.47 284.18 230.51
  A 1.74 1.74 0.0 0 0 285.81 229.41
  Q 292.49 212.33 296.10 193.28
  A 0.64 0.64 0.0 0 0 295.56 192.52
  Z"
/>
<path d="
  M 255.83 204.92
  A 0.64 0.63 59.8 0 0 255.62 205.73
  L 258.95 212.28
  A 1.17 1.02 -64.5 0 1 259.06 212.67
  C 259.18 214.52 257.30 216.95 255.28 215.98
  Q 254.60 215.65 253.66 214.16
  Q 250.49 209.16 249.25 204.69
  A 2.75 2.74 -24.9 0 1 250.36 201.68
  L 260.36 194.93
  A 3.37 3.37 0.0 0 1 264.86 195.58
  L 265.03 195.80
  A 2.22 2.21 -36.4 0 1 264.54 199.03
  L 255.83 204.92
  Z"
/>
<rect x="-2.86" y="-14.42" transform="translate(269.72,208.41) rotate(33.4)" width="5.72" height="28.84" rx="2.80"/>
<path d="
  M 274.62 218.27
  Q 274.48 217.24 275.80 216.02
  Q 276.59 215.28 281.43 211.47
  A 1.56 1.56 0.0 0 0 281.92 209.69
  L 279.86 204.33
  A 3.17 3.17 0.0 0 1 280.98 200.60
  L 281.07 200.53
  A 2.57 2.57 0.0 0 1 284.66 201.29
  Q 287.47 205.71 288.06 211.55
  A 1.33 1.32 62.0 0 1 287.76 212.54
  Q 283.33 217.87 277.72 220.23
  A 2.39 2.23 75.3 0 1 274.62 218.27
  Z"
/>
<ellipse cx="0.00" cy="0.00" transform="translate(183.55,235.09) rotate(-161.1)" rx="5.16" ry="3.67"/>
<path d="
  M 74.97 250.75
  A 3.56 3.55 -58.2 0 1 76.20 256.03
  Q 58.76 279.58 42.04 299.79
  Q 27.68 317.15 12.79 331.82
  A 3.28 3.27 -42.6 0 1 8.01 331.63
  L 7.92 331.52
  A 3.77 3.77 0.0 0 1 8.10 326.41
  Q 22.31 312.08 24.65 309.39
  Q 48.01 282.50 68.44 252.10
  A 4.74 4.74 0.0 0 1 74.54 250.53
  L 74.97 250.75
  Z"
/>
<path d="
  M 102.41 268.09
  L 102.59 268.27
  A 4.27 4.27 0.0 0 1 102.86 274.10
  Q 58.26 326.52 6.82 370.35
  A 3.48 3.47 -40.6 0 1 1.94 369.98
  L 1.85 369.88
  A 3.39 3.38 -40.5 0 1 2.23 365.08
  Q 31.47 340.38 47.65 323.90
  Q 71.01 300.12 96.97 268.39
  A 3.70 3.69 41.8 0 1 102.41 268.09
  Z"
/>
<path d="
  M 35.44 389.92
  Q 23.85 400.39 18.60 404.63
  Q 16.80 406.10 14.77 407.28
  A 2.05 2.05 0.0 0 1 12.59 407.19
  Q 11.27 406.28 10.26 404.39
  A 0.91 0.91 0.0 0 1 10.28 403.50
  Q 11.31 401.76 12.64 400.64
  Q 23.86 391.24 30.90 384.89
  Q 37.94 378.53 48.44 368.33
  Q 49.69 367.12 51.53 366.28
  A 0.91 0.91 0.0 0 1 52.41 366.35
  Q 54.19 367.54 54.96 368.95
  A 2.05 2.05 0.0 0 1 54.83 371.13
  Q 53.45 373.03 51.80 374.67
  Q 47.04 379.45 35.44 389.92
  Z"
/>
</g>
<g fill="#fffffd">
<path d="
  M 197.87 75.19
  A 0.18 0.18 0.0 0 1 197.65 75.30
  L 197.17 75.18
  A 0.11 0.10 14.2 0 1 197.10 75.07
  Q 201.39 53.95 215.93 36.91
  C 234.00 15.72 261.64 6.55 289.00 8.93
  C 314.99 11.19 341.66 24.35 354.79 47.42
  A 0.24 0.24 0.0 0 1 354.43 47.72
  C 327.97 26.97 284.63 28.63 262.54 55.36
  C 246.82 74.38 245.45 100.88 259.06 121.69
  C 271.01 139.96 292.79 149.97 314.52 150.97
  C 317.73 151.11 320.42 150.58 323.44 150.55
  A 0.07 0.07 0.0 0 1 323.47 150.68
  Q 312.05 155.81 300.28 156.06
  C 284.34 156.39 265.19 151.94 249.50 146.01
  Q 238.26 141.77 230.81 136.72
  C 226.93 134.10 224.69 131.15 221.24 128.27
  Q 215.30 123.30 208.17 121.03
  A 4.66 4.63 -6.3 0 1 205.57 118.96
  Q 201.37 111.88 198.92 103.04
  A 0.19 0.18 -67.3 0 1 199.26 102.90
  C 203.81 110.98 211.40 116.19 221.27 113.24
  C 226.97 111.53 232.36 105.76 234.84 100.24
  Q 241.30 85.83 235.44 71.29
  C 232.95 65.13 226.92 59.80 220.06 58.76
  C 208.16 56.96 201.62 65.03 197.87 75.19
  Z"
/>
<path d="
  M 405.78 101.19
  A 0.26 0.26 0.0 0 1 405.64 100.77
  Q 412.68 92.25 422.28 99.43
  A 1.98 1.98 0.0 0 1 422.57 102.32
  L 419.47 105.80
  A 1.15 1.15 0.0 0 1 417.94 105.96
  Q 414.49 103.42 405.78 101.19
  Z"
/>
<path d="
  M 421.69 128.53
  Q 421.69 128.52 424.00 124.29
  Q 425.83 120.94 425.47 116.77
  C 425.37 115.60 424.64 113.87 424.27 112.56
  A 0.93 0.92 -35.7 0 1 424.40 111.78
  L 429.04 105.32
  A 1.40 1.39 -71.9 0 1 430.17 104.74
  Q 432.67 104.74 435.56 106.12
  C 440.70 108.60 439.66 113.17 436.99 117.25
  C 434.10 121.67 430.44 126.95 425.86 129.34
  Q 424.89 129.85 422.22 129.27
  A 0.68 0.68 0.0 0 1 421.69 128.53
  Z"
/>
<path d="
  M 421.99 135.35
  Q 423.82 136.34 425.51 136.09
  A 0.92 0.92 0.0 0 1 426.51 136.70
  Q 429.81 146.26 440.16 145.56
  A 0.38 0.38 0.0 0 1 440.49 146.16
  C 437.20 150.71 430.51 155.93 425.54 157.17
  C 414.54 159.90 400.22 145.36 394.40 137.61
  C 389.66 131.30 388.94 122.09 390.87 114.90
  C 392.38 109.25 399.68 107.52 404.61 108.15
  C 409.72 108.80 420.88 113.32 417.79 120.49
  C 414.57 127.92 408.24 125.74 402.90 121.98
  C 400.62 120.38 398.03 122.36 399.19 125.13
  C 401.66 131.08 409.44 133.04 415.24 132.07
  A 0.64 0.64 0.0 0 1 415.99 132.71
  Q 415.94 137.15 414.19 142.01
  A 1.23 1.22 40.7 0 0 414.27 143.00
  C 415.27 144.87 417.21 144.48 418.33 143.02
  Q 420.59 140.06 421.13 135.80
  A 0.59 0.59 0.0 0 1 421.99 135.35
  Z"
/>
<path d="
  M 449.51 118.74
  L 450.16 119.87
  A 10.14 10.13 -49.1 0 1 450.79 128.74
  C 447.99 135.72 438.90 144.87 432.18 135.19
  A 0.78 0.78 0.0 0 1 432.28 134.18
  Q 439.97 126.74 443.66 118.98
  A 3.31 3.30 -47.3 0 1 449.51 118.74
  Z"
/>
<path d="
  M 114.92 163.40
  Q 128.82 149.26 144.29 142.49
  Q 160.74 135.30 178.33 132.81
  Q 191.51 130.95 200.56 139.47
  Q 205.28 143.92 207.01 150.10
  C 211.32 165.51 203.55 182.56 192.51 192.98
  Q 182.78 202.17 169.56 199.26
  A 0.40 0.40 0.0 0 1 169.28 198.71
  L 174.23 187.95
  A 0.63 0.59 4.4 0 1 174.66 187.60
  L 195.56 182.91
  A 3.33 3.33 0.0 0 0 198.04 178.81
  L 197.98 178.56
  A 3.58 3.57 77.3 0 0 193.72 175.86
  Q 184.66 177.89 173.50 180.54
  Q 163.16 182.99 154.29 189.50
  A 0.45 0.45 0.0 0 1 153.59 189.24
  C 149.33 171.81 132.62 161.40 115.19 163.92
  A 0.31 0.31 0.0 0 1 114.92 163.40
  Z"
/>
<path d="
  M 408.58 181.78
  A 0.34 0.34 0.0 0 1 408.80 182.34
  Q 397.60 195.78 383.17 204.11
  C 367.18 213.34 347.06 214.59 328.76 211.28
  Q 323.84 210.39 320.86 209.38
  A 0.55 0.55 0.0 0 1 320.53 208.63
  C 326.73 195.18 330.44 177.82 324.60 163.73
  A 0.31 0.31 0.0 0 1 324.96 163.31
  Q 337.90 166.27 350.64 167.44
  A 0.76 0.76 0.0 0 1 351.32 168.34
  C 350.82 171.07 348.73 184.36 354.76 182.49
  A 1.06 1.04 -88.1 0 0 355.45 181.83
  C 356.74 178.31 356.11 172.64 356.12 169.58
  A 1.53 1.53 0.0 0 1 356.89 168.25
  Q 366.38 162.81 374.31 154.54
  A 0.43 0.43 0.0 0 1 375.01 154.66
  C 380.93 167.39 393.97 180.02 408.58 181.78
  Z"
/>
<path d="
  M 235.22 161.80
  Q 236.00 162.15 238.38 163.27
  Q 256.06 171.60 277.86 174.32
  C 287.12 175.48 297.49 175.35 305.75 171.74
  A 0.53 0.52 -18.9 0 1 306.47 172.09
  Q 308.69 180.99 308.32 190.26
  C 308.00 198.45 306.95 207.41 304.54 215.27
  Q 299.51 231.70 290.59 245.88
  A 3.69 3.67 16.0 0 1 287.47 247.60
  L 275.75 247.60
  A 1.30 1.28 -9.5 0 1 274.53 246.74
  C 273.84 244.72 273.03 243.61 270.64 243.23
  Q 259.68 241.46 248.95 239.01
  C 246.07 238.35 244.26 238.81 242.28 240.65
  A 1.37 1.35 -60.5 0 1 241.10 240.99
  Q 227.08 238.27 214.33 234.38
  A 0.54 0.53 -72.2 0 1 213.98 233.69
  C 215.40 229.54 216.08 226.00 210.92 224.32
  Q 199.01 220.43 195.36 219.32
  A 0.38 0.38 0.0 0 1 195.32 218.61
  C 216.73 208.77 233.25 185.31 234.77 162.08
  A 0.33 0.32 -76.2 0 1 235.22 161.80
  Z
  M 260.32 178.72
  C 255.52 177.41 244.76 174.97 242.83 181.31
  Q 237.07 200.27 232.53 214.28
  C 230.22 221.41 230.83 228.06 239.04 229.72
  Q 269.78 235.94 275.74 237.02
  C 282.49 238.24 289.37 238.86 292.32 231.53
  Q 299.04 214.78 302.58 196.37
  Q 303.46 191.78 302.49 189.77
  Q 300.87 186.41 297.36 185.84
  C 283.56 183.60 272.86 182.14 260.32 178.72
  Z"
/>
<path d="
  M 296.10 193.28
  Q 292.49 212.33 285.81 229.41
  A 1.74 1.74 0.0 0 1 284.18 230.51
  Q 279.78 230.47 274.11 229.36
  Q 269.48 228.45 239.76 222.38
  A 1.69 1.69 0.0 0 1 238.48 220.23
  L 249.24 184.94
  A 0.56 0.56 0.0 0 1 249.68 184.55
  Q 252.23 184.14 254.13 184.65
  Q 260.67 186.41 265.41 187.35
  Q 281.63 190.57 295.56 192.52
  A 0.64 0.64 0.0 0 1 296.10 193.28
  Z
  M 255.83 204.92
  L 264.54 199.03
  A 2.22 2.21 -36.4 0 0 265.03 195.80
  L 264.86 195.58
  A 3.37 3.37 0.0 0 0 260.36 194.93
  L 250.36 201.68
  A 2.75 2.74 -24.9 0 0 249.25 204.69
  Q 250.49 209.16 253.66 214.16
  Q 254.60 215.65 255.28 215.98
  C 257.30 216.95 259.18 214.52 259.06 212.67
  A 1.17 1.02 -64.5 0 0 258.95 212.28
  L 255.62 205.73
  A 0.64 0.63 59.8 0 1 255.83 204.92
  Z
  M 278.5043 200.2834
  A 2.80 2.80 0.0 0 0 277.7080 196.4045
  L 277.6078 196.3385
  A 2.80 2.80 0.0 0 0 273.7289 197.1347
  L 260.9357 216.5366
  A 2.80 2.80 0.0 0 0 261.7320 220.4155
  L 261.8322 220.4815
  A 2.80 2.80 0.0 0 0 265.7111 219.6853
  L 278.5043 200.2834
  Z
  M 274.62 218.27
  A 2.39 2.23 75.3 0 0 277.72 220.23
  Q 283.33 217.87 287.76 212.54
  A 1.33 1.32 62.0 0 0 288.06 211.55
  Q 287.47 205.71 284.66 201.29
  A 2.57 2.57 0.0 0 0 281.07 200.53
  L 280.98 200.60
  A 3.17 3.17 0.0 0 0 279.86 204.33
  L 281.92 209.69
  A 1.56 1.56 0.0 0 1 281.43 211.47
  Q 276.59 215.28 275.80 216.02
  Q 274.48 217.24 274.62 218.27
  Z"
/>
<path d="
  M 129.66 233.41
  C 130.04 231.20 131.08 226.79 131.34 223.05
  C 131.51 220.54 130.87 218.33 127.95 218.93
  A 2.15 2.15 0.0 0 0 126.27 220.60
  Q 124.29 229.94 123.04 234.26
  C 121.58 239.34 116.90 241.95 112.41 237.95
  C 109.66 235.51 109.91 227.70 110.37 224.32
  A 2.52 2.51 -86.2 0 0 107.88 221.47
  L 107.55 221.47
  A 2.93 2.93 0.0 0 0 104.62 224.40
  L 104.62 236.23
  A 2.00 2.00 0.0 0 1 101.79 238.05
  L 101.00 237.69
  A 7.79 7.78 -1.5 0 1 95.65 232.62
  Q 93.89 227.26 94.68 221.86
  A 2.91 2.90 -82.4 0 0 92.16 218.56
  L 91.84 218.53
  A 2.83 2.82 2.8 0 0 88.74 221.34
  L 88.74 231.10
  A 1.38 1.37 -77.6 0 1 86.79 232.35
  L 85.18 231.62
  A 5.08 5.03 2.5 0 1 82.56 228.79
  Q 79.92 221.68 81.91 215.55
  Q 86.78 200.63 98.74 191.29
  C 106.04 185.60 118.47 188.08 125.63 193.38
  Q 139.34 203.51 138.82 220.58
  C 138.64 226.54 135.84 231.68 130.20 233.85
  A 0.40 0.40 0.0 0 1 129.66 233.41
  Z"
/>
<path d="
  M 206.17 316.29
  A 0.21 0.20 -58.1 0 1 205.88 316.36
  Q 194.03 308.49 181.19 300.04
  Q 171.70 293.80 163.61 284.62
  C 150.93 270.23 150.42 254.38 155.62 236.75
  A 0.35 0.34 20.5 0 1 156.10 236.54
  L 158.11 237.46
  A 0.46 0.45 21.2 0 1 158.36 238.01
  Q 157.54 240.80 157.08 246.53
  C 156.57 252.87 159.42 257.45 165.18 260.55
  Q 170.95 263.66 176.13 265.17
  A 0.66 0.65 6.2 0 1 176.59 265.73
  C 177.37 273.55 182.18 277.25 188.53 282.13
  C 193.89 286.25 202.54 291.34 206.73 294.57
  Q 214.67 300.68 216.62 302.39
  A 0.53 0.53 0.0 0 1 216.63 303.17
  Q 210.42 309.06 206.17 316.29
  Z"
/>
<path d="
  M 257.28 285.84
  Q 236.93 285.89 220.43 299.63
  A 0.62 0.61 44.6 0 1 219.64 299.63
  Q 208.43 290.49 194.92 281.84
  C 188.76 277.89 182.30 273.42 180.53 267.01
  A 0.53 0.52 0.7 0 1 181.19 266.37
  C 190.17 269.15 200.66 267.72 205.87 259.02
  A 0.53 0.52 22.8 0 1 206.44 258.79
  L 232.89 265.80
  A 4.90 4.85 -19.7 0 1 234.37 266.49
  C 242.68 272.31 250.67 277.97 257.46 285.44
  A 0.24 0.24 0.0 0 1 257.28 285.84
  Z"
/>
<path d="
  M 253.21 272.91
  A 0.18 0.18 0.0 0 1 253.35 272.59
  L 262.19 273.69
  A 3.59 3.51 -50.6 0 0 263.74 273.52
  Q 265.09 273.04 265.58 272.08
  A 1.35 1.34 15.9 0 1 266.88 271.36
  L 272.85 271.84
  A 0.55 0.55 0.0 0 1 273.22 272.76
  L 264.12 282.97
  A 0.60 0.59 -43.6 0 1 263.21 282.95
  Q 258.59 277.11 253.21 272.91
  Z"
/>
<path d="
  M 200.93 322.73
  Q 192.85 332.16 182.58 339.20
  A 1.52 1.50 -50.3 0 1 181.13 339.34
  Q 177.96 337.98 174.66 336.31
  Q 154.90 326.29 150.88 303.89
  Q 150.41 301.29 150.69 299.75
  A 1.19 1.17 71.1 0 1 150.93 299.25
  L 158.15 290.41
  A 0.52 0.52 0.0 0 1 158.94 290.38
  C 167.98 300.25 177.20 305.99 191.03 314.86
  Q 191.87 315.39 200.83 321.85
  A 0.60 0.60 0.0 0 1 200.93 322.73
  Z"
/>
<path d="
  M 224.34 305.86
  A 0.37 0.37 0.0 0 1 224.34 305.30
  Q 239.67 291.85 260.39 292.53
  A 3.57 3.53 71.7 0 1 263.08 293.90
  Q 275.03 309.27 268.98 328.43
  A 3.74 3.74 0.0 0 1 266.64 330.85
  Q 249.90 336.68 232.61 331.84
  A 0.54 0.54 0.0 0 1 232.23 331.20
  Q 235.55 316.00 224.34 305.86
  Z"
/>
<path d="
  M 144.32 305.42
  Q 144.57 307.08 146.13 312.13
  C 150.76 327.09 160.69 336.49 173.76 344.19
  A 0.46 0.45 -42.4 0 1 173.72 344.99
  Q 165.21 348.96 154.25 352.23
  C 150.11 353.46 147.73 351.70 144.59 348.72
  C 134.45 339.13 131.71 323.81 134.62 310.50
  A 1.07 1.06 -4.9 0 1 135.27 309.74
  Q 141.29 307.34 143.75 305.21
  A 0.35 0.35 0.0 0 1 144.32 305.42
  Z"
/>
<path d="
  M 221.67 308.52
  C 227.75 314.44 229.44 322.20 228.85 330.45
  A 0.28 0.28 0.0 0 1 228.50 330.70
  Q 218.82 327.89 211.52 321.88
  A 0.71 0.70 34.5 0 1 211.35 320.98
  Q 215.14 314.18 220.75 308.53
  A 0.66 0.65 -45.3 0 1 221.67 308.52
  Z"
/>
<path d="
  M 221.86 348.77
  A 0.16 0.16 0.0 0 1 221.69 349.03
  Q 212.62 345.00 205.36 338.56
  A 0.44 0.43 31.7 0 1 205.24 338.09
  L 208.50 329.15
  A 0.23 0.22 -63.0 0 1 208.83 329.04
  Q 216.71 334.08 225.66 336.79
  A 0.48 0.48 0.0 0 1 225.92 337.51
  Q 222.46 342.96 221.46 344.98
  Q 220.26 347.38 221.86 348.77
  Z"
/>
<path d="
  M 223.35 348.91
  L 229.92 338.79
  A 0.99 0.99 0.0 0 1 231.00 338.37
  Q 238.02 340.19 247.22 340.86
  C 253.40 341.32 258.75 340.39 264.09 338.51
  A 0.31 0.31 0.0 0 1 264.47 338.95
  Q 261.45 344.62 257.63 349.84
  Q 256.88 350.86 254.17 351.42
  C 243.76 353.58 233.62 352.55 223.51 349.35
  A 0.30 0.29 -65.4 0 1 223.35 348.91
  Z"
/>
</g>
<path fill="#ff9655" d="
  M 346.78 134.26
  C 332.36 146.52 307.44 145.64 290.96 139.08
  C 272.51 131.73 258.96 116.45 257.45 96.43
  Q 256.41 82.66 261.42 70.89
  C 272.43 45.06 304.52 36.56 329.36 43.21
  C 348.59 48.36 362.41 61.15 365.34 81.40
  C 368.08 100.23 361.64 121.63 346.78 134.26
  Z"
/>
<g fill="#30a7ee">
<ellipse cx="0.00" cy="0.00" transform="translate(216.44,86.34) rotate(-86.9)" rx="20.83" ry="14.02"/>
<path d="
  M 197.36 119.74
  L 189.14 121.01
  A 0.44 0.43 -0.1 0 1 188.64 120.52
  C 189.89 112.44 190.03 106.41 185.02 99.67
  A 0.35 0.35 0.0 0 1 185.41 99.13
  L 189.92 100.50
  A 1.88 1.87 1.5 0 1 191.18 101.82
  Q 193.59 111.08 197.65 119.18
  A 0.39 0.39 0.0 0 1 197.36 119.74
  Z"
/>
<path d="
  M 146.11 133.90
  A 0.30 0.30 0.0 0 1 145.73 133.50
  Q 150.44 123.23 154.62 113.89
  Q 158.91 104.28 169.28 101.09
  C 174.84 99.37 182.05 100.24 183.82 106.74
  Q 186.22 115.59 182.79 124.02
  A 1.27 1.26 6.6 0 1 181.81 124.79
  Q 163.32 127.54 146.11 133.90
  Z"
/>
<path d="
  M 194.47 127.43
  A 0.23 0.23 0.0 0 1 194.56 126.99
  Q 199.01 127.09 200.04 127.08
  C 213.67 126.92 225.96 140.01 227.68 153.00
  C 230.04 170.79 221.68 188.06 209.18 200.96
  Q 200.36 210.06 188.20 214.71
  Q 185.51 215.74 183.49 215.06
  Q 179.25 213.65 176.85 212.89
  C 173.69 211.89 171.72 211.99 169.03 213.72
  A 1.74 1.74 0.0 0 1 166.39 211.92
  L 167.43 206.61
  A 0.86 0.86 0.0 0 1 168.45 205.94
  C 184.40 209.28 195.93 201.32 204.73 188.98
  C 218.76 169.29 221.52 138.28 194.47 127.43
  Z"
/>
<path d="
  M 421.26 164.75
  A 0.47 0.46 -68.3 0 1 421.57 165.48
  L 414.99 174.64
  A 2.85 2.84 -68.2 0 1 412.30 175.80
  C 397.54 173.80 385.69 163.54 380.22 149.89
  A 2.14 2.13 53.0 0 1 380.51 147.80
  L 386.72 139.78
  A 0.39 0.38 -42.0 0 1 387.35 139.81
  C 394.54 151.15 407.47 162.89 421.26 164.75
  Z"
/>
<path d="
  M 304.46 163.29
  A 0.40 0.39 28.8 0 1 304.67 164.01
  C 295.60 170.31 280.57 168.33 269.81 166.15
  Q 252.22 162.57 236.09 154.50
  A 2.39 2.36 -83.4 0 1 234.83 152.89
  L 233.77 148.18
  A 0.57 0.57 0.0 0 1 234.57 147.54
  Q 260.75 159.75 289.86 162.83
  C 294.79 163.35 300.90 163.16 304.46 163.29
  Z"
/>
<path d="
  M 314.13 203.98
  C 314.07 202.15 314.96 200.01 315.06 197.35
  C 315.47 186.76 315.84 176.50 311.68 167.50
  A 0.60 0.59 -39.6 0 1 311.74 166.91
  L 316.48 160.31
  A 0.12 0.11 -39.0 0 1 316.68 160.33
  Q 319.41 166.38 319.90 171.04
  Q 321.59 187.16 314.56 204.06
  A 0.22 0.22 0.0 0 1 314.13 203.98
  Z"
/>
<path d="
  M 102.05 181.28
  Q 105.58 175.44 107.78 173.03
  C 112.34 168.03 125.64 170.03 131.03 172.19
  Q 145.95 178.15 147.88 194.02
  A 2.07 2.05 62.5 0 1 147.38 195.63
  L 142.57 201.03
  A 0.67 0.66 51.8 0 1 141.49 200.90
  C 133.78 186.58 118.80 178.86 102.41 181.80
  A 0.35 0.35 0.0 0 1 102.05 181.28
  Z"
/>
<path d="
  M 163.77 192.38
  Q 160.33 203.29 150.92 229.62
  C 148.85 235.42 147.15 242.19 146.30 248.22
  A 0.45 0.45 0.0 0 1 145.69 248.58
  Q 139.09 246.17 133.19 240.81
  A 0.49 0.49 0.0 0 1 133.28 240.02
  C 138.00 237.38 141.55 235.23 143.61 230.33
  Q 147.43 221.21 144.87 210.37
  A 1.63 1.60 -31.7 0 1 145.21 208.97
  C 150.19 203.01 156.39 196.06 163.18 191.92
  A 0.40 0.40 0.0 0 1 163.77 192.38
  Z"
/>
<path d="
  M 206.64 229.91
  A 0.35 0.34 -61.8 0 1 206.80 230.46
  Q 201.21 237.58 196.83 242.28
  C 193.32 246.07 180.76 241.15 176.51 238.86
  C 171.59 236.20 166.49 233.32 168.80 227.11
  Q 170.50 222.56 172.28 219.53
  A 0.98 0.98 0.0 0 1 173.42 219.10
  L 206.64 229.91
  Z
  M 178.6682 233.4186
  A 5.16 3.67 -161.1 0 0 182.3612 238.5621
  A 5.16 3.67 -161.1 0 0 188.4318 236.7614
  A 5.16 3.67 -161.1 0 0 184.7388 231.6179
  A 5.16 3.67 -161.1 0 0 178.6682 233.4186
  Z"
/>
<rect x="-1.16" y="-6.55" transform="translate(161.29,225.28) rotate(22.8)" width="2.32" height="13.10" rx="1.08"/>
<path d="
  M 205.06 242.78
  Q 203.58 248.49 201.62 253.17
  C 197.47 263.08 189.59 262.19 180.33 259.81
  Q 172.48 257.80 166.72 254.07
  Q 162.43 251.30 163.40 246.01
  Q 164.27 241.31 165.10 238.51
  A 0.32 0.32 0.0 0 1 165.65 238.38
  C 170.63 243.93 180.34 246.96 188.27 248.49
  C 195.35 249.85 199.05 247.41 204.65 242.53
  A 0.25 0.25 0.0 0 1 205.06 242.78
  Z"
/>
<rect x="-13.94" y="-6.20" transform="translate(223.94,250.29) rotate(14.5)" width="27.88" height="12.40" rx="0.38"/>
<path d="
  M 267.36 249.50
  A 1.16 1.15 15.0 0 1 268.23 251.00
  Q 266.28 256.77 262.90 264.20
  Q 261.77 266.68 259.01 266.46
  Q 250.46 265.77 242.28 263.55
  A 0.72 0.71 -77.1 0 1 241.76 262.72
  Q 243.50 253.78 246.88 246.85
  A 1.83 1.82 -71.3 0 1 248.87 245.86
  L 267.36 249.50
  Z"
/>
<path d="
  M 288.38 254.39
  A 0.38 0.37 -76.1 0 1 288.71 254.94
  Q 285.93 260.21 282.86 264.04
  C 280.65 266.80 273.80 265.99 270.51 265.44
  A 0.89 0.88 17.0 0 1 269.85 264.20
  L 274.18 254.78
  A 0.67 0.67 0.0 0 1 274.79 254.39
  L 288.38 254.39
  Z"
/>
<path d="
  M 141.93 355.57
  A 0.31 0.30 59.2 0 1 141.80 356.10
  Q 135.16 357.66 129.27 361.06
  A 0.91 0.90 -38.6 0 1 128.22 360.95
  L 119.60 353.27
  A 2.45 2.45 0.0 0 0 116.26 353.34
  L 115.97 353.63
  A 2.43 2.43 0.0 0 0 116.05 357.18
  L 123.45 363.78
  A 1.34 1.32 -48.3 0 1 123.55 365.66
  L 121.57 367.88
  A 1.16 1.16 0.0 0 1 119.91 367.95
  L 110.86 359.36
  A 2.17 2.17 0.0 0 0 107.49 359.86
  L 107.32 360.15
  A 3.27 3.25 35.9 0 0 107.98 364.21
  L 117.41 372.62
  A 0.68 0.68 0.0 0 1 117.53 373.48
  C 112.31 381.63 106.86 389.94 99.07 394.68
  Q 94.34 397.56 91.00 392.91
  C 86.31 386.39 87.44 376.85 89.27 369.52
  Q 96.09 342.26 108.79 318.04
  Q 110.30 315.16 113.23 314.48
  Q 121.48 312.58 127.34 310.59
  A 0.43 0.43 0.0 0 1 127.90 311.08
  C 124.71 327.36 129.26 344.52 141.93 355.57
  Z"
/>
<path d="
  M 87.94 396.41
  A 0.31 0.31 0.0 0 1 87.67 396.92
  Q 84.94 396.67 82.44 394.77
  C 72.13 386.93 75.49 371.46 78.27 360.75
  Q 83.75 339.69 94.25 319.86
  A 5.77 5.75 7.6 0 1 98.09 316.93
  L 103.32 315.75
  A 0.92 0.92 0.0 0 1 104.33 317.09
  Q 91.02 341.68 84.35 370.36
  Q 83.23 375.20 83.25 383.51
  Q 83.28 390.85 87.94 396.41
  Z"
/>
<path d="
  M 254.88 359.00
  A 0.17 0.17 0.0 0 1 255.05 359.26
  L 249.92 368.15
  A 0.30 0.29 9.8 0 1 249.70 368.30
  L 229.97 371.35
  A 2.27 2.26 -9.3 0 0 228.08 373.98
  L 228.16 374.45
  A 2.56 2.56 0.0 0 0 231.07 376.54
  L 247.18 374.05
  A 2.77 2.75 -21.2 0 1 249.88 375.23
  L 251.08 377.00
  A 0.87 0.87 0.0 0 1 250.55 378.33
  L 236.62 381.46
  A 3.52 3.52 0.0 0 0 233.89 384.55
  L 233.81 385.30
  A 1.66 1.66 0.0 0 0 235.82 387.08
  L 253.70 383.06
  A 1.45 1.44 -25.3 0 1 255.15 383.57
  C 259.84 389.52 263.42 395.98 264.08 403.52
  Q 264.60 409.54 258.97 410.86
  C 243.75 414.42 226.71 400.04 215.51 390.96
  Q 203.53 381.26 193.98 370.15
  A 2.17 2.15 38.3 0 1 193.69 367.77
  Q 198.56 358.26 202.30 346.65
  A 0.76 0.76 0.0 0 1 203.50 346.29
  C 217.83 357.76 237.17 362.02 254.88 359.00
  Z"
/>
<path d="
  M 261.11 415.67
  A 0.22 0.22 0.0 0 1 261.34 416.00
  C 253.98 428.36 237.42 422.85 227.69 416.87
  Q 212.65 407.62 196.36 393.22
  Q 189.28 386.96 186.22 383.19
  A 2.41 2.41 0.0 0 1 186.01 380.47
  L 189.22 374.89
  A 1.02 1.02 0.0 0 1 190.86 374.72
  Q 207.05 392.55 228.46 407.29
  Q 232.41 410.01 238.70 412.86
  Q 249.78 417.88 261.11 415.67
  Z"
/>
</g>
</svg>
