<?xml version="1.0" encoding="UTF-8" standalone="no"?>
<!DOCTYPE svg PUBLIC "-//W3C//DTD SVG 1.1//EN" "http://www.w3.org/Graphics/SVG/1.1/DTD/svg11.dtd">
<svg xmlns="http://www.w3.org/2000/svg" version="1.1" viewBox="0.00 0.00 929.00 908.00">
<g stroke-width="2.00" fill="none" stroke-linecap="butt">
<path stroke="#3c8dc1" vector-effect="non-scaling-stroke" d="
  M 51.14 20.27
  A 0.13 0.13 0.0 0 0 51.07 20.51
  C 76.57 39.21 96.42 64.60 107.15 94.36
  Q 117.24 122.33 108.20 151.18
  Q 106.60 156.26 103.94 162.39
  A 0.37 0.37 0.0 0 0 104.42 162.88
  C 142.49 146.24 184.51 137.64 226.25 134.88
  Q 274.65 131.68 320.91 141.62
  Q 332.05 144.02 341.94 146.75
  A 0.44 0.44 0.0 0 0 342.40 146.06
  Q 340.95 144.20 339.29 142.45
  Q 309.84 111.49 272.79 89.46
  Q 241.60 70.91 209.81 57.94
  Q 171.23 42.20 127.77 32.24
  Q 99.19 25.68 76.00 22.79
  Q 58.67 20.62 55.48 20.37
  Q 53.11 20.18 51.14 20.27"
/>
<path stroke="#3c8dc1" vector-effect="non-scaling-stroke" d="
  M 887.06 126.87
  L 884.37 127.86
  A 0.43 0.30 -55.3 0 1 884.29 127.89
  Q 863.50 132.43 849.11 136.68
  Q 816.69 146.26 787.11 164.12
  Q 765.46 177.19 741.82 197.82
  C 735.35 203.47 729.46 208.82 725.20 215.02
  A 0.57 0.57 0.0 0 0 725.34 215.80
  Q 735.33 223.09 744.15 231.43
  A 1.62 1.60 -32.9 0 0 745.79 231.77
  C 753.25 229.11 759.59 228.20 768.52 227.04
  Q 800.41 222.87 830.55 232.60
  A 0.55 0.55 0.0 0 0 831.27 232.05
  C 830.91 220.41 831.70 209.04 835.33 197.63
  C 844.36 169.27 863.71 145.04 887.42 127.54
  A 0.38 0.38 0.0 0 0 887.06 126.87"
/>
<path stroke="#3c8dc1" vector-effect="non-scaling-stroke" d="
  M 452.94 245.23
  Q 454.23 246.67 455.03 248.20
  Q 470.72 278.33 473.33 312.11
  A 1.60 1.59 -76.8 0 0 474.08 313.33
  Q 489.26 322.80 496.27 339.26
  C 498.25 343.92 501.47 352.82 495.64 355.45
  C 492.83 356.72 490.46 355.89 488.71 353.52
  Q 485.37 349.02 479.30 340.96
  Q 473.79 333.65 464.83 330.09
  Q 448.10 323.45 445.28 322.47
  C 419.77 313.60 394.96 304.88 372.39 293.64
  Q 366.35 290.63 364.71 285.18
  C 357.72 261.85 356.52 235.80 362.22 211.48
  Q 364.32 202.54 366.66 196.70
  Q 368.16 192.96 372.86 185.07
  C 380.18 172.76 385.74 160.41 384.81 146.48
  A 0.35 0.35 0.0 0 0 384.12 146.41
  Q 378.94 164.72 363.23 176.26
  Q 343.16 190.99 335.90 197.15
  Q 304.21 224.03 275.37 256.63
  Q 253.43 281.44 229.05 310.56
  Q 223.15 317.60 217.14 324.01
  A 0.22 0.22 0.0 0 0 217.35 324.38
  C 227.78 322.01 238.85 319.55 248.27 319.96
  Q 290.15 321.78 318.53 352.74
  Q 322.54 357.12 325.49 361.52
  A 1.57 1.57 0.0 0 0 327.29 362.13
  Q 353.48 353.43 377.70 347.08
  A 0.31 0.31 0.0 0 0 377.72 346.48
  Q 366.99 343.08 356.23 338.81
  C 340.06 332.39 329.10 321.40 325.12 304.46
  C 324.44 301.54 323.89 294.67 326.89 292.80
  Q 329.88 290.94 331.78 294.09
  Q 335.70 300.60 337.60 303.68
  Q 341.51 310.02 344.42 312.53
  Q 350.07 317.41 356.16 320.33
  C 374.52 329.16 399.26 337.09 415.27 343.05
  Q 422.48 345.73 427.33 348.67
  Q 429.30 349.86 429.28 351.66
  A 3.18 2.71 -12.0 0 1 427.25 354.31
  Q 424.68 355.29 420.69 356.17
  Q 367.43 367.88 333.64 376.67
  Q 330.83 377.41 329.84 378.34
  Q 323.99 383.84 316.94 389.97
  C 311.86 394.39 306.68 399.79 302.44 404.44
  Q 292.14 415.75 272.75 438.00
  Q 266.58 445.10 252.20 458.42
  Q 238.50 471.11 223.13 476.75
  C 214.43 479.94 200.84 482.21 193.38 484.40
  Q 181.28 487.95 176.21 490.26
  Q 156.85 499.08 151.96 520.10
  A 0.32 0.32 0.0 0 0 152.52 520.36
  Q 168.01 499.91 192.89 495.89
  C 197.79 495.10 201.22 494.50 205.69 494.82
  C 210.89 495.20 213.59 499.36 211.26 504.02
  Q 209.77 506.99 205.91 511.67
  C 194.33 525.68 183.40 541.58 190.23 560.59
  A 0.45 0.45 0.0 0 0 191.09 560.52
  Q 198.08 524.57 229.15 506.20
  C 239.45 500.11 249.57 502.24 258.72 509.34
  C 264.55 513.86 270.09 522.01 270.21 529.76
  Q 270.29 535.12 268.80 540.26
  A 0.53 0.52 79.6 0 0 269.62 540.83
  Q 270.77 539.95 271.85 538.34
  C 279.02 527.63 276.47 513.73 269.27 503.48
  C 263.78 495.66 260.48 491.28 256.97 483.67
  A 2.83 2.80 -59.6 0 1 256.74 482.77
  C 256.00 474.54 268.95 464.52 275.02 459.77
  C 287.31 450.14 298.84 442.12 313.72 432.25
  Q 335.17 418.01 352.93 404.12
  C 354.54 402.86 356.14 402.23 358.01 402.33
  C 389.78 404.05 421.15 400.29 452.14 392.30
  C 456.55 391.17 461.75 391.38 465.04 390.50
  C 470.43 389.06 472.95 396.16 470.08 399.35
  Q 468.14 401.49 464.28 403.53
  Q 456.85 407.44 448.31 409.79
  Q 446.79 410.21 445.65 411.07
  A 1.18 1.15 -19.7 0 0 445.19 412.01
  C 445.38 425.50 455.71 439.11 465.75 447.99
  Q 472.98 454.38 479.08 458.68
  Q 496.58 471.02 518.01 476.74
  Q 520.53 477.41 523.40 479.66
  A 1.74 1.70 10.7 0 1 523.96 480.46
  C 525.38 484.86 521.86 487.97 517.67 488.21
  Q 509.62 488.67 501.16 485.62
  C 475.06 476.21 451.46 460.69 436.94 436.33
  Q 432.16 428.32 430.17 419.18
  A 0.70 0.69 -15.0 0 0 429.27 418.67
  L 424.97 420.07
  A 3.60 3.60 0.0 0 0 422.66 422.42
  C 419.58 432.34 421.88 442.51 426.60 451.68
  C 433.54 465.17 443.61 475.10 456.91 483.00
  C 466.51 488.71 476.27 493.13 486.80 496.41
  C 488.08 496.80 490.20 498.23 490.49 500.01
  C 491.23 504.68 485.67 505.50 481.99 505.45
  C 474.62 505.36 465.05 502.14 458.39 499.11
  C 442.65 491.94 428.18 481.48 418.55 466.94
  Q 412.44 457.71 409.29 452.01
  A 0.54 0.54 0.0 0 0 408.61 451.78
  Q 402.53 454.35 402.38 461.28
  C 402.12 473.57 412.03 485.80 420.76 493.99
  Q 421.11 494.32 424.36 498.63
  C 430.50 506.75 422.12 510.91 415.91 506.09
  C 412.21 503.21 408.57 499.72 404.55 497.61
  C 396.80 493.53 385.88 492.50 379.27 499.29
  Q 375.10 503.57 373.86 507.16
  Q 372.03 512.44 368.76 522.23
  Q 367.80 525.13 364.93 526.71
  C 359.21 529.87 353.71 531.80 350.33 536.60
  Q 346.48 542.06 343.56 548.80
  C 340.54 555.74 337.14 563.66 334.84 570.88
  Q 325.59 599.94 321.26 625.75
  Q 316.59 653.63 313.11 691.37
  C 312.52 697.74 310.63 702.46 305.18 706.27
  Q 303.31 707.58 297.61 708.40
  Q 288.20 709.76 278.46 713.47
  C 265.08 718.57 250.41 724.06 236.50 726.99
  Q 227.81 728.82 221.75 728.72
  Q 212.71 728.57 208.28 728.72
  Q 201.40 728.96 199.49 734.52
  Q 189.66 763.17 176.36 787.67
  Q 166.16 806.46 153.14 820.18
  Q 142.87 831.02 130.21 839.61
  A 0.22 0.22 0.0 0 0 130.35 840.02
  Q 143.48 838.81 153.86 831.14
  Q 166.88 821.52 179.95 807.21
  Q 181.75 805.23 184.20 805.53
  A 1.33 1.32 -83.4 0 1 185.35 806.99
  Q 184.89 811.44 183.13 816.41
  Q 178.77 828.70 171.56 841.48
  C 165.40 852.39 156.73 861.90 148.41 870.20
  A 0.26 0.26 0.0 0 0 148.69 870.62
  Q 154.13 868.36 160.29 865.02
  C 176.06 856.47 186.82 841.53 195.56 825.84
  Q 196.07 824.93 198.86 821.98
  A 1.49 1.43 14.1 0 1 199.63 821.54
  Q 202.64 820.90 203.41 823.19
  A 2.61 2.59 37.6 0 1 203.53 824.09
  Q 203.23 829.62 202.38 834.61
  C 199.49 851.45 194.79 869.45 185.76 883.80
  Q 185.05 884.92 183.75 886.46
  A 0.29 0.28 7.0 0 0 184.10 886.90
  C 204.24 877.35 211.92 855.95 214.49 835.50
  Q 216.07 822.94 217.29 807.26
  Q 217.65 802.61 220.39 782.59
  C 221.84 771.97 225.09 762.65 231.12 755.14
  Q 240.63 743.28 255.73 741.42
  C 272.64 739.33 286.07 740.42 307.00 741.25
  Q 311.45 741.43 313.95 740.78
  A 6.25 6.02 -65.7 0 0 315.20 740.28
  Q 315.32 740.22 318.57 737.08
  Q 320.62 735.10 324.00 734.94
  Q 332.63 734.51 334.32 734.33
  C 340.92 733.62 346.06 732.38 349.24 726.22
  C 352.67 719.57 356.49 710.94 361.43 704.50
  Q 365.34 699.40 374.61 685.89
  Q 390.21 663.13 400.99 637.27
  Q 408.62 618.99 415.28 594.43
  C 417.31 586.98 419.26 576.33 419.61 569.39
  Q 420.58 549.99 411.06 533.74
  C 409.96 531.86 408.91 529.30 410.10 527.51
  Q 412.04 524.60 415.46 526.60
  C 435.85 538.49 439.21 563.53 435.86 584.52
  A 0.43 0.43 0.0 0 0 436.60 584.87
  Q 450.80 569.19 462.10 550.86
  Q 468.07 541.18 472.87 534.00
  A 0.44 0.44 0.0 0 0 472.57 533.32
  C 462.42 531.90 452.91 528.58 446.14 520.66
  C 444.50 518.74 442.11 514.92 444.28 512.76
  Q 447.44 509.61 451.52 512.23
  C 460.34 517.89 471.16 521.75 481.39 520.32
  C 490.62 519.04 498.04 514.36 505.04 508.22
  C 510.73 503.23 515.47 505.68 522.56 507.10
  C 528.28 508.24 533.13 507.13 537.79 504.22
  A 0.61 0.61 0.0 0 0 537.75 503.17
  C 534.55 501.44 530.04 499.26 530.67 495.18
  C 531.09 492.48 534.26 490.75 536.55 491.47
  Q 544.48 493.95 549.56 495.13
  C 558.87 497.29 565.98 493.37 571.49 486.36
  A 0.51 0.51 0.0 0 0 571.03 485.54
  Q 565.21 486.30 560.45 484.65
  C 556.34 483.22 554.47 481.03 555.99 476.69
  A 2.61 2.60 12.4 0 1 558.72 474.95
  Q 566.25 475.74 575.10 474.95
  C 583.71 474.18 589.86 467.53 593.66 460.19
  A 0.53 0.53 0.0 0 0 593.11 459.42
  Q 586.67 460.33 581.28 460.18
  Q 578.13 460.10 576.19 458.18
  C 574.03 456.05 575.20 453.50 576.37 451.11
  C 579.70 444.29 588.07 448.49 594.04 445.95
  C 601.52 442.76 605.48 436.09 607.52 428.59
  A 0.40 0.39 85.7 0 0 606.98 428.12
  C 603.77 429.54 591.88 432.73 590.86 427.00
  C 590.14 422.98 593.53 420.23 596.87 419.10
  C 602.84 417.07 614.46 412.03 616.27 406.45
  Q 618.00 401.12 616.00 395.91
  A 1.23 1.22 -25.4 0 0 614.24 395.29
  C 610.38 397.50 605.21 401.16 601.16 401.40
  A 2.40 1.99 -7.7 0 1 598.76 399.90
  Q 598.27 397.88 599.34 395.83
  Q 605.06 384.88 612.84 375.61
  Q 617.92 369.56 622.88 365.57
  A 0.73 0.72 38.8 0 0 622.74 364.35
  C 616.31 361.18 608.23 364.35 602.67 368.48
  Q 598.99 371.22 595.10 375.84
  Q 593.40 377.85 591.01 378.52
  A 3.20 2.75 -25.8 0 1 587.87 377.69
  Q 587.26 376.96 587.15 375.42
  A 3.59 2.94 -48.8 0 1 587.17 374.79
  Q 587.49 371.85 590.96 364.73
  Q 594.39 357.67 598.70 354.13
  C 608.10 346.40 618.24 343.10 630.26 348.81
  A 1.11 1.11 0.0 0 0 631.79 348.15
  Q 633.71 342.27 636.06 332.55
  Q 640.56 313.95 649.47 298.59
  A 3.03 3.03 0.0 0 0 649.12 295.06
  L 641.52 286.46
  A 0.24 0.24 0.0 0 0 641.12 286.54
  Q 636.52 300.70 627.64 312.11
  C 622.91 318.19 613.72 323.95 606.05 319.65
  A 2.90 2.89 21.6 0 1 604.65 316.43
  Q 605.28 313.90 608.07 312.30
  C 620.07 305.40 625.65 289.19 626.73 275.75
  Q 626.92 273.46 625.72 272.45
  Q 620.00 267.65 617.34 265.30
  A 0.28 0.28 0.0 0 0 616.88 265.49
  C 616.40 275.10 610.45 286.39 604.84 293.58
  C 592.77 309.06 574.67 319.28 556.20 326.55
  A 1.02 1.02 0.0 0 0 555.68 328.00
  C 557.58 331.37 560.35 338.83 558.41 342.07
  C 556.12 345.89 552.12 343.94 550.23 341.10
  C 546.13 334.97 540.87 325.63 534.49 325.02
  Q 527.21 324.32 519.72 326.23
  Q 510.56 328.56 505.76 328.85
  Q 499.85 329.19 499.06 323.90
  Q 494.17 291.31 474.15 266.38
  Q 467.08 257.58 453.52 244.66
  A 0.07 0.06 48.6 0 0 453.44 244.65
  L 453.00 244.89
  A 0.22 0.22 0.0 0 0 452.94 245.23"
/>
<path stroke="#3c8dc1" vector-effect="non-scaling-stroke" d="
  M 769.73 378.30
  Q 776.84 379.60 781.99 378.17
  C 784.74 377.41 786.42 375.65 787.59 373.29
  Q 791.80 364.73 792.32 355.25
  C 793.97 324.84 778.96 297.43 759.95 274.92
  Q 738.31 249.29 711.87 228.91
  Q 686.52 209.38 662.83 196.42
  Q 641.39 184.69 615.61 173.17
  C 600.61 166.47 585.23 160.24 568.95 156.51
  C 552.95 152.84 541.88 150.30 526.49 148.35
  Q 509.08 146.15 494.51 147.39
  C 482.45 148.42 467.76 153.53 466.50 167.50
  C 466.00 173.02 467.36 181.99 472.26 185.57
  Q 475.97 188.27 479.04 188.76
  C 484.35 189.59 491.46 189.74 497.62 191.02
  Q 519.87 195.63 538.92 202.85
  Q 551.89 207.76 568.80 215.25
  Q 592.49 225.74 613.67 241.38
  Q 630.75 253.99 648.65 271.60
  Q 662.15 284.87 666.33 289.67
  Q 677.45 302.43 701.44 332.07
  C 715.46 349.40 731.59 364.97 751.94 373.43
  Q 758.86 376.31 769.73 378.30"
/>
<path stroke="#3c8dc1" vector-effect="non-scaling-stroke" d="
  M 189.63 328.76
  Q 190.05 328.66 190.45 328.20
  Q 212.20 302.75 237.31 272.81
  C 258.51 247.55 281.89 221.16 305.93 199.38
  Q 325.36 181.77 345.33 166.67
  A 0.50 0.49 33.7 0 0 345.15 165.80
  Q 322.83 159.91 299.45 156.34
  C 277.91 153.05 256.25 152.19 235.26 153.25
  Q 187.79 155.65 141.96 168.76
  Q 125.14 173.58 122.93 174.31
  A 0.25 0.25 0.0 0 0 122.96 174.80
  C 152.97 181.27 175.79 206.65 186.07 234.96
  C 196.61 263.95 195.74 295.77 190.01 325.54
  Q 189.72 327.04 189.15 328.14
  A 0.43 0.43 0.0 0 0 189.63 328.76"
/>
<path stroke="#3c8dc1" vector-effect="non-scaling-stroke" d="
  M 513.98 211.73
  C 513.99 215.41 515.00 222.17 517.91 224.90
  Q 521.22 228.01 525.66 230.01
  A 0.79 0.79 0.0 0 0 526.78 229.29
  L 526.78 215.92
  A 1.63 1.62 -81.9 0 0 525.61 214.36
  L 514.70 211.20
  A 0.56 0.55 8.2 0 0 513.98 211.73"
/>
<path stroke="#3c8dc1" vector-effect="non-scaling-stroke" d="
  M 540.43 220.36
  Q 539.74 227.46 540.99 236.59
  Q 541.28 238.67 542.82 239.97
  Q 546.43 243.00 549.45 245.23
  A 0.61 0.61 0.0 0 0 550.39 244.94
  Q 553.47 235.75 552.90 226.65
  A 2.60 2.59 10.3 0 0 551.37 224.45
  L 541.22 219.90
  A 0.57 0.57 0.0 0 0 540.43 220.36"
/>
<path stroke="#3c8dc1" vector-effect="non-scaling-stroke" d="
  M 566.14 231.96
  L 566.14 252.84
  A 3.94 3.93 18.1 0 0 567.76 256.02
  L 573.28 260.05
  A 0.43 0.43 0.0 0 0 573.91 259.90
  Q 578.45 251.38 579.35 241.71
  Q 579.67 238.26 576.73 236.84
  Q 569.70 233.45 566.56 231.71
  A 0.28 0.28 0.0 0 0 566.14 231.96"
/>
<path stroke="#3c8dc1" vector-effect="non-scaling-stroke" d="
  M 758.54 246.62
  Q 769.63 257.90 779.72 270.57
  A 0.62 0.62 0.0 0 0 780.72 270.53
  Q 782.85 267.35 786.96 264.22
  Q 800.49 253.92 815.25 248.28
  A 0.42 0.42 0.0 0 0 815.23 247.49
  Q 799.49 242.62 782.75 243.48
  Q 770.87 244.09 758.67 246.23
  A 0.23 0.23 0.0 0 0 758.54 246.62"
/>
<path stroke="#3c8dc1" vector-effect="non-scaling-stroke" d="
  M 591.13 246.76
  Q 591.32 249.10 590.95 251.49
  Q 589.26 262.17 586.40 271.25
  A 2.47 2.45 33.2 0 0 586.90 273.60
  L 592.18 279.56
  A 0.55 0.55 0.0 0 0 593.02 279.54
  Q 601.09 269.54 604.29 257.86
  A 2.62 2.61 -64.4 0 0 603.31 255.05
  L 591.59 246.50
  A 0.29 0.29 0.0 0 0 591.13 246.76"
/>
<path stroke="#3c8dc1" vector-effect="non-scaling-stroke" d="
  M 660.97 309.02
  C 659.33 310.68 658.19 313.13 656.90 315.37
  Q 645.67 334.90 647.02 356.95
  C 647.53 365.39 651.56 371.89 657.18 378.07
  Q 663.55 385.07 668.22 389.78
  Q 678.12 399.75 683.11 413.18
  Q 687.59 425.25 692.42 435.86
  Q 698.02 448.19 711.35 452.11
  Q 718.11 454.10 724.66 451.88
  A 0.75 0.75 0.0 0 0 724.75 450.50
  C 707.79 442.17 698.68 427.53 692.56 409.71
  Q 691.67 407.12 684.01 383.02
  Q 681.92 376.44 673.17 356.49
  Q 671.58 352.88 670.62 342.93
  A 7.75 7.53 -41.5 0 1 670.81 340.39
  Q 672.15 335.06 672.94 328.05
  Q 673.75 320.91 669.68 316.36
  Q 664.19 310.24 662.63 308.93
  A 1.23 1.23 0.0 0 0 660.97 309.02"
/>
<path stroke="#89b4d1" vector-effect="non-scaling-stroke" d="
  M 706.13 359.49
  L 707.24 378.01
  A 1.24 1.23 84.0 0 0 708.65 379.16
  Q 714.77 378.22 721.48 373.83
  A 1.38 1.38 0.0 0 0 721.53 371.55
  Q 714.51 366.49 707.22 359.00
  A 0.64 0.63 -68.9 0 0 706.13 359.49"
/>
<path stroke="#89b4d1" vector-effect="non-scaling-stroke" d="
  M 733.74 380.18
  A 0.43 0.43 0.0 0 0 733.11 380.54
  Q 732.86 384.96 732.35 389.46
  Q 732.10 391.65 733.45 393.89
  A 1.22 1.22 0.0 0 0 735.36 394.12
  L 743.30 386.18
  A 0.70 0.69 -54.1 0 0 743.13 385.07
  L 733.74 380.18"
/>
<path stroke="#89b4d1" vector-effect="non-scaling-stroke" d="
  M 766.39 395.96
  A 0.98 0.98 0.0 0 0 766.03 394.36
  L 760.23 392.21
  A 0.98 0.98 0.0 0 0 758.91 393.20
  L 759.39 400.81
  A 0.98 0.98 0.0 0 0 761.07 401.43
  L 766.39 395.96"
/>
<path stroke="#89b4d1" vector-effect="non-scaling-stroke" d="
  M 705.75 412.99
  L 710.16 397.75
  A 0.49 0.49 0.0 0 0 709.58 397.14
  L 702.79 398.82
  A 1.17 1.17 0.0 0 0 701.93 400.24
  L 705.08 412.98
  A 0.35 0.35 0.0 0 0 705.75 412.99"
/>
<path stroke="#3c8dc1" vector-effect="non-scaling-stroke" d="
  M 123.58 399.40
  C 122.36 399.95 120.05 401.00 118.78 401.90
  Q 91.87 420.79 73.73 447.24
  C 71.93 449.86 73.80 450.98 76.05 452.66
  Q 79.78 455.44 83.95 456.29
  A 1.55 1.55 0.0 0 0 85.72 455.29
  Q 89.24 445.20 96.19 437.70
  Q 98.06 435.68 99.76 434.79
  A 3.03 2.94 -36.1 0 1 103.26 435.29
  Q 104.69 436.73 104.18 439.28
  Q 103.31 443.62 102.54 447.66
  A 0.60 0.60 0.0 0 0 103.08 448.37
  L 103.12 448.37
  A 0.75 0.73 -80.4 0 0 103.88 447.82
  C 108.26 430.72 114.41 414.52 123.85 399.72
  A 0.22 0.22 0.0 0 0 123.58 399.40"
/>
<path stroke="#89b4d1" vector-effect="non-scaling-stroke" d="
  M 724.30 416.15
  C 720.33 419.51 715.87 421.20 710.66 422.52
  A 0.73 0.73 0.0 0 0 710.21 423.60
  C 712.25 427.08 718.76 434.94 722.87 434.97
  A 0.75 0.75 0.0 0 0 723.63 434.28
  L 725.01 416.51
  A 0.43 0.43 0.0 0 0 724.30 416.15"
/>
<path stroke="#3c8dc1" vector-effect="non-scaling-stroke" d="
  M 895.99 480.85
  C 887.80 469.39 873.36 462.48 859.47 462.11
  Q 849.31 461.83 843.43 463.43
  Q 835.98 465.46 830.13 466.88
  C 822.62 468.69 817.99 464.08 821.12 456.63
  Q 824.57 448.43 829.61 441.58
  C 837.13 431.35 849.15 423.40 860.88 418.88
  A 0.64 0.64 0.0 0 0 860.89 417.69
  Q 859.43 417.12 856.99 416.99
  Q 841.55 416.19 829.94 425.47
  Q 820.85 432.74 814.15 444.15
  Q 807.91 454.77 804.82 459.09
  Q 798.09 468.50 787.56 473.82
  C 769.28 483.06 751.51 489.11 729.98 495.20
  Q 724.86 496.64 671.62 511.37
  C 667.47 512.52 664.38 508.06 662.02 504.69
  C 655.61 495.53 647.67 481.04 632.49 455.03
  Q 628.19 447.65 623.80 440.97
  A 0.52 0.52 0.0 0 0 622.87 441.10
  Q 617.70 457.41 609.70 472.61
  A 2.68 2.66 44.3 0 0 609.74 475.14
  Q 610.90 477.21 612.74 479.81
  Q 629.80 503.86 649.10 523.72
  Q 659.84 534.76 673.32 533.72
  C 682.23 533.04 692.46 529.78 702.05 526.53
  C 726.86 518.14 752.58 505.43 775.77 497.11
  Q 782.28 494.77 784.29 501.22
  C 787.29 510.90 789.94 520.52 797.23 527.90
  A 0.35 0.35 0.0 0 0 797.82 527.55
  Q 796.34 522.50 796.24 515.86
  C 796.09 504.46 801.92 496.10 813.83 494.90
  C 830.54 493.21 846.87 501.49 856.71 514.82
  Q 863.16 523.55 867.40 535.63
  Q 867.63 536.30 868.11 536.51
  A 0.25 0.24 15.4 0 0 868.45 536.32
  Q 870.24 523.50 865.96 511.33
  C 860.14 494.79 843.20 487.40 826.38 488.27
  A 1.56 1.55 83.8 0 1 824.77 486.97
  C 824.04 482.49 828.54 478.65 832.17 476.26
  Q 835.35 474.16 840.06 473.49
  C 859.51 470.72 878.51 471.61 895.55 481.34
  A 0.34 0.34 0.0 0 0 895.99 480.85"
/>
<path stroke="#3c8dc1" vector-effect="non-scaling-stroke" d="
  M 74.46 492.72
  L 81.06 469.94
  A 1.48 1.48 0.0 0 0 80.32 468.22
  L 73.07 464.45
  A 1.40 1.40 0.0 0 0 71.20 465.01
  Q 65.26 475.81 62.15 487.60
  A 1.51 1.51 0.0 0 0 62.96 489.35
  Q 68.84 492.16 74.03 493.00
  A 0.40 0.39 -77.1 0 0 74.46 492.72"
/>
<path stroke="#3c8dc1" vector-effect="non-scaling-stroke" d="
  M 58.46 499.73
  Q 54.54 512.32 54.11 525.66
  A 3.15 3.14 -75.8 0 0 55.83 528.56
  C 59.59 530.45 65.61 530.93 69.58 531.08
  A 0.64 0.63 -88.3 0 0 70.24 530.45
  Q 70.33 517.85 72.16 506.04
  A 1.34 1.33 16.6 0 0 71.38 504.61
  L 59.46 499.27
  A 0.73 0.73 0.0 0 0 58.46 499.73"
/>
<path stroke="#3c8dc1" vector-effect="non-scaling-stroke" d="
  M 55.20 543.36
  Q 54.74 544.66 55.28 551.74
  Q 56.06 562.01 58.21 571.15
  A 0.66 0.65 78.4 0 0 58.96 571.65
  L 73.97 568.94
  A 1.08 1.07 79.8 0 0 74.83 567.69
  L 70.66 544.60
  A 0.69 0.69 0.0 0 0 70.13 544.05
  Q 62.93 542.33 55.98 542.77
  A 0.87 0.87 0.0 0 0 55.20 543.36"
/>
<path stroke="#3c8dc1" vector-effect="non-scaling-stroke" d="
  M 547.71 826.47
  Q 547.88 826.22 547.98 825.70
  C 550.02 815.30 549.15 805.48 544.67 795.67
  Q 539.98 785.38 533.42 777.08
  Q 525.15 766.63 513.26 753.58
  C 504.32 743.77 496.08 733.38 487.48 723.09
  C 482.92 717.63 483.67 713.12 488.75 708.50
  Q 498.45 699.65 512.86 691.64
  Q 517.82 688.88 554.88 669.63
  Q 574.54 659.42 592.34 645.09
  C 600.60 638.43 609.03 631.49 609.33 620.28
  C 609.74 605.03 596.42 595.49 583.58 588.68
  Q 573.65 583.42 561.24 578.52
  Q 543.01 571.33 539.99 570.28
  Q 526.95 565.75 520.80 564.44
  Q 501.56 560.36 481.67 557.94
  A 1.99 1.99 0.0 0 0 479.77 558.81
  Q 463.98 582.70 445.37 604.06
  A 0.85 0.85 0.0 0 0 445.64 605.38
  Q 448.36 606.71 451.20 607.55
  Q 483.69 617.16 517.49 617.10
  Q 530.31 617.07 547.50 616.01
  C 553.16 615.66 574.02 614.86 572.29 623.69
  C 571.62 627.12 567.44 628.45 564.23 629.25
  C 559.36 630.46 551.62 631.02 545.94 632.94
  Q 531.84 637.70 523.07 648.88
  Q 520.49 652.16 515.10 661.62
  C 509.92 670.69 505.72 677.17 499.13 683.38
  Q 486.10 695.64 469.87 702.36
  Q 456.49 707.90 454.73 708.75
  C 445.78 713.11 451.50 723.81 455.92 729.33
  Q 467.54 743.81 468.92 745.50
  C 480.18 759.30 489.78 774.15 494.76 790.17
  Q 499.59 805.70 500.50 822.31
  A 11.97 11.79 30.5 0 0 501.76 827.04
  Q 507.69 838.73 511.46 851.57
  A 0.44 0.44 0.0 0 0 512.14 851.79
  Q 512.53 851.51 512.72 850.97
  C 517.18 838.39 519.66 823.79 517.32 810.73
  Q 515.78 802.12 511.66 794.10
  Q 507.36 785.71 505.37 780.49
  C 504.07 777.07 506.30 771.18 511.12 772.91
  Q 513.46 773.75 515.71 776.03
  C 525.66 786.14 531.97 798.47 537.11 811.85
  A 1.32 1.29 17.7 0 0 537.27 812.15
  L 546.97 826.47
  A 0.45 0.45 0.0 0 0 547.71 826.47"
/>
<path stroke="#3c8dc1" vector-effect="non-scaling-stroke" d="
  M 92.27 600.63
  Q 85.46 591.36 81.44 582.60
  Q 80.77 581.14 79.58 579.64
  A 1.35 1.34 -28.2 0 0 78.11 579.20
  L 62.59 584.27
  A 1.69 1.68 70.8 0 0 61.53 586.47
  Q 66.05 598.54 72.90 610.04
  A 1.11 1.11 0.0 0 0 74.31 610.48
  L 91.82 602.37
  A 1.16 1.16 0.0 0 0 92.27 600.63"
/>
<path stroke="#3c8dc1" vector-effect="non-scaling-stroke" d="
  M 308.01 602.72
  Q 307.61 602.75 307.15 603.15
  Q 296.62 612.32 287.76 618.76
  Q 286.01 620.03 284.85 621.17
  A 3.08 3.02 82.0 0 0 284.26 621.97
  Q 283.91 622.65 283.98 625.97
  Q 284.27 640.44 293.19 651.23
  C 295.41 653.92 298.90 651.92 300.65 649.96
  A 1.21 1.17 -21.8 0 0 300.95 649.29
  Q 303.58 626.59 308.74 603.56
  A 0.69 0.69 0.0 0 0 308.01 602.72"
/>
<path stroke="#3c8dc1" vector-effect="non-scaling-stroke" d="
  M 80.92 623.86
  Q 90.69 637.22 103.08 647.04
  A 0.78 0.77 -56.8 0 0 104.25 646.79
  Q 110.25 635.42 119.58 626.77
  A 0.54 0.54 0.0 0 0 119.53 625.94
  Q 111.10 619.76 102.12 611.80
  Q 99.90 609.84 97.36 611.30
  Q 88.73 616.23 81.06 622.71
  A 0.85 0.85 0.0 0 0 80.92 623.86"
/>
<path stroke="#3c8dc1" vector-effect="non-scaling-stroke" d="
  M 271.28 630.92
  C 263.66 636.21 257.87 638.68 246.64 643.77
  C 244.26 644.85 243.80 645.59 244.09 648.20
  Q 245.37 659.80 248.43 670.83
  Q 248.84 672.34 249.53 673.63
  A 1.29 1.28 69.1 0 0 250.96 674.28
  C 262.46 671.50 272.91 668.26 282.55 662.22
  A 0.86 0.86 0.0 0 0 282.70 660.89
  Q 280.14 658.33 278.45 654.79
  Q 273.14 643.61 272.16 631.34
  A 0.56 0.56 0.0 0 0 271.28 630.92"
/>
<path stroke="#3c8dc1" vector-effect="non-scaling-stroke" d="
  M 151.11 642.97
  A 1.33 1.32 23.6 0 0 150.35 641.04
  Q 138.15 637.29 129.10 631.88
  A 0.72 0.72 0.0 0 0 128.19 632.02
  C 124.81 635.96 121.63 639.85 118.97 644.57
  Q 114.34 652.77 114.29 652.86
  A 1.57 1.56 30.6 0 0 114.83 654.94
  Q 126.50 662.28 139.77 667.13
  A 0.89 0.88 -71.2 0 0 140.92 666.56
  Q 145.25 652.99 151.11 642.97"
/>
<path stroke="#3c8dc1" vector-effect="non-scaling-stroke" d="
  M 189.94 677.32
  Q 187.29 665.19 192.28 653.56
  A 0.87 0.86 -73.2 0 0 191.64 652.36
  Q 179.63 650.17 165.45 646.27
  Q 163.90 645.84 162.46 646.04
  A 1.25 1.24 -77.9 0 0 161.57 646.62
  C 156.62 654.70 154.87 661.25 153.51 670.16
  A 1.67 1.66 16.4 0 0 154.48 671.93
  Q 156.75 672.97 159.76 673.74
  Q 174.35 677.49 189.28 678.10
  A 0.64 0.64 0.0 0 0 189.94 677.32"
/>
<path stroke="#3c8dc1" vector-effect="non-scaling-stroke" d="
  M 233.27 648.28
  L 206.34 651.77
  A 2.59 2.57 6.7 0 0 204.26 653.40
  C 201.63 660.20 200.40 669.57 203.33 676.52
  A 2.52 2.51 -3.0 0 0 204.93 677.95
  Q 207.87 678.83 211.00 678.88
  Q 222.63 679.07 230.27 678.28
  Q 232.52 678.05 234.40 677.56
  A 1.04 1.04 0.0 0 0 235.14 676.28
  C 232.65 667.19 231.54 657.62 233.28 648.29
  A 0.01 0.01 0.0 0 0 233.27 648.28"
/>
<path stroke="#3c8dc1" vector-effect="non-scaling-stroke" d="
  M 534.11 359.96
  C 529.75 357.97 528.47 363.18 528.80 366.28
  C 530.30 380.35 538.37 392.51 549.89 400.42
  Q 562.67 409.20 577.36 406.01
  Q 581.31 405.15 581.86 401.05
  Q 582.53 395.96 577.49 395.29
  Q 569.68 394.26 563.40 390.83
  Q 552.65 384.97 545.82 375.50
  Q 543.16 371.81 538.30 364.53
  Q 535.74 360.71 534.11 359.96"
/>
<path stroke="#3c8dc1" vector-effect="non-scaling-stroke" d="
  M 515.88 383.15
  C 514.97 380.68 512.41 378.86 509.98 380.76
  Q 507.08 383.05 506.67 386.43
  C 505.39 397.01 511.06 408.69 518.43 416.12
  C 528.70 426.46 540.45 433.63 554.70 437.14
  Q 559.58 438.34 562.79 437.73
  C 566.36 437.06 571.71 434.30 571.94 430.22
  C 572.19 425.94 569.67 425.43 565.80 424.77
  Q 550.74 422.21 540.53 415.21
  Q 528.97 407.29 521.90 396.86
  C 518.86 392.38 517.90 388.57 515.88 383.15"
/>
<path stroke="#3c8dc1" vector-effect="non-scaling-stroke" d="
  M 489.03 413.48
  C 487.10 409.20 483.03 408.38 480.93 413.23
  C 476.04 424.51 487.30 440.75 495.54 447.55
  Q 501.39 452.38 510.67 457.54
  C 520.48 462.99 532.92 467.74 544.27 467.00
  Q 551.30 466.53 551.68 460.00
  C 551.79 458.00 550.77 456.29 548.89 455.85
  Q 543.46 454.59 539.69 453.57
  Q 527.98 450.42 516.71 444.02
  Q 497.97 433.40 489.03 413.48"
/>
<path stroke="#3c8dc1" vector-effect="non-scaling-stroke" d="
  M 334.26 681.06
  Q 336.92 680.42 337.74 677.97
  Q 340.99 668.27 343.01 659.00
  C 346.54 642.79 354.65 612.72 358.06 589.02
  Q 358.55 585.63 358.62 581.13
  C 358.66 578.25 357.40 576.02 354.23 577.20
  A 2.23 2.19 11.0 0 0 353.40 577.75
  C 350.14 581.21 348.49 586.21 347.17 591.15
  C 339.73 619.06 333.35 643.03 330.20 669.94
  Q 329.64 674.69 330.18 677.86
  Q 330.51 679.79 333.22 680.97
  A 1.66 1.62 49.1 0 0 334.26 681.06"
/>
</g>
<g fill="#146ba5">
<path d="
  M 33.14 0.00
  Q 75.11 1.92 116.30 9.96
  Q 180.85 22.56 239.27 49.75
  Q 282.31 69.78 319.68 99.06
  Q 325.23 103.41 335.63 112.61
  Q 351.91 127.00 363.05 142.18
  Q 364.61 144.32 365.79 146.52
  A 0.71 0.70 51.2 0 0 366.95 146.65
  Q 369.29 143.88 370.36 140.79
  C 374.54 128.77 369.88 120.58 364.67 110.15
  Q 362.80 106.42 365.29 101.35
  A 2.15 2.14 -2.0 0 1 366.16 100.42
  C 373.07 96.50 378.95 101.01 383.79 106.15
  Q 397.19 120.37 401.37 139.10
  C 404.21 151.88 402.99 163.51 398.34 175.67
  C 395.56 182.90 391.62 190.19 387.00 196.64
  Q 384.03 200.78 383.36 202.61
  C 374.84 225.67 375.25 252.60 382.07 275.91
  A 3.48 3.45 -83.8 0 0 383.71 277.97
  Q 389.31 281.09 396.83 284.39
  Q 420.55 294.80 446.18 302.91
  C 448.41 303.62 451.60 304.02 452.78 305.08
  A 0.50 0.50 0.0 0 0 453.57 304.91
  Q 454.39 303.09 453.94 300.27
  C 449.98 275.87 441.49 252.98 426.28 233.47
  Q 421.74 227.64 415.86 221.51
  Q 412.74 218.25 412.20 216.23
  C 410.53 209.95 414.89 204.97 421.44 206.03
  C 422.72 206.23 425.38 206.97 427.22 207.73
  Q 446.32 215.66 466.70 233.13
  C 489.10 252.33 507.03 276.39 513.24 305.16
  A 1.10 1.08 -5.8 0 0 514.31 306.02
  L 526.69 306.02
  A 1.31 1.30 -4.8 0 0 527.98 304.50
  Q 525.63 290.62 521.70 279.43
  C 519.75 273.88 521.00 267.93 527.10 266.05
  A 2.12 2.06 42.1 0 1 528.20 266.01
  Q 531.87 266.87 533.09 267.66
  Q 551.67 279.65 559.26 300.34
  A 1.31 1.31 0.0 0 0 560.95 301.11
  Q 570.26 297.60 578.46 291.15
  A 1.72 1.71 52.9 0 0 578.78 288.79
  Q 577.00 286.36 574.88 284.35
  C 554.69 265.21 534.30 252.78 506.93 236.01
  Q 499.03 231.17 492.67 226.91
  C 477.11 216.49 462.00 206.16 452.67 189.62
  C 446.29 178.30 444.47 166.10 450.37 154.14
  Q 453.37 148.06 456.67 144.67
  C 470.66 130.30 491.06 127.79 510.76 128.29
  Q 526.87 128.70 544.30 131.94
  Q 575.11 137.67 601.17 147.37
  Q 645.19 163.76 683.24 186.52
  Q 696.74 194.60 705.37 201.17
  Q 706.37 201.93 707.35 202.83
  A 1.66 1.66 0.0 0 0 709.68 202.76
  Q 714.57 197.66 721.75 190.76
  C 753.11 160.56 791.67 136.39 833.10 122.01
  Q 856.12 114.02 879.47 109.68
  Q 895.75 106.65 912.11 106.89
  C 916.23 106.95 919.76 106.83 923.80 107.98
  Q 928.08 109.20 929.00 113.51
  L 929.00 116.65
  Q 927.60 119.99 925.33 121.36
  Q 912.86 128.93 900.45 138.66
  Q 872.53 160.57 856.98 192.18
  Q 852.91 200.45 850.93 210.84
  Q 848.80 222.03 851.77 232.24
  Q 853.73 238.96 856.64 245.15
  C 859.19 250.56 861.01 255.33 855.87 258.50
  Q 854.51 259.34 850.06 259.38
  C 836.22 259.50 822.09 263.69 809.85 270.91
  Q 804.16 274.28 798.25 278.78
  Q 796.50 280.11 790.60 284.70
  A 1.26 1.26 0.0 0 0 790.29 286.33
  Q 804.15 309.77 808.09 336.62
  Q 808.90 342.14 809.14 351.75
  Q 809.41 362.33 806.44 373.17
  C 803.18 385.05 794.43 396.61 780.97 395.95
  A 0.92 0.92 0.0 0 0 780.08 396.51
  C 777.06 403.69 771.31 410.65 764.53 414.72
  C 762.13 416.16 757.88 417.18 755.93 414.40
  C 752.93 410.12 749.42 402.57 750.02 396.99
  A 1.06 1.06 0.0 0 0 748.15 396.20
  Q 744.56 400.54 740.30 402.29
  A 2.16 2.16 0.0 0 0 738.96 404.36
  C 739.07 407.30 737.99 409.26 737.96 412.07
  Q 737.88 419.99 738.02 425.39
  A 0.47 0.47 0.0 0 0 738.83 425.71
  C 741.69 422.79 744.81 418.38 748.38 421.24
  A 2.68 2.67 -86.8 0 1 748.94 421.87
  Q 751.50 425.89 751.17 429.52
  Q 750.08 441.38 745.26 449.26
  Q 742.57 453.64 736.77 458.78
  C 727.60 466.89 714.56 470.23 702.67 466.72
  Q 695.79 464.69 689.29 460.22
  C 678.33 452.68 673.76 438.98 670.10 426.89
  C 666.65 415.50 658.75 407.39 649.43 397.24
  C 645.86 393.34 643.01 389.73 639.69 385.35
  Q 636.58 381.24 635.16 378.00
  A 1.61 1.61 0.0 0 0 632.38 377.70
  L 630.11 380.82
  A 3.17 3.16 48.2 0 0 629.92 384.27
  Q 632.99 389.61 633.67 391.15
  C 637.41 399.58 635.66 407.34 633.29 415.86
  A 3.70 3.64 39.7 0 0 633.56 418.53
  C 643.14 437.31 654.32 457.15 670.30 485.45
  Q 671.97 488.39 673.08 490.02
  A 2.66 2.65 65.5 0 0 675.91 491.08
  Q 700.84 484.81 723.11 478.80
  Q 728.71 477.29 733.92 475.57
  C 738.63 474.01 743.46 472.72 748.30 471.00
  Q 774.74 461.62 776.52 461.00
  Q 779.78 459.86 783.74 458.00
  A 4.63 4.35 -76.6 0 0 784.74 457.34
  Q 793.55 449.71 796.13 445.60
  C 800.88 438.02 803.91 432.11 809.90 424.67
  Q 832.12 397.03 868.32 405.18
  Q 879.56 407.71 888.53 414.97
  Q 890.68 416.72 891.71 420.29
  A 2.03 1.97 -45.9 0 1 891.71 421.40
  Q 891.04 423.79 889.25 425.19
  A 2.80 2.70 21.4 0 1 887.93 425.74
  Q 880.38 426.69 877.73 427.19
  C 866.61 429.31 854.54 436.29 846.38 443.98
  Q 845.63 444.70 844.71 446.44
  Q 844.14 447.51 843.18 448.36
  A 0.37 0.37 0.0 0 0 843.41 449.01
  Q 849.11 449.31 854.20 448.40
  Q 856.49 447.98 859.24 448.01
  C 870.39 448.12 884.21 450.87 893.49 457.10
  C 903.62 463.90 910.90 473.72 913.98 485.71
  C 916.02 493.65 917.08 502.55 914.27 509.57
  C 912.56 513.84 905.53 514.46 903.12 510.63
  C 901.26 507.67 898.40 503.14 896.41 500.98
  Q 889.80 493.83 880.19 490.03
  Q 874.65 487.84 871.77 487.85
  C 869.82 487.86 868.44 486.62 866.51 486.99
  A 0.37 0.37 0.0 0 0 866.29 487.59
  Q 872.85 496.01 873.70 497.31
  Q 888.53 519.71 881.75 545.98
  Q 878.89 557.07 872.09 565.51
  Q 868.10 570.47 862.37 567.69
  A 1.83 1.79 -0.8 0 1 861.60 566.96
  Q 859.55 563.31 859.34 561.42
  Q 857.91 548.30 852.34 536.18
  Q 847.67 525.99 839.29 519.01
  Q 829.80 511.11 817.77 511.89
  C 812.47 512.23 809.04 514.08 810.33 519.93
  C 812.30 528.91 817.87 536.92 824.59 542.82
  C 826.28 544.30 827.38 546.62 827.06 548.91
  C 825.91 557.29 809.98 553.81 805.02 551.89
  Q 781.74 542.90 772.96 518.86
  A 1.48 1.48 0.0 0 0 771.03 517.99
  C 764.92 520.36 760.44 521.95 755.89 523.99
  Q 728.40 536.36 700.54 545.00
  Q 689.04 548.56 677.87 551.07
  C 669.72 552.89 661.70 553.53 654.15 550.62
  Q 650.73 549.30 646.40 545.05
  C 632.40 531.26 619.35 516.43 607.68 502.36
  Q 601.51 494.93 597.13 487.51
  A 1.18 1.18 0.0 0 0 595.42 487.15
  Q 594.03 488.15 593.29 489.05
  C 573.87 512.76 545.38 526.81 514.66 524.98
  A 3.65 3.59 -60.2 0 0 512.37 525.62
  L 492.41 539.46
  A 0.65 0.65 0.0 0 0 492.62 540.63
  Q 507.21 544.43 518.97 547.02
  Q 532.11 549.90 540.12 551.92
  C 553.45 555.29 569.01 561.93 581.69 567.56
  Q 597.34 574.50 608.85 583.65
  C 622.89 594.81 629.99 614.05 624.16 631.00
  Q 620.16 642.62 610.20 652.48
  C 597.39 665.18 581.96 674.27 565.26 683.24
  Q 562.56 684.68 526.24 703.00
  Q 513.75 709.30 503.38 716.39
  A 1.66 1.65 62.5 0 0 502.77 718.33
  Q 503.62 720.56 506.09 723.29
  C 518.81 737.28 533.66 752.33 542.08 762.59
  C 551.60 774.21 559.90 786.89 562.72 800.99
  C 566.11 817.99 563.37 835.69 554.24 850.49
  C 551.38 855.13 547.62 860.34 542.47 861.92
  A 3.14 3.14 0.0 0 1 541.51 862.05
  Q 536.08 861.94 536.02 856.22
  Q 535.91 844.74 532.53 834.81
  A 0.67 0.67 0.0 0 0 531.23 834.96
  Q 530.31 844.47 526.38 854.65
  Q 519.95 871.28 505.78 882.06
  C 502.17 884.80 495.24 885.12 495.12 878.97
  C 495.02 874.45 496.06 868.92 496.07 864.00
  C 496.07 858.78 496.49 854.04 495.65 852.12
  A 0.66 0.66 0.0 0 0 494.43 852.13
  Q 491.44 859.36 487.08 865.34
  C 484.23 869.28 480.49 872.19 475.42 868.96
  C 472.08 866.82 472.62 862.76 473.60 859.31
  Q 476.59 848.88 477.93 842.98
  Q 483.57 818.25 478.34 794.19
  C 476.04 783.66 470.05 774.04 462.83 764.15
  Q 453.68 751.61 442.24 737.51
  C 436.82 730.84 430.42 721.59 430.82 713.03
  C 431.24 703.93 438.26 698.07 446.39 694.61
  C 459.05 689.22 465.73 686.58 474.23 681.62
  C 484.23 675.79 492.12 666.99 497.88 657.12
  Q 501.74 650.50 503.68 646.84
  C 505.63 643.14 507.08 641.43 509.99 637.30
  A 1.39 1.39 0.0 0 0 508.94 635.11
  Q 494.15 634.22 476.87 632.08
  Q 459.57 629.94 440.30 624.23
  Q 434.66 622.56 428.77 619.97
  A 1.29 1.29 0.0 0 0 427.03 620.74
  Q 420.14 640.90 410.59 658.61
  Q 398.71 680.64 390.55 691.57
  Q 378.48 707.75 373.32 714.81
  C 371.31 717.56 369.70 721.74 368.37 725.96
  Q 361.78 747.00 339.73 750.67
  Q 337.77 750.99 329.56 751.28
  A 2.63 2.46 -56.4 0 0 328.63 751.50
  Q 321.50 754.61 321.40 754.65
  Q 313.56 757.80 305.51 757.94
  Q 290.06 758.20 278.06 757.46
  Q 266.65 756.75 255.51 758.33
  Q 248.90 759.26 243.20 764.20
  A 3.26 3.17 84.8 0 0 242.52 765.04
  C 237.00 775.03 235.03 785.15 233.84 796.26
  Q 232.30 810.72 229.40 834.97
  Q 227.28 852.74 221.16 867.44
  Q 216.24 879.28 205.93 889.65
  Q 195.65 899.98 180.74 905.24
  Q 174.98 907.27 166.45 907.22
  Q 160.43 907.18 158.69 902.62
  C 157.45 899.38 159.17 896.16 160.95 893.43
  Q 162.51 891.05 170.54 879.79
  Q 171.78 878.06 174.06 875.30
  A 0.64 0.64 0.0 0 0 173.18 874.39
  Q 172.51 874.91 165.88 878.60
  Q 150.84 886.96 132.94 886.11
  C 126.84 885.82 118.67 883.86 120.40 876.10
  A 2.51 2.30 71.5 0 1 120.80 875.20
  Q 123.59 871.39 127.82 867.82
  Q 132.16 864.17 149.84 849.96
  A 2.27 2.26 -17.1 0 0 150.68 848.38
  L 150.68 848.33
  A 0.51 0.51 0.0 0 0 149.89 847.87
  Q 141.98 853.02 131.53 853.15
  Q 118.43 853.33 108.81 848.47
  C 103.31 845.69 100.30 840.51 105.72 835.49
  C 108.69 832.74 112.43 831.87 115.46 830.28
  Q 128.18 823.63 138.43 812.67
  Q 156.08 793.80 167.72 769.98
  C 174.67 755.76 179.10 743.59 184.98 727.47
  C 187.39 720.85 190.92 715.78 197.56 713.19
  Q 200.41 712.07 207.10 712.01
  Q 210.12 711.98 219.75 711.81
  C 231.11 711.60 241.10 708.96 252.33 704.54
  C 269.74 697.70 280.40 692.33 295.09 691.80
  A 1.03 1.03 0.0 0 0 296.08 690.86
  L 297.27 676.44
  A 0.76 0.67 67.8 0 1 297.37 676.15
  Q 298.04 675.08 298.04 673.84
  A 1.40 1.39 -20.5 0 0 295.73 672.79
  C 294.54 673.82 292.53 675.87 290.46 677.07
  Q 280.22 683.00 270.56 686.32
  Q 247.56 694.20 222.99 695.70
  Q 187.09 697.88 153.50 689.29
  Q 101.16 675.89 69.53 632.44
  A 0.96 0.93 72.4 0 0 68.82 632.06
  C 62.72 631.87 57.20 629.24 56.14 622.52
  C 55.69 619.68 56.72 617.02 58.18 614.39
  A 2.19 2.17 -44.7 0 0 58.20 612.27
  Q 52.97 602.67 49.47 592.05
  A 4.52 4.46 13.7 0 0 48.41 590.33
  Q 47.94 589.87 44.71 588.23
  Q 40.15 585.90 38.96 580.04
  A 3.46 3.29 43.6 0 1 38.91 579.04
  Q 39.43 574.25 43.68 570.37
  A 1.66 1.66 0.0 0 0 44.18 568.83
  Q 42.01 557.98 41.89 548.13
  A 2.66 2.63 15.9 0 0 40.65 545.93
  C 36.11 543.09 32.99 539.85 34.08 533.87
  C 34.90 529.40 37.08 528.77 40.04 526.55
  A 1.30 1.30 0.0 0 0 40.55 525.70
  L 44.38 500.80
  A 1.08 1.05 34.5 0 0 44.23 500.05
  C 42.70 497.60 41.37 496.01 40.71 494.01
  Q 38.13 486.18 45.43 481.72
  A 0.88 0.57 -57.2 0 1 45.65 481.62
  L 49.15 480.69
  A 1.15 1.12 5.8 0 0 49.87 480.12
  L 57.88 464.72
  A 1.25 1.25 0.0 0 0 57.29 463.01
  C 55.69 462.27 52.60 460.37 51.17 458.40
  Q 48.80 455.15 51.02 450.79
  Q 53.77 445.43 54.60 444.09
  C 65.65 426.38 80.06 411.06 95.48 397.77
  Q 115.42 380.59 140.48 373.73
  Q 141.73 373.39 146.74 372.80
  C 149.76 372.45 152.90 372.86 155.16 375.28
  Q 158.41 378.78 156.37 383.39
  A 3.71 3.65 75.4 0 1 155.91 384.19
  C 153.86 387.01 150.38 390.41 148.02 393.55
  Q 130.29 417.13 122.15 446.15
  C 119.47 455.68 118.41 464.37 117.82 474.03
  Q 117.57 478.13 113.75 478.92
  C 107.97 480.11 103.37 472.51 100.44 468.62
  A 0.84 0.84 0.0 0 0 98.99 468.81
  Q 93.15 483.04 90.00 498.26
  C 84.86 523.07 85.57 550.19 95.79 573.48
  C 106.68 598.30 128.49 613.94 152.71 624.18
  Q 177.27 634.55 204.50 634.12
  Q 220.41 633.87 233.87 630.83
  Q 235.60 630.44 237.23 629.83
  A 4.26 4.25 87.5 0 0 239.83 626.99
  Q 241.36 621.46 244.38 616.78
  C 249.10 609.44 257.68 610.03 262.87 616.39
  A 1.61 1.61 0.0 0 0 264.93 616.77
  L 273.97 611.55
  A 2.28 2.28 0.0 0 0 275.02 608.95
  C 273.10 602.21 272.48 591.23 280.10 587.64
  C 282.55 586.48 287.54 586.65 289.97 587.58
  Q 291.74 588.26 296.45 590.79
  A 1.51 1.50 -57.8 0 0 298.39 590.34
  Q 300.79 586.97 304.05 582.91
  Q 305.89 580.61 304.38 577.78
  Q 301.40 572.14 300.28 566.49
  C 299.63 563.15 300.49 560.06 302.90 557.51
  Q 307.45 552.69 314.74 552.93
  Q 318.93 553.07 323.57 551.68
  A 1.57 1.57 0.0 0 0 324.38 551.11
  Q 326.57 548.18 329.12 543.86
  C 331.41 539.99 332.83 536.33 331.73 531.98
  A 2.42 2.33 20.0 0 0 331.31 531.12
  C 328.28 527.28 325.38 524.57 325.00 520.53
  C 324.28 512.83 328.69 507.67 335.99 506.33
  Q 338.51 505.86 342.97 506.97
  Q 348.37 508.32 353.27 509.94
  A 1.40 1.39 22.0 0 0 354.97 509.22
  Q 357.68 503.56 357.01 497.01
  Q 356.80 494.87 354.74 493.08
  Q 351.27 490.05 349.12 487.18
  A 3.61 3.50 -73.9 0 1 348.62 486.24
  C 346.02 478.72 351.27 472.60 358.74 471.95
  Q 370.31 470.94 382.44 475.35
  Q 384.17 475.98 385.56 476.98
  A 0.85 0.85 0.0 0 0 386.90 476.39
  C 387.59 470.30 387.51 460.95 382.98 456.46
  C 378.42 451.94 374.67 449.41 373.93 444.50
  A 3.19 3.11 -44.2 0 1 373.96 443.36
  Q 376.38 431.47 388.47 433.08
  Q 393.86 433.79 397.96 436.04
  Q 400.75 437.58 401.43 437.74
  A 0.49 0.48 -83.3 0 0 402.02 437.27
  L 402.13 428.74
  A 3.15 2.76 -41.3 0 1 402.23 427.98
  L 404.05 421.04
  A 1.76 1.75 -78.1 0 0 402.64 418.87
  C 402.42 418.83 400.57 419.47 399.71 419.56
  Q 383.44 421.20 363.26 420.95
  Q 360.43 420.92 357.81 422.81
  C 338.54 436.76 324.51 445.99 300.40 462.14
  Q 287.76 470.61 275.66 481.16
  C 272.63 483.79 273.83 485.41 276.06 488.03
  C 283.87 497.22 290.16 510.07 290.12 521.86
  C 290.05 541.07 277.20 559.71 259.34 566.55
  C 254.37 568.46 246.29 569.62 242.40 565.09
  Q 239.77 562.04 241.39 557.71
  A 4.40 4.36 76.9 0 1 242.26 556.30
  C 248.05 549.91 252.66 544.07 254.47 535.41
  Q 255.09 532.44 254.91 530.81
  C 254.28 525.22 246.53 520.40 241.76 519.20
  C 235.70 517.66 226.18 527.01 222.25 530.95
  Q 213.87 539.38 209.19 551.96
  C 206.00 560.55 205.54 568.03 207.18 576.78
  C 207.99 581.09 208.68 585.15 207.48 588.73
  C 206.30 592.27 200.80 592.79 198.24 591.50
  Q 188.00 586.33 181.46 576.80
  Q 169.70 559.67 173.70 539.87
  C 175.48 531.06 179.32 524.11 183.76 515.52
  A 0.48 0.48 0.0 0 0 183.13 514.86
  C 180.29 516.19 176.00 518.18 173.30 520.49
  Q 164.41 528.11 160.98 534.20
  Q 155.64 543.68 152.71 553.36
  Q 152.23 554.95 151.14 556.25
  Q 147.15 560.99 142.14 556.65
  C 140.64 555.34 138.59 550.19 137.94 547.79
  C 133.06 529.76 136.39 509.74 147.59 494.57
  Q 158.26 480.12 175.24 473.48
  C 185.93 469.29 198.97 467.11 211.19 463.68
  C 221.28 460.85 228.75 456.51 236.63 448.87
  Q 246.32 439.48 253.27 431.77
  Q 271.97 411.06 274.80 408.05
  Q 292.07 389.63 309.09 373.60
  A 1.39 1.38 51.8 0 0 309.30 371.82
  C 294.60 349.60 270.12 337.81 243.72 339.25
  Q 226.17 340.21 208.09 347.10
  Q 190.51 353.81 178.21 360.78
  C 174.06 363.14 170.76 364.30 166.98 361.35
  C 163.71 358.80 164.89 350.18 165.87 346.32
  Q 169.11 333.55 171.58 323.13
  Q 179.05 291.57 173.67 259.33
  Q 172.25 250.80 169.76 243.26
  Q 163.32 223.75 148.49 209.79
  Q 127.33 189.88 98.00 190.03
  Q 91.90 190.07 80.55 190.73
  Q 72.59 191.20 71.91 183.08
  C 71.58 179.22 76.87 172.43 80.36 167.12
  Q 86.09 158.39 90.38 146.21
  Q 94.59 134.29 93.68 120.00
  C 92.36 99.06 80.28 76.77 66.73 60.75
  C 50.35 41.36 28.88 26.35 5.84 15.49
  Q 0.70 13.06 0.83 7.26
  C 0.88 4.77 1.63 3.28 4.02 2.07
  Q 8.42 -0.15 14.06 0.00
  L 33.14 0.00
  Z
  M 51.14 20.27
  A 0.13 0.13 0.0 0 0 51.07 20.51
  C 76.57 39.21 96.42 64.60 107.15 94.36
  Q 117.24 122.33 108.20 151.18
  Q 106.60 156.26 103.94 162.39
  A 0.37 0.37 0.0 0 0 104.42 162.88
  C 142.49 146.24 184.51 137.64 226.25 134.88
  Q 274.65 131.68 320.91 141.62
  Q 332.05 144.02 341.94 146.75
  A 0.44 0.44 0.0 0 0 342.40 146.06
  Q 340.95 144.20 339.29 142.45
  Q 309.84 111.49 272.79 89.46
  Q 241.60 70.91 209.81 57.94
  Q 171.23 42.20 127.77 32.24
  Q 99.19 25.68 76.00 22.79
  Q 58.67 20.62 55.48 20.37
  Q 53.11 20.18 51.14 20.27
  Z
  M 887.06 126.87
  L 884.37 127.86
  A 0.43 0.30 -55.3 0 1 884.29 127.89
  Q 863.50 132.43 849.11 136.68
  Q 816.69 146.26 787.11 164.12
  Q 765.46 177.19 741.82 197.82
  C 735.35 203.47 729.46 208.82 725.20 215.02
  A 0.57 0.57 0.0 0 0 725.34 215.80
  Q 735.33 223.09 744.15 231.43
  A 1.62 1.60 -32.9 0 0 745.79 231.77
  C 753.25 229.11 759.59 228.20 768.52 227.04
  Q 800.41 222.87 830.55 232.60
  A 0.55 0.55 0.0 0 0 831.27 232.05
  C 830.91 220.41 831.70 209.04 835.33 197.63
  C 844.36 169.27 863.71 145.04 887.42 127.54
  A 0.38 0.38 0.0 0 0 887.06 126.87
  Z
  M 452.94 245.23
  Q 454.23 246.67 455.03 248.20
  Q 470.72 278.33 473.33 312.11
  A 1.60 1.59 -76.8 0 0 474.08 313.33
  Q 489.26 322.80 496.27 339.26
  C 498.25 343.92 501.47 352.82 495.64 355.45
  C 492.83 356.72 490.46 355.89 488.71 353.52
  Q 485.37 349.02 479.30 340.96
  Q 473.79 333.65 464.83 330.09
  Q 448.10 323.45 445.28 322.47
  C 419.77 313.60 394.96 304.88 372.39 293.64
  Q 366.35 290.63 364.71 285.18
  C 357.72 261.85 356.52 235.80 362.22 211.48
  Q 364.32 202.54 366.66 196.70
  Q 368.16 192.96 372.86 185.07
  C 380.18 172.76 385.74 160.41 384.81 146.48
  A 0.35 0.35 0.0 0 0 384.12 146.41
  Q 378.94 164.72 363.23 176.26
  Q 343.16 190.99 335.90 197.15
  Q 304.21 224.03 275.37 256.63
  Q 253.43 281.44 229.05 310.56
  Q 223.15 317.60 217.14 324.01
  A 0.22 0.22 0.0 0 0 217.35 324.38
  C 227.78 322.01 238.85 319.55 248.27 319.96
  Q 290.15 321.78 318.53 352.74
  Q 322.54 357.12 325.49 361.52
  A 1.57 1.57 0.0 0 0 327.29 362.13
  Q 353.48 353.43 377.70 347.08
  A 0.31 0.31 0.0 0 0 377.72 346.48
  Q 366.99 343.08 356.23 338.81
  C 340.06 332.39 329.10 321.40 325.12 304.46
  C 324.44 301.54 323.89 294.67 326.89 292.80
  Q 329.88 290.94 331.78 294.09
  Q 335.70 300.60 337.60 303.68
  Q 341.51 310.02 344.42 312.53
  Q 350.07 317.41 356.16 320.33
  C 374.52 329.16 399.26 337.09 415.27 343.05
  Q 422.48 345.73 427.33 348.67
  Q 429.30 349.86 429.28 351.66
  A 3.18 2.71 -12.0 0 1 427.25 354.31
  Q 424.68 355.29 420.69 356.17
  Q 367.43 367.88 333.64 376.67
  Q 330.83 377.41 329.84 378.34
  Q 323.99 383.84 316.94 389.97
  C 311.86 394.39 306.68 399.79 302.44 404.44
  Q 292.14 415.75 272.75 438.00
  Q 266.58 445.10 252.20 458.42
  Q 238.50 471.11 223.13 476.75
  C 214.43 479.94 200.84 482.21 193.38 484.40
  Q 181.28 487.95 176.21 490.26
  Q 156.85 499.08 151.96 520.10
  A 0.32 0.32 0.0 0 0 152.52 520.36
  Q 168.01 499.91 192.89 495.89
  C 197.79 495.10 201.22 494.50 205.69 494.82
  C 210.89 495.20 213.59 499.36 211.26 504.02
  Q 209.77 506.99 205.91 511.67
  C 194.33 525.68 183.40 541.58 190.23 560.59
  A 0.45 0.45 0.0 0 0 191.09 560.52
  Q 198.08 524.57 229.15 506.20
  C 239.45 500.11 249.57 502.24 258.72 509.34
  C 264.55 513.86 270.09 522.01 270.21 529.76
  Q 270.29 535.12 268.80 540.26
  A 0.53 0.52 79.6 0 0 269.62 540.83
  Q 270.77 539.95 271.85 538.34
  C 279.02 527.63 276.47 513.73 269.27 503.48
  C 263.78 495.66 260.48 491.28 256.97 483.67
  A 2.83 2.80 -59.6 0 1 256.74 482.77
  C 256.00 474.54 268.95 464.52 275.02 459.77
  C 287.31 450.14 298.84 442.12 313.72 432.25
  Q 335.17 418.01 352.93 404.12
  C 354.54 402.86 356.14 402.23 358.01 402.33
  C 389.78 404.05 421.15 400.29 452.14 392.30
  C 456.55 391.17 461.75 391.38 465.04 390.50
  C 470.43 389.06 472.95 396.16 470.08 399.35
  Q 468.14 401.49 464.28 403.53
  Q 456.85 407.44 448.31 409.79
  Q 446.79 410.21 445.65 411.07
  A 1.18 1.15 -19.7 0 0 445.19 412.01
  C 445.38 425.50 455.71 439.11 465.75 447.99
  Q 472.98 454.38 479.08 458.68
  Q 496.58 471.02 518.01 476.74
  Q 520.53 477.41 523.40 479.66
  A 1.74 1.70 10.7 0 1 523.96 480.46
  C 525.38 484.86 521.86 487.97 517.67 488.21
  Q 509.62 488.67 501.16 485.62
  C 475.06 476.21 451.46 460.69 436.94 436.33
  Q 432.16 428.32 430.17 419.18
  A 0.70 0.69 -15.0 0 0 429.27 418.67
  L 424.97 420.07
  A 3.60 3.60 0.0 0 0 422.66 422.42
  C 419.58 432.34 421.88 442.51 426.60 451.68
  C 433.54 465.17 443.61 475.10 456.91 483.00
  C 466.51 488.71 476.27 493.13 486.80 496.41
  C 488.08 496.80 490.20 498.23 490.49 500.01
  C 491.23 504.68 485.67 505.50 481.99 505.45
  C 474.62 505.36 465.05 502.14 458.39 499.11
  C 442.65 491.94 428.18 481.48 418.55 466.94
  Q 412.44 457.71 409.29 452.01
  A 0.54 0.54 0.0 0 0 408.61 451.78
  Q 402.53 454.35 402.38 461.28
  C 402.12 473.57 412.03 485.80 420.76 493.99
  Q 421.11 494.32 424.36 498.63
  C 430.50 506.75 422.12 510.91 415.91 506.09
  C 412.21 503.21 408.57 499.72 404.55 497.61
  C 396.80 493.53 385.88 492.50 379.27 499.29
  Q 375.10 503.57 373.86 507.16
  Q 372.03 512.44 368.76 522.23
  Q 367.80 525.13 364.93 526.71
  C 359.21 529.87 353.71 531.80 350.33 536.60
  Q 346.48 542.06 343.56 548.80
  C 340.54 555.74 337.14 563.66 334.84 570.88
  Q 325.59 599.94 321.26 625.75
  Q 316.59 653.63 313.11 691.37
  C 312.52 697.74 310.63 702.46 305.18 706.27
  Q 303.31 707.58 297.61 708.40
  Q 288.20 709.76 278.46 713.47
  C 265.08 718.57 250.41 724.06 236.50 726.99
  Q 227.81 728.82 221.75 728.72
  Q 212.71 728.57 208.28 728.72
  Q 201.40 728.96 199.49 734.52
  Q 189.66 763.17 176.36 787.67
  Q 166.16 806.46 153.14 820.18
  Q 142.87 831.02 130.21 839.61
  A 0.22 0.22 0.0 0 0 130.35 840.02
  Q 143.48 838.81 153.86 831.14
  Q 166.88 821.52 179.95 807.21
  Q 181.75 805.23 184.20 805.53
  A 1.33 1.32 -83.4 0 1 185.35 806.99
  Q 184.89 811.44 183.13 816.41
  Q 178.77 828.70 171.56 841.48
  C 165.40 852.39 156.73 861.90 148.41 870.20
  A 0.26 0.26 0.0 0 0 148.69 870.62
  Q 154.13 868.36 160.29 865.02
  C 176.06 856.47 186.82 841.53 195.56 825.84
  Q 196.07 824.93 198.86 821.98
  A 1.49 1.43 14.1 0 1 199.63 821.54
  Q 202.64 820.90 203.41 823.19
  A 2.61 2.59 37.6 0 1 203.53 824.09
  Q 203.23 829.62 202.38 834.61
  C 199.49 851.45 194.79 869.45 185.76 883.80
  Q 185.05 884.92 183.75 886.46
  A 0.29 0.28 7.0 0 0 184.10 886.90
  C 204.24 877.35 211.92 855.95 214.49 835.50
  Q 216.07 822.94 217.29 807.26
  Q 217.65 802.61 220.39 782.59
  C 221.84 771.97 225.09 762.65 231.12 755.14
  Q 240.63 743.28 255.73 741.42
  C 272.64 739.33 286.07 740.42 307.00 741.25
  Q 311.45 741.43 313.95 740.78
  A 6.25 6.02 -65.7 0 0 315.20 740.28
  Q 315.32 740.22 318.57 737.08
  Q 320.62 735.10 324.00 734.94
  Q 332.63 734.51 334.32 734.33
  C 340.92 733.62 346.06 732.38 349.24 726.22
  C 352.67 719.57 356.49 710.94 361.43 704.50
  Q 365.34 699.40 374.61 685.89
  Q 390.21 663.13 400.99 637.27
  Q 408.62 618.99 415.28 594.43
  C 417.31 586.98 419.26 576.33 419.61 569.39
  Q 420.58 549.99 411.06 533.74
  C 409.96 531.86 408.91 529.30 410.10 527.51
  Q 412.04 524.60 415.46 526.60
  C 435.85 538.49 439.21 563.53 435.86 584.52
  A 0.43 0.43 0.0 0 0 436.60 584.87
  Q 450.80 569.19 462.10 550.86
  Q 468.07 541.18 472.87 534.00
  A 0.44 0.44 0.0 0 0 472.57 533.32
  C 462.42 531.90 452.91 528.58 446.14 520.66
  C 444.50 518.74 442.11 514.92 444.28 512.76
  Q 447.44 509.61 451.52 512.23
  C 460.34 517.89 471.16 521.75 481.39 520.32
  C 490.62 519.04 498.04 514.36 505.04 508.22
  C 510.73 503.23 515.47 505.68 522.56 507.10
  C 528.28 508.24 533.13 507.13 537.79 504.22
  A 0.61 0.61 0.0 0 0 537.75 503.17
  C 534.55 501.44 530.04 499.26 530.67 495.18
  C 531.09 492.48 534.26 490.75 536.55 491.47
  Q 544.48 493.95 549.56 495.13
  C 558.87 497.29 565.98 493.37 571.49 486.36
  A 0.51 0.51 0.0 0 0 571.03 485.54
  Q 565.21 486.30 560.45 484.65
  C 556.34 483.22 554.47 481.03 555.99 476.69
  A 2.61 2.60 12.4 0 1 558.72 474.95
  Q 566.25 475.74 575.10 474.95
  C 583.71 474.18 589.86 467.53 593.66 460.19
  A 0.53 0.53 0.0 0 0 593.11 459.42
  Q 586.67 460.33 581.28 460.18
  Q 578.13 460.10 576.19 458.18
  C 574.03 456.05 575.20 453.50 576.37 451.11
  C 579.70 444.29 588.07 448.49 594.04 445.95
  C 601.52 442.76 605.48 436.09 607.52 428.59
  A 0.40 0.39 85.7 0 0 606.98 428.12
  C 603.77 429.54 591.88 432.73 590.86 427.00
  C 590.14 422.98 593.53 420.23 596.87 419.10
  C 602.84 417.07 614.46 412.03 616.27 406.45
  Q 618.00 401.12 616.00 395.91
  A 1.23 1.22 -25.4 0 0 614.24 395.29
  C 610.38 397.50 605.21 401.16 601.16 401.40
  A 2.40 1.99 -7.7 0 1 598.76 399.90
  Q 598.27 397.88 599.34 395.83
  Q 605.06 384.88 612.84 375.61
  Q 617.92 369.56 622.88 365.57
  A 0.73 0.72 38.8 0 0 622.74 364.35
  C 616.31 361.18 608.23 364.35 602.67 368.48
  Q 598.99 371.22 595.10 375.84
  Q 593.40 377.85 591.01 378.52
  A 3.20 2.75 -25.8 0 1 587.87 377.69
  Q 587.26 376.96 587.15 375.42
  A 3.59 2.94 -48.8 0 1 587.17 374.79
  Q 587.49 371.85 590.96 364.73
  Q 594.39 357.67 598.70 354.13
  C 608.10 346.40 618.24 343.10 630.26 348.81
  A 1.11 1.11 0.0 0 0 631.79 348.15
  Q 633.71 342.27 636.06 332.55
  Q 640.56 313.95 649.47 298.59
  A 3.03 3.03 0.0 0 0 649.12 295.06
  L 641.52 286.46
  A 0.24 0.24 0.0 0 0 641.12 286.54
  Q 636.52 300.70 627.64 312.11
  C 622.91 318.19 613.72 323.95 606.05 319.65
  A 2.90 2.89 21.6 0 1 604.65 316.43
  Q 605.28 313.90 608.07 312.30
  C 620.07 305.40 625.65 289.19 626.73 275.75
  Q 626.92 273.46 625.72 272.45
  Q 620.00 267.65 617.34 265.30
  A 0.28 0.28 0.0 0 0 616.88 265.49
  C 616.40 275.10 610.45 286.39 604.84 293.58
  C 592.77 309.06 574.67 319.28 556.20 326.55
  A 1.02 1.02 0.0 0 0 555.68 328.00
  C 557.58 331.37 560.35 338.83 558.41 342.07
  C 556.12 345.89 552.12 343.94 550.23 341.10
  C 546.13 334.97 540.87 325.63 534.49 325.02
  Q 527.21 324.32 519.72 326.23
  Q 510.56 328.56 505.76 328.85
  Q 499.85 329.19 499.06 323.90
  Q 494.17 291.31 474.15 266.38
  Q 467.08 257.58 453.52 244.66
  A 0.07 0.06 48.6 0 0 453.44 244.65
  L 453.00 244.89
  A 0.22 0.22 0.0 0 0 452.94 245.23
  Z
  M 769.73 378.30
  Q 776.84 379.60 781.99 378.17
  C 784.74 377.41 786.42 375.65 787.59 373.29
  Q 791.80 364.73 792.32 355.25
  C 793.97 324.84 778.96 297.43 759.95 274.92
  Q 738.31 249.29 711.87 228.91
  Q 686.52 209.38 662.83 196.42
  Q 641.39 184.69 615.61 173.17
  C 600.61 166.47 585.23 160.24 568.95 156.51
  C 552.95 152.84 541.88 150.30 526.49 148.35
  Q 509.08 146.15 494.51 147.39
  C 482.45 148.42 467.76 153.53 466.50 167.50
  C 466.00 173.02 467.36 181.99 472.26 185.57
  Q 475.97 188.27 479.04 188.76
  C 484.35 189.59 491.46 189.74 497.62 191.02
  Q 519.87 195.63 538.92 202.85
  Q 551.89 207.76 568.80 215.25
  Q 592.49 225.74 613.67 241.38
  Q 630.75 253.99 648.65 271.60
  Q 662.15 284.87 666.33 289.67
  Q 677.45 302.43 701.44 332.07
  C 715.46 349.40 731.59 364.97 751.94 373.43
  Q 758.86 376.31 769.73 378.30
  Z
  M 189.63 328.76
  Q 190.05 328.66 190.45 328.20
  Q 212.20 302.75 237.31 272.81
  C 258.51 247.55 281.89 221.16 305.93 199.38
  Q 325.36 181.77 345.33 166.67
  A 0.50 0.49 33.7 0 0 345.15 165.80
  Q 322.83 159.91 299.45 156.34
  C 277.91 153.05 256.25 152.19 235.26 153.25
  Q 187.79 155.65 141.96 168.76
  Q 125.14 173.58 122.93 174.31
  A 0.25 0.25 0.0 0 0 122.96 174.80
  C 152.97 181.27 175.79 206.65 186.07 234.96
  C 196.61 263.95 195.74 295.77 190.01 325.54
  Q 189.72 327.04 189.15 328.14
  A 0.43 0.43 0.0 0 0 189.63 328.76
  Z
  M 513.98 211.73
  C 513.99 215.41 515.00 222.17 517.91 224.90
  Q 521.22 228.01 525.66 230.01
  A 0.79 0.79 0.0 0 0 526.78 229.29
  L 526.78 215.92
  A 1.63 1.62 -81.9 0 0 525.61 214.36
  L 514.70 211.20
  A 0.56 0.55 8.2 0 0 513.98 211.73
  Z
  M 540.43 220.36
  Q 539.74 227.46 540.99 236.59
  Q 541.28 238.67 542.82 239.97
  Q 546.43 243.00 549.45 245.23
  A 0.61 0.61 0.0 0 0 550.39 244.94
  Q 553.47 235.75 552.90 226.65
  A 2.60 2.59 10.3 0 0 551.37 224.45
  L 541.22 219.90
  A 0.57 0.57 0.0 0 0 540.43 220.36
  Z
  M 566.14 231.96
  L 566.14 252.84
  A 3.94 3.93 18.1 0 0 567.76 256.02
  L 573.28 260.05
  A 0.43 0.43 0.0 0 0 573.91 259.90
  Q 578.45 251.38 579.35 241.71
  Q 579.67 238.26 576.73 236.84
  Q 569.70 233.45 566.56 231.71
  A 0.28 0.28 0.0 0 0 566.14 231.96
  Z
  M 758.54 246.62
  Q 769.63 257.90 779.72 270.57
  A 0.62 0.62 0.0 0 0 780.72 270.53
  Q 782.85 267.35 786.96 264.22
  Q 800.49 253.92 815.25 248.28
  A 0.42 0.42 0.0 0 0 815.23 247.49
  Q 799.49 242.62 782.75 243.48
  Q 770.87 244.09 758.67 246.23
  A 0.23 0.23 0.0 0 0 758.54 246.62
  Z
  M 591.13 246.76
  Q 591.32 249.10 590.95 251.49
  Q 589.26 262.17 586.40 271.25
  A 2.47 2.45 33.2 0 0 586.90 273.60
  L 592.18 279.56
  A 0.55 0.55 0.0 0 0 593.02 279.54
  Q 601.09 269.54 604.29 257.86
  A 2.62 2.61 -64.4 0 0 603.31 255.05
  L 591.59 246.50
  A 0.29 0.29 0.0 0 0 591.13 246.76
  Z
  M 660.97 309.02
  C 659.33 310.68 658.19 313.13 656.90 315.37
  Q 645.67 334.90 647.02 356.95
  C 647.53 365.39 651.56 371.89 657.18 378.07
  Q 663.55 385.07 668.22 389.78
  Q 678.12 399.75 683.11 413.18
  Q 687.59 425.25 692.42 435.86
  Q 698.02 448.19 711.35 452.11
  Q 718.11 454.10 724.66 451.88
  A 0.75 0.75 0.0 0 0 724.75 450.50
  C 707.79 442.17 698.68 427.53 692.56 409.71
  Q 691.67 407.12 684.01 383.02
  Q 681.92 376.44 673.17 356.49
  Q 671.58 352.88 670.62 342.93
  A 7.75 7.53 -41.5 0 1 670.81 340.39
  Q 672.15 335.06 672.94 328.05
  Q 673.75 320.91 669.68 316.36
  Q 664.19 310.24 662.63 308.93
  A 1.23 1.23 0.0 0 0 660.97 309.02
  Z
  M 706.13 359.49
  L 707.24 378.01
  A 1.24 1.23 84.0 0 0 708.65 379.16
  Q 714.77 378.22 721.48 373.83
  A 1.38 1.38 0.0 0 0 721.53 371.55
  Q 714.51 366.49 707.22 359.00
  A 0.64 0.63 -68.9 0 0 706.13 359.49
  Z
  M 733.74 380.18
  A 0.43 0.43 0.0 0 0 733.11 380.54
  Q 732.86 384.96 732.35 389.46
  Q 732.10 391.65 733.45 393.89
  A 1.22 1.22 0.0 0 0 735.36 394.12
  L 743.30 386.18
  A 0.70 0.69 -54.1 0 0 743.13 385.07
  L 733.74 380.18
  Z
  M 766.39 395.96
  A 0.98 0.98 0.0 0 0 766.03 394.36
  L 760.23 392.21
  A 0.98 0.98 0.0 0 0 758.91 393.20
  L 759.39 400.81
  A 0.98 0.98 0.0 0 0 761.07 401.43
  L 766.39 395.96
  Z
  M 705.75 412.99
  L 710.16 397.75
  A 0.49 0.49 0.0 0 0 709.58 397.14
  L 702.79 398.82
  A 1.17 1.17 0.0 0 0 701.93 400.24
  L 705.08 412.98
  A 0.35 0.35 0.0 0 0 705.75 412.99
  Z
  M 123.58 399.40
  C 122.36 399.95 120.05 401.00 118.78 401.90
  Q 91.87 420.79 73.73 447.24
  C 71.93 449.86 73.80 450.98 76.05 452.66
  Q 79.78 455.44 83.95 456.29
  A 1.55 1.55 0.0 0 0 85.72 455.29
  Q 89.24 445.20 96.19 437.70
  Q 98.06 435.68 99.76 434.79
  A 3.03 2.94 -36.1 0 1 103.26 435.29
  Q 104.69 436.73 104.18 439.28
  Q 103.31 443.62 102.54 447.66
  A 0.60 0.60 0.0 0 0 103.08 448.37
  L 103.12 448.37
  A 0.75 0.73 -80.4 0 0 103.88 447.82
  C 108.26 430.72 114.41 414.52 123.85 399.72
  A 0.22 0.22 0.0 0 0 123.58 399.40
  Z
  M 724.30 416.15
  C 720.33 419.51 715.87 421.20 710.66 422.52
  A 0.73 0.73 0.0 0 0 710.21 423.60
  C 712.25 427.08 718.76 434.94 722.87 434.97
  A 0.75 0.75 0.0 0 0 723.63 434.28
  L 725.01 416.51
  A 0.43 0.43 0.0 0 0 724.30 416.15
  Z
  M 895.99 480.85
  C 887.80 469.39 873.36 462.48 859.47 462.11
  Q 849.31 461.83 843.43 463.43
  Q 835.98 465.46 830.13 466.88
  C 822.62 468.69 817.99 464.08 821.12 456.63
  Q 824.57 448.43 829.61 441.58
  C 837.13 431.35 849.15 423.40 860.88 418.88
  A 0.64 0.64 0.0 0 0 860.89 417.69
  Q 859.43 417.12 856.99 416.99
  Q 841.55 416.19 829.94 425.47
  Q 820.85 432.74 814.15 444.15
  Q 807.91 454.77 804.82 459.09
  Q 798.09 468.50 787.56 473.82
  C 769.28 483.06 751.51 489.11 729.98 495.20
  Q 724.86 496.64 671.62 511.37
  C 667.47 512.52 664.38 508.06 662.02 504.69
  C 655.61 495.53 647.67 481.04 632.49 455.03
  Q 628.19 447.65 623.80 440.97
  A 0.52 0.52 0.0 0 0 622.87 441.10
  Q 617.70 457.41 609.70 472.61
  A 2.68 2.66 44.3 0 0 609.74 475.14
  Q 610.90 477.21 612.74 479.81
  Q 629.80 503.86 649.10 523.72
  Q 659.84 534.76 673.32 533.72
  C 682.23 533.04 692.46 529.78 702.05 526.53
  C 726.86 518.14 752.58 505.43 775.77 497.11
  Q 782.28 494.77 784.29 501.22
  C 787.29 510.90 789.94 520.52 797.23 527.90
  A 0.35 0.35 0.0 0 0 797.82 527.55
  Q 796.34 522.50 796.24 515.86
  C 796.09 504.46 801.92 496.10 813.83 494.90
  C 830.54 493.21 846.87 501.49 856.71 514.82
  Q 863.16 523.55 867.40 535.63
  Q 867.63 536.30 868.11 536.51
  A 0.25 0.24 15.4 0 0 868.45 536.32
  Q 870.24 523.50 865.96 511.33
  C 860.14 494.79 843.20 487.40 826.38 488.27
  A 1.56 1.55 83.8 0 1 824.77 486.97
  C 824.04 482.49 828.54 478.65 832.17 476.26
  Q 835.35 474.16 840.06 473.49
  C 859.51 470.72 878.51 471.61 895.55 481.34
  A 0.34 0.34 0.0 0 0 895.99 480.85
  Z
  M 74.46 492.72
  L 81.06 469.94
  A 1.48 1.48 0.0 0 0 80.32 468.22
  L 73.07 464.45
  A 1.40 1.40 0.0 0 0 71.20 465.01
  Q 65.26 475.81 62.15 487.60
  A 1.51 1.51 0.0 0 0 62.96 489.35
  Q 68.84 492.16 74.03 493.00
  A 0.40 0.39 -77.1 0 0 74.46 492.72
  Z
  M 58.46 499.73
  Q 54.54 512.32 54.11 525.66
  A 3.15 3.14 -75.8 0 0 55.83 528.56
  C 59.59 530.45 65.61 530.93 69.58 531.08
  A 0.64 0.63 -88.3 0 0 70.24 530.45
  Q 70.33 517.85 72.16 506.04
  A 1.34 1.33 16.6 0 0 71.38 504.61
  L 59.46 499.27
  A 0.73 0.73 0.0 0 0 58.46 499.73
  Z
  M 55.20 543.36
  Q 54.74 544.66 55.28 551.74
  Q 56.06 562.01 58.21 571.15
  A 0.66 0.65 78.4 0 0 58.96 571.65
  L 73.97 568.94
  A 1.08 1.07 79.8 0 0 74.83 567.69
  L 70.66 544.60
  A 0.69 0.69 0.0 0 0 70.13 544.05
  Q 62.93 542.33 55.98 542.77
  A 0.87 0.87 0.0 0 0 55.20 543.36
  Z
  M 547.71 826.47
  Q 547.88 826.22 547.98 825.70
  C 550.02 815.30 549.15 805.48 544.67 795.67
  Q 539.98 785.38 533.42 777.08
  Q 525.15 766.63 513.26 753.58
  C 504.32 743.77 496.08 733.38 487.48 723.09
  C 482.92 717.63 483.67 713.12 488.75 708.50
  Q 498.45 699.65 512.86 691.64
  Q 517.82 688.88 554.88 669.63
  Q 574.54 659.42 592.34 645.09
  C 600.60 638.43 609.03 631.49 609.33 620.28
  C 609.74 605.03 596.42 595.49 583.58 588.68
  Q 573.65 583.42 561.24 578.52
  Q 543.01 571.33 539.99 570.28
  Q 526.95 565.75 520.80 564.44
  Q 501.56 560.36 481.67 557.94
  A 1.99 1.99 0.0 0 0 479.77 558.81
  Q 463.98 582.70 445.37 604.06
  A 0.85 0.85 0.0 0 0 445.64 605.38
  Q 448.36 606.71 451.20 607.55
  Q 483.69 617.16 517.49 617.10
  Q 530.31 617.07 547.50 616.01
  C 553.16 615.66 574.02 614.86 572.29 623.69
  C 571.62 627.12 567.44 628.45 564.23 629.25
  C 559.36 630.46 551.62 631.02 545.94 632.94
  Q 531.84 637.70 523.07 648.88
  Q 520.49 652.16 515.10 661.62
  C 509.92 670.69 505.72 677.17 499.13 683.38
  Q 486.10 695.64 469.87 702.36
  Q 456.49 707.90 454.73 708.75
  C 445.78 713.11 451.50 723.81 455.92 729.33
  Q 467.54 743.81 468.92 745.50
  C 480.18 759.30 489.78 774.15 494.76 790.17
  Q 499.59 805.70 500.50 822.31
  A 11.97 11.79 30.5 0 0 501.76 827.04
  Q 507.69 838.73 511.46 851.57
  A 0.44 0.44 0.0 0 0 512.14 851.79
  Q 512.53 851.51 512.72 850.97
  C 517.18 838.39 519.66 823.79 517.32 810.73
  Q 515.78 802.12 511.66 794.10
  Q 507.36 785.71 505.37 780.49
  C 504.07 777.07 506.30 771.18 511.12 772.91
  Q 513.46 773.75 515.71 776.03
  C 525.66 786.14 531.97 798.47 537.11 811.85
  A 1.32 1.29 17.7 0 0 537.27 812.15
  L 546.97 826.47
  A 0.45 0.45 0.0 0 0 547.71 826.47
  Z
  M 92.27 600.63
  Q 85.46 591.36 81.44 582.60
  Q 80.77 581.14 79.58 579.64
  A 1.35 1.34 -28.2 0 0 78.11 579.20
  L 62.59 584.27
  A 1.69 1.68 70.8 0 0 61.53 586.47
  Q 66.05 598.54 72.90 610.04
  A 1.11 1.11 0.0 0 0 74.31 610.48
  L 91.82 602.37
  A 1.16 1.16 0.0 0 0 92.27 600.63
  Z
  M 308.01 602.72
  Q 307.61 602.75 307.15 603.15
  Q 296.62 612.32 287.76 618.76
  Q 286.01 620.03 284.85 621.17
  A 3.08 3.02 82.0 0 0 284.26 621.97
  Q 283.91 622.65 283.98 625.97
  Q 284.27 640.44 293.19 651.23
  C 295.41 653.92 298.90 651.92 300.65 649.96
  A 1.21 1.17 -21.8 0 0 300.95 649.29
  Q 303.58 626.59 308.74 603.56
  A 0.69 0.69 0.0 0 0 308.01 602.72
  Z
  M 80.92 623.86
  Q 90.69 637.22 103.08 647.04
  A 0.78 0.77 -56.8 0 0 104.25 646.79
  Q 110.25 635.42 119.58 626.77
  A 0.54 0.54 0.0 0 0 119.53 625.94
  Q 111.10 619.76 102.12 611.80
  Q 99.90 609.84 97.36 611.30
  Q 88.73 616.23 81.06 622.71
  A 0.85 0.85 0.0 0 0 80.92 623.86
  Z
  M 271.28 630.92
  C 263.66 636.21 257.87 638.68 246.64 643.77
  C 244.26 644.85 243.80 645.59 244.09 648.20
  Q 245.37 659.80 248.43 670.83
  Q 248.84 672.34 249.53 673.63
  A 1.29 1.28 69.1 0 0 250.96 674.28
  C 262.46 671.50 272.91 668.26 282.55 662.22
  A 0.86 0.86 0.0 0 0 282.70 660.89
  Q 280.14 658.33 278.45 654.79
  Q 273.14 643.61 272.16 631.34
  A 0.56 0.56 0.0 0 0 271.28 630.92
  Z
  M 151.11 642.97
  A 1.33 1.32 23.6 0 0 150.35 641.04
  Q 138.15 637.29 129.10 631.88
  A 0.72 0.72 0.0 0 0 128.19 632.02
  C 124.81 635.96 121.63 639.85 118.97 644.57
  Q 114.34 652.77 114.29 652.86
  A 1.57 1.56 30.6 0 0 114.83 654.94
  Q 126.50 662.28 139.77 667.13
  A 0.89 0.88 -71.2 0 0 140.92 666.56
  Q 145.25 652.99 151.11 642.97
  Z
  M 189.94 677.32
  Q 187.29 665.19 192.28 653.56
  A 0.87 0.86 -73.2 0 0 191.64 652.36
  Q 179.63 650.17 165.45 646.27
  Q 163.90 645.84 162.46 646.04
  A 1.25 1.24 -77.9 0 0 161.57 646.62
  C 156.62 654.70 154.87 661.25 153.51 670.16
  A 1.67 1.66 16.4 0 0 154.48 671.93
  Q 156.75 672.97 159.76 673.74
  Q 174.35 677.49 189.28 678.10
  A 0.64 0.64 0.0 0 0 189.94 677.32
  Z
  M 233.27 648.28
  L 206.34 651.77
  A 2.59 2.57 6.7 0 0 204.26 653.40
  C 201.63 660.20 200.40 669.57 203.33 676.52
  A 2.52 2.51 -3.0 0 0 204.93 677.95
  Q 207.87 678.83 211.00 678.88
  Q 222.63 679.07 230.27 678.28
  Q 232.52 678.05 234.40 677.56
  A 1.04 1.04 0.0 0 0 235.14 676.28
  C 232.65 667.19 231.54 657.62 233.28 648.29
  A 0.01 0.01 0.0 0 0 233.27 648.28
  Z"
/>
<path d="
  M 528.80 366.28
  C 528.47 363.18 529.75 357.97 534.11 359.96
  Q 535.74 360.71 538.30 364.53
  Q 543.16 371.81 545.82 375.50
  Q 552.65 384.97 563.40 390.83
  Q 569.68 394.26 577.49 395.29
  Q 582.53 395.96 581.86 401.05
  Q 581.31 405.15 577.36 406.01
  Q 562.67 409.20 549.89 400.42
  C 538.37 392.51 530.30 380.35 528.80 366.28
  Z"
/>
<path d="
  M 509.98 380.76
  C 512.41 378.86 514.97 380.68 515.88 383.15
  C 517.90 388.57 518.86 392.38 521.90 396.86
  Q 528.97 407.29 540.53 415.21
  Q 550.74 422.21 565.80 424.77
  C 569.67 425.43 572.19 425.94 571.94 430.22
  C 571.71 434.30 566.36 437.06 562.79 437.73
  Q 559.58 438.34 554.70 437.14
  C 540.45 433.63 528.70 426.46 518.43 416.12
  C 511.06 408.69 505.39 397.01 506.67 386.43
  Q 507.08 383.05 509.98 380.76
  Z"
/>
<path d="
  M 480.93 413.23
  C 483.03 408.38 487.10 409.20 489.03 413.48
  Q 497.97 433.40 516.71 444.02
  Q 527.98 450.42 539.69 453.57
  Q 543.46 454.59 548.89 455.85
  C 550.77 456.29 551.79 458.00 551.68 460.00
  Q 551.30 466.53 544.27 467.00
  C 532.92 467.74 520.48 462.99 510.67 457.54
  Q 501.39 452.38 495.54 447.55
  C 487.30 440.75 476.04 424.51 480.93 413.23
  Z"
/>
<path d="
  M 333.22 680.97
  Q 330.51 679.79 330.18 677.86
  Q 329.64 674.69 330.20 669.94
  C 333.35 643.03 339.73 619.06 347.17 591.15
  C 348.49 586.21 350.14 581.21 353.40 577.75
  A 2.23 2.19 11.0 0 1 354.23 577.20
  C 357.40 576.02 358.66 578.25 358.62 581.13
  Q 358.55 585.63 358.06 589.02
  C 354.65 612.72 346.54 642.79 343.01 659.00
  Q 340.99 668.27 337.74 677.97
  Q 336.92 680.42 334.26 681.06
  A 1.66 1.62 49.1 0 1 333.22 680.97
  Z"
/>
</g>
<g fill="#64aedc">
<path d="
  M 51.14 20.27
  Q 53.11 20.18 55.48 20.37
  Q 58.67 20.62 76.00 22.79
  Q 99.19 25.68 127.77 32.24
  Q 171.23 42.20 209.81 57.94
  Q 241.60 70.91 272.79 89.46
  Q 309.84 111.49 339.29 142.45
  Q 340.95 144.20 342.40 146.06
  A 0.44 0.44 0.0 0 1 341.94 146.75
  Q 332.05 144.02 320.91 141.62
  Q 274.65 131.68 226.25 134.88
  C 184.51 137.64 142.49 146.24 104.42 162.88
  A 0.37 0.37 0.0 0 1 103.94 162.39
  Q 106.60 156.26 108.20 151.18
  Q 117.24 122.33 107.15 94.36
  C 96.42 64.60 76.57 39.21 51.07 20.51
  A 0.13 0.13 0.0 0 1 51.14 20.27
  Z"
/>
<path d="
  M 887.06 126.87
  A 0.38 0.38 0.0 0 1 887.42 127.54
  C 863.71 145.04 844.36 169.27 835.33 197.63
  C 831.70 209.04 830.91 220.41 831.27 232.05
  A 0.55 0.55 0.0 0 1 830.55 232.60
  Q 800.41 222.87 768.52 227.04
  C 759.59 228.20 753.25 229.11 745.79 231.77
  A 1.62 1.60 -32.9 0 1 744.15 231.43
  Q 735.33 223.09 725.34 215.80
  A 0.57 0.57 0.0 0 1 725.20 215.02
  C 729.46 208.82 735.35 203.47 741.82 197.82
  Q 765.46 177.19 787.11 164.12
  Q 816.69 146.26 849.11 136.68
  Q 863.50 132.43 884.29 127.89
  A 0.43 0.30 -55.3 0 0 884.37 127.86
  L 887.06 126.87
  Z"
/>
<path d="
  M 452.94 245.23
  A 0.22 0.22 0.0 0 1 453.00 244.89
  L 453.44 244.65
  A 0.07 0.06 48.6 0 1 453.52 244.66
  Q 467.08 257.58 474.15 266.38
  Q 494.17 291.31 499.06 323.90
  Q 499.85 329.19 505.76 328.85
  Q 510.56 328.56 519.72 326.23
  Q 527.21 324.32 534.49 325.02
  C 540.87 325.63 546.13 334.97 550.23 341.10
  C 552.12 343.94 556.12 345.89 558.41 342.07
  C 560.35 338.83 557.58 331.37 555.68 328.00
  A 1.02 1.02 0.0 0 1 556.20 326.55
  C 574.67 319.28 592.77 309.06 604.84 293.58
  C 610.45 286.39 616.40 275.10 616.88 265.49
  A 0.28 0.28 0.0 0 1 617.34 265.30
  Q 620.00 267.65 625.72 272.45
  Q 626.92 273.46 626.73 275.75
  C 625.65 289.19 620.07 305.40 608.07 312.30
  Q 605.28 313.90 604.65 316.43
  A 2.90 2.89 21.6 0 0 606.05 319.65
  C 613.72 323.95 622.91 318.19 627.64 312.11
  Q 636.52 300.70 641.12 286.54
  A 0.24 0.24 0.0 0 1 641.52 286.46
  L 649.12 295.06
  A 3.03 3.03 0.0 0 1 649.47 298.59
  Q 640.56 313.95 636.06 332.55
  Q 633.71 342.27 631.79 348.15
  A 1.11 1.11 0.0 0 1 630.26 348.81
  C 618.24 343.10 608.10 346.40 598.70 354.13
  Q 594.39 357.67 590.96 364.73
  Q 587.49 371.85 587.17 374.79
  A 3.59 2.94 -48.8 0 0 587.15 375.42
  Q 587.26 376.96 587.87 377.69
  A 3.20 2.75 -25.8 0 0 591.01 378.52
  Q 593.40 377.85 595.10 375.84
  Q 598.99 371.22 602.67 368.48
  C 608.23 364.35 616.31 361.18 622.74 364.35
  A 0.73 0.72 38.8 0 1 622.88 365.57
  Q 617.92 369.56 612.84 375.61
  Q 605.06 384.88 599.34 395.83
  Q 598.27 397.88 598.76 399.90
  A 2.40 1.99 -7.7 0 0 601.16 401.40
  C 605.21 401.16 610.38 397.50 614.24 395.29
  A 1.23 1.22 -25.4 0 1 616.00 395.91
  Q 618.00 401.12 616.27 406.45
  C 614.46 412.03 602.84 417.07 596.87 419.10
  C 593.53 420.23 590.14 422.98 590.86 427.00
  C 591.88 432.73 603.77 429.54 606.98 428.12
  A 0.40 0.39 85.7 0 1 607.52 428.59
  C 605.48 436.09 601.52 442.76 594.04 445.95
  C 588.07 448.49 579.70 444.29 576.37 451.11
  C 575.20 453.50 574.03 456.05 576.19 458.18
  Q 578.13 460.10 581.28 460.18
  Q 586.67 460.33 593.11 459.42
  A 0.53 0.53 0.0 0 1 593.66 460.19
  C 589.86 467.53 583.71 474.18 575.10 474.95
  Q 566.25 475.74 558.72 474.95
  A 2.61 2.60 12.4 0 0 555.99 476.69
  C 554.47 481.03 556.34 483.22 560.45 484.65
  Q 565.21 486.30 571.03 485.54
  A 0.51 0.51 0.0 0 1 571.49 486.36
  C 565.98 493.37 558.87 497.29 549.56 495.13
  Q 544.48 493.95 536.55 491.47
  C 534.26 490.75 531.09 492.48 530.67 495.18
  C 530.04 499.26 534.55 501.44 537.75 503.17
  A 0.61 0.61 0.0 0 1 537.79 504.22
  C 533.13 507.13 528.28 508.24 522.56 507.10
  C 515.47 505.68 510.73 503.23 505.04 508.22
  C 498.04 514.36 490.62 519.04 481.39 520.32
  C 471.16 521.75 460.34 517.89 451.52 512.23
  Q 447.44 509.61 444.28 512.76
  C 442.11 514.92 444.50 518.74 446.14 520.66
  C 452.91 528.58 462.42 531.90 472.57 533.32
  A 0.44 0.44 0.0 0 1 472.87 534.00
  Q 468.07 541.18 462.10 550.86
  Q 450.80 569.19 436.60 584.87
  A 0.43 0.43 0.0 0 1 435.86 584.52
  C 439.21 563.53 435.85 538.49 415.46 526.60
  Q 412.04 524.60 410.10 527.51
  C 408.91 529.30 409.96 531.86 411.06 533.74
  Q 420.58 549.99 419.61 569.39
  C 419.26 576.33 417.31 586.98 415.28 594.43
  Q 408.62 618.99 400.99 637.27
  Q 390.21 663.13 374.61 685.89
  Q 365.34 699.40 361.43 704.50
  C 356.49 710.94 352.67 719.57 349.24 726.22
  C 346.06 732.38 340.92 733.62 334.32 734.33
  Q 332.63 734.51 324.00 734.94
  Q 320.62 735.10 318.57 737.08
  Q 315.32 740.22 315.20 740.28
  A 6.25 6.02 -65.7 0 1 313.95 740.78
  Q 311.45 741.43 307.00 741.25
  C 286.07 740.42 272.64 739.33 255.73 741.42
  Q 240.63 743.28 231.12 755.14
  C 225.09 762.65 221.84 771.97 220.39 782.59
  Q 217.65 802.61 217.29 807.26
  Q 216.07 822.94 214.49 835.50
  C 211.92 855.95 204.24 877.35 184.10 886.90
  A 0.29 0.28 7.0 0 1 183.75 886.46
  Q 185.05 884.92 185.76 883.80
  C 194.79 869.45 199.49 851.45 202.38 834.61
  Q 203.23 829.62 203.53 824.09
  A 2.61 2.59 37.6 0 0 203.41 823.19
  Q 202.64 820.90 199.63 821.54
  A 1.49 1.43 14.1 0 0 198.86 821.98
  Q 196.07 824.93 195.56 825.84
  C 186.82 841.53 176.06 856.47 160.29 865.02
  Q 154.13 868.36 148.69 870.62
  A 0.26 0.26 0.0 0 1 148.41 870.20
  C 156.73 861.90 165.40 852.39 171.56 841.48
  Q 178.77 828.70 183.13 816.41
  Q 184.89 811.44 185.35 806.99
  A 1.33 1.32 -83.4 0 0 184.20 805.53
  Q 181.75 805.23 179.95 807.21
  Q 166.88 821.52 153.86 831.14
  Q 143.48 838.81 130.35 840.02
  A 0.22 0.22 0.0 0 1 130.21 839.61
  Q 142.87 831.02 153.14 820.18
  Q 166.16 806.46 176.36 787.67
  Q 189.66 763.17 199.49 734.52
  Q 201.40 728.96 208.28 728.72
  Q 212.71 728.57 221.75 728.72
  Q 227.81 728.82 236.50 726.99
  C 250.41 724.06 265.08 718.57 278.46 713.47
  Q 288.20 709.76 297.61 708.40
  Q 303.31 707.58 305.18 706.27
  C 310.63 702.46 312.52 697.74 313.11 691.37
  Q 316.59 653.63 321.26 625.75
  Q 325.59 599.94 334.84 570.88
  C 337.14 563.66 340.54 555.74 343.56 548.80
  Q 346.48 542.06 350.33 536.60
  C 353.71 531.80 359.21 529.87 364.93 526.71
  Q 367.80 525.13 368.76 522.23
  Q 372.03 512.44 373.86 507.16
  Q 375.10 503.57 379.27 499.29
  C 385.88 492.50 396.80 493.53 404.55 497.61
  C 408.57 499.72 412.21 503.21 415.91 506.09
  C 422.12 510.91 430.50 506.75 424.36 498.63
  Q 421.11 494.32 420.76 493.99
  C 412.03 485.80 402.12 473.57 402.38 461.28
  Q 402.53 454.35 408.61 451.78
  A 0.54 0.54 0.0 0 1 409.29 452.01
  Q 412.44 457.71 418.55 466.94
  C 428.18 481.48 442.65 491.94 458.39 499.11
  C 465.05 502.14 474.62 505.36 481.99 505.45
  C 485.67 505.50 491.23 504.68 490.49 500.01
  C 490.20 498.23 488.08 496.80 486.80 496.41
  C 476.27 493.13 466.51 488.71 456.91 483.00
  C 443.61 475.10 433.54 465.17 426.60 451.68
  C 421.88 442.51 419.58 432.34 422.66 422.42
  A 3.60 3.60 0.0 0 1 424.97 420.07
  L 429.27 418.67
  A 0.70 0.69 -15.0 0 1 430.17 419.18
  Q 432.16 428.32 436.94 436.33
  C 451.46 460.69 475.06 476.21 501.16 485.62
  Q 509.62 488.67 517.67 488.21
  C 521.86 487.97 525.38 484.86 523.96 480.46
  A 1.74 1.70 10.7 0 0 523.40 479.66
  Q 520.53 477.41 518.01 476.74
  Q 496.58 471.02 479.08 458.68
  Q 472.98 454.38 465.75 447.99
  C 455.71 439.11 445.38 425.50 445.19 412.01
  A 1.18 1.15 -19.7 0 1 445.65 411.07
  Q 446.79 410.21 448.31 409.79
  Q 456.85 407.44 464.28 403.53
  Q 468.14 401.49 470.08 399.35
  C 472.95 396.16 470.43 389.06 465.04 390.50
  C 461.75 391.38 456.55 391.17 452.14 392.30
  C 421.15 400.29 389.78 404.05 358.01 402.33
  C 356.14 402.23 354.54 402.86 352.93 404.12
  Q 335.17 418.01 313.72 432.25
  C 298.84 442.12 287.31 450.14 275.02 459.77
  C 268.95 464.52 256.00 474.54 256.74 482.77
  A 2.83 2.80 -59.6 0 0 256.97 483.67
  C 260.48 491.28 263.78 495.66 269.27 503.48
  C 276.47 513.73 279.02 527.63 271.85 538.34
  Q 270.77 539.95 269.62 540.83
  A 0.53 0.52 79.6 0 1 268.80 540.26
  Q 270.29 535.12 270.21 529.76
  C 270.09 522.01 264.55 513.86 258.72 509.34
  C 249.57 502.24 239.45 500.11 229.15 506.20
  Q 198.08 524.57 191.09 560.52
  A 0.45 0.45 0.0 0 1 190.23 560.59
  C 183.40 541.58 194.33 525.68 205.91 511.67
  Q 209.77 506.99 211.26 504.02
  C 213.59 499.36 210.89 495.20 205.69 494.82
  C 201.22 494.50 197.79 495.10 192.89 495.89
  Q 168.01 499.91 152.52 520.36
  A 0.32 0.32 0.0 0 1 151.96 520.10
  Q 156.85 499.08 176.21 490.26
  Q 181.28 487.95 193.38 484.40
  C 200.84 482.21 214.43 479.94 223.13 476.75
  Q 238.50 471.11 252.20 458.42
  Q 266.58 445.10 272.75 438.00
  Q 292.14 415.75 302.44 404.44
  C 306.68 399.79 311.86 394.39 316.94 389.97
  Q 323.99 383.84 329.84 378.34
  Q 330.83 377.41 333.64 376.67
  Q 367.43 367.88 420.69 356.17
  Q 424.68 355.29 427.25 354.31
  A 3.18 2.71 -12.0 0 0 429.28 351.66
  Q 429.30 349.86 427.33 348.67
  Q 422.48 345.73 415.27 343.05
  C 399.26 337.09 374.52 329.16 356.16 320.33
  Q 350.07 317.41 344.42 312.53
  Q 341.51 310.02 337.60 303.68
  Q 335.70 300.60 331.78 294.09
  Q 329.88 290.94 326.89 292.80
  C 323.89 294.67 324.44 301.54 325.12 304.46
  C 329.10 321.40 340.06 332.39 356.23 338.81
  Q 366.99 343.08 377.72 346.48
  A 0.31 0.31 0.0 0 1 377.70 347.08
  Q 353.48 353.43 327.29 362.13
  A 1.57 1.57 0.0 0 1 325.49 361.52
  Q 322.54 357.12 318.53 352.74
  Q 290.15 321.78 248.27 319.96
  C 238.85 319.55 227.78 322.01 217.35 324.38
  A 0.22 0.22 0.0 0 1 217.14 324.01
  Q 223.15 317.60 229.05 310.56
  Q 253.43 281.44 275.37 256.63
  Q 304.21 224.03 335.90 197.15
  Q 343.16 190.99 363.23 176.26
  Q 378.94 164.72 384.12 146.41
  A 0.35 0.35 0.0 0 1 384.81 146.48
  C 385.74 160.41 380.18 172.76 372.86 185.07
  Q 368.16 192.96 366.66 196.70
  Q 364.32 202.54 362.22 211.48
  C 356.52 235.80 357.72 261.85 364.71 285.18
  Q 366.35 290.63 372.39 293.64
  C 394.96 304.88 419.77 313.60 445.28 322.47
  Q 448.10 323.45 464.83 330.09
  Q 473.79 333.65 479.30 340.96
  Q 485.37 349.02 488.71 353.52
  C 490.46 355.89 492.83 356.72 495.64 355.45
  C 501.47 352.82 498.25 343.92 496.27 339.26
  Q 489.26 322.80 474.08 313.33
  A 1.60 1.59 -76.8 0 1 473.33 312.11
  Q 470.72 278.33 455.03 248.20
  Q 454.23 246.67 452.94 245.23
  Z
  M 534.11 359.96
  C 529.75 357.97 528.47 363.18 528.80 366.28
  C 530.30 380.35 538.37 392.51 549.89 400.42
  Q 562.67 409.20 577.36 406.01
  Q 581.31 405.15 581.86 401.05
  Q 582.53 395.96 577.49 395.29
  Q 569.68 394.26 563.40 390.83
  Q 552.65 384.97 545.82 375.50
  Q 543.16 371.81 538.30 364.53
  Q 535.74 360.71 534.11 359.96
  Z
  M 515.88 383.15
  C 514.97 380.68 512.41 378.86 509.98 380.76
  Q 507.08 383.05 506.67 386.43
  C 505.39 397.01 511.06 408.69 518.43 416.12
  C 528.70 426.46 540.45 433.63 554.70 437.14
  Q 559.58 438.34 562.79 437.73
  C 566.36 437.06 571.71 434.30 571.94 430.22
  C 572.19 425.94 569.67 425.43 565.80 424.77
  Q 550.74 422.21 540.53 415.21
  Q 528.97 407.29 521.90 396.86
  C 518.86 392.38 517.90 388.57 515.88 383.15
  Z
  M 489.03 413.48
  C 487.10 409.20 483.03 408.38 480.93 413.23
  C 476.04 424.51 487.30 440.75 495.54 447.55
  Q 501.39 452.38 510.67 457.54
  C 520.48 462.99 532.92 467.74 544.27 467.00
  Q 551.30 466.53 551.68 460.00
  C 551.79 458.00 550.77 456.29 548.89 455.85
  Q 543.46 454.59 539.69 453.57
  Q 527.98 450.42 516.71 444.02
  Q 497.97 433.40 489.03 413.48
  Z
  M 334.26 681.06
  Q 336.92 680.42 337.74 677.97
  Q 340.99 668.27 343.01 659.00
  C 346.54 642.79 354.65 612.72 358.06 589.02
  Q 358.55 585.63 358.62 581.13
  C 358.66 578.25 357.40 576.02 354.23 577.20
  A 2.23 2.19 11.0 0 0 353.40 577.75
  C 350.14 581.21 348.49 586.21 347.17 591.15
  C 339.73 619.06 333.35 643.03 330.20 669.94
  Q 329.64 674.69 330.18 677.86
  Q 330.51 679.79 333.22 680.97
  A 1.66 1.62 49.1 0 0 334.26 681.06
  Z"
/>
<path d="
  M 769.73 378.30
  Q 758.86 376.31 751.94 373.43
  C 731.59 364.97 715.46 349.40 701.44 332.07
  Q 677.45 302.43 666.33 289.67
  Q 662.15 284.87 648.65 271.60
  Q 630.75 253.99 613.67 241.38
  Q 592.49 225.74 568.80 215.25
  Q 551.89 207.76 538.92 202.85
  Q 519.87 195.63 497.62 191.02
  C 491.46 189.74 484.35 189.59 479.04 188.76
  Q 475.97 188.27 472.26 185.57
  C 467.36 181.99 466.00 173.02 466.50 167.50
  C 467.76 153.53 482.45 148.42 494.51 147.39
  Q 509.08 146.15 526.49 148.35
  C 541.88 150.30 552.95 152.84 568.95 156.51
  C 585.23 160.24 600.61 166.47 615.61 173.17
  Q 641.39 184.69 662.83 196.42
  Q 686.52 209.38 711.87 228.91
  Q 738.31 249.29 759.95 274.92
  C 778.96 297.43 793.97 324.84 792.32 355.25
  Q 791.80 364.73 787.59 373.29
  C 786.42 375.65 784.74 377.41 781.99 378.17
  Q 776.84 379.60 769.73 378.30
  Z"
/>
<path d="
  M 189.63 328.76
  A 0.43 0.43 0.0 0 1 189.15 328.14
  Q 189.72 327.04 190.01 325.54
  C 195.74 295.77 196.61 263.95 186.07 234.96
  C 175.79 206.65 152.97 181.27 122.96 174.80
  A 0.25 0.25 0.0 0 1 122.93 174.31
  Q 125.14 173.58 141.96 168.76
  Q 187.79 155.65 235.26 153.25
  C 256.25 152.19 277.91 153.05 299.45 156.34
  Q 322.83 159.91 345.15 165.80
  A 0.50 0.49 33.7 0 1 345.33 166.67
  Q 325.36 181.77 305.93 199.38
  C 281.89 221.16 258.51 247.55 237.31 272.81
  Q 212.20 302.75 190.45 328.20
  Q 190.05 328.66 189.63 328.76
  Z"
/>
<path d="
  M 513.98 211.73
  A 0.56 0.55 8.2 0 1 514.70 211.20
  L 525.61 214.36
  A 1.63 1.62 -81.9 0 1 526.78 215.92
  L 526.78 229.29
  A 0.79 0.79 0.0 0 1 525.66 230.01
  Q 521.22 228.01 517.91 224.90
  C 515.00 222.17 513.99 215.41 513.98 211.73
  Z"
/>
<path d="
  M 540.43 220.36
  A 0.57 0.57 0.0 0 1 541.22 219.90
  L 551.37 224.45
  A 2.60 2.59 10.3 0 1 552.90 226.65
  Q 553.47 235.75 550.39 244.94
  A 0.61 0.61 0.0 0 1 549.45 245.23
  Q 546.43 243.00 542.82 239.97
  Q 541.28 238.67 540.99 236.59
  Q 539.74 227.46 540.43 220.36
  Z"
/>
<path d="
  M 566.14 231.96
  A 0.28 0.28 0.0 0 1 566.56 231.71
  Q 569.70 233.45 576.73 236.84
  Q 579.67 238.26 579.35 241.71
  Q 578.45 251.38 573.91 259.90
  A 0.43 0.43 0.0 0 1 573.28 260.05
  L 567.76 256.02
  A 3.94 3.93 18.1 0 1 566.14 252.84
  L 566.14 231.96
  Z"
/>
<path d="
  M 758.54 246.62
  A 0.23 0.23 0.0 0 1 758.67 246.23
  Q 770.87 244.09 782.75 243.48
  Q 799.49 242.62 815.23 247.49
  A 0.42 0.42 0.0 0 1 815.25 248.28
  Q 800.49 253.92 786.96 264.22
  Q 782.85 267.35 780.72 270.53
  A 0.62 0.62 0.0 0 1 779.72 270.57
  Q 769.63 257.90 758.54 246.62
  Z"
/>
<path d="
  M 591.13 246.76
  A 0.29 0.29 0.0 0 1 591.59 246.50
  L 603.31 255.05
  A 2.62 2.61 -64.4 0 1 604.29 257.86
  Q 601.09 269.54 593.02 279.54
  A 0.55 0.55 0.0 0 1 592.18 279.56
  L 586.90 273.60
  A 2.47 2.45 33.2 0 1 586.40 271.25
  Q 589.26 262.17 590.95 251.49
  Q 591.32 249.10 591.13 246.76
  Z"
/>
<path d="
  M 660.97 309.02
  A 1.23 1.23 0.0 0 1 662.63 308.93
  Q 664.19 310.24 669.68 316.36
  Q 673.75 320.91 672.94 328.05
  Q 672.15 335.06 670.81 340.39
  A 7.75 7.53 -41.5 0 0 670.62 342.93
  Q 671.58 352.88 673.17 356.49
  Q 681.92 376.44 684.01 383.02
  Q 691.67 407.12 692.56 409.71
  C 698.68 427.53 707.79 442.17 724.75 450.50
  A 0.75 0.75 0.0 0 1 724.66 451.88
  Q 718.11 454.10 711.35 452.11
  Q 698.02 448.19 692.42 435.86
  Q 687.59 425.25 683.11 413.18
  Q 678.12 399.75 668.22 389.78
  Q 663.55 385.07 657.18 378.07
  C 651.56 371.89 647.53 365.39 647.02 356.95
  Q 645.67 334.90 656.90 315.37
  C 658.19 313.13 659.33 310.68 660.97 309.02
  Z"
/>
<path d="
  M 123.58 399.40
  A 0.22 0.22 0.0 0 1 123.85 399.72
  C 114.41 414.52 108.26 430.72 103.88 447.82
  A 0.75 0.73 -80.4 0 1 103.12 448.37
  L 103.08 448.37
  A 0.60 0.60 0.0 0 1 102.54 447.66
  Q 103.31 443.62 104.18 439.28
  Q 104.69 436.73 103.26 435.29
  A 3.03 2.94 -36.1 0 0 99.76 434.79
  Q 98.06 435.68 96.19 437.70
  Q 89.24 445.20 85.72 455.29
  A 1.55 1.55 0.0 0 1 83.95 456.29
  Q 79.78 455.44 76.05 452.66
  C 73.80 450.98 71.93 449.86 73.73 447.24
  Q 91.87 420.79 118.78 401.90
  C 120.05 401.00 122.36 399.95 123.58 399.40
  Z"
/>
<path d="
  M 895.99 480.85
  A 0.34 0.34 0.0 0 1 895.55 481.34
  C 878.51 471.61 859.51 470.72 840.06 473.49
  Q 835.35 474.16 832.17 476.26
  C 828.54 478.65 824.04 482.49 824.77 486.97
  A 1.56 1.55 83.8 0 0 826.38 488.27
  C 843.20 487.40 860.14 494.79 865.96 511.33
  Q 870.24 523.50 868.45 536.32
  A 0.25 0.24 15.4 0 1 868.11 536.51
  Q 867.63 536.30 867.40 535.63
  Q 863.16 523.55 856.71 514.82
  C 846.87 501.49 830.54 493.21 813.83 494.90
  C 801.92 496.10 796.09 504.46 796.24 515.86
  Q 796.34 522.50 797.82 527.55
  A 0.35 0.35 0.0 0 1 797.23 527.90
  C 789.94 520.52 787.29 510.90 784.29 501.22
  Q 782.28 494.77 775.77 497.11
  C 752.58 505.43 726.86 518.14 702.05 526.53
  C 692.46 529.78 682.23 533.04 673.32 533.72
  Q 659.84 534.76 649.10 523.72
  Q 629.80 503.86 612.74 479.81
  Q 610.90 477.21 609.74 475.14
  A 2.68 2.66 44.3 0 1 609.70 472.61
  Q 617.70 457.41 622.87 441.10
  A 0.52 0.52 0.0 0 1 623.80 440.97
  Q 628.19 447.65 632.49 455.03
  C 647.67 481.04 655.61 495.53 662.02 504.69
  C 664.38 508.06 667.47 512.52 671.62 511.37
  Q 724.86 496.64 729.98 495.20
  C 751.51 489.11 769.28 483.06 787.56 473.82
  Q 798.09 468.50 804.82 459.09
  Q 807.91 454.77 814.15 444.15
  Q 820.85 432.74 829.94 425.47
  Q 841.55 416.19 856.99 416.99
  Q 859.43 417.12 860.89 417.69
  A 0.64 0.64 0.0 0 1 860.88 418.88
  C 849.15 423.40 837.13 431.35 829.61 441.58
  Q 824.57 448.43 821.12 456.63
  C 817.99 464.08 822.62 468.69 830.13 466.88
  Q 835.98 465.46 843.43 463.43
  Q 849.31 461.83 859.47 462.11
  C 873.36 462.48 887.80 469.39 895.99 480.85
  Z"
/>
<path d="
  M 74.46 492.72
  A 0.40 0.39 -77.1 0 1 74.03 493.00
  Q 68.84 492.16 62.96 489.35
  A 1.51 1.51 0.0 0 1 62.15 487.60
  Q 65.26 475.81 71.20 465.01
  A 1.40 1.40 0.0 0 1 73.07 464.45
  L 80.32 468.22
  A 1.48 1.48 0.0 0 1 81.06 469.94
  L 74.46 492.72
  Z"
/>
<path d="
  M 58.46 499.73
  A 0.73 0.73 0.0 0 1 59.46 499.27
  L 71.38 504.61
  A 1.34 1.33 16.6 0 1 72.16 506.04
  Q 70.33 517.85 70.24 530.45
  A 0.64 0.63 -88.3 0 1 69.58 531.08
  C 65.61 530.93 59.59 530.45 55.83 528.56
  A 3.15 3.14 -75.8 0 1 54.11 525.66
  Q 54.54 512.32 58.46 499.73
  Z"
/>
<path d="
  M 55.98 542.77
  Q 62.93 542.33 70.13 544.05
  A 0.69 0.69 0.0 0 1 70.66 544.60
  L 74.83 567.69
  A 1.08 1.07 79.8 0 1 73.97 568.94
  L 58.96 571.65
  A 0.66 0.65 78.4 0 1 58.21 571.15
  Q 56.06 562.01 55.28 551.74
  Q 54.74 544.66 55.20 543.36
  A 0.87 0.87 0.0 0 1 55.98 542.77
  Z"
/>
<path d="
  M 547.71 826.47
  A 0.45 0.45 0.0 0 1 546.97 826.47
  L 537.27 812.15
  A 1.32 1.29 17.7 0 1 537.11 811.85
  C 531.97 798.47 525.66 786.14 515.71 776.03
  Q 513.46 773.75 511.12 772.91
  C 506.30 771.18 504.07 777.07 505.37 780.49
  Q 507.36 785.71 511.66 794.10
  Q 515.78 802.12 517.32 810.73
  C 519.66 823.79 517.18 838.39 512.72 850.97
  Q 512.53 851.51 512.14 851.79
  A 0.44 0.44 0.0 0 1 511.46 851.57
  Q 507.69 838.73 501.76 827.04
  A 11.97 11.79 30.5 0 1 500.50 822.31
  Q 499.59 805.70 494.76 790.17
  C 489.78 774.15 480.18 759.30 468.92 745.50
  Q 467.54 743.81 455.92 729.33
  C 451.50 723.81 445.78 713.11 454.73 708.75
  Q 456.49 707.90 469.87 702.36
  Q 486.10 695.64 499.13 683.38
  C 505.72 677.17 509.92 670.69 515.10 661.62
  Q 520.49 652.16 523.07 648.88
  Q 531.84 637.70 545.94 632.94
  C 551.62 631.02 559.36 630.46 564.23 629.25
  C 567.44 628.45 571.62 627.12 572.29 623.69
  C 574.02 614.86 553.16 615.66 547.50 616.01
  Q 530.31 617.07 517.49 617.10
  Q 483.69 617.16 451.20 607.55
  Q 448.36 606.71 445.64 605.38
  A 0.85 0.85 0.0 0 1 445.37 604.06
  Q 463.98 582.70 479.77 558.81
  A 1.99 1.99 0.0 0 1 481.67 557.94
  Q 501.56 560.36 520.80 564.44
  Q 526.95 565.75 539.99 570.28
  Q 543.01 571.33 561.24 578.52
  Q 573.65 583.42 583.58 588.68
  C 596.42 595.49 609.74 605.03 609.33 620.28
  C 609.03 631.49 600.60 638.43 592.34 645.09
  Q 574.54 659.42 554.88 669.63
  Q 517.82 688.88 512.86 691.64
  Q 498.45 699.65 488.75 708.50
  C 483.67 713.12 482.92 717.63 487.48 723.09
  C 496.08 733.38 504.32 743.77 513.26 753.58
  Q 525.15 766.63 533.42 777.08
  Q 539.98 785.38 544.67 795.67
  C 549.15 805.48 550.02 815.30 547.98 825.70
  Q 547.88 826.22 547.71 826.47
  Z"
/>
<path d="
  M 92.27 600.63
  A 1.16 1.16 0.0 0 1 91.82 602.37
  L 74.31 610.48
  A 1.11 1.11 0.0 0 1 72.90 610.04
  Q 66.05 598.54 61.53 586.47
  A 1.69 1.68 70.8 0 1 62.59 584.27
  L 78.11 579.20
  A 1.35 1.34 -28.2 0 1 79.58 579.64
  Q 80.77 581.14 81.44 582.60
  Q 85.46 591.36 92.27 600.63
  Z"
/>
<path d="
  M 308.01 602.72
  A 0.69 0.69 0.0 0 1 308.74 603.56
  Q 303.58 626.59 300.95 649.29
  A 1.21 1.17 -21.8 0 1 300.65 649.96
  C 298.90 651.92 295.41 653.92 293.19 651.23
  Q 284.27 640.44 283.98 625.97
  Q 283.91 622.65 284.26 621.97
  A 3.08 3.02 82.0 0 1 284.85 621.17
  Q 286.01 620.03 287.76 618.76
  Q 296.62 612.32 307.15 603.15
  Q 307.61 602.75 308.01 602.72
  Z"
/>
<path d="
  M 80.92 623.86
  A 0.85 0.85 0.0 0 1 81.06 622.71
  Q 88.73 616.23 97.36 611.30
  Q 99.90 609.84 102.12 611.80
  Q 111.10 619.76 119.53 625.94
  A 0.54 0.54 0.0 0 1 119.58 626.77
  Q 110.25 635.42 104.25 646.79
  A 0.78 0.77 -56.8 0 1 103.08 647.04
  Q 90.69 637.22 80.92 623.86
  Z"
/>
<path d="
  M 271.28 630.92
  A 0.56 0.56 0.0 0 1 272.16 631.34
  Q 273.14 643.61 278.45 654.79
  Q 280.14 658.33 282.70 660.89
  A 0.86 0.86 0.0 0 1 282.55 662.22
  C 272.91 668.26 262.46 671.50 250.96 674.28
  A 1.29 1.28 69.1 0 1 249.53 673.63
  Q 248.84 672.34 248.43 670.83
  Q 245.37 659.80 244.09 648.20
  C 243.80 645.59 244.26 644.85 246.64 643.77
  C 257.87 638.68 263.66 636.21 271.28 630.92
  Z"
/>
<path d="
  M 151.11 642.97
  Q 145.25 652.99 140.92 666.56
  A 0.89 0.88 -71.2 0 1 139.77 667.13
  Q 126.50 662.28 114.83 654.94
  A 1.57 1.56 30.6 0 1 114.29 652.86
  Q 114.34 652.77 118.97 644.57
  C 121.63 639.85 124.81 635.96 128.19 632.02
  A 0.72 0.72 0.0 0 1 129.10 631.88
  Q 138.15 637.29 150.35 641.04
  A 1.33 1.32 23.6 0 1 151.11 642.97
  Z"
/>
<path d="
  M 189.94 677.32
  A 0.64 0.64 0.0 0 1 189.28 678.10
  Q 174.35 677.49 159.76 673.74
  Q 156.75 672.97 154.48 671.93
  A 1.67 1.66 16.4 0 1 153.51 670.16
  C 154.87 661.25 156.62 654.70 161.57 646.62
  A 1.25 1.24 -77.9 0 1 162.46 646.04
  Q 163.90 645.84 165.45 646.27
  Q 179.63 650.17 191.64 652.36
  A 0.87 0.86 -73.2 0 1 192.28 653.56
  Q 187.29 665.19 189.94 677.32
  Z"
/>
<path d="
  M 233.27 648.28
  A 0.01 0.01 0.0 0 1 233.28 648.29
  C 231.54 657.62 232.65 667.19 235.14 676.28
  A 1.04 1.04 0.0 0 1 234.40 677.56
  Q 232.52 678.05 230.27 678.28
  Q 222.63 679.07 211.00 678.88
  Q 207.87 678.83 204.93 677.95
  A 2.52 2.51 -3.0 0 1 203.33 676.52
  C 200.40 669.57 201.63 660.20 204.26 653.40
  A 2.59 2.57 6.7 0 1 206.34 651.77
  L 233.27 648.28
  Z"
/>
</g>
<g fill="#fdfdfd">
<path d="
  M 706.13 359.49
  A 0.64 0.63 -68.9 0 1 707.22 359.00
  Q 714.51 366.49 721.53 371.55
  A 1.38 1.38 0.0 0 1 721.48 373.83
  Q 714.77 378.22 708.65 379.16
  A 1.24 1.23 84.0 0 1 707.24 378.01
  L 706.13 359.49
  Z"
/>
<path d="
  M 733.74 380.18
  L 743.13 385.07
  A 0.70 0.69 -54.1 0 1 743.30 386.18
  L 735.36 394.12
  A 1.22 1.22 0.0 0 1 733.45 393.89
  Q 732.10 391.65 732.35 389.46
  Q 732.86 384.96 733.11 380.54
  A 0.43 0.43 0.0 0 1 733.74 380.18
  Z"
/>
<path d="
  M 766.39 395.96
  L 761.07 401.43
  A 0.98 0.98 0.0 0 1 759.39 400.81
  L 758.91 393.20
  A 0.98 0.98 0.0 0 1 760.23 392.21
  L 766.03 394.36
  A 0.98 0.98 0.0 0 1 766.39 395.96
  Z"
/>
<path d="
  M 705.75 412.99
  A 0.35 0.35 0.0 0 1 705.08 412.98
  L 701.93 400.24
  A 1.17 1.17 0.0 0 1 702.79 398.82
  L 709.58 397.14
  A 0.49 0.49 0.0 0 1 710.16 397.75
  L 705.75 412.99
  Z"
/>
<path d="
  M 724.30 416.15
  A 0.43 0.43 0.0 0 1 725.01 416.51
  L 723.63 434.28
  A 0.75 0.75 0.0 0 1 722.87 434.97
  C 718.76 434.94 712.25 427.08 710.21 423.60
  A 0.73 0.73 0.0 0 1 710.66 422.52
  C 715.87 421.20 720.33 419.51 724.30 416.15
  Z"
/>
</g>
</svg>
