<?xml version="1.0" encoding="UTF-8" standalone="no"?>
<!DOCTYPE svg PUBLIC "-//W3C//DTD SVG 1.1//EN" "http://www.w3.org/Graphics/SVG/1.1/DTD/svg11.dtd">
<svg xmlns="http://www.w3.org/2000/svg" version="1.1" viewBox="0.00 0.00 438.00 561.00">
<g stroke-width="2.00" fill="none" stroke-linecap="butt">
<path stroke="#8ab2d2" vector-effect="non-scaling-stroke" d="
  M 298.43 168.04
  Q 294.59 169.55 289.99 170.05
  Q 274.67 171.70 258.76 168.78
  C 240.20 165.38 223.14 157.38 211.09 142.68
  C 199.29 128.27 194.55 110.19 198.02 91.91
  C 200.72 77.73 206.23 65.39 216.96 56.16
  Q 231.52 43.65 251.06 40.48
  C 273.07 36.92 297.94 41.39 316.83 53.41
  A 0.16 0.16 0.0 0 0 317.06 53.19
  Q 302.44 28.91 276.64 17.13
  C 236.40 -1.24 186.87 8.62 158.74 44.60
  C 142.85 64.94 136.74 89.18 140.72 114.49
  C 142.91 128.41 148.08 141.25 157.33 151.65
  A 4.26 4.22 83.5 0 0 158.44 152.54
  Q 160.42 153.65 168.77 158.76
  C 182.60 167.24 198.12 172.97 214.67 177.10
  Q 235.34 182.25 255.50 182.86
  C 271.99 183.35 286.59 180.22 298.70 168.47
  A 0.26 0.26 0.0 0 0 298.43 168.04"
/>
<path stroke="#418bc6" vector-effect="non-scaling-stroke" d="
  M 307.23 156.12
  L 309.56 154.56"
/>
<path stroke="#847870" vector-effect="non-scaling-stroke" d="
  M 309.56 154.56
  Q 314.35 150.66 317.06 146.33
  Q 332.18 122.15 330.33 92.92
  Q 329.41 78.50 320.51 67.22
  Q 318.72 64.95 316.47 63.44"
/>
<path stroke="#418bc6" vector-effect="non-scaling-stroke" d="
  M 316.47 63.44
  L 310.50 58.99"
/>
<path stroke="#847870" vector-effect="non-scaling-stroke" d="
  M 310.50 58.99
  Q 285.29 44.89 255.78 48.12
  C 241.20 49.72 227.07 55.94 217.63 67.16
  Q 212.46 73.31 210.13 79.15
  Q 198.63 107.95 213.63 131.91
  C 226.36 152.22 250.49 161.14 273.75 162.94
  C 284.54 163.77 297.94 162.29 307.23 156.12"
/>
<path stroke="#b19e92" vector-effect="non-scaling-stroke" d="
  M 310.50 58.99
  Q 310.44 60.42 312.25 60.90
  A 1.46 1.44 78.9 0 1 313.03 61.43
  Q 314.45 63.36 316.47 63.44"
/>
<path stroke="#b19e92" vector-effect="non-scaling-stroke" d="
  M 309.56 154.56
  Q 307.40 154.19 307.23 156.12"
/>
<path stroke="#418bc6" vector-effect="non-scaling-stroke" d="
  M 122.09 134.97
  Q 127.78 141.64 129.12 150.59
  A 0.97 0.97 0.0 0 0 130.11 151.41
  L 144.86 150.90
  A 0.66 0.65 -18.9 0 0 145.37 149.86
  Q 140.60 143.24 137.70 135.35
  A 1.60 1.59 -9.3 0 0 136.23 134.30
  L 122.53 134.05
  A 0.56 0.56 0.0 0 0 122.09 134.97"
/>
<path stroke="#8ab2d2" vector-effect="non-scaling-stroke" d="
  M 396.49 135.95
  A 9.33 9.31 50.8 0 0 391.34 135.42
  Q 383.45 136.88 379.26 144.21
  A 0.36 0.35 -64.3 0 0 379.43 144.72
  Q 384.21 146.65 388.07 149.77
  A 0.36 0.35 38.7 0 0 388.57 149.72
  Q 394.83 141.92 401.52 140.69
  A 1.36 1.36 0.0 0 0 401.78 138.09
  L 396.49 135.95"
/>
<path stroke="#418bc6" vector-effect="non-scaling-stroke" d="
  M 87.00 161.75
  Q 104.52 155.46 121.35 152.57
  A 0.52 0.52 0.0 0 0 121.78 152.01
  Q 121.10 144.52 116.40 139.75
  C 108.95 132.17 99.12 138.19 93.49 144.57
  Q 87.36 151.54 86.47 161.34
  A 0.40 0.40 0.0 0 0 87.00 161.75"
/>
<path stroke="#8ab2d2" vector-effect="non-scaling-stroke" d="
  M 418.10 152.47
  Q 415.46 148.48 411.13 147.36
  C 404.16 145.56 397.96 149.44 393.95 154.95
  A 0.77 0.76 -43.9 0 0 393.93 155.82
  Q 401.36 167.54 391.48 176.43
  A 0.64 0.63 40.9 0 0 391.56 177.43
  Q 392.72 178.20 394.93 178.44
  A 0.58 0.58 0.0 0 0 395.57 177.92
  C 396.74 166.28 406.19 155.14 417.81 153.13
  A 0.43 0.43 0.0 0 0 418.10 152.47"
/>
<path stroke="#8ab2d2" vector-effect="non-scaling-stroke" d="
  M 396.40 185.44
  C 389.42 185.74 386.92 183.08 382.57 178.28
  A 2.03 1.97 -10.1 0 0 381.80 177.76
  C 375.63 175.47 370.34 172.26 369.03 165.29
  Q 368.76 163.82 370.05 163.04
  A 2.76 2.69 -35.8 0 1 373.55 163.56
  Q 377.64 168.41 383.42 171.38
  A 1.95 1.92 51.6 0 0 384.71 171.54
  Q 389.23 170.50 389.76 166.96
  C 390.53 161.89 384.80 155.78 380.63 153.44
  Q 369.15 146.99 361.73 156.90
  C 358.83 160.76 359.28 167.05 360.52 171.41
  Q 361.52 174.94 364.95 179.46
  C 375.84 193.77 387.97 202.91 404.92 207.16
  A 1.05 1.05 0.0 0 0 405.88 206.93
  Q 415.91 198.27 418.34 196.12
  C 425.48 189.81 432.47 178.29 429.45 168.39
  C 425.79 156.43 415.36 158.91 408.20 165.62
  Q 404.08 169.49 402.26 175.45
  C 401.09 179.29 401.61 183.20 405.62 184.19
  C 411.72 185.70 414.57 180.42 417.30 176.00
  A 2.29 2.29 0.0 0 1 420.58 175.34
  C 421.56 176.03 421.88 177.62 421.69 178.71
  Q 420.56 184.99 416.04 188.59
  C 410.14 193.29 401.56 192.60 397.42 185.98
  A 1.14 1.14 0.0 0 0 396.40 185.44"
/>
<path stroke="#418bc6" vector-effect="non-scaling-stroke" d="
  M 142.57 158.96
  Q 142.59 159.01 145.45 162.67
  C 159.47 180.58 159.80 205.12 149.86 225.12
  C 143.62 237.70 135.26 246.24 121.94 250.69
  A 1.19 1.18 -9.0 0 0 121.13 251.80
  L 121.08 254.22
  A 1.02 1.01 -2.7 0 0 122.21 255.24
  Q 130.19 254.37 138.20 251.50
  C 154.33 245.72 165.46 230.54 168.98 214.04
  Q 173.75 191.65 164.22 171.36
  Q 159.37 161.05 148.57 159.22
  C 146.40 158.86 144.33 158.30 142.93 158.38
  A 0.42 0.41 -13.5 0 0 142.57 158.96"
/>
<path stroke="#8ab2d2" vector-effect="non-scaling-stroke" d="
  M 123.20 243.38
  C 134.61 238.09 141.81 227.82 146.18 215.87
  Q 152.22 199.37 147.49 182.73
  C 145.36 175.26 141.91 169.89 136.61 164.03
  C 133.76 160.88 132.70 159.13 128.58 159.65
  Q 100.74 163.15 75.07 175.62
  C 63.82 181.09 52.43 188.91 46.52 200.52
  Q 41.09 211.20 36.82 221.11
  A 1.09 1.07 40.4 0 0 36.91 222.13
  C 39.09 225.39 42.43 228.01 45.51 230.42
  Q 60.28 242.01 79.13 241.91
  A 2.02 2.01 11.9 0 0 80.95 240.73
  C 84.78 232.35 87.02 227.00 90.14 221.56
  Q 91.22 219.68 95.13 219.35
  Q 103.24 218.65 133.08 215.11
  A 2.90 2.90 0.0 0 1 136.32 218.20
  L 136.31 218.49
  A 4.16 4.15 -1.8 0 1 132.57 222.46
  L 125.03 223.22
  A 0.60 0.59 -88.8 0 0 124.49 223.74
  L 122.11 242.58
  A 0.77 0.77 0.0 0 0 123.20 243.38"
/>
<path stroke="#418bc6" vector-effect="non-scaling-stroke" d="
  M 283.84 186.39
  C 280.25 187.75 275.76 188.92 272.02 189.34
  Q 253.38 191.43 235.00 188.71
  C 213.15 185.47 190.68 179.15 171.50 168.48
  A 0.34 0.33 5.1 0 0 171.02 168.88
  Q 173.13 174.96 177.73 178.18
  C 182.03 181.20 186.75 183.90 192.32 186.18
  Q 214.92 195.43 238.84 196.66
  C 253.22 197.40 272.80 197.33 284.21 187.01
  A 0.37 0.37 0.0 0 0 283.84 186.39"
/>
<path stroke="#418bc6" vector-effect="non-scaling-stroke" d="
  M 294.01 232.48
  C 301.83 216.55 303.26 197.66 297.02 180.97
  A 0.82 0.81 -27.2 0 0 295.80 180.58
  L 291.68 183.37
  A 0.64 0.64 0.0 0 0 291.40 183.79
  L 289.96 191.09
  A 3.88 3.78 -48.2 0 0 290.04 192.90
  Q 295.43 211.66 293.40 232.31
  A 0.32 0.32 0.0 0 0 294.01 232.48"
/>
<path stroke="#8ab2d2" vector-effect="non-scaling-stroke" d="
  M 304.59 184.48
  Q 310.70 211.71 298.79 237.26
  Q 297.61 239.80 294.80 245.60
  A 0.49 0.49 0.0 0 0 294.92 246.19
  Q 309.25 258.53 325.86 266.34
  Q 345.05 275.36 360.90 260.68
  C 369.24 252.95 378.55 241.89 386.18 232.43
  A 0.38 0.38 0.0 0 0 386.02 231.83
  C 370.75 225.72 357.18 216.47 348.53 202.44
  A 0.41 0.41 0.0 0 0 347.86 202.39
  C 343.43 207.59 338.09 212.15 333.45 217.37
  C 330.50 220.68 328.59 223.46 326.04 224.24
  A 2.15 1.91 78.3 0 1 323.55 222.39
  C 322.94 217.77 329.27 211.01 332.50 207.95
  A 0.73 0.73 0.0 0 0 332.47 206.85
  L 305.02 184.21
  A 0.27 0.27 0.0 0 0 304.59 184.48"
/>
<path stroke="#418bc6" vector-effect="non-scaling-stroke" d="
  M 401.62 214.15
  A 0.54 0.53 28.1 0 0 401.36 213.31
  C 387.63 208.93 376.12 202.57 366.57 191.44
  Q 365.25 189.89 362.31 186.36
  A 0.85 0.85 0.0 0 0 361.01 186.36
  L 353.58 195.38
  A 1.90 1.88 -41.1 0 0 353.42 197.58
  C 361.64 210.96 374.44 220.02 389.27 224.56
  C 391.49 225.24 392.64 225.92 394.07 224.04
  Q 400.00 216.22 401.62 214.15"
/>
<path stroke="#8ab2d2" vector-effect="non-scaling-stroke" d="
  M 177.28 187.29
  Q 177.90 197.54 177.90 199.52
  Q 177.82 224.82 162.09 242.83
  Q 153.06 253.18 138.66 258.27
  A 0.79 0.79 0.0 0 0 138.13 258.92
  L 135.00 283.65
  A 0.96 0.94 13.0 0 0 135.65 284.67
  C 158.39 292.13 182.97 294.88 206.95 295.78
  A 0.94 0.94 0.0 0 0 207.87 295.17
  Q 209.60 290.43 214.01 290.61
  Q 222.76 290.97 231.31 290.87
  A 0.83 0.83 0.0 0 0 232.12 290.17
  L 234.66 274.48
  A 0.29 0.29 0.0 0 0 234.37 274.14
  Q 217.59 274.02 201.27 272.48
  C 194.98 271.89 192.74 265.16 193.46 259.63
  Q 197.42 229.25 199.40 216.98
  Q 200.02 213.19 203.22 210.93
  C 205.54 209.29 208.60 209.85 212.01 209.99
  Q 236.51 211.03 244.05 211.46
  A 0.42 0.42 0.0 0 0 244.50 211.05
  L 244.61 204.96
  A 0.44 0.44 0.0 0 0 244.19 204.51
  C 222.45 203.69 200.98 199.62 181.62 189.51
  C 180.49 188.92 179.04 187.88 177.87 186.98
  A 0.37 0.36 17.1 0 0 177.28 187.29"
/>
<path stroke="#8ab2d2" vector-effect="non-scaling-stroke" d="
  M 238.79 291.00
  Q 242.22 291.13 246.09 291.11
  Q 251.55 291.09 251.68 295.77
  A 0.66 0.66 0.0 0 0 252.34 296.41
  Q 260.90 296.48 269.77 294.67
  A 3.26 3.26 0.0 0 0 272.18 292.58
  C 280.02 270.49 287.28 246.99 287.59 223.54
  C 287.72 213.62 287.30 205.92 285.06 196.87
  A 0.45 0.45 0.0 0 0 284.38 196.60
  C 274.78 202.75 263.09 204.88 251.97 204.65
  A 0.77 0.76 2.7 0 0 251.18 205.36
  L 250.79 211.20
  A 0.56 0.56 0.0 0 0 251.33 211.80
  Q 257.68 212.00 270.04 212.82
  Q 275.17 213.16 276.81 214.17
  C 281.66 217.15 282.71 222.03 282.09 227.26
  Q 278.65 256.27 278.10 260.83
  C 277.18 268.42 273.53 274.73 265.02 274.68
  Q 245.31 274.58 241.27 274.37
  A 0.47 0.47 0.0 0 0 240.78 274.76
  L 238.25 290.34
  A 0.57 0.57 0.0 0 0 238.79 291.00"
/>
<path stroke="#418bc6" vector-effect="non-scaling-stroke" d="
  M 213.27 216.73
  L 207.12 216.46
  A 1.70 1.70 0.0 0 0 205.37 217.90
  Q 201.86 241.91 199.45 261.23
  Q 199.12 263.88 201.05 265.79
  A 1.80 1.76 -20.5 0 0 202.25 266.32
  L 207.45 266.54
  A 0.32 0.32 0.0 0 0 207.75 266.07
  Q 206.64 263.96 206.89 261.51
  Q 209.00 241.39 211.90 221.95
  Q 212.40 218.61 213.56 217.55
  A 0.47 0.47 0.0 0 0 213.27 216.73"
/>
<path stroke="#8ab2d2" vector-effect="non-scaling-stroke" d="
  M 212.82 260.91
  A 5.84 5.84 0.0 0 0 218.50 267.48
  L 265.53 268.35
  A 5.84 5.84 0.0 0 0 271.43 263.25
  L 276.17 225.74
  A 5.84 5.84 0.0 0 0 270.62 219.18
  L 223.75 217.14
  A 5.84 5.84 0.0 0 0 217.71 222.24
  L 212.82 260.91"
/>
<path stroke="#418bc6" vector-effect="non-scaling-stroke" d="
  M 112.29 274.22
  Q 112.76 269.91 113.68 255.96
  C 114.29 246.67 115.91 236.58 117.11 226.26
  Q 117.18 225.64 117.18 225.62
  A 1.62 1.62 0.0 0 0 115.44 224.36
  L 95.80 226.34
  A 1.97 1.97 0.0 0 0 94.18 227.55
  L 88.94 240.51
  A 1.27 1.24 58.4 0 0 88.84 240.95
  L 87.06 267.08
  A 3.56 3.55 -74.5 0 0 88.98 270.49
  Q 98.93 275.63 111.44 275.02
  A 0.90 0.89 1.5 0 0 112.29 274.22"
/>
<path stroke="#418bc6" vector-effect="non-scaling-stroke" d="
  M 34.24 228.62
  A 0.53 0.52 -54.7 0 0 33.37 228.77
  Q 31.13 234.07 29.62 238.86
  C 28.96 240.95 29.27 242.70 30.52 244.24
  C 39.70 255.52 55.47 261.26 69.84 259.86
  A 1.87 1.86 12.1 0 0 71.29 258.93
  L 77.35 248.44
  A 0.68 0.68 0.0 0 0 76.68 247.43
  C 60.87 249.35 44.79 240.15 34.24 228.62"
/>
<path stroke="#8ab2d2" vector-effect="non-scaling-stroke" d="
  M 31.14 305.20
  Q 30.75 300.87 31.52 297.06
  Q 31.86 295.39 32.86 295.01
  A 2.47 2.15 73.4 0 1 35.78 296.86
  Q 37.39 303.42 37.66 304.26
  C 40.38 312.52 51.35 315.25 56.77 307.68
  Q 59.04 304.49 59.45 300.09
  A 0.34 0.34 0.0 0 0 58.87 299.82
  L 57.91 300.78
  A 1.44 1.44 0.0 0 1 55.47 299.95
  C 54.90 295.63 58.41 291.82 61.70 287.72
  Q 62.67 286.52 63.69 286.28
  A 2.03 1.94 86.8 0 1 66.06 288.49
  Q 65.83 290.63 63.63 293.78
  A 0.99 0.99 0.0 0 0 63.65 294.95
  Q 65.27 297.07 65.54 300.27
  A 0.44 0.43 68.7 0 0 66.24 300.58
  C 73.75 294.79 74.41 287.16 73.49 277.99
  Q 72.95 272.63 70.76 267.33
  A 1.14 1.13 -12.3 0 0 69.65 266.62
  Q 42.51 267.97 24.57 246.97
  A 0.44 0.44 0.0 0 0 23.92 246.94
  C 13.63 257.33 -0.70 281.42 13.37 294.26
  A 0.32 0.32 0.0 0 0 13.91 294.06
  C 14.21 291.52 13.91 288.11 15.05 285.63
  A 1.83 1.82 -59.4 0 1 17.79 284.92
  Q 19.10 285.90 19.29 287.25
  C 20.43 295.30 21.77 302.94 30.65 305.60
  A 0.39 0.39 0.0 0 0 31.14 305.20"
/>
<path stroke="#8ab2d2" vector-effect="non-scaling-stroke" d="
  M 131.98 260.39
  L 121.08 262.33
  A 0.37 0.36 -88.8 0 0 120.78 262.62
  Q 119.43 269.92 119.78 277.44
  A 0.11 0.11 0.0 0 0 119.84 277.54
  L 129.19 283.05
  A 0.16 0.16 0.0 0 0 129.43 282.93
  L 132.24 260.65
  A 0.23 0.23 0.0 0 0 131.98 260.39"
/>
<path stroke="#418bc6" vector-effect="non-scaling-stroke" d="
  M 87.26 276.16
  Q 87.41 284.24 89.60 291.97
  C 92.02 300.53 100.12 303.36 108.38 303.92
  A 0.66 0.65 -84.0 0 0 109.08 303.35
  L 111.77 282.06
  A 0.95 0.94 -86.8 0 0 110.83 281.00
  C 102.53 281.08 94.87 280.12 87.70 275.91
  A 0.29 0.29 0.0 0 0 87.26 276.16"
/>
<path stroke="#418bc6" vector-effect="non-scaling-stroke" d="
  M 118.70 284.69
  Q 117.69 290.47 117.16 297.25
  Q 116.96 299.82 119.23 301.04
  Q 122.65 302.87 126.88 304.65
  A 0.60 0.59 -76.6 0 0 127.70 304.14
  L 128.69 289.56
  A 0.90 0.89 14.4 0 0 128.17 288.69
  L 119.13 284.46
  A 0.31 0.31 0.0 0 0 118.70 284.69"
/>
<path stroke="#418bc6" vector-effect="non-scaling-stroke" d="
  M 162.11 297.68
  C 152.98 295.76 144.20 294.12 135.06 291.17
  A 0.59 0.59 0.0 0 0 134.29 291.66
  L 132.52 305.64
  A 1.82 1.82 0.0 0 0 133.70 307.59
  Q 144.63 311.57 158.67 314.17
  A 1.29 1.29 0.0 0 0 160.18 313.11
  L 162.57 298.36
  A 0.60 0.60 0.0 0 0 162.11 297.68"
/>
<path stroke="#418bc6" vector-effect="non-scaling-stroke" d="
  M 210.80 322.41
  Q 222.97 322.76 236.59 322.54
  C 241.09 322.47 242.82 319.87 243.44 315.46
  Q 244.18 310.13 245.94 298.78
  A 1.49 1.49 0.0 0 0 244.49 297.06
  L 214.27 296.50
  A 1.27 1.26 5.3 0 0 213.00 297.55
  L 209.27 320.56
  A 1.60 1.59 -84.6 0 0 210.80 322.41"
/>
<path stroke="#418bc6" vector-effect="non-scaling-stroke" d="
  M 205.79 301.90
  Q 204.55 301.77 193.48 301.29
  C 185.54 300.95 175.94 299.86 168.59 298.86
  A 0.78 0.78 0.0 0 0 167.71 299.53
  L 165.84 314.37
  A 1.23 1.23 0.0 0 0 166.88 315.75
  Q 184.47 318.35 202.91 318.60
  A 0.89 0.88 -84.8 0 0 203.80 317.85
  L 206.28 302.55
  A 0.56 0.55 -82.3 0 0 205.79 301.90"
/>
<path stroke="#418bc6" vector-effect="non-scaling-stroke" d="
  M 268.57 300.63
  Q 258.74 302.35 251.73 302.37
  A 0.55 0.54 3.6 0 0 251.19 302.84
  L 249.26 318.11
  A 0.57 0.57 0.0 0 0 249.85 318.75
  Q 256.03 318.50 262.06 316.72
  A 3.88 3.87 0.7 0 0 264.64 314.21
  L 268.94 301.06
  A 0.33 0.33 0.0 0 0 268.57 300.63"
/>
<path stroke="#8ab2d2" vector-effect="non-scaling-stroke" d="
  M 116.69 307.09
  C 115.63 322.39 116.72 335.93 126.73 347.95
  C 134.95 357.83 144.13 365.05 155.05 373.95
  Q 161.81 379.47 166.73 385.75
  A 0.35 0.34 -48.7 0 0 167.30 385.71
  Q 169.68 381.80 173.48 378.66
  A 0.90 0.89 50.7 0 0 173.60 377.41
  Q 168.91 371.56 163.26 366.54
  Q 154.05 358.36 143.95 350.36
  Q 137.04 344.89 133.42 340.85
  C 126.42 333.06 124.93 321.80 126.48 311.65
  A 0.38 0.38 0.0 0 0 126.26 311.25
  L 116.98 306.92
  A 0.20 0.20 0.0 0 0 116.69 307.09"
/>
<path stroke="#8ab2d2" vector-effect="non-scaling-stroke" d="
  M 179.62 374.48
  L 189.19 368.02
  A 0.84 0.84 0.0 0 0 189.40 366.84
  C 186.78 363.19 184.91 359.84 188.19 355.67
  Q 190.04 353.33 192.34 352.35
  C 202.39 348.07 219.94 344.36 228.60 353.06
  A 1.43 1.42 50.5 0 0 230.42 353.24
  C 234.21 350.69 237.95 346.87 245.07 340.18
  Q 245.96 339.34 247.02 340.06
  C 249.28 341.59 247.93 345.23 246.55 347.07
  Q 241.27 354.04 233.69 358.29
  A 0.42 0.41 -25.6 0 0 233.50 358.81
  L 240.72 376.88
  A 5.22 5.15 -84.6 0 0 242.69 379.29
  C 254.13 386.80 264.14 392.23 268.03 405.48
  Q 271.94 418.77 276.79 434.26
  A 0.78 0.78 0.0 0 0 278.03 434.63
  C 289.92 424.91 305.90 417.76 321.47 417.81
  A 0.42 0.41 83.3 0 0 321.87 417.30
  Q 317.72 399.54 313.75 385.97
  C 310.22 373.88 305.50 364.07 297.73 355.50
  Q 285.50 342.02 267.00 327.48
  Q 263.20 324.51 261.81 323.69
  A 1.72 1.72 0.0 0 0 260.59 323.48
  Q 254.35 324.77 247.35 324.21
  A 1.05 1.02 -68.7 0 0 246.43 324.63
  Q 244.01 327.87 240.26 328.14
  Q 228.34 329.03 208.26 328.21
  A 3.36 3.34 -31.2 0 1 207.02 327.91
  Q 205.40 327.16 204.53 325.49
  A 1.60 1.57 75.3 0 0 203.10 324.64
  Q 178.73 325.03 154.73 320.03
  Q 142.71 317.52 132.59 313.64
  A 0.33 0.33 0.0 0 0 132.14 313.92
  C 131.51 323.92 131.78 331.26 139.57 338.52
  Q 143.43 342.12 146.35 344.41
  Q 159.92 355.07 170.11 364.67
  Q 175.16 369.43 178.90 374.36
  A 0.52 0.52 0.0 0 0 179.62 374.48"
/>
<path stroke="#418bc6" vector-effect="non-scaling-stroke" d="
  M 29.37 440.99
  C 26.33 430.39 29.22 418.97 32.89 408.63
  C 39.61 389.74 49.15 370.73 62.03 355.33
  A 0.50 0.49 29.1 0 0 61.80 354.54
  C 57.75 353.23 54.92 355.33 52.41 358.66
  Q 48.43 363.97 43.72 372.71
  Q 34.14 390.52 27.26 409.49
  Q 23.07 421.03 23.36 431.94
  Q 23.53 437.98 28.77 441.44
  A 0.40 0.40 0.0 0 0 29.37 440.99"
/>
<path stroke="#8ab2d2" vector-effect="non-scaling-stroke" d="
  M 229.30 366.92
  Q 227.51 362.89 224.83 359.20
  C 218.87 350.97 203.91 354.79 195.84 357.85
  Q 194.77 358.25 193.98 358.92
  A 1.37 1.37 0.0 0 0 193.63 360.59
  L 199.51 372.36
  A 0.52 0.52 0.0 0 0 200.19 372.61
  Q 210.64 368.00 223.26 367.09
  Q 226.15 366.89 228.88 367.44
  A 0.38 0.38 0.0 0 0 229.30 366.92"
/>
<path stroke="#418bc6" vector-effect="non-scaling-stroke" d="
  M 76.40 411.32
  A 0.45 0.45 0.0 0 0 77.16 411.01
  C 77.43 404.59 77.69 399.38 79.22 393.78
  Q 83.34 378.83 94.68 368.28
  A 0.70 0.70 0.0 0 0 94.47 367.12
  L 69.99 357.22
  A 2.61 2.60 30.4 0 0 66.99 358.00
  Q 48.66 380.92 38.69 409.46
  C 35.31 419.13 31.29 433.02 36.44 441.23
  C 38.08 443.85 41.73 442.86 44.05 441.79
  Q 50.34 438.88 55.00 433.30
  A 0.88 0.88 0.0 0 0 54.87 432.05
  Q 49.76 427.97 47.18 425.61
  Q 45.07 423.69 45.75 421.36
  A 2.29 1.89 17.9 0 1 48.59 420.24
  C 52.38 421.58 56.00 424.84 58.19 426.92
  A 1.02 1.02 0.0 0 0 59.70 426.81
  L 61.97 423.84
  A 1.15 1.15 0.0 0 0 61.77 422.23
  C 59.16 420.19 53.83 415.19 53.29 411.51
  C 53.08 410.08 54.09 407.99 55.96 408.39
  Q 57.66 408.76 58.55 409.81
  Q 61.76 413.59 65.28 417.35
  A 1.06 1.05 43.0 0 0 66.87 417.30
  L 69.12 414.58
  A 1.77 1.77 0.0 0 0 68.98 412.19
  C 66.40 409.69 62.18 405.41 61.06 401.19
  A 2.62 2.25 71.3 0 1 62.25 398.24
  Q 64.36 397.32 66.07 399.58
  Q 71.43 406.69 76.40 411.32"
/>
<path stroke="#8ab2d2" vector-effect="non-scaling-stroke" d="
  M 121.63 381.80
  Q 112.72 392.06 110.50 404.95
  C 109.72 409.49 108.26 425.59 113.11 428.18
  Q 123.25 433.61 134.47 435.28
  C 144.20 436.73 150.22 432.90 156.91 426.17
  Q 163.94 419.09 168.71 412.70
  A 5.22 5.18 -30.6 0 0 169.69 408.96
  C 168.20 397.08 160.51 388.56 151.31 380.43
  Q 146.21 375.93 133.90 365.72
  A 0.39 0.39 0.0 0 0 133.28 365.89
  Q 128.64 379.49 126.42 392.70
  Q 126.17 394.19 125.71 394.59
  C 124.51 395.64 122.75 395.84 121.85 394.16
  C 120.68 391.95 121.64 384.78 122.04 381.98
  A 0.24 0.23 -20.9 0 0 121.63 381.80"
/>
<path stroke="#8ab2d2" vector-effect="non-scaling-stroke" d="
  M 104.34 424.42
  Q 103.51 421.01 103.34 416.97
  Q 102.39 394.42 117.26 377.77
  A 0.32 0.32 0.0 0 0 117.16 377.26
  L 103.46 370.86
  A 2.68 2.66 38.2 0 0 100.67 371.18
  C 89.70 379.85 84.64 392.84 83.71 406.74
  Q 83.41 411.11 84.01 413.67
  A 4.12 4.11 -83.9 0 0 86.27 416.47
  L 103.96 424.73
  A 0.27 0.27 0.0 0 0 104.34 424.42"
/>
<path stroke="#8ab2d2" vector-effect="non-scaling-stroke" d="
  M 231.34 404.34
  Q 224.08 406.06 216.99 406.37
  C 208.58 406.73 202.45 405.11 200.15 396.20
  Q 197.04 384.17 192.80 373.70
  A 0.55 0.55 0.0 0 0 191.98 373.45
  L 182.66 379.74
  A 0.79 0.79 0.0 0 0 182.42 380.78
  Q 188.06 390.68 190.39 402.26
  Q 192.01 410.34 190.56 423.30
  Q 189.32 434.38 186.60 448.30
  A 0.54 0.54 0.0 0 0 186.98 448.92
  C 197.70 451.99 209.18 453.54 219.99 451.58
  A 2.30 2.29 3.1 0 0 221.79 449.97
  Q 228.34 427.83 232.07 405.01
  A 0.60 0.59 -2.3 0 0 231.34 404.34"
/>
<path stroke="#8ab2d2" vector-effect="non-scaling-stroke" d="
  M 201.83 378.62
  A 0.44 0.44 0.0 0 0 201.61 379.16
  Q 204.00 385.91 206.22 394.28
  Q 207.77 400.10 213.99 400.19
  Q 223.39 400.32 230.80 398.04
  C 236.59 396.26 236.43 390.10 235.38 385.38
  Q 233.84 378.47 232.46 374.37
  A 0.73 0.72 -4.7 0 0 231.89 373.89
  Q 216.22 371.42 201.83 378.62"
/>
<path stroke="#8ab2d2" vector-effect="non-scaling-stroke" d="
  M 180.92 446.54
  Q 182.17 440.38 184.63 424.50
  Q 187.96 402.94 177.73 384.66
  A 0.83 0.83 0.0 0 0 176.42 384.48
  L 171.19 389.70
  A 1.67 1.66 51.8 0 0 170.95 391.73
  Q 175.92 399.86 176.48 410.02
  Q 176.92 417.78 176.47 421.01
  Q 175.18 430.35 172.06 442.48
  A 0.94 0.94 0.0 0 0 172.57 443.57
  L 179.97 447.02
  A 0.68 0.67 -71.7 0 0 180.92 446.54"
/>
<path stroke="#418bc6" vector-effect="non-scaling-stroke" d="
  M 286.63 463.32
  C 298.41 452.85 311.59 445.80 327.60 443.65
  A 0.77 0.76 -11.4 0 0 328.24 442.70
  L 323.75 425.44
  A 1.40 1.40 0.0 0 0 322.48 424.40
  Q 317.72 424.10 312.19 425.18
  Q 294.12 428.71 280.08 440.92
  A 1.94 1.94 0.0 0 0 279.50 442.98
  L 285.94 463.13
  A 0.43 0.43 0.0 0 0 286.63 463.32"
/>
<path stroke="#418bc6" vector-effect="non-scaling-stroke" d="
  M 332.33 458.03
  C 326.95 459.69 320.89 464.83 315.98 468.96
  Q 314.96 469.82 313.65 469.12
  A 2.37 2.35 26.1 0 1 312.60 466.09
  C 314.91 460.85 323.67 455.66 328.67 453.43
  Q 331.11 452.35 330.11 449.87
  A 0.83 0.83 0.0 0 0 329.22 449.37
  Q 306.60 452.83 288.88 468.49
  A 2.25 2.24 61.3 0 0 288.22 470.77
  Q 292.71 486.66 299.27 501.97
  Q 299.84 503.30 300.61 504.48
  A 0.53 0.52 54.1 0 0 301.38 504.61
  Q 320.76 489.72 334.52 479.02
  Q 344.57 471.20 356.62 463.37
  Q 364.25 458.41 373.26 456.38
  A 0.31 0.31 0.0 0 0 373.38 455.82
  C 367.26 451.23 353.63 450.78 347.05 455.06
  Q 338.40 460.67 329.25 468.63
  A 2.00 2.00 0.0 0 1 326.23 468.16
  L 326.18 468.07
  A 2.98 2.98 0.0 0 1 326.63 464.34
  L 332.63 458.54
  A 0.31 0.30 -75.6 0 0 332.33 458.03"
/>
<path stroke="#418bc6" vector-effect="non-scaling-stroke" d="
  M 218.91 458.06
  Q 210.74 459.60 202.35 458.66
  C 191.56 457.45 180.99 455.14 171.10 450.00
  A 0.82 0.81 -68.1 0 0 169.94 450.50
  L 164.94 467.96
  A 1.81 1.81 0.0 0 0 165.59 469.91
  C 176.03 477.71 191.64 481.38 203.99 480.27
  Q 210.23 479.71 211.91 478.90
  Q 213.46 478.14 214.17 475.93
  Q 219.14 460.21 219.48 458.64
  A 0.49 0.49 0.0 0 0 218.91 458.06"
/>
<path stroke="#418bc6" vector-effect="non-scaling-stroke" d="
  M 379.54 463.44
  A 3.81 3.80 72.8 0 0 375.53 461.32
  C 367.23 462.62 360.45 466.78 353.69 471.44
  Q 346.60 476.34 342.53 479.53
  Q 318.01 498.78 304.24 509.11
  A 2.03 2.02 49.0 0 0 304.03 512.16
  L 305.03 513.16
  A 2.78 2.77 48.5 0 0 308.70 513.39
  Q 334.31 493.51 343.11 486.87
  Q 355.63 477.42 364.47 472.00
  Q 369.66 468.82 378.08 466.75
  A 2.28 2.28 0.0 0 0 379.60 463.56
  L 379.54 463.44"
/>
<path stroke="#418bc6" vector-effect="non-scaling-stroke" d="
  M 318.80 514.15
  Q 328.58 510.21 338.21 504.46
  Q 355.02 494.42 369.62 482.12
  Q 374.52 477.98 377.82 473.09
  A 0.50 0.50 0.0 0 0 377.23 472.34
  C 369.77 475.07 362.85 479.91 356.60 484.59
  Q 339.06 497.73 318.67 513.94
  A 0.13 0.12 13.8 0 0 318.80 514.15"
/>
<path stroke="#418bc6" vector-effect="non-scaling-stroke" d="
  M 211.50 485.84
  A 0.48 0.48 0.0 0 0 210.96 485.24
  Q 185.33 489.61 164.06 475.48
  A 0.59 0.59 0.0 0 0 163.17 475.79
  L 162.07 479.05
  A 4.53 4.45 -19.3 0 1 161.50 480.21
  Q 156.71 487.20 153.40 495.29
  A 3.17 3.14 -50.4 0 0 153.66 498.20
  Q 155.94 501.79 159.07 504.92
  Q 171.89 517.72 186.86 526.59
  C 200.16 534.48 217.00 535.69 231.75 531.52
  Q 234.26 530.81 234.34 529.00
  Q 234.79 518.73 227.61 511.59
  Q 222.68 506.69 215.51 507.44
  Q 207.65 508.25 201.69 511.08
  C 200.74 511.53 198.65 511.97 197.55 511.27
  A 2.31 2.05 33.5 0 1 196.73 508.20
  C 198.99 505.01 202.47 504.22 206.40 503.22
  Q 212.05 501.79 215.64 501.84
  A 0.74 0.74 0.0 0 0 216.27 500.69
  L 214.47 498.02
  A 2.19 2.19 0.0 0 0 212.30 497.09
  Q 201.11 498.91 192.58 501.47
  Q 190.21 502.18 189.10 501.60
  C 186.70 500.36 187.56 496.90 189.79 495.95
  C 195.55 493.48 202.00 492.57 209.17 491.35
  A 1.29 1.27 2.9 0 0 210.18 490.45
  L 211.50 485.84"
/>
<path stroke="#418bc6" vector-effect="non-scaling-stroke" d="
  M 150.28 502.93
  C 147.35 508.72 151.00 512.14 155.43 516.67
  Q 156.32 517.58 160.90 521.56
  C 171.08 530.41 180.84 537.09 193.20 542.05
  C 203.81 546.31 216.22 545.77 227.21 544.21
  Q 233.93 543.27 233.84 536.48
  A 0.37 0.37 0.0 0 0 233.33 536.14
  Q 228.14 538.25 222.83 538.82
  C 208.07 540.40 194.33 537.98 181.86 529.97
  Q 165.79 519.65 155.18 508.08
  Q 152.44 505.09 150.92 502.88
  A 0.37 0.37 0.0 0 0 150.28 502.93"
/>
<path stroke="#8ab2d2" vector-effect="non-scaling-stroke" d="
  M 142.07 88.42
  C 141.19 100.46 146.11 110.94 158.26 114.49
  Q 162.67 115.78 167.01 114.95
  C 178.34 112.79 183.35 102.07 184.13 91.52
  C 184.91 80.97 181.52 69.64 170.62 65.83
  Q 166.45 64.38 161.90 65.01
  C 149.36 66.75 142.96 76.39 142.07 88.42"
/>
<path stroke="#418bc6" vector-effect="non-scaling-stroke" d="
  M 163.8616 72.8062
  A 17.38 12.92 -86.3 0 0 149.8469 89.3162
  A 17.38 12.92 -86.3 0 0 161.6184 107.4938
  A 17.38 12.92 -86.3 0 0 175.6331 90.9838
  A 17.38 12.92 -86.3 0 0 163.8616 72.8062"
/>
<path stroke="#418bc6" vector-effect="non-scaling-stroke" d="
  M 163.67 91.10
  C 163.56 94.02 162.58 96.67 161.83 99.86
  A 1.86 1.82 -80.1 0 0 163.38 102.13
  C 168.20 102.68 169.76 94.63 169.89 91.34
  C 170.02 88.05 169.10 79.91 164.25 80.08
  A 1.86 1.82 84.6 0 0 162.52 82.22
  C 163.02 85.46 163.78 88.18 163.67 91.10"
/>
<path stroke="#8ab2d2" vector-effect="non-scaling-stroke" d="
  M 252.8779 232.4258
  A 2.55 2.55 0.0 0 0 251.4112 229.1313
  L 251.2618 229.0740
  A 2.55 2.55 0.0 0 0 247.9673 230.5408
  L 240.1621 250.8742
  A 2.55 2.55 0.0 0 0 241.6288 254.1687
  L 241.7782 254.2260
  A 2.55 2.55 0.0 0 0 245.0727 252.7592
  L 252.8779 232.4258"
/>
<path stroke="#8ab2d2" vector-effect="non-scaling-stroke" d="
  M 229.82 241.62
  Q 229.77 240.79 230.29 240.39
  Q 233.23 238.10 237.05 234.76
  A 3.30 3.28 -34.5 0 0 237.80 230.76
  L 237.72 230.61
  A 2.28 2.27 -32.9 0 0 234.28 229.88
  Q 228.67 234.31 223.12 238.75
  C 221.25 240.24 219.41 242.10 222.09 243.96
  Q 225.48 246.31 232.88 251.55
  A 2.53 2.52 36.1 0 0 236.35 251.01
  L 236.42 250.93
  A 2.80 2.79 -51.1 0 0 236.01 247.03
  L 230.06 242.15
  A 0.57 0.57 0.0 0 1 229.92 241.96
  Q 229.83 241.75 229.82 241.62"
/>
<path stroke="#8ab2d2" vector-effect="non-scaling-stroke" d="
  M 262.82 241.17
  A 0.61 0.61 0.0 0 1 262.74 242.03
  L 255.56 247.93
  A 2.54 2.54 0.0 0 0 255.36 251.67
  L 255.52 251.84
  A 3.26 3.26 0.0 0 0 259.66 252.05
  Q 263.69 249.12 269.28 244.55
  Q 271.88 242.43 269.88 239.90
  Q 269.30 239.17 261.95 232.19
  Q 259.68 230.03 257.54 231.35
  A 1.55 1.52 79.6 0 0 256.83 232.40
  Q 256.40 234.93 258.37 236.71
  Q 261.35 239.38 262.82 241.17"
/>
</g>
<g fill="var(--art-astronaut-primary)">
<path d="
  M 298.43 168.04
  A 0.26 0.26 0.0 0 1 298.70 168.47
  C 286.59 180.22 271.99 183.35 255.50 182.86
  Q 235.34 182.25 214.67 177.10
  C 198.12 172.97 182.60 167.24 168.77 158.76
  Q 160.42 153.65 158.44 152.54
  A 4.26 4.22 83.5 0 1 157.33 151.65
  C 148.08 141.25 142.91 128.41 140.72 114.49
  C 136.74 89.18 142.85 64.94 158.74 44.60
  C 186.87 8.62 236.40 -1.24 276.64 17.13
  Q 302.44 28.91 317.06 53.19
  A 0.16 0.16 0.0 0 1 316.83 53.41
  C 297.94 41.39 273.07 36.92 251.06 40.48
  Q 231.52 43.65 216.96 56.16
  C 206.23 65.39 200.72 77.73 198.02 91.91
  C 194.55 110.19 199.29 128.27 211.09 142.68
  C 223.14 157.38 240.20 165.38 258.76 168.78
  Q 274.67 171.70 289.99 170.05
  Q 294.59 169.55 298.43 168.04
  Z
  M 142.07 88.42
  C 141.19 100.46 146.11 110.94 158.26 114.49
  Q 162.67 115.78 167.01 114.95
  C 178.34 112.79 183.35 102.07 184.13 91.52
  C 184.91 80.97 181.52 69.64 170.62 65.83
  Q 166.45 64.38 161.90 65.01
  C 149.36 66.75 142.96 76.39 142.07 88.42
  Z"
/>
<path d="
  M 401.52 140.69
  Q 394.83 141.92 388.57 149.72
  A 0.36 0.35 38.7 0 1 388.07 149.77
  Q 384.21 146.65 379.43 144.72
  A 0.36 0.35 -64.3 0 1 379.26 144.21
  Q 383.45 136.88 391.34 135.42
  A 9.33 9.31 50.8 0 1 396.49 135.95
  L 401.78 138.09
  A 1.36 1.36 0.0 0 1 401.52 140.69
  Z"
/>
<path d="
  M 417.81 153.13
  C 406.19 155.14 396.74 166.28 395.57 177.92
  A 0.58 0.58 0.0 0 1 394.93 178.44
  Q 392.72 178.20 391.56 177.43
  A 0.64 0.63 40.9 0 1 391.48 176.43
  Q 401.36 167.54 393.93 155.82
  A 0.77 0.76 -43.9 0 1 393.95 154.95
  C 397.96 149.44 404.16 145.56 411.13 147.36
  Q 415.46 148.48 418.10 152.47
  A 0.43 0.43 0.0 0 1 417.81 153.13
  Z"
/>
<path d="
  M 397.42 185.98
  C 401.56 192.60 410.14 193.29 416.04 188.59
  Q 420.56 184.99 421.69 178.71
  C 421.88 177.62 421.56 176.03 420.58 175.34
  A 2.29 2.29 0.0 0 0 417.30 176.00
  C 414.57 180.42 411.72 185.70 405.62 184.19
  C 401.61 183.20 401.09 179.29 402.26 175.45
  Q 404.08 169.49 408.20 165.62
  C 415.36 158.91 425.79 156.43 429.45 168.39
  C 432.47 178.29 425.48 189.81 418.34 196.12
  Q 415.91 198.27 405.88 206.93
  A 1.05 1.05 0.0 0 1 404.92 207.16
  C 387.97 202.91 375.84 193.77 364.95 179.46
  Q 361.52 174.94 360.52 171.41
  C 359.28 167.05 358.83 160.76 361.73 156.90
  Q 369.15 146.99 380.63 153.44
  C 384.80 155.78 390.53 161.89 389.76 166.96
  Q 389.23 170.50 384.71 171.54
  A 1.95 1.92 51.6 0 1 383.42 171.38
  Q 377.64 168.41 373.55 163.56
  A 2.76 2.69 -35.8 0 0 370.05 163.04
  Q 368.76 163.82 369.03 165.29
  C 370.34 172.26 375.63 175.47 381.80 177.76
  A 2.03 1.97 -10.1 0 1 382.57 178.28
  C 386.92 183.08 389.42 185.74 396.40 185.44
  A 1.14 1.14 0.0 0 1 397.42 185.98
  Z"
/>
<path d="
  M 123.20 243.38
  A 0.77 0.77 0.0 0 1 122.11 242.58
  L 124.49 223.74
  A 0.60 0.59 -88.8 0 1 125.03 223.22
  L 132.57 222.46
  A 4.16 4.15 -1.8 0 0 136.31 218.49
  L 136.32 218.20
  A 2.90 2.90 0.0 0 0 133.08 215.11
  Q 103.24 218.65 95.13 219.35
  Q 91.22 219.68 90.14 221.56
  C 87.02 227.00 84.78 232.35 80.95 240.73
  A 2.02 2.01 11.9 0 1 79.13 241.91
  Q 60.28 242.01 45.51 230.42
  C 42.43 228.01 39.09 225.39 36.91 222.13
  A 1.09 1.07 40.4 0 1 36.82 221.11
  Q 41.09 211.20 46.52 200.52
  C 52.43 188.91 63.82 181.09 75.07 175.62
  Q 100.74 163.15 128.58 159.65
  C 132.70 159.13 133.76 160.88 136.61 164.03
  C 141.91 169.89 145.36 175.26 147.49 182.73
  Q 152.22 199.37 146.18 215.87
  C 141.81 227.82 134.61 238.09 123.20 243.38
  Z"
/>
<path d="
  M 304.59 184.48
  A 0.27 0.27 0.0 0 1 305.02 184.21
  L 332.47 206.85
  A 0.73 0.73 0.0 0 1 332.50 207.95
  C 329.27 211.01 322.94 217.77 323.55 222.39
  A 2.15 1.91 78.3 0 0 326.04 224.24
  C 328.59 223.46 330.50 220.68 333.45 217.37
  C 338.09 212.15 343.43 207.59 347.86 202.39
  A 0.41 0.41 0.0 0 1 348.53 202.44
  C 357.18 216.47 370.75 225.72 386.02 231.83
  A 0.38 0.38 0.0 0 1 386.18 232.43
  C 378.55 241.89 369.24 252.95 360.90 260.68
  Q 345.05 275.36 325.86 266.34
  Q 309.25 258.53 294.92 246.19
  A 0.49 0.49 0.0 0 1 294.80 245.60
  Q 297.61 239.80 298.79 237.26
  Q 310.70 211.71 304.59 184.48
  Z"
/>
<path d="
  M 177.87 186.98
  C 179.04 187.88 180.49 188.92 181.62 189.51
  C 200.98 199.62 222.45 203.69 244.19 204.51
  A 0.44 0.44 0.0 0 1 244.61 204.96
  L 244.50 211.05
  A 0.42 0.42 0.0 0 1 244.05 211.46
  Q 236.51 211.03 212.01 209.99
  C 208.60 209.85 205.54 209.29 203.22 210.93
  Q 200.02 213.19 199.40 216.98
  Q 197.42 229.25 193.46 259.63
  C 192.74 265.16 194.98 271.89 201.27 272.48
  Q 217.59 274.02 234.37 274.14
  A 0.29 0.29 0.0 0 1 234.66 274.48
  L 232.12 290.17
  A 0.83 0.83 0.0 0 1 231.31 290.87
  Q 222.76 290.97 214.01 290.61
  Q 209.60 290.43 207.87 295.17
  A 0.94 0.94 0.0 0 1 206.95 295.78
  C 182.97 294.88 158.39 292.13 135.65 284.67
  A 0.96 0.94 13.0 0 1 135.00 283.65
  L 138.13 258.92
  A 0.79 0.79 0.0 0 1 138.66 258.27
  Q 153.06 253.18 162.09 242.83
  Q 177.82 224.82 177.90 199.52
  Q 177.90 197.54 177.28 187.29
  A 0.37 0.36 17.1 0 1 177.87 186.98
  Z"
/>
<path d="
  M 238.25 290.34
  L 240.78 274.76
  A 0.47 0.47 0.0 0 1 241.27 274.37
  Q 245.31 274.58 265.02 274.68
  C 273.53 274.73 277.18 268.42 278.10 260.83
  Q 278.65 256.27 282.09 227.26
  C 282.71 222.03 281.66 217.15 276.81 214.17
  Q 275.17 213.16 270.04 212.82
  Q 257.68 212.00 251.33 211.80
  A 0.56 0.56 0.0 0 1 250.79 211.20
  L 251.18 205.36
  A 0.77 0.76 2.7 0 1 251.97 204.65
  C 263.09 204.88 274.78 202.75 284.38 196.60
  A 0.45 0.45 0.0 0 1 285.06 196.87
  C 287.30 205.92 287.72 213.62 287.59 223.54
  C 287.28 246.99 280.02 270.49 272.18 292.58
  A 3.26 3.26 0.0 0 1 269.77 294.67
  Q 260.90 296.48 252.34 296.41
  A 0.66 0.66 0.0 0 1 251.68 295.77
  Q 251.55 291.09 246.09 291.11
  Q 242.22 291.13 238.79 291.00
  A 0.57 0.57 0.0 0 1 238.25 290.34
  Z"
/>
<path d="
  M 212.82 260.91
  L 217.71 222.24
  A 5.84 5.84 0.0 0 1 223.75 217.14
  L 270.62 219.18
  A 5.84 5.84 0.0 0 1 276.17 225.74
  L 271.43 263.25
  A 5.84 5.84 0.0 0 1 265.53 268.35
  L 218.50 267.48
  A 5.84 5.84 0.0 0 1 212.82 260.91
  Z
  M 252.8779 232.4258
  A 2.55 2.55 0.0 0 0 251.4112 229.1313
  L 251.2618 229.0740
  A 2.55 2.55 0.0 0 0 247.9673 230.5408
  L 240.1621 250.8742
  A 2.55 2.55 0.0 0 0 241.6288 254.1687
  L 241.7782 254.2260
  A 2.55 2.55 0.0 0 0 245.0727 252.7592
  L 252.8779 232.4258
  Z
  M 229.82 241.62
  Q 229.77 240.79 230.29 240.39
  Q 233.23 238.10 237.05 234.76
  A 3.30 3.28 -34.5 0 0 237.80 230.76
  L 237.72 230.61
  A 2.28 2.27 -32.9 0 0 234.28 229.88
  Q 228.67 234.31 223.12 238.75
  C 221.25 240.24 219.41 242.10 222.09 243.96
  Q 225.48 246.31 232.88 251.55
  A 2.53 2.52 36.1 0 0 236.35 251.01
  L 236.42 250.93
  A 2.80 2.79 -51.1 0 0 236.01 247.03
  L 230.06 242.15
  A 0.57 0.57 0.0 0 1 229.92 241.96
  Q 229.83 241.75 229.82 241.62
  Z
  M 262.82 241.17
  A 0.61 0.61 0.0 0 1 262.74 242.03
  L 255.56 247.93
  A 2.54 2.54 0.0 0 0 255.36 251.67
  L 255.52 251.84
  A 3.26 3.26 0.0 0 0 259.66 252.05
  Q 263.69 249.12 269.28 244.55
  Q 271.88 242.43 269.88 239.90
  Q 269.30 239.17 261.95 232.19
  Q 259.68 230.03 257.54 231.35
  A 1.55 1.52 79.6 0 0 256.83 232.40
  Q 256.40 234.93 258.37 236.71
  Q 261.35 239.38 262.82 241.17
  Z"
/>
<path d="
  M 30.65 305.60
  C 21.77 302.94 20.43 295.30 19.29 287.25
  Q 19.10 285.90 17.79 284.92
  A 1.83 1.82 -59.4 0 0 15.05 285.63
  C 13.91 288.11 14.21 291.52 13.91 294.06
  A 0.32 0.32 0.0 0 1 13.37 294.26
  C -0.70 281.42 13.63 257.33 23.92 246.94
  A 0.44 0.44 0.0 0 1 24.57 246.97
  Q 42.51 267.97 69.65 266.62
  A 1.14 1.13 -12.3 0 1 70.76 267.33
  Q 72.95 272.63 73.49 277.99
  C 74.41 287.16 73.75 294.79 66.24 300.58
  A 0.44 0.43 68.7 0 1 65.54 300.27
  Q 65.27 297.07 63.65 294.95
  A 0.99 0.99 0.0 0 1 63.63 293.78
  Q 65.83 290.63 66.06 288.49
  A 2.03 1.94 86.8 0 0 63.69 286.28
  Q 62.67 286.52 61.70 287.72
  C 58.41 291.82 54.90 295.63 55.47 299.95
  A 1.44 1.44 0.0 0 0 57.91 300.78
  L 58.87 299.82
  A 0.34 0.34 0.0 0 1 59.45 300.09
  Q 59.04 304.49 56.77 307.68
  C 51.35 315.25 40.38 312.52 37.66 304.26
  Q 37.39 303.42 35.78 296.86
  A 2.47 2.15 73.4 0 0 32.86 295.01
  Q 31.86 295.39 31.52 297.06
  Q 30.75 300.87 31.14 305.20
  A 0.39 0.39 0.0 0 1 30.65 305.60
  Z"
/>
<path d="
  M 131.98 260.39
  A 0.23 0.23 0.0 0 1 132.24 260.65
  L 129.43 282.93
  A 0.16 0.16 0.0 0 1 129.19 283.05
  L 119.84 277.54
  A 0.11 0.11 0.0 0 1 119.78 277.44
  Q 119.43 269.92 120.78 262.62
  A 0.37 0.36 -88.8 0 1 121.08 262.33
  L 131.98 260.39
  Z"
/>
<path d="
  M 116.69 307.09
  A 0.20 0.20 0.0 0 1 116.98 306.92
  L 126.26 311.25
  A 0.38 0.38 0.0 0 1 126.48 311.65
  C 124.93 321.80 126.42 333.06 133.42 340.85
  Q 137.04 344.89 143.95 350.36
  Q 154.05 358.36 163.26 366.54
  Q 168.91 371.56 173.60 377.41
  A 0.90 0.89 50.7 0 1 173.48 378.66
  Q 169.68 381.80 167.30 385.71
  A 0.35 0.34 -48.7 0 1 166.73 385.75
  Q 161.81 379.47 155.05 373.95
  C 144.13 365.05 134.95 357.83 126.73 347.95
  C 116.72 335.93 115.63 322.39 116.69 307.09
  Z"
/>
<path d="
  M 179.62 374.48
  A 0.52 0.52 0.0 0 1 178.90 374.36
  Q 175.16 369.43 170.11 364.67
  Q 159.92 355.07 146.35 344.41
  Q 143.43 342.12 139.57 338.52
  C 131.78 331.26 131.51 323.92 132.14 313.92
  A 0.33 0.33 0.0 0 1 132.59 313.64
  Q 142.71 317.52 154.73 320.03
  Q 178.73 325.03 203.10 324.64
  A 1.60 1.57 75.3 0 1 204.53 325.49
  Q 205.40 327.16 207.02 327.91
  A 3.36 3.34 -31.2 0 0 208.26 328.21
  Q 228.34 329.03 240.26 328.14
  Q 244.01 327.87 246.43 324.63
  A 1.05 1.02 -68.7 0 1 247.35 324.21
  Q 254.35 324.77 260.59 323.48
  A 1.72 1.72 0.0 0 1 261.81 323.69
  Q 263.20 324.51 267.00 327.48
  Q 285.50 342.02 297.73 355.50
  C 305.50 364.07 310.22 373.88 313.75 385.97
  Q 317.72 399.54 321.87 417.30
  A 0.42 0.41 83.3 0 1 321.47 417.81
  C 305.90 417.76 289.92 424.91 278.03 434.63
  A 0.78 0.78 0.0 0 1 276.79 434.26
  Q 271.94 418.77 268.03 405.48
  C 264.14 392.23 254.13 386.80 242.69 379.29
  A 5.22 5.15 -84.6 0 1 240.72 376.88
  L 233.50 358.81
  A 0.42 0.41 -25.6 0 1 233.69 358.29
  Q 241.27 354.04 246.55 347.07
  C 247.93 345.23 249.28 341.59 247.02 340.06
  Q 245.96 339.34 245.07 340.18
  C 237.95 346.87 234.21 350.69 230.42 353.24
  A 1.43 1.42 50.5 0 1 228.60 353.06
  C 219.94 344.36 202.39 348.07 192.34 352.35
  Q 190.04 353.33 188.19 355.67
  C 184.91 359.84 186.78 363.19 189.40 366.84
  A 0.84 0.84 0.0 0 1 189.19 368.02
  L 179.62 374.48
  Z"
/>
<path d="
  M 229.30 366.92
  A 0.38 0.38 0.0 0 1 228.88 367.44
  Q 226.15 366.89 223.26 367.09
  Q 210.64 368.00 200.19 372.61
  A 0.52 0.52 0.0 0 1 199.51 372.36
  L 193.63 360.59
  A 1.37 1.37 0.0 0 1 193.98 358.92
  Q 194.77 358.25 195.84 357.85
  C 203.91 354.79 218.87 350.97 224.83 359.20
  Q 227.51 362.89 229.30 366.92
  Z"
/>
<path d="
  M 121.63 381.80
  A 0.24 0.23 -20.9 0 1 122.04 381.98
  C 121.64 384.78 120.68 391.95 121.85 394.16
  C 122.75 395.84 124.51 395.64 125.71 394.59
  Q 126.17 394.19 126.42 392.70
  Q 128.64 379.49 133.28 365.89
  A 0.39 0.39 0.0 0 1 133.90 365.72
  Q 146.21 375.93 151.31 380.43
  C 160.51 388.56 168.20 397.08 169.69 408.96
  A 5.22 5.18 -30.6 0 1 168.71 412.70
  Q 163.94 419.09 156.91 426.17
  C 150.22 432.90 144.20 436.73 134.47 435.28
  Q 123.25 433.61 113.11 428.18
  C 108.26 425.59 109.72 409.49 110.50 404.95
  Q 112.72 392.06 121.63 381.80
  Z"
/>
<path d="
  M 104.34 424.42
  A 0.27 0.27 0.0 0 1 103.96 424.73
  L 86.27 416.47
  A 4.12 4.11 -83.9 0 1 84.01 413.67
  Q 83.41 411.11 83.71 406.74
  C 84.64 392.84 89.70 379.85 100.67 371.18
  A 2.68 2.66 38.2 0 1 103.46 370.86
  L 117.16 377.26
  A 0.32 0.32 0.0 0 1 117.26 377.77
  Q 102.39 394.42 103.34 416.97
  Q 103.51 421.01 104.34 424.42
  Z"
/>
<path d="
  M 231.34 404.34
  A 0.60 0.59 -2.3 0 1 232.07 405.01
  Q 228.34 427.83 221.79 449.97
  A 2.30 2.29 3.1 0 1 219.99 451.58
  C 209.18 453.54 197.70 451.99 186.98 448.92
  A 0.54 0.54 0.0 0 1 186.60 448.30
  Q 189.32 434.38 190.56 423.30
  Q 192.01 410.34 190.39 402.26
  Q 188.06 390.68 182.42 380.78
  A 0.79 0.79 0.0 0 1 182.66 379.74
  L 191.98 373.45
  A 0.55 0.55 0.0 0 1 192.80 373.70
  Q 197.04 384.17 200.15 396.20
  C 202.45 405.11 208.58 406.73 216.99 406.37
  Q 224.08 406.06 231.34 404.34
  Z"
/>
<path d="
  M 201.83 378.62
  Q 216.22 371.42 231.89 373.89
  A 0.73 0.72 -4.7 0 1 232.46 374.37
  Q 233.84 378.47 235.38 385.38
  C 236.43 390.10 236.59 396.26 230.80 398.04
  Q 223.39 400.32 213.99 400.19
  Q 207.77 400.10 206.22 394.28
  Q 204.00 385.91 201.61 379.16
  A 0.44 0.44 0.0 0 1 201.83 378.62
  Z"
/>
<path d="
  M 180.92 446.54
  A 0.68 0.67 -71.7 0 1 179.97 447.02
  L 172.57 443.57
  A 0.94 0.94 0.0 0 1 172.06 442.48
  Q 175.18 430.35 176.47 421.01
  Q 176.92 417.78 176.48 410.02
  Q 175.92 399.86 170.95 391.73
  A 1.67 1.66 51.8 0 1 171.19 389.70
  L 176.42 384.48
  A 0.83 0.83 0.0 0 1 177.73 384.66
  Q 187.96 402.94 184.63 424.50
  Q 182.17 440.38 180.92 446.54
  Z"
/>
</g>
<g fill="var(--art-stroke)">
<path d="
  M 241.24 0.00
  C 274.39 2.42 303.62 17.41 322.08 45.58
  Q 337.27 68.77 338.32 96.23
  Q 339.15 118.30 331.48 136.80
  Q 323.59 155.84 307.65 170.82
  A 1.13 0.42 -69.7 0 0 307.53 170.96
  L 305.30 173.75
  A 1.21 1.21 0.0 0 0 305.52 175.47
  Q 323.51 189.18 337.61 201.71
  A 0.97 0.96 -49.3 0 0 338.99 201.60
  Q 343.60 196.02 348.90 190.16
  Q 353.43 185.14 355.83 181.24
  A 1.39 1.37 45.9 0 0 355.84 179.82
  Q 353.65 176.10 352.71 171.72
  Q 348.74 153.23 364.05 145.25
  C 365.95 144.26 368.99 143.64 371.19 142.68
  A 1.49 1.45 -88.6 0 0 371.95 141.94
  C 379.78 125.15 401.95 122.60 412.09 138.87
  A 1.84 1.81 84.7 0 0 412.93 139.58
  C 420.19 142.56 422.73 146.02 427.03 152.82
  A 6.86 6.54 8.7 0 0 427.81 153.83
  C 433.04 159.34 437.35 163.79 437.53 172.03
  C 437.87 187.84 427.57 197.99 416.57 207.59
  Q 412.97 210.73 409.47 215.41
  Q 392.23 238.46 371.09 261.08
  Q 364.09 268.56 357.46 272.69
  C 346.76 279.35 332.00 278.45 321.07 272.67
  Q 306.51 264.98 294.09 255.39
  Q 293.09 254.62 291.82 253.31
  A 0.43 0.43 0.0 0 0 291.08 253.60
  Q 291.08 254.15 290.20 258.02
  Q 288.49 265.55 286.23 272.28
  Q 276.58 301.17 270.21 319.64
  A 0.80 0.79 -61.4 0 0 270.47 320.53
  Q 278.79 327.09 288.06 335.22
  Q 301.31 346.84 308.23 356.50
  C 317.35 369.23 320.98 382.81 324.86 398.07
  Q 332.36 427.51 337.20 449.01
  A 0.59 0.59 0.0 0 0 337.94 449.46
  C 351.41 445.72 362.72 442.28 375.25 448.99
  C 383.85 453.59 390.87 465.30 385.21 474.70
  Q 382.61 479.01 377.46 483.96
  C 370.24 490.89 362.40 496.50 353.93 502.33
  Q 339.53 512.24 324.05 519.55
  C 318.93 521.97 312.69 524.06 306.83 522.78
  C 300.67 521.43 293.98 508.71 291.89 503.63
  Q 287.68 493.42 283.65 481.12
  Q 272.23 446.25 261.78 411.32
  Q 259.48 403.63 257.84 401.10
  C 254.27 395.60 248.02 391.97 243.52 388.35
  A 0.30 0.30 0.0 0 0 243.04 388.59
  C 243.09 392.07 242.83 393.98 241.67 397.20
  Q 239.98 401.89 239.64 404.42
  C 237.57 419.98 233.79 435.44 229.43 452.25
  Q 227.53 459.59 224.84 467.32
  C 221.82 475.96 219.56 481.74 218.14 488.52
  A 3.90 3.87 -55.1 0 0 218.64 491.39
  L 222.93 498.32
  A 2.54 2.51 -87.2 0 0 223.53 498.99
  Q 228.38 502.80 233.45 507.83
  C 237.69 512.03 240.37 516.54 241.00 522.67
  Q 241.78 530.38 240.82 537.92
  C 239.56 547.81 233.45 550.88 224.33 552.27
  Q 210.58 554.37 194.53 550.71
  Q 188.94 549.44 183.96 546.54
  Q 164.43 535.17 149.08 519.96
  C 144.55 515.48 140.91 509.80 142.60 503.34
  C 145.76 491.26 154.15 480.91 157.98 466.95
  Q 165.67 438.96 168.63 428.87
  C 169.12 427.19 168.66 425.78 169.84 424.37
  A 0.58 0.58 0.0 0 0 169.11 423.49
  C 168.10 424.06 167.64 425.77 166.60 426.86
  C 159.42 434.36 153.40 440.95 143.76 442.69
  C 134.59 444.34 124.55 441.40 114.71 437.28
  Q 109.69 435.18 99.29 430.71
  Q 86.46 425.21 74.41 418.50
  A 0.46 0.46 0.0 0 0 73.79 418.66
  Q 65.85 431.97 55.35 442.29
  C 49.51 448.02 40.47 452.42 32.30 450.27
  Q 28.38 449.24 25.37 447.74
  C 12.44 441.29 15.62 423.49 18.99 412.44
  Q 26.98 386.26 40.76 362.74
  C 45.77 354.19 52.81 344.38 63.48 347.56
  C 80.39 352.59 96.65 359.64 113.06 367.11
  C 116.61 368.72 119.75 370.61 123.31 371.74
  A 1.05 1.05 0.0 0 0 124.65 371.00
  Q 125.69 367.02 127.60 362.03
  Q 128.37 360.01 126.85 358.42
  C 124.56 356.01 121.48 353.33 119.34 350.63
  C 112.95 342.54 108.71 331.76 109.04 321.34
  Q 109.04 321.26 108.90 312.02
  A 1.05 1.05 0.0 0 0 107.80 310.99
  C 99.28 311.38 90.32 307.83 85.78 300.53
  Q 81.36 293.42 80.86 284.59
  A 0.33 0.32 0.0 0 0 80.54 284.28
  L 80.27 284.28
  A 0.09 0.09 0.0 0 0 80.17 284.36
  Q 79.98 286.73 79.78 288.72
  Q 78.87 297.71 72.92 303.88
  Q 71.80 305.04 64.97 308.53
  A 1.99 1.87 1.7 0 0 64.26 309.16
  Q 61.10 313.80 60.07 314.64
  Q 50.73 322.28 39.94 317.30
  Q 38.85 316.80 34.90 313.85
  A 3.14 3.14 0.0 0 0 33.40 313.25
  Q 23.99 312.14 17.53 305.16
  A 5.31 5.07 80.0 0 0 15.91 303.97
  C 6.28 299.45 0.76 292.38 0.71 281.25
  C 0.66 269.68 5.91 258.35 12.86 249.35
  Q 14.90 246.72 20.21 240.78
  A 5.01 4.60 82.4 0 0 20.91 239.78
  Q 22.30 237.15 22.40 236.89
  Q 28.89 219.94 38.76 198.51
  C 42.90 189.53 49.88 182.28 57.61 176.85
  Q 66.90 170.33 76.67 165.81
  A 2.19 2.18 79.7 0 0 77.92 164.00
  Q 79.23 147.59 90.10 136.22
  Q 95.26 130.81 102.99 129.01
  C 112.67 126.75 122.67 126.97 132.84 126.97
  A 1.28 1.27 84.7 0 0 134.09 125.46
  Q 133.01 119.64 132.29 114.25
  Q 128.53 86.26 138.65 62.11
  Q 148.97 37.50 171.03 20.80
  Q 192.13 4.82 220.65 1.02
  Q 224.62 0.49 228.63 0.00
  L 241.24 0.00
  Z
  M 298.43 168.04
  Q 294.59 169.55 289.99 170.05
  Q 274.67 171.70 258.76 168.78
  C 240.20 165.38 223.14 157.38 211.09 142.68
  C 199.29 128.27 194.55 110.19 198.02 91.91
  C 200.72 77.73 206.23 65.39 216.96 56.16
  Q 231.52 43.65 251.06 40.48
  C 273.07 36.92 297.94 41.39 316.83 53.41
  A 0.16 0.16 0.0 0 0 317.06 53.19
  Q 302.44 28.91 276.64 17.13
  C 236.40 -1.24 186.87 8.62 158.74 44.60
  C 142.85 64.94 136.74 89.18 140.72 114.49
  C 142.91 128.41 148.08 141.25 157.33 151.65
  A 4.26 4.22 83.5 0 0 158.44 152.54
  Q 160.42 153.65 168.77 158.76
  C 182.60 167.24 198.12 172.97 214.67 177.10
  Q 235.34 182.25 255.50 182.86
  C 271.99 183.35 286.59 180.22 298.70 168.47
  A 0.26 0.26 0.0 0 0 298.43 168.04
  Z
  M 307.23 156.12
  L 309.56 154.56
  Q 314.35 150.66 317.06 146.33
  Q 332.18 122.15 330.33 92.92
  Q 329.41 78.50 320.51 67.22
  Q 318.72 64.95 316.47 63.44
  L 310.50 58.99
  Q 285.29 44.89 255.78 48.12
  C 241.20 49.72 227.07 55.94 217.63 67.16
  Q 212.46 73.31 210.13 79.15
  Q 198.63 107.95 213.63 131.91
  C 226.36 152.22 250.49 161.14 273.75 162.94
  C 284.54 163.77 297.94 162.29 307.23 156.12
  Z
  M 122.09 134.97
  Q 127.78 141.64 129.12 150.59
  A 0.97 0.97 0.0 0 0 130.11 151.41
  L 144.86 150.90
  A 0.66 0.65 -18.9 0 0 145.37 149.86
  Q 140.60 143.24 137.70 135.35
  A 1.60 1.59 -9.3 0 0 136.23 134.30
  L 122.53 134.05
  A 0.56 0.56 0.0 0 0 122.09 134.97
  Z
  M 396.49 135.95
  A 9.33 9.31 50.8 0 0 391.34 135.42
  Q 383.45 136.88 379.26 144.21
  A 0.36 0.35 -64.3 0 0 379.43 144.72
  Q 384.21 146.65 388.07 149.77
  A 0.36 0.35 38.7 0 0 388.57 149.72
  Q 394.83 141.92 401.52 140.69
  A 1.36 1.36 0.0 0 0 401.78 138.09
  L 396.49 135.95
  Z
  M 87.00 161.75
  Q 104.52 155.46 121.35 152.57
  A 0.52 0.52 0.0 0 0 121.78 152.01
  Q 121.10 144.52 116.40 139.75
  C 108.95 132.17 99.12 138.19 93.49 144.57
  Q 87.36 151.54 86.47 161.34
  A 0.40 0.40 0.0 0 0 87.00 161.75
  Z
  M 418.10 152.47
  Q 415.46 148.48 411.13 147.36
  C 404.16 145.56 397.96 149.44 393.95 154.95
  A 0.77 0.76 -43.9 0 0 393.93 155.82
  Q 401.36 167.54 391.48 176.43
  A 0.64 0.63 40.9 0 0 391.56 177.43
  Q 392.72 178.20 394.93 178.44
  A 0.58 0.58 0.0 0 0 395.57 177.92
  C 396.74 166.28 406.19 155.14 417.81 153.13
  A 0.43 0.43 0.0 0 0 418.10 152.47
  Z
  M 396.40 185.44
  C 389.42 185.74 386.92 183.08 382.57 178.28
  A 2.03 1.97 -10.1 0 0 381.80 177.76
  C 375.63 175.47 370.34 172.26 369.03 165.29
  Q 368.76 163.82 370.05 163.04
  A 2.76 2.69 -35.8 0 1 373.55 163.56
  Q 377.64 168.41 383.42 171.38
  A 1.95 1.92 51.6 0 0 384.71 171.54
  Q 389.23 170.50 389.76 166.96
  C 390.53 161.89 384.80 155.78 380.63 153.44
  Q 369.15 146.99 361.73 156.90
  C 358.83 160.76 359.28 167.05 360.52 171.41
  Q 361.52 174.94 364.95 179.46
  C 375.84 193.77 387.97 202.91 404.92 207.16
  A 1.05 1.05 0.0 0 0 405.88 206.93
  Q 415.91 198.27 418.34 196.12
  C 425.48 189.81 432.47 178.29 429.45 168.39
  C 425.79 156.43 415.36 158.91 408.20 165.62
  Q 404.08 169.49 402.26 175.45
  C 401.09 179.29 401.61 183.20 405.62 184.19
  C 411.72 185.70 414.57 180.42 417.30 176.00
  A 2.29 2.29 0.0 0 1 420.58 175.34
  C 421.56 176.03 421.88 177.62 421.69 178.71
  Q 420.56 184.99 416.04 188.59
  C 410.14 193.29 401.56 192.60 397.42 185.98
  A 1.14 1.14 0.0 0 0 396.40 185.44
  Z
  M 142.57 158.96
  Q 142.59 159.01 145.45 162.67
  C 159.47 180.58 159.80 205.12 149.86 225.12
  C 143.62 237.70 135.26 246.24 121.94 250.69
  A 1.19 1.18 -9.0 0 0 121.13 251.80
  L 121.08 254.22
  A 1.02 1.01 -2.7 0 0 122.21 255.24
  Q 130.19 254.37 138.20 251.50
  C 154.33 245.72 165.46 230.54 168.98 214.04
  Q 173.75 191.65 164.22 171.36
  Q 159.37 161.05 148.57 159.22
  C 146.40 158.86 144.33 158.30 142.93 158.38
  A 0.42 0.41 -13.5 0 0 142.57 158.96
  Z
  M 123.20 243.38
  C 134.61 238.09 141.81 227.82 146.18 215.87
  Q 152.22 199.37 147.49 182.73
  C 145.36 175.26 141.91 169.89 136.61 164.03
  C 133.76 160.88 132.70 159.13 128.58 159.65
  Q 100.74 163.15 75.07 175.62
  C 63.82 181.09 52.43 188.91 46.52 200.52
  Q 41.09 211.20 36.82 221.11
  A 1.09 1.07 40.4 0 0 36.91 222.13
  C 39.09 225.39 42.43 228.01 45.51 230.42
  Q 60.28 242.01 79.13 241.91
  A 2.02 2.01 11.9 0 0 80.95 240.73
  C 84.78 232.35 87.02 227.00 90.14 221.56
  Q 91.22 219.68 95.13 219.35
  Q 103.24 218.65 133.08 215.11
  A 2.90 2.90 0.0 0 1 136.32 218.20
  L 136.31 218.49
  A 4.16 4.15 -1.8 0 1 132.57 222.46
  L 125.03 223.22
  A 0.60 0.59 -88.8 0 0 124.49 223.74
  L 122.11 242.58
  A 0.77 0.77 0.0 0 0 123.20 243.38
  Z
  M 283.84 186.39
  C 280.25 187.75 275.76 188.92 272.02 189.34
  Q 253.38 191.43 235.00 188.71
  C 213.15 185.47 190.68 179.15 171.50 168.48
  A 0.34 0.33 5.1 0 0 171.02 168.88
  Q 173.13 174.96 177.73 178.18
  C 182.03 181.20 186.75 183.90 192.32 186.18
  Q 214.92 195.43 238.84 196.66
  C 253.22 197.40 272.80 197.33 284.21 187.01
  A 0.37 0.37 0.0 0 0 283.84 186.39
  Z
  M 294.01 232.48
  C 301.83 216.55 303.26 197.66 297.02 180.97
  A 0.82 0.81 -27.2 0 0 295.80 180.58
  L 291.68 183.37
  A 0.64 0.64 0.0 0 0 291.40 183.79
  L 289.96 191.09
  A 3.88 3.78 -48.2 0 0 290.04 192.90
  Q 295.43 211.66 293.40 232.31
  A 0.32 0.32 0.0 0 0 294.01 232.48
  Z
  M 304.59 184.48
  Q 310.70 211.71 298.79 237.26
  Q 297.61 239.80 294.80 245.60
  A 0.49 0.49 0.0 0 0 294.92 246.19
  Q 309.25 258.53 325.86 266.34
  Q 345.05 275.36 360.90 260.68
  C 369.24 252.95 378.55 241.89 386.18 232.43
  A 0.38 0.38 0.0 0 0 386.02 231.83
  C 370.75 225.72 357.18 216.47 348.53 202.44
  A 0.41 0.41 0.0 0 0 347.86 202.39
  C 343.43 207.59 338.09 212.15 333.45 217.37
  C 330.50 220.68 328.59 223.46 326.04 224.24
  A 2.15 1.91 78.3 0 1 323.55 222.39
  C 322.94 217.77 329.27 211.01 332.50 207.95
  A 0.73 0.73 0.0 0 0 332.47 206.85
  L 305.02 184.21
  A 0.27 0.27 0.0 0 0 304.59 184.48
  Z
  M 401.62 214.15
  A 0.54 0.53 28.1 0 0 401.36 213.31
  C 387.63 208.93 376.12 202.57 366.57 191.44
  Q 365.25 189.89 362.31 186.36
  A 0.85 0.85 0.0 0 0 361.01 186.36
  L 353.58 195.38
  A 1.90 1.88 -41.1 0 0 353.42 197.58
  C 361.64 210.96 374.44 220.02 389.27 224.56
  C 391.49 225.24 392.64 225.92 394.07 224.04
  Q 400.00 216.22 401.62 214.15
  Z
  M 177.28 187.29
  Q 177.90 197.54 177.90 199.52
  Q 177.82 224.82 162.09 242.83
  Q 153.06 253.18 138.66 258.27
  A 0.79 0.79 0.0 0 0 138.13 258.92
  L 135.00 283.65
  A 0.96 0.94 13.0 0 0 135.65 284.67
  C 158.39 292.13 182.97 294.88 206.95 295.78
  A 0.94 0.94 0.0 0 0 207.87 295.17
  Q 209.60 290.43 214.01 290.61
  Q 222.76 290.97 231.31 290.87
  A 0.83 0.83 0.0 0 0 232.12 290.17
  L 234.66 274.48
  A 0.29 0.29 0.0 0 0 234.37 274.14
  Q 217.59 274.02 201.27 272.48
  C 194.98 271.89 192.74 265.16 193.46 259.63
  Q 197.42 229.25 199.40 216.98
  Q 200.02 213.19 203.22 210.93
  C 205.54 209.29 208.60 209.85 212.01 209.99
  Q 236.51 211.03 244.05 211.46
  A 0.42 0.42 0.0 0 0 244.50 211.05
  L 244.61 204.96
  A 0.44 0.44 0.0 0 0 244.19 204.51
  C 222.45 203.69 200.98 199.62 181.62 189.51
  C 180.49 188.92 179.04 187.88 177.87 186.98
  A 0.37 0.36 17.1 0 0 177.28 187.29
  Z
  M 238.79 291.00
  Q 242.22 291.13 246.09 291.11
  Q 251.55 291.09 251.68 295.77
  A 0.66 0.66 0.0 0 0 252.34 296.41
  Q 260.90 296.48 269.77 294.67
  A 3.26 3.26 0.0 0 0 272.18 292.58
  C 280.02 270.49 287.28 246.99 287.59 223.54
  C 287.72 213.62 287.30 205.92 285.06 196.87
  A 0.45 0.45 0.0 0 0 284.38 196.60
  C 274.78 202.75 263.09 204.88 251.97 204.65
  A 0.77 0.76 2.7 0 0 251.18 205.36
  L 250.79 211.20
  A 0.56 0.56 0.0 0 0 251.33 211.80
  Q 257.68 212.00 270.04 212.82
  Q 275.17 213.16 276.81 214.17
  C 281.66 217.15 282.71 222.03 282.09 227.26
  Q 278.65 256.27 278.10 260.83
  C 277.18 268.42 273.53 274.73 265.02 274.68
  Q 245.31 274.58 241.27 274.37
  A 0.47 0.47 0.0 0 0 240.78 274.76
  L 238.25 290.34
  A 0.57 0.57 0.0 0 0 238.79 291.00
  Z
  M 213.27 216.73
  L 207.12 216.46
  A 1.70 1.70 0.0 0 0 205.37 217.90
  Q 201.86 241.91 199.45 261.23
  Q 199.12 263.88 201.05 265.79
  A 1.80 1.76 -20.5 0 0 202.25 266.32
  L 207.45 266.54
  A 0.32 0.32 0.0 0 0 207.75 266.07
  Q 206.64 263.96 206.89 261.51
  Q 209.00 241.39 211.90 221.95
  Q 212.40 218.61 213.56 217.55
  A 0.47 0.47 0.0 0 0 213.27 216.73
  Z
  M 212.82 260.91
  A 5.84 5.84 0.0 0 0 218.50 267.48
  L 265.53 268.35
  A 5.84 5.84 0.0 0 0 271.43 263.25
  L 276.17 225.74
  A 5.84 5.84 0.0 0 0 270.62 219.18
  L 223.75 217.14
  A 5.84 5.84 0.0 0 0 217.71 222.24
  L 212.82 260.91
  Z
  M 112.29 274.22
  Q 112.76 269.91 113.68 255.96
  C 114.29 246.67 115.91 236.58 117.11 226.26
  Q 117.18 225.64 117.18 225.62
  A 1.62 1.62 0.0 0 0 115.44 224.36
  L 95.80 226.34
  A 1.97 1.97 0.0 0 0 94.18 227.55
  L 88.94 240.51
  A 1.27 1.24 58.4 0 0 88.84 240.95
  L 87.06 267.08
  A 3.56 3.55 -74.5 0 0 88.98 270.49
  Q 98.93 275.63 111.44 275.02
  A 0.90 0.89 1.5 0 0 112.29 274.22
  Z
  M 34.24 228.62
  A 0.53 0.52 -54.7 0 0 33.37 228.77
  Q 31.13 234.07 29.62 238.86
  C 28.96 240.95 29.27 242.70 30.52 244.24
  C 39.70 255.52 55.47 261.26 69.84 259.86
  A 1.87 1.86 12.1 0 0 71.29 258.93
  L 77.35 248.44
  A 0.68 0.68 0.0 0 0 76.68 247.43
  C 60.87 249.35 44.79 240.15 34.24 228.62
  Z
  M 31.14 305.20
  Q 30.75 300.87 31.52 297.06
  Q 31.86 295.39 32.86 295.01
  A 2.47 2.15 73.4 0 1 35.78 296.86
  Q 37.39 303.42 37.66 304.26
  C 40.38 312.52 51.35 315.25 56.77 307.68
  Q 59.04 304.49 59.45 300.09
  A 0.34 0.34 0.0 0 0 58.87 299.82
  L 57.91 300.78
  A 1.44 1.44 0.0 0 1 55.47 299.95
  C 54.90 295.63 58.41 291.82 61.70 287.72
  Q 62.67 286.52 63.69 286.28
  A 2.03 1.94 86.8 0 1 66.06 288.49
  Q 65.83 290.63 63.63 293.78
  A 0.99 0.99 0.0 0 0 63.65 294.95
  Q 65.27 297.07 65.54 300.27
  A 0.44 0.43 68.7 0 0 66.24 300.58
  C 73.75 294.79 74.41 287.16 73.49 277.99
  Q 72.95 272.63 70.76 267.33
  A 1.14 1.13 -12.3 0 0 69.65 266.62
  Q 42.51 267.97 24.57 246.97
  A 0.44 0.44 0.0 0 0 23.92 246.94
  C 13.63 257.33 -0.70 281.42 13.37 294.26
  A 0.32 0.32 0.0 0 0 13.91 294.06
  C 14.21 291.52 13.91 288.11 15.05 285.63
  A 1.83 1.82 -59.4 0 1 17.79 284.92
  Q 19.10 285.90 19.29 287.25
  C 20.43 295.30 21.77 302.94 30.65 305.60
  A 0.39 0.39 0.0 0 0 31.14 305.20
  Z
  M 79.35 259.04
  Q 77.20 261.03 77.08 264.29
  A 1.26 1.12 -55.7 0 0 77.12 264.60
  L 79.32 273.21
  A 0.28 0.27 -51.9 0 0 79.86 273.14
  L 80.12 259.38
  A 0.46 0.46 0.0 0 0 79.35 259.04
  Z
  M 131.98 260.39
  L 121.08 262.33
  A 0.37 0.36 -88.8 0 0 120.78 262.62
  Q 119.43 269.92 119.78 277.44
  A 0.11 0.11 0.0 0 0 119.84 277.54
  L 129.19 283.05
  A 0.16 0.16 0.0 0 0 129.43 282.93
  L 132.24 260.65
  A 0.23 0.23 0.0 0 0 131.98 260.39
  Z
  M 87.26 276.16
  Q 87.41 284.24 89.60 291.97
  C 92.02 300.53 100.12 303.36 108.38 303.92
  A 0.66 0.65 -84.0 0 0 109.08 303.35
  L 111.77 282.06
  A 0.95 0.94 -86.8 0 0 110.83 281.00
  C 102.53 281.08 94.87 280.12 87.70 275.91
  A 0.29 0.29 0.0 0 0 87.26 276.16
  Z
  M 118.70 284.69
  Q 117.69 290.47 117.16 297.25
  Q 116.96 299.82 119.23 301.04
  Q 122.65 302.87 126.88 304.65
  A 0.60 0.59 -76.6 0 0 127.70 304.14
  L 128.69 289.56
  A 0.90 0.89 14.4 0 0 128.17 288.69
  L 119.13 284.46
  A 0.31 0.31 0.0 0 0 118.70 284.69
  Z
  M 162.11 297.68
  C 152.98 295.76 144.20 294.12 135.06 291.17
  A 0.59 0.59 0.0 0 0 134.29 291.66
  L 132.52 305.64
  A 1.82 1.82 0.0 0 0 133.70 307.59
  Q 144.63 311.57 158.67 314.17
  A 1.29 1.29 0.0 0 0 160.18 313.11
  L 162.57 298.36
  A 0.60 0.60 0.0 0 0 162.11 297.68
  Z
  M 210.80 322.41
  Q 222.97 322.76 236.59 322.54
  C 241.09 322.47 242.82 319.87 243.44 315.46
  Q 244.18 310.13 245.94 298.78
  A 1.49 1.49 0.0 0 0 244.49 297.06
  L 214.27 296.50
  A 1.27 1.26 5.3 0 0 213.00 297.55
  L 209.27 320.56
  A 1.60 1.59 -84.6 0 0 210.80 322.41
  Z
  M 205.79 301.90
  Q 204.55 301.77 193.48 301.29
  C 185.54 300.95 175.94 299.86 168.59 298.86
  A 0.78 0.78 0.0 0 0 167.71 299.53
  L 165.84 314.37
  A 1.23 1.23 0.0 0 0 166.88 315.75
  Q 184.47 318.35 202.91 318.60
  A 0.89 0.88 -84.8 0 0 203.80 317.85
  L 206.28 302.55
  A 0.56 0.55 -82.3 0 0 205.79 301.90
  Z
  M 268.57 300.63
  Q 258.74 302.35 251.73 302.37
  A 0.55 0.54 3.6 0 0 251.19 302.84
  L 249.26 318.11
  A 0.57 0.57 0.0 0 0 249.85 318.75
  Q 256.03 318.50 262.06 316.72
  A 3.88 3.87 0.7 0 0 264.64 314.21
  L 268.94 301.06
  A 0.33 0.33 0.0 0 0 268.57 300.63
  Z
  M 116.69 307.09
  C 115.63 322.39 116.72 335.93 126.73 347.95
  C 134.95 357.83 144.13 365.05 155.05 373.95
  Q 161.81 379.47 166.73 385.75
  A 0.35 0.34 -48.7 0 0 167.30 385.71
  Q 169.68 381.80 173.48 378.66
  A 0.90 0.89 50.7 0 0 173.60 377.41
  Q 168.91 371.56 163.26 366.54
  Q 154.05 358.36 143.95 350.36
  Q 137.04 344.89 133.42 340.85
  C 126.42 333.06 124.93 321.80 126.48 311.65
  A 0.38 0.38 0.0 0 0 126.26 311.25
  L 116.98 306.92
  A 0.20 0.20 0.0 0 0 116.69 307.09
  Z
  M 179.62 374.48
  L 189.19 368.02
  A 0.84 0.84 0.0 0 0 189.40 366.84
  C 186.78 363.19 184.91 359.84 188.19 355.67
  Q 190.04 353.33 192.34 352.35
  C 202.39 348.07 219.94 344.36 228.60 353.06
  A 1.43 1.42 50.5 0 0 230.42 353.24
  C 234.21 350.69 237.95 346.87 245.07 340.18
  Q 245.96 339.34 247.02 340.06
  C 249.28 341.59 247.93 345.23 246.55 347.07
  Q 241.27 354.04 233.69 358.29
  A 0.42 0.41 -25.6 0 0 233.50 358.81
  L 240.72 376.88
  A 5.22 5.15 -84.6 0 0 242.69 379.29
  C 254.13 386.80 264.14 392.23 268.03 405.48
  Q 271.94 418.77 276.79 434.26
  A 0.78 0.78 0.0 0 0 278.03 434.63
  C 289.92 424.91 305.90 417.76 321.47 417.81
  A 0.42 0.41 83.3 0 0 321.87 417.30
  Q 317.72 399.54 313.75 385.97
  C 310.22 373.88 305.50 364.07 297.73 355.50
  Q 285.50 342.02 267.00 327.48
  Q 263.20 324.51 261.81 323.69
  A 1.72 1.72 0.0 0 0 260.59 323.48
  Q 254.35 324.77 247.35 324.21
  A 1.05 1.02 -68.7 0 0 246.43 324.63
  Q 244.01 327.87 240.26 328.14
  Q 228.34 329.03 208.26 328.21
  A 3.36 3.34 -31.2 0 1 207.02 327.91
  Q 205.40 327.16 204.53 325.49
  A 1.60 1.57 75.3 0 0 203.10 324.64
  Q 178.73 325.03 154.73 320.03
  Q 142.71 317.52 132.59 313.64
  A 0.33 0.33 0.0 0 0 132.14 313.92
  C 131.51 323.92 131.78 331.26 139.57 338.52
  Q 143.43 342.12 146.35 344.41
  Q 159.92 355.07 170.11 364.67
  Q 175.16 369.43 178.90 374.36
  A 0.52 0.52 0.0 0 0 179.62 374.48
  Z
  M 29.37 440.99
  C 26.33 430.39 29.22 418.97 32.89 408.63
  C 39.61 389.74 49.15 370.73 62.03 355.33
  A 0.50 0.49 29.1 0 0 61.80 354.54
  C 57.75 353.23 54.92 355.33 52.41 358.66
  Q 48.43 363.97 43.72 372.71
  Q 34.14 390.52 27.26 409.49
  Q 23.07 421.03 23.36 431.94
  Q 23.53 437.98 28.77 441.44
  A 0.40 0.40 0.0 0 0 29.37 440.99
  Z
  M 229.30 366.92
  Q 227.51 362.89 224.83 359.20
  C 218.87 350.97 203.91 354.79 195.84 357.85
  Q 194.77 358.25 193.98 358.92
  A 1.37 1.37 0.0 0 0 193.63 360.59
  L 199.51 372.36
  A 0.52 0.52 0.0 0 0 200.19 372.61
  Q 210.64 368.00 223.26 367.09
  Q 226.15 366.89 228.88 367.44
  A 0.38 0.38 0.0 0 0 229.30 366.92
  Z
  M 76.40 411.32
  A 0.45 0.45 0.0 0 0 77.16 411.01
  C 77.43 404.59 77.69 399.38 79.22 393.78
  Q 83.34 378.83 94.68 368.28
  A 0.70 0.70 0.0 0 0 94.47 367.12
  L 69.99 357.22
  A 2.61 2.60 30.4 0 0 66.99 358.00
  Q 48.66 380.92 38.69 409.46
  C 35.31 419.13 31.29 433.02 36.44 441.23
  C 38.08 443.85 41.73 442.86 44.05 441.79
  Q 50.34 438.88 55.00 433.30
  A 0.88 0.88 0.0 0 0 54.87 432.05
  Q 49.76 427.97 47.18 425.61
  Q 45.07 423.69 45.75 421.36
  A 2.29 1.89 17.9 0 1 48.59 420.24
  C 52.38 421.58 56.00 424.84 58.19 426.92
  A 1.02 1.02 0.0 0 0 59.70 426.81
  L 61.97 423.84
  A 1.15 1.15 0.0 0 0 61.77 422.23
  C 59.16 420.19 53.83 415.19 53.29 411.51
  C 53.08 410.08 54.09 407.99 55.96 408.39
  Q 57.66 408.76 58.55 409.81
  Q 61.76 413.59 65.28 417.35
  A 1.06 1.05 43.0 0 0 66.87 417.30
  L 69.12 414.58
  A 1.77 1.77 0.0 0 0 68.98 412.19
  C 66.40 409.69 62.18 405.41 61.06 401.19
  A 2.62 2.25 71.3 0 1 62.25 398.24
  Q 64.36 397.32 66.07 399.58
  Q 71.43 406.69 76.40 411.32
  Z
  M 121.63 381.80
  Q 112.72 392.06 110.50 404.95
  C 109.72 409.49 108.26 425.59 113.11 428.18
  Q 123.25 433.61 134.47 435.28
  C 144.20 436.73 150.22 432.90 156.91 426.17
  Q 163.94 419.09 168.71 412.70
  A 5.22 5.18 -30.6 0 0 169.69 408.96
  C 168.20 397.08 160.51 388.56 151.31 380.43
  Q 146.21 375.93 133.90 365.72
  A 0.39 0.39 0.0 0 0 133.28 365.89
  Q 128.64 379.49 126.42 392.70
  Q 126.17 394.19 125.71 394.59
  C 124.51 395.64 122.75 395.84 121.85 394.16
  C 120.68 391.95 121.64 384.78 122.04 381.98
  A 0.24 0.23 -20.9 0 0 121.63 381.80
  Z
  M 104.34 424.42
  Q 103.51 421.01 103.34 416.97
  Q 102.39 394.42 117.26 377.77
  A 0.32 0.32 0.0 0 0 117.16 377.26
  L 103.46 370.86
  A 2.68 2.66 38.2 0 0 100.67 371.18
  C 89.70 379.85 84.64 392.84 83.71 406.74
  Q 83.41 411.11 84.01 413.67
  A 4.12 4.11 -83.9 0 0 86.27 416.47
  L 103.96 424.73
  A 0.27 0.27 0.0 0 0 104.34 424.42
  Z
  M 231.34 404.34
  Q 224.08 406.06 216.99 406.37
  C 208.58 406.73 202.45 405.11 200.15 396.20
  Q 197.04 384.17 192.80 373.70
  A 0.55 0.55 0.0 0 0 191.98 373.45
  L 182.66 379.74
  A 0.79 0.79 0.0 0 0 182.42 380.78
  Q 188.06 390.68 190.39 402.26
  Q 192.01 410.34 190.56 423.30
  Q 189.32 434.38 186.60 448.30
  A 0.54 0.54 0.0 0 0 186.98 448.92
  C 197.70 451.99 209.18 453.54 219.99 451.58
  A 2.30 2.29 3.1 0 0 221.79 449.97
  Q 228.34 427.83 232.07 405.01
  A 0.60 0.59 -2.3 0 0 231.34 404.34
  Z
  M 201.83 378.62
  A 0.44 0.44 0.0 0 0 201.61 379.16
  Q 204.00 385.91 206.22 394.28
  Q 207.77 400.10 213.99 400.19
  Q 223.39 400.32 230.80 398.04
  C 236.59 396.26 236.43 390.10 235.38 385.38
  Q 233.84 378.47 232.46 374.37
  A 0.73 0.72 -4.7 0 0 231.89 373.89
  Q 216.22 371.42 201.83 378.62
  Z
  M 180.92 446.54
  Q 182.17 440.38 184.63 424.50
  Q 187.96 402.94 177.73 384.66
  A 0.83 0.83 0.0 0 0 176.42 384.48
  L 171.19 389.70
  A 1.67 1.66 51.8 0 0 170.95 391.73
  Q 175.92 399.86 176.48 410.02
  Q 176.92 417.78 176.47 421.01
  Q 175.18 430.35 172.06 442.48
  A 0.94 0.94 0.0 0 0 172.57 443.57
  L 179.97 447.02
  A 0.68 0.67 -71.7 0 0 180.92 446.54
  Z
  M 286.63 463.32
  C 298.41 452.85 311.59 445.80 327.60 443.65
  A 0.77 0.76 -11.4 0 0 328.24 442.70
  L 323.75 425.44
  A 1.40 1.40 0.0 0 0 322.48 424.40
  Q 317.72 424.10 312.19 425.18
  Q 294.12 428.71 280.08 440.92
  A 1.94 1.94 0.0 0 0 279.50 442.98
  L 285.94 463.13
  A 0.43 0.43 0.0 0 0 286.63 463.32
  Z
  M 332.33 458.03
  C 326.95 459.69 320.89 464.83 315.98 468.96
  Q 314.96 469.82 313.65 469.12
  A 2.37 2.35 26.1 0 1 312.60 466.09
  C 314.91 460.85 323.67 455.66 328.67 453.43
  Q 331.11 452.35 330.11 449.87
  A 0.83 0.83 0.0 0 0 329.22 449.37
  Q 306.60 452.83 288.88 468.49
  A 2.25 2.24 61.3 0 0 288.22 470.77
  Q 292.71 486.66 299.27 501.97
  Q 299.84 503.30 300.61 504.48
  A 0.53 0.52 54.1 0 0 301.38 504.61
  Q 320.76 489.72 334.52 479.02
  Q 344.57 471.20 356.62 463.37
  Q 364.25 458.41 373.26 456.38
  A 0.31 0.31 0.0 0 0 373.38 455.82
  C 367.26 451.23 353.63 450.78 347.05 455.06
  Q 338.40 460.67 329.25 468.63
  A 2.00 2.00 0.0 0 1 326.23 468.16
  L 326.18 468.07
  A 2.98 2.98 0.0 0 1 326.63 464.34
  L 332.63 458.54
  A 0.31 0.30 -75.6 0 0 332.33 458.03
  Z
  M 218.91 458.06
  Q 210.74 459.60 202.35 458.66
  C 191.56 457.45 180.99 455.14 171.10 450.00
  A 0.82 0.81 -68.1 0 0 169.94 450.50
  L 164.94 467.96
  A 1.81 1.81 0.0 0 0 165.59 469.91
  C 176.03 477.71 191.64 481.38 203.99 480.27
  Q 210.23 479.71 211.91 478.90
  Q 213.46 478.14 214.17 475.93
  Q 219.14 460.21 219.48 458.64
  A 0.49 0.49 0.0 0 0 218.91 458.06
  Z
  M 379.54 463.44
  A 3.81 3.80 72.8 0 0 375.53 461.32
  C 367.23 462.62 360.45 466.78 353.69 471.44
  Q 346.60 476.34 342.53 479.53
  Q 318.01 498.78 304.24 509.11
  A 2.03 2.02 49.0 0 0 304.03 512.16
  L 305.03 513.16
  A 2.78 2.77 48.5 0 0 308.70 513.39
  Q 334.31 493.51 343.11 486.87
  Q 355.63 477.42 364.47 472.00
  Q 369.66 468.82 378.08 466.75
  A 2.28 2.28 0.0 0 0 379.60 463.56
  L 379.54 463.44
  Z
  M 318.80 514.15
  Q 328.58 510.21 338.21 504.46
  Q 355.02 494.42 369.62 482.12
  Q 374.52 477.98 377.82 473.09
  A 0.50 0.50 0.0 0 0 377.23 472.34
  C 369.77 475.07 362.85 479.91 356.60 484.59
  Q 339.06 497.73 318.67 513.94
  A 0.13 0.12 13.8 0 0 318.80 514.15
  Z
  M 211.50 485.84
  A 0.48 0.48 0.0 0 0 210.96 485.24
  Q 185.33 489.61 164.06 475.48
  A 0.59 0.59 0.0 0 0 163.17 475.79
  L 162.07 479.05
  A 4.53 4.45 -19.3 0 1 161.50 480.21
  Q 156.71 487.20 153.40 495.29
  A 3.17 3.14 -50.4 0 0 153.66 498.20
  Q 155.94 501.79 159.07 504.92
  Q 171.89 517.72 186.86 526.59
  C 200.16 534.48 217.00 535.69 231.75 531.52
  Q 234.26 530.81 234.34 529.00
  Q 234.79 518.73 227.61 511.59
  Q 222.68 506.69 215.51 507.44
  Q 207.65 508.25 201.69 511.08
  C 200.74 511.53 198.65 511.97 197.55 511.27
  A 2.31 2.05 33.5 0 1 196.73 508.20
  C 198.99 505.01 202.47 504.22 206.40 503.22
  Q 212.05 501.79 215.64 501.84
  A 0.74 0.74 0.0 0 0 216.27 500.69
  L 214.47 498.02
  A 2.19 2.19 0.0 0 0 212.30 497.09
  Q 201.11 498.91 192.58 501.47
  Q 190.21 502.18 189.10 501.60
  C 186.70 500.36 187.56 496.90 189.79 495.95
  C 195.55 493.48 202.00 492.57 209.17 491.35
  A 1.29 1.27 2.9 0 0 210.18 490.45
  L 211.50 485.84
  Z
  M 150.28 502.93
  C 147.35 508.72 151.00 512.14 155.43 516.67
  Q 156.32 517.58 160.90 521.56
  C 171.08 530.41 180.84 537.09 193.20 542.05
  C 203.81 546.31 216.22 545.77 227.21 544.21
  Q 233.93 543.27 233.84 536.48
  A 0.37 0.37 0.0 0 0 233.33 536.14
  Q 228.14 538.25 222.83 538.82
  C 208.07 540.40 194.33 537.98 181.86 529.97
  Q 165.79 519.65 155.18 508.08
  Q 152.44 505.09 150.92 502.88
  A 0.37 0.37 0.0 0 0 150.28 502.93
  Z"
/>
<path d="
  M 184.13 91.52
  C 183.35 102.07 178.34 112.79 167.01 114.95
  Q 162.67 115.78 158.26 114.49
  C 146.11 110.94 141.19 100.46 142.07 88.42
  C 142.96 76.39 149.36 66.75 161.90 65.01
  Q 166.45 64.38 170.62 65.83
  C 181.52 69.64 184.91 80.97 184.13 91.52
  Z
  M 163.8616 72.8062
  A 17.38 12.92 -86.3 0 0 149.8469 89.3162
  A 17.38 12.92 -86.3 0 0 161.6184 107.4938
  A 17.38 12.92 -86.3 0 0 175.6331 90.9838
  A 17.38 12.92 -86.3 0 0 163.8616 72.8062
  Z"
/>
<path d="
  M 169.89 91.34
  C 169.76 94.63 168.20 102.68 163.38 102.13
  A 1.86 1.82 -80.1 0 1 161.83 99.86
  C 162.58 96.67 163.56 94.02 163.67 91.10
  C 163.78 88.18 163.02 85.46 162.52 82.22
  A 1.86 1.82 84.6 0 1 164.25 80.08
  C 169.10 79.91 170.02 88.05 169.89 91.34
  Z"
/>
<rect x="-2.63" y="-13.44" transform="translate(246.52,241.65) rotate(21.0)" width="5.26" height="26.88" rx="2.55"/>
<path d="
  M 229.82 241.62
  Q 229.83 241.75 229.92 241.96
  A 0.57 0.57 0.0 0 0 230.06 242.15
  L 236.01 247.03
  A 2.80 2.79 -51.1 0 1 236.42 250.93
  L 236.35 251.01
  A 2.53 2.52 36.1 0 1 232.88 251.55
  Q 225.48 246.31 222.09 243.96
  C 219.41 242.10 221.25 240.24 223.12 238.75
  Q 228.67 234.31 234.28 229.88
  A 2.28 2.27 -32.9 0 1 237.72 230.61
  L 237.80 230.76
  A 3.30 3.28 -34.5 0 1 237.05 234.76
  Q 233.23 238.10 230.29 240.39
  Q 229.77 240.79 229.82 241.62
  Z"
/>
<path d="
  M 262.82 241.17
  Q 261.35 239.38 258.37 236.71
  Q 256.40 234.93 256.83 232.40
  A 1.55 1.52 79.6 0 1 257.54 231.35
  Q 259.68 230.03 261.95 232.19
  Q 269.30 239.17 269.88 239.90
  Q 271.88 242.43 269.28 244.55
  Q 263.69 249.12 259.66 252.05
  A 3.26 3.26 0.0 0 1 255.52 251.84
  L 255.36 251.67
  A 2.54 2.54 0.0 0 1 255.56 247.93
  L 262.74 242.03
  A 0.61 0.61 0.0 0 0 262.82 241.17
  Z"
/>
<rect x="-14.23" y="-3.13" transform="translate(273.35,509.11) rotate(34.3)" width="28.46" height="6.26" rx="3.05"/>
<path d="
  M 258.60 528.76
  A 1.56 1.56 0.0 0 1 260.13 527.17
  L 277.69 526.87
  A 8.32 2.83 -1.0 0 1 286.06 529.55
  L 286.08 530.81
  A 8.32 2.83 -1.0 0 1 277.81 533.79
  L 260.25 534.09
  A 1.56 1.56 0.0 0 1 258.67 532.56
  L 258.60 528.76
  Z"
/>
<rect x="-14.39" y="-3.02" transform="translate(281.78,550.44) rotate(-36.6)" width="28.78" height="6.04" rx="2.95"/>
</g>
<path fill="var(--art-astronaut-accent)" d="
  M 310.50 58.99
  Q 310.44 60.42 312.25 60.90
  A 1.46 1.44 78.9 0 1 313.03 61.43
  Q 314.45 63.36 316.47 63.44
  Q 318.72 64.95 320.51 67.22
  Q 329.41 78.50 330.33 92.92
  Q 332.18 122.15 317.06 146.33
  Q 314.35 150.66 309.56 154.56
  Q 307.40 154.19 307.23 156.12
  C 297.94 162.29 284.54 163.77 273.75 162.94
  C 250.49 161.14 226.36 152.22 213.63 131.91
  Q 198.63 107.95 210.13 79.15
  Q 212.46 73.31 217.63 67.16
  C 227.07 55.94 241.20 49.72 255.78 48.12
  Q 285.29 44.89 310.50 58.99
  Z"
/>
<g fill="var(--art-astronaut-secondary)">
<path d="
  M 316.47 63.44
  Q 314.45 63.36 313.03 61.43
  A 1.46 1.44 78.9 0 0 312.25 60.90
  Q 310.44 60.42 310.50 58.99
  L 316.47 63.44
  Z"
/>
<path d="
  M 163.8616 72.8062
  A 17.38 12.92 -86.3 0 1 175.6331 90.9838
  A 17.38 12.92 -86.3 0 1 161.6184 107.4938
  A 17.38 12.92 -86.3 0 1 149.8469 89.3162
  A 17.38 12.92 -86.3 0 1 163.8616 72.8062
  Z
  M 163.67 91.10
  C 163.56 94.02 162.58 96.67 161.83 99.86
  A 1.86 1.82 -80.1 0 0 163.38 102.13
  C 168.20 102.68 169.76 94.63 169.89 91.34
  C 170.02 88.05 169.10 79.91 164.25 80.08
  A 1.86 1.82 84.6 0 0 162.52 82.22
  C 163.02 85.46 163.78 88.18 163.67 91.10
  Z"
/>
<path d="
  M 122.09 134.97
  A 0.56 0.56 0.0 0 1 122.53 134.05
  L 136.23 134.30
  A 1.60 1.59 -9.3 0 1 137.70 135.35
  Q 140.60 143.24 145.37 149.86
  A 0.66 0.65 -18.9 0 1 144.86 150.90
  L 130.11 151.41
  A 0.97 0.97 0.0 0 1 129.12 150.59
  Q 127.78 141.64 122.09 134.97
  Z"
/>
<path d="
  M 87.00 161.75
  A 0.40 0.40 0.0 0 1 86.47 161.34
  Q 87.36 151.54 93.49 144.57
  C 99.12 138.19 108.95 132.17 116.40 139.75
  Q 121.10 144.52 121.78 152.01
  A 0.52 0.52 0.0 0 1 121.35 152.57
  Q 104.52 155.46 87.00 161.75
  Z"
/>
<path d="
  M 309.56 154.56
  L 307.23 156.12
  Q 307.40 154.19 309.56 154.56
  Z"
/>
<path d="
  M 142.93 158.38
  C 144.33 158.30 146.40 158.86 148.57 159.22
  Q 159.37 161.05 164.22 171.36
  Q 173.75 191.65 168.98 214.04
  C 165.46 230.54 154.33 245.72 138.20 251.50
  Q 130.19 254.37 122.21 255.24
  A 1.02 1.01 -2.7 0 1 121.08 254.22
  L 121.13 251.80
  A 1.19 1.18 -9.0 0 1 121.94 250.69
  C 135.26 246.24 143.62 237.70 149.86 225.12
  C 159.80 205.12 159.47 180.58 145.45 162.67
  Q 142.59 159.01 142.57 158.96
  A 0.42 0.41 -13.5 0 1 142.93 158.38
  Z"
/>
<path d="
  M 283.84 186.39
  A 0.37 0.37 0.0 0 1 284.21 187.01
  C 272.80 197.33 253.22 197.40 238.84 196.66
  Q 214.92 195.43 192.32 186.18
  C 186.75 183.90 182.03 181.20 177.73 178.18
  Q 173.13 174.96 171.02 168.88
  A 0.34 0.33 5.1 0 1 171.50 168.48
  C 190.68 179.15 213.15 185.47 235.00 188.71
  Q 253.38 191.43 272.02 189.34
  C 275.76 188.92 280.25 187.75 283.84 186.39
  Z"
/>
<path d="
  M 294.01 232.48
  A 0.32 0.32 0.0 0 1 293.40 232.31
  Q 295.43 211.66 290.04 192.90
  A 3.88 3.78 -48.2 0 1 289.96 191.09
  L 291.40 183.79
  A 0.64 0.64 0.0 0 1 291.68 183.37
  L 295.80 180.58
  A 0.82 0.81 -27.2 0 1 297.02 180.97
  C 303.26 197.66 301.83 216.55 294.01 232.48
  Z"
/>
<path d="
  M 401.62 214.15
  Q 400.00 216.22 394.07 224.04
  C 392.64 225.92 391.49 225.24 389.27 224.56
  C 374.44 220.02 361.64 210.96 353.42 197.58
  A 1.90 1.88 -41.1 0 1 353.58 195.38
  L 361.01 186.36
  A 0.85 0.85 0.0 0 1 362.31 186.36
  Q 365.25 189.89 366.57 191.44
  C 376.12 202.57 387.63 208.93 401.36 213.31
  A 0.54 0.53 28.1 0 1 401.62 214.15
  Z"
/>
<path d="
  M 213.56 217.55
  Q 212.40 218.61 211.90 221.95
  Q 209.00 241.39 206.89 261.51
  Q 206.64 263.96 207.75 266.07
  A 0.32 0.32 0.0 0 1 207.45 266.54
  L 202.25 266.32
  A 1.80 1.76 -20.5 0 1 201.05 265.79
  Q 199.12 263.88 199.45 261.23
  Q 201.86 241.91 205.37 217.90
  A 1.70 1.70 0.0 0 1 207.12 216.46
  L 213.27 216.73
  A 0.47 0.47 0.0 0 1 213.56 217.55
  Z"
/>
<path d="
  M 112.29 274.22
  A 0.90 0.89 1.5 0 1 111.44 275.02
  Q 98.93 275.63 88.98 270.49
  A 3.56 3.55 -74.5 0 1 87.06 267.08
  L 88.84 240.95
  A 1.27 1.24 58.4 0 1 88.94 240.51
  L 94.18 227.55
  A 1.97 1.97 0.0 0 1 95.80 226.34
  L 115.44 224.36
  A 1.62 1.62 0.0 0 1 117.18 225.62
  Q 117.18 225.64 117.11 226.26
  C 115.91 236.58 114.29 246.67 113.68 255.96
  Q 112.76 269.91 112.29 274.22
  Z"
/>
<path d="
  M 34.24 228.62
  C 44.79 240.15 60.87 249.35 76.68 247.43
  A 0.68 0.68 0.0 0 1 77.35 248.44
  L 71.29 258.93
  A 1.87 1.86 12.1 0 1 69.84 259.86
  C 55.47 261.26 39.70 255.52 30.52 244.24
  C 29.27 242.70 28.96 240.95 29.62 238.86
  Q 31.13 234.07 33.37 228.77
  A 0.53 0.52 -54.7 0 1 34.24 228.62
  Z"
/>
<path d="
  M 87.26 276.16
  A 0.29 0.29 0.0 0 1 87.70 275.91
  C 94.87 280.12 102.53 281.08 110.83 281.00
  A 0.95 0.94 -86.8 0 1 111.77 282.06
  L 109.08 303.35
  A 0.66 0.65 -84.0 0 1 108.38 303.92
  C 100.12 303.36 92.02 300.53 89.60 291.97
  Q 87.41 284.24 87.26 276.16
  Z"
/>
<path d="
  M 118.70 284.69
  A 0.31 0.31 0.0 0 1 119.13 284.46
  L 128.17 288.69
  A 0.90 0.89 14.4 0 1 128.69 289.56
  L 127.70 304.14
  A 0.60 0.59 -76.6 0 1 126.88 304.65
  Q 122.65 302.87 119.23 301.04
  Q 116.96 299.82 117.16 297.25
  Q 117.69 290.47 118.70 284.69
  Z"
/>
<path d="
  M 162.57 298.36
  L 160.18 313.11
  A 1.29 1.29 0.0 0 1 158.67 314.17
  Q 144.63 311.57 133.70 307.59
  A 1.82 1.82 0.0 0 1 132.52 305.64
  L 134.29 291.66
  A 0.59 0.59 0.0 0 1 135.06 291.17
  C 144.20 294.12 152.98 295.76 162.11 297.68
  A 0.60 0.60 0.0 0 1 162.57 298.36
  Z"
/>
<path d="
  M 210.80 322.41
  A 1.60 1.59 -84.6 0 1 209.27 320.56
  L 213.00 297.55
  A 1.27 1.26 5.3 0 1 214.27 296.50
  L 244.49 297.06
  A 1.49 1.49 0.0 0 1 245.94 298.78
  Q 244.18 310.13 243.44 315.46
  C 242.82 319.87 241.09 322.47 236.59 322.54
  Q 222.97 322.76 210.80 322.41
  Z"
/>
<path d="
  M 206.28 302.55
  L 203.80 317.85
  A 0.89 0.88 -84.8 0 1 202.91 318.60
  Q 184.47 318.35 166.88 315.75
  A 1.23 1.23 0.0 0 1 165.84 314.37
  L 167.71 299.53
  A 0.78 0.78 0.0 0 1 168.59 298.86
  C 175.94 299.86 185.54 300.95 193.48 301.29
  Q 204.55 301.77 205.79 301.90
  A 0.56 0.55 -82.3 0 1 206.28 302.55
  Z"
/>
<path d="
  M 268.57 300.63
  A 0.33 0.33 0.0 0 1 268.94 301.06
  L 264.64 314.21
  A 3.88 3.87 0.7 0 1 262.06 316.72
  Q 256.03 318.50 249.85 318.75
  A 0.57 0.57 0.0 0 1 249.26 318.11
  L 251.19 302.84
  A 0.55 0.54 3.6 0 1 251.73 302.37
  Q 258.74 302.35 268.57 300.63
  Z"
/>
<path d="
  M 29.37 440.99
  A 0.40 0.40 0.0 0 1 28.77 441.44
  Q 23.53 437.98 23.36 431.94
  Q 23.07 421.03 27.26 409.49
  Q 34.14 390.52 43.72 372.71
  Q 48.43 363.97 52.41 358.66
  C 54.92 355.33 57.75 353.23 61.80 354.54
  A 0.50 0.49 29.1 0 1 62.03 355.33
  C 49.15 370.73 39.61 389.74 32.89 408.63
  C 29.22 418.97 26.33 430.39 29.37 440.99
  Z"
/>
<path d="
  M 76.40 411.32
  Q 71.43 406.69 66.07 399.58
  Q 64.36 397.32 62.25 398.24
  A 2.62 2.25 71.3 0 0 61.06 401.19
  C 62.18 405.41 66.40 409.69 68.98 412.19
  A 1.77 1.77 0.0 0 1 69.12 414.58
  L 66.87 417.30
  A 1.06 1.05 43.0 0 1 65.28 417.35
  Q 61.76 413.59 58.55 409.81
  Q 57.66 408.76 55.96 408.39
  C 54.09 407.99 53.08 410.08 53.29 411.51
  C 53.83 415.19 59.16 420.19 61.77 422.23
  A 1.15 1.15 0.0 0 1 61.97 423.84
  L 59.70 426.81
  A 1.02 1.02 0.0 0 1 58.19 426.92
  C 56.00 424.84 52.38 421.58 48.59 420.24
  A 2.29 1.89 17.9 0 0 45.75 421.36
  Q 45.07 423.69 47.18 425.61
  Q 49.76 427.97 54.87 432.05
  A 0.88 0.88 0.0 0 1 55.00 433.30
  Q 50.34 438.88 44.05 441.79
  C 41.73 442.86 38.08 443.85 36.44 441.23
  C 31.29 433.02 35.31 419.13 38.69 409.46
  Q 48.66 380.92 66.99 358.00
  A 2.61 2.60 30.4 0 1 69.99 357.22
  L 94.47 367.12
  A 0.70 0.70 0.0 0 1 94.68 368.28
  Q 83.34 378.83 79.22 393.78
  C 77.69 399.38 77.43 404.59 77.16 411.01
  A 0.45 0.45 0.0 0 1 76.40 411.32
  Z"
/>
<path d="
  M 286.63 463.32
  A 0.43 0.43 0.0 0 1 285.94 463.13
  L 279.50 442.98
  A 1.94 1.94 0.0 0 1 280.08 440.92
  Q 294.12 428.71 312.19 425.18
  Q 317.72 424.10 322.48 424.40
  A 1.40 1.40 0.0 0 1 323.75 425.44
  L 328.24 442.70
  A 0.77 0.76 -11.4 0 1 327.60 443.65
  C 311.59 445.80 298.41 452.85 286.63 463.32
  Z"
/>
<path d="
  M 332.63 458.54
  L 326.63 464.34
  A 2.98 2.98 0.0 0 0 326.18 468.07
  L 326.23 468.16
  A 2.00 2.00 0.0 0 0 329.25 468.63
  Q 338.40 460.67 347.05 455.06
  C 353.63 450.78 367.26 451.23 373.38 455.82
  A 0.31 0.31 0.0 0 1 373.26 456.38
  Q 364.25 458.41 356.62 463.37
  Q 344.57 471.20 334.52 479.02
  Q 320.76 489.72 301.38 504.61
  A 0.53 0.52 54.1 0 1 300.61 504.48
  Q 299.84 503.30 299.27 501.97
  Q 292.71 486.66 288.22 470.77
  A 2.25 2.24 61.3 0 1 288.88 468.49
  Q 306.60 452.83 329.22 449.37
  A 0.83 0.83 0.0 0 1 330.11 449.87
  Q 331.11 452.35 328.67 453.43
  C 323.67 455.66 314.91 460.85 312.60 466.09
  A 2.37 2.35 26.1 0 0 313.65 469.12
  Q 314.96 469.82 315.98 468.96
  C 320.89 464.83 326.95 459.69 332.33 458.03
  A 0.31 0.30 -75.6 0 1 332.63 458.54
  Z"
/>
<path d="
  M 219.48 458.64
  Q 219.14 460.21 214.17 475.93
  Q 213.46 478.14 211.91 478.90
  Q 210.23 479.71 203.99 480.27
  C 191.64 481.38 176.03 477.71 165.59 469.91
  A 1.81 1.81 0.0 0 1 164.94 467.96
  L 169.94 450.50
  A 0.82 0.81 -68.1 0 1 171.10 450.00
  C 180.99 455.14 191.56 457.45 202.35 458.66
  Q 210.74 459.60 218.91 458.06
  A 0.49 0.49 0.0 0 1 219.48 458.64
  Z"
/>
<path d="
  M 379.54 463.44
  L 379.60 463.56
  A 2.28 2.28 0.0 0 1 378.08 466.75
  Q 369.66 468.82 364.47 472.00
  Q 355.63 477.42 343.11 486.87
  Q 334.31 493.51 308.70 513.39
  A 2.78 2.77 48.5 0 1 305.03 513.16
  L 304.03 512.16
  A 2.03 2.02 49.0 0 1 304.24 509.11
  Q 318.01 498.78 342.53 479.53
  Q 346.60 476.34 353.69 471.44
  C 360.45 466.78 367.23 462.62 375.53 461.32
  A 3.81 3.80 72.8 0 1 379.54 463.44
  Z"
/>
<path d="
  M 318.80 514.15
  A 0.13 0.12 13.8 0 1 318.67 513.94
  Q 339.06 497.73 356.60 484.59
  C 362.85 479.91 369.77 475.07 377.23 472.34
  A 0.50 0.50 0.0 0 1 377.82 473.09
  Q 374.52 477.98 369.62 482.12
  Q 355.02 494.42 338.21 504.46
  Q 328.58 510.21 318.80 514.15
  Z"
/>
<path d="
  M 211.50 485.84
  L 210.18 490.45
  A 1.29 1.27 2.9 0 1 209.17 491.35
  C 202.00 492.57 195.55 493.48 189.79 495.95
  C 187.56 496.90 186.70 500.36 189.10 501.60
  Q 190.21 502.18 192.58 501.47
  Q 201.11 498.91 212.30 497.09
  A 2.19 2.19 0.0 0 1 214.47 498.02
  L 216.27 500.69
  A 0.74 0.74 0.0 0 1 215.64 501.84
  Q 212.05 501.79 206.40 503.22
  C 202.47 504.22 198.99 505.01 196.73 508.20
  A 2.31 2.05 33.5 0 0 197.55 511.27
  C 198.65 511.97 200.74 511.53 201.69 511.08
  Q 207.65 508.25 215.51 507.44
  Q 222.68 506.69 227.61 511.59
  Q 234.79 518.73 234.34 529.00
  Q 234.26 530.81 231.75 531.52
  C 217.00 535.69 200.16 534.48 186.86 526.59
  Q 171.89 517.72 159.07 504.92
  Q 155.94 501.79 153.66 498.20
  A 3.17 3.14 -50.4 0 1 153.40 495.29
  Q 156.71 487.20 161.50 480.21
  A 4.53 4.45 -19.3 0 0 162.07 479.05
  L 163.17 475.79
  A 0.59 0.59 0.0 0 1 164.06 475.48
  Q 185.33 489.61 210.96 485.24
  A 0.48 0.48 0.0 0 1 211.50 485.84
  Z"
/>
<path d="
  M 150.28 502.93
  A 0.37 0.37 0.0 0 1 150.92 502.88
  Q 152.44 505.09 155.18 508.08
  Q 165.79 519.65 181.86 529.97
  C 194.33 537.98 208.07 540.40 222.83 538.82
  Q 228.14 538.25 233.33 536.14
  A 0.37 0.37 0.0 0 1 233.84 536.48
  Q 233.93 543.27 227.21 544.21
  C 216.22 545.77 203.81 546.31 193.20 542.05
  C 180.84 537.09 171.08 530.41 160.90 521.56
  Q 156.32 517.58 155.43 516.67
  C 151.00 512.14 147.35 508.72 150.28 502.93
  Z"
/>
</g>
</svg>
