<?xml version="1.0" encoding="UTF-8" standalone="no"?>
<!DOCTYPE svg PUBLIC "-//W3C//DTD SVG 1.1//EN" "http://www.w3.org/Graphics/SVG/1.1/DTD/svg11.dtd">
<svg xmlns="http://www.w3.org/2000/svg" version="1.1" viewBox="0.00 0.00 869.00 828.00">
<g stroke-width="2.00" fill="none" stroke-linecap="butt">
<path stroke="#5493c5" vector-effect="non-scaling-stroke" d="
  M 392.76 99.03
  Q 383.91 99.17 376.46 99.04
  Q 372.06 98.96 370.53 97.82
  C 366.54 94.80 366.57 88.68 370.81 86.45
  Q 372.64 85.50 378.01 85.50
  Q 409.08 85.55 433.25 85.71
  C 462.22 85.90 491.06 90.72 518.09 101.75
  Q 534.24 108.34 546.57 116.23
  Q 552.40 119.96 561.19 127.76
  Q 577.79 142.47 582.01 146.00
  Q 593.40 155.53 608.79 162.97
  Q 646.31 181.11 687.50 187.74
  C 699.36 189.65 712.81 191.82 724.91 189.16
  A 1.28 1.28 0.0 0 0 725.89 188.12
  C 728.35 172.94 728.55 156.66 724.40 142.05
  C 717.00 116.01 700.33 95.19 678.97 78.04
  Q 649.33 54.23 613.67 39.66
  Q 579.10 25.54 536.40 18.36
  C 516.49 15.02 497.17 14.55 476.88 15.22
  C 451.58 16.06 425.58 21.71 401.92 29.90
  Q 383.73 36.20 369.18 44.94
  C 360.36 50.24 351.04 58.86 346.69 68.25
  C 338.67 85.58 349.87 102.47 364.56 110.72
  Q 379.23 118.97 396.54 120.83
  A 0.22 0.22 0.0 0 0 396.78 120.55
  Q 393.90 110.67 393.48 99.71
  A 0.71 0.71 0.0 0 0 392.76 99.03"
/>
<path stroke="#5493c5" vector-effect="non-scaling-stroke" d="
  M 406.13 99.77
  Q 407.47 111.56 410.14 121.71
  A 0.89 0.87 -5.4 0 0 410.94 122.36
  L 424.28 123.18
  A 0.37 0.36 83.3 0 0 424.65 122.71
  Q 421.49 111.85 421.59 99.73
  A 0.65 0.65 0.0 0 0 420.94 99.07
  L 406.75 99.07
  A 0.63 0.62 86.7 0 0 406.13 99.77"
/>
<path stroke="#5493c5" vector-effect="non-scaling-stroke" d="
  M 434.10 99.70
  Q 434.81 111.87 438.16 123.60
  A 0.72 0.71 -4.3 0 0 438.76 124.11
  L 452.56 125.75
  A 0.30 0.30 0.0 0 0 452.88 125.37
  Q 449.26 113.22 449.95 100.64
  A 0.43 0.42 4.0 0 0 449.55 100.19
  L 434.52 99.27
  A 0.40 0.40 0.0 0 0 434.10 99.70"
/>
<path stroke="#5493c5" vector-effect="non-scaling-stroke" d="
  M 478.44 104.01
  L 463.50 101.57
  A 0.57 0.57 0.0 0 0 462.84 102.12
  Q 462.83 115.03 467.10 126.96
  A 1.14 1.14 0.0 0 0 467.85 127.66
  L 479.38 130.91
  A 0.46 0.46 0.0 0 0 479.96 130.39
  Q 477.90 118.30 478.95 104.66
  A 0.61 0.61 0.0 0 0 478.44 104.01"
/>
<path stroke="#5493c5" vector-effect="non-scaling-stroke" d="
  M 491.54 107.45
  Q 490.78 120.96 493.93 133.05
  Q 494.65 135.83 496.46 136.85
  Q 501.71 139.81 505.16 141.97
  A 0.42 0.42 0.0 0 0 505.80 141.66
  Q 507.38 127.55 512.14 114.63
  A 0.93 0.92 19.1 0 0 511.55 113.43
  L 492.18 107.02
  A 0.49 0.49 0.0 0 0 491.54 107.45"
/>
<path stroke="#5493c5" vector-effect="non-scaling-stroke" d="
  M 540.41 128.29
  Q 532.59 123.14 524.63 119.51
  A 0.51 0.51 0.0 0 0 523.93 119.81
  Q 519.12 134.37 518.13 149.36
  A 2.20 2.19 -75.4 0 0 519.37 151.49
  Q 522.23 152.87 523.65 150.67
  Q 532.77 136.58 540.46 128.77
  A 0.31 0.31 0.0 0 0 540.41 128.29"
/>
<path stroke="#5493c5" vector-effect="non-scaling-stroke" d="
  M 346.55 297.48
  L 338.82 311.53
  A 2.63 2.58 52.2 0 0 338.59 313.50
  C 341.61 324.15 346.97 335.33 354.70 343.38
  Q 362.86 351.87 372.51 357.02
  C 378.31 360.11 384.01 361.45 390.96 363.02
  C 399.57 364.96 395.63 376.09 387.64 375.27
  C 361.87 372.62 340.22 353.28 330.47 329.78
  A 0.48 0.47 -47.4 0 0 329.58 329.82
  L 324.98 343.73
  A 2.71 2.69 36.5 0 0 325.35 346.15
  Q 335.72 360.75 345.61 374.88
  C 348.88 379.55 354.67 382.00 360.12 383.34
  Q 367.49 385.16 374.19 386.82
  C 383.17 389.04 391.94 394.35 397.89 401.56
  Q 410.95 417.39 406.84 439.11
  C 406.15 442.76 402.27 455.80 398.44 456.78
  Q 393.65 458.00 391.49 453.41
  Q 388.85 447.82 385.48 442.95
  A 0.26 0.25 -67.1 0 0 385.02 443.14
  Q 386.21 450.68 384.30 458.69
  A 0.82 0.81 -74.4 0 0 384.83 459.65
  L 406.27 466.74
  A 0.44 0.44 0.0 0 0 406.84 466.42
  Q 412.43 441.82 414.42 417.11
  C 415.03 409.42 415.17 399.01 415.34 392.61
  C 415.43 389.13 416.19 387.15 419.48 385.97
  C 429.88 382.24 439.70 377.12 449.27 371.82
  C 473.13 358.62 495.47 340.45 511.39 318.70
  Q 526.95 297.44 534.59 269.11
  A 5.78 5.48 55.6 0 0 534.79 267.86
  C 534.91 265.27 534.53 262.27 535.55 259.93
  C 537.63 255.19 542.02 252.44 547.15 249.62
  Q 553.22 246.27 562.13 242.21
  A 0.56 0.54 -24.4 0 0 562.41 241.49
  C 555.22 225.26 556.45 206.03 566.16 191.19
  C 569.69 185.78 577.01 188.47 576.98 194.90
  A 2.48 2.40 -34.0 0 1 576.79 195.79
  Q 574.00 202.13 573.12 204.82
  Q 567.53 222.03 574.52 237.46
  Q 576.87 242.64 583.31 251.17
  Q 600.70 274.21 622.39 288.11
  C 636.91 297.41 661.49 307.72 673.75 288.75
  A 0.37 0.36 -70.2 0 0 673.49 288.19
  Q 669.25 287.60 664.33 285.90
  Q 632.09 274.75 613.03 245.74
  C 605.37 234.08 600.39 221.03 604.54 206.99
  Q 609.28 190.93 626.45 185.10
  A 0.33 0.33 0.0 0 0 626.46 184.47
  C 606.70 177.22 587.34 168.17 572.02 154.54
  Q 562.47 146.05 554.05 138.77
  Q 552.41 137.35 550.92 136.59
  A 0.66 0.65 33.8 0 0 550.14 136.74
  Q 538.48 150.08 528.89 166.59
  Q 521.64 179.06 521.52 179.26
  Q 515.35 189.55 504.61 197.37
  Q 491.10 207.21 474.52 208.35
  A 0.71 0.71 0.0 0 0 473.91 209.30
  Q 478.64 222.43 477.99 235.99
  C 477.75 241.01 476.80 246.42 470.81 246.50
  C 468.47 246.54 466.84 245.06 465.68 243.25
  Q 464.89 242.01 465.10 238.61
  C 465.82 227.37 464.32 211.99 456.81 202.81
  C 449.80 194.25 439.00 189.66 428.03 190.16
  C 421.32 190.47 416.02 191.29 411.34 196.08
  Q 405.55 202.01 404.78 202.55
  Q 401.05 205.23 394.62 206.38
  Q 316.06 220.49 232.99 238.76
  Q 224.69 240.59 219.67 242.60
  C 208.56 247.04 209.67 256.68 215.26 264.99
  Q 242.34 305.26 273.14 348.63
  Q 291.23 374.09 308.65 396.34
  C 316.27 406.08 322.98 415.68 326.98 426.92
  C 333.43 445.03 326.97 462.78 314.19 475.56
  A 0.25 0.25 0.0 0 0 314.44 475.98
  Q 329.67 471.49 338.43 458.73
  C 341.94 453.61 344.57 447.54 344.85 441.38
  Q 344.99 438.40 345.31 436.05
  C 345.78 432.62 349.48 428.97 353.24 430.35
  Q 355.87 431.31 356.54 433.23
  C 359.86 442.68 361.91 451.61 362.50 462.06
  Q 362.97 470.27 363.07 475.18
  A 0.36 0.35 61.8 0 0 363.72 475.38
  Q 378.75 453.03 369.74 427.86
  C 368.54 424.50 366.04 420.79 365.00 418.02
  C 362.98 412.65 367.67 407.51 372.99 410.53
  Q 373.63 410.90 377.22 414.44
  Q 386.79 423.87 394.99 435.94
  A 0.50 0.50 0.0 0 0 395.90 435.68
  C 396.06 431.80 396.23 427.07 395.41 423.19
  Q 391.91 406.62 375.30 400.43
  C 370.08 398.49 359.80 397.34 353.05 394.77
  C 345.03 391.73 339.10 388.10 334.40 381.35
  C 324.16 366.65 314.23 352.64 305.20 339.27
  Q 289.41 315.90 262.70 275.83
  Q 261.29 273.72 261.40 271.48
  Q 261.60 267.32 265.84 266.76
  Q 305.14 261.52 319.73 259.58
  Q 383.96 251.07 421.50 246.23
  C 428.36 245.34 431.00 254.33 425.50 257.93
  Q 423.74 259.09 419.77 259.47
  Q 413.39 260.07 411.99 260.19
  A 0.46 0.46 0.0 0 0 411.62 260.87
  Q 423.24 282.87 445.94 292.79
  Q 454.96 296.74 462.14 296.79
  Q 469.49 296.85 472.26 296.96
  Q 477.35 297.17 478.01 302.29
  C 478.63 307.09 475.30 309.80 470.56 310.14
  Q 456.77 311.11 446.14 307.41
  Q 412.58 295.75 397.61 262.73
  A 0.73 0.72 74.3 0 0 396.87 262.31
  L 385.09 263.81
  A 0.38 0.38 0.0 0 0 384.75 264.23
  C 386.32 278.35 392.59 293.33 402.58 303.28
  C 415.85 316.49 434.43 322.91 453.88 320.58
  Q 457.70 320.12 459.07 320.83
  C 464.90 323.81 462.88 331.94 456.98 333.44
  Q 455.26 333.88 453.23 334.08
  Q 435.07 335.88 418.65 329.51
  C 391.45 318.94 374.80 295.40 371.82 266.07
  A 0.64 0.63 -86.8 0 0 371.33 265.52
  Q 369.32 265.08 368.12 266.46
  Q 362.68 272.69 356.51 281.35
  A 1.54 1.53 -33.9 0 0 356.26 282.60
  C 360.45 301.15 368.98 319.12 383.52 330.73
  Q 403.28 346.52 428.99 344.12
  C 434.23 343.63 436.90 347.65 435.05 352.60
  C 433.79 355.98 428.59 357.27 425.50 357.60
  C 415.01 358.69 402.58 356.49 392.58 352.07
  C 369.59 341.92 353.84 321.59 346.72 297.50
  A 0.09 0.09 0.0 0 0 346.55 297.48"
/>
<path stroke="#5493c5" vector-effect="non-scaling-stroke" d="
  M 336.78 203.38
  C 320.63 179.03 299.42 156.42 273.44 143.22
  A 0.25 0.25 0.0 0 0 273.11 143.58
  Q 276.45 148.59 279.96 154.80
  Q 294.37 180.33 308.09 208.54
  A 0.84 0.84 0.0 0 0 309.00 209.00
  L 336.68 203.63
  A 0.16 0.16 0.0 0 0 336.78 203.38"
/>
<path stroke="#86a9c8" vector-effect="non-scaling-stroke" d="
  M 660.87 198.24
  L 660.87 203.97
  A 0.74 0.74 0.0 0 0 662.13 204.49
  L 666.80 199.82
  A 0.87 0.87 0.0 0 0 666.42 198.36
  Q 664.60 197.85 661.25 197.11
  A 0.69 0.67 85.8 0 0 660.49 198.02
  Q 660.50 198.06 660.74 198.10
  A 0.15 0.14 4.8 0 1 660.87 198.24"
/>
<path stroke="#5493c5" vector-effect="non-scaling-stroke" d="
  M 219.20 201.87
  A 0.38 0.38 0.0 0 0 218.68 202.39
  L 233.72 224.73
  A 0.38 0.38 0.0 0 0 234.11 224.89
  L 248.53 222.09
  A 0.38 0.38 0.0 0 0 248.67 221.40
  L 219.20 201.87"
/>
<path stroke="#86a9c8" vector-effect="non-scaling-stroke" d="
  M 685.16 211.36
  A 0.81 0.81 0.0 0 0 686.56 211.67
  L 692.75 204.39
  A 0.81 0.81 0.0 0 0 692.23 203.06
  L 683.75 202.12
  A 0.81 0.81 0.0 0 0 682.88 203.15
  L 685.16 211.36"
/>
<path stroke="#86a9c8" vector-effect="non-scaling-stroke" d="
  M 714.81 208.19
  A 0.88 0.88 0.0 0 0 714.02 206.89
  L 709.91 206.96
  A 1.16 1.16 0.0 0 0 708.81 208.44
  L 710.33 213.72
  A 0.73 0.73 0.0 0 0 711.66 213.87
  L 714.81 208.19"
/>
<path stroke="#86a9c8" vector-effect="non-scaling-stroke" d="
  M 642.16 251.87
  A 0.87 0.87 0.0 0 0 640.85 251.12
  L 637.32 253.16
  A 1.15 1.15 0.0 0 0 637.08 254.97
  L 640.93 258.82
  A 0.72 0.72 0.0 0 0 642.16 258.31
  L 642.16 251.87"
/>
<path stroke="#86a9c8" vector-effect="non-scaling-stroke" d="
  M 660.01 269.28
  L 660.35 263.74
  A 0.59 0.58 80.0 0 0 659.53 263.16
  Q 657.40 264.10 655.27 266.10
  A 1.16 1.16 0.0 0 0 655.28 267.80
  Q 656.72 269.14 659.10 269.91
  A 0.70 0.70 0.0 0 0 660.01 269.28"
/>
<path stroke="#5493c5" vector-effect="non-scaling-stroke" d="
  M 323.45 272.00
  A 0.31 0.31 0.0 0 0 323.23 272.47
  L 334.60 290.32
  A 0.31 0.31 0.0 0 0 335.12 290.31
  L 347.95 269.60
  A 0.31 0.31 0.0 0 0 347.65 269.13
  L 323.45 272.00"
/>
<path stroke="#86a9c8" vector-effect="non-scaling-stroke" d="
  M 677.01 272.65
  L 673.71 274.56
  A 0.51 0.51 0.0 0 0 673.52 275.26
  L 673.62 275.44
  A 2.60 2.42 59.9 0 0 677.02 276.48
  A 2.60 2.42 59.9 0 0 677.81 273.01
  L 677.71 272.83
  A 0.51 0.51 0.0 0 0 677.01 272.65"
/>
<path stroke="#5493c5" vector-effect="non-scaling-stroke" d="
  M 845.05 328.36
  Q 845.02 328.21 844.75 328.00
  C 831.01 317.44 810.60 310.09 793.23 314.30
  A 10.22 10.13 20.0 0 0 789.71 315.92
  C 788.16 317.03 783.45 320.90 780.72 320.78
  C 774.99 320.53 773.28 314.77 777.01 310.73
  C 785.57 301.46 797.60 293.26 810.61 288.15
  Q 826.84 281.78 842.37 278.78
  A 0.14 0.13 50.4 0 0 842.39 278.52
  Q 833.45 274.73 824.79 274.03
  C 801.63 272.16 774.80 278.77 762.60 300.10
  Q 757.89 308.34 754.00 315.76
  C 749.44 324.45 743.73 331.33 735.17 335.73
  Q 727.86 339.48 726.88 339.90
  Q 678.45 360.31 618.11 384.65
  C 612.65 386.86 609.54 387.92 606.14 382.63
  Q 578.56 339.67 553.49 299.50
  Q 548.51 291.52 543.89 283.59
  A 0.23 0.22 -51.3 0 0 543.48 283.64
  Q 537.42 302.51 526.44 319.27
  A 0.61 0.59 45.2 0 0 526.45 319.94
  Q 549.93 355.68 573.43 389.58
  Q 580.72 400.10 587.18 407.60
  C 593.89 415.39 606.72 418.64 616.21 414.67
  Q 654.73 398.52 756.32 353.09
  Q 765.98 348.77 774.58 340.85
  Q 780.36 335.54 790.26 330.33
  C 806.51 321.77 827.79 322.89 844.66 328.69
  A 0.30 0.30 0.0 0 0 845.05 328.36"
/>
<path stroke="#5493c5" vector-effect="non-scaling-stroke" d="
  M 619.71 728.58
  C 608.95 720.30 592.26 719.56 578.99 721.28
  C 563.62 723.27 548.20 727.11 535.01 729.24
  Q 520.60 731.57 505.78 727.80
  C 500.37 726.42 492.80 724.66 494.80 717.50
  Q 496.82 710.29 500.14 701.37
  Q 509.23 676.97 517.90 654.64
  Q 525.93 633.96 550.30 565.02
  C 553.58 555.75 555.67 547.22 548.47 538.98
  Q 543.76 533.59 535.41 530.09
  Q 501.15 515.71 480.67 508.14
  Q 426.50 488.10 379.78 472.32
  A 0.37 0.36 20.3 0 0 379.33 472.52
  Q 374.38 483.24 365.59 491.09
  C 362.47 493.89 358.01 496.90 354.18 494.57
  C 352.21 493.37 351.53 490.53 351.38 488.31
  Q 350.43 474.45 350.08 463.29
  A 0.33 0.33 0.0 0 0 349.44 463.19
  C 348.26 466.57 346.19 469.05 343.97 471.84
  C 333.55 484.96 313.48 493.09 296.40 490.14
  C 292.07 489.39 289.60 485.46 291.10 481.24
  Q 291.93 478.89 292.86 478.08
  C 300.42 471.51 307.05 465.20 311.97 456.73
  A 0.48 0.46 24.7 0 0 311.71 456.05
  C 307.62 454.68 303.79 451.86 300.25 448.93
  Q 297.43 446.58 296.84 444.92
  C 294.48 438.32 300.68 433.48 306.34 437.92
  Q 310.63 441.29 316.00 444.76
  A 0.60 0.60 0.0 0 0 316.92 444.28
  C 317.40 431.76 311.14 421.35 303.57 411.39
  Q 297.04 402.80 288.31 391.96
  A 0.23 0.22 -42.7 0 0 287.97 391.95
  C 262.58 419.14 240.39 439.92 207.25 471.25
  Q 194.76 483.06 179.73 495.47
  Q 160.24 511.57 154.25 516.25
  Q 123.80 540.05 108.78 553.05
  Q 99.43 561.14 85.40 575.14
  C 51.83 608.64 22.87 650.60 22.33 699.99
  Q 21.90 740.07 45.97 771.95
  A 0.56 0.56 0.0 0 0 46.77 772.05
  Q 53.75 766.66 58.51 759.25
  A 1.28 1.28 0.0 0 0 58.50 757.84
  Q 49.39 744.15 47.07 728.48
  C 40.76 685.90 61.94 641.16 89.50 610.20
  C 113.09 583.70 142.50 561.91 173.06 543.11
  A 0.72 0.72 0.0 0 0 173.27 542.06
  Q 170.22 537.82 168.50 533.47
  Q 166.62 528.74 171.02 526.58
  Q 177.20 523.54 180.36 528.98
  Q 182.33 532.36 183.82 535.55
  A 0.59 0.59 0.0 0 0 184.65 535.81
  L 208.46 522.06
  A 0.91 0.90 64.3 0 0 208.85 520.93
  Q 206.98 516.26 204.41 510.91
  C 202.43 506.77 201.58 503.25 205.91 500.90
  Q 210.87 498.21 213.79 503.11
  Q 215.49 505.97 219.59 514.37
  A 1.06 1.06 0.0 0 0 221.04 514.84
  L 252.61 497.87
  A 0.72 0.72 0.0 0 0 252.98 497.10
  Q 250.03 481.06 252.02 463.81
  C 252.69 458.01 259.87 456.00 263.26 460.66
  Q 264.36 462.18 264.21 467.14
  Q 263.94 476.05 264.11 482.99
  C 264.45 496.81 269.76 510.02 282.27 516.85
  Q 291.04 521.64 302.38 523.65
  Q 329.07 528.39 350.77 531.71
  Q 370.59 534.75 413.94 543.23
  C 443.45 549.00 473.92 556.61 498.33 563.48
  Q 502.58 564.68 503.71 567.98
  Q 504.40 569.98 502.99 574.99
  Q 489.98 621.23 475.39 675.18
  C 468.86 699.33 462.72 719.20 455.74 740.51
  Q 455.32 741.79 455.16 743.68
  A 1.81 1.80 -79.5 0 0 456.46 745.58
  Q 476.26 751.35 493.31 755.74
  C 505.59 758.89 517.35 760.75 528.51 759.52
  C 547.12 757.46 560.94 755.62 576.71 757.14
  Q 592.29 758.63 605.99 764.38
  A 0.14 0.14 0.0 0 0 606.16 764.18
  C 595.46 748.81 575.60 743.17 557.87 744.52
  C 550.33 745.09 548.13 734.37 556.16 733.11
  Q 571.96 730.63 584.59 730.21
  Q 589.54 730.05 601.84 729.26
  Q 609.99 728.73 619.52 729.11
  A 0.30 0.29 64.9 0 0 619.71 728.58"
/>
<path stroke="#5493c5" vector-effect="non-scaling-stroke" d="
  M 250.7418 407.9521
  A 1.32 0.60 -167.4 0 0 251.8991 408.8256
  A 1.32 0.60 -167.4 0 0 253.3182 408.5279
  A 1.32 0.60 -167.4 0 0 252.1609 407.6544
  A 1.32 0.60 -167.4 0 0 250.7418 407.9521"
/>
<path stroke="#5493c5" vector-effect="non-scaling-stroke" d="
  M 221.42 437.42
  Q 221.10 437.81 222.09 439.08
  A 0.86 0.86 0.0 0 0 223.30 439.23
  Q 223.33 439.21 223.44 439.07
  Q 223.55 438.93 223.57 438.90
  A 0.86 0.86 0.0 0 0 223.18 437.75
  Q 221.74 437.03 221.42 437.42"
/>
<path stroke="#5493c5" vector-effect="non-scaling-stroke" d="
  M 188.18 470.11
  A 0.96 0.95 -77.3 0 0 189.72 469.13
  Q 189.56 468.51 188.88 468.50
  A 0.76 0.76 0.0 0 0 188.16 468.97
  Q 187.81 469.80 188.18 470.11"
/>
<path stroke="#5493c5" vector-effect="non-scaling-stroke" d="
  M 153.76 500.54
  L 154.99 499.28
  A 0.25 0.25 0.0 0 0 154.98 498.92
  L 154.86 498.80
  A 2.88 1.13 44.1 0 0 152.01 497.61
  A 2.88 1.13 44.1 0 0 153.29 500.43
  L 153.41 500.55
  A 0.25 0.25 0.0 0 0 153.76 500.54"
/>
<path stroke="#5493c5" vector-effect="non-scaling-stroke" d="
  M 113.86 775.54
  A 0.23 0.23 0.0 0 0 114.23 775.80
  Q 114.66 775.34 115.69 773.69
  Q 130.73 749.42 134.81 720.68
  C 135.60 715.09 136.48 711.05 137.62 706.16
  Q 138.54 702.20 141.82 700.59
  C 144.89 699.09 148.85 698.26 152.67 697.09
  Q 189.07 686.00 251.54 668.01
  Q 257.12 666.40 261.48 664.21
  Q 269.39 660.26 273.57 652.03
  Q 289.47 620.77 306.80 581.80
  Q 314.66 564.13 324.30 541.42
  A 0.44 0.44 0.0 0 0 323.97 540.81
  Q 309.22 538.18 294.98 535.03
  Q 283.36 532.46 274.14 526.86
  Q 271.39 525.18 269.48 523.29
  A 0.31 0.30 30.3 0 0 268.97 523.42
  L 238.06 630.99
  A 2.16 1.97 -23.9 0 1 237.81 631.56
  Q 236.15 634.17 232.45 635.46
  C 218.81 640.22 192.83 649.29 175.85 655.62
  Q 120.66 676.20 116.13 677.87
  Q 112.64 679.17 111.03 682.07
  Q 108.48 686.67 104.33 696.31
  C 92.10 724.72 84.37 744.85 70.10 765.58
  Q 63.11 775.73 54.28 782.69
  A 0.71 0.70 42.7 0 0 54.33 783.83
  C 57.62 786.01 62.38 783.94 65.56 782.08
  Q 91.29 767.05 103.60 740.96
  C 105.13 737.72 106.10 733.51 108.22 730.25
  C 110.12 727.33 114.85 726.83 117.05 729.64
  Q 118.01 730.88 118.08 734.00
  Q 118.47 752.80 114.75 772.02
  Q 114.23 774.72 113.86 775.54"
/>
<path stroke="#5493c5" vector-effect="non-scaling-stroke" d="
  M 115.72 528.19
  Q 115.81 528.37 116.06 528.83
  Q 116.48 529.59 116.97 529.65
  Q 117.70 529.74 118.23 529.15
  A 0.61 0.61 0.0 0 0 117.95 528.15
  L 116.18 527.65
  A 0.39 0.39 0.0 0 0 115.72 528.19"
/>
<path stroke="#5493c5" vector-effect="non-scaling-stroke" d="
  M 317.57 734.07
  Q 281.49 763.81 237.06 780.83
  Q 208.15 791.90 180.02 795.45
  Q 162.87 797.61 148.94 796.89
  Q 132.99 796.06 117.98 793.06
  A 1.56 1.55 27.1 0 0 116.54 793.52
  Q 109.72 800.75 100.53 804.51
  Q 95.54 806.55 92.49 802.36
  C 91.11 800.46 91.85 797.46 92.63 795.38
  Q 95.51 787.77 96.09 786.55
  A 0.52 0.51 27.9 0 0 95.88 785.88
  L 89.49 782.19
  A 2.14 2.12 39.9 0 0 87.05 782.40
  Q 78.87 789.28 70.08 794.13
  A 0.22 0.21 45.4 0 0 70.08 794.50
  C 92.05 807.75 116.23 814.01 142.01 814.75
  Q 168.10 815.50 193.84 809.04
  Q 241.04 797.20 281.25 767.49
  Q 303.35 751.16 317.87 734.31
  A 0.16 0.16 0.0 0 0 317.86 734.10
  L 317.86 734.09
  A 0.22 0.21 48.1 0 0 317.57 734.07"
/>
</g>
<g fill="#9bd2f9">
<path d="
  M 393.48 99.71
  Q 393.90 110.67 396.78 120.55
  A 0.22 0.22 0.0 0 1 396.54 120.83
  Q 379.23 118.97 364.56 110.72
  C 349.87 102.47 338.67 85.58 346.69 68.25
  C 351.04 58.86 360.36 50.24 369.18 44.94
  Q 383.73 36.20 401.92 29.90
  C 425.58 21.71 451.58 16.06 476.88 15.22
  C 497.17 14.55 516.49 15.02 536.40 18.36
  Q 579.10 25.54 613.67 39.66
  Q 649.33 54.23 678.97 78.04
  C 700.33 95.19 717.00 116.01 724.40 142.05
  C 728.55 156.66 728.35 172.94 725.89 188.12
  A 1.28 1.28 0.0 0 1 724.91 189.16
  C 712.81 191.82 699.36 189.65 687.50 187.74
  Q 646.31 181.11 608.79 162.97
  Q 593.40 155.53 582.01 146.00
  Q 577.79 142.47 561.19 127.76
  Q 552.40 119.96 546.57 116.23
  Q 534.24 108.34 518.09 101.75
  C 491.06 90.72 462.22 85.90 433.25 85.71
  Q 409.08 85.55 378.01 85.50
  Q 372.64 85.50 370.81 86.45
  C 366.57 88.68 366.54 94.80 370.53 97.82
  Q 372.06 98.96 376.46 99.04
  Q 383.91 99.17 392.76 99.03
  A 0.71 0.71 0.0 0 1 393.48 99.71
  Z"
/>
<path d="
  M 406.75 99.07
  L 420.94 99.07
  A 0.65 0.65 0.0 0 1 421.59 99.73
  Q 421.49 111.85 424.65 122.71
  A 0.37 0.36 83.3 0 1 424.28 123.18
  L 410.94 122.36
  A 0.89 0.87 -5.4 0 1 410.14 121.71
  Q 407.47 111.56 406.13 99.77
  A 0.63 0.62 86.7 0 1 406.75 99.07
  Z"
/>
<path d="
  M 434.10 99.70
  A 0.40 0.40 0.0 0 1 434.52 99.27
  L 449.55 100.19
  A 0.43 0.42 4.0 0 1 449.95 100.64
  Q 449.26 113.22 452.88 125.37
  A 0.30 0.30 0.0 0 1 452.56 125.75
  L 438.76 124.11
  A 0.72 0.71 -4.3 0 1 438.16 123.60
  Q 434.81 111.87 434.10 99.70
  Z"
/>
<path d="
  M 478.44 104.01
  A 0.61 0.61 0.0 0 1 478.95 104.66
  Q 477.90 118.30 479.96 130.39
  A 0.46 0.46 0.0 0 1 479.38 130.91
  L 467.85 127.66
  A 1.14 1.14 0.0 0 1 467.10 126.96
  Q 462.83 115.03 462.84 102.12
  A 0.57 0.57 0.0 0 1 463.50 101.57
  L 478.44 104.01
  Z"
/>
<path d="
  M 492.18 107.02
  L 511.55 113.43
  A 0.93 0.92 19.1 0 1 512.14 114.63
  Q 507.38 127.55 505.80 141.66
  A 0.42 0.42 0.0 0 1 505.16 141.97
  Q 501.71 139.81 496.46 136.85
  Q 494.65 135.83 493.93 133.05
  Q 490.78 120.96 491.54 107.45
  A 0.49 0.49 0.0 0 1 492.18 107.02
  Z"
/>
<path d="
  M 540.41 128.29
  A 0.31 0.31 0.0 0 1 540.46 128.77
  Q 532.77 136.58 523.65 150.67
  Q 522.23 152.87 519.37 151.49
  A 2.20 2.19 -75.4 0 1 518.13 149.36
  Q 519.12 134.37 523.93 119.81
  A 0.51 0.51 0.0 0 1 524.63 119.51
  Q 532.59 123.14 540.41 128.29
  Z"
/>
<path d="
  M 346.55 297.48
  A 0.09 0.09 0.0 0 1 346.72 297.50
  C 353.84 321.59 369.59 341.92 392.58 352.07
  C 402.58 356.49 415.01 358.69 425.50 357.60
  C 428.59 357.27 433.79 355.98 435.05 352.60
  C 436.90 347.65 434.23 343.63 428.99 344.12
  Q 403.28 346.52 383.52 330.73
  C 368.98 319.12 360.45 301.15 356.26 282.60
  A 1.54 1.53 -33.9 0 1 356.51 281.35
  Q 362.68 272.69 368.12 266.46
  Q 369.32 265.08 371.33 265.52
  A 0.64 0.63 -86.8 0 1 371.82 266.07
  C 374.80 295.40 391.45 318.94 418.65 329.51
  Q 435.07 335.88 453.23 334.08
  Q 455.26 333.88 456.98 333.44
  C 462.88 331.94 464.90 323.81 459.07 320.83
  Q 457.70 320.12 453.88 320.58
  C 434.43 322.91 415.85 316.49 402.58 303.28
  C 392.59 293.33 386.32 278.35 384.75 264.23
  A 0.38 0.38 0.0 0 1 385.09 263.81
  L 396.87 262.31
  A 0.73 0.72 74.3 0 1 397.61 262.73
  Q 412.58 295.75 446.14 307.41
  Q 456.77 311.11 470.56 310.14
  C 475.30 309.80 478.63 307.09 478.01 302.29
  Q 477.35 297.17 472.26 296.96
  Q 469.49 296.85 462.14 296.79
  Q 454.96 296.74 445.94 292.79
  Q 423.24 282.87 411.62 260.87
  A 0.46 0.46 0.0 0 1 411.99 260.19
  Q 413.39 260.07 419.77 259.47
  Q 423.74 259.09 425.50 257.93
  C 431.00 254.33 428.36 245.34 421.50 246.23
  Q 383.96 251.07 319.73 259.58
  Q 305.14 261.52 265.84 266.76
  Q 261.60 267.32 261.40 271.48
  Q 261.29 273.72 262.70 275.83
  Q 289.41 315.90 305.20 339.27
  C 314.23 352.64 324.16 366.65 334.40 381.35
  C 339.10 388.10 345.03 391.73 353.05 394.77
  C 359.80 397.34 370.08 398.49 375.30 400.43
  Q 391.91 406.62 395.41 423.19
  C 396.23 427.07 396.06 431.80 395.90 435.68
  A 0.50 0.50 0.0 0 1 394.99 435.94
  Q 386.79 423.87 377.22 414.44
  Q 373.63 410.90 372.99 410.53
  C 367.67 407.51 362.98 412.65 365.00 418.02
  C 366.04 420.79 368.54 424.50 369.74 427.86
  Q 378.75 453.03 363.72 475.38
  A 0.36 0.35 61.8 0 1 363.07 475.18
  Q 362.97 470.27 362.50 462.06
  C 361.91 451.61 359.86 442.68 356.54 433.23
  Q 355.87 431.31 353.24 430.35
  C 349.48 428.97 345.78 432.62 345.31 436.05
  Q 344.99 438.40 344.85 441.38
  C 344.57 447.54 341.94 453.61 338.43 458.73
  Q 329.67 471.49 314.44 475.98
  A 0.25 0.25 0.0 0 1 314.19 475.56
  C 326.97 462.78 333.43 445.03 326.98 426.92
  C 322.98 415.68 316.27 406.08 308.65 396.34
  Q 291.23 374.09 273.14 348.63
  Q 242.34 305.26 215.26 264.99
  C 209.67 256.68 208.56 247.04 219.67 242.60
  Q 224.69 240.59 232.99 238.76
  Q 316.06 220.49 394.62 206.38
  Q 401.05 205.23 404.78 202.55
  Q 405.55 202.01 411.34 196.08
  C 416.02 191.29 421.32 190.47 428.03 190.16
  C 439.00 189.66 449.80 194.25 456.81 202.81
  C 464.32 211.99 465.82 227.37 465.10 238.61
  Q 464.89 242.01 465.68 243.25
  C 466.84 245.06 468.47 246.54 470.81 246.50
  C 476.80 246.42 477.75 241.01 477.99 235.99
  Q 478.64 222.43 473.91 209.30
  A 0.71 0.71 0.0 0 1 474.52 208.35
  Q 491.10 207.21 504.61 197.37
  Q 515.35 189.55 521.52 179.26
  Q 521.64 179.06 528.89 166.59
  Q 538.48 150.08 550.14 136.74
  A 0.66 0.65 33.8 0 1 550.92 136.59
  Q 552.41 137.35 554.05 138.77
  Q 562.47 146.05 572.02 154.54
  C 587.34 168.17 606.70 177.22 626.46 184.47
  A 0.33 0.33 0.0 0 1 626.45 185.10
  Q 609.28 190.93 604.54 206.99
  C 600.39 221.03 605.37 234.08 613.03 245.74
  Q 632.09 274.75 664.33 285.90
  Q 669.25 287.60 673.49 288.19
  A 0.37 0.36 -70.2 0 1 673.75 288.75
  C 661.49 307.72 636.91 297.41 622.39 288.11
  Q 600.70 274.21 583.31 251.17
  Q 576.87 242.64 574.52 237.46
  Q 567.53 222.03 573.12 204.82
  Q 574.00 202.13 576.79 195.79
  A 2.48 2.40 -34.0 0 0 576.98 194.90
  C 577.01 188.47 569.69 185.78 566.16 191.19
  C 556.45 206.03 555.22 225.26 562.41 241.49
  A 0.56 0.54 -24.4 0 1 562.13 242.21
  Q 553.22 246.27 547.15 249.62
  C 542.02 252.44 537.63 255.19 535.55 259.93
  C 534.53 262.27 534.91 265.27 534.79 267.86
  A 5.78 5.48 55.6 0 1 534.59 269.11
  Q 526.95 297.44 511.39 318.70
  C 495.47 340.45 473.13 358.62 449.27 371.82
  C 439.70 377.12 429.88 382.24 419.48 385.97
  C 416.19 387.15 415.43 389.13 415.34 392.61
  C 415.17 399.01 415.03 409.42 414.42 417.11
  Q 412.43 441.82 406.84 466.42
  A 0.44 0.44 0.0 0 1 406.27 466.74
  L 384.83 459.65
  A 0.82 0.81 -74.4 0 1 384.30 458.69
  Q 386.21 450.68 385.02 443.14
  A 0.26 0.25 -67.1 0 1 385.48 442.95
  Q 388.85 447.82 391.49 453.41
  Q 393.65 458.00 398.44 456.78
  C 402.27 455.80 406.15 442.76 406.84 439.11
  Q 410.95 417.39 397.89 401.56
  C 391.94 394.35 383.17 389.04 374.19 386.82
  Q 367.49 385.16 360.12 383.34
  C 354.67 382.00 348.88 379.55 345.61 374.88
  Q 335.72 360.75 325.35 346.15
  A 2.71 2.69 36.5 0 1 324.98 343.73
  L 329.58 329.82
  A 0.48 0.47 -47.4 0 1 330.47 329.78
  C 340.22 353.28 361.87 372.62 387.64 375.27
  C 395.63 376.09 399.57 364.96 390.96 363.02
  C 384.01 361.45 378.31 360.11 372.51 357.02
  Q 362.86 351.87 354.70 343.38
  C 346.97 335.33 341.61 324.15 338.59 313.50
  A 2.63 2.58 52.2 0 1 338.82 311.53
  L 346.55 297.48
  Z"
/>
<path d="
  M 336.78 203.38
  A 0.16 0.16 0.0 0 1 336.68 203.63
  L 309.00 209.00
  A 0.84 0.84 0.0 0 1 308.09 208.54
  Q 294.37 180.33 279.96 154.80
  Q 276.45 148.59 273.11 143.58
  A 0.25 0.25 0.0 0 1 273.44 143.22
  C 299.42 156.42 320.63 179.03 336.78 203.38
  Z"
/>
<path d="
  M 219.20 201.87
  L 248.67 221.40
  A 0.38 0.38 0.0 0 1 248.53 222.09
  L 234.11 224.89
  A 0.38 0.38 0.0 0 1 233.72 224.73
  L 218.68 202.39
  A 0.38 0.38 0.0 0 1 219.20 201.87
  Z"
/>
<path d="
  M 323.45 272.00
  L 347.65 269.13
  A 0.31 0.31 0.0 0 1 347.95 269.60
  L 335.12 290.31
  A 0.31 0.31 0.0 0 1 334.60 290.32
  L 323.23 272.47
  A 0.31 0.31 0.0 0 1 323.45 272.00
  Z"
/>
<path d="
  M 845.05 328.36
  A 0.30 0.30 0.0 0 1 844.66 328.69
  C 827.79 322.89 806.51 321.77 790.26 330.33
  Q 780.36 335.54 774.58 340.85
  Q 765.98 348.77 756.32 353.09
  Q 654.73 398.52 616.21 414.67
  C 606.72 418.64 593.89 415.39 587.18 407.60
  Q 580.72 400.10 573.43 389.58
  Q 549.93 355.68 526.45 319.94
  A 0.61 0.59 45.2 0 1 526.44 319.27
  Q 537.42 302.51 543.48 283.64
  A 0.23 0.22 -51.3 0 1 543.89 283.59
  Q 548.51 291.52 553.49 299.50
  Q 578.56 339.67 606.14 382.63
  C 609.54 387.92 612.65 386.86 618.11 384.65
  Q 678.45 360.31 726.88 339.90
  Q 727.86 339.48 735.17 335.73
  C 743.73 331.33 749.44 324.45 754.00 315.76
  Q 757.89 308.34 762.60 300.10
  C 774.80 278.77 801.63 272.16 824.79 274.03
  Q 833.45 274.73 842.39 278.52
  A 0.14 0.13 50.4 0 1 842.37 278.78
  Q 826.84 281.78 810.61 288.15
  C 797.60 293.26 785.57 301.46 777.01 310.73
  C 773.28 314.77 774.99 320.53 780.72 320.78
  C 783.45 320.90 788.16 317.03 789.71 315.92
  A 10.22 10.13 20.0 0 1 793.23 314.30
  C 810.60 310.09 831.01 317.44 844.75 328.00
  Q 845.02 328.21 845.05 328.36
  Z"
/>
<path d="
  M 619.71 728.58
  A 0.30 0.29 64.9 0 1 619.52 729.11
  Q 609.99 728.73 601.84 729.26
  Q 589.54 730.05 584.59 730.21
  Q 571.96 730.63 556.16 733.11
  C 548.13 734.37 550.33 745.09 557.87 744.52
  C 575.60 743.17 595.46 748.81 606.16 764.18
  A 0.14 0.14 0.0 0 1 605.99 764.38
  Q 592.29 758.63 576.71 757.14
  C 560.94 755.62 547.12 757.46 528.51 759.52
  C 517.35 760.75 505.59 758.89 493.31 755.74
  Q 476.26 751.35 456.46 745.58
  A 1.81 1.80 -79.5 0 1 455.16 743.68
  Q 455.32 741.79 455.74 740.51
  C 462.72 719.20 468.86 699.33 475.39 675.18
  Q 489.98 621.23 502.99 574.99
  Q 504.40 569.98 503.71 567.98
  Q 502.58 564.68 498.33 563.48
  C 473.92 556.61 443.45 549.00 413.94 543.23
  Q 370.59 534.75 350.77 531.71
  Q 329.07 528.39 302.38 523.65
  Q 291.04 521.64 282.27 516.85
  C 269.76 510.02 264.45 496.81 264.11 482.99
  Q 263.94 476.05 264.21 467.14
  Q 264.36 462.18 263.26 460.66
  C 259.87 456.00 252.69 458.01 252.02 463.81
  Q 250.03 481.06 252.98 497.10
  A 0.72 0.72 0.0 0 1 252.61 497.87
  L 221.04 514.84
  A 1.06 1.06 0.0 0 1 219.59 514.37
  Q 215.49 505.97 213.79 503.11
  Q 210.87 498.21 205.91 500.90
  C 201.58 503.25 202.43 506.77 204.41 510.91
  Q 206.98 516.26 208.85 520.93
  A 0.91 0.90 64.3 0 1 208.46 522.06
  L 184.65 535.81
  A 0.59 0.59 0.0 0 1 183.82 535.55
  Q 182.33 532.36 180.36 528.98
  Q 177.20 523.54 171.02 526.58
  Q 166.62 528.74 168.50 533.47
  Q 170.22 537.82 173.27 542.06
  A 0.72 0.72 0.0 0 1 173.06 543.11
  C 142.50 561.91 113.09 583.70 89.50 610.20
  C 61.94 641.16 40.76 685.90 47.07 728.48
  Q 49.39 744.15 58.50 757.84
  A 1.28 1.28 0.0 0 1 58.51 759.25
  Q 53.75 766.66 46.77 772.05
  A 0.56 0.56 0.0 0 1 45.97 771.95
  Q 21.90 740.07 22.33 699.99
  C 22.87 650.60 51.83 608.64 85.40 575.14
  Q 99.43 561.14 108.78 553.05
  Q 123.80 540.05 154.25 516.25
  Q 160.24 511.57 179.73 495.47
  Q 194.76 483.06 207.25 471.25
  C 240.39 439.92 262.58 419.14 287.97 391.95
  A 0.23 0.22 -42.7 0 1 288.31 391.96
  Q 297.04 402.80 303.57 411.39
  C 311.14 421.35 317.40 431.76 316.92 444.28
  A 0.60 0.60 0.0 0 1 316.00 444.76
  Q 310.63 441.29 306.34 437.92
  C 300.68 433.48 294.48 438.32 296.84 444.92
  Q 297.43 446.58 300.25 448.93
  C 303.79 451.86 307.62 454.68 311.71 456.05
  A 0.48 0.46 24.7 0 1 311.97 456.73
  C 307.05 465.20 300.42 471.51 292.86 478.08
  Q 291.93 478.89 291.10 481.24
  C 289.60 485.46 292.07 489.39 296.40 490.14
  C 313.48 493.09 333.55 484.96 343.97 471.84
  C 346.19 469.05 348.26 466.57 349.44 463.19
  A 0.33 0.33 0.0 0 1 350.08 463.29
  Q 350.43 474.45 351.38 488.31
  C 351.53 490.53 352.21 493.37 354.18 494.57
  C 358.01 496.90 362.47 493.89 365.59 491.09
  Q 374.38 483.24 379.33 472.52
  A 0.37 0.36 20.3 0 1 379.78 472.32
  Q 426.50 488.10 480.67 508.14
  Q 501.15 515.71 535.41 530.09
  Q 543.76 533.59 548.47 538.98
  C 555.67 547.22 553.58 555.75 550.30 565.02
  Q 525.93 633.96 517.90 654.64
  Q 509.23 676.97 500.14 701.37
  Q 496.82 710.29 494.80 717.50
  C 492.80 724.66 500.37 726.42 505.78 727.80
  Q 520.60 731.57 535.01 729.24
  C 548.20 727.11 563.62 723.27 578.99 721.28
  C 592.26 719.56 608.95 720.30 619.71 728.58
  Z"
/>
<ellipse cx="0.00" cy="0.00" transform="translate(252.03,408.24) rotate(-167.4)" rx="1.32" ry="0.60"/>
<path d="
  M 223.44 439.07
  Q 223.33 439.21 223.30 439.23
  A 0.86 0.86 0.0 0 1 222.09 439.08
  Q 221.10 437.81 221.42 437.42
  Q 221.74 437.03 223.18 437.75
  A 0.86 0.86 0.0 0 1 223.57 438.90
  Q 223.55 438.93 223.44 439.07
  Z"
/>
<path d="
  M 188.18 470.11
  Q 187.81 469.80 188.16 468.97
  A 0.76 0.76 0.0 0 1 188.88 468.50
  Q 189.56 468.51 189.72 469.13
  A 0.96 0.95 -77.3 0 1 188.18 470.11
  Z"
/>
<path d="
  M 153.76 500.54
  A 0.25 0.25 0.0 0 1 153.41 500.55
  L 153.29 500.43
  A 2.88 1.13 44.1 0 1 152.01 497.61
  A 2.88 1.13 44.1 0 1 154.86 498.80
  L 154.98 498.92
  A 0.25 0.25 0.0 0 1 154.99 499.28
  L 153.76 500.54
  Z"
/>
<path d="
  M 113.86 775.54
  Q 114.23 774.72 114.75 772.02
  Q 118.47 752.80 118.08 734.00
  Q 118.01 730.88 117.05 729.64
  C 114.85 726.83 110.12 727.33 108.22 730.25
  C 106.10 733.51 105.13 737.72 103.60 740.96
  Q 91.29 767.05 65.56 782.08
  C 62.38 783.94 57.62 786.01 54.33 783.83
  A 0.71 0.70 42.7 0 1 54.28 782.69
  Q 63.11 775.73 70.10 765.58
  C 84.37 744.85 92.10 724.72 104.33 696.31
  Q 108.48 686.67 111.03 682.07
  Q 112.64 679.17 116.13 677.87
  Q 120.66 676.20 175.85 655.62
  C 192.83 649.29 218.81 640.22 232.45 635.46
  Q 236.15 634.17 237.81 631.56
  A 2.16 1.97 -23.9 0 0 238.06 630.99
  L 268.97 523.42
  A 0.31 0.30 30.3 0 1 269.48 523.29
  Q 271.39 525.18 274.14 526.86
  Q 283.36 532.46 294.98 535.03
  Q 309.22 538.18 323.97 540.81
  A 0.44 0.44 0.0 0 1 324.30 541.42
  Q 314.66 564.13 306.80 581.80
  Q 289.47 620.77 273.57 652.03
  Q 269.39 660.26 261.48 664.21
  Q 257.12 666.40 251.54 668.01
  Q 189.07 686.00 152.67 697.09
  C 148.85 698.26 144.89 699.09 141.82 700.59
  Q 138.54 702.20 137.62 706.16
  C 136.48 711.05 135.60 715.09 134.81 720.68
  Q 130.73 749.42 115.69 773.69
  Q 114.66 775.34 114.23 775.80
  A 0.23 0.23 0.0 0 1 113.86 775.54
  Z"
/>
<path d="
  M 116.18 527.65
  L 117.95 528.15
  A 0.61 0.61 0.0 0 1 118.23 529.15
  Q 117.70 529.74 116.97 529.65
  Q 116.48 529.59 116.06 528.83
  Q 115.81 528.37 115.72 528.19
  A 0.39 0.39 0.0 0 1 116.18 527.65
  Z"
/>
<path d="
  M 317.57 734.07
  A 0.22 0.21 48.1 0 1 317.86 734.09
  L 317.86 734.10
  A 0.16 0.16 0.0 0 1 317.87 734.31
  Q 303.35 751.16 281.25 767.49
  Q 241.04 797.20 193.84 809.04
  Q 168.10 815.50 142.01 814.75
  C 116.23 814.01 92.05 807.75 70.08 794.50
  A 0.22 0.21 45.4 0 1 70.08 794.13
  Q 78.87 789.28 87.05 782.40
  A 2.14 2.12 39.9 0 1 89.49 782.19
  L 95.88 785.88
  A 0.52 0.51 27.9 0 1 96.09 786.55
  Q 95.51 787.77 92.63 795.38
  C 91.85 797.46 91.11 800.46 92.49 802.36
  Q 95.54 806.55 100.53 804.51
  Q 109.72 800.75 116.54 793.52
  A 1.56 1.55 27.1 0 1 117.98 793.06
  Q 132.99 796.06 148.94 796.89
  Q 162.87 797.61 180.02 795.45
  Q 208.15 791.90 237.06 780.83
  Q 281.49 763.81 317.57 734.07
  Z"
/>
</g>
<path fill="#0c5390" d="
  M 0.00 695.50
  L 0.00 691.04
  Q 2.12 687.40 5.76 685.61
  C 7.18 684.91 8.62 685.14 10.07 684.79
  A 0.92 0.91 -3.6 0 0 10.77 684.00
  Q 12.51 667.44 18.96 651.03
  A 1.84 1.83 33.5 0 0 18.55 649.05
  C 15.13 645.66 12.64 643.76 11.96 639.45
  A 2.21 2.20 -42.1 0 1 12.01 638.50
  Q 14.24 630.19 23.26 631.07
  Q 24.67 631.21 25.58 631.78
  A 1.26 1.26 0.0 0 0 27.38 631.26
  Q 32.58 620.40 40.29 609.57
  Q 42.17 606.93 40.07 604.18
  C 37.28 600.51 34.81 595.97 36.49 591.09
  A 3.02 2.97 72.8 0 1 36.92 590.26
  Q 38.99 587.40 42.73 586.23
  C 45.40 585.39 49.93 586.95 52.90 587.21
  C 53.65 587.28 54.62 588.09 55.25 587.88
  Q 55.72 587.72 56.09 587.39
  C 59.84 584.08 62.87 579.66 66.14 576.37
  Q 70.24 572.27 72.13 570.37
  Q 74.45 568.03 72.95 564.88
  C 71.37 561.56 69.12 558.42 68.86 554.66
  A 2.85 2.82 51.0 0 1 68.96 553.66
  Q 71.51 544.84 81.01 547.55
  Q 86.01 548.98 89.95 550.07
  A 1.95 1.94 43.4 0 0 91.06 550.04
  Q 93.63 549.22 95.15 547.89
  Q 101.32 542.47 105.03 539.46
  A 3.09 3.08 -32.8 0 0 105.85 535.69
  C 103.74 531.47 102.58 529.15 101.99 525.06
  C 101.36 520.74 103.41 516.80 107.28 514.77
  Q 109.50 513.61 111.75 513.97
  C 115.60 514.60 121.83 517.58 127.48 518.98
  A 4.28 4.27 -56.7 0 0 131.12 518.22
  Q 136.79 513.85 139.92 511.44
  Q 142.15 509.72 142.98 507.98
  A 1.10 1.09 44.7 0 0 142.97 507.00
  Q 139.18 499.40 138.84 490.74
  Q 138.69 487.23 141.06 484.32
  C 144.43 480.17 150.18 482.00 153.94 484.31
  C 157.23 486.33 162.20 488.97 165.76 489.11
  Q 167.11 489.17 169.26 487.75
  Q 169.41 487.66 178.25 480.40
  A 0.95 0.95 0.0 0 0 178.58 479.48
  C 177.45 474.09 175.22 469.06 174.88 462.76
  C 174.61 457.95 176.02 453.31 180.77 452.19
  C 184.35 451.35 191.53 456.61 195.00 458.99
  Q 196.56 460.05 199.81 460.85
  A 1.26 1.25 29.3 0 0 201.00 460.52
  L 212.31 449.20
  A 0.93 0.93 0.0 0 0 212.53 448.20
  Q 212.24 447.42 210.12 443.22
  Q 207.07 437.20 208.25 428.57
  A 3.33 3.29 63.1 0 1 208.59 427.51
  C 210.36 424.06 214.00 422.42 217.76 423.71
  C 222.94 425.50 227.89 427.58 231.87 428.70
  A 2.54 2.53 -58.1 0 0 234.28 428.13
  Q 235.88 426.68 238.08 424.52
  C 241.31 421.34 243.73 419.34 240.92 415.07
  Q 237.21 409.45 235.90 406.89
  C 232.36 400.00 238.19 395.66 244.76 395.93
  Q 251.93 396.23 254.81 396.70
  A 6.85 6.84 -47.1 0 0 257.55 396.60
  Q 260.59 395.84 264.39 396.11
  A 4.64 4.63 20.4 0 0 268.41 394.27
  Q 273.77 387.11 280.56 381.15
  A 0.51 0.50 51.0 0 0 280.63 380.46
  Q 271.55 368.58 264.46 358.61
  Q 230.11 310.27 204.89 272.36
  Q 203.51 270.30 202.09 267.89
  C 192.53 251.65 200.06 234.66 217.18 229.04
  A 1.21 1.20 70.8 0 0 217.93 227.48
  Q 217.62 226.64 216.70 225.16
  Q 211.67 217.03 197.61 197.62
  Q 194.63 193.50 194.68 188.36
  C 194.73 182.40 201.65 179.90 206.59 181.19
  Q 215.11 183.43 224.17 188.61
  C 237.30 196.13 246.53 202.71 261.07 212.92
  Q 263.74 214.78 267.24 216.66
  A 4.46 4.41 53.3 0 0 270.21 217.11
  L 291.60 212.96
  A 1.69 1.68 75.3 0 0 292.87 210.76
  C 291.34 206.31 289.14 202.84 287.16 199.00
  Q 271.64 168.86 252.87 135.87
  Q 251.59 133.63 252.04 129.87
  C 252.55 125.66 256.78 122.24 260.69 122.86
  C 266.06 123.72 272.16 126.09 277.20 128.69
  C 307.09 144.03 330.61 168.69 348.65 196.59
  Q 350.60 199.60 352.56 200.96
  A 0.86 0.84 -40.3 0 0 353.43 201.02
  Q 354.90 200.29 356.74 199.96
  Q 378.87 196.00 392.40 193.52
  A 5.32 4.96 28.6 0 0 393.18 193.32
  Q 395.93 192.39 400.38 188.11
  Q 412.64 176.37 430.50 177.29
  C 441.51 177.85 454.43 182.11 462.54 190.07
  C 466.01 193.47 467.79 196.68 472.47 196.18
  Q 500.34 193.17 512.90 168.44
  A 0.82 0.81 39.0 0 0 512.80 167.54
  C 501.11 153.61 482.28 145.37 464.73 142.05
  Q 450.56 139.37 438.50 138.46
  Q 408.16 136.19 397.69 135.07
  Q 389.18 134.15 379.23 131.56
  C 359.27 126.37 337.97 113.71 331.63 92.47
  Q 326.26 74.46 336.45 57.33
  Q 342.93 46.45 354.74 37.71
  Q 368.05 27.85 383.25 21.53
  Q 423.92 4.62 467.27 1.65
  Q 479.55 0.81 497.25 1.03
  Q 515.08 1.24 530.25 3.25
  C 557.93 6.93 584.39 13.71 610.94 23.59
  Q 655.32 40.12 691.36 70.64
  C 707.49 84.30 721.83 100.90 730.61 119.37
  Q 734.82 128.24 738.08 140.32
  C 741.92 154.54 741.84 170.88 740.03 186.02
  C 739.24 192.65 738.16 199.29 731.74 203.22
  A 5.00 4.97 -6.1 0 0 729.65 205.79
  Q 724.37 220.44 713.81 231.79
  C 709.78 236.12 702.48 234.21 701.40 228.52
  Q 700.21 222.28 698.70 217.36
  A 0.42 0.42 0.0 0 0 697.94 217.26
  C 694.80 222.23 688.58 229.57 682.80 230.81
  A 2.42 2.41 -41.7 0 1 681.56 230.74
  C 674.89 228.49 674.97 221.47 673.72 216.02
  Q 673.31 214.25 673.02 213.64
  A 1.24 1.23 -37.7 0 0 670.97 213.38
  C 667.02 218.04 659.10 225.93 653.16 219.91
  C 651.13 217.85 651.04 216.45 650.41 213.89
  Q 647.99 204.15 647.87 195.69
  A 0.61 0.60 -88.5 0 0 647.31 195.09
  C 638.70 194.34 628.85 195.77 622.60 201.70
  C 614.45 209.43 614.19 221.22 618.87 230.85
  Q 620.08 233.36 627.65 244.44
  A 0.92 0.91 67.7 0 0 628.54 244.82
  C 629.35 244.68 629.64 243.95 630.34 243.52
  Q 636.96 239.43 643.97 235.57
  Q 647.10 233.84 651.03 236.01
  C 654.81 238.10 655.66 241.80 654.43 245.92
  Q 653.82 247.99 653.89 250.60
  A 1.09 1.09 0.0 0 0 655.56 251.50
  Q 658.96 249.37 663.56 247.31
  Q 665.30 246.52 667.66 247.36
  C 672.80 249.18 674.30 254.48 672.36 259.45
  A 0.54 0.54 0.0 0 0 673.19 260.08
  Q 677.55 256.84 682.52 256.48
  A 2.83 2.62 -36.6 0 1 683.45 256.58
  C 687.38 257.66 688.97 259.79 689.72 263.84
  C 690.77 269.54 690.33 274.68 689.46 280.48
  Q 688.13 289.39 682.45 297.46
  C 667.33 318.96 639.77 313.22 620.65 302.08
  Q 604.36 292.58 591.39 279.85
  Q 582.88 271.50 570.90 256.29
  Q 570.50 255.78 570.00 254.88
  Q 569.07 253.18 567.10 254.09
  Q 554.39 259.91 548.93 263.66
  C 547.01 264.98 548.13 266.34 549.03 267.80
  Q 581.60 320.56 613.72 371.31
  A 1.38 1.37 -27.0 0 0 615.40 371.85
  Q 672.63 348.61 717.59 329.88
  Q 720.40 328.71 725.25 326.40
  Q 730.74 323.78 732.63 322.41
  Q 736.06 319.95 739.71 314.47
  Q 742.39 310.47 748.23 299.93
  Q 754.10 289.36 757.15 285.68
  C 767.41 273.31 781.42 265.17 797.49 262.29
  Q 801.79 261.52 802.57 261.46
  Q 817.33 260.32 826.50 261.21
  Q 837.43 262.26 849.88 267.96
  C 853.40 269.57 856.39 272.03 859.74 274.07
  Q 862.94 276.02 864.11 278.09
  C 865.68 280.86 865.60 285.89 862.58 287.75
  Q 859.93 289.38 855.25 290.01
  C 845.80 291.27 837.48 292.72 829.16 295.48
  Q 821.08 298.15 816.37 299.68
  Q 815.25 300.05 815.12 299.99
  Q 814.53 299.76 814.36 299.95
  A 0.48 0.48 0.0 0 0 814.57 300.72
  Q 818.11 301.91 822.61 302.96
  Q 827.65 304.14 830.44 305.17
  Q 849.46 312.17 862.88 328.89
  Q 865.99 332.75 867.21 335.54
  C 870.37 342.73 864.59 348.53 857.36 346.13
  Q 850.64 343.91 839.03 340.27
  Q 829.52 337.29 818.03 337.05
  Q 800.63 336.68 786.83 347.60
  C 780.61 352.52 773.38 359.14 765.01 363.01
  C 721.85 382.99 677.92 402.20 628.34 423.44
  Q 618.12 427.82 615.00 428.42
  Q 608.65 429.64 600.72 428.94
  C 586.10 427.66 576.13 416.00 568.08 404.41
  Q 543.60 369.14 518.85 331.73
  A 0.94 0.94 0.0 0 0 517.30 331.69
  Q 513.23 337.27 509.57 341.09
  Q 475.27 376.87 428.72 395.95
  A 1.20 1.20 0.0 0 0 427.97 397.09
  Q 428.03 401.55 427.93 403.75
  Q 426.42 436.33 419.80 466.81
  C 419.45 468.40 418.52 470.05 419.12 471.34
  A 1.58 1.55 -1.3 0 0 419.95 472.12
  Q 423.01 473.32 425.99 474.32
  Q 460.08 485.70 512.06 506.62
  Q 538.62 517.31 541.17 518.34
  C 550.04 521.91 560.42 530.43 564.07 539.96
  C 567.65 549.30 566.26 558.69 562.86 568.12
  C 553.99 592.72 545.63 617.65 536.28 642.41
  Q 525.21 671.76 513.68 701.65
  Q 511.39 707.60 509.93 714.11
  A 1.62 1.62 0.0 0 0 511.21 716.05
  C 522.33 718.15 534.18 716.90 545.00 714.56
  C 561.14 711.07 575.69 707.75 590.96 707.84
  Q 605.91 707.93 615.69 711.93
  Q 627.06 716.58 636.14 726.41
  C 640.46 731.09 642.62 733.95 640.15 739.91
  A 2.06 2.06 0.0 0 1 639.25 740.90
  Q 636.03 742.62 633.33 742.47
  Q 617.45 741.58 601.64 742.02
  A 0.19 0.18 -26.8 0 0 601.53 742.35
  Q 606.70 746.57 607.79 747.47
  Q 620.93 758.30 624.51 774.88
  A 2.56 2.47 -50.3 0 1 624.56 775.55
  C 624.11 782.11 618.50 781.78 613.65 780.08
  Q 602.43 776.17 594.35 773.72
  Q 573.37 767.35 551.51 769.84
  Q 549.12 770.11 532.30 771.76
  Q 521.22 772.85 513.07 771.98
  Q 501.16 770.71 491.59 768.37
  Q 489.02 767.75 456.84 759.23
  Q 450.70 757.60 448.90 756.31
  C 443.93 752.77 441.07 747.05 442.27 740.77
  Q 442.71 738.43 445.71 729.41
  Q 453.70 705.31 459.82 683.36
  Q 461.32 678.01 488.55 578.75
  C 489.26 576.16 489.36 574.50 486.44 573.83
  Q 481.22 572.63 472.18 570.19
  Q 411.50 553.77 345.91 543.56
  C 343.01 543.11 340.78 542.71 337.64 543.10
  A 0.44 0.43 6.2 0 0 337.27 543.39
  Q 335.31 548.86 333.67 552.65
  Q 316.05 593.21 301.63 624.42
  Q 298.52 631.16 286.24 655.74
  Q 279.19 669.83 267.30 675.81
  Q 262.11 678.41 249.95 681.95
  Q 185.88 700.55 150.26 711.25
  A 1.71 1.70 5.1 0 0 149.24 712.10
  C 147.60 715.29 148.13 718.18 147.57 721.30
  Q 144.19 740.05 141.12 748.93
  C 137.15 760.40 133.00 770.53 126.65 779.93
  A 1.20 1.19 -68.3 0 0 127.44 781.78
  Q 160.62 787.31 194.64 780.13
  Q 247.09 769.06 292.52 737.31
  Q 318.90 718.87 339.73 697.65
  C 341.70 695.65 343.90 693.64 346.25 690.75
  Q 348.07 688.50 351.68 687.26
  A 2.95 2.94 -43.6 0 1 353.74 687.31
  C 361.03 690.26 359.20 697.30 356.27 702.53
  C 336.56 737.70 308.34 765.53 273.31 788.01
  Q 235.73 812.12 193.95 821.89
  C 174.24 826.50 155.85 827.45 136.76 826.95
  Q 117.59 826.44 100.28 821.31
  A 1.18 1.16 32.3 0 0 99.18 821.55
  L 95.88 824.37
  A 1.55 1.37 -75.1 0 1 95.58 824.57
  Q 88.69 828.03 83.84 821.78
  A 0.91 0.90 21.0 0 1 83.67 821.40
  L 82.76 816.69
  A 2.12 2.09 -76.4 0 0 82.04 815.49
  Q 79.90 813.73 78.07 812.90
  Q 65.19 807.09 55.49 800.09
  A 4.11 4.08 65.4 0 0 53.44 799.32
  Q 40.87 798.23 37.77 797.22
  Q 35.86 796.61 33.65 795.74
  A 3.64 3.55 -14.7 0 1 32.68 795.19
  Q 25.99 790.02 31.15 782.86
  Q 33.37 779.78 34.06 777.66
  A 1.06 1.05 35.7 0 0 33.90 776.70
  Q 25.84 766.31 20.61 753.20
  A 1.53 1.51 -6.3 0 0 19.41 752.25
  Q 13.06 751.32 9.12 746.13
  C 4.58 740.16 8.28 735.73 12.75 731.69
  A 1.12 1.11 62.0 0 0 13.08 730.58
  Q 9.97 718.69 9.94 707.48
  A 2.72 2.72 0.0 0 0 8.32 705.01
  Q 1.94 702.22 0.00 695.50
  Z
  M 392.76 99.03
  Q 383.91 99.17 376.46 99.04
  Q 372.06 98.96 370.53 97.82
  C 366.54 94.80 366.57 88.68 370.81 86.45
  Q 372.64 85.50 378.01 85.50
  Q 409.08 85.55 433.25 85.71
  C 462.22 85.90 491.06 90.72 518.09 101.75
  Q 534.24 108.34 546.57 116.23
  Q 552.40 119.96 561.19 127.76
  Q 577.79 142.47 582.01 146.00
  Q 593.40 155.53 608.79 162.97
  Q 646.31 181.11 687.50 187.74
  C 699.36 189.65 712.81 191.82 724.91 189.16
  A 1.28 1.28 0.0 0 0 725.89 188.12
  C 728.35 172.94 728.55 156.66 724.40 142.05
  C 717.00 116.01 700.33 95.19 678.97 78.04
  Q 649.33 54.23 613.67 39.66
  Q 579.10 25.54 536.40 18.36
  C 516.49 15.02 497.17 14.55 476.88 15.22
  C 451.58 16.06 425.58 21.71 401.92 29.90
  Q 383.73 36.20 369.18 44.94
  C 360.36 50.24 351.04 58.86 346.69 68.25
  C 338.67 85.58 349.87 102.47 364.56 110.72
  Q 379.23 118.97 396.54 120.83
  A 0.22 0.22 0.0 0 0 396.78 120.55
  Q 393.90 110.67 393.48 99.71
  A 0.71 0.71 0.0 0 0 392.76 99.03
  Z
  M 406.13 99.77
  Q 407.47 111.56 410.14 121.71
  A 0.89 0.87 -5.4 0 0 410.94 122.36
  L 424.28 123.18
  A 0.37 0.36 83.3 0 0 424.65 122.71
  Q 421.49 111.85 421.59 99.73
  A 0.65 0.65 0.0 0 0 420.94 99.07
  L 406.75 99.07
  A 0.63 0.62 86.7 0 0 406.13 99.77
  Z
  M 434.10 99.70
  Q 434.81 111.87 438.16 123.60
  A 0.72 0.71 -4.3 0 0 438.76 124.11
  L 452.56 125.75
  A 0.30 0.30 0.0 0 0 452.88 125.37
  Q 449.26 113.22 449.95 100.64
  A 0.43 0.42 4.0 0 0 449.55 100.19
  L 434.52 99.27
  A 0.40 0.40 0.0 0 0 434.10 99.70
  Z
  M 478.44 104.01
  L 463.50 101.57
  A 0.57 0.57 0.0 0 0 462.84 102.12
  Q 462.83 115.03 467.10 126.96
  A 1.14 1.14 0.0 0 0 467.85 127.66
  L 479.38 130.91
  A 0.46 0.46 0.0 0 0 479.96 130.39
  Q 477.90 118.30 478.95 104.66
  A 0.61 0.61 0.0 0 0 478.44 104.01
  Z
  M 491.54 107.45
  Q 490.78 120.96 493.93 133.05
  Q 494.65 135.83 496.46 136.85
  Q 501.71 139.81 505.16 141.97
  A 0.42 0.42 0.0 0 0 505.80 141.66
  Q 507.38 127.55 512.14 114.63
  A 0.93 0.92 19.1 0 0 511.55 113.43
  L 492.18 107.02
  A 0.49 0.49 0.0 0 0 491.54 107.45
  Z
  M 540.41 128.29
  Q 532.59 123.14 524.63 119.51
  A 0.51 0.51 0.0 0 0 523.93 119.81
  Q 519.12 134.37 518.13 149.36
  A 2.20 2.19 -75.4 0 0 519.37 151.49
  Q 522.23 152.87 523.65 150.67
  Q 532.77 136.58 540.46 128.77
  A 0.31 0.31 0.0 0 0 540.41 128.29
  Z
  M 346.55 297.48
  L 338.82 311.53
  A 2.63 2.58 52.2 0 0 338.59 313.50
  C 341.61 324.15 346.97 335.33 354.70 343.38
  Q 362.86 351.87 372.51 357.02
  C 378.31 360.11 384.01 361.45 390.96 363.02
  C 399.57 364.96 395.63 376.09 387.64 375.27
  C 361.87 372.62 340.22 353.28 330.47 329.78
  A 0.48 0.47 -47.4 0 0 329.58 329.82
  L 324.98 343.73
  A 2.71 2.69 36.5 0 0 325.35 346.15
  Q 335.72 360.75 345.61 374.88
  C 348.88 379.55 354.67 382.00 360.12 383.34
  Q 367.49 385.16 374.19 386.82
  C 383.17 389.04 391.94 394.35 397.89 401.56
  Q 410.95 417.39 406.84 439.11
  C 406.15 442.76 402.27 455.80 398.44 456.78
  Q 393.65 458.00 391.49 453.41
  Q 388.85 447.82 385.48 442.95
  A 0.26 0.25 -67.1 0 0 385.02 443.14
  Q 386.21 450.68 384.30 458.69
  A 0.82 0.81 -74.4 0 0 384.83 459.65
  L 406.27 466.74
  A 0.44 0.44 0.0 0 0 406.84 466.42
  Q 412.43 441.82 414.42 417.11
  C 415.03 409.42 415.17 399.01 415.34 392.61
  C 415.43 389.13 416.19 387.15 419.48 385.97
  C 429.88 382.24 439.70 377.12 449.27 371.82
  C 473.13 358.62 495.47 340.45 511.39 318.70
  Q 526.95 297.44 534.59 269.11
  A 5.78 5.48 55.6 0 0 534.79 267.86
  C 534.91 265.27 534.53 262.27 535.55 259.93
  C 537.63 255.19 542.02 252.44 547.15 249.62
  Q 553.22 246.27 562.13 242.21
  A 0.56 0.54 -24.4 0 0 562.41 241.49
  C 555.22 225.26 556.45 206.03 566.16 191.19
  C 569.69 185.78 577.01 188.47 576.98 194.90
  A 2.48 2.40 -34.0 0 1 576.79 195.79
  Q 574.00 202.13 573.12 204.82
  Q 567.53 222.03 574.52 237.46
  Q 576.87 242.64 583.31 251.17
  Q 600.70 274.21 622.39 288.11
  C 636.91 297.41 661.49 307.72 673.75 288.75
  A 0.37 0.36 -70.2 0 0 673.49 288.19
  Q 669.25 287.60 664.33 285.90
  Q 632.09 274.75 613.03 245.74
  C 605.37 234.08 600.39 221.03 604.54 206.99
  Q 609.28 190.93 626.45 185.10
  A 0.33 0.33 0.0 0 0 626.46 184.47
  C 606.70 177.22 587.34 168.17 572.02 154.54
  Q 562.47 146.05 554.05 138.77
  Q 552.41 137.35 550.92 136.59
  A 0.66 0.65 33.8 0 0 550.14 136.74
  Q 538.48 150.08 528.89 166.59
  Q 521.64 179.06 521.52 179.26
  Q 515.35 189.55 504.61 197.37
  Q 491.10 207.21 474.52 208.35
  A 0.71 0.71 0.0 0 0 473.91 209.30
  Q 478.64 222.43 477.99 235.99
  C 477.75 241.01 476.80 246.42 470.81 246.50
  C 468.47 246.54 466.84 245.06 465.68 243.25
  Q 464.89 242.01 465.10 238.61
  C 465.82 227.37 464.32 211.99 456.81 202.81
  C 449.80 194.25 439.00 189.66 428.03 190.16
  C 421.32 190.47 416.02 191.29 411.34 196.08
  Q 405.55 202.01 404.78 202.55
  Q 401.05 205.23 394.62 206.38
  Q 316.06 220.49 232.99 238.76
  Q 224.69 240.59 219.67 242.60
  C 208.56 247.04 209.67 256.68 215.26 264.99
  Q 242.34 305.26 273.14 348.63
  Q 291.23 374.09 308.65 396.34
  C 316.27 406.08 322.98 415.68 326.98 426.92
  C 333.43 445.03 326.97 462.78 314.19 475.56
  A 0.25 0.25 0.0 0 0 314.44 475.98
  Q 329.67 471.49 338.43 458.73
  C 341.94 453.61 344.57 447.54 344.85 441.38
  Q 344.99 438.40 345.31 436.05
  C 345.78 432.62 349.48 428.97 353.24 430.35
  Q 355.87 431.31 356.54 433.23
  C 359.86 442.68 361.91 451.61 362.50 462.06
  Q 362.97 470.27 363.07 475.18
  A 0.36 0.35 61.8 0 0 363.72 475.38
  Q 378.75 453.03 369.74 427.86
  C 368.54 424.50 366.04 420.79 365.00 418.02
  C 362.98 412.65 367.67 407.51 372.99 410.53
  Q 373.63 410.90 377.22 414.44
  Q 386.79 423.87 394.99 435.94
  A 0.50 0.50 0.0 0 0 395.90 435.68
  C 396.06 431.80 396.23 427.07 395.41 423.19
  Q 391.91 406.62 375.30 400.43
  C 370.08 398.49 359.80 397.34 353.05 394.77
  C 345.03 391.73 339.10 388.10 334.40 381.35
  C 324.16 366.65 314.23 352.64 305.20 339.27
  Q 289.41 315.90 262.70 275.83
  Q 261.29 273.72 261.40 271.48
  Q 261.60 267.32 265.84 266.76
  Q 305.14 261.52 319.73 259.58
  Q 383.96 251.07 421.50 246.23
  C 428.36 245.34 431.00 254.33 425.50 257.93
  Q 423.74 259.09 419.77 259.47
  Q 413.39 260.07 411.99 260.19
  A 0.46 0.46 0.0 0 0 411.62 260.87
  Q 423.24 282.87 445.94 292.79
  Q 454.96 296.74 462.14 296.79
  Q 469.49 296.85 472.26 296.96
  Q 477.35 297.17 478.01 302.29
  C 478.63 307.09 475.30 309.80 470.56 310.14
  Q 456.77 311.11 446.14 307.41
  Q 412.58 295.75 397.61 262.73
  A 0.73 0.72 74.3 0 0 396.87 262.31
  L 385.09 263.81
  A 0.38 0.38 0.0 0 0 384.75 264.23
  C 386.32 278.35 392.59 293.33 402.58 303.28
  C 415.85 316.49 434.43 322.91 453.88 320.58
  Q 457.70 320.12 459.07 320.83
  C 464.90 323.81 462.88 331.94 456.98 333.44
  Q 455.26 333.88 453.23 334.08
  Q 435.07 335.88 418.65 329.51
  C 391.45 318.94 374.80 295.40 371.82 266.07
  A 0.64 0.63 -86.8 0 0 371.33 265.52
  Q 369.32 265.08 368.12 266.46
  Q 362.68 272.69 356.51 281.35
  A 1.54 1.53 -33.9 0 0 356.26 282.60
  C 360.45 301.15 368.98 319.12 383.52 330.73
  Q 403.28 346.52 428.99 344.12
  C 434.23 343.63 436.90 347.65 435.05 352.60
  C 433.79 355.98 428.59 357.27 425.50 357.60
  C 415.01 358.69 402.58 356.49 392.58 352.07
  C 369.59 341.92 353.84 321.59 346.72 297.50
  A 0.09 0.09 0.0 0 0 346.55 297.48
  Z
  M 336.78 203.38
  C 320.63 179.03 299.42 156.42 273.44 143.22
  A 0.25 0.25 0.0 0 0 273.11 143.58
  Q 276.45 148.59 279.96 154.80
  Q 294.37 180.33 308.09 208.54
  A 0.84 0.84 0.0 0 0 309.00 209.00
  L 336.68 203.63
  A 0.16 0.16 0.0 0 0 336.78 203.38
  Z
  M 660.87 198.24
  L 660.87 203.97
  A 0.74 0.74 0.0 0 0 662.13 204.49
  L 666.80 199.82
  A 0.87 0.87 0.0 0 0 666.42 198.36
  Q 664.60 197.85 661.25 197.11
  A 0.69 0.67 85.8 0 0 660.49 198.02
  Q 660.50 198.06 660.74 198.10
  A 0.15 0.14 4.8 0 1 660.87 198.24
  Z
  M 219.20 201.87
  A 0.38 0.38 0.0 0 0 218.68 202.39
  L 233.72 224.73
  A 0.38 0.38 0.0 0 0 234.11 224.89
  L 248.53 222.09
  A 0.38 0.38 0.0 0 0 248.67 221.40
  L 219.20 201.87
  Z
  M 685.16 211.36
  A 0.81 0.81 0.0 0 0 686.56 211.67
  L 692.75 204.39
  A 0.81 0.81 0.0 0 0 692.23 203.06
  L 683.75 202.12
  A 0.81 0.81 0.0 0 0 682.88 203.15
  L 685.16 211.36
  Z
  M 714.81 208.19
  A 0.88 0.88 0.0 0 0 714.02 206.89
  L 709.91 206.96
  A 1.16 1.16 0.0 0 0 708.81 208.44
  L 710.33 213.72
  A 0.73 0.73 0.0 0 0 711.66 213.87
  L 714.81 208.19
  Z
  M 642.16 251.87
  A 0.87 0.87 0.0 0 0 640.85 251.12
  L 637.32 253.16
  A 1.15 1.15 0.0 0 0 637.08 254.97
  L 640.93 258.82
  A 0.72 0.72 0.0 0 0 642.16 258.31
  L 642.16 251.87
  Z
  M 660.01 269.28
  L 660.35 263.74
  A 0.59 0.58 80.0 0 0 659.53 263.16
  Q 657.40 264.10 655.27 266.10
  A 1.16 1.16 0.0 0 0 655.28 267.80
  Q 656.72 269.14 659.10 269.91
  A 0.70 0.70 0.0 0 0 660.01 269.28
  Z
  M 323.45 272.00
  A 0.31 0.31 0.0 0 0 323.23 272.47
  L 334.60 290.32
  A 0.31 0.31 0.0 0 0 335.12 290.31
  L 347.95 269.60
  A 0.31 0.31 0.0 0 0 347.65 269.13
  L 323.45 272.00
  Z
  M 677.01 272.65
  L 673.71 274.56
  A 0.51 0.51 0.0 0 0 673.52 275.26
  L 673.62 275.44
  A 2.60 2.42 59.9 0 0 677.02 276.48
  A 2.60 2.42 59.9 0 0 677.81 273.01
  L 677.71 272.83
  A 0.51 0.51 0.0 0 0 677.01 272.65
  Z
  M 845.05 328.36
  Q 845.02 328.21 844.75 328.00
  C 831.01 317.44 810.60 310.09 793.23 314.30
  A 10.22 10.13 20.0 0 0 789.71 315.92
  C 788.16 317.03 783.45 320.90 780.72 320.78
  C 774.99 320.53 773.28 314.77 777.01 310.73
  C 785.57 301.46 797.60 293.26 810.61 288.15
  Q 826.84 281.78 842.37 278.78
  A 0.14 0.13 50.4 0 0 842.39 278.52
  Q 833.45 274.73 824.79 274.03
  C 801.63 272.16 774.80 278.77 762.60 300.10
  Q 757.89 308.34 754.00 315.76
  C 749.44 324.45 743.73 331.33 735.17 335.73
  Q 727.86 339.48 726.88 339.90
  Q 678.45 360.31 618.11 384.65
  C 612.65 386.86 609.54 387.92 606.14 382.63
  Q 578.56 339.67 553.49 299.50
  Q 548.51 291.52 543.89 283.59
  A 0.23 0.22 -51.3 0 0 543.48 283.64
  Q 537.42 302.51 526.44 319.27
  A 0.61 0.59 45.2 0 0 526.45 319.94
  Q 549.93 355.68 573.43 389.58
  Q 580.72 400.10 587.18 407.60
  C 593.89 415.39 606.72 418.64 616.21 414.67
  Q 654.73 398.52 756.32 353.09
  Q 765.98 348.77 774.58 340.85
  Q 780.36 335.54 790.26 330.33
  C 806.51 321.77 827.79 322.89 844.66 328.69
  A 0.30 0.30 0.0 0 0 845.05 328.36
  Z
  M 315.81 330.38
  Q 321.04 316.67 326.86 305.11
  A 1.56 1.55 -42.6 0 0 326.92 303.87
  C 326.38 302.48 325.32 300.06 324.58 298.80
  Q 323.00 296.14 310.36 275.99
  Q 308.85 273.60 306.67 273.95
  Q 294.09 275.97 282.33 277.12
  Q 280.82 277.27 280.59 278.24
  Q 280.37 279.16 281.26 280.48
  Q 298.99 306.86 314.66 330.51
  A 0.65 0.65 0.0 0 0 315.81 330.38
  Z
  M 619.71 728.58
  C 608.95 720.30 592.26 719.56 578.99 721.28
  C 563.62 723.27 548.20 727.11 535.01 729.24
  Q 520.60 731.57 505.78 727.80
  C 500.37 726.42 492.80 724.66 494.80 717.50
  Q 496.82 710.29 500.14 701.37
  Q 509.23 676.97 517.90 654.64
  Q 525.93 633.96 550.30 565.02
  C 553.58 555.75 555.67 547.22 548.47 538.98
  Q 543.76 533.59 535.41 530.09
  Q 501.15 515.71 480.67 508.14
  Q 426.50 488.10 379.78 472.32
  A 0.37 0.36 20.3 0 0 379.33 472.52
  Q 374.38 483.24 365.59 491.09
  C 362.47 493.89 358.01 496.90 354.18 494.57
  C 352.21 493.37 351.53 490.53 351.38 488.31
  Q 350.43 474.45 350.08 463.29
  A 0.33 0.33 0.0 0 0 349.44 463.19
  C 348.26 466.57 346.19 469.05 343.97 471.84
  C 333.55 484.96 313.48 493.09 296.40 490.14
  C 292.07 489.39 289.60 485.46 291.10 481.24
  Q 291.93 478.89 292.86 478.08
  C 300.42 471.51 307.05 465.20 311.97 456.73
  A 0.48 0.46 24.7 0 0 311.71 456.05
  C 307.62 454.68 303.79 451.86 300.25 448.93
  Q 297.43 446.58 296.84 444.92
  C 294.48 438.32 300.68 433.48 306.34 437.92
  Q 310.63 441.29 316.00 444.76
  A 0.60 0.60 0.0 0 0 316.92 444.28
  C 317.40 431.76 311.14 421.35 303.57 411.39
  Q 297.04 402.80 288.31 391.96
  A 0.23 0.22 -42.7 0 0 287.97 391.95
  C 262.58 419.14 240.39 439.92 207.25 471.25
  Q 194.76 483.06 179.73 495.47
  Q 160.24 511.57 154.25 516.25
  Q 123.80 540.05 108.78 553.05
  Q 99.43 561.14 85.40 575.14
  C 51.83 608.64 22.87 650.60 22.33 699.99
  Q 21.90 740.07 45.97 771.95
  A 0.56 0.56 0.0 0 0 46.77 772.05
  Q 53.75 766.66 58.51 759.25
  A 1.28 1.28 0.0 0 0 58.50 757.84
  Q 49.39 744.15 47.07 728.48
  C 40.76 685.90 61.94 641.16 89.50 610.20
  C 113.09 583.70 142.50 561.91 173.06 543.11
  A 0.72 0.72 0.0 0 0 173.27 542.06
  Q 170.22 537.82 168.50 533.47
  Q 166.62 528.74 171.02 526.58
  Q 177.20 523.54 180.36 528.98
  Q 182.33 532.36 183.82 535.55
  A 0.59 0.59 0.0 0 0 184.65 535.81
  L 208.46 522.06
  A 0.91 0.90 64.3 0 0 208.85 520.93
  Q 206.98 516.26 204.41 510.91
  C 202.43 506.77 201.58 503.25 205.91 500.90
  Q 210.87 498.21 213.79 503.11
  Q 215.49 505.97 219.59 514.37
  A 1.06 1.06 0.0 0 0 221.04 514.84
  L 252.61 497.87
  A 0.72 0.72 0.0 0 0 252.98 497.10
  Q 250.03 481.06 252.02 463.81
  C 252.69 458.01 259.87 456.00 263.26 460.66
  Q 264.36 462.18 264.21 467.14
  Q 263.94 476.05 264.11 482.99
  C 264.45 496.81 269.76 510.02 282.27 516.85
  Q 291.04 521.64 302.38 523.65
  Q 329.07 528.39 350.77 531.71
  Q 370.59 534.75 413.94 543.23
  C 443.45 549.00 473.92 556.61 498.33 563.48
  Q 502.58 564.68 503.71 567.98
  Q 504.40 569.98 502.99 574.99
  Q 489.98 621.23 475.39 675.18
  C 468.86 699.33 462.72 719.20 455.74 740.51
  Q 455.32 741.79 455.16 743.68
  A 1.81 1.80 -79.5 0 0 456.46 745.58
  Q 476.26 751.35 493.31 755.74
  C 505.59 758.89 517.35 760.75 528.51 759.52
  C 547.12 757.46 560.94 755.62 576.71 757.14
  Q 592.29 758.63 605.99 764.38
  A 0.14 0.14 0.0 0 0 606.16 764.18
  C 595.46 748.81 575.60 743.17 557.87 744.52
  C 550.33 745.09 548.13 734.37 556.16 733.11
  Q 571.96 730.63 584.59 730.21
  Q 589.54 730.05 601.84 729.26
  Q 609.99 728.73 619.52 729.11
  A 0.30 0.29 64.9 0 0 619.71 728.58
  Z
  M 250.7418 407.9521
  A 1.32 0.60 -167.4 0 0 251.8991 408.8256
  A 1.32 0.60 -167.4 0 0 253.3182 408.5279
  A 1.32 0.60 -167.4 0 0 252.1609 407.6544
  A 1.32 0.60 -167.4 0 0 250.7418 407.9521
  Z
  M 221.42 437.42
  Q 221.10 437.81 222.09 439.08
  A 0.86 0.86 0.0 0 0 223.30 439.23
  Q 223.33 439.21 223.44 439.07
  Q 223.55 438.93 223.57 438.90
  A 0.86 0.86 0.0 0 0 223.18 437.75
  Q 221.74 437.03 221.42 437.42
  Z
  M 188.18 470.11
  A 0.96 0.95 -77.3 0 0 189.72 469.13
  Q 189.56 468.51 188.88 468.50
  A 0.76 0.76 0.0 0 0 188.16 468.97
  Q 187.81 469.80 188.18 470.11
  Z
  M 153.76 500.54
  L 154.99 499.28
  A 0.25 0.25 0.0 0 0 154.98 498.92
  L 154.86 498.80
  A 2.88 1.13 44.1 0 0 152.01 497.61
  A 2.88 1.13 44.1 0 0 153.29 500.43
  L 153.41 500.55
  A 0.25 0.25 0.0 0 0 153.76 500.54
  Z
  M 66.28 746.63
  A 0.40 0.40 0.0 0 0 66.96 746.66
  Q 68.55 744.29 70.02 741.82
  Q 72.19 738.20 78.38 724.68
  Q 80.48 720.10 96.03 684.02
  C 99.01 677.11 102.51 669.95 109.74 666.76
  Q 114.56 664.63 122.52 661.77
  C 139.00 655.85 157.53 648.56 168.00 644.77
  Q 205.35 631.24 225.34 624.66
  A 3.28 3.27 -1.4 0 0 227.46 622.44
  L 258.67 512.03
  A 1.58 1.57 84.2 0 0 256.43 510.20
  Q 210.04 534.46 167.96 561.48
  C 158.79 567.37 148.65 574.60 140.76 580.51
  Q 122.73 594.02 105.18 612.17
  C 83.30 634.80 67.84 660.73 60.85 691.38
  Q 58.50 701.68 58.87 718.48
  Q 59.19 733.50 66.28 746.63
  Z
  M 113.86 775.54
  A 0.23 0.23 0.0 0 0 114.23 775.80
  Q 114.66 775.34 115.69 773.69
  Q 130.73 749.42 134.81 720.68
  C 135.60 715.09 136.48 711.05 137.62 706.16
  Q 138.54 702.20 141.82 700.59
  C 144.89 699.09 148.85 698.26 152.67 697.09
  Q 189.07 686.00 251.54 668.01
  Q 257.12 666.40 261.48 664.21
  Q 269.39 660.26 273.57 652.03
  Q 289.47 620.77 306.80 581.80
  Q 314.66 564.13 324.30 541.42
  A 0.44 0.44 0.0 0 0 323.97 540.81
  Q 309.22 538.18 294.98 535.03
  Q 283.36 532.46 274.14 526.86
  Q 271.39 525.18 269.48 523.29
  A 0.31 0.30 30.3 0 0 268.97 523.42
  L 238.06 630.99
  A 2.16 1.97 -23.9 0 1 237.81 631.56
  Q 236.15 634.17 232.45 635.46
  C 218.81 640.22 192.83 649.29 175.85 655.62
  Q 120.66 676.20 116.13 677.87
  Q 112.64 679.17 111.03 682.07
  Q 108.48 686.67 104.33 696.31
  C 92.10 724.72 84.37 744.85 70.10 765.58
  Q 63.11 775.73 54.28 782.69
  A 0.71 0.70 42.7 0 0 54.33 783.83
  C 57.62 786.01 62.38 783.94 65.56 782.08
  Q 91.29 767.05 103.60 740.96
  C 105.13 737.72 106.10 733.51 108.22 730.25
  C 110.12 727.33 114.85 726.83 117.05 729.64
  Q 118.01 730.88 118.08 734.00
  Q 118.47 752.80 114.75 772.02
  Q 114.23 774.72 113.86 775.54
  Z
  M 115.72 528.19
  Q 115.81 528.37 116.06 528.83
  Q 116.48 529.59 116.97 529.65
  Q 117.70 529.74 118.23 529.15
  A 0.61 0.61 0.0 0 0 117.95 528.15
  L 116.18 527.65
  A 0.39 0.39 0.0 0 0 115.72 528.19
  Z
  M 317.57 734.07
  Q 281.49 763.81 237.06 780.83
  Q 208.15 791.90 180.02 795.45
  Q 162.87 797.61 148.94 796.89
  Q 132.99 796.06 117.98 793.06
  A 1.56 1.55 27.1 0 0 116.54 793.52
  Q 109.72 800.75 100.53 804.51
  Q 95.54 806.55 92.49 802.36
  C 91.11 800.46 91.85 797.46 92.63 795.38
  Q 95.51 787.77 96.09 786.55
  A 0.52 0.51 27.9 0 0 95.88 785.88
  L 89.49 782.19
  A 2.14 2.12 39.9 0 0 87.05 782.40
  Q 78.87 789.28 70.08 794.13
  A 0.22 0.21 45.4 0 0 70.08 794.50
  C 92.05 807.75 116.23 814.01 142.01 814.75
  Q 168.10 815.50 193.84 809.04
  Q 241.04 797.20 281.25 767.49
  Q 303.35 751.16 317.87 734.31
  A 0.16 0.16 0.0 0 0 317.86 734.10
  L 317.86 734.09
  A 0.22 0.21 48.1 0 0 317.57 734.07
  Z
  M 98.75 773.04
  L 99.31 773.07
  A 0.79 0.79 0.0 0 1 99.93 773.45
  Q 100.40 774.28 101.51 774.02
  A 0.71 0.71 0.0 0 0 102.06 773.25
  Q 101.88 771.76 102.68 771.16
  A 0.73 0.72 73.1 0 0 102.96 770.63
  L 103.15 767.58
  A 0.69 0.69 0.0 0 1 103.45 767.05
  Q 104.19 766.53 104.09 765.46
  A 0.43 0.42 62.0 0 0 103.34 765.23
  L 98.10 771.53
  A 0.93 0.92 -68.5 0 0 98.75 773.04
  Z"
/>
<g fill="#ffffff">
<path d="
  M 660.74 198.10
  Q 660.50 198.06 660.49 198.02
  A 0.69 0.67 85.8 0 1 661.25 197.11
  Q 664.60 197.85 666.42 198.36
  A 0.87 0.87 0.0 0 1 666.80 199.82
  L 662.13 204.49
  A 0.74 0.74 0.0 0 1 660.87 203.97
  L 660.87 198.24
  A 0.15 0.14 4.8 0 0 660.74 198.10
  Z"
/>
<path d="
  M 685.16 211.36
  L 682.88 203.15
  A 0.81 0.81 0.0 0 1 683.75 202.12
  L 692.23 203.06
  A 0.81 0.81 0.0 0 1 692.75 204.39
  L 686.56 211.67
  A 0.81 0.81 0.0 0 1 685.16 211.36
  Z"
/>
<path d="
  M 714.81 208.19
  L 711.66 213.87
  A 0.73 0.73 0.0 0 1 710.33 213.72
  L 708.81 208.44
  A 1.16 1.16 0.0 0 1 709.91 206.96
  L 714.02 206.89
  A 0.88 0.88 0.0 0 1 714.81 208.19
  Z"
/>
<path d="
  M 642.16 251.87
  L 642.16 258.31
  A 0.72 0.72 0.0 0 1 640.93 258.82
  L 637.08 254.97
  A 1.15 1.15 0.0 0 1 637.32 253.16
  L 640.85 251.12
  A 0.87 0.87 0.0 0 1 642.16 251.87
  Z"
/>
<path d="
  M 660.01 269.28
  A 0.70 0.70 0.0 0 1 659.10 269.91
  Q 656.72 269.14 655.28 267.80
  A 1.16 1.16 0.0 0 1 655.27 266.10
  Q 657.40 264.10 659.53 263.16
  A 0.59 0.58 80.0 0 1 660.35 263.74
  L 660.01 269.28
  Z"
/>
<path d="
  M 677.01 272.65
  A 0.51 0.51 0.0 0 1 677.71 272.83
  L 677.81 273.01
  A 2.60 2.42 59.9 0 1 677.02 276.48
  A 2.60 2.42 59.9 0 1 673.62 275.44
  L 673.52 275.26
  A 0.51 0.51 0.0 0 1 673.71 274.56
  L 677.01 272.65
  Z"
/>
</g>
</svg>
