<?xml version="1.0" encoding="UTF-8" standalone="no"?>
<!DOCTYPE svg PUBLIC "-//W3C//DTD SVG 1.1//EN" "http://www.w3.org/Graphics/SVG/1.1/DTD/svg11.dtd">
<svg xmlns="http://www.w3.org/2000/svg" version="1.1" viewBox="0.00 0.00 467.00 575.00">
<g fill="var(--art-stroke)">
<path d="
  M 194.45 0.00
  Q 231.99 1.57 260.61 24.87
  C 289.29 48.22 303.45 84.10 295.25 120.51
  C 292.10 134.46 286.83 147.00 278.34 158.10
  Q 268.86 170.50 255.58 179.82
  A 0.60 0.60 0.0 0 0 255.36 180.53
  L 258.71 189.13
  A 1.21 1.21 0.0 0 0 260.49 189.71
  Q 262.30 188.54 266.62 185.59
  Q 267.94 184.69 268.68 181.07
  A 3.74 3.69 69.0 0 1 269.31 179.63
  Q 270.67 177.77 271.35 177.33
  Q 278.61 172.62 289.70 166.50
  C 293.40 164.46 296.42 164.48 299.72 166.94
  L 296.31 169.87
  A 3.98 3.96 -23.9 0 0 294.95 173.37
  C 295.61 178.89 301.18 189.51 308.49 187.43
  Q 311.28 186.64 313.00 187.22
  Q 313.35 192.31 308.21 195.73
  Q 304.87 197.94 293.61 205.12
  Q 289.07 208.02 283.81 206.72
  C 281.59 206.17 280.48 206.56 278.68 207.68
  Q 276.96 208.76 273.44 210.96
  A 1.00 0.99 62.4 0 0 273.06 212.20
  Q 281.51 231.81 287.41 249.09
  Q 292.38 263.66 292.19 278.24
  C 291.99 294.10 283.02 307.37 267.34 311.60
  Q 264.64 312.33 262.89 312.73
  A 9.06 9.05 22.8 0 0 260.19 313.83
  Q 259.24 314.40 257.10 315.81
  C 252.33 318.93 243.90 322.04 238.95 317.99
  Q 235.40 315.09 230.45 316.15
  A 0.64 0.62 -6.4 0 0 229.95 316.76
  L 229.95 332.97
  A 3.73 3.73 0.0 0 0 231.36 335.89
  Q 237.49 340.80 244.24 347.76
  Q 259.93 363.94 273.04 382.05
  Q 275.69 385.70 278.92 389.61
  C 290.21 403.25 292.25 421.92 286.75 438.24
  A 4.24 4.01 57.5 0 0 286.53 439.38
  Q 286.15 447.56 286.32 449.76
  Q 286.99 458.49 286.80 460.75
  Q 285.89 471.42 284.71 481.60
  Q 283.62 490.99 284.93 494.83
  Q 287.37 501.94 294.90 505.10
  Q 296.08 505.59 301.53 506.85
  Q 320.69 511.27 323.48 531.30
  Q 324.65 539.68 324.04 548.24
  Q 323.84 551.04 321.41 552.18
  A 0.96 0.89 -84.0 0 0 321.02 552.52
  L 320.52 553.30
  Q 320.32 553.26 320.13 553.22
  A 1.26 1.24 40.6 0 0 319.39 553.27
  Q 308.89 557.44 295.23 558.16
  Q 266.67 559.68 244.32 553.61
  A 1.61 1.60 39.7 0 0 243.20 553.71
  C 240.93 554.76 240.32 555.80 237.25 555.58
  Q 228.06 554.91 218.70 552.51
  Q 210.93 550.51 207.93 545.98
  L 207.22 539.48
  A 1.63 1.59 -44.3 0 1 207.23 539.08
  Q 209.28 522.57 209.04 508.31
  Q 208.87 497.85 209.47 491.22
  Q 209.87 486.89 210.15 474.13
  C 210.20 472.04 210.85 469.17 210.89 467.65
  Q 210.96 464.89 210.34 464.19
  C 207.92 461.45 205.46 457.52 206.27 453.74
  C 208.00 445.62 206.84 435.53 204.96 427.33
  A 3.79 3.73 -77.2 0 0 203.68 425.26
  Q 185.17 410.13 166.07 394.18
  Q 163.64 392.15 162.29 391.98
  Q 162.23 391.98 162.17 391.98
  L 153.95 391.98
  A 1.39 1.34 22.6 0 0 153.01 392.35
  Q 151.81 393.50 151.47 395.30
  Q 148.11 413.27 141.89 438.12
  Q 140.97 441.82 139.80 448.71
  Q 136.53 468.00 120.94 481.08
  C 118.69 482.97 116.15 484.00 113.90 485.60
  A 2.14 2.05 -5.4 0 0 113.25 486.35
  Q 109.93 492.60 104.27 495.03
  A 3.80 3.71 -81.8 0 0 102.82 496.14
  Q 96.68 503.87 91.10 512.35
  Q 89.19 515.26 88.15 518.11
  A 2.05 2.05 0.0 0 0 89.54 520.79
  C 98.40 523.20 105.53 527.76 108.72 536.80
  Q 110.01 540.44 110.97 547.11
  Q 110.99 551.33 111.04 555.49
  Q 111.13 562.97 104.18 565.67
  Q 99.58 567.46 94.76 568.01
  Q 80.11 569.68 66.26 569.29
  Q 50.40 568.85 39.62 562.39
  Q 34.02 559.04 27.90 551.72
  Q 24.74 548.28 22.09 544.65
  C 19.82 541.53 17.65 541.99 14.81 541.68
  A 4.88 4.87 -18.3 0 1 11.72 540.13
  C 6.87 534.88 1.69 528.68 0.00 521.57
  L 0.00 518.03
  Q 1.10 512.21 2.81 509.09
  Q 10.31 495.33 19.22 477.73
  Q 23.82 468.63 35.44 453.43
  Q 36.00 452.70 36.15 450.86
  C 36.52 446.11 38.18 441.61 40.97 438.71
  C 48.18 431.19 54.77 426.36 55.01 416.75
  Q 55.28 405.31 54.86 392.02
  A 1.03 1.03 0.0 0 0 53.51 391.07
  Q 45.46 393.67 36.47 393.03
  C 15.16 391.53 1.90 372.56 4.40 352.12
  C 6.40 335.75 14.60 320.39 25.89 308.55
  A 0.88 0.87 38.4 0 0 25.73 307.21
  C 20.44 303.75 16.53 299.41 14.22 293.57
  Q 12.99 290.46 13.00 284.95
  Q 13.04 271.72 13.44 269.24
  Q 22.39 213.89 33.55 160.61
  Q 33.84 159.25 35.71 153.66
  C 38.77 144.50 45.39 136.91 53.53 133.23
  Q 67.17 127.06 82.31 126.96
  A 0.70 0.70 0.0 0 0 82.94 125.96
  C 78.82 117.35 76.77 108.66 78.65 99.00
  Q 80.27 90.74 81.09 86.21
  Q 82.65 77.57 83.93 73.49
  Q 90.05 53.91 100.04 41.33
  Q 124.35 10.74 163.87 2.18
  C 168.77 1.12 175.07 0.57 180.64 0.00
  L 194.45 0.00
  Z
  M 265.21 161.31
  A 0.18 0.18 0.0 0 0 264.96 161.29
  C 243.96 177.85 214.88 180.03 190.45 170.60
  Q 163.16 160.07 149.21 133.31
  C 140.58 116.75 140.22 94.69 146.61 77.70
  C 154.98 55.43 174.80 38.44 197.64 32.63
  Q 223.84 25.97 248.79 34.94
  Q 261.67 39.58 273.04 50.69
  A 0.24 0.23 45.9 0 0 273.36 50.70
  L 273.39 50.67
  A 0.26 0.25 51.2 0 0 273.42 50.33
  C 260.99 34.31 244.33 20.72 225.24 14.54
  C 184.83 1.46 139.61 9.74 110.51 42.00
  Q 96.28 57.77 91.16 78.32
  A 0.30 0.30 0.0 0 0 91.60 78.65
  Q 103.81 71.20 115.43 76.81
  C 132.98 85.27 134.74 113.10 124.30 127.29
  C 117.55 136.45 107.43 141.31 96.52 137.01
  A 0.24 0.24 0.0 0 0 96.22 137.34
  L 103.60 152.18
  A 1.61 1.58 0.8 0 0 104.29 152.88
  C 142.41 173.42 185.55 187.14 229.05 181.02
  Q 249.99 178.08 265.22 161.51
  A 0.14 0.13 -46.6 0 0 265.22 161.32
  L 265.21 161.31
  Z
  M 191.54 106.06
  C 186.68 107.53 178.63 109.52 176.14 112.59
  A 1.69 1.69 0.0 0 0 175.77 113.80
  L 176.09 117.46
  A 3.32 3.31 67.0 0 1 174.96 120.26
  L 168.13 126.18
  A 0.31 0.30 -15.4 0 1 167.63 125.90
  C 168.10 123.24 169.82 121.00 171.49 118.61
  A 3.28 3.26 -27.3 0 0 172.08 116.77
  C 172.11 113.74 171.12 110.44 173.93 108.17
  Q 179.06 104.01 186.64 101.40
  Q 188.18 100.87 190.13 99.46
  A 1.22 1.22 0.0 0 0 190.60 98.19
  Q 189.93 95.37 190.33 93.15
  A 3.46 3.35 68.1 0 1 190.86 91.85
  L 195.11 85.56
  A 1.82 1.82 0.0 0 0 195.35 84.05
  Q 194.23 80.17 194.44 75.98
  A 1.45 1.45 0.0 0 0 193.55 74.57
  C 189.81 73.02 181.02 69.93 181.13 66.94
  Q 181.36 60.58 182.42 52.29
  A 2.46 2.46 0.0 0 0 179.62 49.55
  Q 179.59 49.55 178.69 50.18
  C 159.51 63.58 149.33 83.30 150.54 106.33
  C 152.15 137.10 176.66 161.10 206.00 166.57
  Q 224.55 170.03 241.84 164.58
  C 262.20 158.16 278.51 141.64 284.03 120.69
  C 291.03 94.11 283.06 66.70 260.72 50.54
  C 240.86 36.17 213.93 34.83 191.51 43.25
  Q 188.18 44.50 186.60 45.58
  A 0.89 0.89 0.0 0 0 186.39 46.85
  C 187.86 48.81 188.68 50.00 188.45 52.56
  Q 187.91 58.45 187.92 65.29
  A 1.44 1.43 12.1 0 0 188.77 66.60
  Q 192.48 68.30 195.83 69.93
  C 197.62 70.81 198.45 72.02 198.49 73.82
  A 0.81 0.80 87.6 0 0 199.34 74.61
  C 203.73 74.34 210.90 73.30 212.84 74.94
  Q 217.42 78.83 223.43 79.77
  A 0.82 0.82 0.0 0 1 223.35 81.40
  Q 219.26 81.62 214.08 80.49
  A 3.16 3.11 70.4 0 1 212.80 79.87
  L 210.94 78.34
  A 1.28 1.28 0.0 0 0 210.00 78.05
  L 199.96 78.93
  A 0.57 0.56 83.3 0 0 199.45 79.58
  L 200.51 86.49
  A 2.85 2.82 58.1 0 1 200.05 88.52
  L 196.13 94.32
  A 3.52 3.51 57.8 0 0 195.57 96.80
  L 197.43 109.00
  A 1.97 1.92 -70.9 0 0 197.89 109.98
  C 201.14 113.72 205.12 117.85 205.98 122.04
  Q 206.06 122.42 205.92 122.60
  A 0.96 0.96 0.0 0 1 204.41 122.58
  Q 199.75 116.51 194.56 112.61
  C 192.28 110.89 191.99 109.05 192.17 106.57
  A 0.49 0.49 0.0 0 0 191.54 106.06
  Z
  M 103.91 130.95
  Q 109.25 131.13 113.56 127.78
  C 122.12 121.11 124.57 109.58 122.64 99.20
  C 120.91 89.85 114.28 81.67 104.26 82.19
  A 0.42 0.42 0.0 0 0 104.01 82.92
  Q 108.81 87.06 110.51 93.02
  C 113.81 104.60 113.73 122.05 103.75 130.51
  A 0.25 0.25 0.0 0 0 103.91 130.95
  Z
  M 95.4300 86.1600
  A 20.70 10.26 -90.0 0 0 85.1700 106.8600
  A 20.70 10.26 -90.0 0 0 95.4300 127.5600
  A 20.70 10.26 -90.0 0 0 105.6900 106.8600
  A 20.70 10.26 -90.0 0 0 95.4300 86.1600
  Z
  M 92.27 147.36
  L 85.85 136.25
  A 2.14 2.13 -15.1 0 0 83.98 135.18
  Q 70.58 135.29 58.58 140.05
  C 45.25 145.34 41.95 158.76 39.55 171.33
  A 1.26 1.25 -75.3 0 0 40.37 172.75
  L 67.05 182.06
  A 1.19 1.18 -73.8 0 0 68.59 181.21
  Q 71.21 169.84 73.66 160.19
  C 74.85 155.49 76.52 151.65 80.91 150.38
  Q 86.24 148.83 91.90 148.11
  A 0.50 0.50 0.0 0 0 92.27 147.36
  Z
  M 77.71 176.03
  C 81.98 173.90 84.75 172.27 90.17 170.79
  A 1.58 1.55 -77.3 0 0 90.97 170.27
  Q 93.60 167.08 95.86 162.43
  C 97.24 159.60 98.19 158.56 96.92 155.99
  A 1.65 1.64 -19.4 0 0 95.10 155.12
  L 82.65 157.90
  A 1.86 1.86 0.0 0 0 81.25 159.26
  L 77.18 175.60
  A 0.38 0.37 83.8 0 0 77.71 176.03
  Z
  M 101.19 169.26
  C 116.65 170.63 127.91 183.50 130.21 198.40
  C 133.15 217.53 129.50 243.48 112.80 256.12
  A 0.58 0.58 0.0 0 0 112.87 257.09
  L 117.01 259.37
  A 1.53 1.52 -37.1 0 0 118.11 259.52
  L 127.27 257.23
  A 1.08 1.07 11.6 0 0 127.87 256.84
  C 134.74 248.19 139.20 237.35 140.99 226.58
  C 143.83 209.51 142.49 191.47 130.68 177.82
  Q 127.93 174.64 122.50 171.77
  Q 112.05 166.25 108.65 164.49
  A 1.73 1.73 0.0 0 0 107.24 164.42
  Q 103.43 165.93 100.97 168.73
  A 0.32 0.32 0.0 0 0 101.19 169.26
  Z
  M 285.74 177.31
  A 2.96 2.96 0.0 0 0 284.48 180.03
  Q 285.38 189.37 293.12 194.87
  A 3.28 3.27 -44.6 0 0 296.88 194.89
  L 298.19 193.99
  A 1.40 1.40 0.0 0 0 298.17 191.67
  C 293.65 188.65 289.98 182.49 288.93 176.96
  A 1.08 1.08 0.0 0 0 287.25 176.28
  L 285.74 177.31
  Z
  M 52.86 294.38
  Q 52.36 268.87 73.11 254.31
  Q 76.47 251.96 80.42 250.60
  A 0.43 0.43 0.0 0 0 80.53 249.84
  Q 73.00 244.60 64.31 243.99
  A 8.47 8.43 41.3 0 0 62.07 244.13
  C 59.01 244.75 52.84 246.98 53.42 241.16
  Q 53.59 239.52 55.75 238.70
  C 68.06 234.04 81.64 239.56 91.44 247.46
  A 1.12 1.10 46.6 0 0 92.78 247.51
  Q 106.37 237.91 115.31 224.53
  A 1.90 1.90 0.0 0 1 118.52 224.61
  L 118.71 224.92
  A 5.11 5.10 43.7 0 1 118.83 229.96
  Q 112.12 242.47 102.87 250.14
  A 1.04 1.04 0.0 0 0 103.43 251.98
  L 105.03 252.14
  A 2.61 2.59 27.6 0 0 106.97 251.54
  Q 118.15 242.16 121.13 229.20
  C 124.21 215.82 125.76 198.34 117.77 187.24
  Q 110.47 177.09 98.62 177.38
  Q 91.81 177.55 83.39 181.89
  Q 76.81 185.28 70.13 190.91
  C 52.95 205.37 36.84 224.05 28.38 244.88
  C 23.00 258.13 25.56 273.62 36.33 283.42
  Q 43.63 290.06 52.36 294.69
  A 0.34 0.34 0.0 0 0 52.86 294.38
  Z
  M 139.72 178.15
  A 0.33 0.33 0.0 0 0 139.37 178.70
  Q 145.52 184.70 152.80 187.95
  Q 168.07 194.76 185.26 196.54
  Q 206.05 198.69 220.51 196.08
  C 226.00 195.10 233.52 193.33 236.42 188.64
  A 0.44 0.44 0.0 0 0 235.93 187.98
  Q 228.56 189.89 220.99 190.39
  Q 178.79 193.15 139.72 178.15
  Z
  M 29.13 223.89
  A 0.35 0.35 0.0 0 0 29.76 224.14
  Q 42.62 204.03 61.34 187.78
  A 0.60 0.60 0.0 0 0 61.14 186.76
  L 38.55 178.88
  A 0.62 0.61 15.0 0 0 37.74 179.34
  L 29.13 223.89
  Z
  M 276.10 186.21
  C 277.79 193.37 280.37 200.95 288.44 200.00
  A 0.86 0.85 60.9 0 0 288.87 198.48
  Q 280.95 192.12 279.17 182.21
  A 0.92 0.92 0.0 0 0 277.51 181.86
  L 276.67 183.09
  A 3.95 3.93 55.5 0 0 276.10 186.21
  Z
  M 245.47 197.51
  A 0.61 0.60 -20.4 0 0 246.39 197.93
  L 250.90 195.13
  A 1.50 1.49 -26.8 0 0 251.50 193.32
  L 248.35 185.23
  A 1.02 1.01 -26.5 0 0 246.86 184.74
  L 244.76 186.04
  A 1.71 1.70 69.8 0 0 243.98 187.73
  L 245.47 197.51
  Z
  M 274.97 199.58
  L 271.64 192.90
  A 1.44 1.43 57.6 0 0 269.47 192.41
  L 265.37 195.65
  A 3.03 3.02 -35.2 0 0 264.68 199.62
  L 267.32 203.87
  A 1.79 1.79 0.0 0 0 269.79 204.44
  L 274.40 201.58
  A 1.55 1.55 0.0 0 0 274.97 199.58
  Z
  M 137.48 255.64
  A 0.31 0.31 0.0 0 0 137.78 256.11
  Q 145.13 255.33 152.50 256.93
  A 0.58 0.57 -80.0 0 0 153.18 256.45
  Q 155.57 240.18 158.61 216.44
  Q 158.96 213.73 162.72 211.51
  A 2.19 2.12 -57.4 0 1 163.98 211.21
  L 219.20 214.91
  A 1.74 1.72 -58.6 0 0 220.24 214.65
  L 237.76 203.74
  A 1.68 1.67 74.3 0 0 238.56 202.31
  L 238.56 197.17
  A 0.55 0.55 0.0 0 0 237.70 196.71
  Q 226.36 204.48 211.47 205.38
  C 192.11 206.56 173.13 204.61 155.13 197.38
  Q 150.63 195.58 146.93 193.32
  A 0.20 0.20 0.0 0 0 146.63 193.53
  C 151.81 214.69 148.50 236.99 137.48 255.64
  Z
  M 171.33 265.71
  C 184.43 257.43 198.63 247.88 214.66 238.47
  C 231.24 228.75 248.17 217.92 262.45 209.16
  A 0.93 0.92 58.8 0 0 262.76 207.88
  L 258.04 200.31
  A 0.39 0.39 0.0 0 0 257.51 200.18
  Q 212.25 227.38 167.61 256.25
  A 2.95 2.94 63.0 0 0 166.46 259.80
  L 168.38 264.73
  A 2.01 2.01 0.0 0 0 171.33 265.71
  Z
  M 277.51 296.38
  A 0.34 0.34 0.0 0 0 278.09 296.70
  C 289.39 282.63 283.98 262.66 278.54 247.47
  Q 272.86 231.64 266.23 216.36
  A 0.37 0.37 0.0 0 0 265.69 216.19
  L 248.86 226.66
  A 3.02 3.01 -12.2 0 0 247.47 228.81
  L 244.78 248.35
  A 0.71 0.69 -71.7 0 0 245.12 249.05
  Q 246.89 250.08 248.85 250.39
  A 2.95 2.82 -46.3 0 0 249.99 250.34
  Q 253.95 249.31 256.94 248.70
  C 258.93 248.30 264.55 249.11 265.36 252.11
  Q 265.55 252.77 265.66 253.18
  A 1.77 1.76 8.5 0 0 266.44 254.23
  C 280.46 262.93 282.21 282.07 277.51 296.38
  Z
  M 161.97 251.81
  L 172.17 245.46
  A 0.52 0.52 0.0 0 0 172.29 244.68
  L 167.85 239.55
  A 2.01 2.00 43.9 0 1 167.80 236.97
  Q 168.73 235.82 170.38 234.88
  Q 174.80 232.35 178.04 230.40
  A 2.87 2.86 -36.0 0 1 181.69 230.97
  L 181.95 231.27
  A 2.54 2.53 -36.4 0 1 181.37 235.08
  L 175.61 238.67
  A 0.68 0.68 0.0 0 0 175.45 239.69
  L 176.88 241.34
  A 0.85 0.84 -36.9 0 0 177.98 241.49
  L 189.99 233.66
  A 2.48 2.21 -3.0 0 0 190.66 233.00
  L 192.68 230.01
  A 1.63 1.63 0.0 0 1 194.94 229.58
  L 195.39 229.88
  A 1.05 1.04 45.9 0 0 196.54 229.90
  L 208.95 222.18
  A 0.30 0.30 0.0 0 0 208.81 221.63
  L 166.48 218.79
  A 0.58 0.58 0.0 0 0 165.86 219.29
  L 161.43 251.46
  A 0.36 0.36 0.0 0 0 161.97 251.81
  Z
  M 238.45 233.53
  L 234.91 235.73
  A 0.64 0.64 0.0 0 0 234.71 236.61
  L 236.82 240.01
  A 0.48 0.47 -55.7 0 0 237.69 239.84
  L 238.86 233.80
  A 0.27 0.27 0.0 0 0 238.45 233.53
  Z
  M 211.22 258.21
  L 232.47 246.04
  A 0.26 0.26 0.0 0 0 232.56 245.69
  L 230.61 242.28
  A 3.06 2.35 -29.8 0 0 226.79 241.76
  L 210.40 251.14
  A 3.06 2.35 -29.8 0 0 208.92 254.70
  L 210.87 258.11
  A 0.26 0.26 0.0 0 0 211.22 258.21
  Z
  M 245.62 312.10
  C 248.40 312.21 251.11 311.88 253.53 310.16
  Q 261.94 304.19 262.03 293.68
  Q 262.18 276.56 251.44 261.78
  C 247.75 256.69 240.46 252.19 233.96 254.04
  C 226.64 256.14 219.55 261.74 213.77 266.52
  C 208.82 270.61 210.11 275.95 213.98 280.18
  A 0.40 0.40 0.0 0 0 214.56 280.20
  C 220.45 274.76 227.54 270.82 235.21 266.77
  A 3.57 3.56 -37.2 0 1 239.32 267.33
  L 239.40 267.41
  A 1.98 1.98 0.0 0 1 239.10 270.51
  C 230.43 276.03 224.54 279.68 219.62 283.75
  A 5.20 5.13 -5.4 0 0 218.41 285.19
  Q 214.32 292.36 222.06 296.79
  A 0.77 0.77 0.0 0 0 223.02 296.62
  Q 224.68 294.71 227.01 293.27
  Q 235.84 287.81 242.39 284.36
  A 3.73 3.73 0.0 0 1 246.52 284.79
  L 246.59 284.85
  A 1.80 1.80 0.0 0 1 246.45 287.71
  L 227.32 300.92
  A 2.28 2.28 0.0 0 0 226.73 301.51
  Q 223.19 306.86 228.57 309.94
  A 2.64 2.61 -31.6 0 0 229.99 310.27
  Q 232.77 310.09 235.71 308.95
  Q 240.38 307.14 249.38 302.95
  A 1.93 1.93 0.0 0 1 252.06 304.23
  L 252.12 304.45
  A 3.42 3.39 66.0 0 1 250.71 308.16
  L 245.48 311.62
  A 0.27 0.26 29.2 0 0 245.62 312.10
  Z
  M 108.64 263.29
  Q 105.20 260.96 98.93 257.80
  C 95.29 255.97 92.68 254.60 89.36 255.36
  C 69.88 259.79 58.25 277.63 60.20 297.28
  C 61.11 306.48 67.46 307.86 76.03 309.65
  Q 82.02 310.90 86.13 311.66
  A 0.45 0.44 88.2 0 0 86.64 311.11
  C 84.61 303.19 85.76 293.54 89.12 285.93
  Q 95.26 272.02 108.62 263.90
  A 0.36 0.36 0.0 0 0 108.64 263.29
  Z
  M 267.00 302.83
  A 0.15 0.15 0.0 0 0 267.27 302.94
  Q 276.32 288.85 272.27 272.76
  C 270.28 264.87 264.04 257.77 255.86 255.93
  A 0.48 0.48 0.0 0 0 255.38 256.69
  C 265.52 269.71 270.83 286.60 267.00 302.83
  Z
  M 205.21 260.89
  L 202.15 257.02
  A 0.25 0.25 0.0 0 0 201.82 256.96
  C 188.98 264.75 194.40 275.53 201.51 284.39
  A 5.73 5.73 0.0 0 0 207.24 286.39
  L 207.45 286.34
  A 2.20 2.20 0.0 0 0 208.58 282.70
  Q 204.36 278.13 204.34 270.83
  A 1.62 1.55 -61.4 0 0 204.12 270.02
  C 203.72 269.34 202.93 268.92 202.58 268.15
  Q 200.80 264.34 205.13 261.38
  A 0.34 0.33 -36.7 0 0 205.21 260.89
  Z
  M 160.68 261.41
  A 0.59 0.59 0.0 0 0 159.83 261.22
  L 146.92 270.13
  A 0.59 0.59 0.0 0 0 146.89 271.07
  L 154.21 277.08
  A 0.59 0.59 0.0 0 0 154.92 277.11
  L 165.07 270.10
  A 0.59 0.59 0.0 0 0 165.25 269.32
  L 160.68 261.41
  Z
  M 144.91 262.96
  Q 133.57 263.56 121.57 266.77
  C 106.32 270.85 96.01 282.39 93.06 297.87
  C 91.63 305.40 93.14 314.66 100.27 318.72
  C 105.87 321.91 112.67 323.78 119.03 324.96
  C 125.60 326.18 131.75 325.01 135.32 318.84
  A 0.49 0.49 0.0 0 0 134.98 318.11
  C 131.37 317.48 123.78 315.37 121.44 312.14
  C 120.07 310.25 121.78 308.19 123.71 307.95
  A 2.03 1.92 -36.7 0 1 124.65 308.06
  C 129.81 310.03 135.38 312.76 141.48 312.45
  A 3.57 3.50 32.4 0 0 142.56 312.22
  Q 147.27 310.41 149.16 305.48
  A 0.51 0.50 16.3 0 0 148.78 304.80
  Q 139.83 303.13 132.88 297.87
  C 129.61 295.39 132.46 291.07 136.11 293.09
  C 140.80 295.69 146.31 298.13 151.82 298.90
  Q 158.34 299.80 159.49 293.25
  Q 159.88 291.04 159.13 289.20
  A 1.68 1.67 3.9 0 0 158.39 288.36
  Q 147.55 282.44 138.57 272.82
  C 137.51 271.68 135.72 270.25 135.33 268.39
  Q 134.46 264.22 141.27 265.50
  A 1.60 1.58 32.7 0 0 142.46 265.25
  L 145.07 263.44
  A 0.26 0.26 0.0 0 0 144.91 262.96
  Z
  M 187.33 265.37
  L 174.89 273.95
  A 0.64 0.63 62.4 0 0 174.66 274.70
  L 176.50 279.43
  A 1.14 1.13 -8.6 0 0 177.48 280.15
  L 190.90 281.05
  A 0.42 0.42 0.0 0 0 191.31 280.44
  C 188.82 275.42 187.01 271.47 187.76 265.63
  A 0.28 0.27 -13.6 0 0 187.33 265.37
  Z
  M 20.87 276.57
  C 19.02 287.43 22.43 294.23 31.07 300.80
  A 2.25 2.25 0.0 0 0 33.90 300.71
  L 37.86 297.27
  A 1.51 1.51 0.0 0 0 37.73 294.89
  C 30.80 290.11 25.10 284.05 21.48 276.49
  A 0.32 0.32 0.0 0 0 20.87 276.57
  Z
  M 165.85 294.81
  Q 166.42 294.61 166.89 294.06
  C 171.23 288.97 170.15 283.00 168.04 277.11
  A 0.65 0.64 62.5 0 0 167.07 276.80
  L 163.51 279.26
  A 0.85 0.85 0.0 0 0 163.28 280.43
  Q 167.08 286.22 165.38 294.40
  A 0.36 0.35 -3.7 0 0 165.85 294.81
  Z
  M 159.76 311.66
  A 0.57 0.56 -69.0 0 0 160.22 311.45
  Q 163.04 307.89 166.38 307.67
  Q 178.90 306.82 196.75 308.35
  C 199.64 308.60 200.42 310.03 202.42 311.59
  A 1.33 1.32 -27.3 0 0 203.28 311.86
  L 220.63 311.03
  A 0.21 0.21 0.0 0 0 220.80 310.72
  Q 218.65 307.13 219.53 303.01
  A 0.99 0.98 -69.9 0 0 219.04 301.94
  Q 212.53 298.36 211.35 291.93
  A 0.62 0.61 -11.2 0 0 210.61 291.44
  Q 208.35 291.94 207.23 292.22
  C 202.16 293.49 199.97 291.11 196.67 287.91
  A 0.93 0.93 0.0 0 0 196.05 287.65
  L 177.63 286.94
  A 0.63 0.63 0.0 0 0 176.98 287.52
  C 176.01 298.66 168.43 304.35 157.96 305.21
  A 1.24 1.23 4.9 0 0 156.86 306.13
  Q 156.14 308.95 154.55 311.13
  A 0.12 0.11 18.8 0 0 154.64 311.31
  L 159.76 311.66
  Z
  M 61.42 313.42
  L 53.47 304.26
  A 1.99 1.97 -36.3 0 0 50.93 303.88
  L 44.66 307.78
  A 0.51 0.51 0.0 0 0 44.73 308.68
  Q 52.28 311.84 61.19 313.80
  A 0.24 0.23 -14.1 0 0 61.42 313.42
  Z
  M 161.87 335.33
  A 4.27 4.27 0.0 0 0 166.10 340.18
  L 191.17 340.18
  A 4.27 4.27 0.0 0 0 195.40 336.49
  L 197.77 319.32
  A 4.27 4.27 0.0 0 0 193.63 314.47
  L 168.63 313.92
  A 4.27 4.27 0.0 0 0 164.31 317.61
  L 161.87 335.33
  Z
  M 60.31 322.85
  A 0.60 0.60 0.0 0 0 59.98 321.88
  Q 48.60 319.48 38.66 315.07
  A 2.53 2.53 0.0 0 0 35.83 315.61
  Q 24.70 326.98 19.26 341.36
  C 16.95 347.46 16.16 355.90 16.98 361.53
  C 18.21 369.97 24.61 378.03 33.50 380.00
  Q 38.49 381.11 40.26 380.93
  Q 47.76 380.20 55.48 376.79
  A 0.81 0.80 78.3 0 0 55.97 376.03
  Q 55.83 368.96 56.32 361.89
  Q 56.38 360.93 56.46 359.88
  Q 57.76 343.39 60.47 332.96
  A 6.44 6.36 -43.8 0 0 60.55 330.05
  Q 59.74 326.06 60.09 323.50
  Q 60.15 323.04 60.31 322.85
  Z
  M 85.99 319.59
  A 0.87 0.87 0.0 0 0 85.32 318.49
  L 69.54 315.44
  A 0.87 0.87 0.0 0 0 68.53 316.12
  L 66.69 325.65
  A 0.87 0.87 0.0 0 0 67.29 326.65
  L 81.62 331.00
  A 0.87 0.87 0.0 0 0 82.70 330.42
  L 85.99 319.59
  Z
  M 223.83 317.08
  A 0.67 0.67 0.0 0 0 223.10 316.37
  L 205.27 317.93
  A 0.67 0.67 0.0 0 0 204.67 318.51
  L 202.60 333.55
  A 0.67 0.67 0.0 0 0 203.37 334.30
  L 222.35 331.41
  A 0.67 0.67 0.0 0 0 222.92 330.79
  L 223.83 317.08
  Z
  M 130.56 332.11
  L 154.60 334.53
  A 0.74 0.73 -83.4 0 0 155.39 333.90
  L 157.52 318.41
  A 0.42 0.42 0.0 0 0 157.13 317.93
  L 148.57 317.34
  A 3.50 3.48 36.3 0 0 147.10 317.56
  L 143.77 318.86
  A 1.14 1.13 1.2 0 0 143.13 319.47
  C 140.44 325.57 137.18 329.68 130.50 331.38
  A 0.37 0.37 0.0 0 0 130.56 332.11
  Z
  M 92.01 321.19
  A 0.17 0.17 0.0 0 0 91.73 321.27
  Q 89.53 329.14 86.98 337.00
  C 86.30 339.09 85.49 342.00 87.15 343.46
  A 0.85 0.85 0.0 0 0 88.44 343.25
  Q 93.53 334.61 96.74 326.05
  A 0.49 0.48 -58.4 0 0 96.62 325.52
  L 92.01 321.19
  Z
  M 106.54 333.74
  A 0.50 0.50 0.0 0 0 106.94 334.45
  Q 110.96 334.87 112.23 331.03
  A 0.73 0.72 13.1 0 0 111.64 330.09
  L 109.01 329.72
  A 0.70 0.69 -73.3 0 0 108.30 330.11
  L 106.54 333.74
  Z
  M 100.05 347.46
  A 0.25 0.25 0.0 0 0 100.22 347.83
  L 115.34 350.75
  A 0.61 0.47 38.0 0 0 115.55 350.75
  Q 118.94 349.95 120.02 346.17
  Q 121.70 340.32 122.71 333.10
  A 0.73 0.73 0.0 0 0 122.04 332.27
  L 119.35 332.09
  A 1.02 1.00 -78.0 0 0 118.34 332.76
  Q 116.76 337.15 115.26 338.26
  Q 110.43 341.85 104.23 340.75
  A 0.32 0.31 20.0 0 0 103.90 340.90
  L 100.05 347.46
  Z
  M 63.07 371.68
  Q 74.89 362.86 83.67 349.94
  A 0.61 0.60 32.3 0 0 83.47 349.08
  C 78.68 346.24 79.20 342.49 80.37 337.75
  A 0.52 0.51 14.4 0 0 79.99 337.12
  L 67.04 333.89
  A 0.40 0.40 0.0 0 0 66.56 334.17
  Q 65.78 337.13 65.00 342.02
  Q 62.78 355.84 62.51 371.39
  A 0.35 0.35 0.0 0 0 63.07 371.68
  Z
  M 181.50 371.16
  A 0.28 0.28 0.0 0 0 181.94 371.49
  Q 196.49 357.66 215.53 346.59
  A 4.43 4.43 0.0 0 1 220.58 347.01
  L 220.62 347.04
  A 2.20 2.19 -40.4 0 1 220.33 350.63
  Q 211.91 355.57 207.04 359.03
  Q 192.67 369.21 174.89 386.90
  Q 173.99 387.80 172.48 388.87
  A 0.58 0.58 0.0 0 0 172.44 389.79
  L 209.64 420.33
  A 0.89 0.88 51.6 0 0 210.59 420.44
  Q 225.16 413.41 241.11 407.93
  A 0.78 0.78 0.0 0 0 241.63 407.13
  Q 240.67 396.60 249.38 391.17
  Q 257.53 386.07 266.54 385.76
  A 0.18 0.18 0.0 0 0 266.67 385.47
  L 261.61 379.08
  A 0.21 0.19 -25.3 0 0 261.39 379.01
  Q 255.38 381.02 249.24 382.74
  Q 247.09 383.35 245.70 382.88
  A 2.05 2.01 -10.4 0 1 244.81 382.28
  Q 237.43 373.66 231.42 365.24
  C 229.22 362.15 228.02 359.01 231.94 356.94
  Q 235.68 354.96 238.97 353.68
  A 0.38 0.37 -34.3 0 0 239.09 353.06
  L 223.66 338.58
  A 1.00 0.98 61.6 0 0 222.82 338.32
  L 200.51 341.71
  A 1.00 0.98 -77.8 0 0 199.84 342.15
  Q 196.36 347.58 189.84 346.75
  A 0.62 0.62 0.0 0 0 189.15 347.27
  Q 187.14 360.16 181.50 371.16
  Z
  M 134.36 437.23
  Q 140.26 414.24 144.84 390.37
  A 4.03 3.99 43.4 0 0 144.78 388.56
  Q 143.06 381.97 137.96 376.69
  A 2.37 2.36 40.2 0 1 137.71 373.73
  L 138.12 373.11
  A 2.66 2.65 36.0 0 1 141.95 372.51
  Q 148.43 377.55 150.82 385.01
  A 0.26 0.26 0.0 0 0 151.28 385.08
  Q 162.82 369.12 165.72 347.55
  A 0.75 0.74 3.7 0 0 164.98 346.71
  Q 160.07 346.73 157.16 342.15
  A 0.98 0.97 76.4 0 0 156.41 341.69
  L 129.22 338.96
  A 0.76 0.75 8.9 0 0 128.40 339.55
  C 127.28 344.74 126.51 349.80 124.15 353.08
  Q 119.34 359.77 109.77 356.77
  A 0.86 0.85 -77.4 0 0 108.67 357.47
  L 105.16 382.99
  A 0.60 0.60 0.0 0 0 105.65 383.66
  Q 115.53 385.49 123.24 387.28
  C 129.36 388.70 130.32 392.87 129.63 398.91
  Q 127.58 416.73 122.86 432.57
  A 0.55 0.55 0.0 0 0 123.26 433.26
  Q 129.40 434.77 133.55 437.54
  A 0.53 0.53 0.0 0 0 134.36 437.23
  Z
  M 159.19 384.98
  C 164.02 385.23 167.99 381.71 170.68 377.94
  Q 180.30 364.47 182.95 347.56
  A 0.51 0.51 0.0 0 0 182.45 346.97
  L 172.14 346.97
  A 0.46 0.45 2.7 0 0 171.68 347.38
  Q 169.56 367.10 158.77 384.18
  A 0.52 0.52 0.0 0 0 159.19 384.98
  Z
  M 75.00 378.97
  A 0.25 0.24 28.7 0 0 75.13 379.40
  L 98.27 382.58
  A 0.82 0.82 0.0 0 0 99.20 381.88
  L 102.79 355.84
  A 0.59 0.59 0.0 0 0 102.32 355.19
  L 96.80 354.13
  A 0.88 0.86 20.6 0 0 95.88 354.54
  Q 90.35 363.74 82.13 372.13
  Q 78.08 376.26 75.00 378.97
  Z
  M 236.66 360.91
  A 1.02 1.02 0.0 0 0 236.23 362.49
  L 247.54 376.81
  A 1.02 1.02 0.0 0 0 248.71 377.13
  L 256.49 374.10
  A 1.02 1.02 0.0 0 0 256.89 372.48
  L 244.75 358.48
  A 1.02 1.02 0.0 0 0 243.61 358.20
  L 236.66 360.91
  Z
  M 122.65 394.28
  Q 120.69 393.05 118.17 392.58
  Q 91.24 387.56 69.23 384.34
  Q 65.99 383.87 63.75 384.59
  A 2.33 2.33 0.0 0 0 62.13 386.81
  L 62.13 399.38
  A 2.15 2.14 13.2 0 0 63.33 401.30
  L 92.05 415.19
  A 3.36 3.35 -38.9 0 0 94.32 415.43
  L 120.26 408.95
  A 1.80 1.79 -3.4 0 0 121.60 407.45
  L 123.24 395.55
  A 1.28 1.28 0.0 0 0 122.65 394.28
  Z
  M 254.59 433.93
  C 257.84 442.42 273.64 438.62 279.15 435.50
  A 3.25 3.08 -84.4 0 0 280.05 434.72
  Q 281.85 432.48 282.06 431.02
  Q 284.38 414.80 278.02 400.32
  C 273.17 389.27 262.17 391.72 253.73 396.27
  C 249.30 398.66 247.71 401.98 248.18 407.02
  Q 249.44 420.51 254.59 433.93
  Z
  M 62.03 408.13
  Q 62.12 414.70 61.84 420.74
  C 61.62 425.50 67.29 427.61 70.91 428.94
  Q 81.10 432.69 91.57 435.02
  A 2.38 2.38 0.0 0 0 92.87 434.95
  Q 93.81 434.62 97.04 433.32
  Q 105.40 429.95 113.88 431.82
  A 1.29 1.29 0.0 0 0 115.23 431.28
  C 117.99 427.19 118.81 421.26 119.85 416.18
  A 0.77 0.77 0.0 0 0 118.89 415.29
  Q 106.19 418.75 96.07 421.07
  Q 92.24 421.95 90.21 421.01
  Q 76.57 414.71 62.66 407.73
  A 0.44 0.44 0.0 0 0 62.03 408.13
  Z
  M 241.70 413.84
  L 213.40 424.85
  A 1.29 1.29 0.0 0 0 212.59 426.24
  L 214.27 437.26
  A 0.29 0.28 77.5 0 0 214.63 437.49
  Q 229.70 433.27 245.93 430.76
  A 0.62 0.61 -14.2 0 0 246.42 429.94
  Q 243.77 422.68 242.39 414.24
  A 0.51 0.51 0.0 0 0 241.70 413.84
  Z
  M 89.04 441.20
  Q 77.42 438.47 65.30 433.45
  Q 61.78 431.99 59.55 430.40
  A 0.98 0.97 -61.8 0 0 58.07 430.85
  Q 57.16 433.30 58.09 435.40
  C 62.01 444.23 72.36 451.62 80.79 455.44
  A 0.34 0.33 -65.3 0 0 81.24 455.27
  Q 84.46 447.83 89.22 441.70
  A 0.32 0.32 0.0 0 0 89.04 441.20
  Z
  M 277.14 443.39
  C 267.30 446.89 254.03 447.62 248.73 436.55
  A 1.08 1.08 0.0 0 0 247.52 435.96
  L 215.14 443.18
  A 1.11 1.11 0.0 0 0 214.28 444.22
  Q 214.10 449.04 213.51 454.52
  Q 212.94 459.72 217.76 461.04
  Q 221.55 462.08 225.51 462.09
  Q 244.26 462.15 263.33 458.34
  Q 271.30 456.75 276.50 454.15
  A 4.33 4.32 -12.8 0 0 278.89 450.37
  L 279.02 444.74
  A 1.41 1.40 -9.2 0 0 277.14 443.39
  Z
  M 104.98 485.60
  Q 95.51 485.26 87.48 481.55
  Q 77.27 476.82 77.87 465.81
  C 77.93 464.76 78.46 463.15 78.70 461.95
  A 0.83 0.82 18.7 0 0 78.25 461.04
  C 68.32 456.25 57.71 448.93 53.13 438.60
  A 0.63 0.62 -32.3 0 0 52.15 438.38
  Q 49.16 440.94 46.43 444.00
  C 39.43 451.87 48.98 463.59 55.35 469.28
  Q 61.89 475.12 71.47 481.11
  Q 80.33 486.64 90.67 488.16
  C 95.54 488.88 101.35 490.13 105.19 486.13
  A 0.31 0.31 0.0 0 0 104.98 485.60
  Z
  M 132.43 445.09
  C 126.68 439.52 115.55 438.10 108.02 438.68
  Q 100.81 439.25 96.51 443.56
  Q 91.05 449.04 86.10 460.63
  C 83.64 466.41 83.33 472.11 89.66 475.22
  Q 97.91 479.26 107.39 479.16
  Q 114.28 479.08 119.45 473.47
  Q 128.69 463.45 132.05 453.07
  Q 133.44 448.80 132.94 446.05
  A 1.79 1.77 17.4 0 0 132.43 445.09
  Z
  M 46.35 542.14
  Q 52.67 523.64 72.86 520.29
  Q 75.27 519.89 80.30 519.70
  A 1.20 1.19 2.6 0 0 81.44 518.66
  L 81.44 518.63
  A 0.99 0.99 0.0 0 0 80.59 517.52
  Q 69.21 516.00 57.54 520.83
  C 55.74 521.57 53.56 521.51 52.86 519.44
  C 50.37 512.10 50.89 504.72 54.74 497.27
  Q 58.35 490.28 62.23 484.96
  A 0.92 0.91 -55.9 0 0 61.98 483.65
  C 52.97 477.92 45.07 471.41 39.61 462.25
  A 0.89 0.89 0.0 0 0 38.12 462.19
  Q 33.02 469.35 28.52 476.74
  C 26.68 479.76 25.42 480.85 27.28 484.20
  Q 30.68 490.30 32.96 494.79
  C 37.71 504.16 32.69 515.24 27.85 523.37
  A 1.74 1.74 0.0 0 0 28.00 525.37
  Q 34.72 533.52 42.80 540.86
  Q 44.47 542.37 45.39 542.64
  A 0.80 0.79 -72.3 0 0 46.35 542.14
  Z
  M 254.79 476.16
  Q 266.87 474.35 278.64 469.86
  A 0.46 0.46 0.0 0 0 278.93 469.48
  L 279.67 462.03
  A 0.15 0.14 84.0 0 0 279.48 461.87
  Q 267.26 466.43 255.02 468.10
  A 1.16 1.14 -3.6 0 0 254.03 469.21
  L 253.90 475.37
  A 0.78 0.77 -3.1 0 0 254.79 476.16
  Z
  M 284.45 506.11
  C 280.71 502.81 267.80 510.84 264.19 512.82
  A 3.49 3.48 41.3 0 1 261.26 513.00
  C 245.09 506.59 247.06 483.50 247.47 469.68
  A 0.62 0.62 0.0 0 0 246.79 469.05
  C 237.46 469.96 227.44 470.53 218.27 468.71
  A 0.54 0.54 0.0 0 0 217.63 469.20
  L 215.94 494.37
  A 1.55 1.55 0.0 0 0 216.95 495.92
  C 224.90 498.89 234.17 503.24 237.09 511.42
  C 239.24 517.44 239.69 526.98 239.43 532.60
  A 1.33 1.33 0.0 0 0 240.57 533.97
  L 259.83 536.62
  A 0.49 0.48 6.8 0 0 260.38 536.19
  C 260.63 534.13 260.68 531.61 261.30 529.51
  Q 266.48 512.20 284.26 507.00
  A 0.52 0.52 0.0 0 0 284.45 506.11
  Z
  M 278.55 476.17
  A 0.16 0.15 81.8 0 0 278.34 476.01
  Q 266.56 480.44 254.62 481.73
  A 0.92 0.91 -4.3 0 0 253.80 482.68
  L 254.17 490.34
  A 0.83 0.82 -3.4 0 0 255.06 491.12
  Q 266.46 490.26 277.76 485.42
  A 0.33 0.32 79.7 0 0 277.95 485.14
  L 278.55 476.17
  Z
  M 22.57 488.04
  A 0.27 0.26 41.1 0 0 22.12 488.07
  Q 16.78 498.33 15.75 500.26
  C 14.81 502.01 14.54 503.69 15.14 505.37
  Q 17.65 512.41 22.48 518.88
  A 0.65 0.65 0.0 0 0 23.57 518.80
  C 27.62 511.33 31.07 504.16 26.88 495.81
  Q 25.19 492.43 25.09 492.24
  Q 23.86 489.77 22.57 488.04
  Z
  M 92.11 495.95
  Q 90.36 495.96 84.64 494.84
  Q 74.80 492.90 68.88 488.57
  A 1.07 1.07 0.0 0 0 67.36 488.84
  L 64.41 493.20
  A 1.10 1.10 0.0 0 0 64.69 494.72
  C 70.98 499.10 80.54 501.22 87.97 501.69
  A 3.42 3.41 -71.0 0 0 91.02 500.20
  L 92.90 497.41
  A 0.94 0.94 0.0 0 0 92.11 495.95
  Z
  M 276.77 491.70
  C 270.40 494.60 263.01 496.48 255.91 496.60
  A 0.61 0.61 0.0 0 0 255.33 497.35
  Q 256.59 502.77 261.34 506.16
  A 2.58 2.58 0.0 0 0 264.16 506.28
  Q 271.62 501.86 278.61 500.10
  A 0.74 0.74 0.0 0 0 279.14 499.23
  L 277.54 492.08
  A 0.56 0.55 -18.6 0 0 276.77 491.70
  Z
  M 84.80 507.43
  C 76.29 506.31 68.25 503.78 61.30 499.38
  A 0.56 0.56 0.0 0 0 60.52 499.57
  Q 57.04 505.55 57.76 513.12
  A 1.48 1.48 0.0 0 0 59.77 514.35
  Q 70.42 510.18 81.60 512.16
  A 1.76 1.76 0.0 0 0 83.36 511.42
  L 85.30 508.55
  A 0.72 0.72 0.0 0 0 84.80 507.43
  Z
  M 233.53 531.45
  Q 233.35 523.23 232.53 517.02
  C 231.39 508.36 223.65 504.54 216.26 501.73
  A 0.43 0.43 0.0 0 0 215.68 502.12
  L 215.17 525.24
  A 1.32 1.32 0.0 0 0 215.84 526.42
  Q 223.61 530.79 232.81 532.09
  A 0.64 0.63 -86.5 0 0 233.53 531.45
  Z
  M 10.63 510.04
  C 9.56 511.21 8.79 513.39 7.97 515.47
  C 5.13 522.78 10.90 528.45 15.63 533.42
  A 1.10 1.10 0.0 0 0 17.01 533.59
  Q 20.92 531.15 23.44 535.15
  Q 29.67 545.02 36.78 551.91
  C 44.32 559.23 53.22 561.56 63.32 562.13
  C 75.10 562.80 88.21 563.15 99.79 560.04
  A 5.99 5.95 -88.2 0 0 103.89 556.17
  L 104.16 555.38
  A 1.73 1.73 0.0 0 0 102.11 553.15
  Q 85.33 557.21 65.00 554.99
  C 51.50 553.52 41.62 548.86 32.31 538.86
  Q 24.14 530.10 16.91 520.45
  C 14.76 517.58 12.49 513.33 11.21 510.14
  A 0.35 0.35 0.0 0 0 10.63 510.04
  Z
  M 267.23 537.64
  Q 291.77 539.71 315.41 532.55
  A 1.63 1.62 -14.1 0 0 316.53 530.69
  Q 313.93 517.04 300.53 513.27
  C 284.48 508.76 266.12 518.85 266.55 536.91
  A 0.74 0.73 -88.3 0 0 267.23 537.64
  Z
  M 52.39 546.24
  Q 53.34 546.83 56.78 547.72
  C 69.89 551.08 85.20 550.81 98.03 548.58
  Q 101.55 547.96 103.18 547.19
  A 1.14 1.13 75.5 0 0 103.83 546.07
  Q 103.58 542.60 102.07 538.40
  C 98.30 527.87 84.96 525.21 74.99 526.02
  C 64.06 526.90 53.57 533.70 51.97 545.35
  A 0.91 0.90 19.9 0 0 52.39 546.24
  Z
  M 214.57 533.36
  C 213.92 536.82 212.85 543.72 217.32 545.19
  Q 225.13 547.76 233.59 548.96
  A 0.97 0.97 0.0 0 0 234.69 548.11
  Q 235.02 545.21 237.27 544.58
  A 2.33 2.27 48.0 0 1 238.77 544.68
  Q 243.85 546.83 254.72 548.81
  Q 274.19 552.36 293.97 551.41
  Q 305.79 550.84 315.50 547.43
  A 2.78 2.76 -9.7 0 0 317.36 544.82
  L 317.35 539.63
  A 1.44 1.43 82.4 0 0 315.54 538.24
  Q 304.20 541.29 299.72 541.98
  Q 282.46 544.62 262.91 542.88
  C 252.44 541.95 240.40 539.20 228.43 537.12
  Q 226.30 536.76 215.29 532.94
  A 0.55 0.55 0.0 0 0 214.57 533.36
  Z"
/>
<ellipse cx="0.00" cy="0.00" transform="translate(256.75,405.79) rotate(-112.0)" rx="4.40" ry="3.64"/>
<ellipse cx="0.00" cy="0.00" transform="translate(94.24,406.00) rotate(-61.7)" rx="4.36" ry="3.54"/>
<ellipse cx="0.00" cy="0.00" transform="translate(260.61,429.71) rotate(-101.2)" rx="4.29" ry="3.56"/>
<ellipse cx="0.00" cy="0.00" transform="translate(102.39,448.73) rotate(-68.7)" rx="4.50" ry="3.66"/>
<ellipse cx="0.00" cy="0.00" transform="translate(92.52,467.46) rotate(-100.9)" rx="3.86" ry="3.34"/>
<path d="
  M 207.93 545.98
  Q 210.93 550.51 218.70 552.51
  Q 228.06 554.91 237.25 555.58
  C 240.32 555.80 240.93 554.76 243.20 553.71
  A 1.61 1.60 39.7 0 1 244.32 553.61
  Q 266.67 559.68 295.23 558.16
  Q 308.89 557.44 319.39 553.27
  A 1.26 1.24 40.6 0 1 320.13 553.22
  Q 320.32 553.26 320.52 553.30
  Q 320.45 553.41 320.38 553.52
  A 0.12 0.12 0.0 0 0 320.44 553.69
  C 321.71 554.13 323.24 553.88 324.20 554.11
  C 327.81 555.00 332.31 556.04 335.45 558.73
  A 1.02 1.02 0.0 0 1 335.47 560.27
  Q 333.58 561.95 330.37 563.13
  Q 325.18 565.04 318.64 566.13
  Q 287.23 571.37 256.01 572.08
  C 253.90 572.12 249.84 572.74 247.97 572.89
  Q 245.67 573.08 230.35 572.97
  C 223.99 572.92 217.16 573.91 210.00 573.96
  Q 198.91 574.04 136.25 573.97
  C 129.10 573.97 119.93 572.95 112.15 572.97
  C 102.68 572.99 98.92 573.27 89.58 572.30
  Q 84.53 571.77 77.16 572.03
  A 12.13 12.02 -40.1 0 1 74.35 571.80
  Q 69.47 570.84 65.50 570.99
  Q 60.82 571.15 58.04 570.53
  Q 57.76 570.47 50.57 569.82
  Q 31.81 568.15 15.74 564.52
  Q 10.66 563.37 6.67 560.83
  A 1.80 1.80 0.0 0 1 6.54 557.89
  Q 9.27 555.79 13.10 554.94
  Q 20.27 553.33 27.90 551.72
  Q 34.02 559.04 39.62 562.39
  Q 50.40 568.85 66.26 569.29
  Q 80.11 569.68 94.76 568.01
  Q 99.58 567.46 104.18 565.67
  Q 111.13 562.97 111.04 555.49
  Q 110.99 551.33 110.97 547.11
  Q 120.62 546.98 130.30 546.97
  C 135.79 546.96 140.77 546.04 146.04 546.03
  Q 176.90 545.99 207.93 545.98
  Z"
/>
</g>
<g fill="var(--art-astronaut-primary)">
<path d="
  M 265.22 161.51
  Q 249.99 178.08 229.05 181.02
  C 185.55 187.14 142.41 173.42 104.29 152.88
  A 1.61 1.58 0.8 0 1 103.60 152.18
  L 96.22 137.34
  A 0.24 0.24 0.0 0 1 96.52 137.01
  C 107.43 141.31 117.55 136.45 124.30 127.29
  C 134.74 113.10 132.98 85.27 115.43 76.81
  Q 103.81 71.20 91.60 78.65
  A 0.30 0.30 0.0 0 1 91.16 78.32
  Q 96.28 57.77 110.51 42.00
  C 139.61 9.74 184.83 1.46 225.24 14.54
  C 244.33 20.72 260.99 34.31 273.42 50.33
  A 0.26 0.25 51.2 0 1 273.39 50.67
  L 273.36 50.70
  A 0.24 0.23 45.9 0 1 273.04 50.69
  Q 261.67 39.58 248.79 34.94
  Q 223.84 25.97 197.64 32.63
  C 174.80 38.44 154.98 55.43 146.61 77.70
  C 140.22 94.69 140.58 116.75 149.21 133.31
  Q 163.16 160.07 190.45 170.60
  C 214.88 180.03 243.96 177.85 264.96 161.29
  A 0.18 0.18 0.0 0 1 265.21 161.31
  L 265.22 161.32
  A 0.14 0.13 -46.6 0 1 265.22 161.51
  Z"
/>
<path d="
  M 271.10 93.87
  C 266.34 92.41 264.04 81.56 261.82 77.27
  C 257.97 69.80 253.02 63.98 246.99 58.28
  C 245.42 56.80 244.72 54.77 246.38 53.34
  A 1.25 1.24 -59.0 0 1 247.45 53.07
  C 256.38 54.97 263.56 61.88 268.31 69.21
  C 272.45 75.61 275.74 85.16 273.26 92.49
  A 2.01 1.65 -71.9 0 1 271.10 93.87
  Z"
/>
<path d="
  M 52.36 294.69
  Q 43.63 290.06 36.33 283.42
  C 25.56 273.62 23.00 258.13 28.38 244.88
  C 36.84 224.05 52.95 205.37 70.13 190.91
  Q 76.81 185.28 83.39 181.89
  Q 91.81 177.55 98.62 177.38
  Q 110.47 177.09 117.77 187.24
  C 125.76 198.34 124.21 215.82 121.13 229.20
  Q 118.15 242.16 106.97 251.54
  A 2.61 2.59 27.6 0 1 105.03 252.14
  L 103.43 251.98
  A 1.04 1.04 0.0 0 1 102.87 250.14
  Q 112.12 242.47 118.83 229.96
  A 5.11 5.10 43.7 0 0 118.71 224.92
  L 118.52 224.61
  A 1.90 1.90 0.0 0 0 115.31 224.53
  Q 106.37 237.91 92.78 247.51
  A 1.12 1.10 46.6 0 1 91.44 247.46
  C 81.64 239.56 68.06 234.04 55.75 238.70
  Q 53.59 239.52 53.42 241.16
  C 52.84 246.98 59.01 244.75 62.07 244.13
  A 8.47 8.43 41.3 0 1 64.31 243.99
  Q 73.00 244.60 80.53 249.84
  A 0.43 0.43 0.0 0 1 80.42 250.60
  Q 76.47 251.96 73.11 254.31
  Q 52.36 268.87 52.86 294.38
  A 0.34 0.34 0.0 0 1 52.36 294.69
  Z"
/>
<path d="
  M 137.48 255.64
  C 148.50 236.99 151.81 214.69 146.63 193.53
  A 0.20 0.20 0.0 0 1 146.93 193.32
  Q 150.63 195.58 155.13 197.38
  C 173.13 204.61 192.11 206.56 211.47 205.38
  Q 226.36 204.48 237.70 196.71
  A 0.55 0.55 0.0 0 1 238.56 197.17
  L 238.56 202.31
  A 1.68 1.67 74.3 0 1 237.76 203.74
  L 220.24 214.65
  A 1.74 1.72 -58.6 0 1 219.20 214.91
  L 163.98 211.21
  A 2.19 2.12 -57.4 0 0 162.72 211.51
  Q 158.96 213.73 158.61 216.44
  Q 155.57 240.18 153.18 256.45
  A 0.58 0.57 -80.0 0 1 152.50 256.93
  Q 145.13 255.33 137.78 256.11
  A 0.31 0.31 0.0 0 1 137.48 255.64
  Z"
/>
<path d="
  M 277.51 296.38
  C 282.21 282.07 280.46 262.93 266.44 254.23
  A 1.77 1.76 8.5 0 1 265.66 253.18
  Q 265.55 252.77 265.36 252.11
  C 264.55 249.11 258.93 248.30 256.94 248.70
  Q 253.95 249.31 249.99 250.34
  A 2.95 2.82 -46.3 0 1 248.85 250.39
  Q 246.89 250.08 245.12 249.05
  A 0.71 0.69 -71.7 0 1 244.78 248.35
  L 247.47 228.81
  A 3.02 3.01 -12.2 0 1 248.86 226.66
  L 265.69 216.19
  A 0.37 0.37 0.0 0 1 266.23 216.36
  Q 272.86 231.64 278.54 247.47
  C 283.98 262.66 289.39 282.63 278.09 296.70
  A 0.34 0.34 0.0 0 1 277.51 296.38
  Z"
/>
<path d="
  M 161.97 251.81
  A 0.36 0.36 0.0 0 1 161.43 251.46
  L 165.86 219.29
  A 0.58 0.58 0.0 0 1 166.48 218.79
  L 208.81 221.63
  A 0.30 0.30 0.0 0 1 208.95 222.18
  L 196.54 229.90
  A 1.05 1.04 45.9 0 1 195.39 229.88
  L 194.94 229.58
  A 1.63 1.63 0.0 0 0 192.68 230.01
  L 190.66 233.00
  A 2.48 2.21 -3.0 0 1 189.99 233.66
  L 177.98 241.49
  A 0.85 0.84 -36.9 0 1 176.88 241.34
  L 175.45 239.69
  A 0.68 0.68 0.0 0 1 175.61 238.67
  L 181.37 235.08
  A 2.54 2.53 -36.4 0 0 181.95 231.27
  L 181.69 230.97
  A 2.87 2.86 -36.0 0 0 178.04 230.40
  Q 174.80 232.35 170.38 234.88
  Q 168.73 235.82 167.80 236.97
  A 2.01 2.00 43.9 0 0 167.85 239.55
  L 172.29 244.68
  A 0.52 0.52 0.0 0 1 172.17 245.46
  L 161.97 251.81
  Z"
/>
<path d="
  M 238.86 233.80
  L 237.69 239.84
  A 0.48 0.47 -55.7 0 1 236.82 240.01
  L 234.71 236.61
  A 0.64 0.64 0.0 0 1 234.91 235.73
  L 238.45 233.53
  A 0.27 0.27 0.0 0 1 238.86 233.80
  Z"
/>
<path d="
  M 245.62 312.10
  A 0.27 0.26 29.2 0 1 245.48 311.62
  L 250.71 308.16
  A 3.42 3.39 66.0 0 0 252.12 304.45
  L 252.06 304.23
  A 1.93 1.93 0.0 0 0 249.38 302.95
  Q 240.38 307.14 235.71 308.95
  Q 232.77 310.09 229.99 310.27
  A 2.64 2.61 -31.6 0 1 228.57 309.94
  Q 223.19 306.86 226.73 301.51
  A 2.28 2.28 0.0 0 1 227.32 300.92
  L 246.45 287.71
  A 1.80 1.80 0.0 0 0 246.59 284.85
  L 246.52 284.79
  A 3.73 3.73 0.0 0 0 242.39 284.36
  Q 235.84 287.81 227.01 293.27
  Q 224.68 294.71 223.02 296.62
  A 0.77 0.77 0.0 0 1 222.06 296.79
  Q 214.32 292.36 218.41 285.19
  A 5.20 5.13 -5.4 0 1 219.62 283.75
  C 224.54 279.68 230.43 276.03 239.10 270.51
  A 1.98 1.98 0.0 0 0 239.40 267.41
  L 239.32 267.33
  A 3.57 3.56 -37.2 0 0 235.21 266.77
  C 227.54 270.82 220.45 274.76 214.56 280.20
  A 0.40 0.40 0.0 0 1 213.98 280.18
  C 210.11 275.95 208.82 270.61 213.77 266.52
  C 219.55 261.74 226.64 256.14 233.96 254.04
  C 240.46 252.19 247.75 256.69 251.44 261.78
  Q 262.18 276.56 262.03 293.68
  Q 261.94 304.19 253.53 310.16
  C 251.11 311.88 248.40 312.21 245.62 312.10
  Z"
/>
<path d="
  M 267.00 302.83
  C 270.83 286.60 265.52 269.71 255.38 256.69
  A 0.48 0.48 0.0 0 1 255.86 255.93
  C 264.04 257.77 270.28 264.87 272.27 272.76
  Q 276.32 288.85 267.27 302.94
  A 0.15 0.15 0.0 0 1 267.00 302.83
  Z"
/>
<path d="
  M 205.21 260.89
  A 0.34 0.33 -36.7 0 1 205.13 261.38
  Q 200.80 264.34 202.58 268.15
  C 202.93 268.92 203.72 269.34 204.12 270.02
  A 1.62 1.55 -61.4 0 1 204.34 270.83
  Q 204.36 278.13 208.58 282.70
  A 2.20 2.20 0.0 0 1 207.45 286.34
  L 207.24 286.39
  A 5.73 5.73 0.0 0 1 201.51 284.39
  C 194.40 275.53 188.98 264.75 201.82 256.96
  A 0.25 0.25 0.0 0 1 202.15 257.02
  L 205.21 260.89
  Z"
/>
<path d="
  M 144.91 262.96
  A 0.26 0.26 0.0 0 1 145.07 263.44
  L 142.46 265.25
  A 1.60 1.58 32.7 0 1 141.27 265.50
  Q 134.46 264.22 135.33 268.39
  C 135.72 270.25 137.51 271.68 138.57 272.82
  Q 147.55 282.44 158.39 288.36
  A 1.68 1.67 3.9 0 1 159.13 289.20
  Q 159.88 291.04 159.49 293.25
  Q 158.34 299.80 151.82 298.90
  C 146.31 298.13 140.80 295.69 136.11 293.09
  C 132.46 291.07 129.61 295.39 132.88 297.87
  Q 139.83 303.13 148.78 304.80
  A 0.51 0.50 16.3 0 1 149.16 305.48
  Q 147.27 310.41 142.56 312.22
  A 3.57 3.50 32.4 0 1 141.48 312.45
  C 135.38 312.76 129.81 310.03 124.65 308.06
  A 2.03 1.92 -36.7 0 0 123.71 307.95
  C 121.78 308.19 120.07 310.25 121.44 312.14
  C 123.78 315.37 131.37 317.48 134.98 318.11
  A 0.49 0.49 0.0 0 1 135.32 318.84
  C 131.75 325.01 125.60 326.18 119.03 324.96
  C 112.67 323.78 105.87 321.91 100.27 318.72
  C 93.14 314.66 91.63 305.40 93.06 297.87
  C 96.01 282.39 106.32 270.85 121.57 266.77
  Q 133.57 263.56 144.91 262.96
  Z"
/>
<path d="
  M 187.33 265.37
  A 0.28 0.27 -13.6 0 1 187.76 265.63
  C 187.01 271.47 188.82 275.42 191.31 280.44
  A 0.42 0.42 0.0 0 1 190.90 281.05
  L 177.48 280.15
  A 1.14 1.13 -8.6 0 1 176.50 279.43
  L 174.66 274.70
  A 0.64 0.63 62.4 0 1 174.89 273.95
  L 187.33 265.37
  Z"
/>
<path d="
  M 154.55 311.13
  Q 156.14 308.95 156.86 306.13
  A 1.24 1.23 4.9 0 1 157.96 305.21
  C 168.43 304.35 176.01 298.66 176.98 287.52
  A 0.63 0.63 0.0 0 1 177.63 286.94
  L 196.05 287.65
  A 0.93 0.93 0.0 0 1 196.67 287.91
  C 199.97 291.11 202.16 293.49 207.23 292.22
  Q 208.35 291.94 210.61 291.44
  A 0.62 0.61 -11.2 0 1 211.35 291.93
  Q 212.53 298.36 219.04 301.94
  A 0.99 0.98 -69.9 0 1 219.53 303.01
  Q 218.65 307.13 220.80 310.72
  A 0.21 0.21 0.0 0 1 220.63 311.03
  L 203.28 311.86
  A 1.33 1.32 -27.3 0 1 202.42 311.59
  C 200.42 310.03 199.64 308.60 196.75 308.35
  Q 178.90 306.82 166.38 307.67
  Q 163.04 307.89 160.22 311.45
  A 0.57 0.56 -69.0 0 1 159.76 311.66
  L 154.64 311.31
  A 0.12 0.11 18.8 0 1 154.55 311.13
  Z"
/>
<path d="
  M 63.07 371.68
  A 0.35 0.35 0.0 0 1 62.51 371.39
  Q 62.78 355.84 65.00 342.02
  Q 65.78 337.13 66.56 334.17
  A 0.40 0.40 0.0 0 1 67.04 333.89
  L 79.99 337.12
  A 0.52 0.51 14.4 0 1 80.37 337.75
  C 79.20 342.49 78.68 346.24 83.47 349.08
  A 0.61 0.60 32.3 0 1 83.67 349.94
  Q 74.89 362.86 63.07 371.68
  Z"
/>
<path d="
  M 181.50 371.16
  Q 187.14 360.16 189.15 347.27
  A 0.62 0.62 0.0 0 1 189.84 346.75
  Q 196.36 347.58 199.84 342.15
  A 1.00 0.98 -77.8 0 1 200.51 341.71
  L 222.82 338.32
  A 1.00 0.98 61.6 0 1 223.66 338.58
  L 239.09 353.06
  A 0.38 0.37 -34.3 0 1 238.97 353.68
  Q 235.68 354.96 231.94 356.94
  C 228.02 359.01 229.22 362.15 231.42 365.24
  Q 237.43 373.66 244.81 382.28
  A 2.05 2.01 -10.4 0 0 245.70 382.88
  Q 247.09 383.35 249.24 382.74
  Q 255.38 381.02 261.39 379.01
  A 0.21 0.19 -25.3 0 1 261.61 379.08
  L 266.67 385.47
  A 0.18 0.18 0.0 0 1 266.54 385.76
  Q 257.53 386.07 249.38 391.17
  Q 240.67 396.60 241.63 407.13
  A 0.78 0.78 0.0 0 1 241.11 407.93
  Q 225.16 413.41 210.59 420.44
  A 0.89 0.88 51.6 0 1 209.64 420.33
  L 172.44 389.79
  A 0.58 0.58 0.0 0 1 172.48 388.87
  Q 173.99 387.80 174.89 386.90
  Q 192.67 369.21 207.04 359.03
  Q 211.91 355.57 220.33 350.63
  A 2.20 2.19 -40.4 0 0 220.62 347.04
  L 220.58 347.01
  A 4.43 4.43 0.0 0 0 215.53 346.59
  Q 196.49 357.66 181.94 371.49
  A 0.28 0.28 0.0 0 1 181.50 371.16
  Z"
/>
<path d="
  M 133.55 437.54
  Q 129.40 434.77 123.26 433.26
  A 0.55 0.55 0.0 0 1 122.86 432.57
  Q 127.58 416.73 129.63 398.91
  C 130.32 392.87 129.36 388.70 123.24 387.28
  Q 115.53 385.49 105.65 383.66
  A 0.60 0.60 0.0 0 1 105.16 382.99
  L 108.67 357.47
  A 0.86 0.85 -77.4 0 1 109.77 356.77
  Q 119.34 359.77 124.15 353.08
  C 126.51 349.80 127.28 344.74 128.40 339.55
  A 0.76 0.75 8.9 0 1 129.22 338.96
  L 156.41 341.69
  A 0.98 0.97 76.4 0 1 157.16 342.15
  Q 160.07 346.73 164.98 346.71
  A 0.75 0.74 3.7 0 1 165.72 347.55
  Q 162.82 369.12 151.28 385.08
  A 0.26 0.26 0.0 0 1 150.82 385.01
  Q 148.43 377.55 141.95 372.51
  A 2.66 2.65 36.0 0 0 138.12 373.11
  L 137.71 373.73
  A 2.37 2.36 40.2 0 0 137.96 376.69
  Q 143.06 381.97 144.78 388.56
  A 4.03 3.99 43.4 0 1 144.84 390.37
  Q 140.26 414.24 134.36 437.23
  A 0.53 0.53 0.0 0 1 133.55 437.54
  Z"
/>
<path d="
  M 158.77 384.18
  Q 169.56 367.10 171.68 347.38
  A 0.46 0.45 2.7 0 1 172.14 346.97
  L 182.45 346.97
  A 0.51 0.51 0.0 0 1 182.95 347.56
  Q 180.30 364.47 170.68 377.94
  C 167.99 381.71 164.02 385.23 159.19 384.98
  A 0.52 0.52 0.0 0 1 158.77 384.18
  Z"
/>
<path d="
  M 75.00 378.97
  Q 78.08 376.26 82.13 372.13
  Q 90.35 363.74 95.88 354.54
  A 0.88 0.86 20.6 0 1 96.80 354.13
  L 102.32 355.19
  A 0.59 0.59 0.0 0 1 102.79 355.84
  L 99.20 381.88
  A 0.82 0.82 0.0 0 1 98.27 382.58
  L 75.13 379.40
  A 0.25 0.24 28.7 0 1 75.00 378.97
  Z"
/>
<path d="
  M 241.70 413.84
  A 0.51 0.51 0.0 0 1 242.39 414.24
  Q 243.77 422.68 246.42 429.94
  A 0.62 0.61 -14.2 0 1 245.93 430.76
  Q 229.70 433.27 214.63 437.49
  A 0.29 0.28 77.5 0 1 214.27 437.26
  L 212.59 426.24
  A 1.29 1.29 0.0 0 1 213.40 424.85
  L 241.70 413.84
  Z"
/>
<path d="
  M 89.04 441.20
  A 0.32 0.32 0.0 0 1 89.22 441.70
  Q 84.46 447.83 81.24 455.27
  A 0.34 0.33 -65.3 0 1 80.79 455.44
  C 72.36 451.62 62.01 444.23 58.09 435.40
  Q 57.16 433.30 58.07 430.85
  A 0.98 0.97 -61.8 0 1 59.55 430.40
  Q 61.78 431.99 65.30 433.45
  Q 77.42 438.47 89.04 441.20
  Z"
/>
<path d="
  M 277.14 443.39
  A 1.41 1.40 -9.2 0 1 279.02 444.74
  L 278.89 450.37
  A 4.33 4.32 -12.8 0 1 276.50 454.15
  Q 271.30 456.75 263.33 458.34
  Q 244.26 462.15 225.51 462.09
  Q 221.55 462.08 217.76 461.04
  Q 212.94 459.72 213.51 454.52
  Q 214.10 449.04 214.28 444.22
  A 1.11 1.11 0.0 0 1 215.14 443.18
  L 247.52 435.96
  A 1.08 1.08 0.0 0 1 248.73 436.55
  C 254.03 447.62 267.30 446.89 277.14 443.39
  Z"
/>
<path d="
  M 104.98 485.60
  A 0.31 0.31 0.0 0 1 105.19 486.13
  C 101.35 490.13 95.54 488.88 90.67 488.16
  Q 80.33 486.64 71.47 481.11
  Q 61.89 475.12 55.35 469.28
  C 48.98 463.59 39.43 451.87 46.43 444.00
  Q 49.16 440.94 52.15 438.38
  A 0.63 0.62 -32.3 0 1 53.13 438.60
  C 57.71 448.93 68.32 456.25 78.25 461.04
  A 0.83 0.82 18.7 0 1 78.70 461.95
  C 78.46 463.15 77.93 464.76 77.87 465.81
  Q 77.27 476.82 87.48 481.55
  Q 95.51 485.26 104.98 485.60
  Z"
/>
</g>
<g fill="var(--art-astronaut-secondary)">
<path d="
  M 103.91 130.95
  A 0.25 0.25 0.0 0 1 103.75 130.51
  C 113.73 122.05 113.81 104.60 110.51 93.02
  Q 108.81 87.06 104.01 82.92
  A 0.42 0.42 0.0 0 1 104.26 82.19
  C 114.28 81.67 120.91 89.85 122.64 99.20
  C 124.57 109.58 122.12 121.11 113.56 127.78
  Q 109.25 131.13 103.91 130.95
  Z"
/>
<ellipse cx="0.00" cy="0.00" transform="translate(95.43,106.86) rotate(-90.0)" rx="20.70" ry="10.26"/>
<path d="
  M 92.27 147.36
  A 0.50 0.50 0.0 0 1 91.90 148.11
  Q 86.24 148.83 80.91 150.38
  C 76.52 151.65 74.85 155.49 73.66 160.19
  Q 71.21 169.84 68.59 181.21
  A 1.19 1.18 -73.8 0 1 67.05 182.06
  L 40.37 172.75
  A 1.26 1.25 -75.3 0 1 39.55 171.33
  C 41.95 158.76 45.25 145.34 58.58 140.05
  Q 70.58 135.29 83.98 135.18
  A 2.14 2.13 -15.1 0 1 85.85 136.25
  L 92.27 147.36
  Z"
/>
<path d="
  M 77.71 176.03
  A 0.38 0.37 83.8 0 1 77.18 175.60
  L 81.25 159.26
  A 1.86 1.86 0.0 0 1 82.65 157.90
  L 95.10 155.12
  A 1.65 1.64 -19.4 0 1 96.92 155.99
  C 98.19 158.56 97.24 159.60 95.86 162.43
  Q 93.60 167.08 90.97 170.27
  A 1.58 1.55 -77.3 0 1 90.17 170.79
  C 84.75 172.27 81.98 173.90 77.71 176.03
  Z"
/>
<path d="
  M 101.19 169.26
  A 0.32 0.32 0.0 0 1 100.97 168.73
  Q 103.43 165.93 107.24 164.42
  A 1.73 1.73 0.0 0 1 108.65 164.49
  Q 112.05 166.25 122.50 171.77
  Q 127.93 174.64 130.68 177.82
  C 142.49 191.47 143.83 209.51 140.99 226.58
  C 139.20 237.35 134.74 248.19 127.87 256.84
  A 1.08 1.07 11.6 0 1 127.27 257.23
  L 118.11 259.52
  A 1.53 1.52 -37.1 0 1 117.01 259.37
  L 112.87 257.09
  A 0.58 0.58 0.0 0 1 112.80 256.12
  C 129.50 243.48 133.15 217.53 130.21 198.40
  C 127.91 183.50 116.65 170.63 101.19 169.26
  Z"
/>
<path d="
  M 288.93 176.96
  C 289.98 182.49 293.65 188.65 298.17 191.67
  A 1.40 1.40 0.0 0 1 298.19 193.99
  L 296.88 194.89
  A 3.28 3.27 -44.6 0 1 293.12 194.87
  Q 285.38 189.37 284.48 180.03
  A 2.96 2.96 0.0 0 1 285.74 177.31
  L 287.25 176.28
  A 1.08 1.08 0.0 0 1 288.93 176.96
  Z"
/>
<path d="
  M 139.72 178.15
  Q 178.79 193.15 220.99 190.39
  Q 228.56 189.89 235.93 187.98
  A 0.44 0.44 0.0 0 1 236.42 188.64
  C 233.52 193.33 226.00 195.10 220.51 196.08
  Q 206.05 198.69 185.26 196.54
  Q 168.07 194.76 152.80 187.95
  Q 145.52 184.70 139.37 178.70
  A 0.33 0.33 0.0 0 1 139.72 178.15
  Z"
/>
<path d="
  M 29.13 223.89
  L 37.74 179.34
  A 0.62 0.61 15.0 0 1 38.55 178.88
  L 61.14 186.76
  A 0.60 0.60 0.0 0 1 61.34 187.78
  Q 42.62 204.03 29.76 224.14
  A 0.35 0.35 0.0 0 1 29.13 223.89
  Z"
/>
<path d="
  M 276.10 186.21
  A 3.95 3.93 55.5 0 1 276.67 183.09
  L 277.51 181.86
  A 0.92 0.92 0.0 0 1 279.17 182.21
  Q 280.95 192.12 288.87 198.48
  A 0.86 0.85 60.9 0 1 288.44 200.00
  C 280.37 200.95 277.79 193.37 276.10 186.21
  Z"
/>
<path d="
  M 245.47 197.51
  L 243.98 187.73
  A 1.71 1.70 69.8 0 1 244.76 186.04
  L 246.86 184.74
  A 1.02 1.01 -26.5 0 1 248.35 185.23
  L 251.50 193.32
  A 1.50 1.49 -26.8 0 1 250.90 195.13
  L 246.39 197.93
  A 0.61 0.60 -20.4 0 1 245.47 197.51
  Z"
/>
<path d="
  M 274.97 199.58
  A 1.55 1.55 0.0 0 1 274.40 201.58
  L 269.79 204.44
  A 1.79 1.79 0.0 0 1 267.32 203.87
  L 264.68 199.62
  A 3.03 3.02 -35.2 0 1 265.37 195.65
  L 269.47 192.41
  A 1.44 1.43 57.6 0 1 271.64 192.90
  L 274.97 199.58
  Z"
/>
<path d="
  M 171.33 265.71
  A 2.01 2.01 0.0 0 1 168.38 264.73
  L 166.46 259.80
  A 2.95 2.94 63.0 0 1 167.61 256.25
  Q 212.25 227.38 257.51 200.18
  A 0.39 0.39 0.0 0 1 258.04 200.31
  L 262.76 207.88
  A 0.93 0.92 58.8 0 1 262.45 209.16
  C 248.17 217.92 231.24 228.75 214.66 238.47
  C 198.63 247.88 184.43 257.43 171.33 265.71
  Z"
/>
<path d="
  M 211.22 258.21
  A 0.26 0.26 0.0 0 1 210.87 258.11
  L 208.92 254.70
  A 3.06 2.35 -29.8 0 1 210.40 251.14
  L 226.79 241.76
  A 3.06 2.35 -29.8 0 1 230.61 242.28
  L 232.56 245.69
  A 0.26 0.26 0.0 0 1 232.47 246.04
  L 211.22 258.21
  Z"
/>
<path d="
  M 108.64 263.29
  A 0.36 0.36 0.0 0 1 108.62 263.90
  Q 95.26 272.02 89.12 285.93
  C 85.76 293.54 84.61 303.19 86.64 311.11
  A 0.45 0.44 88.2 0 1 86.13 311.66
  Q 82.02 310.90 76.03 309.65
  C 67.46 307.86 61.11 306.48 60.20 297.28
  C 58.25 277.63 69.88 259.79 89.36 255.36
  C 92.68 254.60 95.29 255.97 98.93 257.80
  Q 105.20 260.96 108.64 263.29
  Z"
/>
<path d="
  M 160.68 261.41
  L 165.25 269.32
  A 0.59 0.59 0.0 0 1 165.07 270.10
  L 154.92 277.11
  A 0.59 0.59 0.0 0 1 154.21 277.08
  L 146.89 271.07
  A 0.59 0.59 0.0 0 1 146.92 270.13
  L 159.83 261.22
  A 0.59 0.59 0.0 0 1 160.68 261.41
  Z"
/>
<path d="
  M 20.87 276.57
  A 0.32 0.32 0.0 0 1 21.48 276.49
  C 25.10 284.05 30.80 290.11 37.73 294.89
  A 1.51 1.51 0.0 0 1 37.86 297.27
  L 33.90 300.71
  A 2.25 2.25 0.0 0 1 31.07 300.80
  C 22.43 294.23 19.02 287.43 20.87 276.57
  Z"
/>
<path d="
  M 165.85 294.81
  A 0.36 0.35 -3.7 0 1 165.38 294.40
  Q 167.08 286.22 163.28 280.43
  A 0.85 0.85 0.0 0 1 163.51 279.26
  L 167.07 276.80
  A 0.65 0.64 62.5 0 1 168.04 277.11
  C 170.15 283.00 171.23 288.97 166.89 294.06
  Q 166.42 294.61 165.85 294.81
  Z"
/>
<path d="
  M 61.42 313.42
  A 0.24 0.23 -14.1 0 1 61.19 313.80
  Q 52.28 311.84 44.73 308.68
  A 0.51 0.51 0.0 0 1 44.66 307.78
  L 50.93 303.88
  A 1.99 1.97 -36.3 0 1 53.47 304.26
  L 61.42 313.42
  Z"
/>
<path d="
  M 161.87 335.33
  L 164.31 317.61
  A 4.27 4.27 0.0 0 1 168.63 313.92
  L 193.63 314.47
  A 4.27 4.27 0.0 0 1 197.77 319.32
  L 195.40 336.49
  A 4.27 4.27 0.0 0 1 191.17 340.18
  L 166.10 340.18
  A 4.27 4.27 0.0 0 1 161.87 335.33
  Z"
/>
<path d="
  M 85.99 319.59
  L 82.70 330.42
  A 0.87 0.87 0.0 0 1 81.62 331.00
  L 67.29 326.65
  A 0.87 0.87 0.0 0 1 66.69 325.65
  L 68.53 316.12
  A 0.87 0.87 0.0 0 1 69.54 315.44
  L 85.32 318.49
  A 0.87 0.87 0.0 0 1 85.99 319.59
  Z"
/>
<path d="
  M 223.83 317.08
  L 222.92 330.79
  A 0.67 0.67 0.0 0 1 222.35 331.41
  L 203.37 334.30
  A 0.67 0.67 0.0 0 1 202.60 333.55
  L 204.67 318.51
  A 0.67 0.67 0.0 0 1 205.27 317.93
  L 223.10 316.37
  A 0.67 0.67 0.0 0 1 223.83 317.08
  Z"
/>
<path d="
  M 130.56 332.11
  A 0.37 0.37 0.0 0 1 130.50 331.38
  C 137.18 329.68 140.44 325.57 143.13 319.47
  A 1.14 1.13 1.2 0 1 143.77 318.86
  L 147.10 317.56
  A 3.50 3.48 36.3 0 1 148.57 317.34
  L 157.13 317.93
  A 0.42 0.42 0.0 0 1 157.52 318.41
  L 155.39 333.90
  A 0.74 0.73 -83.4 0 1 154.60 334.53
  L 130.56 332.11
  Z"
/>
<path d="
  M 92.01 321.19
  L 96.62 325.52
  A 0.49 0.48 -58.4 0 1 96.74 326.05
  Q 93.53 334.61 88.44 343.25
  A 0.85 0.85 0.0 0 1 87.15 343.46
  C 85.49 342.00 86.30 339.09 86.98 337.00
  Q 89.53 329.14 91.73 321.27
  A 0.17 0.17 0.0 0 1 92.01 321.19
  Z"
/>
<path d="
  M 106.54 333.74
  L 108.30 330.11
  A 0.70 0.69 -73.3 0 1 109.01 329.72
  L 111.64 330.09
  A 0.73 0.72 13.1 0 1 112.23 331.03
  Q 110.96 334.87 106.94 334.45
  A 0.50 0.50 0.0 0 1 106.54 333.74
  Z"
/>
<path d="
  M 100.05 347.46
  L 103.90 340.90
  A 0.32 0.31 20.0 0 1 104.23 340.75
  Q 110.43 341.85 115.26 338.26
  Q 116.76 337.15 118.34 332.76
  A 1.02 1.00 -78.0 0 1 119.35 332.09
  L 122.04 332.27
  A 0.73 0.73 0.0 0 1 122.71 333.10
  Q 121.70 340.32 120.02 346.17
  Q 118.94 349.95 115.55 350.75
  A 0.61 0.47 38.0 0 1 115.34 350.75
  L 100.22 347.83
  A 0.25 0.25 0.0 0 1 100.05 347.46
  Z"
/>
<path d="
  M 236.66 360.91
  L 243.61 358.20
  A 1.02 1.02 0.0 0 1 244.75 358.48
  L 256.89 372.48
  A 1.02 1.02 0.0 0 1 256.49 374.10
  L 248.71 377.13
  A 1.02 1.02 0.0 0 1 247.54 376.81
  L 236.23 362.49
  A 1.02 1.02 0.0 0 1 236.66 360.91
  Z"
/>
<path d="
  M 122.65 394.28
  A 1.28 1.28 0.0 0 1 123.24 395.55
  L 121.60 407.45
  A 1.80 1.79 -3.4 0 1 120.26 408.95
  L 94.32 415.43
  A 3.36 3.35 -38.9 0 1 92.05 415.19
  L 63.33 401.30
  A 2.15 2.14 13.2 0 1 62.13 399.38
  L 62.13 386.81
  A 2.33 2.33 0.0 0 1 63.75 384.59
  Q 65.99 383.87 69.23 384.34
  Q 91.24 387.56 118.17 392.58
  Q 120.69 393.05 122.65 394.28
  Z
  M 96.3070 402.1611
  A 4.36 3.54 -61.7 0 0 91.1231 404.3217
  A 4.36 3.54 -61.7 0 0 92.1730 409.8389
  A 4.36 3.54 -61.7 0 0 97.3569 407.6783
  A 4.36 3.54 -61.7 0 0 96.3070 402.1611
  Z"
/>
<path d="
  M 279.15 435.50
  C 273.64 438.62 257.84 442.42 254.59 433.93
  Q 249.44 420.51 248.18 407.02
  C 247.71 401.98 249.30 398.66 253.73 396.27
  C 262.17 391.72 273.17 389.27 278.02 400.32
  Q 284.38 414.80 282.06 431.02
  Q 281.85 432.48 280.05 434.72
  A 3.25 3.08 -84.4 0 1 279.15 435.50
  Z
  M 255.1017 401.7104
  A 4.40 3.64 -112.0 0 0 253.3751 407.1536
  A 4.40 3.64 -112.0 0 0 258.3983 409.8696
  A 4.40 3.64 -112.0 0 0 260.1249 404.4264
  A 4.40 3.64 -112.0 0 0 255.1017 401.7104
  Z
  M 259.7767 425.5017
  A 4.29 3.56 -101.2 0 0 257.1178 430.4015
  A 4.29 3.56 -101.2 0 0 261.4433 433.9183
  A 4.29 3.56 -101.2 0 0 264.1022 429.0185
  A 4.29 3.56 -101.2 0 0 259.7767 425.5017
  Z"
/>
<path d="
  M 62.03 408.13
  A 0.44 0.44 0.0 0 1 62.66 407.73
  Q 76.57 414.71 90.21 421.01
  Q 92.24 421.95 96.07 421.07
  Q 106.19 418.75 118.89 415.29
  A 0.77 0.77 0.0 0 1 119.85 416.18
  C 118.81 421.26 117.99 427.19 115.23 431.28
  A 1.29 1.29 0.0 0 1 113.88 431.82
  Q 105.40 429.95 97.04 433.32
  Q 93.81 434.62 92.87 434.95
  A 2.38 2.38 0.0 0 1 91.57 435.02
  Q 81.10 432.69 70.91 428.94
  C 67.29 427.61 61.62 425.50 61.84 420.74
  Q 62.12 414.70 62.03 408.13
  Z"
/>
<path d="
  M 132.94 446.05
  Q 133.44 448.80 132.05 453.07
  Q 128.69 463.45 119.45 473.47
  Q 114.28 479.08 107.39 479.16
  Q 97.91 479.26 89.66 475.22
  C 83.33 472.11 83.64 466.41 86.10 460.63
  Q 91.05 449.04 96.51 443.56
  Q 100.81 439.25 108.02 438.68
  C 115.55 438.10 126.68 439.52 132.43 445.09
  A 1.79 1.77 17.4 0 1 132.94 446.05
  Z
  M 104.0246 444.5374
  A 4.50 3.66 -68.7 0 0 98.9800 447.4005
  A 4.50 3.66 -68.7 0 0 100.7554 452.9226
  A 4.50 3.66 -68.7 0 0 105.8000 450.0595
  A 4.50 3.66 -68.7 0 0 104.0246 444.5374
  Z
  M 91.7901 463.6696
  A 3.86 3.34 -100.9 0 0 89.2403 468.0916
  A 3.86 3.34 -100.9 0 0 93.2499 471.2504
  A 3.86 3.34 -100.9 0 0 95.7997 466.8284
  A 3.86 3.34 -100.9 0 0 91.7901 463.6696
  Z"
/>
<path d="
  M 45.39 542.64
  Q 44.47 542.37 42.80 540.86
  Q 34.72 533.52 28.00 525.37
  A 1.74 1.74 0.0 0 1 27.85 523.37
  C 32.69 515.24 37.71 504.16 32.96 494.79
  Q 30.68 490.30 27.28 484.20
  C 25.42 480.85 26.68 479.76 28.52 476.74
  Q 33.02 469.35 38.12 462.19
  A 0.89 0.89 0.0 0 1 39.61 462.25
  C 45.07 471.41 52.97 477.92 61.98 483.65
  A 0.92 0.91 -55.9 0 1 62.23 484.96
  Q 58.35 490.28 54.74 497.27
  C 50.89 504.72 50.37 512.10 52.86 519.44
  C 53.56 521.51 55.74 521.57 57.54 520.83
  Q 69.21 516.00 80.59 517.52
  A 0.99 0.99 0.0 0 1 81.44 518.63
  L 81.44 518.66
  A 1.20 1.19 2.6 0 1 80.30 519.70
  Q 75.27 519.89 72.86 520.29
  Q 52.67 523.64 46.35 542.14
  A 0.80 0.79 -72.3 0 1 45.39 542.64
  Z"
/>
<path d="
  M 254.79 476.16
  A 0.78 0.77 -3.1 0 1 253.90 475.37
  L 254.03 469.21
  A 1.16 1.14 -3.6 0 1 255.02 468.10
  Q 267.26 466.43 279.48 461.87
  A 0.15 0.14 84.0 0 1 279.67 462.03
  L 278.93 469.48
  A 0.46 0.46 0.0 0 1 278.64 469.86
  Q 266.87 474.35 254.79 476.16
  Z"
/>
<path d="
  M 284.45 506.11
  A 0.52 0.52 0.0 0 1 284.26 507.00
  Q 266.48 512.20 261.30 529.51
  C 260.68 531.61 260.63 534.13 260.38 536.19
  A 0.49 0.48 6.8 0 1 259.83 536.62
  L 240.57 533.97
  A 1.33 1.33 0.0 0 1 239.43 532.60
  C 239.69 526.98 239.24 517.44 237.09 511.42
  C 234.17 503.24 224.90 498.89 216.95 495.92
  A 1.55 1.55 0.0 0 1 215.94 494.37
  L 217.63 469.20
  A 0.54 0.54 0.0 0 1 218.27 468.71
  C 227.44 470.53 237.46 469.96 246.79 469.05
  A 0.62 0.62 0.0 0 1 247.47 469.68
  C 247.06 483.50 245.09 506.59 261.26 513.00
  A 3.49 3.48 41.3 0 0 264.19 512.82
  C 267.80 510.84 280.71 502.81 284.45 506.11
  Z"
/>
<path d="
  M 278.55 476.17
  L 277.95 485.14
  A 0.33 0.32 79.7 0 1 277.76 485.42
  Q 266.46 490.26 255.06 491.12
  A 0.83 0.82 -3.4 0 1 254.17 490.34
  L 253.80 482.68
  A 0.92 0.91 -4.3 0 1 254.62 481.73
  Q 266.56 480.44 278.34 476.01
  A 0.16 0.15 81.8 0 1 278.55 476.17
  Z"
/>
<path d="
  M 22.57 488.04
  Q 23.86 489.77 25.09 492.24
  Q 25.19 492.43 26.88 495.81
  C 31.07 504.16 27.62 511.33 23.57 518.80
  A 0.65 0.65 0.0 0 1 22.48 518.88
  Q 17.65 512.41 15.14 505.37
  C 14.54 503.69 14.81 502.01 15.75 500.26
  Q 16.78 498.33 22.12 488.07
  A 0.27 0.26 41.1 0 1 22.57 488.04
  Z"
/>
<path d="
  M 92.11 495.95
  A 0.94 0.94 0.0 0 1 92.90 497.41
  L 91.02 500.20
  A 3.42 3.41 -71.0 0 1 87.97 501.69
  C 80.54 501.22 70.98 499.10 64.69 494.72
  A 1.10 1.10 0.0 0 1 64.41 493.20
  L 67.36 488.84
  A 1.07 1.07 0.0 0 1 68.88 488.57
  Q 74.80 492.90 84.64 494.84
  Q 90.36 495.96 92.11 495.95
  Z"
/>
<path d="
  M 276.77 491.70
  A 0.56 0.55 -18.6 0 1 277.54 492.08
  L 279.14 499.23
  A 0.74 0.74 0.0 0 1 278.61 500.10
  Q 271.62 501.86 264.16 506.28
  A 2.58 2.58 0.0 0 1 261.34 506.16
  Q 256.59 502.77 255.33 497.35
  A 0.61 0.61 0.0 0 1 255.91 496.60
  C 263.01 496.48 270.40 494.60 276.77 491.70
  Z"
/>
<path d="
  M 84.80 507.43
  A 0.72 0.72 0.0 0 1 85.30 508.55
  L 83.36 511.42
  A 1.76 1.76 0.0 0 1 81.60 512.16
  Q 70.42 510.18 59.77 514.35
  A 1.48 1.48 0.0 0 1 57.76 513.12
  Q 57.04 505.55 60.52 499.57
  A 0.56 0.56 0.0 0 1 61.30 499.38
  C 68.25 503.78 76.29 506.31 84.80 507.43
  Z"
/>
<path d="
  M 232.81 532.09
  Q 223.61 530.79 215.84 526.42
  A 1.32 1.32 0.0 0 1 215.17 525.24
  L 215.68 502.12
  A 0.43 0.43 0.0 0 1 216.26 501.73
  C 223.65 504.54 231.39 508.36 232.53 517.02
  Q 233.35 523.23 233.53 531.45
  A 0.64 0.63 -86.5 0 1 232.81 532.09
  Z"
/>
<path d="
  M 10.63 510.04
  A 0.35 0.35 0.0 0 1 11.21 510.14
  C 12.49 513.33 14.76 517.58 16.91 520.45
  Q 24.14 530.10 32.31 538.86
  C 41.62 548.86 51.50 553.52 65.00 554.99
  Q 85.33 557.21 102.11 553.15
  A 1.73 1.73 0.0 0 1 104.16 555.38
  L 103.89 556.17
  A 5.99 5.95 -88.2 0 1 99.79 560.04
  C 88.21 563.15 75.10 562.80 63.32 562.13
  C 53.22 561.56 44.32 559.23 36.78 551.91
  Q 29.67 545.02 23.44 535.15
  Q 20.92 531.15 17.01 533.59
  A 1.10 1.10 0.0 0 1 15.63 533.42
  C 10.90 528.45 5.13 522.78 7.97 515.47
  C 8.79 513.39 9.56 511.21 10.63 510.04
  Z"
/>
<path d="
  M 267.23 537.64
  A 0.74 0.73 -88.3 0 1 266.55 536.91
  C 266.12 518.85 284.48 508.76 300.53 513.27
  Q 313.93 517.04 316.53 530.69
  A 1.63 1.62 -14.1 0 1 315.41 532.55
  Q 291.77 539.71 267.23 537.64
  Z"
/>
<path d="
  M 51.97 545.35
  C 53.57 533.70 64.06 526.90 74.99 526.02
  C 84.96 525.21 98.30 527.87 102.07 538.40
  Q 103.58 542.60 103.83 546.07
  A 1.14 1.13 75.5 0 1 103.18 547.19
  Q 101.55 547.96 98.03 548.58
  C 85.20 550.81 69.89 551.08 56.78 547.72
  Q 53.34 546.83 52.39 546.24
  A 0.91 0.90 19.9 0 1 51.97 545.35
  Z"
/>
<path d="
  M 215.29 532.94
  Q 226.30 536.76 228.43 537.12
  C 240.40 539.20 252.44 541.95 262.91 542.88
  Q 282.46 544.62 299.72 541.98
  Q 304.20 541.29 315.54 538.24
  A 1.44 1.43 82.4 0 1 317.35 539.63
  L 317.36 544.82
  A 2.78 2.76 -9.7 0 1 315.50 547.43
  Q 305.79 550.84 293.97 551.41
  Q 274.19 552.36 254.72 548.81
  Q 243.85 546.83 238.77 544.68
  A 2.33 2.27 48.0 0 0 237.27 544.58
  Q 235.02 545.21 234.69 548.11
  A 0.97 0.97 0.0 0 1 233.59 548.96
  Q 225.13 547.76 217.32 545.19
  C 212.85 543.72 213.92 536.82 214.57 533.36
  A 0.55 0.55 0.0 0 1 215.29 532.94
  Z"
/>
</g>
<g fill="var(--art-astronaut-accent)">
<path d="
  M 191.54 106.06
  A 0.49 0.49 0.0 0 1 192.17 106.57
  C 191.99 109.05 192.28 110.89 194.56 112.61
  Q 199.75 116.51 204.41 122.58
  A 0.96 0.96 0.0 0 0 205.92 122.60
  Q 206.06 122.42 205.98 122.04
  C 205.12 117.85 201.14 113.72 197.89 109.98
  A 1.97 1.92 -70.9 0 1 197.43 109.00
  L 195.57 96.80
  A 3.52 3.51 57.8 0 1 196.13 94.32
  L 200.05 88.52
  A 2.85 2.82 58.1 0 0 200.51 86.49
  L 199.45 79.58
  A 0.57 0.56 83.3 0 1 199.96 78.93
  L 210.00 78.05
  A 1.28 1.28 0.0 0 1 210.94 78.34
  L 212.80 79.87
  A 3.16 3.11 70.4 0 0 214.08 80.49
  Q 219.26 81.62 223.35 81.40
  A 0.82 0.82 0.0 0 0 223.43 79.77
  Q 217.42 78.83 212.84 74.94
  C 210.90 73.30 203.73 74.34 199.34 74.61
  A 0.81 0.80 87.6 0 1 198.49 73.82
  C 198.45 72.02 197.62 70.81 195.83 69.93
  Q 192.48 68.30 188.77 66.60
  A 1.44 1.43 12.1 0 1 187.92 65.29
  Q 187.91 58.45 188.45 52.56
  C 188.68 50.00 187.86 48.81 186.39 46.85
  A 0.89 0.89 0.0 0 1 186.60 45.58
  Q 188.18 44.50 191.51 43.25
  C 213.93 34.83 240.86 36.17 260.72 50.54
  C 283.06 66.70 291.03 94.11 284.03 120.69
  C 278.51 141.64 262.20 158.16 241.84 164.58
  Q 224.55 170.03 206.00 166.57
  C 176.66 161.10 152.15 137.10 150.54 106.33
  C 149.33 83.30 159.51 63.58 178.69 50.18
  Q 179.59 49.55 179.62 49.55
  A 2.46 2.46 0.0 0 1 182.42 52.29
  Q 181.36 60.58 181.13 66.94
  C 181.02 69.93 189.81 73.02 193.55 74.57
  A 1.45 1.45 0.0 0 1 194.44 75.98
  Q 194.23 80.17 195.35 84.05
  A 1.82 1.82 0.0 0 1 195.11 85.56
  L 190.86 91.85
  A 3.46 3.35 68.1 0 0 190.33 93.15
  Q 189.93 95.37 190.60 98.19
  A 1.22 1.22 0.0 0 1 190.13 99.46
  Q 188.18 100.87 186.64 101.40
  Q 179.06 104.01 173.93 108.17
  C 171.12 110.44 172.11 113.74 172.08 116.77
  A 3.28 3.26 -27.3 0 1 171.49 118.61
  C 169.82 121.00 168.10 123.24 167.63 125.90
  A 0.31 0.30 -15.4 0 0 168.13 126.18
  L 174.96 120.26
  A 3.32 3.31 67.0 0 0 176.09 117.46
  L 175.77 113.80
  A 1.69 1.69 0.0 0 1 176.14 112.59
  C 178.63 109.52 186.68 107.53 191.54 106.06
  Z
  M 271.10 93.87
  A 2.01 1.65 -71.9 0 0 273.26 92.49
  C 275.74 85.16 272.45 75.61 268.31 69.21
  C 263.56 61.88 256.38 54.97 247.45 53.07
  A 1.25 1.24 -59.0 0 0 246.38 53.34
  C 244.72 54.77 245.42 56.80 246.99 58.28
  C 253.02 63.98 257.97 69.80 261.82 77.27
  C 264.04 81.56 266.34 92.41 271.10 93.87
  Z"
/>
</g>
<g fill="var(--art-fire-primary)">
<path d="
  M 313.00 187.22
  Q 311.28 186.64 308.49 187.43
  C 301.18 189.51 295.61 178.89 294.95 173.37
  A 3.98 3.96 -23.9 0 1 296.31 169.87
  L 299.72 166.94
  Q 304.18 161.98 307.96 156.72
  Q 318.04 142.68 322.55 135.32
  Q 326.93 128.20 329.60 119.89
  A 1.37 1.37 0.0 0 1 331.70 119.19
  C 333.95 120.79 334.97 130.45 335.11 133.39
  A 0.87 0.86 -16.2 0 0 336.41 134.10
  Q 336.82 133.86 337.17 133.37
  Q 343.55 124.29 345.46 111.99
  Q 347.34 99.88 347.56 98.27
  C 349.54 84.12 355.07 71.37 364.93 61.44
  Q 365.77 60.59 366.11 60.52
  A 1.18 1.18 0.0 0 1 367.52 61.83
  C 366.47 69.73 368.11 78.68 370.86 85.57
  Q 372.34 89.27 376.79 90.17
  A 1.85 1.83 -54.3 0 0 378.09 89.95
  C 383.59 86.65 384.79 81.13 385.84 74.79
  Q 387.03 67.66 388.46 63.19
  Q 395.63 40.79 417.56 32.34
  C 424.50 29.66 435.12 26.84 441.61 23.00
  C 450.49 17.76 456.89 9.89 461.78 0.81
  A 0.41 0.41 0.0 0 1 462.49 0.79
  C 464.35 3.97 464.02 8.14 463.88 12.44
  Q 463.26 32.27 451.71 48.75
  C 445.76 57.25 438.33 66.30 438.94 76.95
  Q 439.31 83.30 445.60 81.82
  Q 451.82 80.35 454.79 73.71
  Q 457.71 67.18 460.96 61.46
  Q 462.16 59.34 463.75 57.68
  A 1.25 1.25 0.0 0 1 465.90 58.52
  C 465.94 60.81 465.31 63.13 465.29 65.66
  Q 465.24 75.65 465.04 86.98
  Q 464.84 98.30 459.55 107.75
  Q 451.16 122.76 435.93 130.11
  C 433.89 131.09 431.99 133.15 431.83 135.67
  C 431.47 141.25 437.50 142.62 441.77 141.83
  Q 448.36 140.61 454.60 137.34
  A 1.06 1.06 0.0 0 1 456.10 138.61
  C 455.04 141.82 451.45 146.10 446.76 152.57
  Q 441.18 160.25 437.75 163.50
  Q 423.42 177.07 403.29 179.19
  Q 401.69 179.36 393.60 178.72
  C 384.17 177.96 375.94 175.08 365.58 174.12
  C 362.00 173.79 359.29 173.42 356.44 174.07
  A 0.39 0.38 -24.3 0 0 356.21 174.67
  C 358.09 177.27 363.26 179.20 368.34 181.64
  Q 368.81 181.87 369.36 182.32
  A 0.73 0.73 0.0 0 1 369.07 183.59
  Q 360.95 185.59 350.75 184.80
  C 338.21 183.82 325.84 183.41 313.60 186.42
  Q 313.01 186.56 313.00 187.22
  Z
  M 428.04 54.21
  A 0.51 0.51 0.0 0 0 427.37 53.60
  C 413.77 58.53 406.77 71.63 401.67 84.30
  C 396.69 96.70 384.50 111.33 371.99 116.91
  A 1.05 1.04 67.3 0 1 370.59 116.33
  L 366.42 105.62
  A 0.46 0.46 0.0 0 0 365.63 105.50
  Q 365.38 105.81 365.22 106.45
  Q 362.33 117.75 356.48 127.73
  Q 351.42 136.36 348.04 140.31
  C 338.49 151.49 325.57 161.15 314.14 169.40
  Q 311.89 171.02 309.70 173.26
  A 0.46 0.46 0.0 0 0 310.15 174.02
  C 318.00 171.87 331.43 168.03 342.77 164.16
  C 352.56 160.81 362.16 159.27 373.98 159.38
  Q 382.93 159.47 391.01 159.26
  C 400.20 159.02 405.85 155.76 414.35 150.87
  Q 415.34 150.31 415.93 149.50
  A 0.53 0.52 21.3 0 0 415.56 148.67
  Q 414.35 148.52 410.69 148.54
  C 402.88 148.58 395.01 146.06 388.34 142.09
  A 0.67 0.67 0.0 0 1 388.29 140.98
  Q 401.94 130.99 412.25 117.28
  Q 424.93 100.42 425.92 79.72
  C 426.28 72.26 425.71 62.85 428.04 54.21
  Z"
/>
</g>
<g fill="var(--art-fire-secondary)">
<path d="
  M 428.04 54.21
  C 425.71 62.85 426.28 72.26 425.92 79.72
  Q 424.93 100.42 412.25 117.28
  Q 401.94 130.99 388.29 140.98
  A 0.67 0.67 0.0 0 0 388.34 142.09
  C 395.01 146.06 402.88 148.58 410.69 148.54
  Q 414.35 148.52 415.56 148.67
  A 0.53 0.52 21.3 0 1 415.93 149.50
  Q 415.34 150.31 414.35 150.87
  C 405.85 155.76 400.20 159.02 391.01 159.26
  Q 382.93 159.47 373.98 159.38
  C 362.16 159.27 352.56 160.81 342.77 164.16
  C 331.43 168.03 318.00 171.87 310.15 174.02
  A 0.46 0.46 0.0 0 1 309.70 173.26
  Q 311.89 171.02 314.14 169.40
  C 325.57 161.15 338.49 151.49 348.04 140.31
  Q 351.42 136.36 356.48 127.73
  Q 362.33 117.75 365.22 106.45
  Q 365.38 105.81 365.63 105.50
  A 0.46 0.46 0.0 0 1 366.42 105.62
  L 370.59 116.33
  A 1.05 1.04 67.3 0 0 371.99 116.91
  C 384.50 111.33 396.69 96.70 401.67 84.30
  C 406.77 71.63 413.77 58.53 427.37 53.60
  A 0.51 0.51 0.0 0 1 428.04 54.21
  Z"
/>
</g>
<g fill="var(--art-astronaut-glare)">
<path d="
  M 271.10 93.87
  C 266.34 92.41 264.04 81.56 261.82 77.27
  C 257.97 69.80 253.02 63.98 246.99 58.28
  C 245.42 56.80 244.72 54.77 246.38 53.34
  A 1.25 1.24 -59.0 0 1 247.45 53.07
  C 256.38 54.97 263.56 61.88 268.31 69.21
  C 272.45 75.61 275.74 85.16 273.26 92.49
  A 2.01 1.65 -71.9 0 1 271.10 93.87
  Z"
/>
</g>
</svg>
